<svg width="600" height="500" viewBox="0 0 600 500" fill="none" xmlns="http://www.w3.org/2000/svg">
<path d="M535.502 133.032C564.502 193.122 555.962 267.912 518.562 323.152C481.162 378.392 418.941 414.152 353.561 427.152C306.861 436.452 256.561 434.562 213.941 413.422C171.321 392.282 137.711 349.772 135.151 302.222C134.151 284.222 137.991 265.222 149.981 251.772C169.121 230.362 201.791 229.612 230.501 230.492C259.211 231.372 291.861 230.702 311.091 209.372C325.861 192.982 328.042 169.212 335.831 148.562C349.021 113.512 380.962 86.0716 417.672 78.3116C451.772 71.1016 488.972 81.0616 515.182 103.952C518.809 107.154 521.961 110.858 524.542 114.952C528.352 120.952 534.082 130.082 535.502 133.032Z" fill="#F5F5F5"/>
<path d="M577 460.251C577 460.366 455.659 460.464 306.016 460.464C156.374 460.464 35 460.366 35 460.251C35 460.137 156.316 460.047 306.016 460.047C455.716 460.047 577 460.129 577 460.251Z" fill="#263238"/>
<path d="M232.279 191.399L239.339 311.789C239.459 313.855 240.363 315.797 241.867 317.219C243.37 318.641 245.36 319.435 247.429 319.439L464.129 320.099C465.196 320.103 466.254 319.897 467.241 319.492C468.229 319.086 469.126 318.491 469.883 317.738C470.64 316.986 471.241 316.092 471.652 315.107C472.064 314.122 472.277 313.066 472.279 311.999L472.569 218.259C472.572 217.187 472.363 216.125 471.953 215.135C471.544 214.144 470.943 213.244 470.184 212.487C469.426 211.729 468.525 211.129 467.534 210.721C466.543 210.313 465.481 210.105 464.409 210.109L331.139 210.559C330.073 210.563 329.016 210.357 328.029 209.952C327.042 209.547 326.145 208.951 325.389 208.199L302.299 185.319C300.781 183.817 298.735 182.97 296.599 182.959L240.419 182.789C239.31 182.787 238.211 183.012 237.192 183.45C236.172 183.889 235.253 184.531 234.491 185.337C233.728 186.143 233.139 187.097 232.759 188.14C232.378 189.182 232.215 190.291 232.279 191.399Z" fill="#395987"/>
<path opacity="0.3" d="M232.279 191.399L239.339 311.789C239.459 313.855 240.363 315.797 241.867 317.219C243.37 318.641 245.36 319.435 247.429 319.439L464.129 320.099C465.196 320.103 466.254 319.897 467.241 319.492C468.229 319.086 469.126 318.491 469.883 317.738C470.64 316.986 471.241 316.092 471.652 315.107C472.064 314.122 472.277 313.066 472.279 311.999L472.569 218.259C472.572 217.187 472.363 216.125 471.953 215.135C471.544 214.144 470.943 213.244 470.184 212.487C469.426 211.729 468.525 211.129 467.534 210.721C466.543 210.313 465.481 210.105 464.409 210.109L331.139 210.559C330.073 210.563 329.016 210.357 328.029 209.952C327.042 209.547 326.145 208.951 325.389 208.199L302.299 185.319C300.781 183.817 298.735 182.97 296.599 182.959L240.419 182.789C239.31 182.787 238.211 183.012 237.192 183.45C236.172 183.889 235.253 184.531 234.491 185.337C233.728 186.143 233.139 187.097 232.759 188.14C232.378 189.182 232.215 190.291 232.279 191.399Z" fill="black"/>
<path d="M227.849 257.299L245.479 404.889C245.631 406.156 246.24 407.324 247.192 408.173C248.144 409.022 249.374 409.494 250.649 409.499L481.389 410.199C482.706 410.206 483.976 409.715 484.946 408.825C485.916 407.935 486.513 406.711 486.619 405.399L498.689 257.899C498.747 257.18 498.656 256.457 498.421 255.774C498.186 255.092 497.813 254.465 497.325 253.934C496.837 253.403 496.244 252.978 495.584 252.686C494.924 252.395 494.211 252.242 493.489 252.239L233.059 251.449C232.319 251.447 231.586 251.602 230.91 251.904C230.234 252.206 229.629 252.648 229.137 253.201C228.644 253.754 228.275 254.405 228.053 255.112C227.831 255.818 227.762 256.564 227.849 257.299Z" fill="#395987"/>
<path d="M205.611 455.671L205.521 447.471L190.141 447.551V459.551L191.141 459.611C195.381 459.821 212.731 460.391 215.561 459.521C218.691 458.541 205.611 455.671 205.611 455.671Z" fill="#455A64"/>
<path d="M189.938 459.201H190.197H190.958L193.757 459.311C196.117 459.381 199.377 459.441 202.977 459.431C206.577 459.421 209.848 459.331 212.208 459.241L214.997 459.111L215.757 459.061H216.018C215.931 459.05 215.844 459.05 215.757 459.061H214.997L212.197 459.121C209.837 459.181 206.577 459.251 202.977 459.261C199.377 459.271 196.117 459.261 193.757 459.201L190.958 459.151H189.958L189.938 459.201Z" fill="#263238"/>
<path d="M210.65 459.531C210.767 459.066 210.938 458.616 211.16 458.191C211.452 457.798 211.788 457.439 212.16 457.121C211.675 457.299 211.277 457.657 211.05 458.121C210.743 458.524 210.6 459.027 210.65 459.531Z" fill="#263238"/>
<path d="M206.1 457.251C206.15 457.251 206.36 457.011 206.58 456.661C206.741 456.459 206.854 456.223 206.91 455.971C206.91 455.971 206.65 456.201 206.43 456.561C206.21 456.921 206.06 457.221 206.1 457.251Z" fill="#263238"/>
<path d="M204.847 456.601C204.847 456.601 205.127 456.471 205.387 456.231C205.647 455.991 205.837 455.771 205.807 455.731C205.777 455.691 205.527 455.851 205.267 456.091C205.007 456.331 204.817 456.561 204.847 456.601Z" fill="#263238"/>
<path d="M204.062 455.151C204.32 455.239 204.592 455.273 204.863 455.251C205.136 455.281 205.412 455.25 205.673 455.161C205.414 455.066 205.137 455.032 204.863 455.061C204.592 455.032 204.319 455.063 204.062 455.151Z" fill="#263238"/>
<path d="M203.789 454.13C204.053 454.302 204.364 454.39 204.679 454.38C204.994 454.429 205.317 454.387 205.609 454.26C205.309 454.204 205.004 454.184 204.699 454.2C204.399 454.146 204.094 454.123 203.789 454.13Z" fill="#263238"/>
<path d="M206.617 455.901C206.947 455.969 207.287 455.969 207.617 455.901C207.977 455.859 208.332 455.782 208.677 455.671C208.886 455.61 209.087 455.526 209.277 455.421C209.39 455.348 209.475 455.239 209.517 455.111C209.533 455.037 209.527 454.96 209.5 454.889C209.474 454.818 209.427 454.757 209.367 454.711C208.988 454.531 208.559 454.486 208.152 454.584C207.744 454.682 207.382 454.918 207.127 455.251C206.975 455.45 206.866 455.678 206.807 455.921C206.783 456.006 206.783 456.096 206.807 456.181C206.899 455.875 207.048 455.59 207.247 455.341C207.468 455.08 207.76 454.889 208.087 454.791C208.278 454.723 208.482 454.694 208.684 454.706C208.887 454.718 209.085 454.771 209.267 454.861C209.427 454.981 209.367 455.161 209.187 455.261C209.015 455.365 208.83 455.446 208.637 455.501C208.313 455.623 207.978 455.713 207.637 455.771C206.997 455.871 206.617 455.871 206.617 455.901Z" fill="#263238"/>
<path d="M206.873 456C206.997 455.796 207.036 455.552 206.983 455.32C206.957 455.06 206.864 454.812 206.713 454.6C206.629 454.454 206.51 454.332 206.366 454.245C206.223 454.157 206.06 454.107 205.893 454.1C205.793 454.121 205.706 454.18 205.649 454.263C205.591 454.347 205.568 454.449 205.583 454.55C205.607 454.707 205.665 454.857 205.753 454.99C205.884 455.208 206.042 455.409 206.223 455.59C206.377 455.768 206.573 455.905 206.793 455.99C206.793 455.99 206.593 455.81 206.323 455.5C206.161 455.319 206.02 455.122 205.903 454.91C205.773 454.7 205.673 454.33 205.903 454.28C206.133 454.23 206.403 454.5 206.553 454.7C206.693 454.889 206.789 455.108 206.833 455.34C206.87 455.558 206.883 455.779 206.873 456Z" fill="#263238"/>
<path d="M190.227 455.001C190.227 455.001 190.667 455.001 191.367 455.001C192.265 455.103 193.117 455.457 193.825 456.021C194.532 456.585 195.066 457.337 195.367 458.191C195.607 458.851 195.627 459.291 195.667 459.281C195.683 459.178 195.683 459.073 195.667 458.971C195.644 458.691 195.587 458.416 195.497 458.151C195.217 457.248 194.674 456.451 193.937 455.861C193.19 455.28 192.289 454.933 191.347 454.861C191.068 454.828 190.786 454.828 190.507 454.861C190.407 454.893 190.313 454.94 190.227 455.001Z" fill="#263238"/>
<path d="M191.801 448.59C191.696 449.64 191.656 450.695 191.681 451.75C191.632 452.804 191.656 453.859 191.751 454.91C191.848 453.859 191.884 452.804 191.861 451.75C191.903 450.696 191.883 449.641 191.801 448.59Z" fill="#263238"/>
<path d="M197.656 457.901C198.392 458.06 199.144 458.13 199.896 458.111C200.651 458.147 201.408 458.083 202.146 457.921C202.146 457.861 201.146 457.921 199.896 457.921C198.646 457.921 197.656 457.841 197.656 457.901Z" fill="#263238"/>
<path d="M194.641 457.9C194.641 457.9 194.731 458.121 194.831 458.351C194.931 458.581 194.991 458.78 195.041 458.78C195.091 458.78 195.121 458.53 195.041 458.27C194.961 458.01 194.681 457.87 194.641 457.9Z" fill="#263238"/>
<path d="M193.5 456.501C193.5 456.501 193.57 456.691 193.73 456.851C193.89 457.011 194.04 457.111 194.08 457.081C194.12 457.051 194.02 456.881 193.86 456.721C193.7 456.561 193.54 456.461 193.5 456.501Z" fill="#263238"/>
<path d="M191.876 455.86C191.876 455.91 192.086 455.91 192.316 455.99C192.546 456.07 192.706 456.18 192.746 456.15C192.786 456.12 192.656 455.9 192.376 455.81C192.096 455.72 191.856 455.81 191.876 455.86Z" fill="#263238"/>
<path d="M190.719 455.561C190.719 455.611 190.789 455.691 190.919 455.741C191.049 455.791 191.159 455.741 191.179 455.741C191.199 455.741 191.109 455.611 190.979 455.561C190.849 455.511 190.739 455.511 190.719 455.561Z" fill="#263238"/>
<path d="M116.11 443.841L120.46 436.841L107.46 428.631L101 438.781L101.77 439.341C105.23 441.801 119.53 451.631 122.38 452.421C125.58 453.301 116.11 443.841 116.11 443.841Z" fill="#455A64"/>
<path d="M101 438.359L101.21 438.529L101.83 438.969L104.12 440.569C106.12 441.899 108.79 443.709 111.83 445.639C114.87 447.569 117.66 449.259 119.7 450.449L122.12 451.849L122.79 452.219C122.94 452.299 123.02 452.339 123.03 452.329L122.81 452.179L122.16 451.789L119.77 450.339C117.77 449.119 114.97 447.409 111.93 445.479C108.89 443.549 106.16 441.769 104.2 440.479L101.87 438.929L101.23 438.519L101 438.359Z" fill="#263238"/>
<path d="M118.281 449.799C118.633 449.476 119.019 449.191 119.431 448.949C119.874 448.765 120.337 448.634 120.811 448.559C120.314 448.451 119.794 448.529 119.351 448.779C118.877 448.97 118.495 449.335 118.281 449.799Z" fill="#263238"/>
<path d="M115.681 445.431C115.681 445.481 116.031 445.371 116.401 445.191C116.771 445.011 117.071 444.831 117.051 444.781C116.792 444.806 116.543 444.888 116.321 445.021C116.001 445.201 115.661 445.381 115.681 445.431Z" fill="#263238"/>
<path d="M115 444.21C115 444.26 115.3 444.21 115.65 444.21C116 444.21 116.28 444.061 116.27 444.011C116.26 443.961 115.97 444.011 115.62 444.011C115.27 444.011 115 444.16 115 444.21Z" fill="#263238"/>
<path d="M115.094 442.561C115.094 442.561 115.344 442.831 115.714 443.081C116.084 443.331 116.414 443.481 116.444 443.431C116.474 443.381 116.194 443.161 115.824 442.921C115.609 442.75 115.36 442.628 115.094 442.561Z" fill="#263238"/>
<path d="M115.406 441.551C115.406 441.551 115.606 441.941 116.026 442.251C116.261 442.462 116.553 442.598 116.866 442.641C116.866 442.591 116.536 442.401 116.136 442.101C115.907 441.899 115.663 441.715 115.406 441.551Z" fill="#263238"/>
<path d="M116.838 444.57C117.079 444.797 117.361 444.977 117.668 445.1C117.99 445.251 118.324 445.372 118.668 445.46C118.876 445.524 119.091 445.565 119.308 445.58C119.443 445.585 119.575 445.539 119.678 445.45C119.729 445.397 119.763 445.33 119.778 445.257C119.792 445.185 119.785 445.109 119.758 445.04C119.54 444.682 119.205 444.41 118.809 444.272C118.413 444.133 117.982 444.136 117.588 444.28C117.354 444.367 117.14 444.499 116.958 444.67C116.838 444.79 116.788 444.87 116.798 444.88C117.045 444.676 117.326 444.517 117.628 444.41C117.954 444.311 118.302 444.311 118.628 444.41C118.834 444.452 119.029 444.536 119.201 444.656C119.373 444.777 119.518 444.931 119.628 445.11C119.698 445.29 119.548 445.41 119.338 445.41C119.139 445.397 118.941 445.363 118.748 445.31C118.407 445.229 118.073 445.122 117.748 444.99C117.168 444.75 116.848 444.55 116.838 444.57Z" fill="#263238"/>
<path d="M116.996 444.751C116.996 444.751 117.256 444.631 117.456 444.231C117.573 443.999 117.628 443.74 117.616 443.481C117.622 443.313 117.586 443.146 117.511 442.996C117.436 442.846 117.324 442.717 117.186 442.621C117.091 442.585 116.985 442.588 116.891 442.629C116.798 442.67 116.724 442.746 116.686 442.841C116.62 442.985 116.589 443.143 116.596 443.301C116.586 443.556 116.609 443.812 116.666 444.061C116.703 444.293 116.796 444.512 116.936 444.701C116.936 444.701 116.856 444.441 116.796 444.031C116.77 443.792 116.77 443.55 116.796 443.311C116.796 443.061 116.916 442.691 117.146 442.791C117.376 442.891 117.446 443.241 117.476 443.491C117.484 443.726 117.447 443.96 117.366 444.181C117.26 444.381 117.136 444.572 116.996 444.751Z" fill="#263238"/>
<path d="M103.531 435C103.531 435 103.921 435.2 104.461 435.64C105.17 436.213 105.707 436.971 106.011 437.83C106.305 438.69 106.354 439.614 106.151 440.5C105.991 441.19 105.781 441.57 105.811 441.59C105.876 441.511 105.929 441.423 105.971 441.33C106.102 441.078 106.206 440.814 106.281 440.54C106.524 439.628 106.492 438.664 106.191 437.77C105.874 436.88 105.304 436.101 104.551 435.53C104.323 435.362 104.079 435.218 103.821 435.1C103.731 435.051 103.633 435.017 103.531 435Z" fill="#263238"/>
<path d="M108.302 430.43C107.646 431.255 107.041 432.12 106.492 433.02C105.888 433.884 105.34 434.785 104.852 435.72C105.503 434.89 106.105 434.022 106.652 433.12C107.248 432.252 107.799 431.354 108.302 430.43Z" fill="#263238"/>
<path d="M108.219 441.42C108.742 441.962 109.338 442.43 109.989 442.81C110.605 443.248 111.278 443.601 111.989 443.86C111.989 443.81 111.129 443.33 110.089 442.65C109.049 441.97 108.249 441.38 108.219 441.42Z" fill="#263238"/>
<path d="M105.671 439.81C105.671 439.81 105.671 440.03 105.591 440.28C105.511 440.53 105.491 440.73 105.591 440.76C105.691 440.79 105.791 440.59 105.831 440.31C105.871 440.03 105.721 439.79 105.671 439.81Z" fill="#263238"/>
<path d="M105.469 438C105.469 438 105.469 438.19 105.469 438.42C105.469 438.65 105.589 438.81 105.639 438.8C105.689 438.79 105.699 438.6 105.639 438.38C105.579 438.16 105.519 438 105.469 438Z" fill="#263238"/>
<path d="M104.438 436.59C104.438 436.64 104.597 436.75 104.747 436.94C104.897 437.13 104.967 437.31 105.017 437.31C105.067 437.31 105.077 437.05 104.887 436.82C104.697 436.59 104.457 436.54 104.438 436.59Z" fill="#263238"/>
<path d="M103.633 435.72C103.633 435.72 103.633 435.86 103.703 435.97C103.773 436.08 103.883 436.14 103.923 436.11C103.963 436.08 103.923 435.97 103.853 435.86C103.783 435.75 103.673 435.68 103.633 435.72Z" fill="#263238"/>
<path d="M175.65 284.691C175.65 284.691 188.65 371.341 186.79 375.521C184.93 379.701 124 446.671 124 446.671L101.57 431.801C101.57 431.801 154.75 364.801 154.35 363.231C153.95 361.661 134.2 277.721 134.2 277.721L175.65 284.691Z" fill="#395987"/>
<path d="M126.791 276.541L126.001 279.751C123.69 289.229 125.122 299.233 130.001 307.681L165.341 369.001C167.852 373.342 169.68 378.044 170.761 382.941L186.761 453.741H211.391C211.391 455.211 205.021 395.411 201.821 375.551C199.421 360.551 179.371 314.081 169.661 292.121L175.661 284.721L165.201 283.001L126.791 276.541Z" fill="#395987"/>
<path d="M170.398 291.93C170.618 292.24 170.8 292.576 170.938 292.93C171.258 293.57 171.698 294.51 172.228 295.68C173.288 298.01 174.678 301.27 176.098 304.91C177.518 308.55 178.688 311.91 179.488 314.33C179.878 315.55 180.188 316.54 180.388 317.23C180.516 317.582 180.604 317.948 180.648 318.32C180.455 318.008 180.304 317.671 180.198 317.32C179.908 316.54 179.548 315.59 179.138 314.47C178.258 312.07 177.028 308.76 175.608 305.12C174.188 301.48 172.858 298.21 171.888 295.84C171.448 294.74 171.068 293.84 170.748 293.03C170.579 292.682 170.461 292.311 170.398 291.93Z" fill="#263238"/>
<path d="M173.302 394.701C173.227 394.477 173.174 394.246 173.142 394.011C173.052 393.501 172.932 392.841 172.792 392.011C172.712 391.571 172.632 391.091 172.542 390.571C172.452 390.051 172.302 389.481 172.162 388.871C171.892 387.661 171.612 386.271 171.162 384.761C170.952 384.001 170.742 383.211 170.512 382.391L169.702 379.841C169.182 378.081 168.452 376.251 167.702 374.301C166.182 370.441 164.332 366.301 162.182 362.001C158.414 354.743 154.265 347.69 149.752 340.871C148.042 338.291 146.652 336.181 145.642 334.671C145.182 333.971 144.822 333.411 144.532 332.981C144.395 332.788 144.274 332.584 144.172 332.371C144.341 332.538 144.492 332.722 144.622 332.921L145.812 334.551C146.812 335.981 148.302 338.061 150.062 340.671C154.67 347.445 158.87 354.488 162.642 361.761C164.802 366.051 166.642 370.241 168.152 374.121C168.842 376.121 169.562 377.931 170.072 379.711L170.852 382.271C171.062 383.111 171.272 383.901 171.472 384.671C171.892 386.191 172.142 387.591 172.392 388.811C172.512 389.424 172.622 389.994 172.722 390.521C172.802 391.051 172.862 391.521 172.932 391.971C173.032 392.801 173.122 393.471 173.192 393.971C173.255 394.21 173.292 394.455 173.302 394.701Z" fill="#263238"/>
<path d="M127.301 443.09C126.956 443.015 126.62 442.901 126.301 442.75C125.388 442.392 124.497 441.981 123.631 441.52C120.786 439.967 118.065 438.199 115.491 436.23C112.491 433.97 109.731 431.91 107.671 430.55C105.611 429.19 104.281 428.43 104.321 428.35C104.671 428.455 105.007 428.603 105.321 428.79C105.951 429.09 106.821 429.59 107.881 430.24C110.011 431.53 112.791 433.55 115.811 435.81C118.366 437.764 121.037 439.561 123.811 441.19C125.921 442.41 127.331 443 127.301 443.09Z" fill="#263238"/>
<path d="M211.297 450.001C210.965 450.04 210.629 450.04 210.297 450.001H207.507L198.337 449.931L189.157 449.981H186.367C186.033 449.998 185.697 449.978 185.367 449.921C185.692 449.824 186.028 449.774 186.367 449.771C187.027 449.721 187.977 449.651 189.157 449.601C191.497 449.481 194.757 449.381 198.347 449.391C201.937 449.401 205.187 449.491 207.537 449.621C208.707 449.681 209.657 449.741 210.317 449.801C210.652 449.822 210.981 449.889 211.297 450.001Z" fill="#263238"/>
<path d="M143 188.09C140.834 188.384 138.63 188.036 136.66 187.09C135.684 186.614 134.858 185.879 134.271 184.965C133.684 184.052 133.358 182.996 133.33 181.91C133.33 180.64 133.92 179.39 133.71 178.14C133.5 176.89 132.57 175.89 131.97 174.77C131.257 173.34 131.055 171.709 131.397 170.149C131.739 168.588 132.604 167.191 133.85 166.19C135.16 165.19 136.85 164.67 137.93 163.44C139.23 161.99 139.44 159.89 140.23 158.11C140.817 156.828 141.709 155.709 142.828 154.852C143.947 153.994 145.259 153.423 146.65 153.19C148.19 152.95 149.79 153.12 151.26 152.63C152.474 152.106 153.619 151.434 154.67 150.63C158.149 148.381 162.372 147.588 166.43 148.42C168.208 148.734 169.859 149.55 171.19 150.77C172.62 152.19 174.46 153.77 174.98 155.67C175.59 157.97 174.84 160.85 174.23 163.14C173.62 165.43 171.77 167.53 169.41 167.81" fill="#263238"/>
<path d="M142.508 205.78L161.288 206.04C161.608 203.88 162.288 195.44 162.288 195.44C162.288 195.44 170.158 194.97 170.978 187.22C171.798 179.47 172.138 161.55 172.138 161.55C167.909 159.238 163.139 158.098 158.322 158.247C153.505 158.397 148.815 159.831 144.738 162.4L143.508 163.18L142.508 205.78Z" fill="#FFBE9D"/>
<path d="M162.867 182.17C163.443 182.009 164.04 181.941 164.637 181.97C164.917 181.97 165.137 181.92 165.177 181.77C165.206 181.493 165.161 181.214 165.047 180.96L164.407 178.71C163.786 176.797 163.354 174.828 163.117 172.83C163.932 174.67 164.561 176.586 164.997 178.55C165.207 179.33 165.397 180.07 165.587 180.81C165.725 181.188 165.725 181.602 165.587 181.98C165.537 182.084 165.462 182.174 165.37 182.244C165.278 182.313 165.171 182.36 165.057 182.38C164.898 182.404 164.736 182.404 164.577 182.38C163.999 182.41 163.421 182.338 162.867 182.17Z" fill="#263238"/>
<path d="M162.27 195.33C158.683 195.062 155.257 193.732 152.43 191.51C152.43 191.51 154.3 197.31 162.1 197.34L162.27 195.33Z" fill="#EB996E"/>
<path d="M143.568 171.33C143.408 171.26 138.258 170.42 138.568 176.55C138.878 182.68 144.948 180.36 144.958 180.18C144.968 180 143.568 171.33 143.568 171.33Z" fill="#FFBE9D"/>
<path d="M143 178.12C143 178.12 142.89 178.2 142.72 178.29C142.47 178.41 142.184 178.431 141.92 178.35C141.513 178.116 141.175 177.78 140.94 177.374C140.705 176.969 140.581 176.508 140.58 176.04C140.54 175.512 140.618 174.983 140.81 174.49C140.859 174.297 140.954 174.12 141.086 173.972C141.219 173.824 141.384 173.71 141.57 173.64C141.692 173.603 141.822 173.608 141.94 173.655C142.059 173.703 142.157 173.789 142.22 173.9C142.31 174.07 142.22 174.19 142.31 174.2C142.4 174.21 142.43 174.09 142.37 173.84C142.329 173.69 142.237 173.559 142.11 173.47C142.026 173.408 141.93 173.364 141.829 173.342C141.727 173.319 141.622 173.318 141.52 173.34C141.27 173.398 141.039 173.521 140.851 173.697C140.664 173.872 140.525 174.094 140.45 174.34C140.212 174.884 140.113 175.478 140.16 176.07C140.153 176.616 140.308 177.153 140.608 177.611C140.907 178.069 141.336 178.427 141.84 178.64C142.011 178.686 142.191 178.69 142.365 178.654C142.539 178.618 142.701 178.541 142.84 178.43C143 178.27 143 178.13 143 178.12Z" fill="#EB996E"/>
<path d="M155.908 171.181C155.818 171.071 155.968 170.781 156.368 170.471C156.9 170.093 157.527 169.872 158.178 169.831C158.829 169.78 159.481 169.915 160.058 170.221C160.498 170.471 160.678 170.741 160.608 170.851C160.458 171.111 159.468 170.771 158.248 170.851C157.028 170.931 156.088 171.411 155.908 171.181Z" fill="#263238"/>
<path d="M166.776 171.24C166.716 170.97 167.556 170.57 168.656 170.58C169.756 170.59 170.596 170.98 170.546 171.26C170.496 171.54 169.656 171.62 168.656 171.62C167.656 171.62 166.826 171.53 166.776 171.24Z" fill="#263238"/>
<path d="M141.617 165.06C141.917 166.94 142.211 168.823 142.497 170.71C142.547 171.608 142.856 172.473 143.387 173.2C144.387 174.31 146.207 174.2 147.487 173.47C149.357 172.38 150.387 170.29 151.177 168.27C151.967 166.25 152.667 164.12 154.177 162.58C155.263 163.717 156.68 164.482 158.226 164.766C159.772 165.049 161.369 164.837 162.787 164.16C164.037 163.54 165.077 162.56 166.277 161.84C166.851 161.434 167.509 161.166 168.203 161.055C168.896 160.944 169.606 160.994 170.277 161.2C170.987 161.5 171.627 162.08 172.387 162.04C172.679 162.015 172.959 161.916 173.201 161.751C173.442 161.586 173.637 161.362 173.767 161.1C174.016 160.567 174.103 159.972 174.017 159.39C173.767 157.23 172.017 155.51 170.017 154.55C167.227 153.18 164.017 152.99 160.897 152.98C157.939 152.892 154.981 153.185 152.097 153.85C149.201 154.532 146.567 156.043 144.517 158.2C143.507 159.287 142.756 160.588 142.32 162.007C141.884 163.425 141.773 164.923 141.997 166.39" fill="#263238"/>
<path d="M166.067 158.861C166.476 160.852 167.531 162.651 169.067 163.981C169.759 164.671 170.681 165.084 171.657 165.141C172.441 165.048 173.163 164.669 173.685 164.077C174.207 163.484 174.492 162.721 174.487 161.931C174.417 160.34 173.732 158.838 172.577 157.741C171.59 156.573 170.188 155.834 168.667 155.681C167.913 155.645 167.172 155.895 166.594 156.38C166.016 156.866 165.642 157.552 165.547 158.301" fill="#263238"/>
<path d="M157 174.081C157 174.346 157.105 174.6 157.293 174.788C157.48 174.975 157.735 175.081 158 175.081C158.126 175.089 158.252 175.071 158.371 175.03C158.49 174.988 158.6 174.923 158.693 174.838C158.786 174.753 158.862 174.65 158.914 174.535C158.967 174.421 158.996 174.297 159 174.171C159 173.905 158.895 173.651 158.707 173.464C158.52 173.276 158.265 173.171 158 173.171C157.874 173.161 157.747 173.177 157.627 173.219C157.508 173.26 157.398 173.325 157.304 173.41C157.21 173.495 157.135 173.599 157.083 173.714C157.031 173.829 157.002 173.954 157 174.081Z" fill="#263238"/>
<path d="M155.422 173C155.552 173.13 156.282 172.56 157.342 172.54C158.402 172.52 159.182 173.04 159.292 172.9C159.402 172.76 159.222 172.62 158.872 172.38C158.413 172.075 157.872 171.918 157.321 171.93C156.77 171.943 156.236 172.124 155.792 172.45C155.472 172.72 155.362 173 155.422 173Z" fill="#263238"/>
<path d="M167.859 174.051C167.859 174.316 167.965 174.57 168.152 174.758C168.34 174.945 168.594 175.051 168.859 175.051C168.986 175.06 169.112 175.044 169.232 175.003C169.352 174.961 169.462 174.896 169.555 174.811C169.649 174.726 169.724 174.623 169.777 174.507C169.829 174.392 169.857 174.267 169.859 174.141C169.859 173.875 169.754 173.621 169.566 173.434C169.379 173.246 169.125 173.141 168.859 173.141C168.609 173.14 168.367 173.233 168.182 173.401C167.997 173.57 167.882 173.801 167.859 174.051Z" fill="#263238"/>
<path d="M166.461 173.171C166.581 173.301 167.321 172.731 168.381 172.711C169.441 172.691 170.221 173.211 170.381 173.081C170.541 172.951 170.311 172.791 169.961 172.551C169.501 172.244 168.956 172.086 168.403 172.101C167.85 172.115 167.315 172.3 166.871 172.631C166.511 172.881 166.401 173.121 166.461 173.171Z" fill="#263238"/>
<path d="M162.621 185.31C162.621 185.38 162.361 185.5 161.881 185.47C161.256 185.423 160.671 185.145 160.241 184.69C159.806 184.236 159.554 183.638 159.531 183.01C159.531 182.54 159.661 182.27 159.721 182.28C159.781 182.29 159.721 183.43 160.611 184.33C161.501 185.23 162.631 185.17 162.621 185.31Z" fill="#263238"/>
<path d="M166.158 225.37L181.768 220.15C181.768 220.15 192.628 245.86 195.428 246.15C210.918 247.56 227.498 242.43 233.308 240.4C233.898 239.73 234.578 238.94 235.308 237.96C235.948 237.123 236.442 236.183 236.768 235.18C237.215 233.947 237.495 232.658 237.598 231.35C237.566 231.096 237.614 230.837 237.737 230.612C237.86 230.387 238.05 230.206 238.282 230.095C238.513 229.984 238.774 229.949 239.026 229.995C239.279 230.041 239.511 230.165 239.688 230.35C240.358 231.22 240.528 234.54 238.998 238.11C237.468 241.68 242.878 238.84 244.868 237.84C246.858 236.84 253.168 234.04 253.958 234.41C255.118 234.95 254.758 236.29 252.748 237.24C250.738 238.19 244.898 241.48 245.478 242.5C246.058 243.52 256.118 238.29 256.118 238.29C256.118 238.29 258.118 236.82 258.798 237.98C260.078 240.08 248.958 244.85 247.898 245.28C247.148 245.58 247.738 246.72 248.518 246.35C249.298 245.98 258.438 240.9 259.758 243.03C260.758 244.66 250.658 247.03 249.358 249.14C248.058 251.25 256.838 246.56 257.748 248.14C258.078 248.74 258.248 249.23 252.808 251.14C248.827 252.391 244.781 253.425 240.688 254.24C240.688 254.24 184.688 279.3 174.688 255.12C164.418 230.6 166.158 225.37 166.158 225.37Z" fill="#EB996E"/>
<path d="M186.997 228.62C180.747 213.99 172.567 208.26 168.247 206.14C166.733 205.405 165.087 204.983 163.407 204.9L162.887 202.38L142.187 200.52L141.677 203.72L138.677 203.55C138.677 203.55 120.837 205.34 120.797 226.01C120.797 235.68 126.007 245.09 127.847 249.7C128.997 259.34 124.847 276.83 124.977 281.09L175.707 284.69L177.787 253L177.317 250L194.017 244.88L186.997 228.62Z" fill="#EBEBEB"/>
<path d="M299.318 158.661C291.996 149.592 282.149 142.898 271.023 139.424C259.897 135.949 247.991 135.852 236.809 139.143C225.627 142.434 215.672 148.966 208.201 157.913C200.731 166.86 196.081 177.822 194.838 189.411C193.836 198.833 195.121 208.358 198.586 217.178C202.05 225.997 207.591 233.85 214.738 240.071L163.148 300.621L170.548 306.931L222.548 245.871C230.015 250.482 238.422 253.356 247.148 254.281C249.267 254.509 251.397 254.622 253.528 254.621C264.641 254.584 275.517 251.41 284.905 245.463C294.292 239.517 301.81 231.04 306.591 221.008C311.373 210.977 313.224 199.799 311.932 188.762C310.64 177.725 306.257 167.277 299.288 158.621L299.318 158.661ZM302.378 200.901C301.167 212.219 296.069 222.767 287.953 230.747C279.837 238.728 269.205 243.647 257.868 244.668C246.532 245.688 235.192 242.746 225.781 236.343C216.37 229.94 209.471 220.472 206.258 209.553C203.046 198.633 203.718 186.937 208.162 176.458C212.606 165.979 220.545 157.365 230.628 152.083C240.711 146.801 252.314 145.179 263.458 147.493C274.603 149.806 284.601 155.913 291.748 164.771C295.821 169.792 298.857 175.57 300.682 181.772C302.507 187.973 303.083 194.475 302.378 200.901Z" fill="#263238"/>
<path d="M295.167 154.51C287.847 145.437 278.001 138.738 266.873 135.261C255.746 131.784 243.837 131.685 232.653 134.976C221.469 138.268 211.513 144.802 204.043 153.753C196.573 162.703 191.925 173.668 190.687 185.26C189.683 194.683 190.968 204.208 194.432 213.028C197.897 221.847 203.439 229.701 210.587 235.92L158.367 296.92L166.277 303.25L218.427 241.68C225.896 246.287 234.302 249.161 243.027 250.09C245.147 250.313 247.276 250.426 249.407 250.43C260.52 250.393 271.396 247.219 280.783 241.272C290.171 235.326 297.688 226.849 302.47 216.817C307.251 206.786 309.103 195.608 307.811 184.571C306.519 173.534 302.136 163.086 295.167 154.43V154.51ZM298.227 196.75C297.017 208.074 291.918 218.627 283.799 226.612C275.681 234.598 265.044 239.521 253.702 240.542C242.36 241.564 231.015 238.622 221.6 232.216C212.184 225.81 205.281 216.338 202.067 205.413C198.853 194.489 199.526 182.787 203.972 172.303C208.419 161.819 216.363 153.202 226.451 147.918C236.539 142.635 248.147 141.014 259.296 143.33C270.446 145.646 280.448 151.756 287.597 160.62C291.668 165.642 294.704 171.42 296.528 177.621C298.353 183.823 298.93 190.324 298.227 196.75Z" fill="#455A64"/>
<path d="M222.548 223.45C222.4 223.324 222.269 223.18 222.158 223.02C221.918 222.72 221.548 222.29 221.158 221.7C219.942 220.052 218.843 218.322 217.868 216.52C214.61 210.569 212.631 204.003 212.057 197.242C211.484 190.481 212.329 183.676 214.538 177.26C215.191 175.324 215.98 173.436 216.898 171.61C217.208 170.95 217.498 170.47 217.688 170.14C217.765 169.962 217.87 169.797 217.998 169.65C217.94 169.836 217.867 170.017 217.778 170.19C217.628 170.54 217.368 171.03 217.078 171.69C216.238 173.544 215.504 175.444 214.878 177.38C212.786 183.771 212.001 190.518 212.572 197.218C213.142 203.918 215.056 210.435 218.198 216.38C219.135 218.183 220.177 219.929 221.318 221.61C221.708 222.22 222.048 222.61 222.258 222.98C222.37 223.127 222.467 223.284 222.548 223.45Z" fill="#263238"/>
<path d="M225.003 162.93C225.093 163.05 224.493 163.61 223.893 164.4C223.293 165.19 222.893 165.9 222.753 165.85C222.613 165.8 222.813 164.93 223.473 164.08C224.133 163.23 224.933 162.81 225.003 162.93Z" fill="#263238"/>
<path d="M173.156 217.57C173.317 218.019 173.438 218.481 173.516 218.95C173.716 219.84 173.976 221.14 174.286 222.76C174.886 225.98 175.616 230.46 176.286 235.43C176.956 240.4 177.286 244.92 177.476 248.19C177.576 249.83 177.636 251.19 177.656 252.07C177.704 252.546 177.704 253.025 177.656 253.5C177.554 253.037 177.494 252.565 177.476 252.09C177.386 251.09 177.266 249.78 177.126 248.22C176.836 244.96 176.396 240.45 175.786 235.49C175.176 230.53 174.496 226.06 173.986 222.82C173.746 221.28 173.546 219.99 173.386 218.98C173.259 218.52 173.182 218.047 173.156 217.57Z" fill="#263238"/>
<path d="M200.749 266.691C200.749 266.691 144.749 291.801 134.749 267.621C124.489 242.991 126.229 237.761 126.229 237.761L141.839 232.541C141.839 232.541 152.709 258.251 155.499 258.541C170.999 259.961 187.579 254.821 193.389 252.791C193.979 252.131 194.649 251.331 195.389 250.361C196.129 249.391 196.709 248.361 197.389 247.491C198.869 245.641 200.039 245.331 200.689 244.601C202.229 242.851 203.689 244.131 202.969 245.071C202.249 246.011 200.639 246.971 199.109 250.551C197.579 254.131 203.029 252.361 205.189 251.801C207.569 251.171 212.039 249.431 212.039 249.431C212.149 250.481 210.959 252.591 208.949 253.541C207.86 254.071 206.741 254.539 205.599 254.941C205.599 254.941 209.729 254.431 209.839 255.381C209.949 256.331 208.619 263.291 204.219 265.381L200.749 266.691Z" fill="#FFBE9D"/>
<path d="M138.173 210.141L148.233 240.511L126.233 249.211C126.233 249.211 114.753 219.381 129.293 212.081L138.173 210.141Z" fill="#EBEBEB"/>
<path d="M149.693 239.331C149.693 239.331 149.573 239.251 149.393 239.051C149.144 238.738 148.923 238.403 148.733 238.051C148.121 236.752 147.59 235.416 147.143 234.051C145.913 230.651 144.243 225.931 142.433 220.721L139.903 213.361C139.123 211.101 138.513 209.001 137.363 207.651C136.935 207.103 136.389 206.658 135.766 206.348C135.143 206.038 134.459 205.872 133.763 205.861C133.25 205.895 132.746 206.016 132.273 206.221C132.273 206.221 132.373 206.111 132.613 205.981C132.967 205.795 133.355 205.686 133.753 205.661C134.494 205.628 135.231 205.769 135.907 206.073C136.583 206.377 137.177 206.835 137.643 207.411C138.903 208.821 139.553 210.971 140.353 213.201C141.153 215.431 142.013 217.941 142.923 220.551C144.743 225.761 146.353 230.551 147.493 233.931C148.073 235.651 148.493 237.061 148.913 237.931C149.333 238.801 149.733 239.301 149.693 239.331Z" fill="#263238"/>
<path d="M149.222 239.9C148.969 240.109 148.69 240.284 148.392 240.42C147.842 240.73 147.032 241.15 146.022 241.65C144.022 242.65 141.172 243.95 138.022 245.24C134.872 246.53 131.882 247.56 129.732 248.24C128.662 248.58 127.732 248.84 127.172 249C126.85 249.116 126.513 249.187 126.172 249.21C127.274 248.697 128.41 248.259 129.572 247.9C131.692 247.13 134.572 246.05 137.782 244.77C140.992 243.49 143.782 242.24 145.862 241.32C146.951 240.778 148.074 240.304 149.222 239.9Z" fill="#263238"/>
<path d="M129.827 248.09C128.918 246.728 128.311 245.187 128.047 243.57C128.573 244.206 128.958 244.945 129.177 245.74C129.563 246.467 129.785 247.269 129.827 248.09Z" fill="#263238"/>
<path d="M134.478 246.3C134.348 246.37 133.748 245.49 133.308 244.3C132.96 243.58 132.822 242.776 132.908 241.98C133.316 242.645 133.617 243.371 133.798 244.13C134.131 244.816 134.36 245.547 134.478 246.3Z" fill="#263238"/>
<path d="M139.352 244.189C138.745 243.626 138.312 242.901 138.102 242.099C137.737 241.352 137.592 240.516 137.682 239.689C138.087 240.384 138.393 241.131 138.592 241.909C138.948 242.631 139.204 243.398 139.352 244.189Z" fill="#263238"/>
<path d="M144.557 242.091C144.075 241.39 143.735 240.602 143.557 239.771C143.225 238.989 143.051 238.15 143.047 237.301C143.54 237.991 143.881 238.779 144.047 239.611C144.388 240.393 144.562 241.238 144.557 242.091Z" fill="#263238"/>
<path d="M194.42 244.561C191.659 245.728 188.831 246.73 185.95 247.561C183.123 248.551 180.242 249.379 177.32 250.041C180.083 248.878 182.911 247.876 185.79 247.041C188.616 246.047 191.498 245.219 194.42 244.561Z" fill="#263238"/>
<path d="M180.999 248.091C180.859 248.151 180.419 247.411 179.999 246.451C179.579 245.491 179.369 244.661 179.499 244.601C179.629 244.541 180.069 245.281 180.499 246.251C180.929 247.221 181.149 248.001 180.999 248.091Z" fill="#263238"/>
<path d="M185.32 247.119C185.19 247.119 184.72 246.299 184.4 245.119C184.125 244.427 184.049 243.672 184.18 242.939C184.33 242.939 184.59 243.849 184.9 244.939C185.18 245.632 185.322 246.372 185.32 247.119Z" fill="#263238"/>
<path d="M190.001 245.639C189.376 244.302 189.078 242.835 189.131 241.359C189.517 241.995 189.753 242.709 189.821 243.449C190.049 244.156 190.111 244.905 190.001 245.639Z" fill="#263238"/>
<path d="M144.222 203.44C144.072 203.44 144.002 202.88 144.042 202.2C144.082 201.52 144.252 200.99 144.392 201C144.532 201.01 144.612 201.57 144.562 202.24C144.512 202.91 144.362 203.45 144.222 203.44Z" fill="#263238"/>
<path d="M148.776 203.71C148.626 203.71 148.496 203.17 148.466 202.5C148.436 201.83 148.536 201.27 148.676 201.27C148.816 201.27 148.956 201.8 148.986 202.48C149.016 203.16 148.916 203.7 148.776 203.71Z" fill="#263238"/>
<path d="M152.297 204.321C152.157 204.321 152.047 203.751 152.047 203.051C152.047 202.351 152.177 201.791 152.317 201.791C152.457 201.791 152.577 202.361 152.567 203.051C152.557 203.741 152.447 204.321 152.297 204.321Z" fill="#263238"/>
<path d="M157.058 204.84C156.928 204.84 156.638 204.23 156.618 203.37C156.598 202.51 156.838 201.85 156.968 201.88C157.098 201.91 157.108 202.56 157.138 203.35C157.168 204.14 157.208 204.8 157.058 204.84Z" fill="#263238"/>
<path d="M161.003 204.841C160.853 204.841 160.663 204.211 160.563 203.391C160.463 202.571 160.503 201.891 160.643 201.881C160.783 201.871 160.983 202.511 161.083 203.331C161.183 204.151 161.133 204.821 161.003 204.841Z" fill="#263238"/>
</svg>
