<svg width="316" height="264" viewBox="0 0 316 264" fill="none" xmlns="http://www.w3.org/2000/svg">
<path d="M282.032 70.2416C297.306 101.969 292.808 141.458 273.111 170.625C253.413 199.792 220.644 218.673 186.211 225.537C161.615 230.447 135.124 229.449 112.677 218.287C90.2309 207.126 72.5296 184.68 71.1813 159.574C70.6547 150.07 72.6771 140.038 78.9918 132.936C89.0722 121.632 106.278 121.236 121.399 121.7C136.52 122.165 153.715 121.811 163.843 110.549C171.622 101.895 172.77 89.3446 176.873 78.4414C183.82 59.935 200.641 45.4467 219.975 41.3494C237.935 37.5425 257.527 42.8014 271.33 54.8873C273.241 56.5782 274.901 58.5339 276.26 60.6953C278.267 63.8633 281.284 68.684 282.032 70.2416Z" fill="#F5F5F5"/>
<path d="M303.883 243.012C303.883 243.073 239.977 243.125 161.165 243.125C82.3531 243.125 18.4297 243.073 18.4297 243.012C18.4297 242.952 82.3229 242.904 161.165 242.904C240.007 242.904 303.883 242.947 303.883 243.012Z" fill="#263238"/>
<path d="M122.335 101.058L126.054 164.624C126.117 165.715 126.593 166.74 127.385 167.491C128.177 168.241 129.224 168.661 130.314 168.663L244.443 169.011C245.005 169.013 245.562 168.904 246.082 168.691C246.602 168.477 247.075 168.162 247.473 167.765C247.872 167.368 248.189 166.896 248.405 166.376C248.622 165.856 248.734 165.298 248.735 164.735L248.888 115.24C248.889 114.674 248.779 114.113 248.564 113.59C248.348 113.067 248.031 112.592 247.632 112.192C247.233 111.792 246.758 111.475 246.236 111.26C245.714 111.044 245.155 110.935 244.59 110.937L174.402 111.174C173.84 111.176 173.283 111.067 172.764 110.854C172.244 110.64 171.771 110.325 171.373 109.928L159.212 97.8476C158.413 97.0544 157.335 96.607 156.21 96.6015L126.622 96.5117C126.038 96.5107 125.459 96.6296 124.922 96.8609C124.386 97.0923 123.901 97.4312 123.5 97.857C123.098 98.2828 122.788 98.7863 122.588 99.3368C122.387 99.8872 122.302 100.473 122.335 101.058Z" fill="#395987"/>
<path opacity="0.3" d="M122.335 101.058L126.054 164.624C126.117 165.715 126.593 166.74 127.385 167.491C128.177 168.241 129.224 168.661 130.314 168.663L244.443 169.011C245.005 169.013 245.562 168.904 246.082 168.691C246.602 168.477 247.075 168.162 247.473 167.765C247.872 167.368 248.189 166.896 248.405 166.376C248.622 165.856 248.734 165.298 248.735 164.735L248.888 115.24C248.889 114.674 248.779 114.113 248.564 113.59C248.348 113.067 248.031 112.592 247.632 112.192C247.233 111.792 246.758 111.475 246.236 111.26C245.714 111.044 245.155 110.935 244.59 110.937L174.402 111.174C173.84 111.176 173.283 111.067 172.764 110.854C172.244 110.64 171.771 110.325 171.373 109.928L159.212 97.8476C158.413 97.0544 157.335 96.607 156.21 96.6015L126.622 96.5117C126.038 96.5107 125.459 96.6296 124.922 96.8609C124.386 97.0923 123.901 97.4312 123.5 97.857C123.098 98.2828 122.788 98.7863 122.588 99.3368C122.387 99.8872 122.302 100.473 122.335 101.058Z" fill="black"/>
<path d="M120.004 135.852L129.289 213.78C129.369 214.449 129.689 215.065 130.191 215.514C130.692 215.962 131.34 216.211 132.012 216.214L253.535 216.584C254.228 216.587 254.897 216.328 255.408 215.858C255.919 215.388 256.234 214.742 256.289 214.049L262.646 136.169C262.677 135.79 262.629 135.408 262.505 135.047C262.381 134.687 262.185 134.356 261.928 134.076C261.671 133.795 261.358 133.571 261.011 133.417C260.663 133.263 260.288 133.182 259.908 133.181L122.748 132.764C122.358 132.762 121.972 132.844 121.616 133.004C121.26 133.163 120.941 133.397 120.682 133.689C120.422 133.981 120.228 134.324 120.111 134.697C119.994 135.071 119.958 135.464 120.004 135.852Z" fill="#395987"/>
<path d="M108.288 240.595L108.241 236.266L100.141 236.308V242.644L100.667 242.676C102.9 242.786 112.038 243.087 113.528 242.628C115.177 242.111 108.288 240.595 108.288 240.595Z" fill="#455A64"/>
<path d="M100.039 242.459H100.176H100.576L102.051 242.517C103.294 242.554 105.011 242.586 106.907 242.581C108.803 242.575 110.525 242.528 111.768 242.48L113.237 242.412L113.638 242.385H113.775C113.729 242.379 113.683 242.379 113.638 242.385H113.237L111.763 242.417C110.52 242.449 108.803 242.486 106.907 242.491C105.011 242.496 103.294 242.491 102.051 242.459L100.576 242.433H100.05L100.039 242.459Z" fill="#263238"/>
<path d="M110.943 242.634C111.004 242.388 111.094 242.151 111.211 241.926C111.365 241.719 111.542 241.529 111.738 241.361C111.482 241.455 111.273 241.644 111.153 241.889C110.992 242.102 110.916 242.368 110.943 242.634Z" fill="#263238"/>
<path d="M108.55 241.43C108.577 241.43 108.687 241.303 108.803 241.118C108.888 241.012 108.947 240.887 108.977 240.754C108.977 240.754 108.84 240.875 108.724 241.065C108.608 241.256 108.529 241.414 108.55 241.43Z" fill="#263238"/>
<path d="M107.884 241.086C107.884 241.086 108.032 241.017 108.169 240.89C108.306 240.764 108.406 240.647 108.39 240.626C108.374 240.605 108.243 240.69 108.106 240.816C107.969 240.943 107.869 241.065 107.884 241.086Z" fill="#263238"/>
<path d="M107.477 240.321C107.612 240.367 107.755 240.385 107.898 240.373C108.042 240.389 108.187 240.373 108.324 240.326C108.188 240.276 108.042 240.258 107.898 240.273C107.756 240.258 107.612 240.274 107.477 240.321Z" fill="#263238"/>
<path d="M107.328 239.782C107.467 239.873 107.631 239.919 107.797 239.914C107.963 239.94 108.133 239.918 108.287 239.851C108.129 239.821 107.968 239.81 107.807 239.819C107.649 239.79 107.489 239.778 107.328 239.782Z" fill="#263238"/>
<path d="M108.82 240.716C108.994 240.752 109.173 240.752 109.347 240.716C109.537 240.694 109.724 240.654 109.905 240.595C110.015 240.562 110.121 240.518 110.221 240.463C110.281 240.424 110.325 240.367 110.348 240.299C110.356 240.26 110.353 240.22 110.339 240.182C110.325 240.145 110.3 240.112 110.269 240.088C110.069 239.993 109.843 239.969 109.628 240.021C109.414 240.073 109.223 240.197 109.089 240.373C109.009 240.478 108.952 240.599 108.92 240.727C108.908 240.772 108.908 240.819 108.92 240.864C108.969 240.703 109.047 240.552 109.152 240.421C109.269 240.283 109.422 240.182 109.595 240.13C109.695 240.094 109.802 240.079 109.909 240.085C110.016 240.092 110.12 240.119 110.216 240.167C110.3 240.231 110.269 240.326 110.174 240.378C110.083 240.433 109.986 240.476 109.884 240.505C109.714 240.57 109.537 240.617 109.358 240.648C109.02 240.7 108.82 240.7 108.82 240.716Z" fill="#263238"/>
<path d="M108.955 240.769C109.021 240.661 109.041 240.532 109.013 240.41C108.999 240.273 108.95 240.142 108.871 240.03C108.827 239.953 108.764 239.888 108.689 239.842C108.613 239.796 108.527 239.77 108.439 239.766C108.387 239.777 108.341 239.808 108.311 239.852C108.28 239.896 108.268 239.95 108.276 240.003C108.289 240.086 108.319 240.165 108.365 240.236C108.435 240.351 108.518 240.457 108.613 240.552C108.694 240.646 108.797 240.719 108.913 240.764C108.913 240.764 108.808 240.669 108.665 240.505C108.58 240.41 108.506 240.305 108.444 240.193C108.376 240.082 108.323 239.887 108.444 239.861C108.565 239.834 108.708 239.977 108.787 240.082C108.861 240.182 108.911 240.298 108.934 240.42C108.954 240.535 108.961 240.652 108.955 240.769Z" fill="#263238"/>
<path d="M100.188 240.241C100.188 240.241 100.419 240.241 100.788 240.241C101.261 240.295 101.71 240.482 102.083 240.78C102.455 241.078 102.737 241.475 102.895 241.926C103.021 242.274 103.032 242.506 103.053 242.501C103.061 242.447 103.061 242.392 103.053 242.337C103.041 242.19 103.011 242.044 102.963 241.904C102.816 241.428 102.53 241.007 102.141 240.695C101.748 240.389 101.274 240.205 100.777 240.167C100.63 240.15 100.482 240.15 100.335 240.167C100.282 240.185 100.233 240.209 100.188 240.241Z" fill="#263238"/>
<path d="M101.013 236.855C100.959 237.41 100.938 237.967 100.95 238.524C100.925 239.08 100.937 239.638 100.987 240.192C101.038 239.638 101.058 239.081 101.045 238.524C101.067 237.968 101.057 237.411 101.013 236.855Z" fill="#263238"/>
<path d="M104.102 241.773C104.489 241.857 104.885 241.894 105.281 241.884C105.679 241.903 106.077 241.87 106.466 241.784C106.466 241.752 105.94 241.784 105.281 241.784C104.623 241.784 104.102 241.742 104.102 241.773Z" fill="#263238"/>
<path d="M102.516 241.772C102.516 241.772 102.563 241.888 102.616 242.009C102.668 242.131 102.7 242.236 102.726 242.236C102.753 242.236 102.768 242.104 102.726 241.967C102.684 241.83 102.537 241.756 102.516 241.772Z" fill="#263238"/>
<path d="M101.914 241.034C101.914 241.034 101.951 241.134 102.035 241.219C102.119 241.303 102.198 241.356 102.22 241.34C102.241 241.324 102.188 241.235 102.104 241.15C102.019 241.066 101.935 241.013 101.914 241.034Z" fill="#263238"/>
<path d="M101.055 240.695C101.055 240.721 101.166 240.721 101.287 240.764C101.408 240.806 101.492 240.864 101.513 240.848C101.535 240.832 101.466 240.716 101.319 240.669C101.171 240.621 101.045 240.669 101.055 240.695Z" fill="#263238"/>
<path d="M100.445 240.537C100.445 240.564 100.482 240.606 100.551 240.632C100.619 240.659 100.677 240.632 100.688 240.632C100.698 240.632 100.651 240.564 100.582 240.537C100.514 240.511 100.456 240.511 100.445 240.537Z" fill="#263238"/>
<path d="M61.1532 234.349L63.4442 230.653L56.5976 226.318L53.1953 231.678L53.6008 231.973C55.4231 233.272 62.9544 238.462 64.4554 238.879C66.1408 239.344 61.1532 234.349 61.1532 234.349Z" fill="#455A64"/>
<path d="M53.1953 231.455L53.3059 231.545L53.6324 231.777L54.8385 232.622C55.8918 233.324 57.298 234.28 58.8991 235.299C60.5002 236.318 61.9696 237.21 63.044 237.839L64.3185 238.578L64.6714 238.773C64.7504 238.815 64.7925 238.837 64.7978 238.831L64.6819 238.752L64.3396 238.546L63.0808 237.781C62.0275 237.136 60.5528 236.233 58.9518 235.214C57.3507 234.195 55.9129 233.256 54.8806 232.574L53.6535 231.756L53.3164 231.54L53.1953 231.455Z" fill="#263238"/>
<path d="M62.2969 237.494C62.4824 237.324 62.6854 237.173 62.9025 237.046C63.1357 236.948 63.3797 236.879 63.6293 236.84C63.3675 236.782 63.0938 236.824 62.8604 236.956C62.6109 237.057 62.4092 237.249 62.2969 237.494Z" fill="#263238"/>
<path d="M60.9301 235.189C60.9301 235.215 61.1145 235.157 61.3093 235.062C61.5042 234.967 61.6622 234.872 61.6517 234.846C61.5157 234.859 61.3843 234.902 61.2672 234.972C61.0987 235.067 60.9196 235.162 60.9301 235.189Z" fill="#263238"/>
<path d="M60.5703 234.543C60.5703 234.57 60.7283 234.543 60.9126 234.543C61.097 234.543 61.2444 234.464 61.2392 234.438C61.2339 234.411 61.0812 234.438 60.8968 234.438C60.7125 234.438 60.5703 234.517 60.5703 234.543Z" fill="#263238"/>
<path d="M60.6172 233.672C60.6172 233.672 60.7489 233.814 60.9437 233.946C61.1386 234.078 61.3124 234.158 61.3282 234.131C61.344 234.105 61.1965 233.989 61.0017 233.862C60.8883 233.772 60.7573 233.707 60.6172 233.672Z" fill="#263238"/>
<path d="M60.7812 233.139C60.7812 233.139 60.8866 233.345 61.1078 233.508C61.2312 233.62 61.3854 233.692 61.5502 233.714C61.5502 233.688 61.3764 233.587 61.1657 233.429C61.0451 233.323 60.9166 233.226 60.7812 233.139Z" fill="#263238"/>
<path d="M61.5373 234.733C61.6644 234.853 61.8127 234.948 61.9745 235.013C62.1437 235.092 62.3201 235.156 62.5011 235.203C62.6108 235.237 62.7238 235.258 62.8382 235.266C62.9095 235.269 62.979 235.244 63.0331 235.198C63.0599 235.169 63.078 235.134 63.0855 235.096C63.093 235.057 63.0894 235.018 63.0752 234.981C62.9606 234.792 62.7839 234.648 62.5755 234.575C62.367 234.502 62.1397 234.504 61.9323 234.58C61.809 234.625 61.6962 234.695 61.6005 234.786C61.5373 234.849 61.511 234.891 61.5163 234.897C61.6464 234.789 61.7943 234.705 61.9534 234.649C62.1251 234.596 62.3084 234.596 62.4801 234.649C62.5885 234.671 62.6912 234.715 62.7818 234.778C62.8724 234.842 62.949 234.924 63.0067 235.018C63.0436 235.113 62.9646 235.177 62.854 235.177C62.7489 235.169 62.6448 235.152 62.5433 235.124C62.3638 235.081 62.1877 235.024 62.0166 234.955C61.7111 234.828 61.5426 234.722 61.5373 234.733Z" fill="#263238"/>
<path d="M61.6182 234.829C61.6182 234.829 61.7551 234.766 61.8604 234.555C61.9218 234.432 61.9508 234.296 61.9447 234.159C61.9481 234.07 61.9291 233.982 61.8895 233.903C61.8499 233.823 61.791 233.755 61.7182 233.705C61.6679 233.686 61.6121 233.687 61.5629 233.709C61.5137 233.731 61.4749 233.771 61.4549 233.821C61.4201 233.897 61.4039 233.98 61.4075 234.064C61.402 234.199 61.4144 234.333 61.4444 234.465C61.464 234.587 61.5127 234.703 61.5866 234.803C61.5866 234.803 61.5444 234.666 61.5128 234.449C61.4989 234.323 61.4989 234.195 61.5128 234.069C61.5128 233.937 61.576 233.742 61.6972 233.794C61.8183 233.847 61.8552 234.032 61.871 234.164C61.8753 234.288 61.8556 234.412 61.813 234.528C61.7569 234.634 61.6917 234.735 61.6182 234.829Z" fill="#263238"/>
<path d="M54.5312 229.682C54.5312 229.682 54.7367 229.787 55.0211 230.02C55.3944 230.322 55.6769 230.722 55.8374 231.176C55.9921 231.63 56.0176 232.118 55.9111 232.586C55.8269 232.95 55.7162 233.151 55.732 233.161C55.7659 233.119 55.7943 233.073 55.8163 233.024C55.8853 232.891 55.9401 232.751 55.9796 232.607C56.1073 232.125 56.0908 231.616 55.9322 231.144C55.7651 230.674 55.4649 230.263 55.0685 229.961C54.9483 229.873 54.8195 229.797 54.684 229.734C54.6364 229.708 54.5848 229.69 54.5312 229.682Z" fill="#263238"/>
<path d="M57.0436 227.268C56.6981 227.703 56.3797 228.16 56.0903 228.635C55.7722 229.091 55.4837 229.567 55.2266 230.061C55.5699 229.623 55.8865 229.164 56.1746 228.688C56.4887 228.23 56.7788 227.756 57.0436 227.268Z" fill="#263238"/>
<path d="M57 233.071C57.2758 233.358 57.5895 233.604 57.9322 233.805C58.2569 234.037 58.6112 234.223 58.9855 234.36C58.9855 234.333 58.5326 234.08 57.9849 233.721C57.4371 233.362 57.0158 233.05 57 233.071Z" fill="#263238"/>
<path d="M55.6559 232.219C55.6559 232.219 55.6559 232.336 55.6138 232.468C55.5717 232.6 55.5611 232.705 55.6138 232.721C55.6665 232.737 55.7191 232.631 55.7402 232.483C55.7613 232.336 55.6823 232.209 55.6559 232.219Z" fill="#263238"/>
<path d="M55.5469 231.266C55.5469 231.266 55.5469 231.366 55.5469 231.487C55.5469 231.609 55.6101 231.693 55.6364 231.688C55.6627 231.683 55.668 231.582 55.6364 231.466C55.6048 231.35 55.5732 231.266 55.5469 231.266Z" fill="#263238"/>
<path d="M55.0078 230.521C55.0078 230.547 55.0921 230.606 55.1711 230.706C55.2501 230.806 55.2869 230.901 55.3133 230.901C55.3396 230.901 55.3449 230.764 55.2448 230.642C55.1447 230.521 55.0183 230.495 55.0078 230.521Z" fill="#263238"/>
<path d="M54.5781 230.061C54.5781 230.061 54.5781 230.135 54.615 230.193C54.6519 230.251 54.7098 230.282 54.7309 230.267C54.7519 230.251 54.7309 230.193 54.694 230.135C54.6571 230.077 54.5992 230.04 54.5781 230.061Z" fill="#263238"/>
<path d="M92.5076 150.317C92.5076 150.317 99.3543 196.068 98.3747 198.275C97.3951 200.482 65.3053 235.842 65.3053 235.842L53.4922 227.991C53.4922 227.991 81.5003 192.615 81.2897 191.786C81.079 190.957 70.6773 146.637 70.6773 146.637L92.5076 150.317Z" fill="#395987"/>
<path d="M66.7811 146.014L66.3651 147.709C65.148 152.713 65.9025 157.995 68.4717 162.456L87.0841 194.833C88.4069 197.125 89.3697 199.607 89.9387 202.193L98.3653 239.575H111.337C111.337 240.351 107.982 208.777 106.297 198.291C105.033 190.371 94.4733 165.835 89.3593 154.24L92.5193 150.333L87.0104 149.425L66.7811 146.014Z" fill="#395987"/>
<path d="M89.7422 154.139C89.8581 154.302 89.9536 154.48 90.0266 154.667C90.1951 155.005 90.4269 155.501 90.706 156.119C91.2643 157.349 91.9963 159.07 92.7442 160.992C93.4921 162.914 94.1083 164.688 94.5296 165.966C94.735 166.61 94.8983 167.133 95.0036 167.497C95.071 167.683 95.1169 167.876 95.1405 168.073C95.0386 167.908 94.9589 167.73 94.9035 167.545C94.7508 167.133 94.5612 166.631 94.3453 166.04C93.8818 164.773 93.234 163.025 92.4861 161.103C91.7383 159.181 91.0378 157.455 90.5269 156.203C90.2952 155.622 90.0951 155.147 89.9265 154.719C89.8374 154.536 89.7753 154.34 89.7422 154.139Z" fill="#263238"/>
<path d="M91.2715 208.402C91.2323 208.284 91.2041 208.162 91.1872 208.038C91.1398 207.769 91.0766 207.42 91.0029 206.982C90.9608 206.75 90.9186 206.496 90.8712 206.222C90.8238 205.947 90.7448 205.646 90.6711 205.324C90.5289 204.685 90.3814 203.951 90.1444 203.154C90.0338 202.753 89.9232 202.336 89.8021 201.903L89.3755 200.556C89.1016 199.627 88.7172 198.661 88.3222 197.631C87.5216 195.593 86.5473 193.407 85.415 191.137C83.4307 187.305 81.2455 183.581 78.8685 179.98C77.9679 178.618 77.2358 177.504 76.7039 176.707C76.4616 176.337 76.272 176.041 76.1193 175.814C76.0471 175.713 75.9836 175.605 75.9297 175.492C76.0189 175.58 76.0984 175.677 76.1667 175.783L76.7934 176.643C77.3201 177.398 78.1048 178.497 79.0318 179.875C81.4585 183.451 83.6709 187.17 85.6572 191.01C86.7948 193.275 87.7639 195.488 88.5592 197.536C88.9226 198.592 89.3018 199.548 89.5704 200.488L89.9812 201.839C90.0918 202.283 90.2024 202.7 90.3077 203.107C90.5289 203.909 90.6606 204.648 90.7922 205.293C90.8554 205.616 90.9134 205.917 90.966 206.195C91.0082 206.475 91.0398 206.723 91.0766 206.961C91.1293 207.399 91.1767 207.753 91.2136 208.017C91.2467 208.143 91.2661 208.272 91.2715 208.402Z" fill="#263238"/>
<path d="M67.0486 233.953C66.8668 233.913 66.6901 233.853 66.5219 233.773C66.041 233.584 65.5715 233.367 65.1157 233.124C63.6174 232.304 62.1842 231.37 60.8286 230.331C59.2486 229.137 57.795 228.05 56.7101 227.332C55.6252 226.613 54.9247 226.212 54.9458 226.17C55.13 226.226 55.3069 226.304 55.4724 226.402C55.8042 226.561 56.2624 226.825 56.8207 227.168C57.9425 227.849 59.4066 228.916 60.9972 230.109C62.3426 231.141 63.7497 232.089 65.2105 232.949C66.3218 233.594 67.0644 233.905 67.0486 233.953Z" fill="#263238"/>
<path d="M111.281 237.602C111.107 237.622 110.93 237.622 110.755 237.602H109.285L104.456 237.565L99.6211 237.591H98.1517C97.9755 237.6 97.7989 237.589 97.625 237.56C97.7959 237.508 97.9733 237.482 98.1517 237.48C98.4993 237.454 98.9996 237.417 99.6211 237.391C100.853 237.327 102.57 237.274 104.461 237.28C106.352 237.285 108.064 237.332 109.301 237.401C109.917 237.433 110.418 237.464 110.765 237.496C110.941 237.507 111.115 237.542 111.281 237.602Z" fill="#263238"/>
<path d="M75.3136 99.3134C74.1731 99.4683 73.0122 99.2848 71.9746 98.7854C71.4608 98.5337 71.0257 98.1457 70.7165 97.6635C70.4073 97.1813 70.2359 96.6234 70.2208 96.0503C70.2208 95.3798 70.5315 94.7198 70.4209 94.0598C70.3103 93.3998 69.8205 92.8718 69.5045 92.2804C69.129 91.5254 69.0225 90.6643 69.2026 89.8402C69.3827 89.0161 69.8387 88.2786 70.4946 87.7502C71.1846 87.2222 72.0746 86.9476 72.6434 86.2982C73.3281 85.5326 73.4387 84.4238 73.8548 83.4839C74.1638 82.8069 74.6336 82.2162 75.223 81.7633C75.8124 81.3105 76.5036 81.0093 77.236 80.8862C78.047 80.7594 78.8897 80.8492 79.6639 80.5905C80.3034 80.3134 80.9065 79.9588 81.4598 79.5345C83.2922 78.347 85.5161 77.928 87.6534 78.3676C88.5899 78.5334 89.4597 78.9639 90.1604 79.6084C90.9135 80.3582 91.8826 81.1924 92.1564 82.1956C92.4777 83.41 92.0827 84.9306 91.7614 86.1398C91.4402 87.3489 90.4658 88.4577 89.2229 88.6055" fill="#263238"/>
<path d="M75.0547 108.653L84.9455 108.79C85.114 107.65 85.4722 103.194 85.4722 103.194C85.4722 103.194 89.617 102.945 90.0489 98.8534C90.4808 94.7614 90.6598 85.2997 90.6598 85.2997C88.4327 84.0789 85.9207 83.4768 83.3836 83.5557C80.8465 83.6346 78.3765 84.3916 76.2292 85.7485L75.5814 86.1603L75.0547 108.653Z" fill="#FFBE9D"/>
<path d="M85.7812 96.1874C86.0843 96.1022 86.3991 96.0665 86.7135 96.0818C86.8609 96.0818 86.9768 96.0554 86.9978 95.9762C87.013 95.8301 86.9894 95.6825 86.9294 95.5485L86.5923 94.3605C86.2651 93.3504 86.0375 92.3105 85.9129 91.2559C86.3418 92.2273 86.6735 93.2389 86.9031 94.276C87.0137 94.6879 87.1137 95.0786 87.2138 95.4693C87.2862 95.6688 87.2862 95.8875 87.2138 96.0871C87.1872 96.1419 87.1481 96.1896 87.0996 96.2263C87.051 96.263 86.9945 96.2877 86.9347 96.2983C86.8509 96.3109 86.7656 96.3109 86.6819 96.2983C86.3775 96.3138 86.0728 96.2763 85.7812 96.1874Z" fill="#263238"/>
<path d="M85.4637 103.134C83.5747 102.993 81.7705 102.291 80.2812 101.117C80.2812 101.117 81.2661 104.18 85.3741 104.195L85.4637 103.134Z" fill="#EB996E"/>
<path d="M75.617 90.4623C75.5327 90.4253 72.8204 89.9818 72.9836 93.2184C73.1469 96.4551 76.3438 95.2301 76.349 95.1351C76.3543 95.04 75.617 90.4623 75.617 90.4623Z" fill="#FFBE9D"/>
<path d="M75.3142 94.0475C75.3142 94.0475 75.2563 94.0898 75.1667 94.1373C75.0353 94.2007 74.8848 94.212 74.7454 94.169C74.5313 94.0457 74.3534 93.8681 74.2295 93.654C74.1056 93.4399 74.0402 93.1968 74.0397 92.9493C74.0186 92.6708 74.06 92.3912 74.1608 92.1309C74.1868 92.0294 74.2368 91.9357 74.3064 91.8576C74.3761 91.7795 74.4634 91.7193 74.5611 91.6821C74.6252 91.6626 74.6941 91.6655 74.7563 91.6905C74.8185 91.7155 74.8704 91.7609 74.9034 91.8194C74.9508 91.9091 74.9034 91.9725 74.9508 91.9778C74.9982 91.9831 75.014 91.9197 74.9824 91.7877C74.9607 91.7086 74.9123 91.6396 74.8455 91.5923C74.8014 91.5596 74.751 91.5366 74.6974 91.5248C74.6439 91.5129 74.5884 91.5126 74.5347 91.5237C74.403 91.5546 74.2816 91.6197 74.1827 91.7123C74.0838 91.805 74.0109 91.922 73.9712 92.0517C73.8462 92.339 73.7937 92.6527 73.8185 92.9651C73.8146 93.2539 73.8968 93.5372 74.0544 93.7789C74.212 94.0207 74.4379 94.2098 74.7033 94.3221C74.7936 94.3464 74.8883 94.349 74.9798 94.3297C75.0713 94.3105 75.157 94.2699 75.2299 94.2112C75.3142 94.1267 75.3142 94.0528 75.3142 94.0475Z" fill="#EB996E"/>
<path d="M82.1149 90.3844C82.0675 90.3263 82.1465 90.1732 82.3571 90.0095C82.6374 89.8102 82.9675 89.6932 83.3104 89.6716C83.6532 89.6446 83.9967 89.716 84.3005 89.8775C84.5323 90.0095 84.6271 90.1521 84.5902 90.2101C84.5112 90.3474 83.9898 90.1679 83.3473 90.2101C82.7047 90.2524 82.2097 90.5058 82.1149 90.3844Z" fill="#263238"/>
<path d="M87.8375 90.415C87.8059 90.2724 88.2483 90.0612 88.8277 90.0665C89.407 90.0718 89.8494 90.2777 89.8231 90.4255C89.7967 90.5734 89.3543 90.6156 88.8277 90.6156C88.301 90.6156 87.8639 90.5681 87.8375 90.415Z" fill="#263238"/>
<path d="M74.5859 87.1518C74.7439 88.1445 74.8984 89.1389 75.0494 90.1351C75.0757 90.6095 75.2385 91.0661 75.5181 91.4498C76.0448 92.0358 77.0033 91.9778 77.6775 91.5923C78.6623 91.0168 79.2048 89.9133 79.6209 88.8467C80.0369 87.7802 80.4056 86.6555 81.2009 85.8424C81.7726 86.4427 82.519 86.8466 83.3333 86.9964C84.1476 87.1462 84.9884 87.0343 85.7355 86.6767C86.3938 86.3493 86.9415 85.8318 87.5735 85.4517C87.8755 85.2375 88.2225 85.0957 88.5877 85.0371C88.9529 84.9785 89.3267 85.0048 89.6802 85.1138C90.0541 85.2722 90.3912 85.5784 90.7915 85.5573C90.945 85.5442 91.0925 85.4917 91.2198 85.4047C91.3472 85.3178 91.45 85.1994 91.5183 85.061C91.6496 84.7795 91.6953 84.4655 91.6499 84.1581C91.5183 83.0176 90.5966 82.1095 89.5433 81.6026C88.0739 80.8792 86.3833 80.7789 84.7401 80.7736C83.1819 80.7274 81.6244 80.8818 80.1054 81.233C78.5801 81.5929 77.1927 82.3911 76.1133 83.5298C75.5815 84.1038 75.1859 84.7909 74.956 85.5397C74.7262 86.2885 74.6681 87.0796 74.7861 87.8541" fill="#263238"/>
<path d="M87.4614 83.8801C87.6769 84.931 88.2322 85.8812 89.0414 86.5834C89.4061 86.9479 89.8914 87.1658 90.4054 87.1959C90.8183 87.1466 91.1985 86.9465 91.4735 86.6338C91.7484 86.3211 91.8988 85.9179 91.8959 85.501C91.859 84.6608 91.4984 83.8677 90.89 83.2887C90.3704 82.6719 89.6319 82.2819 88.8307 82.201C88.4334 82.1819 88.0435 82.3138 87.7389 82.5702C87.4343 82.8266 87.2374 83.1888 87.1875 83.5844" fill="#263238"/>
<path d="M82.6875 91.9155C82.6875 92.0555 82.743 92.1898 82.8418 92.2888C82.9405 92.3878 83.0745 92.4435 83.2142 92.4435C83.2805 92.4478 83.347 92.4386 83.4097 92.4166C83.4724 92.3946 83.53 92.3601 83.5792 92.3153C83.6283 92.2704 83.668 92.2161 83.6957 92.1556C83.7235 92.0951 83.7388 92.0296 83.7408 91.963C83.7408 91.823 83.6853 91.6887 83.5866 91.5896C83.4878 91.4906 83.3538 91.435 83.2142 91.435C83.1477 91.43 83.0809 91.4386 83.0178 91.4603C82.9548 91.4821 82.8969 91.5165 82.8476 91.5615C82.7983 91.6064 82.7586 91.661 82.7311 91.7219C82.7036 91.7828 82.6887 91.8487 82.6875 91.9155Z" fill="#263238"/>
<path d="M81.8598 91.3444C81.9283 91.4131 82.3127 91.1121 82.871 91.1015C83.4293 91.091 83.8401 91.3655 83.898 91.2916C83.9559 91.2177 83.8611 91.1438 83.6768 91.0171C83.4352 90.8559 83.1501 90.7731 82.8599 90.7797C82.5698 90.7863 82.2887 90.882 82.0547 91.054C81.8861 91.1966 81.8282 91.3444 81.8598 91.3444Z" fill="#263238"/>
<path d="M88.4062 91.9004C88.4062 92.0404 88.4617 92.1747 88.5605 92.2738C88.6593 92.3728 88.7932 92.4284 88.9329 92.4284C88.9994 92.4335 89.0662 92.4248 89.1292 92.4031C89.1923 92.3813 89.2502 92.3469 89.2995 92.3019C89.3488 92.257 89.3885 92.2024 89.416 92.1415C89.4435 92.0806 89.4583 92.0147 89.4596 91.9479C89.4596 91.8079 89.4041 91.6736 89.3053 91.5746C89.2066 91.4756 89.0726 91.4199 88.9329 91.4199C88.8011 91.4194 88.6738 91.4685 88.5763 91.5574C88.4788 91.6464 88.4181 91.7688 88.4062 91.9004Z" fill="#263238"/>
<path d="M87.6722 91.4348C87.7354 91.5034 88.1251 91.2024 88.6834 91.1919C89.2417 91.1813 89.6525 91.4559 89.7367 91.3872C89.821 91.3186 89.6999 91.2341 89.5155 91.1074C89.2731 90.9451 88.9865 90.8621 88.6951 90.8696C88.4038 90.8772 88.1218 90.975 87.8881 91.1496C87.6985 91.2816 87.6406 91.4084 87.6722 91.4348Z" fill="#263238"/>
<path d="M85.6508 97.8441C85.6508 97.8811 85.5139 97.9444 85.2611 97.9286C84.932 97.9042 84.6239 97.7573 84.3974 97.5168C84.1683 97.2771 84.0352 96.9614 84.0234 96.6297C84.0234 96.3816 84.0919 96.239 84.1235 96.2443C84.1551 96.2496 84.1235 96.8515 84.5922 97.3267C85.061 97.8019 85.6561 97.7702 85.6508 97.8441Z" fill="#263238"/>
<path d="M87.5118 118.996L95.7331 116.24C95.7331 116.24 101.453 129.815 102.927 129.968C111.085 130.713 119.818 128.004 122.877 126.932C123.188 126.578 123.546 126.161 123.931 125.644C124.268 125.202 124.528 124.705 124.7 124.176C124.935 123.525 125.082 122.845 125.137 122.154C125.12 122.019 125.145 121.883 125.21 121.764C125.275 121.645 125.375 121.549 125.497 121.491C125.619 121.433 125.756 121.414 125.889 121.438C126.022 121.462 126.144 121.528 126.238 121.626C126.59 122.085 126.68 123.838 125.874 125.723C125.068 127.608 127.918 126.109 128.966 125.581C130.014 125.053 133.337 123.574 133.753 123.77C134.364 124.055 134.174 124.762 133.116 125.264C132.057 125.765 128.982 127.502 129.287 128.041C129.592 128.58 134.891 125.818 134.891 125.818C134.891 125.818 135.944 125.042 136.302 125.654C136.976 126.763 131.12 129.282 130.562 129.509C130.167 129.667 130.477 130.269 130.888 130.074C131.299 129.878 136.113 127.196 136.808 128.321C137.334 129.182 132.015 130.433 131.33 131.547C130.646 132.661 135.27 130.185 135.749 131.019C135.923 131.336 136.013 131.594 133.147 132.603C131.051 133.263 128.92 133.809 126.764 134.24C126.764 134.24 97.271 147.471 92.0043 134.704C86.5954 121.758 87.5118 118.996 87.5118 118.996Z" fill="#EB996E"/>
<path d="M98.4903 120.712C95.1987 112.987 90.8905 109.962 88.6153 108.842C87.8182 108.455 86.9512 108.232 86.0663 108.188L85.7924 106.857L74.8904 105.875L74.6218 107.565L73.0418 107.475C73.0418 107.475 63.6461 108.42 63.625 119.334C63.625 124.439 66.3689 129.408 67.338 131.842C67.9437 136.932 65.758 146.167 65.8265 148.416L92.5443 150.317L93.6397 133.584L93.3922 132L102.188 129.297L98.4903 120.712Z" fill="#EBEBEB"/>
<path d="M157.646 83.7734C153.789 78.985 148.604 75.4503 142.744 73.6159C136.884 71.7815 130.613 71.7299 124.724 73.4675C118.835 75.2052 113.592 78.6541 109.658 83.3783C105.723 88.1025 103.274 93.8901 102.62 100.009C102.092 104.984 102.769 110.014 104.593 114.67C106.418 119.327 109.336 123.473 113.1 126.758L85.9297 158.728L89.827 162.06L117.214 129.82C121.146 132.255 125.574 133.772 130.17 134.261C131.286 134.381 132.407 134.441 133.53 134.44C139.382 134.421 145.111 132.745 150.055 129.605C154.999 126.465 158.958 121.989 161.476 116.693C163.994 111.396 164.97 105.494 164.289 99.6667C163.609 93.8391 161.3 88.3225 157.63 83.7523L157.646 83.7734ZM159.257 106.076C158.62 112.052 155.935 117.621 151.66 121.835C147.386 126.049 141.786 128.646 135.815 129.185C129.845 129.724 123.873 128.17 118.916 124.789C113.96 121.409 110.326 116.41 108.634 110.644C106.942 104.878 107.297 98.7031 109.637 93.1701C111.977 87.6371 116.159 83.0887 121.469 80.3001C126.779 77.5114 132.89 76.6549 138.76 77.8765C144.629 79.0981 149.895 82.3222 153.659 86.9995C155.804 89.6503 157.403 92.7012 158.364 95.9757C159.325 99.2502 159.629 102.683 159.257 106.076Z" fill="#263238"/>
<path d="M155.454 81.5821C151.599 76.7913 146.413 73.2542 140.553 71.4183C134.692 69.5824 128.42 69.5302 122.53 71.2681C116.64 73.0061 111.396 76.4562 107.462 81.1821C103.528 85.908 101.08 91.6974 100.428 97.8181C99.8992 102.793 100.576 107.823 102.4 112.479C104.225 117.136 107.144 121.283 110.909 124.567L83.4062 156.775L87.5722 160.117L115.038 127.608C118.971 130.04 123.398 131.557 127.994 132.048C129.11 132.166 130.232 132.226 131.354 132.228C137.207 132.208 142.935 130.532 147.879 127.392C152.823 124.253 156.782 119.777 159.3 114.48C161.819 109.184 162.794 103.282 162.113 97.4543C161.433 91.6267 159.125 86.1102 155.454 81.5399V81.5821ZM157.066 103.885C156.429 109.864 153.743 115.436 149.467 119.652C145.191 123.868 139.589 126.468 133.616 127.007C127.643 127.547 121.667 125.993 116.709 122.611C111.75 119.229 108.114 114.227 106.422 108.459C104.729 102.691 105.083 96.5124 107.425 90.9769C109.767 85.4414 113.951 80.8912 119.264 78.1017C124.577 75.3121 130.69 74.4558 136.562 75.6788C142.435 76.9017 147.702 80.1281 151.467 84.8082C153.611 87.4595 155.21 90.5104 156.171 93.7848C157.132 97.0592 157.436 100.492 157.066 103.885Z" fill="#455A64"/>
<path d="M117.211 117.983C117.133 117.916 117.064 117.84 117.005 117.756C116.879 117.597 116.684 117.37 116.479 117.059C115.838 116.188 115.259 115.275 114.746 114.324C113.03 111.181 111.988 107.714 111.686 104.145C111.384 100.575 111.829 96.9814 112.992 93.5943C113.336 92.5719 113.752 91.5751 114.235 90.6111C114.398 90.2626 114.551 90.0091 114.651 89.8349C114.692 89.7406 114.747 89.6533 114.814 89.5762C114.784 89.6744 114.745 89.7698 114.699 89.8613C114.62 90.0461 114.483 90.3048 114.33 90.6533C113.888 91.6321 113.501 92.6352 113.171 93.6576C112.069 97.0319 111.656 100.594 111.957 104.132C112.257 107.67 113.265 111.111 114.92 114.25C115.413 115.201 115.962 116.123 116.563 117.011C116.768 117.333 116.947 117.539 117.058 117.734C117.117 117.812 117.168 117.895 117.211 117.983Z" fill="#263238"/>
<path d="M118.504 86.0282C118.552 86.0916 118.236 86.3873 117.92 86.8044C117.604 87.2215 117.393 87.5964 117.319 87.57C117.245 87.5436 117.351 87.0842 117.698 86.6354C118.046 86.1866 118.467 85.9649 118.504 86.0282Z" fill="#263238"/>
<path d="M91.1953 114.877C91.28 115.114 91.3435 115.358 91.3849 115.606C91.4902 116.076 91.6272 116.762 91.7904 117.617C92.1064 119.317 92.4909 121.683 92.8438 124.307C93.1966 126.931 93.3704 129.318 93.4705 131.044C93.5232 131.91 93.5548 132.628 93.5653 133.093C93.5903 133.344 93.5903 133.597 93.5653 133.848C93.5115 133.603 93.4798 133.354 93.4705 133.104C93.4231 132.576 93.3599 131.884 93.2862 131.06C93.1334 129.339 92.9017 126.958 92.5804 124.339C92.2592 121.72 91.901 119.36 91.6324 117.649C91.506 116.836 91.4007 116.155 91.3164 115.621C91.2496 115.378 91.209 115.129 91.1953 114.877Z" fill="#263238"/>
<path d="M105.728 140.814C105.728 140.814 76.2345 154.072 70.9679 141.305C65.5643 128.301 66.4807 125.539 66.4807 125.539L74.7019 122.783C74.7019 122.783 80.4268 136.358 81.8962 136.511C90.0595 137.261 98.7917 134.547 101.852 133.475C102.162 133.127 102.515 132.704 102.905 132.192C103.295 131.68 103.6 131.136 103.958 130.677C104.738 129.7 105.354 129.536 105.696 129.151C106.507 128.227 107.276 128.903 106.897 129.399C106.518 129.895 105.67 130.402 104.864 132.292C104.058 134.183 106.929 133.248 108.066 132.952C109.32 132.62 111.674 131.701 111.674 131.701C111.732 132.256 111.105 133.37 110.047 133.871C109.473 134.151 108.884 134.398 108.282 134.61C108.282 134.61 110.457 134.341 110.515 134.843C110.573 135.344 109.873 139.019 107.555 140.123L105.728 140.814Z" fill="#FFBE9D"/>
<path d="M72.7737 110.955L78.0719 126.99L66.4853 131.584C66.4853 131.584 60.4391 115.834 68.0969 111.979L72.7737 110.955Z" fill="#EBEBEB"/>
<path d="M78.8386 126.368C78.8386 126.368 78.7754 126.326 78.6806 126.22C78.5493 126.055 78.4329 125.878 78.333 125.692C78.0105 125.006 77.7309 124.301 77.4956 123.58C76.8478 121.785 75.9683 119.293 75.015 116.542L73.6825 112.656C73.2717 111.463 72.9505 110.354 72.3448 109.641C72.1192 109.352 71.8318 109.117 71.5037 108.953C71.1756 108.789 70.8152 108.702 70.4488 108.696C70.1783 108.714 69.9128 108.778 69.6641 108.886C69.6641 108.886 69.7167 108.828 69.8431 108.759C70.0292 108.661 70.2338 108.604 70.4435 108.59C70.8333 108.573 71.2218 108.647 71.5777 108.808C71.9335 108.968 72.2468 109.21 72.4923 109.514C73.1559 110.259 73.4982 111.394 73.9195 112.572C74.3409 113.749 74.7938 115.074 75.2731 116.452C76.2316 119.203 77.0795 121.732 77.6799 123.517C77.9854 124.425 78.2066 125.17 78.4278 125.629C78.649 126.088 78.8597 126.352 78.8386 126.368Z" fill="#263238"/>
<path d="M78.5928 126.668C78.4596 126.778 78.3127 126.87 78.1557 126.943C77.866 127.106 77.4394 127.328 76.9075 127.592C75.8541 128.12 74.3531 128.806 72.6941 129.487C71.0351 130.169 69.4604 130.712 68.3281 131.071C67.7645 131.251 67.2747 131.388 66.9798 131.473C66.8102 131.534 66.6329 131.571 66.4531 131.584C67.0336 131.312 67.6319 131.081 68.2438 130.892C69.3603 130.485 70.8771 129.915 72.5677 129.239C74.2583 128.563 75.7277 127.903 76.8232 127.418C77.397 127.131 77.988 126.881 78.5928 126.668Z" fill="#263238"/>
<path d="M68.375 130.992C67.8962 130.273 67.5766 129.459 67.4375 128.605C67.7143 128.941 67.9172 129.331 68.0326 129.751C68.2361 130.135 68.353 130.558 68.375 130.992Z" fill="#263238"/>
<path d="M70.8243 130.047C70.7559 130.084 70.4399 129.619 70.2081 128.991C70.0251 128.61 69.9521 128.186 69.9975 127.766C70.2128 128.117 70.371 128.5 70.4662 128.901C70.6416 129.263 70.7623 129.649 70.8243 130.047Z" fill="#263238"/>
<path d="M73.3933 128.933C73.0736 128.635 72.8452 128.252 72.735 127.829C72.5428 127.434 72.4661 126.993 72.5138 126.557C72.727 126.923 72.8883 127.318 72.9931 127.729C73.1804 128.11 73.3151 128.515 73.3933 128.933Z" fill="#263238"/>
<path d="M76.139 127.824C75.8851 127.454 75.7062 127.038 75.6123 126.599C75.4374 126.187 75.3461 125.743 75.3438 125.295C75.6034 125.66 75.7829 126.075 75.8704 126.515C76.0503 126.927 76.1418 127.374 76.139 127.824Z" fill="#263238"/>
<path d="M102.397 129.129C100.942 129.745 99.4527 130.274 97.9358 130.713C96.4468 131.236 94.9293 131.673 93.3906 132.022C94.8458 131.408 96.3353 130.88 97.8515 130.438C99.3399 129.914 100.857 129.477 102.397 129.129Z" fill="#263238"/>
<path d="M95.3258 130.993C95.252 131.025 95.0203 130.634 94.7991 130.127C94.5779 129.62 94.4673 129.182 94.5358 129.15C94.6042 129.119 94.836 129.509 95.0624 130.021C95.2889 130.534 95.4048 130.945 95.3258 130.993Z" fill="#263238"/>
<path d="M97.602 130.48C97.5336 130.48 97.286 130.048 97.1175 129.424C96.9727 129.059 96.9326 128.66 97.0016 128.273C97.0806 128.273 97.2175 128.754 97.3808 129.329C97.5283 129.695 97.6034 130.086 97.602 130.48Z" fill="#263238"/>
<path d="M100.071 129.697C99.7415 128.991 99.5844 128.217 99.6126 127.438C99.8156 127.773 99.9399 128.15 99.976 128.541C100.096 128.914 100.128 129.31 100.071 129.697Z" fill="#263238"/>
<path d="M75.96 107.417C75.881 107.417 75.8442 107.122 75.8652 106.763C75.8863 106.404 75.9758 106.124 76.0496 106.129C76.1233 106.134 76.1654 106.43 76.1391 106.784C76.1128 107.137 76.0338 107.423 75.96 107.417Z" fill="#263238"/>
<path d="M78.3536 107.56C78.2746 107.56 78.2061 107.275 78.1903 106.921C78.1745 106.567 78.2272 106.271 78.3009 106.271C78.3746 106.271 78.4484 106.551 78.4642 106.91C78.48 107.269 78.4273 107.555 78.3536 107.56Z" fill="#263238"/>
<path d="M80.2098 107.883C80.1361 107.883 80.0781 107.582 80.0781 107.212C80.0781 106.843 80.1466 106.547 80.2203 106.547C80.2941 106.547 80.3573 106.848 80.352 107.212C80.3467 107.576 80.2888 107.883 80.2098 107.883Z" fill="#263238"/>
<path d="M82.7167 108.155C82.6483 108.155 82.4955 107.833 82.485 107.379C82.4745 106.925 82.6009 106.576 82.6693 106.592C82.7378 106.608 82.7431 106.951 82.7589 107.368C82.7747 107.786 82.7957 108.134 82.7167 108.155Z" fill="#263238"/>
<path d="M84.8001 108.157C84.7211 108.157 84.621 107.824 84.5683 107.391C84.5157 106.958 84.5367 106.599 84.6105 106.594C84.6842 106.589 84.7895 106.926 84.8422 107.359C84.8949 107.792 84.8685 108.146 84.8001 108.157Z" fill="#263238"/>
</svg>
