<svg width="419" height="423" viewBox="0 0 419 423" fill="none" xmlns="http://www.w3.org/2000/svg">
<g clip-path="url(#clip0_4503_120794)">
<path fill-rule="evenodd" clip-rule="evenodd" d="M180.863 2.99497C90.4412 14.7937 45.9237 88.5812 37.5311 101.878C-8.51901 174.569 -17.7874 284.666 41.5814 354.545C80.8444 400.754 135.105 411.785 163.165 417.484C182.177 421.356 271.649 437.173 347.256 382.891C353.715 378.252 361.852 372.408 370.427 363.349C435.634 294.638 442.531 130.333 345.578 49.0209C306.972 16.6201 256.032 1.20508 208.413 1.20508C199.071 1.20508 189.839 1.78953 180.863 2.99497Z" fill="url(#paint0_linear_4503_120794)"/>
<path d="M104.964 246.239L121.348 239.335C128.135 244.12 135.762 247.809 143.935 250.22L148.825 267.315C148.971 267.936 149.518 268.338 150.138 268.375L171.412 269.544C171.715 269.563 172.017 269.485 172.273 269.321C172.529 269.156 172.726 268.915 172.835 268.63L179.549 252.193C187.83 250.717 195.816 247.904 203.195 243.864L218.703 252.521C218.975 252.664 219.283 252.723 219.588 252.69C219.893 252.658 220.182 252.535 220.418 252.339L236.291 238.093C236.729 237.691 236.875 237.033 236.656 236.449L229.759 220.048C234.579 213.147 238.251 205.512 240.633 197.436L257.71 192.578C258.001 192.484 258.258 192.306 258.446 192.065C258.635 191.824 258.747 191.532 258.769 191.227L259.936 169.93C259.956 169.627 259.877 169.325 259.713 169.068C259.549 168.812 259.308 168.615 259.024 168.506L242.567 161.785C241.127 153.487 238.315 145.487 234.247 138.114L242.895 122.59C243.055 122.322 243.124 122.01 243.091 121.701C243.058 121.391 242.926 121.1 242.713 120.873L228.519 104.983C228.303 104.767 228.03 104.618 227.733 104.553C227.435 104.489 227.125 104.511 226.84 104.618L210.493 111.521C203.669 106.773 196.079 103.047 187.869 100.636L183.016 83.5406C182.833 82.9561 182.322 82.5178 181.702 82.4813L160.429 81.3124C160.121 81.2973 159.817 81.3767 159.556 81.5399C159.295 81.7032 159.09 81.9424 158.969 82.2256L152.291 98.6999C143.862 100.161 135.907 103.047 128.61 107.028L113.101 98.3712C112.554 98.0424 111.897 98.1155 111.423 98.5538L95.5498 112.763C95.0754 113.202 94.9294 113.859 95.1849 114.444L102.081 130.845C97.3013 137.639 93.6158 145.237 91.2075 153.456L74.1303 158.314C73.5464 158.497 73.1086 159.008 73.0721 159.629L71.9044 180.926C71.8893 181.233 71.9687 181.538 72.1317 181.799C72.2948 182.06 72.5338 182.265 72.8166 182.387L89.237 189.071C90.7107 197.372 93.5205 205.379 97.5567 212.778L88.9086 228.303C88.7662 228.569 88.7074 228.872 88.74 229.171C88.7725 229.471 88.8949 229.754 89.0911 229.983L103.322 245.873C103.52 246.103 103.787 246.263 104.083 246.329C104.378 246.394 104.688 246.363 104.964 246.239Z" fill="#91B3FA"/>
<path d="M172.835 159.374C169.608 157.972 166.031 157.59 162.581 158.278C153.131 160.104 146.927 169.309 148.752 178.77C150.613 188.268 159.808 194.441 169.259 192.614C178.71 190.751 184.913 181.546 183.052 172.085C182.625 169.831 181.752 167.685 180.487 165.772C179.221 163.859 177.588 162.218 175.681 160.944C174.782 160.336 173.829 159.811 172.835 159.374ZM157.838 194.149C151.853 191.555 147.256 186.185 145.906 179.318C143.753 168.286 150.978 157.584 162.034 155.428C167.362 154.369 172.799 155.465 177.287 158.533C181.812 161.565 184.877 166.204 185.898 171.537C186.957 176.871 185.862 182.313 182.797 186.843C179.768 191.336 175.134 194.404 169.806 195.464C165.776 196.241 161.604 195.782 157.838 194.149Z" fill="white"/>
<path d="M66.8322 238.238C66.1525 237.942 65.5796 237.445 65.1901 236.814C64.1684 235.097 63.1832 233.344 62.2345 231.627C61.2857 229.837 61.9426 227.645 63.6941 226.695C64.5361 226.24 65.5241 226.139 66.441 226.413C67.3579 226.687 68.1286 227.314 68.5837 228.157C69.4959 229.8 70.4082 231.444 71.3934 233.015C72.4151 234.732 71.9043 236.96 70.1892 238.019C69.6848 238.314 69.119 238.486 68.5365 238.525C67.9539 238.563 67.3705 238.465 66.8322 238.238Z" fill="white"/>
<path d="M166.778 64.4001C166.123 64.107 165.568 63.6299 165.179 63.0268C164.791 62.4238 164.585 61.7206 164.588 61.0029C164.618 60.0408 165.025 59.1293 165.722 58.4659C166.419 57.8026 167.349 57.4411 168.31 57.4597C172.41 57.5323 176.503 57.825 180.571 58.3364C182.541 58.5921 183.964 60.3819 183.709 62.391C183.454 64.3636 181.666 65.7882 179.659 65.5325C175.844 65.0514 172.008 64.771 168.164 64.6923C167.653 64.6923 167.216 64.5827 166.778 64.4001ZM135.798 68.0529C134.813 67.6146 134.01 66.7744 133.718 65.6421C133.491 64.7077 133.639 63.7215 134.13 62.8951C134.621 62.0687 135.417 61.4681 136.345 61.2221C138.644 60.6376 141.016 60.0897 143.388 59.6149C145.03 59.2861 146.708 58.9939 148.387 58.7747C150.357 58.4459 152.182 59.834 152.51 61.8066C152.581 62.2792 152.557 62.7611 152.441 63.2247C152.325 63.6883 152.119 64.1244 151.834 64.5079C151.549 64.8914 151.192 65.2149 150.782 65.4596C150.372 65.7044 149.917 65.8657 149.445 65.9343C147.912 66.1535 146.307 66.4457 144.774 66.7379C142.548 67.1762 140.323 67.6876 138.133 68.2356C137.33 68.4547 136.491 68.3817 135.798 68.0529ZM106.934 79.9247C106.226 79.6236 105.636 79.0973 105.256 78.427C104.234 76.6737 104.818 74.4819 106.57 73.4592C110.109 71.4136 113.758 69.5141 117.48 67.8338C119.304 67.0301 121.457 67.8338 122.297 69.6602C123.099 71.4866 122.297 73.6418 120.472 74.4454C116.96 76.0207 113.536 77.789 110.219 79.7421C109.16 80.3265 107.956 80.363 106.934 79.9247ZM82.3768 99.2117C81.9941 99.0149 81.6384 98.7694 81.3186 98.4812C79.8955 97.0931 79.8591 94.7918 81.2457 93.3307C84.0919 90.4084 87.084 87.5957 90.2221 84.9656C91.7547 83.6871 94.0536 83.8698 95.3307 85.404C96.6079 86.9382 96.4254 89.2395 94.8928 90.518C91.9372 92.9654 89.1275 95.632 86.4272 98.3716C85.369 99.504 83.727 99.7962 82.3768 99.2117ZM63.9495 124.38C63.8765 124.343 63.7671 124.307 63.6941 124.27C61.9061 123.321 61.2493 121.092 62.198 119.339C64.1685 115.759 66.3213 112.216 68.6202 108.819C69.7514 107.175 72.0138 106.773 73.6558 107.906C75.2978 109.001 75.7357 111.266 74.6045 112.946C72.4227 116.124 70.4128 119.416 68.5837 122.809C67.6715 124.453 65.6645 125.147 63.9495 124.38ZM52.9661 153.639C51.4335 152.945 50.5213 151.228 50.8862 149.511C51.8044 145.512 52.9248 141.562 54.2432 137.676C54.8636 135.777 56.9435 134.754 58.8409 135.375C59.7424 135.696 60.4831 136.357 60.9056 137.216C61.328 138.076 61.399 139.067 61.1033 139.978C59.8578 143.632 58.8103 147.351 57.9652 151.119C57.5273 153.055 55.5934 154.297 53.6229 153.858L52.9661 153.639ZM50.3753 184.761C49.1347 184.25 48.2589 183.045 48.1859 181.62C47.967 177.52 47.967 173.41 48.1859 169.31C48.2954 167.301 49.9739 165.767 51.9809 165.876C53.9878 165.986 55.5204 167.703 55.4109 169.675C55.2285 173.511 55.2285 177.419 55.4474 181.255C55.5204 183.227 53.9878 184.944 52.0174 185.054C51.4546 185.088 50.8918 184.988 50.3753 184.761ZM56.2502 215.445C55.7882 215.239 55.3725 214.943 55.0276 214.572C54.6828 214.202 54.4161 213.766 54.2432 213.29C52.9661 209.418 51.8349 205.437 50.9227 201.418C50.4848 199.482 51.7254 197.546 53.6594 197.108C55.6298 196.633 57.5638 197.875 58.0017 199.848C58.8468 203.603 59.8944 207.31 61.1398 210.952C61.7601 212.852 60.7384 214.897 58.8409 215.555C57.9652 215.847 57.0529 215.774 56.2502 215.445Z" fill="white"/>
<path d="M197.648 69.2948C196.006 68.5642 195.094 66.7012 195.641 64.9113C195.923 63.9919 196.558 63.2218 197.406 62.7698C198.254 62.3179 199.247 62.2211 200.166 62.5005C202.027 63.0849 203.961 63.7059 205.822 64.3999C207.719 65.094 208.705 67.1396 208.011 69.0391C207.683 69.9415 207.012 70.6778 206.144 71.0882C205.277 71.4985 204.282 71.5497 203.377 71.2308C201.626 70.5733 199.801 69.9888 198.05 69.4409C197.91 69.4085 197.776 69.3594 197.648 69.2948Z" fill="white"/>
<path d="M269.205 133C268.402 132.672 267.709 132.014 267.307 131.137C266.577 129.421 265.775 127.74 264.972 126.06C264.06 124.234 264.789 122.078 266.577 121.202C268.365 120.288 270.555 121.019 271.43 122.809C272.343 124.599 273.182 126.425 273.985 128.252C274.751 130.078 273.912 132.233 272.087 133C271.635 133.208 271.143 133.316 270.646 133.316C270.148 133.316 269.657 133.208 269.205 133Z" fill="white"/>
<path d="M277.561 162.588C276.466 162.113 275.627 161.09 275.408 159.775C275.152 157.949 274.86 156.086 274.496 154.26C274.131 152.397 273.693 150.497 273.255 148.634C273.135 148.172 273.107 147.691 273.174 147.218C273.241 146.745 273.401 146.29 273.644 145.879C273.888 145.468 274.21 145.11 274.593 144.825C274.976 144.54 275.411 144.333 275.874 144.217C276.337 144.101 276.818 144.079 277.29 144.15C277.761 144.221 278.214 144.386 278.622 144.633C279.03 144.881 279.385 145.207 279.666 145.593C279.947 145.979 280.15 146.416 280.261 146.881C280.772 148.853 281.21 150.899 281.611 152.872C281.976 154.844 282.304 156.817 282.596 158.753C282.888 160.725 281.502 162.588 279.531 162.844C278.838 162.953 278.181 162.844 277.561 162.588ZM277.816 193.345C276.356 192.688 275.444 191.19 275.663 189.546C276.138 185.784 276.429 181.985 276.539 178.222C276.575 176.213 278.217 174.606 280.224 174.679C282.231 174.716 283.8 176.396 283.764 178.368C283.654 182.423 283.363 186.478 282.852 190.459C282.793 190.932 282.641 191.389 282.406 191.803C282.17 192.217 281.855 192.581 281.479 192.872C281.102 193.164 280.672 193.379 280.212 193.504C279.753 193.629 279.273 193.662 278.801 193.601C278.436 193.564 278.108 193.455 277.816 193.345ZM269.825 223.006C268 222.203 267.161 220.12 267.927 218.258C269.387 214.787 270.701 211.208 271.795 207.591C272.379 205.655 274.386 204.596 276.32 205.18C278.254 205.765 279.312 207.774 278.728 209.71C277.556 213.567 276.179 217.359 274.605 221.07C274.425 221.513 274.159 221.915 273.822 222.254C273.484 222.592 273.083 222.859 272.641 223.039C272.199 223.22 271.725 223.31 271.248 223.304C270.77 223.298 270.299 223.197 269.861 223.006H269.825ZM254.244 249.489C253.988 249.38 253.696 249.197 253.441 249.015C251.872 247.773 251.616 245.508 252.857 243.901C255.203 240.93 257.383 237.833 259.389 234.622C260.483 232.942 262.709 232.431 264.388 233.526C266.103 234.586 266.614 236.814 265.519 238.531C263.366 241.928 261.031 245.252 258.549 248.394C257.491 249.709 255.74 250.147 254.244 249.489ZM232.204 270.895C231.633 270.624 231.133 270.224 230.744 269.726C229.577 268.082 229.905 265.818 231.511 264.649C234.539 262.384 237.495 259.973 240.305 257.416C241.764 256.101 244.063 256.174 245.413 257.672C246.763 259.169 246.654 261.434 245.158 262.786C242.177 265.512 239.059 268.084 235.816 270.493C235.296 270.859 234.693 271.087 234.062 271.157C233.43 271.228 232.791 271.137 232.204 270.895ZM205.274 285.616C204.435 285.214 203.705 284.52 203.34 283.57C202.647 281.708 203.559 279.589 205.457 278.895C208.96 277.543 212.463 276.009 215.82 274.292C217.608 273.379 219.797 274.11 220.673 275.899C221.585 277.689 220.856 279.881 219.068 280.758C215.474 282.59 211.783 284.224 208.011 285.653C207.575 285.828 207.109 285.915 206.639 285.909C206.169 285.902 205.706 285.803 205.274 285.616ZM175.389 292.63C174.222 292.118 173.382 290.986 173.236 289.634C173.054 287.662 174.514 285.872 176.484 285.689C180.024 285.324 183.563 284.812 187.066 284.118L187.723 284.009C189.693 283.607 191.591 284.885 191.992 286.858C192.394 288.794 191.116 290.73 189.146 291.132L188.453 291.241C184.731 291.972 180.936 292.52 177.177 292.885C176.557 292.958 175.937 292.849 175.389 292.63ZM144.701 291.424C143.205 290.803 142.293 289.159 142.585 287.479C142.95 285.506 144.811 284.191 146.781 284.557C150.503 285.178 154.298 285.653 158.057 285.908C160.064 286.054 161.56 287.808 161.414 289.78C161.345 290.742 160.901 291.638 160.177 292.274C159.453 292.91 158.507 293.235 157.546 293.177C153.521 292.881 149.515 292.381 145.541 291.68C145.249 291.643 144.957 291.534 144.701 291.424Z" fill="white"/>
<path d="M120.837 284.484C119.049 283.681 118.173 281.598 118.94 279.772C119.121 279.33 119.387 278.928 119.724 278.59C120.061 278.251 120.461 277.982 120.902 277.799C121.343 277.616 121.815 277.521 122.293 277.521C122.77 277.522 123.243 277.616 123.683 277.799C125.398 278.53 127.15 279.188 128.901 279.809C130.799 280.503 131.784 282.548 131.091 284.448C130.434 286.347 128.354 287.333 126.493 286.639C124.596 285.982 122.735 285.251 120.91 284.484H120.837Z" fill="white"/>
<path d="M151.708 226.404C151.051 226.148 150.686 225.418 150.868 224.687C150.905 224.651 150.905 224.578 150.941 224.505C151.233 223.847 151.963 223.482 152.656 223.701C156.09 224.63 159.613 225.193 163.165 225.381C188.635 226.806 210.785 208.724 215.127 184.177C215.455 182.241 215.711 180.232 215.82 178.186C217.316 150.644 196.189 127.01 168.675 125.476C155.32 124.745 142.512 129.275 132.587 138.188C127.113 143.046 122.881 148.927 120.071 155.466C117.736 160.835 116.349 166.643 116.021 172.707C115.514 181.73 117.469 190.72 121.677 198.715C121.781 198.911 121.839 199.129 121.845 199.35C121.851 199.572 121.806 199.793 121.713 199.994C121.656 200.148 121.568 200.289 121.455 200.408C121.342 200.527 121.207 200.622 121.056 200.688C120.889 200.777 120.706 200.831 120.517 200.848C120.329 200.865 120.139 200.844 119.958 200.786C119.778 200.728 119.611 200.635 119.468 200.511C119.324 200.388 119.207 200.237 119.122 200.067C114.661 191.603 112.591 182.079 113.138 172.525C113.466 166.132 114.926 159.995 117.407 154.297C120.399 147.393 124.888 141.183 130.653 135.996C141.162 126.572 154.7 121.823 168.821 122.59C197.94 124.197 220.308 149.219 218.703 178.333C218.357 184.588 216.912 190.734 214.434 196.487C205.858 216.213 185.68 229.546 163.019 228.304C159.553 228.084 156.086 227.573 152.766 226.733C152.656 226.696 152.583 226.66 152.474 226.623C152.291 226.587 152.072 226.55 151.89 226.477C151.822 226.476 151.758 226.45 151.708 226.404Z" fill="white"/>
<path d="M275.955 118.936L286.282 114.59C290.551 117.585 295.368 119.923 300.513 121.457L303.578 132.233C303.688 132.598 304.016 132.854 304.417 132.89L317.809 133.621C318.21 133.657 318.575 133.402 318.721 133.036L322.954 122.699C328.169 121.764 333.197 119.988 337.842 117.439L347.621 122.881C347.788 122.972 347.978 123.01 348.167 122.991C348.356 122.971 348.535 122.895 348.679 122.772L358.678 113.822C358.97 113.53 359.079 113.128 358.897 112.763L354.554 102.426C357.625 98.0968 359.944 93.2805 361.414 88.1794L372.179 85.111C372.544 85.0014 372.799 84.6727 372.836 84.2709L373.565 70.8649C373.586 70.6738 373.543 70.4812 373.445 70.3164C373.346 70.1516 373.196 70.0236 373.018 69.9517L362.655 65.7509C361.722 60.5193 359.947 55.4738 357.4 50.8108L362.874 41.0211C363.056 40.6924 362.983 40.254 362.728 39.9618L353.788 29.953C353.533 29.6608 353.095 29.5877 352.73 29.7338L342.44 34.0807C338.082 31.0417 333.265 28.7231 328.172 27.2134L325.143 16.474C325.034 16.0722 324.706 15.8165 324.304 15.7799L310.876 15.0494C310.511 15.0128 310.146 15.2685 310 15.6338L305.767 26.0079C300.549 26.9072 295.517 28.6727 290.88 31.2315L281.1 25.7887C280.735 25.6061 280.334 25.6426 280.042 25.8983L270.044 34.8843C269.9 35.0067 269.798 35.1712 269.752 35.3546C269.706 35.5381 269.719 35.7313 269.789 35.9071L274.131 46.2447C271.086 50.5835 268.78 55.3974 267.307 60.4908L256.543 63.5592C256.178 63.6688 255.886 63.9976 255.886 64.3994L255.12 77.8053C255.12 78.2071 255.339 78.5724 255.703 78.7185L266.067 82.9193C267.004 88.1447 268.765 93.1877 271.285 97.8595L265.848 107.649C265.757 107.816 265.719 108.007 265.738 108.196C265.758 108.385 265.834 108.564 265.957 108.708L274.934 118.717C275.189 119.009 275.59 119.083 275.955 118.936Z" fill="#91B3FA"/>
<path d="M318.721 64.2172C316.689 63.3315 314.436 63.0894 312.262 63.5232C306.278 64.6921 302.374 70.4636 303.541 76.4542C304.709 82.4084 310.511 86.3169 316.459 85.148C322.407 83.9791 326.311 78.2076 325.143 72.2169C324.596 69.3312 322.954 66.8472 320.509 65.2035C319.95 64.8119 319.351 64.4812 318.721 64.2172ZM309.27 86.1343C305.512 84.4905 302.593 81.0934 301.753 76.783C300.403 69.8426 304.965 63.0848 311.898 61.7333C315.255 61.0757 318.685 61.7698 321.531 63.6693C324.377 65.6053 326.311 68.5276 326.968 71.8882C327.588 75.2488 326.895 78.6825 324.997 81.5317C323.063 84.3809 320.181 86.2804 316.824 86.9379C314.16 87.4493 311.569 87.1206 309.27 86.1343Z" fill="white"/>
<path d="M251.945 113.895C251.517 113.706 251.159 113.387 250.923 112.982C250.266 111.923 249.646 110.827 249.026 109.731C248.442 108.599 248.843 107.211 249.975 106.626C251.069 106.042 252.456 106.444 253.04 107.54C253.624 108.562 254.207 109.622 254.828 110.608C255.079 111.025 255.191 111.511 255.147 111.997C255.104 112.482 254.908 112.94 254.587 113.306C254.266 113.672 253.837 113.927 253.362 114.033C252.887 114.139 252.391 114.091 251.945 113.895Z" fill="white"/>
<path d="M314.89 4.38342C314.087 4.01813 313.503 3.21451 313.54 2.26477C313.54 0.986269 314.598 0 315.875 0C318.429 0.073057 321.02 0.255699 323.574 0.584456C323.872 0.616087 324.161 0.706646 324.423 0.850874C324.686 0.995103 324.917 1.19013 325.104 1.42462C325.291 1.65911 325.429 1.92841 325.511 2.21686C325.593 2.50531 325.617 2.80717 325.581 3.10492C325.399 4.38342 324.268 5.2601 323.027 5.11399C320.619 4.78523 318.174 4.63912 315.765 4.56606C315.474 4.56606 315.182 4.49301 314.89 4.38342ZM295.368 6.68472C294.747 6.42902 294.273 5.88109 294.091 5.18705C293.762 3.94508 294.492 2.70311 295.733 2.37435C297.192 2.00907 298.688 1.68031 300.148 1.38808C301.206 1.16891 302.264 0.986269 303.322 0.840155C304.563 0.657513 305.731 1.49767 305.913 2.73964C306.096 4.01813 305.22 5.15052 303.979 5.36969C302.994 5.5158 302.009 5.66192 301.024 5.88109C299.637 6.13679 298.214 6.46554 296.864 6.83083C296.353 6.94041 295.842 6.90389 295.368 6.68472ZM277.196 14.1731C276.758 13.9904 276.393 13.6617 276.138 13.2233C275.517 12.1275 275.882 10.7394 276.977 10.1184C279.198 8.803 281.488 7.60801 283.837 6.5386C285.005 6.0272 286.355 6.5386 286.866 7.70751C287.376 8.8399 286.866 10.1915 285.734 10.7394C283.516 11.7156 281.359 12.8256 279.276 14.0635C278.619 14.4288 277.853 14.4653 277.196 14.1731ZM261.761 26.3005C261.509 26.1896 261.275 26.0418 261.067 25.8622C260.155 24.9855 260.155 23.5244 261.031 22.6111C262.819 20.7847 264.716 18.9948 266.687 17.351C267.635 16.5474 269.095 16.657 269.898 17.6433C270.701 18.593 270.591 20.0176 269.606 20.8578C267.781 22.392 265.993 24.0723 264.278 25.7891C263.622 26.5197 262.6 26.6658 261.761 26.3005ZM250.12 42.1904C250.065 42.1459 250.003 42.109 249.938 42.0808C248.843 41.4964 248.442 40.1083 249.026 39.0124C250.266 36.7477 251.616 34.5194 253.076 32.3643C253.769 31.3415 255.192 31.0858 256.251 31.7798C257.272 32.5104 257.564 33.935 256.835 34.9578C255.484 36.9668 254.207 39.049 253.04 41.1676C252.492 42.2269 251.215 42.6653 250.12 42.1904ZM243.224 60.6008C242.239 60.1624 241.655 59.1031 241.91 58.0073C242.458 55.4868 243.187 52.9663 243.99 50.5554C244.185 49.9753 244.602 49.4959 245.149 49.2221C245.696 48.9484 246.329 48.9024 246.909 49.0943C248.077 49.5326 248.734 50.8111 248.332 52.0166C247.566 54.2813 246.873 56.6557 246.362 58.9935C246.226 59.5865 245.863 60.1024 245.352 60.4303C244.84 60.7583 244.22 60.8719 243.625 60.7469C243.479 60.7104 243.333 60.6738 243.224 60.6008ZM241.582 80.2166C240.815 79.8878 240.268 79.1207 240.195 78.244C240.049 75.6648 240.049 73.0793 240.195 70.5C240.268 69.2215 241.326 68.2352 242.603 68.3083C243.844 68.3813 244.829 69.4407 244.756 70.7192C244.61 73.1301 244.647 75.5775 244.756 77.9883C244.829 79.2668 243.881 80.3262 242.603 80.3992C242.239 80.3992 241.874 80.3627 241.582 80.2166ZM245.267 99.5402C244.982 99.408 244.725 99.2205 244.512 98.9886C244.299 98.7566 244.134 98.4847 244.027 98.1886C243.189 95.7349 242.494 93.2346 241.947 90.7003C241.655 89.4948 242.421 88.2529 243.662 87.9606C244.256 87.8356 244.876 87.9493 245.388 88.2772C245.9 88.6051 246.263 89.121 246.398 89.714C246.919 92.0843 247.565 94.4254 248.332 96.7275C248.734 97.8964 248.113 99.2114 246.909 99.6132C246.371 99.791 245.787 99.765 245.267 99.5402Z" fill="white"/>
<path d="M334.339 7.48882C333.317 7.01395 332.733 5.84504 333.062 4.71266C333.463 3.50722 334.704 2.8497 335.944 3.21499C337.112 3.58027 338.316 3.98209 339.484 4.3839C340.688 4.82224 341.308 6.13727 340.87 7.30618C340.433 8.51162 339.119 9.13261 337.951 8.69426C336.857 8.29245 335.725 7.92717 334.594 7.56188C334.505 7.55467 334.418 7.52984 334.339 7.48882Z" fill="white"/>
<path d="M379.404 47.5965C378.893 47.3774 378.492 46.9755 378.236 46.4276C377.762 45.3683 377.251 44.2724 376.74 43.2131C376.474 42.6698 376.432 42.0435 376.623 41.4693C376.814 40.8952 377.223 40.4194 377.762 40.1447C378.893 39.5968 380.28 40.0717 380.827 41.204C381.374 42.2999 381.922 43.4688 382.432 44.6012C382.907 45.7701 382.396 47.1217 381.228 47.5965C380.644 47.8888 379.988 47.8522 379.404 47.5965Z" fill="white"/>
<path d="M384.695 66.2623C384.001 65.9336 383.454 65.2761 383.345 64.4724C383.162 63.3401 382.98 62.1711 382.761 61.0022C382.505 59.8333 382.25 58.6279 381.958 57.459C381.666 56.217 382.396 54.975 383.636 54.6828C384.841 54.354 386.081 55.1211 386.41 56.3266C386.702 57.6051 386.994 58.8836 387.249 60.1255C387.468 61.3675 387.687 62.6095 387.869 63.8149C388.052 65.0569 387.176 66.2258 385.935 66.4084C385.516 66.4731 385.087 66.4226 384.695 66.2623ZM384.841 85.6224C384.383 85.4244 384.002 85.0811 383.758 84.6455C383.515 84.2098 383.42 83.706 383.491 83.2116C383.782 80.8737 383.965 78.4629 384.038 76.0885C384.074 74.81 385.096 73.8237 386.373 73.8603C387.614 73.8968 388.636 74.9196 388.599 76.1981C388.526 78.7186 388.344 81.2755 388.015 83.796C387.869 85.038 386.702 85.9512 385.461 85.7686C385.242 85.732 385.023 85.6955 384.841 85.6224ZM379.805 104.289C378.674 103.814 378.127 102.462 378.637 101.33C379.554 99.1194 380.358 96.8639 381.046 94.5719C381.411 93.3665 382.688 92.709 383.892 93.0743C385.133 93.4395 385.789 94.718 385.424 95.9235C384.686 98.3536 383.821 100.743 382.834 103.083C382.323 104.252 381.009 104.8 379.842 104.325C379.842 104.32 379.841 104.315 379.839 104.311C379.837 104.306 379.834 104.302 379.831 104.299C379.828 104.296 379.824 104.293 379.819 104.291C379.815 104.289 379.81 104.288 379.805 104.289ZM369.989 120.982C369.823 120.898 369.665 120.8 369.515 120.69C369.277 120.506 369.077 120.276 368.928 120.015C368.779 119.754 368.683 119.465 368.646 119.166C368.608 118.867 368.63 118.564 368.711 118.274C368.791 117.984 368.928 117.712 369.114 117.475C370.573 115.612 371.96 113.64 373.237 111.631C373.567 111.12 374.084 110.757 374.676 110.621C375.269 110.485 375.891 110.585 376.411 110.9C377.47 111.594 377.762 113.019 377.105 114.078C375.741 116.223 374.267 118.296 372.69 120.288C372.033 121.128 370.938 121.384 369.989 120.982ZM356.123 134.461C355.753 134.314 355.435 134.06 355.211 133.73C354.445 132.708 354.664 131.283 355.685 130.516C357.604 129.109 359.443 127.596 361.195 125.986C362.144 125.146 363.567 125.219 364.443 126.133C365.282 127.082 365.209 128.507 364.297 129.384C362.399 131.064 360.429 132.708 358.386 134.205C357.692 134.717 356.853 134.79 356.123 134.461ZM339.155 143.739C338.608 143.484 338.17 143.045 337.951 142.461C337.477 141.255 338.061 139.94 339.265 139.502C341.491 138.662 343.68 137.676 345.797 136.616C346.928 136.032 348.278 136.507 348.862 137.639C349.409 138.735 348.971 140.123 347.84 140.707C345.578 141.84 343.242 142.863 340.87 143.776C340.287 143.995 339.703 143.958 339.155 143.739ZM320.327 148.159C319.952 147.993 319.629 147.729 319.391 147.395C319.153 147.061 319.01 146.669 318.977 146.26C318.831 145.018 319.779 143.885 321.02 143.776C323.246 143.557 325.472 143.228 327.661 142.79L328.099 142.716C328.394 142.656 328.697 142.655 328.993 142.712C329.288 142.769 329.569 142.884 329.82 143.051C330.071 143.217 330.286 143.431 330.454 143.681C330.623 143.931 330.74 144.211 330.799 144.506C331.018 145.748 330.215 146.954 329.011 147.209L328.537 147.283C326.202 147.757 323.83 148.086 321.458 148.342C321.056 148.378 320.692 148.305 320.327 148.159ZM300.987 147.392C300.075 146.99 299.491 145.968 299.673 144.908C299.892 143.666 301.06 142.826 302.301 143.045C304.652 143.483 307.029 143.776 309.416 143.922C310.657 144.032 311.606 145.127 311.533 146.369C311.423 147.648 310.329 148.598 309.088 148.488C306.57 148.305 304.016 148.013 301.534 147.575C301.352 147.538 301.17 147.465 300.987 147.392Z" fill="white"/>
<path d="M285.953 143.009C284.822 142.534 284.275 141.219 284.749 140.05C285.26 138.882 286.574 138.334 287.741 138.808C288.836 139.283 289.931 139.685 291.062 140.087C291.627 140.298 292.088 140.721 292.347 141.267C292.606 141.812 292.642 142.437 292.449 143.009C292.011 144.178 290.697 144.799 289.529 144.397C288.325 143.959 287.158 143.521 285.99 143.046C285.99 143.041 285.989 143.036 285.987 143.032C285.986 143.027 285.983 143.023 285.979 143.02C285.976 143.016 285.972 143.014 285.967 143.012C285.963 143.01 285.958 143.009 285.953 143.009Z" fill="white"/>
<path d="M305.403 106.444C305.206 106.355 305.048 106.201 304.954 106.007C304.861 105.813 304.839 105.593 304.892 105.384C304.892 105.311 304.928 105.275 304.928 105.238C305.111 104.836 305.548 104.617 306.023 104.727C308.179 105.322 310.394 105.677 312.628 105.786C328.683 106.699 342.622 95.3024 345.359 79.8508C345.581 78.5945 345.727 77.3258 345.797 76.0519C346.745 58.7374 333.427 43.8337 316.094 42.884C307.701 42.4091 299.601 45.2583 293.361 50.8472C289.931 53.9521 287.267 57.6415 285.479 61.7692C284.02 65.1298 283.144 68.8192 282.925 72.6182C282.598 78.3096 283.835 83.982 286.501 89.0195C286.61 89.2752 286.61 89.5674 286.501 89.7866C286.428 89.9692 286.282 90.1519 286.099 90.2249C285.662 90.4806 285.114 90.298 284.859 89.8596C282.076 84.5175 280.778 78.5249 281.1 72.5086C281.319 68.4905 282.232 64.6184 283.801 61.0386C285.718 56.6402 288.555 52.7042 292.12 49.4956C298.761 43.578 307.3 40.5462 316.204 41.0576C334.521 42.0438 348.606 57.8241 347.621 76.1614C347.412 80.1036 346.497 83.9762 344.921 87.5949C339.52 100.015 326.822 108.416 312.518 107.612C310.337 107.504 308.173 107.174 306.059 106.626C306.023 106.626 305.95 106.59 305.877 106.59C305.767 106.553 305.658 106.517 305.512 106.48C305.492 106.483 305.472 106.481 305.453 106.474C305.434 106.468 305.417 106.457 305.403 106.444Z" fill="white"/>
<path d="M361.852 422.707L346.49 261.288C309.526 247.626 262.928 262.895 262.928 262.895L255.703 422.707H361.852Z" fill="white"/>
<path fill-rule="evenodd" clip-rule="evenodd" d="M288.617 233.965L287.924 256.868C287.89 257.968 288.208 259.051 288.832 259.958C289.455 260.864 290.352 261.548 291.39 261.909C297.265 263.991 309.38 267.133 320.838 263.005C323.173 262.201 324.56 259.827 324.195 257.38L320.765 233.965H288.617Z" fill="url(#paint1_linear_4503_120794)"/>
<path fill-rule="evenodd" clip-rule="evenodd" d="M204.472 414.745C205.347 419.347 209.361 422.708 214.032 422.708H295.149C299.236 418.653 301.498 415.731 301.498 415.731L296.645 402.033C296.645 402.033 257.309 424.571 244.428 413.32C231.584 402.033 253.295 336.099 253.295 336.099L221.95 279.005C221.95 279.005 195.641 366.783 204.472 414.745Z" fill="url(#paint2_linear_4503_120794)"/>
<path d="M288.216 247.772L306.096 264.941L293.178 273.781L281.757 258.366L288.216 247.772Z" fill="white"/>
<path d="M322.48 247.772L304.563 264.941L317.481 273.781L328.902 258.366L322.48 247.772Z" fill="white"/>
<path fill-rule="evenodd" clip-rule="evenodd" d="M276.94 192.14C276.94 192.14 280.954 233.161 289.785 243.608C289.785 243.608 316.276 246.019 325.946 240.394C325.946 240.394 332.77 219.865 331.967 192.542C331.967 192.542 333.281 167.629 305.84 165.584C304.563 165.474 303.322 165.438 302.155 165.438C273.948 165.438 276.94 192.14 276.94 192.14Z" fill="url(#paint3_linear_4503_120794)"/>
<path fill-rule="evenodd" clip-rule="evenodd" d="M329.157 204.998V217.053C334.777 217.053 339.593 197.766 335.579 197.766C331.566 197.766 329.157 204.998 329.157 204.998Z" fill="url(#paint4_linear_4503_120794)"/>
<path fill-rule="evenodd" clip-rule="evenodd" d="M273.218 200.578C269.241 201.126 276.648 219.609 282.195 218.842L280.589 206.898C280.589 206.898 277.451 200.578 273.693 200.578H273.218Z" fill="url(#paint5_linear_4503_120794)"/>
<path fill-rule="evenodd" clip-rule="evenodd" d="M324.706 228.048C321.604 236.23 319.451 232.76 317.699 229.29C316.714 227.354 315.875 225.454 315.072 225.491H300.622C299.09 225.637 297.411 235.171 291.755 232.358L279.714 213.765C279.714 213.765 280.589 238.276 291.354 250.696C292.339 251.828 293.762 252.485 295.295 252.558C300.768 252.851 314.817 253.326 322.735 251.718C323.71 251.54 324.621 251.104 325.371 250.455C326.122 249.806 326.686 248.969 327.004 248.029C328.938 242.33 332.332 233.308 331.164 212.633L324.706 228.048Z" fill="url(#paint6_linear_4503_120794)"/>
<path fill-rule="evenodd" clip-rule="evenodd" d="M290.588 163.976C265.665 169.602 278.327 203.464 278.327 203.464C300.659 203.537 321.093 182.46 321.093 182.46L332.004 199.774C344.957 158.388 316.276 165.584 316.276 165.584C316.276 165.584 315.875 161.821 306.351 161.821C302.629 161.821 297.557 162.406 290.588 163.976Z" fill="url(#paint7_linear_4503_120794)"/>
<path fill-rule="evenodd" clip-rule="evenodd" d="M372.982 345.742C372.982 345.742 384.841 373.905 373.565 406.891C362.326 439.839 325.581 406.854 325.581 406.854L327.187 422.159C327.187 422.159 327.442 422.342 327.917 422.707H402.502C403.925 423 405.786 418.908 405.786 418.908C437.933 367.44 397.101 282.219 397.101 282.219L372.982 345.742Z" fill="url(#paint8_linear_4503_120794)"/>
<path fill-rule="evenodd" clip-rule="evenodd" d="M301.498 280.1H309.161L314.269 271.589L305.548 265.635L303.468 266.402L296.791 270.968L301.498 280.1Z" fill="url(#paint9_linear_4503_120794)"/>
<path fill-rule="evenodd" clip-rule="evenodd" d="M301.498 280.101L296.28 366.892L309.526 390.855L322.845 367.769L309.161 280.101H301.498Z" fill="url(#paint10_linear_4503_120794)"/>
<path fill-rule="evenodd" clip-rule="evenodd" d="M221.95 279.004L245.45 336.025C251.142 349.87 253.843 364.737 253.441 379.713L252.164 422.708H312.591L309.526 361.449L281.757 258.402C256.068 262.42 221.95 279.004 221.95 279.004Z" fill="url(#paint11_linear_4503_120794)"/>
<path fill-rule="evenodd" clip-rule="evenodd" d="M309.526 422.708H367.946L369.77 387.02C369.77 368.756 372.872 350.601 378.966 333.396L397.101 282.22C373.784 261.289 327.917 256.723 327.917 256.723L309.526 361.45V422.708Z" fill="url(#paint12_linear_4503_120794)"/>
<path fill-rule="evenodd" clip-rule="evenodd" d="M304.417 357.833C304.525 357.836 304.63 357.796 304.709 357.723C304.892 357.54 304.928 357.285 304.782 357.102L280.115 328.646L277.597 313.158C277.579 313.068 277.534 312.986 277.469 312.921C277.405 312.856 277.322 312.812 277.232 312.793L268.146 310.93L266.176 262.859C266.178 262.8 266.168 262.742 266.147 262.688C266.126 262.634 266.094 262.585 266.053 262.544C266.012 262.502 265.962 262.47 265.908 262.449C265.854 262.428 265.796 262.418 265.738 262.42H265.702C265.483 262.42 265.264 262.639 265.3 262.895L267.271 311.332C267.271 311.551 267.417 311.697 267.599 311.77L276.758 313.597L279.239 328.902L279.349 329.121L304.089 357.687C304.162 357.76 304.308 357.833 304.417 357.833Z" fill="url(#paint13_linear_4503_120794)"/>
<path fill-rule="evenodd" clip-rule="evenodd" d="M312.7 357.834H312.737C312.846 357.834 312.956 357.761 313.065 357.687L337.805 328.866C337.842 328.83 337.878 328.72 337.878 328.647L340.396 313.232L349.555 311.369C349.738 311.333 349.884 311.15 349.884 310.931L351.854 262.092C351.89 261.837 351.672 261.618 351.453 261.618H351.416C351.358 261.615 351.3 261.625 351.246 261.646C351.192 261.667 351.143 261.7 351.101 261.741C351.06 261.782 351.028 261.831 351.007 261.885C350.986 261.94 350.976 261.998 350.978 262.056L349.008 310.566L339.922 312.392C339.832 312.411 339.75 312.455 339.685 312.52C339.62 312.585 339.575 312.667 339.557 312.757L337.039 328.392L312.372 357.103C312.226 357.286 312.263 357.541 312.445 357.724C312.514 357.79 312.605 357.829 312.7 357.834Z" fill="url(#paint14_linear_4503_120794)"/>
<path fill-rule="evenodd" clip-rule="evenodd" d="M74.6776 256.101L72.1233 263.955L109.124 265.27L104.709 254.056L74.6776 256.101Z" fill="url(#paint15_linear_4503_120794)"/>
<path fill-rule="evenodd" clip-rule="evenodd" d="M73.656 237.837L79.02 265.27L106.314 262.823L101.023 233.929L73.656 237.837Z" fill="url(#paint16_linear_4503_120794)"/>
<path fill-rule="evenodd" clip-rule="evenodd" d="M65.1538 165.584C64.7524 166.205 64.1686 166.679 63.4388 166.862C61.0305 167.556 55.63 170.004 54.8637 178.295C54.8637 178.295 52.9297 189.948 45.1574 184.104C37.3851 178.295 27.6788 169.529 18.009 178.295C8.30275 187.026 20.8917 192.87 20.8917 192.87C20.8917 192.87 16.0751 190.788 12.791 194.806C11.8787 195.939 10.2732 196.268 8.99605 195.464C7.82838 194.733 6.22283 194.405 4.39834 195.756C2.97524 196.852 -0.527777 206.532 4.39834 222.97C7.35401 232.759 15.8561 260.959 38.6987 264.831C53.5866 267.388 65.5552 258.037 66.5769 257.197C78.3266 247.736 79.7497 234.367 79.9687 231.956C79.0929 229.326 74.9331 216.029 82.0486 204.523C83.6541 201.893 88.3978 195.099 96.3526 193.345C98.0311 192.98 99.8556 193.199 102.41 193.82C102.41 193.82 105.329 205.473 113.101 204.523C113.101 204.523 112.116 201.601 115.035 199.665C117.809 197.802 124.194 188.779 111.897 182.058C110.912 181.51 110.365 180.487 110.365 179.355C110.438 175.775 109.087 167.666 96.608 161.785C90.1493 158.716 84.5664 157.328 79.8957 157.328C73.0721 157.328 68.146 160.323 65.1538 165.584Z" fill="url(#paint17_linear_4503_120794)"/>
<path fill-rule="evenodd" clip-rule="evenodd" d="M47.3833 423H127.624C125.654 409.266 115.035 364.81 115.035 364.81C115.035 364.81 73.291 379.385 56.7977 359.952C56.7977 359.952 52.127 387.275 47.3833 423Z" fill="url(#paint18_linear_4503_120794)"/>
<path fill-rule="evenodd" clip-rule="evenodd" d="M47.6023 423H57.1991L59.3155 415.329C59.3155 415.329 34.32 402.178 37.2757 368.791C40.1219 336.939 51.2878 314.181 51.2878 314.181L35.5607 274C35.5607 274 5.74855 335.879 15.9657 375.549C23.9569 406.489 36.327 418.872 47.6023 423Z" fill="url(#paint19_linear_4503_120794)"/>
<path fill-rule="evenodd" clip-rule="evenodd" d="M68.4377 257.928L75.2613 365.76H96.6078L112.116 257.928C97.5566 264.466 82.9972 264.466 68.4377 257.928Z" fill="url(#paint20_linear_4503_120794)"/>
<path fill-rule="evenodd" clip-rule="evenodd" d="M125.617 305.415C154.444 369.778 113.174 411.968 113.174 411.968L117.59 421.027C117.59 421.027 141.709 417.813 154.846 373.431C167.982 329.049 144.3 269.105 144.3 269.105L125.617 305.415Z" fill="url(#paint21_linear_4503_120794)"/>
<path fill-rule="evenodd" clip-rule="evenodd" d="M38.1515 270.932C35.9986 271.845 34.7579 274.147 35.1228 276.448L41.2896 315.241L52.9298 358.016C52.9298 358.016 33.5173 381.321 29.6493 407.549C29.36 409.457 29.4874 411.405 30.0229 413.259C30.5583 415.113 31.4891 416.829 32.751 418.288C34.0066 419.764 35.5671 420.949 37.3247 421.763C39.0823 422.576 40.9952 422.998 42.9316 423H80.1877C79.7133 408.9 79.3484 398.27 79.1295 393.924C78.1442 373.541 77.232 256.102 77.232 256.102L38.1515 270.932Z" fill="url(#paint22_linear_4503_120794)"/>
<path fill-rule="evenodd" clip-rule="evenodd" d="M90.6965 423H135.214C131.346 402.069 128.281 386.07 127.661 384.243C125.69 378.399 119.888 363.824 119.888 363.824L145.103 268.631L144.154 266.695L104.709 254.056C105.001 273.708 95.9876 322.583 87.8503 368.682L90.6965 423Z" fill="url(#paint23_linear_4503_120794)"/>
<path fill-rule="evenodd" clip-rule="evenodd" d="M50.9958 360.901C50.9958 360.901 73.2911 382.563 121.822 368.353L120.837 359.952C120.837 359.952 65.5553 359.952 51.9446 353.157L50.9958 360.901Z" fill="url(#paint24_linear_4503_120794)"/>
<path fill-rule="evenodd" clip-rule="evenodd" d="M109.197 197.728L106.314 216.175L112.116 217.125C112.116 217.125 122.808 213.253 121.822 204.523C120.837 195.756 115.035 195.756 115.035 195.756L109.197 197.728Z" fill="url(#paint25_linear_4503_120794)"/>
<path fill-rule="evenodd" clip-rule="evenodd" d="M88.8358 179.245C76.2103 182.167 61.6509 200.614 61.6509 215.189C61.6509 215.189 67.4892 244.339 84.9678 248.211C102.41 252.119 108.248 224.906 109.197 222.97C109.197 222.97 113.101 224.906 114.05 221.034C115.035 217.125 119.889 207.408 111.167 207.408C111.167 207.408 113.101 197.728 110.182 192.87C107.591 188.523 102.665 178.807 92.7037 178.807C91.4995 178.807 90.1859 178.953 88.8358 179.245Z" fill="url(#paint26_linear_4503_120794)"/>
<path fill-rule="evenodd" clip-rule="evenodd" d="M65.1537 165.584C64.7523 166.205 64.1684 166.679 63.4386 166.862C61.0303 167.556 55.6298 170.004 54.8635 178.295C54.8635 178.295 53.9878 183.556 51.0686 185.236C58.2571 191.007 61.7601 211.609 61.9061 211.902C64.1319 212.413 72.3421 213.436 82.0484 204.523C93.6887 193.82 94.6374 191.884 102.41 193.82C102.41 193.82 105.329 205.473 113.101 204.523C113.101 204.523 112.116 201.601 115.035 199.665C117.808 197.802 124.194 188.779 111.897 182.058C110.912 181.51 110.364 180.487 110.364 179.355C110.437 175.775 109.087 167.666 96.6078 161.785C90.1492 158.716 84.5662 157.328 79.8955 157.328C73.0719 157.328 68.1458 160.323 65.1537 165.584Z" fill="url(#paint27_linear_4503_120794)"/>
<path fill-rule="evenodd" clip-rule="evenodd" d="M59.7898 211.208H59.7533C59.4101 211.214 59.0682 211.251 58.7316 211.318C53.9149 212.267 59.7533 226.477 64.0956 223.737L63.5847 216.176C63.5847 216.176 63.5847 211.208 59.7898 211.208Z" fill="url(#paint28_linear_4503_120794)"/>
<path fill-rule="evenodd" clip-rule="evenodd" d="M60.5195 262.822C62.6724 279.662 72.999 333.176 78.29 354.984L77.2318 256.101C76.3046 255.781 75.3299 255.62 74.3492 255.626C69.7514 255.626 65.1172 259.06 60.5195 262.822Z" fill="url(#paint29_linear_4503_120794)"/>
<path fill-rule="evenodd" clip-rule="evenodd" d="M104.709 254.056C105.256 268.996 95.6957 329.049 90.2952 354.984C103.103 331.533 119.742 274.001 124.012 260.229C119.523 255.006 114.232 253.654 109.489 253.654C107.81 253.654 106.205 253.837 104.709 254.056Z" fill="url(#paint30_linear_4503_120794)"/>
<path fill-rule="evenodd" clip-rule="evenodd" d="M204.764 290.146C197.903 291.424 191.372 295.223 191.372 295.223L192.649 307.826L195.678 309.615L208.449 312.538L227.789 308.921C227.789 308.921 226.876 300.081 225.088 291.169C223.738 289.159 220.454 288.502 216.915 288.502C211.149 288.502 204.764 290.146 204.764 290.146Z" fill="url(#paint31_linear_4503_120794)"/>
<path fill-rule="evenodd" clip-rule="evenodd" d="M144.191 353.268C142.111 375.039 141.636 403.165 140.906 423H162.071C167.289 378.837 171.157 349.249 171.157 349.249L149.591 314.146C149.591 314.146 146.891 324.921 144.191 353.268Z" fill="url(#paint32_linear_4503_120794)"/>
<path fill-rule="evenodd" clip-rule="evenodd" d="M278.327 423H295.441C295.769 409.704 294.054 399.549 294.054 399.549C293.434 357.358 273.912 302.164 272.744 300.666L256.98 343.697C256.98 343.697 278.582 392.353 278.692 415.475C278.692 417.922 278.546 420.443 278.327 423Z" fill="url(#paint33_linear_4503_120794)"/>
<path fill-rule="evenodd" clip-rule="evenodd" d="M208.559 423H218.958L230.489 301.981C230.489 301.981 225.088 300.629 222.388 291.168C219.688 281.744 218.338 262.822 218.338 262.822L194.072 268.228C194.072 268.228 196.772 293.871 191.372 306.035L208.559 423Z" fill="url(#paint34_linear_4503_120794)"/>
<path fill-rule="evenodd" clip-rule="evenodd" d="M187.321 303.333L149.591 314.145C152.875 329.524 168.675 388.737 174.441 410.215C175.572 414.489 175.243 419.019 173.419 423H218.046C217.717 421.357 217.389 419.749 216.988 418.069C210.274 389.723 191.372 295.224 191.372 295.224L187.321 303.333Z" fill="url(#paint35_linear_4503_120794)"/>
<path fill-rule="evenodd" clip-rule="evenodd" d="M209.507 423H256.141C255.411 418.909 254.937 415.768 254.755 414.051C253.405 400.535 264.133 349.797 264.133 349.797L272.306 300.63C269.715 298.073 266.176 296.721 262.527 296.977L230.489 299.278L225.088 291.169C225.088 291.169 212.864 380.043 209.507 423Z" fill="url(#paint36_linear_4503_120794)"/>
<path fill-rule="evenodd" clip-rule="evenodd" d="M194.072 166.971C187.321 171.026 191.372 176.432 194.072 180.487C196.772 184.542 187.321 188.596 187.321 188.596C172.507 188.596 180.607 206.13 180.607 206.13C180.607 206.13 172.507 198.021 164.406 212.888C156.305 227.755 171.156 238.531 171.156 238.531C171.156 254.749 187.321 250.695 187.321 250.695H225.088C250.704 250.695 239.94 220.997 239.94 220.997C238.59 212.888 233.189 212.888 233.189 212.888C234.539 185.893 216.988 192.651 218.338 185.893C219.688 179.135 219.688 176.432 211.624 175.081C208.084 174.496 206.333 175.702 205.493 176.944C205.128 177.492 204.946 178.04 204.837 178.405C204.873 178.259 204.873 178.04 204.873 177.784C204.873 174.35 201.954 166.095 196.991 166.095C196.079 166.095 195.094 166.35 194.072 166.971Z" fill="url(#paint37_linear_4503_120794)"/>
<path fill-rule="evenodd" clip-rule="evenodd" d="M181.958 226.403C181.958 226.403 180.608 258.804 184.621 264.174C188.672 269.58 194.072 281.744 203.523 283.096C212.974 284.447 227.789 257.453 227.789 256.101C227.789 254.749 226.439 219.646 226.439 219.646C226.439 219.646 216.003 211.171 204.18 211.171C196.517 211.171 188.307 214.714 181.958 226.403Z" fill="url(#paint38_linear_4503_120794)"/>
<path fill-rule="evenodd" clip-rule="evenodd" d="M177.907 239.883C173.857 242.586 183.964 259.827 183.964 259.827L184.621 245.289C184.621 245.289 182.651 239.335 179.549 239.335C179.038 239.335 178.491 239.518 177.907 239.883Z" fill="url(#paint39_linear_4503_120794)"/>
<path fill-rule="evenodd" clip-rule="evenodd" d="M225.088 245.289V256.101C225.088 256.101 238.59 246.64 231.839 239.883C230.379 238.421 229.212 237.837 228.336 237.837C225.161 237.837 225.088 245.07 225.088 245.289Z" fill="url(#paint40_linear_4503_120794)"/>
<path fill-rule="evenodd" clip-rule="evenodd" d="M176.557 220.997C176.557 220.997 171.157 237.179 187.322 231.773L203.523 226.404C203.523 226.404 219.688 216.943 222.388 220.997C225.088 225.052 227.789 235.024 227.789 235.024C227.789 235.024 233.189 220.997 227.789 212.888C225.161 208.943 215.747 205.29 205.384 205.29C194.583 205.29 182.76 209.272 176.557 220.997Z" fill="url(#paint41_linear_4503_120794)"/>
</g>
<defs>
<linearGradient id="paint0_linear_4503_120794" x1="334.362" y1="375.84" x2="82.8294" y2="49.3753" gradientUnits="userSpaceOnUse">
<stop stop-color="#DAE3FE"/>
<stop offset="1" stop-color="#E9EFFD"/>
</linearGradient>
<linearGradient id="paint1_linear_4503_120794" x1="304.924" y1="260.553" x2="306.628" y2="238.39" gradientUnits="userSpaceOnUse">
<stop stop-color="#FEBBBA"/>
<stop offset="1" stop-color="#FF928E"/>
</linearGradient>
<linearGradient id="paint2_linear_4503_120794" x1="196.334" y1="284.322" x2="337.759" y2="364.245" gradientUnits="userSpaceOnUse">
<stop stop-color="#09005D"/>
<stop offset="1" stop-color="#1A0F91"/>
</linearGradient>
<linearGradient id="paint3_linear_4503_120794" x1="288.161" y1="248.371" x2="341.991" y2="177.353" gradientUnits="userSpaceOnUse">
<stop stop-color="#FEBBBA"/>
<stop offset="1" stop-color="#FF928E"/>
</linearGradient>
<linearGradient id="paint4_linear_4503_120794" x1="333.733" y1="217.265" x2="327.001" y2="199.643" gradientUnits="userSpaceOnUse">
<stop stop-color="#FEBBBA"/>
<stop offset="1" stop-color="#FF928E"/>
</linearGradient>
<linearGradient id="paint5_linear_4503_120794" x1="277.628" y1="219.103" x2="274.575" y2="200.671" gradientUnits="userSpaceOnUse">
<stop stop-color="#FEBBBA"/>
<stop offset="1" stop-color="#FF928E"/>
</linearGradient>
<linearGradient id="paint6_linear_4503_120794" x1="295.272" y1="206.519" x2="308.13" y2="260.787" gradientUnits="userSpaceOnUse">
<stop stop-color="#09005D"/>
<stop offset="1" stop-color="#1A0F91"/>
</linearGradient>
<linearGradient id="paint7_linear_4503_120794" x1="297.404" y1="155.408" x2="305.039" y2="211.021" gradientUnits="userSpaceOnUse">
<stop stop-color="#09005D"/>
<stop offset="1" stop-color="#1A0F91"/>
</linearGradient>
<linearGradient id="paint8_linear_4503_120794" x1="425.713" y1="302.311" x2="298.265" y2="353.802" gradientUnits="userSpaceOnUse">
<stop stop-color="#09005D"/>
<stop offset="1" stop-color="#1A0F91"/>
</linearGradient>
<linearGradient id="paint9_linear_4503_120794" x1="305.408" y1="267.935" x2="305.575" y2="277.801" gradientUnits="userSpaceOnUse">
<stop stop-color="#4F52FF"/>
<stop offset="1" stop-color="#4042E2"/>
</linearGradient>
<linearGradient id="paint10_linear_4503_120794" x1="304.967" y1="300.701" x2="338.149" y2="315.146" gradientUnits="userSpaceOnUse">
<stop stop-color="#4F52FF"/>
<stop offset="1" stop-color="#4042E2"/>
</linearGradient>
<linearGradient id="paint11_linear_4503_120794" x1="336.067" y1="290.935" x2="184.017" y2="324.31" gradientUnits="userSpaceOnUse">
<stop stop-color="#09005D"/>
<stop offset="1" stop-color="#1A0F91"/>
</linearGradient>
<linearGradient id="paint12_linear_4503_120794" x1="417.594" y1="295.397" x2="277.113" y2="322.34" gradientUnits="userSpaceOnUse">
<stop stop-color="#09005D"/>
<stop offset="1" stop-color="#1A0F91"/>
</linearGradient>
<linearGradient id="paint13_linear_4503_120794" x1="315.241" y1="300.108" x2="253.982" y2="303.609" gradientUnits="userSpaceOnUse">
<stop stop-color="#4F52FF"/>
<stop offset="1" stop-color="#4042E2"/>
</linearGradient>
<linearGradient id="paint14_linear_4503_120794" x1="351.344" y1="303.375" x2="312.21" y2="305.557" gradientUnits="userSpaceOnUse">
<stop stop-color="#4F52FF"/>
<stop offset="1" stop-color="#4042E2"/>
</linearGradient>
<linearGradient id="paint15_linear_4503_120794" x1="91.1416" y1="252.766" x2="91.0498" y2="266.577" gradientUnits="userSpaceOnUse">
<stop stop-color="#CB236D"/>
<stop offset="1" stop-color="#4C246D"/>
</linearGradient>
<linearGradient id="paint16_linear_4503_120794" x1="93.5449" y1="233.427" x2="86.9658" y2="265.912" gradientUnits="userSpaceOnUse">
<stop stop-color="#FEBBBA"/>
<stop offset="1" stop-color="#FF928E"/>
</linearGradient>
<linearGradient id="paint17_linear_4503_120794" x1="28.8415" y1="148.693" x2="83.9795" y2="277.428" gradientUnits="userSpaceOnUse">
<stop stop-color="#09005D"/>
<stop offset="1" stop-color="#1A0F91"/>
</linearGradient>
<linearGradient id="paint18_linear_4503_120794" x1="98.6573" y1="361.276" x2="84.4636" y2="423.526" gradientUnits="userSpaceOnUse">
<stop stop-color="#4F52FF"/>
<stop offset="1" stop-color="#4042E2"/>
</linearGradient>
<linearGradient id="paint19_linear_4503_120794" x1="-1.94943" y1="308.568" x2="82.0282" y2="316.679" gradientUnits="userSpaceOnUse">
<stop stop-color="#FEBBBA"/>
<stop offset="1" stop-color="#FF928E"/>
</linearGradient>
<linearGradient id="paint20_linear_4503_120794" x1="129.456" y1="278.092" x2="43.2781" y2="290.273" gradientUnits="userSpaceOnUse">
<stop stop-color="#4F52FF"/>
<stop offset="1" stop-color="#4042E2"/>
</linearGradient>
<linearGradient id="paint21_linear_4503_120794" x1="147.131" y1="278.373" x2="74.0977" y2="317.847" gradientUnits="userSpaceOnUse">
<stop stop-color="#FEBBBA"/>
<stop offset="1" stop-color="#FF928E"/>
</linearGradient>
<linearGradient id="paint22_linear_4503_120794" x1="7.75255" y1="300.997" x2="107.167" y2="308.489" gradientUnits="userSpaceOnUse">
<stop stop-color="#09005D"/>
<stop offset="1" stop-color="#1A0F91"/>
</linearGradient>
<linearGradient id="paint23_linear_4503_120794" x1="61.0562" y1="288.351" x2="181.034" y2="300.826" gradientUnits="userSpaceOnUse">
<stop stop-color="#09005D"/>
<stop offset="1" stop-color="#1A0F91"/>
</linearGradient>
<linearGradient id="paint24_linear_4503_120794" x1="88.109" y1="349.112" x2="87.8369" y2="377.24" gradientUnits="userSpaceOnUse">
<stop stop-color="#09005D"/>
<stop offset="1" stop-color="#1A0F91"/>
</linearGradient>
<linearGradient id="paint25_linear_4503_120794" x1="106.205" y1="195.841" x2="126.687" y2="210.472" gradientUnits="userSpaceOnUse">
<stop stop-color="#09005D"/>
<stop offset="1" stop-color="#1A0F91"/>
</linearGradient>
<linearGradient id="paint26_linear_4503_120794" x1="85.9081" y1="249.92" x2="95.8203" y2="178.004" gradientUnits="userSpaceOnUse">
<stop stop-color="#FEBBBA"/>
<stop offset="1" stop-color="#FF928E"/>
</linearGradient>
<linearGradient id="paint27_linear_4503_120794" x1="69.4587" y1="149.204" x2="90.6405" y2="223.25" gradientUnits="userSpaceOnUse">
<stop stop-color="#09005D"/>
<stop offset="1" stop-color="#1A0F91"/>
</linearGradient>
<linearGradient id="paint28_linear_4503_120794" x1="59.841" y1="224.384" x2="63.9049" y2="211.788" gradientUnits="userSpaceOnUse">
<stop stop-color="#FEBBBA"/>
<stop offset="1" stop-color="#FF928E"/>
</linearGradient>
<linearGradient id="paint29_linear_4503_120794" x1="86.0025" y1="300.834" x2="52.7325" y2="301.12" gradientUnits="userSpaceOnUse">
<stop stop-color="#09005D"/>
<stop offset="1" stop-color="#1A0F91"/>
</linearGradient>
<linearGradient id="paint30_linear_4503_120794" x1="132.137" y1="291.754" x2="80.929" y2="294.606" gradientUnits="userSpaceOnUse">
<stop stop-color="#09005D"/>
<stop offset="1" stop-color="#1A0F91"/>
</linearGradient>
<linearGradient id="paint31_linear_4503_120794" x1="212.275" y1="295.785" x2="209.771" y2="305.979" gradientUnits="userSpaceOnUse">
<stop stop-color="#E1473D"/>
<stop offset="1" stop-color="#E9605A"/>
</linearGradient>
<linearGradient id="paint32_linear_4503_120794" x1="171.762" y1="363.675" x2="140.089" y2="364.428" gradientUnits="userSpaceOnUse">
<stop stop-color="#FF928E"/>
<stop offset="1" stop-color="#FE7062"/>
</linearGradient>
<linearGradient id="paint33_linear_4503_120794" x1="306.687" y1="351.068" x2="245.098" y2="353.224" gradientUnits="userSpaceOnUse">
<stop stop-color="#FF928E"/>
<stop offset="1" stop-color="#FE7062"/>
</linearGradient>
<linearGradient id="paint34_linear_4503_120794" x1="188.008" y1="380.393" x2="240.662" y2="375.258" gradientUnits="userSpaceOnUse">
<stop stop-color="#FEBBBA"/>
<stop offset="1" stop-color="#FF928E"/>
</linearGradient>
<linearGradient id="paint35_linear_4503_120794" x1="226.26" y1="330.107" x2="133.564" y2="348.289" gradientUnits="userSpaceOnUse">
<stop stop-color="#FF928E"/>
<stop offset="1" stop-color="#FE7062"/>
</linearGradient>
<linearGradient id="paint36_linear_4503_120794" x1="286.624" y1="344.824" x2="194.04" y2="350.458" gradientUnits="userSpaceOnUse">
<stop stop-color="#FF928E"/>
<stop offset="1" stop-color="#FE7062"/>
</linearGradient>
<linearGradient id="paint37_linear_4503_120794" x1="173.216" y1="159.461" x2="235.971" y2="254.467" gradientUnits="userSpaceOnUse">
<stop stop-color="#09005D"/>
<stop offset="1" stop-color="#1A0F91"/>
</linearGradient>
<linearGradient id="paint38_linear_4503_120794" x1="195.14" y1="267.022" x2="225.957" y2="240.985" gradientUnits="userSpaceOnUse">
<stop stop-color="#FEBBBA"/>
<stop offset="1" stop-color="#FF928E"/>
</linearGradient>
<linearGradient id="paint39_linear_4503_120794" x1="176.942" y1="256.057" x2="187.133" y2="253.649" gradientUnits="userSpaceOnUse">
<stop stop-color="#FEBBBA"/>
<stop offset="1" stop-color="#FF928E"/>
</linearGradient>
<linearGradient id="paint40_linear_4503_120794" x1="225.486" y1="256.247" x2="239.296" y2="248.929" gradientUnits="userSpaceOnUse">
<stop stop-color="#FEBBBA"/>
<stop offset="1" stop-color="#FF928E"/>
</linearGradient>
<linearGradient id="paint41_linear_4503_120794" x1="196.019" y1="198.719" x2="200.211" y2="242.485" gradientUnits="userSpaceOnUse">
<stop stop-color="#09005D"/>
<stop offset="1" stop-color="#1A0F91"/>
</linearGradient>
<clipPath id="clip0_4503_120794">
<rect width="419" height="423" fill="white"/>
</clipPath>
</defs>
</svg>
