<svg width="833" height="968" viewBox="0 0 833 968" fill="none" xmlns="http://www.w3.org/2000/svg">
<g opacity="0.6" clip-path="url(#clip0_4524_50022)">
<path d="M-174.953 356.268C-113.577 285.78 7.62876 376.969 183.25 337.061C335.359 302.478 344.11 210.621 465.642 215.177C554.431 218.487 651.183 269.755 704.356 359.072C762.996 457.551 741.68 557.809 735.696 582.139C708.983 691.263 629.698 748.826 601.728 768.487C486.488 849.439 357.173 835.253 295.135 828.479C62.0998 802.956 -187.386 636.583 -198.495 455.701C-199.971 432.02 -202.658 388.098 -174.953 356.268Z" fill="url(#paint0_linear_4524_50022)"/>
</g>
<defs>
<linearGradient id="paint0_linear_4524_50022" x1="409.823" y1="69.8263" x2="175.583" y2="775.635" gradientUnits="userSpaceOnUse">
<stop stop-color="#F3F7FF"/>
<stop offset="1" stop-color="#DEEEFE"/>
</linearGradient>
<clipPath id="clip0_4524_50022">
<rect width="937.962" height="671.376" fill="white" transform="translate(-40.4224) rotate(21.4558)"/>
</clipPath>
</defs>
</svg>
