<svg width="582" height="582" viewBox="0 0 582 582" fill="none" xmlns="http://www.w3.org/2000/svg">
<path d="M508.598 488.764H75.6593C75.6593 488.764 61.9125 465.6 52.3793 419.04C42.8462 372.48 88.2771 389.475 99.8938 349.34C111.511 309.205 60.83 317.667 65.0553 262.75C69.2806 207.832 138.969 206.785 172.76 214.176C206.551 221.568 202.326 196.227 241.436 153.986C280.547 111.744 339.643 115.969 369.208 148.713C398.774 181.456 389.264 215.235 426.244 215.235C463.225 215.235 497.027 222.662 519.143 293.41C541.259 364.158 500.787 396.493 501.52 428.434C502.126 448.711 504.494 468.897 508.598 488.764Z" fill="#395987"/>
<path opacity="0.7" d="M508.598 488.764H75.6593C75.6593 488.764 61.9125 465.6 52.3793 419.04C42.8462 372.48 88.2771 389.475 99.8938 349.34C111.511 309.205 60.83 317.667 65.0553 262.75C69.2806 207.832 138.969 206.785 172.76 214.176C206.551 221.568 202.326 196.227 241.436 153.986C280.547 111.744 339.643 115.969 369.208 148.713C398.774 181.456 389.264 215.235 426.244 215.235C463.225 215.235 497.027 222.662 519.143 293.41C541.259 364.158 500.787 396.493 501.52 428.434C502.126 448.711 504.494 468.897 508.598 488.764Z" fill="white"/>
<path d="M250.736 488.764C240.132 472.619 194.864 404.734 181.618 402.919C168.709 401.149 122.836 469.79 110.428 488.764H250.736Z" fill="#2E353A" stroke="#2E353A" stroke-linecap="round" stroke-linejoin="round"/>
<path d="M308.785 92.1072V248.654" stroke="#2E353A" stroke-width="3" stroke-linecap="round" stroke-linejoin="round"/>
<path d="M327.385 96.3093V248.654" stroke="#2E353A" stroke-width="3" stroke-linecap="round" stroke-linejoin="round"/>
<path d="M347.779 179.675V327.235" stroke="#2E353A" stroke-width="3" stroke-linecap="round" stroke-linejoin="round"/>
<path d="M369.371 96.3093V327.235" stroke="#2E353A" stroke-width="3" stroke-linecap="round" stroke-linejoin="round"/>
<path d="M390.963 96.3093V252.856" stroke="#2E353A" stroke-width="3" stroke-linecap="round" stroke-linejoin="round"/>
<path d="M292.594 113.094H391.569" stroke="#2E353A" stroke-width="3" stroke-linecap="round" stroke-linejoin="round"/>
<path d="M292.594 147.886H399.926" stroke="#2E353A" stroke-width="3" stroke-linecap="round" stroke-linejoin="round"/>
<path d="M290.801 179.675H410.157" stroke="#2E353A" stroke-width="3" stroke-linecap="round" stroke-linejoin="round"/>
<path d="M288.996 215.072H410.157" stroke="#2E353A" stroke-width="3" stroke-linecap="round" stroke-linejoin="round"/>
<path d="M311.789 253.449H403.559" stroke="#2E353A" stroke-width="3" stroke-linecap="round" stroke-linejoin="round"/>
<path d="M335.777 290.639H395.758" stroke="#2E353A" stroke-width="3" stroke-linecap="round" stroke-linejoin="round"/>
<path d="M177.869 106.972L199.042 123.547" stroke="#2E353A" stroke-width="2" stroke-linecap="round" stroke-linejoin="round"/>
<path d="M220.217 89.4883L227.585 100.535" stroke="#2E353A" stroke-width="2" stroke-linecap="round" stroke-linejoin="round"/>
<path d="M257.965 62.7861L264.413 83.0397" stroke="#2E353A" stroke-width="2" stroke-linecap="round" stroke-linejoin="round"/>
<path d="M378.764 323.056H343.844V240.028H296.47V92.9802C276.503 93.1774 256.924 98.5072 239.613 108.458C222.302 118.408 207.841 132.644 197.621 149.797C187.401 166.951 181.766 186.445 181.257 206.405C180.747 226.366 185.381 246.122 194.713 263.774C198.507 272.609 207.424 294.247 216.351 322.23C224.604 348.059 228.911 374.028 228.911 377.951C228.911 378.335 228.911 378.731 228.911 379.115C228.87 380.282 229.065 381.446 229.484 382.537C229.902 383.628 230.536 384.623 231.348 385.464C232.159 386.304 233.131 386.973 234.206 387.43C235.282 387.887 236.438 388.123 237.606 388.124H357.789C358.957 388.122 360.112 387.884 361.187 387.427C362.261 386.969 363.233 386.3 364.044 385.46C364.855 384.62 365.489 383.625 365.908 382.535C366.327 381.445 366.523 380.282 366.484 379.115C366.484 378.696 366.484 378.3 366.484 377.951C366.461 374.075 370.686 348.606 378.764 323.056Z" fill="#395987" stroke="#2E353A" stroke-width="2" stroke-linecap="round" stroke-linejoin="round"/>
<path d="M257.021 111.744C260.39 110.225 263.845 108.908 267.369 107.798" stroke="#2E353A" stroke-width="2" stroke-linecap="round" stroke-linejoin="round"/>
<path d="M218.26 141.24C218.26 141.24 227.746 126.108 248.594 115.923" stroke="#2E353A" stroke-width="2" stroke-linecap="round" stroke-linejoin="round"/>
<path d="M220.752 308.763C225.07 322.87 230.786 342.414 232.764 353.332C236.117 371.747 233.928 381.268 241.145 382.909" stroke="#2E353A" stroke-width="2" stroke-linecap="round" stroke-linejoin="round"/>
<path d="M215.467 291.931C215.467 291.931 216.631 295.714 218.505 301.511" stroke="#2E353A" stroke-width="2" stroke-linecap="round" stroke-linejoin="round"/>
<path d="M290.325 386.995V275.717C290.325 275.717 294.981 246.617 279.849 246.617C264.717 246.617 265.881 261.749 283.341 278.045C300.801 294.341 327.573 279.209 331.065 266.405C334.557 253.601 325.245 247.781 319.425 258.257C313.605 268.733 319.425 387.461 319.425 387.461" stroke="#2E353A" stroke-width="2" stroke-linecap="round" stroke-linejoin="round"/>
<path d="M360.828 387.449H235.221V416.596H360.828V387.449Z" fill="white" stroke="#2E353A" stroke-width="2" stroke-linecap="round" stroke-linejoin="round"/>
<path d="M360.828 423.533H235.221V452.68H360.828V423.533Z" fill="white" stroke="#2E353A" stroke-width="2" stroke-linecap="round" stroke-linejoin="round"/>
<path d="M360.828 416.595H235.221V423.533H360.828V416.595Z" fill="#2E353A" stroke="#2E353A" stroke-linecap="round" stroke-linejoin="round"/>
<path d="M360.828 459.617H235.221V488.764H360.828V459.617Z" fill="white" stroke="#2E353A" stroke-width="2" stroke-linecap="round" stroke-linejoin="round"/>
<path d="M347.686 412.696H357.021" stroke="#2E353A" stroke-linecap="round" stroke-linejoin="round"/>
<path d="M240.156 412.696H343.194" stroke="#2E353A" stroke-linecap="round" stroke-linejoin="round"/>
<path d="M323.475 449.351H353.564" stroke="#2E353A" stroke-linecap="round" stroke-linejoin="round"/>
<path d="M258.803 449.351H320.017" stroke="#2E353A" stroke-linecap="round" stroke-linejoin="round"/>
<path d="M248.781 449.351H253.961" stroke="#2E353A" stroke-linecap="round" stroke-linejoin="round"/>
<path d="M360.828 452.68H235.221V459.617H360.828V452.68Z" fill="#2E353A" stroke="#2E353A" stroke-linecap="round" stroke-linejoin="round"/>
<path d="M294.572 466.007H251.574V488.391H294.572V466.007Z" fill="#395987" stroke="#2E353A" stroke-linecap="round" stroke-linejoin="round"/>
<path d="M350.526 466.007H307.527V488.391H350.526V466.007Z" fill="#395987" stroke="#2E353A" stroke-linecap="round" stroke-linejoin="round"/>
<path d="M389.208 488.764C380.967 481.535 345.779 451.143 335.536 450.352C325.502 449.548 289.884 480.29 280.246 488.764H389.208Z" fill="#2E353A" stroke="#2E353A" stroke-linecap="round" stroke-linejoin="round"/>
<path d="M525.057 488.764H535.16" stroke="#2E353A" stroke-linecap="round" stroke-linejoin="round"/>
<path d="M62.5547 488.764H514.955" stroke="#2E353A" stroke-linecap="round" stroke-linejoin="round"/>
<path d="M46.8398 488.764H54.6968" stroke="#2E353A" stroke-linecap="round" stroke-linejoin="round"/>
<path d="M504.723 422.334H474.518V464.704H487.031H504.723H517.248V443.519L504.723 422.334Z" fill="#2E353A" stroke="#2E353A" stroke-linecap="round" stroke-linejoin="round"/>
<path d="M517.248 464.704H503.408V474.33H517.248V464.704Z" fill="white" stroke="#2E353A" stroke-linecap="round" stroke-linejoin="round"/>
<path d="M452.063 464.227C452.063 464.227 467.195 456.079 461.957 415.339L442.751 404.863L409.577 399.625L379.895 400.789V417.667C379.895 417.667 396.773 432.217 398.519 436.873C399.614 440.059 400.203 443.398 400.265 446.767V463.063L452.063 464.227Z" fill="#395987" stroke="#2E353A" stroke-linecap="round" stroke-linejoin="round"/>
<path d="M461.957 415.339L452.062 464.227" stroke="#2E353A" stroke-linecap="round" stroke-linejoin="round"/>
<path d="M442.751 404.863L431.693 464.227" stroke="#2E353A" stroke-linecap="round" stroke-linejoin="round"/>
<path d="M409.578 399.625L401.43 443.857" stroke="#2E353A" stroke-linecap="round" stroke-linejoin="round"/>
<path d="M381.059 415.339C381.059 415.339 400.265 423.487 407.831 428.725C415.397 433.963 414.233 445.021 414.233 445.021" stroke="#2E353A" stroke-linecap="round" stroke-linejoin="round"/>
<path d="M474.784 465.006H384.539V472.572H474.784V465.006Z" fill="white" stroke="#2E353A" stroke-linecap="round" stroke-linejoin="round"/>
<path d="M492.803 445.603H511.648L501.533 428.143H492.803V445.603Z" fill="white" stroke="#2E353A" stroke-linecap="round" stroke-linejoin="round"/>
<path d="M489.894 428.143H481.746V445.603H489.894V428.143Z" fill="white" stroke="#2E353A" stroke-linecap="round" stroke-linejoin="round"/>
<path d="M439.958 464.704H385.018V477.822H439.958V464.704Z" fill="white" stroke="#2E353A" stroke-linecap="round" stroke-linejoin="round"/>
<path d="M492.005 488.551C498.287 487.416 502.46 481.404 501.325 475.122C500.19 468.84 494.178 464.668 487.896 465.802C481.614 466.937 477.441 472.95 478.576 479.232C479.711 485.514 485.724 489.686 492.005 488.551Z" fill="#2E353A" stroke="#2E353A" stroke-linecap="round" stroke-linejoin="round"/>
<path d="M489.929 483.956C493.651 483.956 496.669 480.939 496.669 477.217C496.669 473.495 493.651 470.477 489.929 470.477C486.207 470.477 483.189 473.495 483.189 477.217C483.189 480.939 486.207 483.956 489.929 483.956Z" fill="white" stroke="#2E353A" stroke-linecap="round" stroke-linejoin="round"/>
<path d="M402.921 488.576C409.207 487.463 413.401 481.465 412.288 475.179C411.175 468.893 405.177 464.7 398.891 465.813C392.605 466.925 388.412 472.923 389.525 479.209C390.638 485.495 396.636 489.689 402.921 488.576Z" fill="#2E353A" stroke="#2E353A" stroke-linecap="round" stroke-linejoin="round"/>
<path d="M400.882 483.956C404.604 483.956 407.622 480.939 407.622 477.217C407.622 473.495 404.604 470.477 400.882 470.477C397.16 470.477 394.143 473.495 394.143 477.217C394.143 480.939 397.16 483.956 400.882 483.956Z" fill="white" stroke="#2E353A" stroke-linecap="round" stroke-linejoin="round"/>
<path d="M436.606 485.681C441.308 481.363 441.62 474.051 437.302 469.349C432.984 464.647 425.673 464.336 420.971 468.653C416.269 472.971 415.957 480.283 420.275 484.985C424.592 489.687 431.904 489.998 436.606 485.681Z" fill="#2E353A" stroke="#2E353A" stroke-linecap="round" stroke-linejoin="round"/>
<path d="M428.783 483.956C432.505 483.956 435.522 480.939 435.522 477.217C435.522 473.495 432.505 470.477 428.783 470.477C425.06 470.477 422.043 473.495 422.043 477.217C422.043 480.939 425.06 483.956 428.783 483.956Z" fill="white" stroke="#2E353A" stroke-linecap="round" stroke-linejoin="round"/>
<path d="M425 444.438H395.9C393.811 444.438 392.117 446.132 392.117 448.221V460.443C392.117 462.533 393.811 464.226 395.9 464.226H425C427.089 464.226 428.783 462.533 428.783 460.443V448.221C428.783 446.132 427.089 444.438 425 444.438Z" fill="#2E353A" stroke="#2E353A" stroke-linecap="round" stroke-linejoin="round"/>
<path d="M377.566 464.227V406.667H389.206V464.227" stroke="#2E353A" stroke-linecap="round" stroke-linejoin="round"/>
<path d="M377.648 414.291H389.079" stroke="#2E353A" stroke-linecap="round" stroke-linejoin="round"/>
<path d="M377.648 423.277H389.079" stroke="#2E353A" stroke-linecap="round" stroke-linejoin="round"/>
<path d="M377.648 432.263H389.079" stroke="#2E353A" stroke-linecap="round" stroke-linejoin="round"/>
<path d="M377.648 441.261H389.079" stroke="#2E353A" stroke-linecap="round" stroke-linejoin="round"/>
<path d="M377.648 450.247H389.079" stroke="#2E353A" stroke-linecap="round" stroke-linejoin="round"/>
<path d="M377.648 459.233H389.079" stroke="#2E353A" stroke-linecap="round" stroke-linejoin="round"/>
<path d="M144.755 489.893H123.803V124.397L144.755 148.759V489.893Z" stroke="#2E353A" stroke-linecap="round" stroke-linejoin="round"/>
<path d="M124.014 413.069H144.558L124.014 393.199H144.558L124.014 413.069Z" stroke="#2E353A" stroke-linecap="round" stroke-linejoin="round"/>
<path d="M124.014 392.699H144.558L124.014 372.829H144.558L124.014 392.699Z" stroke="#2E353A" stroke-linecap="round" stroke-linejoin="round"/>
<path d="M124.014 372.329H144.558L124.014 352.459H144.558L124.014 372.329Z" stroke="#2E353A" stroke-linecap="round" stroke-linejoin="round"/>
<path d="M124.014 351.959H144.558L124.014 332.089H144.558L124.014 351.959Z" stroke="#2E353A" stroke-linecap="round" stroke-linejoin="round"/>
<path d="M124.014 331.589H144.558L124.014 311.719H144.558L124.014 331.589Z" stroke="#2E353A" stroke-linecap="round" stroke-linejoin="round"/>
<path d="M124.014 311.219H144.558L124.014 291.349H144.558L124.014 311.219Z" stroke="#2E353A" stroke-linecap="round" stroke-linejoin="round"/>
<path d="M124.014 290.849H144.558L124.014 270.979H144.558L124.014 290.849Z" stroke="#2E353A" stroke-linecap="round" stroke-linejoin="round"/>
<path d="M124.014 270.479H144.558L124.014 250.609H144.558L124.014 270.479Z" stroke="#2E353A" stroke-linecap="round" stroke-linejoin="round"/>
<path d="M124.014 250.109H144.558L124.014 230.239H144.558L124.014 250.109Z" stroke="#2E353A" stroke-linecap="round" stroke-linejoin="round"/>
<path d="M124.014 229.739H144.558L124.014 209.869H144.558L124.014 229.739Z" stroke="#2E353A" stroke-linecap="round" stroke-linejoin="round"/>
<path d="M124.014 209.369H144.558L124.014 189.499H144.558L124.014 209.369Z" stroke="#2E353A" stroke-linecap="round" stroke-linejoin="round"/>
<path d="M124.014 188.999H144.558L124.014 169.129H144.558L124.014 188.999Z" stroke="#2E353A" stroke-linecap="round" stroke-linejoin="round"/>
<path d="M124.014 168.629H144.558L124.014 148.759H144.558L124.014 168.629Z" stroke="#2E353A" stroke-linecap="round" stroke-linejoin="round"/>
<path d="M242.032 169.176L231.882 162.785H159.446L150.6 169.176H242.032Z" stroke="#2E353A" stroke-linecap="round" stroke-linejoin="round"/>
<path d="M243.707 168.629H66.7793V173.285H243.707V168.629Z" fill="#2E353A" stroke="#2E353A" stroke-linecap="round" stroke-linejoin="round"/>
<path d="M231.88 162.785L123.803 124.397L159.444 162.785" stroke="#2E353A" stroke-linecap="round" stroke-linejoin="round"/>
<path d="M123.815 124.397L66.7793 168.629" stroke="#2E353A" stroke-linecap="round" stroke-linejoin="round"/>
<path d="M159.9 178.523H116.25V206.459H159.9V178.523Z" fill="#2E353A" stroke="#2E353A" stroke-linecap="round" stroke-linejoin="round"/>
<path d="M150.797 184.343H125.34V192.491H150.797V184.343Z" fill="white" stroke="#2E353A" stroke-linecap="round" stroke-linejoin="round"/>
<path d="M243.707 173.285V223.476" stroke="#2E353A" stroke-linecap="round" stroke-linejoin="round"/>
<path d="M250.342 240.622H237.41V255.277H250.342V240.622Z" fill="#2E353A" stroke="#2E353A" stroke-linecap="round" stroke-linejoin="round"/>
<path d="M237.41 240.622L243.882 222.522L250.354 240.622" stroke="#2E353A" stroke-linecap="round" stroke-linejoin="round"/>
<path d="M208.823 417.469L236.759 461.631L243.743 456.521L223.187 415.408C222.263 413.56 220.842 412.006 219.084 410.921C217.326 409.835 215.301 409.261 213.235 409.262C212.286 409.28 211.359 409.55 210.55 410.044C209.74 410.538 209.076 411.239 208.627 412.074C208.178 412.91 207.959 413.85 207.994 414.798C208.028 415.746 208.314 416.668 208.823 417.469Z" fill="#395987" stroke="#2E353A" stroke-linecap="round" stroke-linejoin="round"/>
<path d="M241.286 450.771L212.547 471.211C212.547 471.211 215.108 482.059 231.706 481.419C248.305 480.779 247.676 463.54 247.676 463.54L241.286 450.771Z" fill="#2E353A" stroke="white" stroke-linecap="round" stroke-linejoin="round"/>
<path d="M161.459 437.361L213.513 413.907C215.23 413.134 217.159 412.973 218.981 413.45C220.802 413.926 222.405 415.012 223.523 416.526C224.177 417.41 224.647 418.416 224.905 419.485C225.163 420.554 225.204 421.664 225.026 422.749C224.848 423.834 224.455 424.872 223.869 425.803C223.283 426.733 222.516 427.537 221.614 428.166L164.66 468.033L161.459 437.361Z" fill="#395987" stroke="#2E353A" stroke-linecap="round" stroke-linejoin="round"/>
<path d="M153.799 466.101H100.15V474.4H153.799V466.101Z" fill="white" stroke="#2E353A" stroke-linecap="round" stroke-linejoin="round"/>
<path d="M127.61 442.471H80.9922V461.631H127.61V442.471Z" fill="#2E353A" stroke="#2E353A" stroke-linecap="round" stroke-linejoin="round"/>
<path d="M121.545 420.751H161.121C162.047 420.751 162.935 421.119 163.59 421.774C164.245 422.429 164.613 423.317 164.613 424.243V461.607H118.041V424.243C118.041 423.783 118.132 423.328 118.308 422.904C118.484 422.48 118.742 422.094 119.068 421.77C119.393 421.445 119.78 421.188 120.205 421.013C120.63 420.839 121.085 420.749 121.545 420.751Z" fill="#395987" stroke="#2E353A" stroke-linecap="round" stroke-linejoin="round"/>
<path d="M80.5147 488.764H156.838C159.249 488.764 161.561 487.806 163.266 486.101C164.971 484.396 165.929 482.084 165.929 479.673C165.929 477.261 164.972 474.947 163.267 473.241C161.563 471.534 159.25 470.573 156.838 470.57H80.5147C78.1026 470.573 75.7903 471.534 74.0858 473.241C72.3812 474.947 71.4238 477.261 71.4238 479.673C71.4238 482.084 72.3816 484.396 74.0865 486.101C75.7913 487.806 78.1036 488.764 80.5147 488.764Z" fill="#2E353A" stroke="#2E353A" stroke-linecap="round" stroke-linejoin="round"/>
<path d="M92.0146 488.764H168.326C170.739 488.764 173.052 487.806 174.759 486.102C176.465 484.397 177.426 482.085 177.429 479.673C177.429 477.259 176.47 474.943 174.763 473.236C173.056 471.529 170.741 470.57 168.326 470.57H92.0146C89.6005 470.57 87.2852 471.529 85.5782 473.236C83.8711 474.943 82.9121 477.259 82.9121 479.673C82.9152 482.085 83.8756 484.397 85.5823 486.102C87.289 487.806 89.6025 488.764 92.0146 488.764Z" fill="white" stroke="#2E353A" stroke-linecap="round" stroke-linejoin="round"/>
<path d="M164.649 461.631H80.9922V468.021H164.649V461.631Z" fill="white" stroke="#2E353A" stroke-linecap="round" stroke-linejoin="round"/>
<path d="M98.2425 479.673C98.2425 480.81 97.9053 481.922 97.2734 482.867C96.6416 483.813 95.7435 484.55 94.6928 484.985C93.6421 485.42 92.486 485.534 91.3705 485.312C90.2551 485.091 89.2306 484.543 88.4264 483.739C87.6222 482.935 87.0745 481.91 86.8527 480.795C86.6308 479.679 86.7447 478.523 87.1799 477.472C87.6151 476.422 88.3521 475.524 89.2977 474.892C90.2433 474.26 91.3551 473.923 92.4923 473.923C94.0174 473.923 95.48 474.528 96.5583 475.607C97.6367 476.685 98.2425 478.148 98.2425 479.673Z" fill="#2E353A" stroke="#2E353A" stroke-linecap="round" stroke-linejoin="round"/>
<path d="M107.822 485.423C110.998 485.423 113.573 482.848 113.573 479.673C113.573 476.497 110.998 473.923 107.822 473.923C104.647 473.923 102.072 476.497 102.072 479.673C102.072 482.848 104.647 485.423 107.822 485.423Z" fill="#2E353A" stroke="#2E353A" stroke-linecap="round" stroke-linejoin="round"/>
<path d="M123.141 485.423C126.317 485.423 128.891 482.848 128.891 479.673C128.891 476.497 126.317 473.923 123.141 473.923C119.965 473.923 117.391 476.497 117.391 479.673C117.391 482.848 119.965 485.423 123.141 485.423Z" fill="#2E353A" stroke="#2E353A" stroke-linecap="round" stroke-linejoin="round"/>
<path d="M144.221 479.673C144.221 480.81 143.884 481.922 143.252 482.867C142.62 483.813 141.722 484.55 140.671 484.985C139.621 485.42 138.464 485.534 137.349 485.312C136.234 485.091 135.209 484.543 134.405 483.739C133.601 482.935 133.053 481.91 132.831 480.795C132.609 479.679 132.723 478.523 133.158 477.472C133.594 476.422 134.331 475.524 135.276 474.892C136.222 474.26 137.334 473.923 138.471 473.923C139.996 473.923 141.458 474.528 142.537 475.607C143.615 476.685 144.221 478.148 144.221 479.673Z" fill="#2E353A" stroke="#2E353A" stroke-linecap="round" stroke-linejoin="round"/>
<path d="M159.549 479.673C159.549 480.81 159.212 481.922 158.58 482.867C157.948 483.813 157.05 484.55 155.999 484.985C154.949 485.42 153.793 485.534 152.677 485.312C151.562 485.091 150.537 484.543 149.733 483.739C148.929 482.935 148.381 481.91 148.159 480.795C147.937 479.679 148.051 478.523 148.487 477.472C148.922 476.422 149.659 475.524 150.604 474.892C151.55 474.26 152.662 473.923 153.799 473.923C155.324 473.923 156.787 474.528 157.865 475.607C158.943 476.685 159.549 478.148 159.549 479.673Z" fill="#2E353A" stroke="#2E353A" stroke-linecap="round" stroke-linejoin="round"/>
<path d="M174.867 479.673C174.867 480.811 174.53 481.923 173.898 482.869C173.265 483.814 172.367 484.551 171.315 484.986C170.264 485.421 169.107 485.534 167.991 485.312C166.876 485.089 165.851 484.54 165.047 483.735C164.244 482.929 163.697 481.904 163.476 480.787C163.256 479.671 163.371 478.515 163.808 477.464C164.245 476.414 164.984 475.516 165.931 474.886C166.878 474.256 167.991 473.92 169.129 473.923C169.884 473.923 170.631 474.071 171.328 474.361C172.025 474.65 172.658 475.073 173.191 475.608C173.724 476.142 174.146 476.776 174.434 477.473C174.722 478.171 174.869 478.918 174.867 479.673Z" fill="#2E353A" stroke="#2E353A" stroke-linecap="round" stroke-linejoin="round"/>
<path d="M219.578 420.751C219.578 420.117 219.39 419.498 219.038 418.971C218.685 418.445 218.185 418.035 217.599 417.793C217.013 417.551 216.369 417.488 215.748 417.612C215.127 417.737 214.556 418.043 214.109 418.492C213.662 418.941 213.358 419.512 213.236 420.134C213.114 420.755 213.179 421.399 213.423 421.984C213.667 422.569 214.079 423.068 214.607 423.418C215.135 423.769 215.755 423.954 216.388 423.952C216.808 423.952 217.224 423.869 217.612 423.708C217.999 423.547 218.351 423.311 218.648 423.014C218.944 422.716 219.179 422.363 219.338 421.975C219.498 421.587 219.579 421.171 219.578 420.751Z" fill="#2E353A" stroke="#2E353A" stroke-linecap="round" stroke-linejoin="round"/>
<path d="M157.63 425.861H123.781V446.301H157.63V425.861Z" fill="white" stroke="#2E353A" stroke-linecap="round" stroke-linejoin="round"/>
<path d="M157.629 425.861H139.109V446.301H157.629V425.861Z" fill="white" stroke="#2E353A" stroke-linecap="round" stroke-linejoin="round"/>
</svg>
