<svg width="950" height="1333" viewBox="0 0 950 1333" fill="none" xmlns="http://www.w3.org/2000/svg">
<rect width="950" height="1332" fill="#395987"/>
<path d="M375.054 1082L125.034 1331.96H0L250.044 1082H375.054Z" fill="#476897"/>
<path d="M266.001 1082L516.021 1331.96H641.055L391.011 1082H266.001Z" fill="#476897"/>
<path d="M125.034 1206.98H0V1331.96H125.034V1206.98Z" fill="#203A5C"/>
<path d="M828 1082C828.006 1048.85 840.863 1017.05 863.741 993.61C886.62 970.169 917.648 957 950 957V957V1082H828Z" fill="#203A5C"/>
<path d="M703 1331.97V1206.94C719.417 1206.94 735.672 1210.17 750.839 1216.45C766.006 1222.73 779.787 1231.94 791.395 1243.54C803.004 1255.15 812.212 1268.93 818.494 1284.09C824.776 1299.25 828.01 1315.5 828.01 1331.92H703V1331.97Z" fill="#203A5C"/>
<path d="M949.976 1332V1207C933.958 1207 918.097 1210.23 903.298 1216.51C888.499 1222.79 875.053 1231.99 863.726 1243.6C852.399 1255.2 843.415 1268.97 837.285 1284.13C831.155 1299.29 828 1315.54 828 1331.95H950L949.976 1332Z" fill="#203A5C"/>
<path d="M828 1082H950V1207C917.654 1207.01 886.63 1193.84 863.751 1170.4C840.872 1146.96 828.013 1115.16 828 1082V1082Z" fill="#476897"/>
<path d="M250.068 1206.98H0V957L250.068 1206.98Z" fill="#203A5C"/>
<path d="M826.073 1180.3C822.564 1180.29 819.087 1180.96 815.841 1182.29C812.595 1183.62 809.644 1185.58 807.158 1188.06C804.671 1190.53 802.698 1193.47 801.352 1196.71C800.006 1199.95 799.312 1203.43 799.313 1206.93V1206.93C799.313 1210.45 800.005 1213.93 801.349 1217.17C802.694 1220.42 804.665 1223.37 807.15 1225.85C809.635 1228.34 812.585 1230.31 815.832 1231.65C819.079 1233 822.559 1233.69 826.073 1233.69V1233.69C829.587 1233.69 833.067 1233 836.313 1231.65C839.56 1230.31 842.51 1228.34 844.995 1225.85C847.48 1223.37 849.451 1220.42 850.796 1217.17C852.141 1213.93 852.833 1210.45 852.833 1206.93C852.833 1203.43 852.14 1199.95 850.794 1196.71C849.447 1193.47 847.474 1190.53 844.988 1188.06C842.501 1185.58 839.55 1183.62 836.304 1182.29C833.058 1180.96 829.581 1180.29 826.073 1180.3V1180.3Z" fill="#476897"/>
<path d="M250 1332.03V1207C266.417 1207 282.672 1210.23 297.839 1216.51C313.006 1222.79 326.787 1232 338.395 1243.61C350.004 1255.21 359.212 1268.99 365.494 1284.15C371.776 1299.32 375.01 1315.57 375.01 1331.98H250V1332.03Z" fill="#203A5C"/>
<path d="M250.034 1207.05H125V1332.03H250.034V1207.05Z" fill="#476897"/>
<path d="M703.034 1207H578V1331.98H703.034V1207Z" fill="#476897"/>
<path d="M395.76 1234C392.252 1233.98 388.775 1234.66 385.529 1235.99C382.283 1237.32 379.332 1239.28 376.845 1241.76C374.359 1244.23 372.386 1247.17 371.039 1250.41C369.693 1253.65 369 1257.13 369 1260.63V1260.63C369 1264.15 369.692 1267.63 371.037 1270.87C372.382 1274.12 374.353 1277.07 376.838 1279.55C379.323 1282.03 382.273 1284.01 385.52 1285.35C388.766 1286.69 392.246 1287.39 395.76 1287.39V1287.39C399.274 1287.39 402.754 1286.69 406.001 1285.35C409.248 1284.01 412.198 1282.03 414.682 1279.55C417.167 1277.07 419.139 1274.12 420.483 1270.87C421.828 1267.63 422.52 1264.15 422.52 1260.63C422.52 1257.13 421.827 1253.65 420.481 1250.41C419.135 1247.17 417.162 1244.23 414.675 1241.76C412.189 1239.28 409.238 1237.32 405.992 1235.99C402.746 1234.66 399.269 1233.98 395.76 1234V1234Z" fill="#476897"/>
<path d="M125.034 1206.98V1331.96H0.0244141L125.034 1206.98Z" fill="white"/>
<path d="M250 1332V1270C241.857 1270 233.793 1271.6 226.27 1274.71C218.746 1277.83 211.91 1282.39 206.152 1288.15C200.394 1293.91 195.828 1300.75 192.713 1308.27C189.598 1315.79 187.997 1323.86 188 1332H250Z" fill="white"/>
<path d="M579 1332V1271C587.143 1271 595.207 1272.57 602.73 1275.64C610.254 1278.7 617.09 1283.19 622.848 1288.86C628.606 1294.52 633.172 1301.25 636.287 1308.65C639.402 1316.05 641.003 1323.99 641 1332H579Z" fill="white"/>
<path d="M0 150.883V0H151C151 40.0477 135.094 78.4551 106.782 106.773C78.4692 135.091 40.0692 151 0.0292528 151L0 150.883Z" fill="#476897"/>
<path d="M950 0V125L828 0H950Z" fill="#203A5C"/>
</svg>
