<svg width="83" height="115" viewBox="0 0 83 115" fill="none" xmlns="http://www.w3.org/2000/svg">
<g opacity="0.3">
<mask id="mask0_4498_118949" style="mask-type:alpha" maskUnits="userSpaceOnUse" x="11" y="0" width="12" height="11">
<path d="M16.7909 10.425C19.6784 10.425 22.0193 8.09121 22.0193 5.21245C22.0193 2.33368 19.6784 0 16.7909 0C13.9033 0 11.5625 2.33368 11.5625 5.21245C11.5625 8.09121 13.9033 10.425 16.7909 10.425Z" fill="url(#paint0_linear_4498_118949)"/>
</mask>
<g mask="url(#mask0_4498_118949)">
<path d="M16.7909 10.425C19.6784 10.425 22.0193 8.09121 22.0193 5.21245C22.0193 2.33368 19.6784 0 16.7909 0C13.9033 0 11.5625 2.33368 11.5625 5.21245C11.5625 8.09121 13.9033 10.425 16.7909 10.425Z" fill="url(#paint1_linear_4498_118949)"/>
</g>
<mask id="mask1_4498_118949" style="mask-type:alpha" maskUnits="userSpaceOnUse" x="41" y="0" width="12" height="11">
<path d="M47.0721 10.425C49.9597 10.425 52.3005 8.09121 52.3005 5.21245C52.3005 2.33368 49.9597 0 47.0721 0C44.1846 0 41.8438 2.33368 41.8438 5.21245C41.8438 8.09121 44.1846 10.425 47.0721 10.425Z" fill="url(#paint2_linear_4498_118949)"/>
</mask>
<g mask="url(#mask1_4498_118949)">
<path d="M47.0721 10.425C49.9597 10.425 52.3005 8.09121 52.3005 5.21245C52.3005 2.33368 49.9597 0 47.0721 0C44.1846 0 41.8438 2.33368 41.8438 5.21245C41.8438 8.09121 44.1846 10.425 47.0721 10.425Z" fill="url(#paint3_linear_4498_118949)"/>
</g>
<mask id="mask2_4498_118949" style="mask-type:alpha" maskUnits="userSpaceOnUse" x="72" y="0" width="11" height="11">
<path d="M77.3534 10.425C80.2409 10.425 82.5818 8.09121 82.5818 5.21245C82.5818 2.33368 80.2409 0 77.3534 0C74.4658 0 72.125 2.33368 72.125 5.21245C72.125 8.09121 74.4658 10.425 77.3534 10.425Z" fill="url(#paint4_linear_4498_118949)"/>
</mask>
<g mask="url(#mask2_4498_118949)">
<path d="M77.3534 10.425C80.2409 10.425 82.5818 8.09121 82.5818 5.21245C82.5818 2.33368 80.2409 0 77.3534 0C74.4658 0 72.125 2.33368 72.125 5.21245C72.125 8.09121 74.4658 10.425 77.3534 10.425Z" fill="url(#paint5_linear_4498_118949)"/>
</g>
<mask id="mask3_4498_118949" style="mask-type:alpha" maskUnits="userSpaceOnUse" x="11" y="26" width="12" height="11">
<path d="M16.7909 36.5958C19.6784 36.5958 22.0193 34.2621 22.0193 31.3833C22.0193 28.5046 19.6784 26.1709 16.7909 26.1709C13.9033 26.1709 11.5625 28.5046 11.5625 31.3833C11.5625 34.2621 13.9033 36.5958 16.7909 36.5958Z" fill="url(#paint6_linear_4498_118949)"/>
</mask>
<g mask="url(#mask3_4498_118949)">
<path d="M16.7909 36.5958C19.6784 36.5958 22.0193 34.2621 22.0193 31.3833C22.0193 28.5046 19.6784 26.1709 16.7909 26.1709C13.9033 26.1709 11.5625 28.5046 11.5625 31.3833C11.5625 34.2621 13.9033 36.5958 16.7909 36.5958Z" fill="url(#paint7_linear_4498_118949)"/>
</g>
<mask id="mask4_4498_118949" style="mask-type:alpha" maskUnits="userSpaceOnUse" x="41" y="26" width="12" height="11">
<path d="M47.0721 36.5958C49.9597 36.5958 52.3005 34.2621 52.3005 31.3833C52.3005 28.5046 49.9597 26.1709 47.0721 26.1709C44.1846 26.1709 41.8438 28.5046 41.8438 31.3833C41.8438 34.2621 44.1846 36.5958 47.0721 36.5958Z" fill="url(#paint8_linear_4498_118949)"/>
</mask>
<g mask="url(#mask4_4498_118949)">
<path d="M47.0721 36.5958C49.9597 36.5958 52.3005 34.2621 52.3005 31.3833C52.3005 28.5046 49.9597 26.1709 47.0721 26.1709C44.1846 26.1709 41.8438 28.5046 41.8438 31.3833C41.8438 34.2621 44.1846 36.5958 47.0721 36.5958Z" fill="url(#paint9_linear_4498_118949)"/>
</g>
<mask id="mask5_4498_118949" style="mask-type:alpha" maskUnits="userSpaceOnUse" x="72" y="26" width="11" height="11">
<path d="M77.3534 36.5958C80.2409 36.5958 82.5818 34.2621 82.5818 31.3833C82.5818 28.5046 80.2409 26.1709 77.3534 26.1709C74.4658 26.1709 72.125 28.5046 72.125 31.3833C72.125 34.2621 74.4658 36.5958 77.3534 36.5958Z" fill="url(#paint10_linear_4498_118949)"/>
</mask>
<g mask="url(#mask5_4498_118949)">
<path d="M77.3534 36.5958C80.2409 36.5958 82.5818 34.2621 82.5818 31.3833C82.5818 28.5046 80.2409 26.1709 77.3534 26.1709C74.4658 26.1709 72.125 28.5046 72.125 31.3833C72.125 34.2621 74.4658 36.5958 77.3534 36.5958Z" fill="url(#paint11_linear_4498_118949)"/>
</g>
<mask id="mask6_4498_118949" style="mask-type:alpha" maskUnits="userSpaceOnUse" x="11" y="52" width="12" height="11">
<path d="M16.7909 62.7121C19.6784 62.7121 22.0193 60.3784 22.0193 57.4996C22.0193 54.6208 19.6784 52.2871 16.7909 52.2871C13.9033 52.2871 11.5625 54.6208 11.5625 57.4996C11.5625 60.3784 13.9033 62.7121 16.7909 62.7121Z" fill="url(#paint12_linear_4498_118949)"/>
</mask>
<g mask="url(#mask6_4498_118949)">
<path d="M16.7909 62.7121C19.6784 62.7121 22.0193 60.3784 22.0193 57.4996C22.0193 54.6208 19.6784 52.2871 16.7909 52.2871C13.9033 52.2871 11.5625 54.6208 11.5625 57.4996C11.5625 60.3784 13.9033 62.7121 16.7909 62.7121Z" fill="url(#paint13_linear_4498_118949)"/>
</g>
<mask id="mask7_4498_118949" style="mask-type:alpha" maskUnits="userSpaceOnUse" x="41" y="52" width="12" height="11">
<path d="M47.0721 62.7121C49.9597 62.7121 52.3005 60.3784 52.3005 57.4996C52.3005 54.6208 49.9597 52.2871 47.0721 52.2871C44.1846 52.2871 41.8438 54.6208 41.8438 57.4996C41.8438 60.3784 44.1846 62.7121 47.0721 62.7121Z" fill="url(#paint14_linear_4498_118949)"/>
</mask>
<g mask="url(#mask7_4498_118949)">
<path d="M47.0721 62.7121C49.9597 62.7121 52.3005 60.3784 52.3005 57.4996C52.3005 54.6208 49.9597 52.2871 47.0721 52.2871C44.1846 52.2871 41.8438 54.6208 41.8438 57.4996C41.8438 60.3784 44.1846 62.7121 47.0721 62.7121Z" fill="url(#paint15_linear_4498_118949)"/>
</g>
<mask id="mask8_4498_118949" style="mask-type:alpha" maskUnits="userSpaceOnUse" x="72" y="52" width="11" height="11">
<path d="M77.3534 62.7121C80.2409 62.7121 82.5818 60.3784 82.5818 57.4996C82.5818 54.6208 80.2409 52.2871 77.3534 52.2871C74.4658 52.2871 72.125 54.6208 72.125 57.4996C72.125 60.3784 74.4658 62.7121 77.3534 62.7121Z" fill="url(#paint16_linear_4498_118949)"/>
</mask>
<g mask="url(#mask8_4498_118949)">
<path d="M77.3534 62.7121C80.2409 62.7121 82.5818 60.3784 82.5818 57.4996C82.5818 54.6208 80.2409 52.2871 77.3534 52.2871C74.4658 52.2871 72.125 54.6208 72.125 57.4996C72.125 60.3784 74.4658 62.7121 77.3534 62.7121Z" fill="url(#paint17_linear_4498_118949)"/>
</g>
<mask id="mask9_4498_118949" style="mask-type:alpha" maskUnits="userSpaceOnUse" x="11" y="78" width="12" height="11">
<path d="M16.7909 88.883C19.6784 88.883 22.0193 86.5492 22.0193 83.6705C22.0193 80.7917 19.6784 78.458 16.7909 78.458C13.9033 78.458 11.5625 80.7917 11.5625 83.6705C11.5625 86.5492 13.9033 88.883 16.7909 88.883Z" fill="url(#paint18_linear_4498_118949)"/>
</mask>
<g mask="url(#mask9_4498_118949)">
<path d="M16.7909 88.883C19.6784 88.883 22.0193 86.5492 22.0193 83.6705C22.0193 80.7917 19.6784 78.458 16.7909 78.458C13.9033 78.458 11.5625 80.7917 11.5625 83.6705C11.5625 86.5492 13.9033 88.883 16.7909 88.883Z" fill="url(#paint19_linear_4498_118949)"/>
</g>
<mask id="mask10_4498_118949" style="mask-type:alpha" maskUnits="userSpaceOnUse" x="41" y="78" width="12" height="11">
<path d="M47.0721 88.883C49.9597 88.883 52.3005 86.5492 52.3005 83.6705C52.3005 80.7917 49.9597 78.458 47.0721 78.458C44.1846 78.458 41.8438 80.7917 41.8438 83.6705C41.8438 86.5492 44.1846 88.883 47.0721 88.883Z" fill="url(#paint20_linear_4498_118949)"/>
</mask>
<g mask="url(#mask10_4498_118949)">
<path d="M47.0721 88.883C49.9597 88.883 52.3005 86.5492 52.3005 83.6705C52.3005 80.7917 49.9597 78.458 47.0721 78.458C44.1846 78.458 41.8438 80.7917 41.8438 83.6705C41.8438 86.5492 44.1846 88.883 47.0721 88.883Z" fill="url(#paint21_linear_4498_118949)"/>
</g>
<mask id="mask11_4498_118949" style="mask-type:alpha" maskUnits="userSpaceOnUse" x="72" y="78" width="11" height="11">
<path d="M77.3534 88.883C80.2409 88.883 82.5818 86.5492 82.5818 83.6705C82.5818 80.7917 80.2409 78.458 77.3534 78.458C74.4658 78.458 72.125 80.7917 72.125 83.6705C72.125 86.5492 74.4658 88.883 77.3534 88.883Z" fill="url(#paint22_linear_4498_118949)"/>
</mask>
<g mask="url(#mask11_4498_118949)">
<path d="M77.3534 88.883C80.2409 88.883 82.5818 86.5492 82.5818 83.6705C82.5818 80.7917 80.2409 78.458 77.3534 78.458C74.4658 78.458 72.125 80.7917 72.125 83.6705C72.125 86.5492 74.4658 88.883 77.3534 88.883Z" fill="url(#paint23_linear_4498_118949)"/>
</g>
<mask id="mask12_4498_118949" style="mask-type:alpha" maskUnits="userSpaceOnUse" x="11" y="104" width="12" height="11">
<path d="M16.7909 115C19.6784 115 22.0193 112.666 22.0193 109.788C22.0193 106.909 19.6784 104.575 16.7909 104.575C13.9033 104.575 11.5625 106.909 11.5625 109.788C11.5625 112.666 13.9033 115 16.7909 115Z" fill="url(#paint24_linear_4498_118949)"/>
</mask>
<g mask="url(#mask12_4498_118949)">
<path d="M16.7909 115C19.6784 115 22.0193 112.666 22.0193 109.788C22.0193 106.909 19.6784 104.575 16.7909 104.575C13.9033 104.575 11.5625 106.909 11.5625 109.788C11.5625 112.666 13.9033 115 16.7909 115Z" fill="url(#paint25_linear_4498_118949)"/>
</g>
<mask id="mask13_4498_118949" style="mask-type:alpha" maskUnits="userSpaceOnUse" x="41" y="104" width="12" height="11">
<path d="M47.0721 115C49.9597 115 52.3005 112.666 52.3005 109.788C52.3005 106.909 49.9597 104.575 47.0721 104.575C44.1846 104.575 41.8438 106.909 41.8438 109.788C41.8438 112.666 44.1846 115 47.0721 115Z" fill="url(#paint26_linear_4498_118949)"/>
</mask>
<g mask="url(#mask13_4498_118949)">
<path d="M47.0721 115C49.9597 115 52.3005 112.666 52.3005 109.788C52.3005 106.909 49.9597 104.575 47.0721 104.575C44.1846 104.575 41.8438 106.909 41.8438 109.788C41.8438 112.666 44.1846 115 47.0721 115Z" fill="url(#paint27_linear_4498_118949)"/>
</g>
<mask id="mask14_4498_118949" style="mask-type:alpha" maskUnits="userSpaceOnUse" x="72" y="104" width="11" height="11">
<path d="M77.3534 115C80.2409 115 82.5818 112.666 82.5818 109.788C82.5818 106.909 80.2409 104.575 77.3534 104.575C74.4658 104.575 72.125 106.909 72.125 109.788C72.125 112.666 74.4658 115 77.3534 115Z" fill="url(#paint28_linear_4498_118949)"/>
</mask>
<g mask="url(#mask14_4498_118949)">
<path d="M77.3534 115C80.2409 115 82.5818 112.666 82.5818 109.788C82.5818 106.909 80.2409 104.575 77.3534 104.575C74.4658 104.575 72.125 106.909 72.125 109.788C72.125 112.666 74.4658 115 77.3534 115Z" fill="url(#paint29_linear_4498_118949)"/>
</g>
</g>
<defs>
<linearGradient id="paint0_linear_4498_118949" x1="58.4053" y1="110.551" x2="-12.9963" y2="-71.2526" gradientUnits="userSpaceOnUse">
<stop/>
<stop offset="1" stop-color="white"/>
</linearGradient>
<linearGradient id="paint1_linear_4498_118949" x1="58.4053" y1="110.551" x2="-12.9963" y2="-71.2526" gradientUnits="userSpaceOnUse">
<stop stop-color="#97C3F9"/>
<stop offset="1" stop-color="#93C1F9"/>
</linearGradient>
<linearGradient id="paint2_linear_4498_118949" x1="84.6097" y1="100.259" x2="13.2081" y2="-81.5444" gradientUnits="userSpaceOnUse">
<stop/>
<stop offset="1" stop-color="white"/>
</linearGradient>
<linearGradient id="paint3_linear_4498_118949" x1="84.6097" y1="100.259" x2="13.2081" y2="-81.5444" gradientUnits="userSpaceOnUse">
<stop stop-color="#97C3F9"/>
<stop offset="1" stop-color="#93C1F9"/>
</linearGradient>
<linearGradient id="paint4_linear_4498_118949" x1="110.814" y1="89.9679" x2="39.4126" y2="-91.8359" gradientUnits="userSpaceOnUse">
<stop/>
<stop offset="1" stop-color="white"/>
</linearGradient>
<linearGradient id="paint5_linear_4498_118949" x1="110.814" y1="89.9679" x2="39.4126" y2="-91.8359" gradientUnits="userSpaceOnUse">
<stop stop-color="#97C3F9"/>
<stop offset="1" stop-color="#93C1F9"/>
</linearGradient>
<linearGradient id="paint6_linear_4498_118949" x1="49.4628" y1="114.062" x2="-21.9376" y2="-67.7404" gradientUnits="userSpaceOnUse">
<stop/>
<stop offset="1" stop-color="white"/>
</linearGradient>
<linearGradient id="paint7_linear_4498_118949" x1="49.4628" y1="114.062" x2="-21.9376" y2="-67.7404" gradientUnits="userSpaceOnUse">
<stop stop-color="#97C3F9"/>
<stop offset="1" stop-color="#93C1F9"/>
</linearGradient>
<linearGradient id="paint8_linear_4498_118949" x1="75.6673" y1="103.771" x2="4.26689" y2="-78.0318" gradientUnits="userSpaceOnUse">
<stop/>
<stop offset="1" stop-color="white"/>
</linearGradient>
<linearGradient id="paint9_linear_4498_118949" x1="75.6673" y1="103.771" x2="4.26689" y2="-78.0318" gradientUnits="userSpaceOnUse">
<stop stop-color="#97C3F9"/>
<stop offset="1" stop-color="#93C1F9"/>
</linearGradient>
<linearGradient id="paint10_linear_4498_118949" x1="101.872" y1="93.4793" x2="30.4715" y2="-88.3232" gradientUnits="userSpaceOnUse">
<stop/>
<stop offset="1" stop-color="white"/>
</linearGradient>
<linearGradient id="paint11_linear_4498_118949" x1="101.872" y1="93.4793" x2="30.4715" y2="-88.3232" gradientUnits="userSpaceOnUse">
<stop stop-color="#97C3F9"/>
<stop offset="1" stop-color="#93C1F9"/>
</linearGradient>
<linearGradient id="paint12_linear_4498_118949" x1="40.5204" y1="117.575" x2="-30.8811" y2="-64.2292" gradientUnits="userSpaceOnUse">
<stop/>
<stop offset="1" stop-color="white"/>
</linearGradient>
<linearGradient id="paint13_linear_4498_118949" x1="40.5204" y1="117.575" x2="-30.8811" y2="-64.2292" gradientUnits="userSpaceOnUse">
<stop stop-color="#97C3F9"/>
<stop offset="1" stop-color="#93C1F9"/>
</linearGradient>
<linearGradient id="paint14_linear_4498_118949" x1="66.7249" y1="107.283" x2="-4.67673" y2="-74.5209" gradientUnits="userSpaceOnUse">
<stop/>
<stop offset="1" stop-color="white"/>
</linearGradient>
<linearGradient id="paint15_linear_4498_118949" x1="66.7249" y1="107.283" x2="-4.67673" y2="-74.5209" gradientUnits="userSpaceOnUse">
<stop stop-color="#97C3F9"/>
<stop offset="1" stop-color="#93C1F9"/>
</linearGradient>
<linearGradient id="paint16_linear_4498_118949" x1="92.9295" y1="96.9915" x2="21.5278" y2="-84.8124" gradientUnits="userSpaceOnUse">
<stop/>
<stop offset="1" stop-color="white"/>
</linearGradient>
<linearGradient id="paint17_linear_4498_118949" x1="92.9295" y1="96.9915" x2="21.5278" y2="-84.8124" gradientUnits="userSpaceOnUse">
<stop stop-color="#97C3F9"/>
<stop offset="1" stop-color="#93C1F9"/>
</linearGradient>
<linearGradient id="paint18_linear_4498_118949" x1="31.578" y1="121.086" x2="-39.8235" y2="-60.7172" gradientUnits="userSpaceOnUse">
<stop/>
<stop offset="1" stop-color="white"/>
</linearGradient>
<linearGradient id="paint19_linear_4498_118949" x1="31.578" y1="121.086" x2="-39.8235" y2="-60.7172" gradientUnits="userSpaceOnUse">
<stop stop-color="#97C3F9"/>
<stop offset="1" stop-color="#93C1F9"/>
</linearGradient>
<linearGradient id="paint20_linear_4498_118949" x1="57.7825" y1="110.795" x2="-13.6191" y2="-71.0088" gradientUnits="userSpaceOnUse">
<stop/>
<stop offset="1" stop-color="white"/>
</linearGradient>
<linearGradient id="paint21_linear_4498_118949" x1="57.7825" y1="110.795" x2="-13.6191" y2="-71.0088" gradientUnits="userSpaceOnUse">
<stop stop-color="#97C3F9"/>
<stop offset="1" stop-color="#93C1F9"/>
</linearGradient>
<linearGradient id="paint22_linear_4498_118949" x1="83.9871" y1="100.503" x2="12.5854" y2="-81.3004" gradientUnits="userSpaceOnUse">
<stop/>
<stop offset="1" stop-color="white"/>
</linearGradient>
<linearGradient id="paint23_linear_4498_118949" x1="83.9871" y1="100.503" x2="12.5854" y2="-81.3004" gradientUnits="userSpaceOnUse">
<stop stop-color="#97C3F9"/>
<stop offset="1" stop-color="#93C1F9"/>
</linearGradient>
<linearGradient id="paint24_linear_4498_118949" x1="22.6357" y1="124.599" x2="-48.7659" y2="-57.2045" gradientUnits="userSpaceOnUse">
<stop/>
<stop offset="1" stop-color="white"/>
</linearGradient>
<linearGradient id="paint25_linear_4498_118949" x1="22.6357" y1="124.599" x2="-48.7659" y2="-57.2045" gradientUnits="userSpaceOnUse">
<stop stop-color="#97C3F9"/>
<stop offset="1" stop-color="#93C1F9"/>
</linearGradient>
<linearGradient id="paint26_linear_4498_118949" x1="48.8402" y1="114.308" x2="-22.5614" y2="-67.4962" gradientUnits="userSpaceOnUse">
<stop/>
<stop offset="1" stop-color="white"/>
</linearGradient>
<linearGradient id="paint27_linear_4498_118949" x1="48.8402" y1="114.308" x2="-22.5614" y2="-67.4962" gradientUnits="userSpaceOnUse">
<stop stop-color="#97C3F9"/>
<stop offset="1" stop-color="#93C1F9"/>
</linearGradient>
<linearGradient id="paint28_linear_4498_118949" x1="75.0447" y1="104.016" x2="3.6431" y2="-77.7877" gradientUnits="userSpaceOnUse">
<stop/>
<stop offset="1" stop-color="white"/>
</linearGradient>
<linearGradient id="paint29_linear_4498_118949" x1="75.0447" y1="104.016" x2="3.6431" y2="-77.7877" gradientUnits="userSpaceOnUse">
<stop stop-color="#97C3F9"/>
<stop offset="1" stop-color="#93C1F9"/>
</linearGradient>
</defs>
</svg>
