<svg width="723" height="723" viewBox="0 0 723 723" fill="none" xmlns="http://www.w3.org/2000/svg">
<path d="M690.345 563.699C690.345 564.844 689.863 565.868 689.14 566.591C688.417 567.314 687.393 567.796 686.248 567.796H36.7533C34.4638 567.796 32.6562 565.928 32.6562 563.699C32.6562 562.554 33.1383 561.53 33.8613 560.747C34.5843 560.024 35.6085 559.542 36.7533 559.542H686.248C688.538 559.542 690.345 561.41 690.345 563.699Z" fill="#050F64"/>
<path d="M109.113 200.331V482.482C109.113 493.327 117.91 502.124 128.755 502.124H594.246C605.091 502.124 613.888 493.327 613.888 482.482V200.331C613.888 189.486 605.091 180.69 594.246 180.69H128.755C117.91 180.69 109.113 189.486 109.113 200.331Z" fill="#050F64"/>
<path d="M126.766 468.203H596.234V198.343H126.766V468.203Z" fill="white"/>
<path d="M448.684 530.682H274.32V502.124H448.684V530.682Z" fill="#E5E6EB"/>
<path d="M474.531 559.542H248.473L274.32 529.598H448.683L474.531 559.542Z" fill="#E5E6EB"/>
<path d="M569.965 165.688V342.22C569.965 348.004 565.266 352.704 559.482 352.704H163.519C157.735 352.704 153.035 348.004 153.035 342.22V165.688C153.035 159.904 157.735 155.204 163.519 155.204H559.482C565.266 155.204 569.965 159.904 569.965 165.688Z" fill="#84A9FF"/>
<path d="M569.965 165.688V184.004H153.035V165.688C153.035 159.904 157.735 155.204 163.519 155.204H559.482C565.266 155.204 569.965 159.904 569.965 165.688Z" fill="#155BCD"/>
<path d="M170.93 197.439H266.968V321.434H170.93V197.439Z" fill="white"/>
<path d="M259.981 279.982V316.252H177.98V279.741C177.98 275.282 180.631 271.246 184.728 269.438L198.405 263.413L217.384 255.099L218.95 255.701L239.435 264.016L252.931 269.498C257.149 271.246 259.981 275.403 259.981 279.982Z" fill="#155BCD"/>
<path d="M239.433 264.016C238.649 267.39 234.793 283.657 228.588 288.176C228.588 288.176 219.731 285.103 218.948 281.187C218.225 285.103 209.368 288.176 209.368 288.176C202.439 283.115 198.402 263.413 198.402 263.413L217.381 255.099L218.948 255.701L239.433 264.016Z" fill="#050F64"/>
<path d="M233.951 229.432V221.78L204.007 221.479V229.432C202.621 229.432 201.477 230.577 201.477 231.963V241.241C201.477 242.627 202.621 243.711 204.007 243.711V246.242C204.007 249.736 205.212 252.93 207.2 255.46V266.064C207.2 272.571 212.442 277.873 218.949 277.873C225.456 277.873 230.758 272.571 230.758 266.064V255.46C232.746 252.93 233.951 249.736 233.951 246.242V243.711C235.337 243.711 236.482 242.627 236.482 241.241V231.963C236.482 230.577 235.337 229.432 233.951 229.432Z" fill="#F5BDC8"/>
<path d="M224.974 211.297C220.696 210.031 216.9 209.851 212.984 211.297C206.537 213.707 201.657 218.828 203.103 225.516L204.85 237.867C204.85 237.867 215.695 224.491 229.011 224.793L233.529 237.867L234.855 225.516C236.301 218.828 231.541 213.345 224.974 211.297Z" fill="#050F64"/>
<path d="M220.638 290.586C220.638 291.489 219.855 292.212 218.951 292.212C218.047 292.212 217.324 291.489 217.324 290.586C217.324 289.682 218.047 288.959 218.951 288.959C219.855 288.959 220.638 289.682 220.638 290.586Z" fill="#050F64"/>
<path d="M220.638 298.9C220.638 299.804 219.855 300.527 218.951 300.527C218.047 300.527 217.324 299.804 217.324 298.9C217.324 297.996 218.047 297.273 218.951 297.273C219.855 297.273 220.638 297.996 220.638 298.9Z" fill="#050F64"/>
<path d="M220.638 307.215C220.638 308.118 219.855 308.841 218.951 308.841C218.047 308.841 217.324 308.118 217.324 307.215C217.324 306.311 218.047 305.588 218.951 305.588C219.855 305.588 220.638 306.311 220.638 307.215Z" fill="#050F64"/>
<path d="M552.073 213.164H290.648V207.38H552.073V213.164Z" fill="white"/>
<path d="M552.073 237.144H290.648V231.3H552.073V237.144Z" fill="white"/>
<path d="M552.073 261.063H290.648V255.279H552.073V261.063Z" fill="white"/>
<path d="M552.073 284.983H290.648V279.199H552.073V284.983Z" fill="white"/>
<path d="M552.073 308.902H290.648V303.118H552.073V308.902Z" fill="white"/>
<path d="M183.282 169.604C183.282 171.833 181.475 173.701 179.245 173.701C176.956 173.701 175.148 171.833 175.148 169.604C175.148 167.374 176.956 165.567 179.245 165.567C181.475 165.567 183.282 167.374 183.282 169.604Z" fill="white"/>
<path d="M205.212 169.604C205.212 171.833 203.404 173.701 201.175 173.701C198.946 173.701 197.078 171.833 197.078 169.604C197.078 167.374 198.946 165.567 201.175 165.567C203.404 165.567 205.212 167.374 205.212 169.604Z" fill="white"/>
<path d="M227.144 169.604C227.144 171.833 225.336 173.701 223.107 173.701C220.878 173.701 219.07 171.833 219.07 169.604C219.07 167.374 220.878 165.567 223.107 165.567C225.336 165.567 227.144 167.374 227.144 169.604Z" fill="white"/>
<path d="M569.965 207.441V384.034C569.965 389.818 565.266 394.517 559.482 394.517H163.519C157.735 394.517 153.035 389.818 153.035 384.034V207.441C153.035 201.657 157.735 197.018 163.519 197.018H559.482C565.266 197.018 569.965 201.657 569.965 207.441Z" fill="#84A9FF"/>
<path d="M569.965 207.441V225.817H153.035V207.441C153.035 201.657 157.735 197.018 163.519 197.018H559.482C565.266 197.018 569.965 201.657 569.965 207.441Z" fill="#155BCD"/>
<path d="M170.93 239.253H266.968V363.187H170.93V239.253Z" fill="white"/>
<path d="M259.981 321.796V358.006H177.98V321.555C177.98 317.036 180.631 312.999 184.728 311.192L198.405 305.227L217.384 296.852L218.95 297.515L239.435 305.829L252.931 311.312C257.149 313.059 259.981 317.156 259.981 321.796Z" fill="#155BCD"/>
<path d="M239.433 305.829C238.649 309.143 234.793 325.471 228.588 329.929C228.588 329.929 219.731 326.917 218.948 322.94C218.225 326.917 209.368 329.929 209.368 329.929C202.439 324.929 198.402 305.227 198.402 305.227L217.381 296.852L218.948 297.515L239.433 305.829Z" fill="#050F64"/>
<path d="M233.951 271.245V263.533L204.007 263.292V271.245C202.621 271.245 201.477 272.33 201.477 273.716V282.994C201.477 284.38 202.621 285.525 204.007 285.525V287.995C204.007 291.489 205.212 294.683 207.2 297.273V307.877C207.2 314.384 212.442 319.626 218.949 319.626C225.456 319.626 230.758 314.384 230.758 307.877V297.273C232.746 294.683 233.951 291.489 233.951 287.995V285.525C235.337 285.525 236.482 284.38 236.482 282.994V273.716C236.482 272.33 235.337 271.245 233.951 271.245Z" fill="#F5BDC8"/>
<path d="M224.974 253.11C220.696 251.785 216.9 251.664 212.984 253.11C206.537 255.46 201.657 260.581 203.103 267.269L204.85 279.62C204.85 279.62 215.695 266.305 229.011 266.606L233.529 279.62L234.855 267.269C236.301 260.581 231.541 255.098 224.974 253.11Z" fill="#050F64"/>
<path d="M220.638 332.339C220.638 333.243 219.855 334.026 218.951 334.026C218.047 334.026 217.324 333.243 217.324 332.339C217.324 331.435 218.047 330.712 218.951 330.712C219.855 330.712 220.638 331.435 220.638 332.339Z" fill="#050F64"/>
<path d="M220.638 340.654C220.638 341.557 219.855 342.341 218.951 342.341C218.047 342.341 217.324 341.557 217.324 340.654C217.324 339.75 218.047 339.027 218.951 339.027C219.855 339.027 220.638 339.75 220.638 340.654Z" fill="#050F64"/>
<path d="M220.638 348.968C220.638 349.932 219.855 350.655 218.951 350.655C218.047 350.655 217.324 349.932 217.324 348.968C217.324 348.064 218.047 347.341 218.951 347.341C219.855 347.341 220.638 348.064 220.638 348.968Z" fill="#050F64"/>
<path d="M552.073 254.978H290.648V249.194H552.073V254.978Z" fill="white"/>
<path d="M552.073 278.897H290.648V273.113H552.073V278.897Z" fill="white"/>
<path d="M552.073 302.817H290.648V297.033H552.073V302.817Z" fill="white"/>
<path d="M552.073 326.796H290.648V320.952H552.073V326.796Z" fill="white"/>
<path d="M552.073 350.715H290.648V344.931H552.073V350.715Z" fill="white"/>
<path d="M183.282 211.417C183.282 213.647 181.475 215.454 179.245 215.454C176.956 215.454 175.148 213.647 175.148 211.417C175.148 209.128 176.956 207.32 179.245 207.32C181.475 207.32 183.282 209.128 183.282 211.417Z" fill="white"/>
<path d="M205.212 211.417C205.212 213.647 203.404 215.454 201.175 215.454C198.946 215.454 197.078 213.647 197.078 211.417C197.078 209.128 198.946 207.32 201.175 207.32C203.404 207.32 205.212 209.128 205.212 211.417Z" fill="white"/>
<path d="M227.144 211.417C227.144 213.647 225.336 215.454 223.107 215.454C220.878 215.454 219.07 213.647 219.07 211.417C219.07 209.128 220.878 207.32 223.107 207.32C225.336 207.32 227.144 209.128 227.144 211.417Z" fill="white"/>
<path d="M569.965 248.893V425.486C569.965 431.27 565.266 435.969 559.482 435.969H163.519C157.735 435.969 153.035 431.27 153.035 425.486V248.893C153.035 243.109 157.735 238.47 163.519 238.47H559.482C565.266 238.47 569.965 243.109 569.965 248.893Z" fill="#84A9FF"/>
<path d="M569.965 248.893V267.269H153.035V248.893C153.035 243.109 157.735 238.47 163.519 238.47H559.482C565.266 238.47 569.965 243.109 569.965 248.893Z" fill="#155BCD"/>
<path d="M170.93 280.705H266.968V404.639H170.93V280.705Z" fill="white"/>
<path d="M259.981 363.247V399.457H177.98V363.006C177.98 358.487 180.631 354.451 184.728 352.643L198.405 346.678L217.384 338.304L218.95 338.966L239.435 347.281L252.931 352.764C257.149 354.511 259.981 358.608 259.981 363.247Z" fill="#FF654F"/>
<path d="M239.433 347.281C238.649 350.595 234.793 366.922 228.588 371.381C228.588 371.381 219.731 368.368 218.948 364.392C218.225 368.368 209.368 371.381 209.368 371.381C202.439 366.38 198.402 346.678 198.402 346.678L217.381 338.304L218.948 338.966L239.433 347.281Z" fill="#050F64"/>
<path d="M233.951 312.698V304.986L204.007 304.745V312.698C202.621 312.698 201.477 313.782 201.477 315.168V324.446C201.477 325.832 202.621 326.977 204.007 326.977V329.447C204.007 332.942 205.212 336.135 207.2 338.726V349.33C207.2 355.837 212.442 361.078 218.949 361.078C225.456 361.078 230.758 355.837 230.758 349.33V338.726C232.746 336.135 233.951 332.942 233.951 329.447V326.977C235.337 326.977 236.482 325.832 236.482 324.446V315.168C236.482 313.782 235.337 312.698 233.951 312.698Z" fill="#F5BDC8"/>
<path d="M224.974 294.562C220.696 293.237 216.9 293.116 212.984 294.562C206.537 296.912 201.657 302.033 203.103 308.721L204.85 321.072C204.85 321.072 215.695 307.757 229.011 308.058L233.529 321.072L234.855 308.721C236.301 302.033 231.541 296.551 224.974 294.562Z" fill="#050F64"/>
<path d="M552.073 296.43H290.648V290.646H552.073V296.43Z" fill="white"/>
<path d="M552.073 320.349H290.648V314.565H552.073V320.349Z" fill="white"/>
<path d="M552.073 344.268H290.648V338.484H552.073V344.268Z" fill="white"/>
<path d="M552.073 368.248H290.648V362.404H552.073V368.248Z" fill="white"/>
<path d="M552.073 392.167H290.648V386.383H552.073V392.167Z" fill="white"/>
<path d="M183.282 252.869C183.282 255.099 181.475 256.906 179.245 256.906C176.956 256.906 175.148 255.099 175.148 252.869C175.148 250.58 176.956 248.772 179.245 248.772C181.475 248.772 183.282 250.58 183.282 252.869Z" fill="white"/>
<path d="M205.212 252.869C205.212 255.099 203.404 256.906 201.175 256.906C198.946 256.906 197.078 255.099 197.078 252.869C197.078 250.58 198.946 248.772 201.175 248.772C203.404 248.772 205.212 250.58 205.212 252.869Z" fill="white"/>
<path d="M227.144 252.869C227.144 255.099 225.336 256.906 223.107 256.906C220.878 256.906 219.07 255.099 219.07 252.869C219.07 250.58 220.878 248.772 223.107 248.772C225.336 248.772 227.144 250.58 227.144 252.869Z" fill="white"/>
<path d="M624.072 307.215C623.59 302.395 626.783 297.876 631.663 296.792C634.194 296.25 636.724 296.732 638.773 297.997C639.978 296.912 641.484 296.129 643.171 295.768C647.81 294.743 652.389 297.153 654.197 301.371C657.932 302.034 661.125 304.865 661.969 308.842C662.451 310.951 662.15 313.059 661.366 314.867C664.138 316.072 666.367 318.542 667.03 321.735C668.054 326.435 665.524 331.074 661.186 332.821C661.306 333.123 661.366 333.424 661.427 333.725C662.571 339.027 659.258 344.209 654.016 345.353C651.184 345.956 648.352 345.293 646.183 343.666C646.003 343.727 645.882 343.727 645.762 343.787C644.195 344.088 642.568 344.028 641.062 343.606C639.917 344.63 638.471 345.353 636.845 345.715C631.603 346.86 626.421 343.546 625.277 338.244C624.975 336.798 624.975 335.292 625.337 333.906C624.433 332.761 623.77 331.436 623.469 329.99C622.927 327.459 623.409 324.929 624.614 322.88C622.626 321.494 621.18 319.446 620.637 316.915C619.794 313.18 621.24 309.444 624.072 307.215Z" fill="#050F64"/>
<path d="M548.698 367.103C549.782 366.26 551.228 366.2 552.132 367.043C557.554 371.863 564.122 375.478 570.809 377.105C574.183 377.888 577.557 378.129 580.871 377.828C582.498 377.707 584.125 377.406 585.751 376.984C587.318 376.623 588.884 376.081 590.391 375.418C591.897 374.755 593.403 374.032 594.789 373.128L595.331 372.827L595.873 372.466C596.235 372.225 596.596 372.044 596.958 371.803C597.621 371.321 598.344 370.839 599.006 370.297C601.657 368.248 604.188 365.898 606.538 363.308C611.297 358.126 615.394 352.222 619.009 345.956C619.612 344.992 620.395 344.208 621.359 343.606C621.781 343.305 622.263 343.064 622.805 342.823C623.287 342.642 623.829 342.461 624.432 342.341C626.601 341.859 629.131 342.22 631.3 343.546C633.469 344.871 634.915 346.98 635.397 349.269C635.518 349.872 635.578 350.414 635.578 351.017C635.578 351.619 635.518 352.222 635.337 352.824C635.096 353.969 634.614 355.114 633.831 356.138C631.3 359.391 628.649 362.524 625.757 365.537C622.926 368.489 619.913 371.381 616.66 374.092C613.406 376.743 609.851 379.214 606.116 381.322C605.212 381.865 604.188 382.347 603.224 382.889C602.742 383.13 602.26 383.311 601.778 383.552L601.055 383.913L600.272 384.214C598.283 385.058 596.175 385.781 594.066 386.383C589.788 387.528 585.33 388.01 580.931 387.769C576.533 387.588 572.255 386.564 568.279 385.058C564.302 383.491 560.687 381.383 557.374 378.912C554.06 376.502 551.047 373.731 548.396 370.598C547.493 369.574 547.613 367.947 548.698 367.103Z" fill="#EA8096"/>
<path d="M603.043 361.802L615.515 345.594C619.31 340.654 626.119 339.389 630.999 343.124C635.939 346.92 637.084 354.391 633.288 359.271L620.817 375.478L603.043 361.802Z" fill="#FF654F"/>
<path d="M640.698 556.77C641.12 556.168 641.843 555.867 642.566 555.746C643.289 555.626 644.012 555.686 644.735 555.626C646.482 555.505 648.23 555.023 649.796 554.18C650.579 553.698 651.363 553.155 652.206 552.854L657.327 552.975C657.99 553.698 658.472 554.722 658.653 555.686C658.834 556.59 658.894 557.554 658.834 558.518V559.542H640.156V558.518C640.156 557.855 640.277 557.252 640.698 556.77Z" fill="#050F64"/>
<path d="M657.931 547.432L657.328 552.975L652.207 552.854L651.785 547.492L657.931 547.432Z" fill="#F5BDC8"/>
<path d="M636.361 437.897C631.36 450.67 624.853 462.118 617.744 470.553L609.911 548.757L584.727 547.311L596.475 470.794C597.018 467.36 597.801 463.986 598.825 460.672L616.84 404.579C618.768 397.229 658.352 402.531 658.352 402.531C669.318 417.714 662.389 466.034 662.389 466.034L668.293 547.251L641.482 547.673L641.603 467.179L636.361 437.897Z" fill="#155BCD"/>
<path d="M600.151 548.155L598.645 552.975L593.523 552.794L594.307 547.854L600.151 548.155Z" fill="#F5BDC8"/>
<path d="M582.015 556.77C582.437 556.168 583.16 555.867 583.883 555.746C584.606 555.626 585.329 555.686 586.052 555.626C587.799 555.565 589.546 555.023 591.113 554.18C591.896 553.698 592.679 553.155 593.523 552.794L598.644 552.975C599.307 553.698 599.789 554.662 599.969 555.686C600.21 556.59 600.21 557.554 600.15 558.457V559.542H581.473V558.518C581.473 557.855 581.593 557.252 582.015 556.77Z" fill="#050F64"/>
<path d="M642.686 335.653C627.141 334.749 614.429 347.884 615.814 363.368L616.839 404.579C633.829 411.688 646.964 408.254 658.351 402.53L662.327 359.632C664.014 347.402 654.977 336.376 642.686 335.653Z" fill="#FF654F"/>
<path d="M654.135 404.518V405C655.581 404.398 657.027 403.675 658.534 402.952L658.775 402.831L659.678 392.89L659.257 392.649L658.353 402.53C656.967 403.253 655.581 403.916 654.135 404.518ZM616.359 385.54H615.937L616.238 398.915H616.72L616.359 385.54ZM615.334 363.428L615.455 366.983L615.877 366.922L615.816 363.368C614.732 351.679 621.721 341.376 631.843 337.4L631.722 336.918C628.047 338.364 624.733 340.653 622.022 343.606C617.082 349.028 614.672 356.077 615.334 363.428ZM619.974 406.266C625.215 408.133 630.337 409.037 635.458 409.037C638.772 409.037 642.025 408.676 645.339 407.892L645.279 407.41C637.808 409.158 629.553 409.158 619.974 405.784V406.266ZM648.954 336.496V336.978C654.617 339.147 658.955 343.606 661.124 349.088C661.245 349.088 661.426 349.088 661.546 349.088C660.763 346.919 659.558 344.871 658.112 343.063C655.642 340.111 652.509 337.822 648.954 336.496Z" fill="white"/>
<path d="M634.977 326.977L635.037 342.582C638.411 344.751 641.785 344.751 645.219 342.521L645.159 326.917L634.977 326.977Z" fill="#F5BDC8"/>
<path d="M634.977 328.362V332.218C636.483 333.122 638.29 333.725 640.158 333.785C640.279 333.785 640.339 333.785 640.459 333.785C642.207 333.785 643.954 333.122 645.159 331.917V328.302L634.977 328.362Z" fill="#EA8096"/>
<path d="M630.699 312.276L630.94 321.373L631 323.362C631.181 328.423 635.218 332.459 640.219 332.7C640.761 332.7 641.243 332.64 641.785 332.52C641.966 332.52 642.147 332.459 642.327 332.399C642.388 332.339 642.448 332.339 642.448 332.339C643.171 332.038 643.834 331.616 644.436 331.013C645.641 329.748 646.424 328.362 647.147 326.916C647.75 325.651 648.352 324.386 648.774 323.121C649.256 321.614 649.497 320.048 649.437 318.361L649.136 310.408L633.651 308.48L630.699 312.276Z" fill="#F5BDC8"/>
<path d="M627.504 314.686C627.564 313.722 628.468 311.372 628.468 311.372C628.468 311.372 629.191 310.348 630.396 309.745C630.697 309.565 631.179 309.504 631.661 309.504C632.143 308.902 632.746 308.42 633.469 307.998C637.144 306.13 642.084 305.889 644.675 306.974C646.483 307.817 650.037 308.179 649.375 308.902C650.58 308.842 649.796 310.468 650.64 313.722C651.423 316.614 651.242 321.434 649.736 322.398C648.29 323.302 646.121 322.94 647.507 319.446C647.507 319.446 647.507 319.265 647.507 319.024C646.904 318.903 646.362 318.542 646.001 318.06C645.458 317.337 645.217 316.373 645.097 315.469C644.916 314.565 644.856 313.662 644.615 312.818C644.193 311.613 643.47 310.649 642.566 309.926C642.386 309.866 642.265 309.806 642.145 309.745C641.783 309.926 641.482 310.107 641.301 310.227C640.217 311.071 639.614 312.336 638.831 313.36C637.264 315.469 635.035 317.036 632.565 317.759C632.023 317.939 631.42 318 630.818 318C630.818 318.12 630.818 318.301 630.878 318.421C630.878 318.421 628.829 318.301 628.167 317.337C627.564 316.373 627.504 315.71 627.504 314.686Z" fill="#050F64"/>
<path d="M645.939 320.168C645.939 322.217 647.566 323.904 649.614 323.904C651.663 323.904 653.35 322.217 653.35 320.168C653.29 318.12 651.663 316.493 649.614 316.493C647.566 316.493 645.879 318.12 645.939 320.168Z" fill="#F5BDC8"/>
<path d="M641.179 445.609C643.77 443.018 643.77 438.801 641.179 436.21L561.348 356.379L551.949 365.778L631.78 445.609C634.371 448.2 638.589 448.2 641.179 445.609Z" fill="#050F64"/>
<path d="M550.203 387.468L583.099 354.631L573.098 344.63L540.262 377.526L550.203 387.468Z" fill="#155BCD"/>
<path d="M435.367 357.162C403.013 324.808 403.013 272.149 435.367 239.795C467.722 207.381 520.38 207.381 552.734 239.795C585.149 272.149 585.149 324.808 552.734 357.162C520.38 389.516 467.722 389.516 435.367 357.162ZM427.535 364.995C464.227 401.687 523.875 401.687 560.567 364.995C597.259 328.302 597.259 268.595 560.567 231.963C523.875 195.27 464.227 195.27 427.535 231.963C390.843 268.595 390.843 328.302 427.535 364.995Z" fill="#050F64"/>
<path d="M622.082 439.885C621.118 438.921 620.938 437.536 621.661 436.572C622.685 435.126 623.709 433.619 624.613 432.113C625.095 431.33 625.517 430.547 625.999 429.763C626.42 428.98 626.842 428.197 627.264 427.414C628.891 424.16 630.337 420.846 631.602 417.533C634.132 410.785 635.94 403.735 637.205 396.686L637.446 395.361L637.627 394.035L637.988 391.384L638.35 388.673C638.41 387.829 638.531 386.926 638.591 386.022C638.772 384.214 638.952 382.467 639.013 380.66L639.193 377.948C639.193 377.045 639.254 376.201 639.254 375.297C639.434 368.128 639.133 360.958 638.47 353.788C638.29 351.559 639.133 349.45 640.7 347.823C642.266 346.197 644.495 345.052 647.086 344.871C649.617 344.751 651.966 345.594 653.653 347.161C655.401 348.667 656.485 350.956 656.365 353.427C656.003 361.259 655.22 369.031 653.894 376.743C653.774 377.707 653.593 378.671 653.412 379.635L652.87 382.527C652.509 384.455 652.027 386.323 651.545 388.251C651.364 389.215 651.123 390.119 650.822 391.083L650.099 393.915L649.255 396.746L648.833 398.132L648.351 399.518C645.941 406.929 642.929 414.159 639.193 421.027C637.326 424.401 635.277 427.715 632.988 430.908C632.445 431.691 631.843 432.475 631.301 433.258C630.698 434.041 630.096 434.824 629.433 435.547C628.228 437.054 626.902 438.56 625.517 439.946C624.613 440.91 622.986 440.91 622.082 439.885Z" fill="#F5BDC8"/>
<path d="M658.171 376.683L658.231 356.198C658.291 349.992 653.712 344.751 647.507 344.751C641.361 344.69 635.878 349.872 635.818 356.078L635.758 376.563L658.171 376.683Z" fill="#FF654F"/>
<path d="M658.172 376.683L645.279 376.623L645.339 377.045L658.594 377.105L658.654 371.261H658.172V376.683ZM657.208 350.113L656.847 350.414C657.751 352.101 658.293 354.089 658.233 356.198V363.247L658.654 363.308L658.715 356.198C658.715 354.029 658.172 351.92 657.208 350.113ZM635.518 354.33L635.94 354.511C636.784 349.028 641.845 344.69 647.508 344.751C648.291 344.751 649.014 344.811 649.677 344.992L649.858 344.57C649.135 344.389 648.352 344.269 647.508 344.269C644.435 344.269 641.363 345.534 639.073 347.763C637.145 349.571 635.94 351.86 635.518 354.33ZM635.338 366.019L635.277 376.984L639.133 377.045L639.194 376.563H635.759V366.079L635.338 366.019Z" fill="white"/>
<path d="M115.862 559.542H140.865C140.865 558.698 140.685 557.915 140.203 557.252C139.6 556.469 138.636 556.047 137.672 555.867C136.708 555.746 135.744 555.746 134.78 555.746C132.43 555.626 130.081 554.903 127.972 553.758C126.887 553.155 125.923 552.432 124.718 552.011L117.91 552.131C117.006 553.155 116.404 554.481 116.103 555.806C115.862 557.072 115.801 558.337 115.862 559.542Z" fill="#050F64"/>
<path d="M67.178 559.542H92.1817C92.1817 558.698 92.001 557.915 91.519 557.252C90.9165 556.469 89.9525 556.047 88.9885 555.867C88.0245 555.746 87.0605 555.746 86.0965 555.746C83.7467 555.626 81.397 554.903 79.2882 553.758C78.2037 553.155 77.2397 552.432 76.0347 552.011L69.2265 552.131C68.3227 553.155 67.7202 554.481 67.419 555.806C67.178 557.072 67.1177 558.337 67.178 559.542Z" fill="#050F64"/>
<path d="M126.044 552.011L123.333 475.011C123.333 475.011 123.272 473.626 123.212 473.385L116.584 419.943C116.103 413.255 62.7812 423.859 62.7812 423.859L68.746 552.252L77.6027 552.011L90.0142 447.116L104.956 476.698L117.066 552.252L126.044 552.011Z" fill="#155BCD"/>
<path d="M141.71 365.958C140.264 365.958 139.059 366.802 138.939 367.826C138.577 370.899 138.035 373.911 137.192 376.743C137.011 377.406 136.77 378.069 136.529 378.731C136.469 378.912 136.408 379.033 136.348 379.153L136.167 379.515C136.047 379.695 135.926 379.936 135.806 380.117C135.324 380.9 134.782 381.623 134.119 382.105C133.456 382.587 132.613 382.889 131.769 382.768C130.986 382.648 130.263 382.286 129.66 381.804C129.359 381.563 129.118 381.322 128.877 381.021C128.757 380.9 128.636 380.78 128.516 380.659L128.335 380.418L128.034 380.117C127.19 379.153 126.347 378.069 125.563 376.924C124.72 375.779 123.997 374.574 123.274 373.369C122.551 372.104 121.828 370.778 121.165 369.453C119.84 366.802 118.635 364.091 117.55 361.259C115.321 355.656 113.453 349.811 111.826 343.907C111.284 342.039 109.718 340.714 107.669 339.991C105.56 339.328 102.97 339.328 100.379 340.171C97.7881 341.075 95.7396 342.642 94.5948 344.57C93.3898 346.437 93.0886 348.606 93.9321 350.595C96.8241 356.62 99.9571 362.584 103.512 368.368C105.319 371.321 107.247 374.152 109.296 376.924C111.405 379.695 113.634 382.407 116.225 384.997C117.55 386.263 118.936 387.528 120.442 388.673L121.045 389.155L121.828 389.697C122.31 390.058 122.852 390.36 123.394 390.721C123.635 390.902 123.937 391.022 124.238 391.143C124.479 391.324 124.72 391.444 125.021 391.565C125.563 391.806 126.166 392.107 126.708 392.288C127.25 392.529 127.853 392.649 128.395 392.83C128.998 392.95 129.6 393.071 130.142 393.131C131.287 393.252 132.492 393.252 133.637 393.071C135.866 392.649 137.975 391.444 139.541 389.817C141.108 388.13 142.192 386.082 142.976 383.913C143.156 383.431 143.337 382.828 143.458 382.346L143.638 381.563C143.699 381.262 143.819 381.021 143.819 380.78C144 379.876 144.12 379.033 144.241 378.129C144.663 374.634 144.602 371.26 144.422 367.947C144.361 366.802 143.156 365.958 141.71 365.958Z" fill="#EA8096"/>
<path d="M101.102 378.009L93.0886 356.258C90.6786 349.691 93.5103 342.401 100.078 339.991C106.645 337.521 114.417 340.895 116.887 347.462L124.901 369.212L101.102 378.009Z" fill="#FF654F"/>
<path d="M84.9524 332.941C98.5086 330.833 110.92 340.834 111.824 354.511L116.584 419.942C95.4359 431.872 82.3616 428.98 62.7804 423.859L60.5511 362.343C60.0691 347.763 70.5526 335.11 84.9524 332.941Z" fill="#FF654F"/>
<path d="M88.5083 332.64C100.619 332.64 110.982 342.039 111.825 354.511L113.271 374.514H113.994L112.548 354.451C111.705 341.798 101.161 331.917 88.5083 331.917C87.3033 331.917 86.0381 332.038 84.8331 332.219C84.7728 332.219 84.6523 332.219 84.5921 332.219L84.5318 333.002C84.6523 332.942 84.8331 332.942 84.9536 332.942C86.1586 332.761 87.3033 332.64 88.5083 332.64ZM115.802 398.976L115.018 399.036L116.585 419.943C96.5818 431.209 83.7486 429.221 65.7941 424.642L65.8543 425.425C74.2893 427.594 81.1578 429.04 88.3276 429.04C97.7266 429.04 106.583 426.389 116.886 420.545L117.308 420.364L115.802 398.976ZM60.7933 368.489H60.0703L61.1548 398.373H61.8778L60.7933 368.489Z" fill="white"/>
<path d="M93.9912 326.073L91.8824 342.582C88.0264 344.51 84.4114 344.028 81.0977 341.256L83.2064 324.748L93.9912 326.073Z" fill="#F5BDC8"/>
<path d="M93.9911 326.073L93.0271 333.544C92.2438 333.785 91.4003 333.845 90.5568 333.785C90.2556 333.785 90.0146 333.785 89.7133 333.725C86.7611 333.363 84.1703 331.616 82.6641 329.146L83.2063 324.748L93.9911 326.073Z" fill="#EA8096"/>
<path d="M100.135 316.614L99.0509 323.482L98.5689 326.254C97.9062 330.11 94.5322 332.881 90.6159 332.701C89.2904 332.64 88.0854 332.339 87.0009 331.737C86.6997 331.616 86.4587 331.496 86.2177 331.315C86.0972 331.194 85.9164 331.134 85.7959 331.014C84.4102 329.989 83.3859 328.604 82.7834 326.917C82.3014 325.471 81.8797 323.904 81.5182 322.277C81.2772 321.374 81.0964 320.41 80.9157 319.446C80.0119 315.168 81.4579 310.649 84.8922 307.878C87.7842 305.528 91.0979 305.106 94.8334 306.793C98.6894 308.42 100.858 312.517 100.135 316.614Z" fill="#F5BDC8"/>
<path d="M102.304 318.722C103.148 318.06 103.329 316.794 103.268 315.71C103.268 314.565 103.148 313.42 103.63 312.456C104.232 311.191 105.678 310.589 106.04 309.203C106.401 307.877 105.558 306.672 104.714 305.829C102.545 303.479 100.376 301.129 98.2074 298.78C97.3639 297.816 96.4601 296.852 95.3154 296.309C94.1707 295.767 92.7849 295.707 91.7004 296.611C91.1581 297.093 90.7364 297.755 90.1339 298.177C88.8686 299.141 87.2419 298.599 85.8561 298.237C84.1089 297.695 82.1809 297.454 80.4939 298.358C78.7466 299.201 77.3006 301.431 77.6019 303.539C77.7826 304.564 78.2646 305.407 78.6864 306.251C79.0479 307.154 79.2889 308.239 78.9274 309.203C78.4454 310.528 77.1199 311.01 76.0956 311.733C74.6496 312.818 73.5651 314.686 73.3844 316.674C73.1434 318.602 73.7459 320.59 74.9509 321.795C75.9751 322.88 77.7224 323.241 78.7466 321.916C79.9516 320.47 79.5299 317.638 81.0361 316.734C82.8436 315.71 84.5909 319.144 86.3984 317.999C87.3624 317.397 87.6034 315.891 88.4469 315.047C89.5917 313.963 91.0376 314.565 92.1824 315.047C93.3874 315.469 94.5322 315.71 95.7974 315.951C96.9422 316.192 97.8459 316.734 98.7497 317.517C99.7136 318.301 100.979 319.686 102.304 318.722Z" fill="#050F64"/>
<path d="M86.219 319.928C85.978 321.916 83.9295 323.302 81.7003 323C79.471 322.759 77.9045 320.892 78.1455 318.903C78.3865 316.915 80.435 315.529 82.6643 315.831C84.8935 316.132 86.46 317.939 86.219 319.928Z" fill="#F5BDC8"/>
<path d="M107.305 415.544H146.106L162.072 365.296H123.271L107.305 415.544Z" fill="#155BCD"/>
<path d="M156.592 401.868C156.833 403.193 155.688 404.458 154.302 404.519C150.145 404.76 146.108 404.398 142.132 403.796C138.155 403.133 134.239 402.169 130.383 401.024C129.479 400.723 128.455 400.422 127.551 400.06L124.72 399.096L121.888 398.012C120.924 397.65 120.02 397.289 119.116 396.867L117.731 396.325L116.345 395.722C115.441 395.3 114.537 394.879 113.634 394.457C111.826 393.553 110.019 392.71 108.271 391.746C94.1127 384.335 81.0987 374.996 68.9282 364.754C68.5064 364.332 68.0847 363.85 67.7232 363.368C67.3617 362.886 67.0604 362.344 66.8194 361.801C66.3374 360.717 66.0964 359.572 66.0964 358.427C66.0362 356.078 67.0002 353.788 68.8077 351.981C70.6152 350.233 72.9649 349.33 75.2544 349.33C76.3992 349.33 77.5439 349.51 78.5682 349.932C79.1104 350.173 79.5924 350.474 80.0744 350.776C80.4962 351.077 80.9782 351.438 81.3999 351.86C91.3412 363.006 102.186 373.309 114.236 381.925C115.742 383.07 117.309 384.034 118.815 385.118C119.598 385.6 120.382 386.082 121.165 386.564L122.37 387.347L123.575 388.01C124.358 388.492 125.141 388.974 125.925 389.456L128.395 390.782L130.865 392.047C131.648 392.469 132.492 392.83 133.335 393.252C136.709 394.758 140.144 396.144 143.638 397.228C147.133 398.253 150.748 399.096 154.302 399.397C155.507 399.458 156.411 400.482 156.592 401.868Z" fill="#F4BCC7"/>
<path d="M88.5665 384.937L70.4915 369.875C65.0088 365.296 63.8038 357.403 68.3828 351.981C72.9618 346.498 81.5775 345.534 87 350.053L105.075 365.175L88.5665 384.937Z" fill="#FF654F"/>
<path d="M104.114 366.32L97.7874 373.912L98.4502 374.153L104.596 366.742C104.475 366.622 104.294 366.441 104.114 366.32ZM75.9769 374.454L75.5552 374.996L88.6294 385.902L94.4737 378.852L93.8712 378.551L88.5692 384.938L75.9769 374.454ZM78.8087 346.498C75.7359 346.498 72.7234 347.522 70.3134 349.27L70.7352 349.752C74.9527 346.739 80.7367 346.317 85.2554 348.848L85.6772 348.366C83.6889 347.161 81.2789 346.498 78.8087 346.498ZM65.0114 361.32C65.4332 364.453 66.8792 367.345 69.2289 369.634L69.7712 369.212C65.8549 365.417 64.5294 359.874 66.5177 355.114L65.9152 354.752C65.0114 356.801 64.7102 359.03 65.0114 361.32ZM93.1482 355.174L102.788 363.248L103.21 362.705L93.5699 354.632L93.1482 355.174Z" fill="white"/>
</svg>
