<svg width="176" height="52" viewBox="0 0 176 52" fill="none" xmlns="http://www.w3.org/2000/svg">
<g clip-path="url(#clip0_16465_49492)">
<path d="M74.668 43.5324V43.322H75.346V38.2886H74.7027V38.0781H76.8932V38.2886H76.163V43.322H77.2757C77.6014 43.3476 77.9246 43.2473 78.1797 43.0413C78.4272 42.7396 78.5894 42.3761 78.6491 41.9891H78.8056L78.7186 43.5324H74.668Z" fill="white"/>
<path d="M79.2578 43.5324V43.322H79.8662V38.2886H79.2578V38.0781H83.2737V39.3935H83.0998C83.0787 39.07 82.943 38.765 82.7174 38.5341C82.4139 38.3507 82.0621 38.265 81.709 38.2886H80.7529V40.6036H80.9267C81.1902 40.6241 81.453 40.5563 81.6743 40.4106C81.8346 40.2185 81.9264 39.9777 81.935 39.7267H82.1089V41.7786H81.935C81.9409 41.6405 81.9194 41.5027 81.8716 41.3732C81.8239 41.2437 81.7508 41.1251 81.6569 41.0245C81.4097 40.8468 81.107 40.7658 80.805 40.7965V43.322H81.9524C82.3057 43.3545 82.6585 43.2546 82.9434 43.0413C83.2039 42.7411 83.3676 42.368 83.4128 41.9716H83.5866L83.4997 43.5324H79.2578Z" fill="white"/>
<path d="M85.0292 43.5324V43.322H85.7072V38.2886H85.4291C85.2757 38.2753 85.1212 38.2933 84.9749 38.3415C84.8285 38.3897 84.6933 38.4672 84.5772 38.5692C84.3409 38.8872 84.191 39.2621 84.1426 39.6565H83.9688V38.0781H88.1237V39.6565H87.9325C87.9033 39.2687 87.7645 38.8975 87.5326 38.5867C87.2748 38.3718 86.9449 38.265 86.6112 38.2886H86.3852V43.322H87.0633V43.5324H85.0292Z" fill="white"/>
<path d="M88.836 43.5459H88.6969V42.1253H88.8534C88.9571 42.4956 89.1692 42.8257 89.4619 43.0724C89.7241 43.2972 90.0565 43.4214 90.4006 43.4231C90.7604 43.4338 91.11 43.3015 91.3742 43.0548C91.5036 42.946 91.6069 42.8089 91.6762 42.654C91.7454 42.4991 91.7789 42.3303 91.774 42.1604C91.774 41.7395 91.3742 41.4063 90.5571 41.1432H90.418C89.9189 41.0119 89.4515 40.7791 89.0446 40.4592C88.926 40.3334 88.8341 40.1846 88.7743 40.0217C88.7145 39.8589 88.6882 39.6856 88.6969 39.5122C88.6905 39.3062 88.7274 39.1012 88.8053 38.9107C88.8833 38.7203 89.0003 38.5487 89.1489 38.4073C89.2992 38.2636 89.4769 38.1522 89.6711 38.0799C89.8654 38.0075 90.0722 37.9757 90.279 37.9864C90.6257 37.9856 90.9647 38.0894 91.2525 38.2845H91.3568L91.5133 38.0916H91.6871V39.3894H91.548C91.4517 39.0534 91.258 38.7541 90.9918 38.5301C90.7435 38.3367 90.4359 38.2374 90.1225 38.2494C89.8356 38.2376 89.5553 38.3382 89.3402 38.5301C89.2413 38.6099 89.1618 38.7114 89.1075 38.8268C89.0533 38.9423 89.0259 39.0687 89.0273 39.1965C89.0218 39.3002 89.041 39.4036 89.0833 39.4982C89.1257 39.5928 89.1899 39.6758 89.2706 39.7402C89.5071 39.9208 89.7801 40.0465 90.0703 40.1085H90.3137C90.7497 40.1915 91.1675 40.3518 91.548 40.582C91.7189 40.7176 91.8559 40.8918 91.9479 41.0906C92.0416 41.3123 92.0889 41.5511 92.087 41.7921C92.1027 42.0404 92.0659 42.2892 91.9789 42.522C91.892 42.7548 91.757 42.9664 91.5828 43.1425C91.4082 43.3182 91.1986 43.4544 90.9678 43.5421C90.737 43.6298 90.4903 43.667 90.2442 43.6511C89.8608 43.6457 89.4869 43.5301 89.1663 43.3179H89.0794L88.836 43.5459Z" fill="white"/>
<path d="M99.6864 41.5974H101.842V41.8078H101.355C101.367 42.0629 101.323 42.3175 101.227 42.5538C101.131 42.7901 100.985 43.0024 100.799 43.1758C100.359 43.5207 99.8078 43.6893 99.2518 43.6493C98.9242 43.6653 98.5974 43.6056 98.2961 43.475C97.9949 43.3443 97.7271 43.146 97.5133 42.8952C97.067 42.322 96.8388 41.6065 96.87 40.8783C96.8698 40.4959 96.9345 40.1162 97.0613 39.7559C97.1791 39.4119 97.3556 39.0915 97.5828 38.8088C97.8004 38.549 98.0661 38.3345 98.3651 38.1775C98.8886 37.9546 99.4729 37.9236 100.017 38.0898C100.239 38.1726 100.449 38.2847 100.643 38.423L100.938 38.1424H101.06V39.5279H100.886C100.801 39.147 100.608 38.7995 100.33 38.5282C100.052 38.2943 99.7002 38.1697 99.3387 38.1775C99.1019 38.1659 98.8668 38.2223 98.6605 38.3403C98.4543 38.4583 98.2855 38.633 98.1739 38.8439C97.8877 39.4875 97.7624 40.192 97.8088 40.8958C97.7537 41.5795 97.8672 42.2664 98.1391 42.8952C98.2442 43.0875 98.4014 43.2456 98.5922 43.3512C98.7831 43.4568 98.9998 43.5054 99.217 43.4915C99.3895 43.5071 99.5633 43.4837 99.7257 43.423C99.8881 43.3623 100.035 43.2659 100.156 43.1407C100.372 42.8091 100.47 42.4134 100.434 42.0183V41.8429H99.669L99.6864 41.5974Z" fill="white"/>
<path d="M102.273 43.5324V43.322H102.882V38.2886H102.273V38.0781H106.289V39.3935H106.115C106.094 39.07 105.959 38.765 105.733 38.5341C105.429 38.3507 105.078 38.265 104.725 38.2886H103.716V40.6036H103.873C104.136 40.6268 104.4 40.5588 104.62 40.4106C104.707 40.3198 104.774 40.2126 104.819 40.0951C104.864 39.9777 104.885 39.8525 104.881 39.7267H105.055V41.7786H104.881C104.887 41.6405 104.865 41.5027 104.818 41.3732C104.77 41.2437 104.697 41.1251 104.603 41.0245C104.356 40.8468 104.053 40.7658 103.751 40.7965V43.322H104.881C105.234 43.3545 105.587 43.2546 105.872 43.0413C106.133 42.7411 106.296 42.368 106.341 41.9716H106.515L106.428 43.5324H102.273Z" fill="white"/>
<path d="M108.045 43.5324V43.322H108.723V38.2886H108.445C108.291 38.2753 108.137 38.2933 107.99 38.3415C107.844 38.3897 107.709 38.4672 107.593 38.5692C107.364 38.8912 107.215 39.2642 107.158 39.6565H106.984V38.0781H111.157V39.6565H110.983C110.949 39.2669 110.804 38.8955 110.566 38.5867C110.31 38.3685 109.978 38.2613 109.644 38.2886H109.418V43.322H110.096V43.5324H108.045Z" fill="white"/>
<path d="M115.816 43.318H116.46V38.2846H115.851V38.0741H118.146C118.63 38.0479 119.111 38.1572 119.537 38.3898C119.69 38.481 119.816 38.6123 119.902 38.7696C119.987 38.927 120.029 39.1048 120.024 39.2842C120.028 39.4602 119.991 39.6348 119.916 39.7934C119.84 39.952 119.728 40.0901 119.589 40.1962C119.23 40.4438 118.807 40.5781 118.372 40.582C118.727 40.6347 119.063 40.7798 119.346 41.003C119.577 41.1997 119.731 41.4733 119.78 41.7746C119.793 41.9966 119.793 42.2191 119.78 42.4411C119.747 42.6443 119.747 42.8517 119.78 43.0549C119.801 43.1441 119.849 43.2242 119.919 43.2829C120.005 43.3031 120.094 43.3031 120.18 43.2829H120.389H120.597V43.4933C120.475 43.55 120.347 43.5912 120.215 43.6161H119.85C119.698 43.6219 119.548 43.5877 119.414 43.517C119.28 43.4463 119.166 43.3413 119.085 43.2127C118.882 42.8173 118.781 42.3774 118.789 41.9325C118.808 41.6183 118.715 41.3077 118.528 41.0556C118.423 40.9276 118.284 40.8306 118.129 40.775C117.97 40.705 117.798 40.6692 117.624 40.6698H117.259V43.318H117.885V43.5284H115.816V43.318ZM117.259 40.4593H117.746C118.133 40.4956 118.522 40.4098 118.859 40.2138C118.965 40.0964 119.045 39.9573 119.093 39.8059C119.141 39.6546 119.156 39.4946 119.137 39.3369C119.157 39.1899 119.146 39.0402 119.104 38.898C119.062 38.7558 118.99 38.6243 118.894 38.5126C118.626 38.3226 118.297 38.2412 117.972 38.2846H117.259V40.4593Z" fill="white"/>
<path d="M121.258 43.5324V43.322H121.866V38.2886H121.258V38.0781H125.274V39.3935H125.1C125.079 39.07 124.943 38.765 124.717 38.5341C124.414 38.3507 124.062 38.265 123.709 38.2886H122.683V40.6036H122.857C123.121 40.6241 123.383 40.5563 123.605 40.4106C123.765 40.2185 123.857 39.9777 123.866 39.7267H124.039V41.7786H123.866C123.871 41.6405 123.85 41.5027 123.802 41.3732C123.754 41.2437 123.681 41.1251 123.587 41.0245C123.34 40.8468 123.037 40.7658 122.736 40.7965V43.322H123.883C124.236 43.3545 124.589 43.2546 124.874 43.0413C125.134 42.7411 125.298 42.368 125.343 41.9716H125.517L125.43 43.5324H121.258Z" fill="white"/>
<path d="M130.126 42.0708H130.283V43.5264H130.109L129.848 43.2809C129.676 43.4093 129.481 43.5044 129.274 43.5615C129.037 43.6295 128.791 43.6591 128.544 43.6492C128.228 43.6588 127.915 43.594 127.628 43.4601C127.341 43.3261 127.09 43.1267 126.893 42.8775C126.444 42.3189 126.216 41.6135 126.249 40.8957C126.242 40.5199 126.301 40.1459 126.423 39.7908C126.523 39.455 126.682 39.1401 126.893 38.8613C127.109 38.589 127.382 38.3675 127.692 38.2124C127.988 38.0607 128.316 37.9826 128.648 37.9844C128.856 37.9826 129.062 38.0183 129.257 38.0897C129.466 38.1669 129.66 38.2796 129.831 38.4229L130.109 38.1423H130.23V39.5277H130.057C129.979 39.1482 129.791 38.8004 129.518 38.5281C129.272 38.2984 128.948 38.1728 128.614 38.1773C128.384 38.1677 128.157 38.2277 127.962 38.3497C127.767 38.4716 127.612 38.6499 127.518 38.8613C127.253 39.5656 127.14 40.3191 127.188 41.0711C127.165 41.4449 127.165 41.8197 127.188 42.1935C127.223 42.4221 127.299 42.6422 127.414 42.8424C127.519 43.0299 127.676 43.1823 127.866 43.2809C128.047 43.3994 128.259 43.4605 128.475 43.4563C128.837 43.4674 129.19 43.3423 129.466 43.1055C129.762 42.8258 129.973 42.4669 130.074 42.0708" fill="white"/>
<path d="M131.168 43.3193H131.811V38.2859H131.168V38.0754H133.445C133.929 38.0445 134.412 38.154 134.836 38.3911C134.993 38.4801 135.122 38.6104 135.211 38.7679C135.3 38.9255 135.345 39.1044 135.34 39.2856C135.342 39.4628 135.301 39.6378 135.223 39.7963C135.144 39.9548 135.03 40.0923 134.888 40.1975C134.535 40.4418 134.117 40.5759 133.689 40.5834C134.04 40.6324 134.371 40.7781 134.645 41.0043C134.881 41.1967 135.037 41.4725 135.08 41.7759C135.104 41.9974 135.104 42.2209 135.08 42.4424C135.049 42.6458 135.049 42.8528 135.08 43.0562C135.106 43.1473 135.161 43.2273 135.236 43.2842C135.322 43.3044 135.411 43.3044 135.497 43.2842H135.688H135.914V43.4947C135.786 43.5517 135.652 43.5929 135.514 43.6174H135.166C135.015 43.6269 134.863 43.5943 134.728 43.5232C134.593 43.4522 134.48 43.3452 134.402 43.2141C134.191 42.8217 134.089 42.3796 134.106 41.9338C134.124 41.6196 134.032 41.309 133.845 41.0569C133.739 40.9289 133.601 40.832 133.445 40.7763C133.281 40.7045 133.103 40.6686 132.924 40.6711H132.454V43.3193H133.08V43.5297H131.168V43.3193ZM132.611 40.4606H133.08C133.468 40.4993 133.857 40.4134 134.193 40.2151C134.379 39.9613 134.48 39.6539 134.48 39.3382C134.48 39.0224 134.379 38.715 134.193 38.4613C133.918 38.2732 133.584 38.1921 133.254 38.2333H132.559L132.611 40.4606Z" fill="white"/>
<path d="M137.182 42.1469V38.2886H136.539V38.0781H138.573V38.2886H137.965V42.1118C137.939 42.4566 138.038 42.7991 138.243 43.0764C138.356 43.1847 138.49 43.2686 138.636 43.3229C138.783 43.3771 138.939 43.4007 139.095 43.3921C139.279 43.4067 139.465 43.3779 139.637 43.3079C139.809 43.2379 139.963 43.1286 140.086 42.9887C140.336 42.6449 140.453 42.221 140.416 41.7962V38.2886H139.86V38.0781H141.337V38.2886H140.729V41.7962C140.766 42.3001 140.603 42.7983 140.277 43.1817C140.092 43.345 139.877 43.4694 139.644 43.5477C139.412 43.626 139.166 43.6566 138.921 43.6377C138.473 43.6689 138.031 43.5244 137.686 43.2343C137.533 43.0932 137.412 42.9191 137.334 42.7248C137.256 42.5306 137.222 42.3211 137.234 42.1118" fill="white"/>
<path d="M141.879 43.5324V43.322H142.557V38.2886H141.879V38.0781H144.069V38.2886H143.374V43.322H144.069V43.5324H141.879Z" fill="white"/>
<path d="M145.475 43.5324V43.322H146.153V38.2886H145.874C145.721 38.2753 145.567 38.2933 145.42 38.3415C145.274 38.3897 145.139 38.4672 145.023 38.5692C144.793 38.8912 144.644 39.2642 144.588 39.6565H144.414V38.0781H148.586V39.6565H148.552C148.526 39.2649 148.38 38.8911 148.134 38.5867C147.878 38.3685 147.547 38.2613 147.213 38.2886H146.987V43.322H147.648V43.5324H145.475Z" fill="white"/>
<path d="M149.18 43.5324V43.322H149.788V38.2886H149.18V38.0781H153.178V39.3935H153.004C152.99 39.0684 152.853 38.7611 152.622 38.5341C152.322 38.3428 151.967 38.2565 151.614 38.2886H150.605V40.6036H150.762C151.025 40.6268 151.289 40.5588 151.509 40.4106C151.596 40.3198 151.663 40.2126 151.708 40.0951C151.753 39.9777 151.774 39.8525 151.77 39.7267H151.944V41.7786H151.77C151.78 41.6401 151.761 41.5011 151.713 41.3709C151.665 41.2408 151.589 41.1226 151.492 41.0245C151.246 40.8438 150.942 40.7624 150.64 40.7965V43.322H151.787C152.135 43.3534 152.482 43.2534 152.761 43.0413C153.022 42.7411 153.185 42.368 153.23 41.9716H153.422V43.5324H149.18Z" fill="white"/>
<path d="M154.761 43.3206V38.2872H154.152V38.0768H156.117C156.48 38.0515 156.844 38.1007 157.188 38.2212C157.531 38.3418 157.847 38.5312 158.116 38.7783C158.363 39.0379 158.555 39.3466 158.677 39.6848C158.8 40.0229 158.852 40.3831 158.829 40.7425C158.838 41.2062 158.749 41.6666 158.568 42.093C158.4 42.4854 158.137 42.829 157.803 43.0926C157.6 43.245 157.37 43.358 157.125 43.4258C156.824 43.5022 156.514 43.5376 156.204 43.531H154.152V43.3206H154.761ZM155.578 38.2872V43.3206H156.169C156.409 43.3207 156.649 43.2913 156.882 43.2329C157.07 43.1922 157.244 43.1014 157.386 42.9699C157.587 42.7938 157.732 42.562 157.803 42.3034C157.901 41.8011 157.942 41.2892 157.925 40.7776C157.94 40.3075 157.905 39.8371 157.821 39.3746C157.762 39.1263 157.643 38.897 157.473 38.7081C157.313 38.5623 157.123 38.4544 156.917 38.3924C156.645 38.3138 156.364 38.2783 156.082 38.2872H155.578Z" fill="white"/>
<path d="M46.4336 34.3023V33.3553H49.1282V10.3455H46.4336V9.39844H53.8743L59.0898 27.8133L64.6529 9.39844H71.9024V10.3455H68.9991V33.3553H71.9024V34.3023H62.6884V33.3553H65.47V10.6787H65.3309L58.1858 34.3023H57.247L50.5886 10.6787H50.293V33.3553H53.0746V34.3023H46.4336Z" fill="white"/>
<path d="M78.442 24.8688H85.396V24.5006C85.4884 23.3423 85.221 22.1838 84.631 21.1859C84.331 20.8285 83.9499 20.5495 83.5201 20.3724C83.0904 20.1953 82.6246 20.1254 82.1623 20.1687C81.6508 20.1376 81.1391 20.2277 80.6682 20.4317C80.1973 20.6357 79.7802 20.948 79.4503 21.3437C78.7446 22.3745 78.3685 23.5985 78.3725 24.8513M78.2508 25.9036V27.1137C78.0987 28.924 78.4351 30.742 79.2243 32.3751C79.6005 32.8944 80.105 33.3053 80.6876 33.5669C81.2702 33.8284 81.9105 33.9315 82.5448 33.8658C83.793 33.9153 85.0203 33.5316 86.0218 32.7785C86.9852 32.0107 87.6599 30.9341 87.9341 29.7268H88.7686C88.5114 31.2224 87.7274 32.574 86.5607 33.5326C85.0955 34.4931 83.3548 34.9335 81.6137 34.7842C79.8725 34.635 78.2304 33.9045 76.9469 32.7083C76.2624 32.041 75.7209 31.2391 75.3561 30.3522C74.9913 29.4653 74.8108 28.5123 74.8259 27.5521C74.7827 25.4522 75.5565 23.4186 76.9816 21.8874C77.6396 21.1518 78.4446 20.5653 79.3436 20.1663C80.2425 19.7673 81.215 19.5649 82.1971 19.5724C83.035 19.5253 83.8738 19.6467 84.6648 19.9298C85.4557 20.2128 86.1829 20.6517 86.8041 21.221C88.0204 22.5188 88.7198 24.2234 88.7686 26.0088L78.2508 25.9036Z" fill="white"/>
<path d="M105.629 9.03125V33.4265H107.663V34.3034C106.533 34.3034 105.595 34.3034 104.83 34.3034C104.141 34.3605 103.457 34.4541 102.778 34.584V31.9007C102.31 32.7526 101.621 33.4602 100.785 33.9482C99.9491 34.4361 98.9977 34.6862 98.0321 34.6717C97.1127 34.6832 96.202 34.4913 95.364 34.1095C94.526 33.7277 93.7811 33.1653 93.1817 32.4619C91.8717 30.9963 91.1578 29.0862 91.1825 27.1129C91.1291 25.122 91.839 23.1872 93.1644 21.7112C93.7787 21.0147 94.5346 20.4599 95.3806 20.0846C96.2266 19.7094 97.1428 19.5224 98.0669 19.5365C99.0475 19.513 100.016 19.7617 100.866 20.2555C101.64 20.7594 102.246 21.4866 102.604 22.3425V10.1888H100.17V9.41709H100.779C101.561 9.41709 102.344 9.41709 103.126 9.41709C103.908 9.41709 104.725 9.25924 105.542 9.13647M102.657 29.9716V24.9031C102.658 24.3221 102.541 23.7471 102.314 23.2133C102.087 22.6795 101.754 22.1981 101.335 21.7989C100.942 21.3735 100.465 21.0353 99.9357 20.8058C99.4059 20.5764 98.8346 20.4606 98.2581 20.466C97.6881 20.4219 97.1172 20.5399 96.6102 20.8065C96.1032 21.0731 95.6803 21.4776 95.3897 21.9743C94.7484 23.6052 94.4982 25.3659 94.6595 27.1129C94.5242 28.9419 94.8283 30.7768 95.5461 32.4619C95.8434 32.975 96.2789 33.3924 96.8021 33.6656C97.3253 33.9388 97.9146 34.0566 98.5015 34.0053C99.6129 33.993 100.675 33.5393 101.457 32.7425C101.862 32.3831 102.186 31.9406 102.408 31.4446C102.63 30.9486 102.744 30.4105 102.743 29.8663L102.657 29.9716Z" fill="white"/>
<path d="M109.836 34.3023V33.3553H112.913V10.3455H109.975V9.39844H120.058V10.3455H116.686V33.3553H121.745C123.234 33.4698 124.712 33.0125 125.882 32.075C127.025 30.7083 127.776 29.0529 128.055 27.2872H128.768L128.351 34.3023H109.836Z" fill="white"/>
<path d="M130.422 34.3046V33.4277H132.908V20.625H130.544V19.8182H131.256C132.039 19.8182 132.821 19.8182 133.603 19.8182C134.386 19.8182 135.098 19.678 135.794 19.5727V33.6031H137.967V34.48L130.422 34.3046ZM132.63 12.1016C132.623 11.8523 132.669 11.6044 132.765 11.3746C132.861 11.1447 133.005 10.9382 133.186 10.7687C133.361 10.5971 133.568 10.4623 133.794 10.372C134.021 10.2817 134.264 10.2377 134.507 10.2425C134.996 10.2425 135.465 10.4384 135.81 10.787C136.156 11.1357 136.35 11.6085 136.35 12.1016C136.359 12.3496 136.315 12.5966 136.222 12.8264C136.13 13.0561 135.989 13.2634 135.811 13.4345C135.641 13.6121 135.437 13.7534 135.212 13.85C134.986 13.9465 134.744 13.9962 134.499 13.9962C134.254 13.9962 134.011 13.9465 133.786 13.85C133.56 13.7534 133.356 13.6121 133.186 13.4345C133.009 13.2617 132.868 13.0545 132.773 12.8254C132.677 12.5963 132.628 12.3501 132.63 12.1016Z" fill="white"/>
<path d="M140.66 34.3027V33.4258H142.659V20.6231H140.625V19.8163H141.303C142.068 19.8163 142.798 19.8163 143.511 19.8163C144.224 19.8163 144.867 19.6761 145.493 19.5708V23.7799C145.929 22.5442 146.7 21.4566 147.718 20.6406C148.675 19.9065 149.854 19.5286 151.056 19.5708C152.174 19.5004 153.273 19.8786 154.116 20.6231C154.498 21.0061 154.795 21.4671 154.987 21.9752C155.179 22.4833 155.261 23.0268 155.228 23.5695V33.5135H157.245V34.3904H150.291V33.5135H152.447V23.4643C152.505 22.7167 152.302 21.972 151.873 21.3597C151.651 21.1236 151.38 20.9398 151.08 20.8216C150.779 20.7033 150.456 20.6535 150.135 20.6757C149.509 20.69 148.895 20.857 148.347 21.1624C147.8 21.4678 147.333 21.9026 146.988 22.4295C146.088 23.7407 145.625 25.3072 145.667 26.9017V33.4433H147.666V34.3202L140.66 34.3027Z" fill="white"/>
<path d="M161.229 33.4265V10.1712H159.264V9.39953L161.368 9.25925L164.132 9.03125V33.4265H166.236V34.3034H159.16V33.4265H161.229ZM164.271 25.9904L170.652 20.729H168.183V19.8872H174.337V20.729H172.008L166.896 25.0434L173.989 33.4967H175.502V34.3736H168.392V33.4967H170.321L164.271 25.9904Z" fill="white"/>
<path fill-rule="evenodd" clip-rule="evenodd" d="M8.27518 19.609C8.27518 23.7304 10.5004 22.1871 11.3697 24.0812C11.5261 24.4144 11.6305 24.7652 11.8217 25.1861C13.327 28.286 15.4798 31.0203 18.1324 33.2009C17.0545 33.7797 16.4982 34.4111 15.403 34.9547C10.3073 36.9759 5.99178 40.5977 3.0945 45.2845C1.84517 47.1678 0.807291 49.1854 0 51.3001H2.0688C3.18691 48.3792 4.78558 45.6695 6.79748 43.2853C8.11873 41.7244 11.9086 38.1992 13.9774 37.7257C11.8912 41.7068 13.1256 44.5129 12.5519 45.951C11.9782 47.3891 11.3871 46.3368 11.3871 48.6869C11.3871 51.7034 17.0893 52.9311 17.0893 48.1784C17.1077 47.8974 17.0659 47.6158 16.9669 47.3525C16.868 47.0893 16.714 46.8505 16.5156 46.6526C15.5421 45.46 14.7771 46.0738 14.5337 44.1972C14.2903 42.3206 15.5247 36.7787 17.8716 36.1473C17.4923 37.2503 17.23 38.3908 17.0893 39.5497C17.0778 41.1293 17.6688 42.653 18.7399 43.8054C19.811 44.9577 21.2803 45.6506 22.8437 45.7406C24.4231 45.7173 25.9357 45.0941 27.0796 43.9953C28.2236 42.8965 28.9148 41.403 29.0153 39.8127C29.0153 38.5149 28.2678 37.6205 28.233 36.1473C29.3804 36.7611 29.4499 36.7611 29.9715 37.9011C30.4988 38.7819 30.8475 39.7595 30.9972 40.7773C27.1725 41.6893 28.4416 45.5126 26.8596 47.5996C26.7205 47.775 26.7031 47.6873 26.5293 48.038C26.3753 48.2806 26.2829 48.5577 26.2603 48.8449C26.2377 49.132 26.2855 49.4203 26.3995 49.6843C26.5136 49.9484 26.6904 50.1801 26.9143 50.3589C27.1381 50.5377 27.4022 50.6581 27.6831 50.7094C27.9641 50.7608 28.2533 50.7416 28.5251 50.6535C28.797 50.5654 29.0431 50.4111 29.2418 50.2043C29.4405 49.9974 29.5856 49.7443 29.6644 49.4675C29.7431 49.1906 29.7531 48.8985 29.6933 48.6168C29.6933 47.4944 29.0153 48.6168 29.2587 46.6526C30.2149 39.4445 36.9776 41.6893 35.9519 46.8104C35.6216 48.459 35.7606 48.3362 35.1 49.1079C32.6139 52.0367 37.9859 53.1942 37.9859 50.4583C37.9859 48.4414 37.1166 50.809 37.8642 46.3895C38.0872 45.1143 37.8363 43.8011 37.1595 42.7009C36.4828 41.6007 35.4276 40.791 34.196 40.4266C31.6056 39.7601 33.657 41.2333 31.7795 37.6556C33.657 38.1642 37.5339 41.8471 38.8378 43.3379C40.7829 45.7481 42.413 48.4005 43.6881 51.2299H45.4266C44.227 45.9686 38.2988 39.497 33.3615 36.4805C32.4134 35.9272 31.4255 35.4465 30.4061 35.0424C29.3456 34.5338 28.5633 33.4815 27.555 33.2886C30.282 31.197 32.4752 28.4795 33.9526 25.3615C35.552 21.8539 35.0652 24.011 36.6994 22.3976C39.1507 19.9598 36.23 17.6272 36.1605 17.5571C34.9783 15.8033 38.4031 0.106841 24.1823 0.106841C20.7053 0.106841 17.889 -0.0860763 14.8119 1.86064C11.1958 4.12303 9.9789 8.70044 9.94413 13.1551C9.94413 19.9949 8.11872 16.9257 8.11872 19.6792M11.4914 15.7682C11.4914 11.6468 11.7174 8.12165 13.3515 5.61373C14.2734 4.37808 15.4853 3.393 16.8782 2.74706C18.2711 2.10112 19.8013 1.81459 21.3312 1.91325C26.4076 1.91325 24.4083 1.91324 28.8588 2.94798L27.555 3.73721C27.7462 5.98207 28.5285 7.78842 27.3116 9.77021C26.3033 11.4012 24.3562 11.6292 22.3048 12.0326C16.8459 13.0849 16.4287 12.5237 11.6478 15.698L11.4914 15.7682ZM22.3743 33.3062C20.5794 32.7878 18.9221 31.871 17.5239 30.6229C14.5264 27.5877 12.4877 23.7246 11.6652 19.5214C11.474 18.2411 12.5866 17.1713 13.6645 16.4347C16.6373 14.3827 21.4703 14.2073 25.295 13.2427C29.4325 12.208 30.5104 8.12169 29.363 3.50921C33.6397 4.66671 33.7788 14.032 33.7788 17.3642C33.9352 24.3092 27.9201 33.2009 22.5308 33.2009L22.3743 33.3062ZM9.94413 18.9426C9.94413 20.3281 10.1701 20.3982 10.2049 21.5557C9.92848 21.4068 9.70473 21.175 9.56458 20.8922C9.42444 20.6095 9.37483 20.2897 9.42258 19.9773C9.57905 19.2758 9.47474 19.4687 10.1006 18.8374L9.94413 18.9426ZM35.326 21.8013C35.4825 21.1874 35.4998 21.0646 35.6389 20.293L36.1083 18.9426C36.7516 20.9244 36.682 20.6964 35.552 21.696L35.326 21.8013ZM18.7409 40.1109C18.7409 38.1116 19.9926 36.3052 20.0447 34.3584C23.174 35.8667 24.0258 34.6566 25.7469 34.6215C25.9729 37.4276 28.4937 39.8829 25.7469 42.6714C25.3958 43.0725 24.9654 43.3951 24.4834 43.6186C24.0014 43.8421 23.4784 43.9615 22.948 43.9692C21.8754 43.9004 20.8525 43.4889 20.0273 42.7942C19.3839 41.9989 18.9904 41.0279 18.8973 40.0057L18.7409 40.1109ZM13.056 48.722C13.056 46.863 14.7945 47.6171 15.1248 47.6873C15.1248 48.6519 15.3508 49.4411 14.3425 49.4411C13.3342 49.4411 13.2125 49.0202 13.2125 48.6168L13.056 48.722Z" fill="white"/>
<path d="M172.005 12.3107H171.536V10.2061H170.875V9.82031H172.666V10.2061H172.005V12.3107Z" fill="white"/>
<path d="M175.342 12.3107H174.89V10.136L174.212 12.3107H173.986L173.291 10.136V12.3107H172.926V9.82031H173.621L174.143 11.4338L174.647 9.82031H175.342V12.3107Z" fill="white"/>
</g>
<defs>
<clipPath id="clip0_16465_49492">
<rect width="175.5" height="52" fill="white"/>
</clipPath>
</defs>
</svg>
