<svg width="206" height="66" viewBox="0 0 206 66" fill="none" xmlns="http://www.w3.org/2000/svg">
<rect width="206" height="66" rx="5" fill="#395987"/>
<g clip-path="url(#clip0_4884_58978)">
<path d="M89.668 50.5295V50.319H90.346V45.2856H89.7027V45.0752H91.8932V45.2856H91.163V50.319H92.2757C92.6014 50.3447 92.9246 50.2444 93.1797 50.0384C93.4272 49.7367 93.5894 49.3732 93.6491 48.9862H93.8056L93.7186 50.5295H89.668Z" fill="white"/>
<path d="M94.2578 50.5295V50.319H94.8662V45.2856H94.2578V45.0752H98.2737V46.3905H98.0998C98.0787 46.0671 97.943 45.7621 97.7174 45.5312C97.4139 45.3478 97.0621 45.2621 96.709 45.2856H95.7529V47.6007H95.9267C96.1902 47.6212 96.453 47.5533 96.6743 47.4077C96.8346 47.2156 96.9264 46.9748 96.935 46.7238H97.1089V48.7757H96.935C96.9409 48.6376 96.9194 48.4998 96.8716 48.3702C96.8239 48.2407 96.7508 48.1221 96.6569 48.0216C96.4097 47.8439 96.107 47.7629 95.805 47.7936V50.319H96.9524C97.3057 50.3515 97.6585 50.2516 97.9434 50.0384C98.2039 49.7382 98.3676 49.365 98.4128 48.9686H98.5866L98.4997 50.5295H94.2578Z" fill="white"/>
<path d="M100.029 50.5295V50.319H100.707V45.2856H100.429C100.276 45.2724 100.121 45.2904 99.9749 45.3386C99.8285 45.3868 99.6933 45.4642 99.5772 45.5663C99.3409 45.8843 99.191 46.2591 99.1426 46.6536H98.9688V45.0752H103.124V46.6536H102.932C102.903 46.2658 102.765 45.8945 102.533 45.5838C102.275 45.3689 101.945 45.2621 101.611 45.2856H101.385V50.319H102.063V50.5295H100.029Z" fill="white"/>
<path d="M103.836 50.5469H103.697V49.1263H103.853C103.957 49.4965 104.169 49.8266 104.462 50.0733C104.724 50.2982 105.057 50.4224 105.401 50.4241C105.76 50.4348 106.11 50.3025 106.374 50.0558C106.504 49.947 106.607 49.8099 106.676 49.655C106.745 49.5 106.779 49.3312 106.774 49.1613C106.774 48.7404 106.374 48.4072 105.557 48.1442H105.418C104.919 48.0128 104.451 47.7801 104.045 47.4602C103.926 47.3343 103.834 47.1855 103.774 47.0227C103.715 46.8599 103.688 46.6865 103.697 46.5131C103.69 46.3072 103.727 46.1022 103.805 45.9117C103.883 45.7213 104 45.5497 104.149 45.4082C104.299 45.2646 104.477 45.1532 104.671 45.0809C104.865 45.0085 105.072 44.9767 105.279 44.9874C105.626 44.9866 105.965 45.0904 106.253 45.2855H106.357L106.513 45.0926H106.687V46.3904H106.548C106.452 46.0544 106.258 45.7551 105.992 45.531C105.744 45.3377 105.436 45.2383 105.123 45.2504C104.836 45.2386 104.555 45.3392 104.34 45.531C104.241 45.6109 104.162 45.7123 104.108 45.8278C104.053 45.9433 104.026 46.0697 104.027 46.1975C104.022 46.3011 104.041 46.4046 104.083 46.4992C104.126 46.5938 104.19 46.6768 104.271 46.7411C104.507 46.9217 104.78 47.0475 105.07 47.1094H105.314C105.75 47.1925 106.168 47.3528 106.548 47.5829C106.719 47.7186 106.856 47.8928 106.948 48.0916C107.042 48.3133 107.089 48.5521 107.087 48.7931C107.103 49.0413 107.066 49.2902 106.979 49.523C106.892 49.7558 106.757 49.9674 106.583 50.1435C106.408 50.3192 106.199 50.4554 105.968 50.5431C105.737 50.6308 105.49 50.6679 105.244 50.6521C104.861 50.6466 104.487 50.531 104.166 50.3189H104.079L103.836 50.5469Z" fill="white"/>
<path d="M114.684 48.5993H116.84V48.8098H116.353C116.365 49.0649 116.321 49.3195 116.225 49.5558C116.129 49.792 115.983 50.0043 115.797 50.1777C115.357 50.5227 114.806 50.6913 114.25 50.6512C113.922 50.6672 113.595 50.6076 113.294 50.4769C112.993 50.3462 112.725 50.1479 112.511 49.8971C112.065 49.3239 111.837 48.6085 111.868 47.8803C111.868 47.4979 111.933 47.1182 112.059 46.7578C112.177 46.4139 112.354 46.0934 112.581 45.8108C112.798 45.551 113.064 45.3365 113.363 45.1794C113.887 44.9566 114.471 44.9256 115.015 45.0917C115.237 45.1746 115.447 45.2866 115.641 45.425L115.936 45.1444H116.058V46.5298H115.884C115.799 46.149 115.606 45.8015 115.328 45.5302C115.05 45.2962 114.698 45.1716 114.337 45.1794C114.1 45.1678 113.865 45.2243 113.659 45.3423C113.452 45.4603 113.284 45.6349 113.172 45.8459C112.886 46.4894 112.76 47.194 112.807 47.8978C112.752 48.5815 112.865 49.2684 113.137 49.8971C113.242 50.0894 113.399 50.2476 113.59 50.3532C113.781 50.4588 113.998 50.5074 114.215 50.4934C114.388 50.509 114.561 50.4856 114.724 50.4249C114.886 50.3643 115.033 50.2679 115.154 50.1427C115.37 49.811 115.468 49.4153 115.432 49.0202V48.8448H114.667L114.684 48.5993Z" fill="white"/>
<path d="M117.275 50.5295V50.319H117.884V45.2856H117.275V45.0752H121.291V46.3905H121.117C121.096 46.0671 120.961 45.7621 120.735 45.5312C120.431 45.3478 120.08 45.2621 119.727 45.2856H118.718V47.6007H118.875C119.138 47.6239 119.402 47.5558 119.622 47.4077C119.709 47.3169 119.776 47.2096 119.821 47.0922C119.866 46.9748 119.887 46.8495 119.883 46.7238H120.057V48.7757H119.883C119.889 48.6376 119.867 48.4998 119.82 48.3702C119.772 48.2407 119.699 48.1221 119.605 48.0216C119.358 47.8439 119.055 47.7629 118.753 47.7936V50.319H119.883C120.236 50.3515 120.589 50.2516 120.874 50.0384C121.135 49.7382 121.298 49.365 121.343 48.9686H121.517L121.43 50.5295H117.275Z" fill="white"/>
<path d="M123.047 50.5295V50.319H123.725V45.2856H123.447C123.293 45.2724 123.139 45.2904 122.992 45.3386C122.846 45.3868 122.711 45.4642 122.595 45.5663C122.366 45.8883 122.217 46.2612 122.16 46.6536H121.986V45.0752H126.159V46.6536H125.985C125.951 46.2639 125.806 45.8925 125.568 45.5838C125.312 45.3656 124.98 45.2584 124.646 45.2856H124.42V50.319H125.098V50.5295H123.047Z" fill="white"/>
<path d="M130.818 50.3189H131.462V45.2855H130.853V45.0751H133.148C133.632 45.0489 134.113 45.1581 134.539 45.3908C134.692 45.482 134.818 45.6132 134.904 45.7706C134.989 45.928 135.031 46.1058 135.025 46.2852C135.03 46.4612 134.993 46.6357 134.918 46.7944C134.842 46.953 134.73 47.0911 134.591 47.1972C134.232 47.4447 133.809 47.579 133.374 47.583C133.729 47.6357 134.065 47.7808 134.347 48.004C134.579 48.2007 134.733 48.4743 134.782 48.7756C134.795 48.9975 134.795 49.2201 134.782 49.442C134.749 49.6453 134.749 49.8526 134.782 50.0559C134.803 50.1451 134.851 50.2252 134.921 50.2839C135.007 50.3041 135.096 50.3041 135.182 50.2839H135.391H135.599V50.4943C135.477 50.5509 135.349 50.5922 135.217 50.6171H134.852C134.7 50.6229 134.55 50.5887 134.416 50.518C134.282 50.4472 134.168 50.3423 134.087 50.2137C133.884 49.8183 133.783 49.3783 133.791 48.9335C133.81 48.6193 133.717 48.3086 133.53 48.0566C133.424 47.9285 133.286 47.8316 133.131 47.776C132.972 47.706 132.8 47.6702 132.626 47.6707H132.261V50.3189H132.887V50.5294H130.818V50.3189ZM132.261 47.4602H132.748C133.135 47.4966 133.524 47.4108 133.861 47.2147C133.967 47.0973 134.047 46.9582 134.095 46.8069C134.143 46.6556 134.158 46.4956 134.139 46.3378C134.159 46.1909 134.148 46.0412 134.106 45.899C134.064 45.7567 133.992 45.6253 133.895 45.5136C133.628 45.3235 133.299 45.2421 132.974 45.2855H132.261V47.4602Z" fill="white"/>
<path d="M136.26 50.5295V50.319H136.868V45.2856H136.26V45.0752H140.276V46.3905H140.102C140.081 46.0671 139.945 45.7621 139.719 45.5312C139.416 45.3478 139.064 45.2621 138.711 45.2856H137.685V47.6007H137.859C138.123 47.6212 138.385 47.5533 138.607 47.4077C138.767 47.2156 138.859 46.9748 138.867 46.7238H139.041V48.7757H138.867C138.873 48.6376 138.852 48.4998 138.804 48.3702C138.756 48.2407 138.683 48.1221 138.589 48.0216C138.342 47.8439 138.039 47.7629 137.737 47.7936V50.319H138.885C139.238 50.3515 139.591 50.2516 139.876 50.0384C140.136 49.7382 140.3 49.365 140.345 48.9686H140.519L140.432 50.5295H136.26Z" fill="white"/>
<path d="M145.126 49.0737H145.283V50.5293H145.109L144.848 50.2838C144.676 50.4122 144.481 50.5074 144.274 50.5644C144.037 50.6325 143.791 50.662 143.544 50.6521C143.228 50.6617 142.915 50.5969 142.628 50.463C142.341 50.3291 142.09 50.1296 141.893 49.8804C141.444 49.3218 141.216 48.6165 141.249 47.8986C141.242 47.5228 141.301 47.1488 141.423 46.7938C141.523 46.458 141.682 46.1431 141.893 45.8643C142.109 45.5919 142.382 45.3704 142.692 45.2153C142.988 45.0636 143.316 44.9855 143.648 44.9874C143.856 44.9855 144.062 45.0212 144.257 45.0926C144.466 45.1698 144.66 45.2825 144.831 45.4258L145.109 45.1452H145.23V46.5307H145.057C144.979 46.1511 144.791 45.8033 144.518 45.531C144.272 45.3014 143.948 45.1757 143.614 45.1803C143.384 45.1706 143.157 45.2307 142.962 45.3526C142.767 45.4745 142.612 45.6528 142.518 45.8643C142.253 46.5685 142.14 47.3221 142.188 48.074C142.165 48.4478 142.165 48.8227 142.188 49.1965C142.223 49.4251 142.299 49.6451 142.414 49.8454C142.519 50.0328 142.676 50.1852 142.866 50.2838C143.047 50.4024 143.259 50.4635 143.475 50.4592C143.837 50.4703 144.19 50.3453 144.466 50.1084C144.762 49.8287 144.973 49.4698 145.074 49.0737" fill="white"/>
<path d="M146.168 50.3193H146.811V45.2859H146.168V45.0754H148.445C148.929 45.0445 149.412 45.154 149.836 45.3911C149.993 45.4801 150.122 45.6104 150.211 45.7679C150.3 45.9255 150.345 46.1044 150.34 46.2856C150.342 46.4628 150.301 46.6378 150.223 46.7963C150.144 46.9548 150.03 47.0923 149.888 47.1975C149.535 47.4418 149.117 47.5759 148.689 47.5834C149.04 47.6324 149.371 47.7781 149.645 48.0043C149.881 48.1967 150.037 48.4725 150.08 48.7759C150.104 48.9974 150.104 49.2209 150.08 49.4424C150.049 49.6458 150.049 49.8528 150.08 50.0562C150.106 50.1473 150.161 50.2273 150.236 50.2842C150.322 50.3044 150.411 50.3044 150.497 50.2842H150.688H150.914V50.4947C150.786 50.5517 150.652 50.5929 150.514 50.6174H150.166C150.015 50.6269 149.863 50.5943 149.728 50.5232C149.593 50.4522 149.48 50.3452 149.402 50.2141C149.191 49.8217 149.089 49.3796 149.106 48.9338C149.124 48.6196 149.032 48.309 148.845 48.0569C148.739 47.9289 148.601 47.832 148.445 47.7763C148.281 47.7045 148.103 47.6686 147.924 47.6711H147.454V50.3193H148.08V50.5297H146.168V50.3193ZM147.611 47.4606H148.08C148.468 47.4993 148.857 47.4134 149.193 47.2151C149.379 46.9613 149.48 46.6539 149.48 46.3382C149.48 46.0224 149.379 45.715 149.193 45.4613C148.918 45.2732 148.584 45.1921 148.254 45.2333H147.559L147.611 47.4606Z" fill="white"/>
<path d="M152.184 49.144V45.2856H151.541V45.0752H153.575V45.2856H152.967V49.1089C152.941 49.4537 153.04 49.7962 153.245 50.0735C153.358 50.1818 153.492 50.2657 153.638 50.3199C153.785 50.3742 153.941 50.3978 154.097 50.3892C154.281 50.4038 154.467 50.3749 154.639 50.3049C154.811 50.235 154.965 50.1257 155.088 49.9858C155.338 49.642 155.455 49.2181 155.418 48.7932V45.2856H154.862V45.0752H156.339V45.2856H155.731V48.7932C155.768 49.2972 155.605 49.7953 155.279 50.1787C155.094 50.342 154.879 50.4665 154.646 50.5448C154.413 50.6231 154.167 50.6537 153.923 50.6347C153.475 50.666 153.033 50.5215 152.688 50.2314C152.535 50.0902 152.414 49.9161 152.336 49.7219C152.258 49.5276 152.224 49.3182 152.236 49.1089" fill="white"/>
<path d="M156.877 50.5295V50.319H157.555V45.2857H156.877V45.0752H159.067V45.2857H158.372V50.319H159.067V50.5295H156.877Z" fill="white"/>
<path d="M160.477 50.5295V50.319H161.155V45.2856H160.876C160.723 45.2724 160.568 45.2904 160.422 45.3386C160.276 45.3868 160.141 45.4642 160.024 45.5663C159.795 45.8883 159.646 46.2612 159.59 46.6536H159.416V45.0752H163.588V46.6536H163.554C163.528 46.262 163.382 45.8882 163.136 45.5838C162.88 45.3656 162.549 45.2584 162.215 45.2856H161.989V50.319H162.65V50.5295H160.477Z" fill="white"/>
<path d="M164.18 50.5295V50.319H164.788V45.2856H164.18V45.0752H168.178V46.3905H168.004C167.99 46.0655 167.853 45.7582 167.622 45.5312C167.322 45.3399 166.967 45.2535 166.614 45.2856H165.605V47.6007H165.762C166.025 47.6239 166.289 47.5558 166.509 47.4077C166.596 47.3169 166.663 47.2096 166.708 47.0922C166.753 46.9748 166.774 46.8495 166.77 46.7238H166.944V48.7757H166.77C166.78 48.6372 166.761 48.4982 166.713 48.368C166.665 48.2378 166.589 48.1196 166.492 48.0216C166.246 47.8409 165.942 47.7595 165.64 47.7936V50.319H166.787C167.135 50.3505 167.482 50.2505 167.761 50.0384C168.022 49.7382 168.185 49.365 168.23 48.9686H168.422V50.5295H164.18Z" fill="white"/>
<path d="M169.761 50.3181V45.2848H169.152V45.0743H171.117C171.48 45.0491 171.844 45.0982 172.188 45.2188C172.531 45.3393 172.847 45.5288 173.116 45.7758C173.363 46.0354 173.555 46.3442 173.677 46.6823C173.8 47.0205 173.852 47.3807 173.829 47.7401C173.838 48.2038 173.749 48.6642 173.568 49.0905C173.4 49.4829 173.137 49.8266 172.803 50.0901C172.6 50.2425 172.37 50.3555 172.125 50.4234C171.824 50.4998 171.514 50.5352 171.204 50.5286H169.152V50.3181H169.761ZM170.578 45.2848V50.3181H171.169C171.409 50.3183 171.649 50.2888 171.882 50.2305C172.07 50.1898 172.244 50.099 172.386 49.9674C172.587 49.7914 172.732 49.5596 172.803 49.301C172.901 48.7986 172.942 48.2868 172.925 47.7752C172.94 47.3051 172.905 46.8346 172.821 46.3721C172.762 46.1239 172.643 45.8946 172.473 45.7057C172.313 45.5599 172.123 45.452 171.917 45.39C171.645 45.3114 171.364 45.2759 171.082 45.2848H170.578Z" fill="white"/>
<path d="M61.4355 41.3038V40.3567H64.1302V17.347H61.4355V16.3999H68.8763L74.0917 34.8147L79.6549 16.3999H86.9043V17.347H84.0011V40.3567H86.9043V41.3038H77.6904V40.3567H80.472V17.6802H80.3329L73.1877 41.3038H72.2489L65.5905 17.6802H65.295V40.3567H68.0766V41.3038H61.4355Z" fill="white"/>
<path d="M93.4401 31.8688H100.394V31.5006C100.486 30.3423 100.219 29.1838 99.6291 28.1859C99.329 27.8285 98.9479 27.5495 98.5182 27.3724C98.0884 27.1953 97.6226 27.1254 97.1604 27.1687C96.6488 27.1376 96.1371 27.2277 95.6662 27.4317C95.1953 27.6357 94.7783 27.948 94.4484 28.3437C93.7427 29.3745 93.3666 30.5985 93.3705 31.8513M93.2488 32.9036V34.1137C93.0968 35.924 93.4332 37.742 94.2223 39.3751C94.5986 39.8944 95.1031 40.3053 95.6856 40.5669C96.2682 40.8284 96.9085 40.9315 97.5429 40.8658C98.791 40.9153 100.018 40.5316 101.02 39.7785C101.983 39.0107 102.658 37.9341 102.932 36.7268H103.767C103.509 38.2224 102.725 39.574 101.559 40.5326C100.094 41.4931 98.3528 41.9335 96.6117 41.7842C94.8706 41.635 93.2285 40.9045 91.9449 39.7083C91.2604 39.041 90.719 38.2391 90.3542 37.3522C89.9893 36.4653 89.8089 35.5123 89.824 34.5521C89.7807 32.4522 90.5546 30.4186 91.9797 28.8874C92.6377 28.1518 93.4427 27.5653 94.3416 27.1663C95.2406 26.7673 96.2131 26.5649 97.1951 26.5724C98.033 26.5253 98.8719 26.6467 99.6628 26.9298C100.454 27.2128 101.181 27.6517 101.802 28.221C103.018 29.5188 103.718 31.2234 103.767 33.0088L93.2488 32.9036Z" fill="white"/>
<path d="M120.629 16.0317V40.427H122.663V41.3039C121.533 41.3039 120.595 41.3039 119.83 41.3039C119.141 41.361 118.457 41.4546 117.778 41.5845V38.9012C117.31 39.7531 116.621 40.4607 115.785 40.9486C114.949 41.4366 113.998 41.6867 113.032 41.6722C112.113 41.6837 111.202 41.4918 110.364 41.11C109.526 40.7282 108.781 40.1658 108.182 39.4624C106.872 37.9968 106.158 36.0867 106.182 34.1134C106.129 32.1225 106.839 30.1877 108.164 28.7117C108.779 28.0152 109.535 27.4604 110.381 27.0851C111.227 26.7098 112.143 26.5229 113.067 26.5369C114.048 26.5135 115.016 26.7622 115.866 27.256C116.64 27.7599 117.246 28.4871 117.604 29.343V17.1892H115.17V16.4176H115.779C116.561 16.4176 117.344 16.4176 118.126 16.4176C118.908 16.4176 119.725 16.2597 120.542 16.137M117.657 36.972V31.9036C117.658 31.3226 117.541 30.7476 117.314 30.2138C117.087 29.68 116.754 29.1986 116.335 28.7994C115.942 28.374 115.465 28.0358 114.936 27.8063C114.406 27.5768 113.835 27.4611 113.258 27.4665C112.688 27.4224 112.117 27.5404 111.61 27.807C111.103 28.0735 110.68 28.4781 110.39 28.9747C109.748 30.6057 109.498 32.3664 109.659 34.1134C109.524 35.9424 109.828 37.7773 110.546 39.4624C110.843 39.9755 111.279 40.3929 111.802 40.6661C112.325 40.9393 112.915 41.0571 113.502 41.0058C114.613 40.9935 115.675 40.5398 116.457 39.743C116.862 39.3836 117.186 38.9411 117.408 38.4451C117.63 37.9491 117.744 37.411 117.743 36.8668L117.657 36.972Z" fill="white"/>
<path d="M124.838 41.3038V40.3567H127.915V17.347H124.977V16.3999H135.06V17.347H131.688V40.3567H136.746C138.236 40.4712 139.714 40.014 140.884 39.0765C142.027 37.7098 142.778 36.0544 143.057 34.2886H143.77L143.353 41.3038H124.838Z" fill="white"/>
<path d="M145.422 41.3041V40.4272H147.908V27.6245H145.544V26.8178H146.256C147.039 26.8178 147.821 26.8178 148.603 26.8178C149.386 26.8178 150.098 26.6775 150.794 26.5723V40.6026H152.967V41.4795L145.422 41.3041ZM147.63 19.1011C147.623 18.8518 147.669 18.6039 147.765 18.3741C147.861 18.1443 148.005 17.9377 148.186 17.7682C148.361 17.5967 148.568 17.4618 148.794 17.3715C149.021 17.2812 149.264 17.2372 149.507 17.2421C149.996 17.2421 150.465 17.4379 150.81 17.7865C151.156 18.1352 151.35 18.608 151.35 19.1011C151.359 19.3491 151.315 19.5961 151.222 19.8259C151.13 20.0556 150.989 20.2629 150.811 20.434C150.641 20.6117 150.437 20.753 150.212 20.8495C149.986 20.946 149.744 20.9957 149.499 20.9957C149.254 20.9957 149.011 20.946 148.786 20.8495C148.56 20.753 148.356 20.6117 148.186 20.434C148.009 20.2612 147.868 20.054 147.773 19.8249C147.677 19.5958 147.628 19.3496 147.63 19.1011Z" fill="white"/>
<path d="M155.66 41.3046V40.4277H157.659V27.625H155.625V26.8183H156.303C157.068 26.8183 157.798 26.8183 158.511 26.8183C159.224 26.8183 159.867 26.678 160.493 26.5728V30.7819C160.929 29.5461 161.7 28.4585 162.718 27.6426C163.675 26.9085 164.854 26.5306 166.056 26.5728C167.174 26.5024 168.273 26.8806 169.116 27.625C169.498 28.0081 169.795 28.4691 169.987 28.9771C170.179 29.4852 170.261 30.0287 170.228 30.5714V40.5154H172.245V41.3923H165.291V40.5154H167.447V30.4662C167.505 29.7186 167.302 28.974 166.873 28.3616C166.651 28.1255 166.38 27.9418 166.08 27.8235C165.779 27.7053 165.456 27.6555 165.135 27.6776C164.509 27.6919 163.895 27.8589 163.347 28.1644C162.8 28.4698 162.333 28.9045 161.988 29.4314C161.088 30.7427 160.625 32.3091 160.667 33.9036V40.4452H162.666V41.3221L155.66 41.3046Z" fill="white"/>
<path d="M176.227 40.427V17.1717H174.263V16.4L176.366 16.2597L179.13 16.0317V40.427H181.234V41.3039H174.158V40.427H176.227ZM179.269 32.9909L185.65 27.7295H183.181V26.8877H189.335V27.7295H187.006L181.894 32.0439L188.987 40.4972H190.5V41.3741H183.39V40.4972H185.319L179.269 32.9909Z" fill="white"/>
<path fill-rule="evenodd" clip-rule="evenodd" d="M23.2752 26.6071C23.2752 30.7285 25.5004 29.1851 26.3697 31.0792C26.5261 31.4124 26.6305 31.7632 26.8217 32.1841C28.327 35.2841 30.4798 38.0184 33.1324 40.199C32.0545 40.7777 31.4982 41.4091 30.403 41.9528C25.3073 43.9739 20.9918 47.5957 18.0945 52.2826C16.8452 54.1659 15.8073 56.1835 15 58.2982H17.0688C18.1869 55.3772 19.7856 52.6676 21.7975 50.2833C23.1187 48.7224 26.9086 45.1973 28.9774 44.7237C26.8912 48.7049 28.1256 51.5109 27.5519 52.949C26.9782 54.3872 26.3871 53.3349 26.3871 55.685C26.3871 58.7015 32.0893 59.9292 32.0893 55.1764C32.1077 54.8955 32.0659 54.6138 31.9669 54.3506C31.868 54.0873 31.714 53.8486 31.5156 53.6506C30.5421 52.458 29.7771 53.0718 29.5337 51.1953C29.2903 49.3187 30.5247 43.7767 32.8716 43.1453C32.4923 44.2484 32.23 45.3889 32.0893 46.5477C32.0778 48.1274 32.6688 49.6511 33.7399 50.8034C34.811 51.9558 36.2803 52.6486 37.8437 52.7386C39.4231 52.7153 40.9357 52.0922 42.0796 50.9934C43.2236 49.8946 43.9148 48.401 44.0153 46.8108C44.0153 45.513 43.2678 44.6185 43.233 43.1453C44.3804 43.7592 44.4499 43.7592 44.9715 44.8991C45.4988 45.7799 45.8475 46.7576 45.9972 47.7754C42.1725 48.6874 43.4416 52.5106 41.8596 54.5976C41.7205 54.773 41.7031 54.6853 41.5293 55.0361C41.3753 55.2786 41.2829 55.5558 41.2603 55.8429C41.2377 56.13 41.2855 56.4183 41.3995 56.6824C41.5136 56.9464 41.6904 57.1781 41.9143 57.3569C42.1381 57.5357 42.4022 57.6561 42.6831 57.7075C42.9641 57.7589 43.2533 57.7397 43.5251 57.6516C43.797 57.5634 44.0431 57.4091 44.2418 57.2023C44.4405 56.9954 44.5856 56.7424 44.6644 56.4655C44.7431 56.1887 44.7531 55.8965 44.6933 55.6148C44.6933 54.4924 44.0153 55.6149 44.2587 53.6506C45.2149 46.4425 51.9776 48.6874 50.9519 53.8084C50.6216 55.457 50.7606 55.3342 50.1 56.1059C47.6139 59.0347 52.9859 60.1922 52.9859 57.4563C52.9859 55.4394 52.1166 57.8071 52.8642 53.3875C53.0872 52.1124 52.8363 50.7991 52.1595 49.699C51.4828 48.5988 50.4276 47.789 49.196 47.4246C46.6056 46.7582 48.657 48.2314 46.7795 44.6536C48.657 45.1622 52.5339 48.8452 53.8378 50.3359C55.7829 52.7462 57.413 55.3986 58.6881 58.228H60.4266C59.227 52.9666 53.2988 46.4951 48.3615 43.4786C47.4134 42.9253 46.4255 42.4445 45.4061 42.0404C44.3456 41.5318 43.5633 40.4796 42.555 40.2866C45.282 38.1951 47.4752 35.4775 48.9526 32.3595C50.552 28.8519 50.0652 31.0091 51.6994 29.3956C54.1507 26.9578 51.23 24.6253 51.1605 24.5551C49.9783 22.8013 53.4031 7.10489 39.1823 7.10489C35.7053 7.10489 32.889 6.91197 29.8119 8.85868C26.1958 11.1211 24.9789 15.6985 24.9441 20.1531C24.9441 26.9929 23.1187 23.9238 23.1187 26.6772M26.4914 22.7663C26.4914 18.6448 26.7174 15.1197 28.3515 12.6118C29.2734 11.3761 30.4853 10.3911 31.8782 9.74511C33.2711 9.09916 34.8013 8.81264 36.3312 8.91129C41.4076 8.91129 39.4083 8.91129 43.8588 9.94603L42.555 10.7353C42.7462 12.9801 43.5285 14.7865 42.3116 16.7683C41.3033 18.3993 39.3562 18.6273 37.3048 19.0307C31.8459 20.0829 31.4287 19.5217 26.6478 22.6961L26.4914 22.7663ZM37.3743 40.3042C35.5794 39.7859 33.9221 38.8691 32.5239 37.6209C29.5264 34.5858 27.4877 30.7227 26.6652 26.5194C26.474 25.2391 27.5866 24.1693 28.6645 23.4327C31.6373 21.3808 36.4703 21.2054 40.295 20.2408C44.4325 19.2061 45.5104 15.1197 44.363 10.5073C48.6397 11.6648 48.7788 21.03 48.7788 24.3622C48.9352 31.3072 42.9201 40.199 37.5308 40.199L37.3743 40.3042ZM24.9441 25.9406C24.9441 27.3261 25.1701 27.3963 25.2049 28.5538C24.9285 28.4048 24.7047 28.173 24.5646 27.8903C24.4244 27.6075 24.3748 27.2878 24.4226 26.9754C24.579 26.2738 24.4747 26.4668 25.1006 25.8354L24.9441 25.9406ZM50.326 28.7993C50.4825 28.1855 50.4998 28.0627 50.6389 27.291L51.1083 25.9406C51.7516 27.9224 51.682 27.6944 50.552 28.6941L50.326 28.7993ZM33.7409 47.1089C33.7409 45.1096 34.9926 43.3032 35.0447 41.3565C38.174 42.8648 39.0258 41.6546 40.7469 41.6195C40.9729 44.4256 43.4937 46.8809 40.7469 49.6695C40.3958 50.0706 39.9654 50.3932 39.4834 50.6167C39.0014 50.8402 38.4784 50.9596 37.948 50.9673C36.8754 50.8985 35.8525 50.4869 35.0273 49.7922C34.3839 48.9969 33.9904 48.026 33.8973 47.0037L33.7409 47.1089ZM28.056 55.7201C28.056 53.861 29.7945 54.6152 30.1248 54.6853C30.1248 55.6499 30.3508 56.4391 29.3425 56.4391C28.3342 56.4391 28.2125 56.0182 28.2125 55.6148L28.056 55.7201Z" fill="white"/>
<path d="M187.005 19.3112H186.536V17.2066H185.875V16.8208H187.666V17.2066H187.005V19.3112Z" fill="white"/>
<path d="M190.344 19.3112H189.892V17.1365L189.214 19.3112H188.988L188.293 17.1365V19.3112H187.928V16.8208H188.623L189.145 18.4343L189.649 16.8208H190.344V19.3112Z" fill="white"/>
</g>
<defs>
<clipPath id="clip0_4884_58978">
<rect width="175.5" height="52" fill="white" transform="translate(15 7)"/>
</clipPath>
</defs>
</svg>
