<svg id="Layer_1" data-name="Layer 1" xmlns="http://www.w3.org/2000/svg" viewBox="0 0 759.89 554.69"><defs><style>.cls-1{fill:#ff654f;}.cls-2{fill:#050f64;}.cls-3{fill:#fff;}.cls-4{fill:#155bcd;}.cls-5{fill:#84a9ff;}.cls-6{fill:#e5e6eb;}.cls-7{fill:#f5bdc8;}.cls-8{fill:#ea8096;}.cls-9{fill:#da5544;}</style></defs><title>icon3</title><path class="cls-1" d="M507.67,201.31,486,213.7l10.22,24.48,24-6.56a62.41,62.41,0,0,0,11.81,11.67l-6.55,24.12L550,277.49l12.38-21.67a63.75,63.75,0,0,0,16.56,0l12.46,21.6,24.41-10.16-6.56-24.12A62.1,62.1,0,0,0,621,231.41l24,6.55,10.15-24.48L633.46,201.1a58.15,58.15,0,0,0,0-16.56l21.67-12.46L645,147.6l-24.12,6.62a62.69,62.69,0,0,0-11.74-11.73l6.48-24.12-24.41-10.08L578.74,130a60.85,60.85,0,0,0-16.56.07l-12.39-21.67-24.48,10.15,6.55,24.12a60.3,60.3,0,0,0-11.66,11.74l-24.12-6.48L486,172.3l21.67,12.38a64.29,64.29,0,0,0,0,16.63m30.82-8.42A32.08,32.08,0,1,1,570.6,225,32.14,32.14,0,0,1,538.49,192.89Z" transform="translate(-16.06 -28.66)"/><path class="cls-1" d="M414.29,89.86l-18.94,4.82,2.52,20.52,19.59.07a46.42,46.42,0,0,0,6.33,11.23l-9.93,16.78L430.2,156,444,142.27a49,49,0,0,0,12.53,3.46l4.83,18.86,20.52-2.52.07-19.51a49.54,49.54,0,0,0,11.23-6.41L510,146.09l12.74-16.27L509,115.92a45.43,45.43,0,0,0,3.45-12.46l18.94-4.82-2.59-20.52-19.51-.07a50.08,50.08,0,0,0-6.41-11.31L512.78,50,496.51,37.3,482.62,51a47.58,47.58,0,0,0-12.46-3.39l-4.82-18.93-20.52,2.52-.08,19.51a49.47,49.47,0,0,0-11.3,6.41l-16.78-9.94L404,63.5l13.75,13.83a46.17,46.17,0,0,0-3.45,12.53m24.91.07a25.07,25.07,0,1,1,17.42,30.89A25,25,0,0,1,439.2,89.93Z" transform="translate(-16.06 -28.66)"/><path class="cls-2" d="M775.94,578.66A4.69,4.69,0,0,1,774.5,582a4.61,4.61,0,0,1-3.31,1.36H20.81a4.63,4.63,0,0,1-3.31-8A4.62,4.62,0,0,1,20.81,574H771.19a4.73,4.73,0,0,1,4.75,4.68" transform="translate(-16.06 -28.66)"/><path class="cls-3" d="M534.38,146.52V545.4A15.44,15.44,0,0,1,519,560.88H261.36a15.45,15.45,0,0,1-15.48-15.48V146.52a15.44,15.44,0,0,1,15.48-15.41H519a15.42,15.42,0,0,1,15.4,15.41" transform="translate(-16.06 -28.66)"/><path class="cls-4" d="M526.18,117.94h-272a18.62,18.62,0,0,0-18.58,18.57v419A18.56,18.56,0,0,0,254.16,574h272a18.5,18.5,0,0,0,18.5-18.5v-419a18.56,18.56,0,0,0-18.5-18.57m14,437.54a14.06,14.06,0,0,1-14,14h-272a14.12,14.12,0,0,1-14.11-14v-419a14.07,14.07,0,0,1,14.11-14h272a14,14,0,0,1,14,14Z" transform="translate(-16.06 -28.66)"/><path class="cls-4" d="M540.22,136.51v419a14.06,14.06,0,0,1-14,14h-272a14.12,14.12,0,0,1-14.11-14v-419a14.07,14.07,0,0,1,14.11-14h48.53v8.64H261.36a15.44,15.44,0,0,0-15.48,15.41V545.4a15.45,15.45,0,0,0,15.48,15.48H519a15.44,15.44,0,0,0,15.4-15.48V146.52A15.42,15.42,0,0,0,519,131.11h-35.5v-8.64h42.7a14,14,0,0,1,14,14" transform="translate(-16.06 -28.66)"/><path class="cls-5" d="M483.48,126.58v8.85H302.69v-8.85a11.54,11.54,0,0,1,.72-4.25,12.35,12.35,0,0,1,11.52-8.07H471.17a12.28,12.28,0,0,1,11.52,8.07,11.77,11.77,0,0,1,.79,4.25" transform="translate(-16.06 -28.66)"/><path class="cls-5" d="M393.05,89.35a23,23,0,1,0,23,23,23.06,23.06,0,0,0-23-23m0,34.2a11.16,11.16,0,1,1,11.16-11.16A11.17,11.17,0,0,1,393.05,123.55Z" transform="translate(-16.06 -28.66)"/><rect class="cls-4" x="248.98" y="126.43" width="250.27" height="31.97"/><path class="cls-4" d="M265,297.58h96.19v-96.2H265Zm91.51-4.68h-86.9V206.06h86.9Z" transform="translate(-16.06 -28.66)"/><rect class="cls-4" x="360.22" y="173.88" width="139.03" height="4.68"/><rect class="cls-4" x="360.22" y="191.66" width="139.03" height="4.68"/><rect class="cls-4" x="360.22" y="209.45" width="139.03" height="4.68"/><rect class="cls-4" x="360.22" y="227.23" width="94.9" height="4.68"/><path class="cls-6" d="M304.85,359.93H265V317.88h39.82Zm-33.48-6.7h27.14V324.58H271.37Z" transform="translate(-16.06 -28.66)"/><path class="cls-1" d="M286.85,357.41,267,342.94a2.45,2.45,0,1,1,2.88-4l15.19,11.08,16.27-32.54a2.43,2.43,0,0,1,3.31-1.08,2.4,2.4,0,0,1,1.08,3.24Z" transform="translate(-16.06 -28.66)"/><rect class="cls-4" x="300.53" y="289.66" width="102.46" height="4.68"/><rect class="cls-6" x="300.53" y="307.44" width="198.72" height="4.68"/><rect class="cls-6" x="300.53" y="325.22" width="198.72" height="4.68"/><rect class="cls-6" x="300.53" y="343.01" width="148.75" height="4.68"/><path class="cls-6" d="M304.85,436.32H265V394.27h39.82Zm-33.48-6.7h27.14V401H271.37Z" transform="translate(-16.06 -28.66)"/><path class="cls-1" d="M286.85,433.8,267,419.33a2.44,2.44,0,0,1-.58-3.39,2.52,2.52,0,0,1,3.46-.57l15.19,11.09,16.27-32.55a2.57,2.57,0,0,1,3.31-1.08,2.49,2.49,0,0,1,1.08,3.31Z" transform="translate(-16.06 -28.66)"/><rect class="cls-4" x="300.53" y="366.05" width="174.74" height="4.68"/><rect class="cls-6" x="300.53" y="383.83" width="198.72" height="4.68"/><rect class="cls-6" x="300.53" y="401.62" width="198.72" height="4.68"/><rect class="cls-6" x="300.53" y="419.4" width="109.66" height="4.68"/><path class="cls-6" d="M304.85,512.78H265v-42h39.82ZM271.37,506h27.14V477.43H271.37Z" transform="translate(-16.06 -28.66)"/><path class="cls-1" d="M286.85,510.26,267,495.72a2.43,2.43,0,0,1-.58-3.38,2.51,2.51,0,0,1,3.46-.51l15.19,11.09,16.27-32.54a2.53,2.53,0,0,1,3.31-1.16,2.49,2.49,0,0,1,1.08,3.32Z" transform="translate(-16.06 -28.66)"/><rect class="cls-4" x="300.53" y="442.44" width="140.18" height="4.68"/><rect class="cls-6" x="300.53" y="460.22" width="198.72" height="4.68"/><rect class="cls-6" x="300.53" y="478.08" width="198.72" height="4.61"/><rect class="cls-6" x="300.53" y="495.86" width="168.91" height="4.68"/><path class="cls-4" d="M313.13,251.93A19.2,19.2,0,0,0,294,271.15v6.34h38.3v-6.34a19.21,19.21,0,0,0-19.15-19.22" transform="translate(-16.06 -28.66)"/><path class="cls-4" d="M313.13,248.11a13.32,13.32,0,1,0-13.39-13.32,13.33,13.33,0,0,0,13.39,13.32" transform="translate(-16.06 -28.66)"/><path class="cls-2" d="M147.67,574h29a4.56,4.56,0,0,0-.79-2.73,4.49,4.49,0,0,0-3-1.51,24.54,24.54,0,0,0-3.31-.22,18.06,18.06,0,0,1-7.92-2.3,29.66,29.66,0,0,0-3.74-2l-7.92.22a8.46,8.46,0,0,0-2.09,4.24,14.64,14.64,0,0,0-.29,4.32" transform="translate(-16.06 -28.66)"/><polygon class="cls-7" points="131.76 528.19 133.99 536.76 141.91 536.54 141.41 527.33 131.76 528.19"/><path class="cls-4" d="M160.13,483.7a74.32,74.32,0,0,0-1.44-16.42c-3.89-18.58-10.8-54.5-10.8-54.5-1.08-7.71-7.49-9.94-15.19-8.93-4.54.65-46.73,9.36-46.66,9.79l9.22,143L107,556.2l12.53-112.61,19.3,35.35V479l8.2,77.9,11.31-.79Z" transform="translate(-16.06 -28.66)"/><path class="cls-2" d="M94.75,574h29a4.56,4.56,0,0,0-.79-2.73,4.48,4.48,0,0,0-2.88-1.51,26.64,26.64,0,0,0-3.39-.22,18.38,18.38,0,0,1-7.92-2.3,29.66,29.66,0,0,0-3.74-2l-7.92.22A8.46,8.46,0,0,0,95,569.66a17.46,17.46,0,0,0-.29,4.32" transform="translate(-16.06 -28.66)"/><polygon class="cls-7" points="80.14 527.9 81.07 536.76 88.99 536.54 90.22 527.54 80.14 527.9"/><path class="cls-8" d="M214.92,332a3,3,0,0,0-3.82.72,66.74,66.74,0,0,1-7.84,9.43,38.14,38.14,0,0,1-9.29,6.92,23.65,23.65,0,0,1-10.15,2.59,24,24,0,0,1-5-.58,25.38,25.38,0,0,1-5-1.58,45,45,0,0,1-9.65-5.62,78.86,78.86,0,0,1-8.93-7.63q-4.22-4.22-8.21-8.86c-2.59-3.16-5.11-6.33-7.63-9.64a8.93,8.93,0,0,0-6.55-3.39,10.92,10.92,0,0,0-7.56,2.38,10.68,10.68,0,0,0-3.82,7,9.63,9.63,0,0,0,2.52,7.42c3.17,3.17,6.48,6.26,9.87,9.29s6.91,5.9,10.58,8.64a101,101,0,0,0,11.81,7.56A62.26,62.26,0,0,0,169.7,362a38.13,38.13,0,0,0,7.49,1.22,35.62,35.62,0,0,0,7.78-.36,32.55,32.55,0,0,0,14-5.76A45.53,45.53,0,0,0,209,347.18a75.66,75.66,0,0,0,7.12-11.44,2.88,2.88,0,0,0-1.22-3.75" transform="translate(-16.06 -28.66)"/><path class="cls-1" d="M142.85,357l-18.29-19.73c-5.54-6-5.76-15.05.22-20.59s15.84-5.4,21.38.57L164.38,337Z" transform="translate(-16.06 -28.66)"/><path class="cls-1" d="M118,311.11h0A27.1,27.1,0,0,1,147.53,338l.36,74.74c-25.27,12.31-39.53,8.2-61.85.86l1.58-70.27A33.36,33.36,0,0,1,118,311.11" transform="translate(-16.06 -28.66)"/><path class="cls-3" d="M148,338a27.67,27.67,0,0,0-27.57-27.58c-.87,0-1.66.08-2.52.15a7.24,7.24,0,0,0-1.23.14c0,.15-.07.29-.07.51a7.18,7.18,0,0,1,1.37-.15c.79-.07,1.58-.14,2.45-.14A27.17,27.17,0,0,1,147.53,338l.14,27.29h.51Zm-34.34,82.37.07.5a43,43,0,0,0,4.39.22,52.71,52.71,0,0,0,10-.94l-.14-.5A51.55,51.55,0,0,1,113.69,420.41Zm-26.57-77-.36,17.06h.5l.36-17.06a33.39,33.39,0,0,1,9.44-22.32.89.89,0,0,0-.36-.36A33.6,33.6,0,0,0,87.12,343.37Zm-.72,54.5-.5-.07L85.54,414l.36.14c2.73.87,5.32,1.73,7.84,2.52v-.57c-2.44-.72-5-1.59-7.7-2.45Zm61.92-11.73h-.5l.07,26.64c-1.66.86-3.39,1.58-5,2.3l.14.5c1.66-.72,3.32-1.51,5-2.3l.29-.14Z" transform="translate(-16.06 -28.66)"/><path class="cls-7" d="M125.78,302.54l-.57,19.37a10.71,10.71,0,0,1-12.53-.36l.58-19.37Z" transform="translate(-16.06 -28.66)"/><path class="cls-8" d="M125.78,302.54l-.21,8.79a12.57,12.57,0,0,1-2.88.57h-.94a11.42,11.42,0,0,1-8.71-4.53l.22-5.19Z" transform="translate(-16.06 -28.66)"/><path class="cls-7" d="M131.9,291l-.79,11.31a9,9,0,0,1-8.49,8.35,10.05,10.05,0,0,1-9.65-5.83,87.86,87.86,0,0,1-3-8.43,13.64,13.64,0,0,1,3.32-13.75c3.09-3,6.84-3.89,11.37-2.45A10.66,10.66,0,0,1,131.9,291" transform="translate(-16.06 -28.66)"/><path class="cls-2" d="M93.82,431.06h0a7.5,7.5,0,0,1,0-10.65l90.79-90.79,10.73,10.65-90.8,90.79a7.58,7.58,0,0,1-10.72,0" transform="translate(-16.06 -28.66)"/><polygon class="cls-4" points="181.3 336.31 143.86 298.94 155.23 287.64 192.6 325.01 181.3 336.31"/><path class="cls-2" d="M336.89,188.06c-41.76-41.68-109.66-41.68-151.35,0a107.08,107.08,0,0,0,0,151.35c41.69,41.69,109.59,41.69,151.35,0a107.21,107.21,0,0,0,0-151.35M194.4,330.48a94.42,94.42,0,1,1,133.56,0A94.52,94.52,0,0,1,194.4,330.48Z" transform="translate(-16.06 -28.66)"/><path class="cls-7" d="M117.14,440.06a3.09,3.09,0,0,0,.87-3.74,57.91,57.91,0,0,1-4.9-11.45,102.35,102.35,0,0,1-2.88-12.31c-.14-1-.36-2.09-.5-3.1l-.36-3.16-.36-3.17c-.07-1-.15-2.09-.22-3.17l-.07-1.51-.07-1.59c-.07-1.08-.07-2.16-.15-3.24,0-2.08-.07-4.17,0-6.33.36-16.92,3.1-33.84,7.13-50.4a5.85,5.85,0,0,0,.15-1.95,8.51,8.51,0,0,0-.15-1.94,10.15,10.15,0,0,0-8.21-7.85,10.14,10.14,0,0,0-7.84,1.59,10.31,10.31,0,0,0-2.74,2.88,8.35,8.35,0,0,0-.86,1.87,8.84,8.84,0,0,0-.51,2c-1.8,18.08-2.23,36.36-.07,54.51.22,2.3.65,4.53.94,6.77.21,1.15.43,2.3.57,3.38l.36,1.73.36,1.65c.22,1.08.43,2.24.72,3.32l.79,3.38.87,3.31c.29,1.08.72,2.16,1,3.31a106.6,106.6,0,0,0,5,12.82,63.57,63.57,0,0,0,7.2,11.95,2.72,2.72,0,0,0,4,.43" transform="translate(-16.06 -28.66)"/><path class="cls-1" d="M89.14,365l2.52-26.78c.79-8.07,7.41-14.33,15.48-13.54s14.61,8.21,13.82,16.34l-2.52,26.72Z" transform="translate(-16.06 -28.66)"/><path class="cls-3" d="M107.21,324.22a7.88,7.88,0,0,0-1.37-.08A14.31,14.31,0,0,0,94,330.48l.43.29a13.87,13.87,0,0,1,12.75-6,15.12,15.12,0,0,1,10,5.18l.44-.28a15.78,15.78,0,0,0-10.37-5.4m13.25,22.39-1.3,13.53h.5l1.3-13.46Zm-2,21.17-15.91-1.52-.07.58,16.41,1.51.22-2.52-.51-.14ZM90.36,346.25l-1.44,15.48.5.07,1.44-15.55Z" transform="translate(-16.06 -28.66)"/><path class="cls-2" d="M129.6,284.83s2.16,3.82,1.94,10.73c0,0,1.44-7,.08-12.46Z" transform="translate(-16.06 -28.66)"/><path class="cls-2" d="M105.91,296.35s-6.33-9-.07-16.2c6.7-7.7,11.23-7,16.13-5.76,6.26,1.51,9.57,3.6,11.95,3,1.22-.29,2.38-1.37,2.59-.65a9,9,0,0,1-2.88,8.21c-3.45,3.24-8.13,2.88-12.74.57s-6.7-1.87-8.57.94c-1.94,3,.94,8.42.94,8.42l-1.37.51s-5.4-3-6,.93" transform="translate(-16.06 -28.66)"/><path class="cls-7" d="M114.77,295.49a4.75,4.75,0,1,1-4.61-4.32,4.47,4.47,0,0,1,4.61,4.32" transform="translate(-16.06 -28.66)"/><polygon class="cls-9" points="429.62 440.78 389.52 440.78 438.19 545.33 478.22 545.33 429.62 440.78"/><polygon class="cls-1" points="632.23 337.82 672.34 337.82 596.02 545.33 555.98 545.33 632.23 337.82"/><polygon class="cls-9" points="538.78 390.89 498.74 390.89 555.05 545.33 595.08 545.33 538.78 390.89"/><polygon class="cls-1" points="668.74 287.14 614.16 337.82 685.87 337.82 668.74 287.14"/><polygon class="cls-1" points="388.22 440.78 428.26 440.78 390.82 545.33 350.78 545.33 388.22 440.78"/><polygon class="cls-1" points="495.72 390.89 535.75 390.89 479.52 545.33 439.49 545.33 495.72 390.89"/></svg>