<svg id="Layer_1" data-name="Layer 1" xmlns="http://www.w3.org/2000/svg" viewBox="0 0 750.31 470.69"><defs><style>.cls-1{fill:#050f64;}.cls-2{fill:#fff;}.cls-3{fill:#e5e6eb;}.cls-4{fill:#84a9ff;}.cls-5{fill:#155bcd;}.cls-6{fill:#f5bdc8;}.cls-7{fill:#ff654f;}.cls-8{fill:#ea8096;}.cls-9{fill:#f4bcc7;}</style></defs><title>Icons</title><path class="cls-1" d="M771.15,536.67a4.69,4.69,0,0,1-4.67,4.68h-741a4.68,4.68,0,0,1-4.67-4.68,5,5,0,0,1,1.37-3.37,4.71,4.71,0,0,1,3.3-1.37h741a4.69,4.69,0,0,1,4.67,4.74" transform="translate(-20.85 -70.65)"/><path class="cls-1" d="M108.07,122.14V444a22.42,22.42,0,0,0,22.41,22.41h531A22.42,22.42,0,0,0,683.93,444V122.14a22.41,22.41,0,0,0-22.41-22.41h-531a22.41,22.41,0,0,0-22.41,22.41" transform="translate(-20.85 -70.65)"/><rect class="cls-2" x="107.36" y="49.21" width="535.58" height="307.86"/><rect class="cls-3" x="275.69" y="395.77" width="198.92" height="32.58"/><polygon class="cls-3" points="504.1 461.28 246.21 461.28 275.69 427.12 474.61 427.12 504.1 461.28"/><path class="cls-4" d="M633.82,82.61V284a12,12,0,0,1-12,12H170.14a12,12,0,0,1-12-12V82.61a12,12,0,0,1,12-12H621.86a12,12,0,0,1,12,12" transform="translate(-20.85 -70.65)"/><path class="cls-5" d="M633.82,82.61v20.9H158.18V82.61a12,12,0,0,1,12-12H621.86a12,12,0,0,1,12,12" transform="translate(-20.85 -70.65)"/><rect class="cls-2" x="157.75" y="48.18" width="109.56" height="141.46"/><path class="cls-5" d="M280.18,213v41.38H186.63V212.73a12.89,12.89,0,0,1,7.7-11.76l15.61-6.87,21.65-9.48,1.78.68,23.37,9.49,15.4,6.25a13,13,0,0,1,8,12" transform="translate(-20.85 -70.65)"/><path class="cls-1" d="M256.74,194.79c-.89,3.85-5.29,22.41-12.37,27.56,0,0-10.1-3.51-11-8-.82,4.46-10.92,8-10.92,8-7.91-5.77-12.51-28.25-12.51-28.25l21.65-9.48,1.78.68Z" transform="translate(-20.85 -70.65)"/><path class="cls-6" d="M250.49,155.33V146.6l-34.16-.34v9.07a2.91,2.91,0,0,0-2.89,2.89v10.59a2.84,2.84,0,0,0,2.89,2.81v2.89A17,17,0,0,0,220,185v12.09a13.44,13.44,0,1,0,26.88,0V185a17,17,0,0,0,3.64-10.52v-2.89a2.84,2.84,0,0,0,2.89-2.81V158.22a2.91,2.91,0,0,0-2.89-2.89" transform="translate(-20.85 -70.65)"/><path class="cls-1" d="M240.25,134.65c-4.88-1.45-9.21-1.65-13.68,0-7.35,2.74-12.92,8.59-11.27,16.22l2,14.09S229.66,149.7,244.85,150L250,165l1.51-14.09c1.65-7.63-3.78-13.89-11.27-16.22" transform="translate(-20.85 -70.65)"/><path class="cls-1" d="M235.3,225.1a1.91,1.91,0,0,1-1.93,1.86,1.86,1.86,0,0,1,0-3.72,1.91,1.91,0,0,1,1.93,1.86" transform="translate(-20.85 -70.65)"/><path class="cls-1" d="M235.3,234.59a1.9,1.9,0,0,1-1.93,1.85,1.86,1.86,0,0,1,0-3.71,1.9,1.9,0,0,1,1.93,1.86" transform="translate(-20.85 -70.65)"/><path class="cls-1" d="M235.3,244.07a1.91,1.91,0,0,1-1.93,1.86,1.86,1.86,0,0,1,0-3.72,1.91,1.91,0,0,1,1.93,1.86" transform="translate(-20.85 -70.65)"/><rect class="cls-2" x="294.32" y="59.52" width="298.24" height="6.6"/><rect class="cls-2" x="294.32" y="86.81" width="298.24" height="6.67"/><rect class="cls-2" x="294.32" y="114.17" width="298.24" height="6.6"/><rect class="cls-2" x="294.32" y="141.46" width="298.24" height="6.6"/><rect class="cls-2" x="294.32" y="168.74" width="298.24" height="6.6"/><path class="cls-2" d="M192.68,87.08a4.64,4.64,0,1,1-4.6-4.6,4.6,4.6,0,0,1,4.6,4.6" transform="translate(-20.85 -70.65)"/><path class="cls-2" d="M217.7,87.08a4.66,4.66,0,0,1-4.6,4.67,4.72,4.72,0,0,1-4.68-4.67,4.66,4.66,0,0,1,4.68-4.6,4.6,4.6,0,0,1,4.6,4.6" transform="translate(-20.85 -70.65)"/><path class="cls-2" d="M242.72,87.08a4.61,4.61,0,1,1-9.21,0,4.61,4.61,0,0,1,9.21,0" transform="translate(-20.85 -70.65)"/><path class="cls-4" d="M633.82,130.25V331.71a12,12,0,0,1-12,12H170.14a12,12,0,0,1-12-12V130.25a11.92,11.92,0,0,1,12-11.9H621.86a11.92,11.92,0,0,1,12,11.9" transform="translate(-20.85 -70.65)"/><path class="cls-5" d="M633.82,130.25v21H158.18v-21a11.92,11.92,0,0,1,12-11.9H621.86a11.92,11.92,0,0,1,12,11.9" transform="translate(-20.85 -70.65)"/><rect class="cls-2" x="157.75" y="95.88" width="109.56" height="141.39"/><path class="cls-5" d="M280.18,260.7V302H186.63V260.43a12.89,12.89,0,0,1,7.7-11.82l15.61-6.81,21.65-9.55,1.78.75,23.37,9.49,15.4,6.25a13,13,0,0,1,8,12" transform="translate(-20.85 -70.65)"/><path class="cls-1" d="M256.74,242.49c-.89,3.78-5.29,22.41-12.37,27.49,0,0-10.1-3.43-11-8-.82,4.54-10.92,8-10.92,8-7.91-5.7-12.51-28.18-12.51-28.18l21.65-9.55,1.78.75Z" transform="translate(-20.85 -70.65)"/><path class="cls-6" d="M250.49,203v-8.8L216.33,194V203a2.84,2.84,0,0,0-2.89,2.81v10.59a2.91,2.91,0,0,0,2.89,2.89v2.81A17.31,17.31,0,0,0,220,232.73v12.1a13.44,13.44,0,0,0,26.88,0v-12.1a17.37,17.37,0,0,0,3.64-10.59v-2.81a2.91,2.91,0,0,0,2.89-2.89V205.85a2.84,2.84,0,0,0-2.89-2.81" transform="translate(-20.85 -70.65)"/><path class="cls-1" d="M240.25,182.35c-4.88-1.52-9.21-1.65-13.68,0-7.35,2.68-12.92,8.52-11.27,16.15l2,14.09s12.37-15.19,27.56-14.85L250,212.59l1.51-14.09c1.65-7.63-3.78-13.88-11.27-16.15" transform="translate(-20.85 -70.65)"/><path class="cls-1" d="M235.3,272.73a2,2,0,0,1-1.93,1.93,1.91,1.91,0,0,1-1.85-1.93,1.84,1.84,0,0,1,1.85-1.85,1.9,1.9,0,0,1,1.93,1.85" transform="translate(-20.85 -70.65)"/><path class="cls-1" d="M235.3,282.22a2,2,0,0,1-1.93,1.92,1.9,1.9,0,0,1-1.85-1.92,1.85,1.85,0,0,1,1.85-1.86,1.91,1.91,0,0,1,1.93,1.86" transform="translate(-20.85 -70.65)"/><path class="cls-1" d="M235.3,291.7a1.92,1.92,0,0,1-1.93,1.93,1.86,1.86,0,0,1-1.85-1.93,1.84,1.84,0,0,1,1.85-1.85,1.9,1.9,0,0,1,1.93,1.85" transform="translate(-20.85 -70.65)"/><rect class="cls-2" x="294.32" y="107.23" width="298.24" height="6.6"/><rect class="cls-2" x="294.32" y="134.51" width="298.24" height="6.6"/><rect class="cls-2" x="294.32" y="161.8" width="298.24" height="6.6"/><rect class="cls-2" x="294.32" y="189.09" width="298.24" height="6.67"/><rect class="cls-2" x="294.32" y="216.44" width="298.24" height="6.6"/><path class="cls-2" d="M192.68,134.78a4.64,4.64,0,1,1-4.6-4.67,4.6,4.6,0,0,1,4.6,4.67" transform="translate(-20.85 -70.65)"/><path class="cls-2" d="M217.7,134.78a4.6,4.6,0,0,1-4.6,4.61,4.64,4.64,0,1,1,0-9.28,4.62,4.62,0,0,1,4.6,4.67" transform="translate(-20.85 -70.65)"/><path class="cls-2" d="M242.72,134.78a4.61,4.61,0,1,1-4.6-4.67,4.6,4.6,0,0,1,4.6,4.67" transform="translate(-20.85 -70.65)"/><path class="cls-4" d="M633.82,177.54V379a12,12,0,0,1-12,12H170.14a12,12,0,0,1-12-12V177.54a11.92,11.92,0,0,1,12-11.9H621.86a11.92,11.92,0,0,1,12,11.9" transform="translate(-20.85 -70.65)"/><path class="cls-5" d="M633.82,177.54v21H158.18v-21a11.92,11.92,0,0,1,12-11.9H621.86a11.92,11.92,0,0,1,12,11.9" transform="translate(-20.85 -70.65)"/><rect class="cls-2" x="157.75" y="143.17" width="109.56" height="141.39"/><path class="cls-7" d="M280.18,308V349.3H186.63V307.72a12.89,12.89,0,0,1,7.7-11.82l15.61-6.81,21.65-9.55,1.78.75,23.37,9.49,15.4,6.25a13,13,0,0,1,8,12" transform="translate(-20.85 -70.65)"/><path class="cls-1" d="M256.74,289.78c-.89,3.78-5.29,22.41-12.37,27.49,0,0-10.1-3.43-11-8-.82,4.54-10.92,8-10.92,8-7.91-5.7-12.51-28.18-12.51-28.18l21.65-9.55,1.78.75Z" transform="translate(-20.85 -70.65)"/><path class="cls-6" d="M250.49,250.33v-8.8l-34.16-.28v9.08a2.84,2.84,0,0,0-2.89,2.81v10.59a2.91,2.91,0,0,0,2.89,2.89v2.81A17.31,17.31,0,0,0,220,280v12.1a13.44,13.44,0,0,0,26.88,0V280a17.37,17.37,0,0,0,3.64-10.59v-2.81a2.91,2.91,0,0,0,2.89-2.89V253.14a2.84,2.84,0,0,0-2.89-2.81" transform="translate(-20.85 -70.65)"/><path class="cls-1" d="M240.25,229.64c-4.88-1.52-9.21-1.65-13.68,0-7.35,2.68-12.92,8.52-11.27,16.15l2,14.09s12.37-15.19,27.56-14.85L250,259.88l1.51-14.09c1.65-7.63-3.78-13.89-11.27-16.15" transform="translate(-20.85 -70.65)"/><rect class="cls-2" x="294.32" y="154.52" width="298.24" height="6.6"/><rect class="cls-2" x="294.32" y="181.8" width="298.24" height="6.6"/><rect class="cls-2" x="294.32" y="209.09" width="298.24" height="6.6"/><rect class="cls-2" x="294.32" y="236.38" width="298.24" height="6.67"/><rect class="cls-2" x="294.32" y="263.73" width="298.24" height="6.6"/><path class="cls-2" d="M192.68,182.07a4.64,4.64,0,1,1-4.6-4.67,4.6,4.6,0,0,1,4.6,4.67" transform="translate(-20.85 -70.65)"/><path class="cls-2" d="M217.7,182.07a4.6,4.6,0,0,1-4.6,4.61,4.64,4.64,0,1,1,0-9.28,4.62,4.62,0,0,1,4.6,4.67" transform="translate(-20.85 -70.65)"/><path class="cls-2" d="M242.72,182.07a4.61,4.61,0,1,1-4.6-4.67,4.6,4.6,0,0,1,4.6,4.67" transform="translate(-20.85 -70.65)"/><path class="cls-1" d="M695.54,244.07a11.07,11.07,0,0,1,16.78-10.52,10.91,10.91,0,0,1,5-2.54,11,11,0,0,1,12.58,6.39,11.09,11.09,0,0,1,8.18,15.4,11.1,11.1,0,0,1-.21,20.48,5.86,5.86,0,0,1,.28,1,11.07,11.07,0,0,1-17.39,11.34,4.21,4.21,0,0,0-.48.14,11.68,11.68,0,0,1-5.36-.2,10.73,10.73,0,0,1-4.81,2.4A11.09,11.09,0,0,1,697,274.52a10.77,10.77,0,0,1-2.13-4.47,11.34,11.34,0,0,1,1.3-8.11,11.18,11.18,0,0,1-.62-17.87" transform="translate(-20.85 -70.65)"/><path class="cls-8" d="M609.56,312.39a3,3,0,0,1,3.92-.07,50.75,50.75,0,0,0,21.3,11.48,36.08,36.08,0,0,0,11.48.83,31.84,31.84,0,0,0,5.57-1,31.09,31.09,0,0,0,5.29-1.79,35.14,35.14,0,0,0,5-2.61l.62-.35.62-.41c.41-.28.82-.48,1.23-.76.76-.55,1.59-1.1,2.34-1.71a66.3,66.3,0,0,0,8.59-8,111.49,111.49,0,0,0,14.23-19.79,8.27,8.27,0,0,1,2.68-2.68,9.18,9.18,0,0,1,1.65-.9,12.89,12.89,0,0,1,1.86-.55,10.71,10.71,0,0,1,7.83,1.38,10.15,10.15,0,0,1,4.68,6.53,10.25,10.25,0,0,1,.2,2,7.29,7.29,0,0,1-.27,2.06,9.49,9.49,0,0,1-1.72,3.78,137,137,0,0,1-9.21,10.73,130.66,130.66,0,0,1-10.38,9.76,86.34,86.34,0,0,1-12,8.24c-1,.62-2.2,1.17-3.3,1.79-.55.28-1.1.48-1.65.76l-.82.41-.9.34a59.83,59.83,0,0,1-7.08,2.48,48.28,48.28,0,0,1-15,1.58,46.55,46.55,0,0,1-14.43-3.09,53.76,53.76,0,0,1-12.44-7,58.68,58.68,0,0,1-10.25-9.48,2.77,2.77,0,0,1,.35-4" transform="translate(-20.85 -70.65)"/><path class="cls-7" d="M671.56,306.34l14.22-18.49c4.33-5.63,12.1-7.08,17.67-2.81s6.94,12.85,2.61,18.42L691.83,322Z" transform="translate(-20.85 -70.65)"/><path class="cls-1" d="M714.52,528.77a3.15,3.15,0,0,1,2.13-1.17c.82-.14,1.65-.07,2.47-.14a14,14,0,0,0,5.77-1.65,15.44,15.44,0,0,1,2.75-1.51l5.85.14a6.6,6.6,0,0,1,1.51,3.09,12.8,12.8,0,0,1,.2,3.23v1.17H713.9v-1.17a2.84,2.84,0,0,1,.62-2" transform="translate(-20.85 -70.65)"/><polygon class="cls-6" points="713.33 447.46 712.64 453.79 706.8 453.65 706.32 447.53 713.33 447.46"/><path class="cls-5" d="M709.57,393.16c-5.71,14.57-13.13,27.63-21.24,37.25l-8.94,89.22L650.66,518l13.4-87.3a82.92,82.92,0,0,1,2.69-11.54l20.55-64c2.2-8.39,47.35-2.34,47.35-2.34,12.51,17.32,4.61,72.44,4.61,72.44L746,517.91l-30.59.48.14-91.83Z" transform="translate(-20.85 -70.65)"/><polygon class="cls-6" points="647.41 448.29 645.69 453.79 639.85 453.58 640.74 447.94 647.41 448.29"/><path class="cls-1" d="M647.57,528.77a3.15,3.15,0,0,1,2.13-1.17c.82-.14,1.65-.07,2.47-.14a13.22,13.22,0,0,0,5.78-1.65,20.82,20.82,0,0,1,2.75-1.58l5.84.21a6.29,6.29,0,0,1,1.51,3.09,9.64,9.64,0,0,1,.21,3.16v1.24H647v-1.17a2.89,2.89,0,0,1,.62-2" transform="translate(-20.85 -70.65)"/><path class="cls-7" d="M716.78,276.51h0a29.09,29.09,0,0,0-30.65,31.62l1.17,47c19.38,8.11,34.36,4.19,47.35-2.34l4.54-48.94a24.05,24.05,0,0,0-22.41-27.36" transform="translate(-20.85 -70.65)"/><path class="cls-2" d="M723.93,277.48V278a24.34,24.34,0,0,1,13.89,13.81h.48a24.56,24.56,0,0,0-3.92-6.87,25.08,25.08,0,0,0-10.45-7.49m-33.06,79.59a52.16,52.16,0,0,0,17.67,3.16,48.69,48.69,0,0,0,11.27-1.3l-.07-.55a50,50,0,0,1-28.87-1.86Zm-5.29-48.87.14,4.05.48-.06-.07-4.06a29,29,0,0,1,18.28-29.62l-.14-.55a29.88,29.88,0,0,0-11.06,7.63A29.3,29.3,0,0,0,685.58,308.2Zm1.17,25.22h-.48l.34,15.26h.55Zm43.09,21.66v.55c1.65-.69,3.3-1.52,5-2.34l.28-.14,1-11.34-.48-.27-1,11.27C733.07,353.63,731.49,354.39,729.84,355.08Z" transform="translate(-20.85 -70.65)"/><path class="cls-6" d="M708,266.62l.06,17.8a9.92,9.92,0,0,0,11.62-.07l-.07-17.8Z" transform="translate(-20.85 -70.65)"/><path class="cls-8" d="M708,268.2v4.4a12.4,12.4,0,0,0,5.91,1.78h.34a7.62,7.62,0,0,0,5.36-2.13v-4.12Z" transform="translate(-20.85 -70.65)"/><path class="cls-6" d="M703.11,249.84l.27,10.38.07,2.27A11.08,11.08,0,0,0,714,273.15a7.79,7.79,0,0,0,1.78-.21,1.92,1.92,0,0,0,.62-.14.22.22,0,0,1,.14-.07,6.88,6.88,0,0,0,2.27-1.51,18.56,18.56,0,0,0,3.09-4.67,39.19,39.19,0,0,0,1.86-4.33,15.73,15.73,0,0,0,.75-5.43l-.34-9.08-17.67-2.2Z" transform="translate(-20.85 -70.65)"/><path class="cls-1" d="M699.46,252.59a20.66,20.66,0,0,1,1.1-3.78,6.57,6.57,0,0,1,2.2-1.85,3,3,0,0,1,1.45-.28,7,7,0,0,1,2.06-1.72c4.19-2.13,9.83-2.4,12.78-1.16,2.06,1,6.12,1.37,5.36,2.19,1.38-.06.48,1.79,1.45,5.5.89,3.3.68,8.8-1,9.9s-4.13.62-2.55-3.37v-.48a2.92,2.92,0,0,1-1.72-1.1,6.44,6.44,0,0,1-1-2.95c-.2-1-.27-2.07-.55-3a7.29,7.29,0,0,0-2.33-3.3,2.9,2.9,0,0,1-.48-.2,7.91,7.91,0,0,0-1,.55,17.8,17.8,0,0,0-2.82,3.57,13.82,13.82,0,0,1-7.14,5,6.28,6.28,0,0,1-2,.27,1.12,1.12,0,0,0,.07.48s-2.34-.13-3.09-1.23a4.87,4.87,0,0,1-.76-3" transform="translate(-20.85 -70.65)"/><path class="cls-6" d="M720.5,258.85a4.22,4.22,0,0,0,4.19,4.26,4.23,4.23,0,1,0,0-8.45,4.11,4.11,0,0,0-4.19,4.19" transform="translate(-20.85 -70.65)"/><path class="cls-1" d="M715.07,402h0a7.6,7.6,0,0,0,0-10.72L624,300.16l-10.72,10.72L704.34,402a7.59,7.59,0,0,0,10.73,0" transform="translate(-20.85 -70.65)"/><polygon class="cls-5" points="590.43 264.97 627.96 227.51 616.55 216.1 579.09 253.63 590.43 264.97"/><path class="cls-1" d="M471.33,310a107.41,107.41,0,0,0,151.77,0c41.86-41.86,41.86-110,0-151.77a107.41,107.41,0,0,0-151.77,0c-41.86,41.79-41.86,109.91,0,151.77m8.94-8.94a94.67,94.67,0,1,1,133.89,0A94.79,94.79,0,0,1,480.27,301.05Z" transform="translate(-20.85 -70.65)"/><path class="cls-6" d="M693.28,395.42a2.9,2.9,0,0,1-.49-3.78c1.17-1.65,2.34-3.36,3.37-5.08.55-.9,1-1.79,1.58-2.68l1.45-2.68c1.85-3.72,3.5-7.5,4.95-11.28a136.94,136.94,0,0,0,6.39-23.78l.27-1.51.21-1.51.41-3,.41-3.09c.07-1,.21-2,.28-3,.21-2.06.41-4.05.48-6.11l.21-3.1c0-1,.07-2,.07-3a209.7,209.7,0,0,0-.9-24.54,8.74,8.74,0,0,1,2.55-6.8A11.15,11.15,0,0,1,721.8,287a10.19,10.19,0,0,1,7.49,2.61,8.91,8.91,0,0,1,3.1,7.15,217.29,217.29,0,0,1-2.82,26.6c-.14,1.1-.35,2.2-.55,3.3l-.62,3.3c-.41,2.2-1,4.33-1.51,6.53a27.36,27.36,0,0,1-.83,3.23l-.82,3.23-1,3.23-.49,1.58-.54,1.58a145.59,145.59,0,0,1-10.45,24.54,114,114,0,0,1-7.08,11.27c-.62.9-1.31,1.79-1.93,2.68a33.63,33.63,0,0,1-2.13,2.61,58.56,58.56,0,0,1-4.47,5,2.67,2.67,0,0,1-3.91-.07" transform="translate(-20.85 -70.65)"/><path class="cls-7" d="M734.45,323.32l.07-23.37c.07-7.08-5.16-13.06-12.24-13.06A13.4,13.4,0,0,0,709,299.81l-.07,23.37Z" transform="translate(-20.85 -70.65)"/><path class="cls-2" d="M708.4,311.16l-.07,12.51,4.4.06.07-.55h-3.92v-12Zm.2-13.34.49.21a13.42,13.42,0,0,1,13.19-11.14,9.28,9.28,0,0,1,2.48.28l.2-.48a10.73,10.73,0,0,0-2.68-.35,14,14,0,0,0-9.62,4A13.32,13.32,0,0,0,708.6,297.82ZM733.35,293l-.41.34a13.23,13.23,0,0,1,1.58,6.6v8l.48.07.07-8.11A14.83,14.83,0,0,0,733.35,293Zm1.1,30.31-14.71-.07.07.48,15.12.07.07-6.67h-.55Z" transform="translate(-20.85 -70.65)"/><path class="cls-1" d="M115.77,531.93h28.52a4.3,4.3,0,0,0-.75-2.61,4.61,4.61,0,0,0-2.89-1.58,26,26,0,0,0-3.3-.14,18.36,18.36,0,0,1-7.76-2.27,23.66,23.66,0,0,0-3.72-2l-7.76.14a9.66,9.66,0,0,0-2.07,4.19,18.19,18.19,0,0,0-.27,4.26" transform="translate(-20.85 -70.65)"/><path class="cls-1" d="M60.23,531.93H88.76a4.31,4.31,0,0,0-.76-2.61,4.61,4.61,0,0,0-2.89-1.58,26,26,0,0,0-3.3-.14,18.36,18.36,0,0,1-7.76-2.27,24,24,0,0,0-3.71-2l-7.77.14a9.54,9.54,0,0,0-2.06,4.19,17.69,17.69,0,0,0-.28,4.26" transform="translate(-20.85 -70.65)"/><path class="cls-5" d="M127.39,523.34l-3.1-87.84s-.07-1.58-.13-1.86l-7.57-61c-.55-7.63-61.38,4.47-61.38,4.47L62,523.61l10.1-.27L86.28,403.67l17,33.75,13.81,86.19Z" transform="translate(-20.85 -70.65)"/><path class="cls-8" d="M145.26,311.09c-1.65,0-3,1-3.17,2.13a60.61,60.61,0,0,1-2,10.17c-.2.76-.48,1.51-.75,2.27a3.79,3.79,0,0,1-.21.48l-.21.41c-.13.21-.27.48-.41.69a8,8,0,0,1-1.92,2.27,3.73,3.73,0,0,1-2.68.75,5.07,5.07,0,0,1-2.41-1.1,5.35,5.35,0,0,1-.89-.89l-.42-.41-.2-.28-.35-.34a39.7,39.7,0,0,1-2.81-3.64c-1-1.31-1.79-2.68-2.62-4.06s-1.65-3-2.4-4.47c-1.51-3-2.89-6.11-4.13-9.34a192.75,192.75,0,0,1-6.53-19.8,7,7,0,0,0-4.74-4.47,13.9,13.9,0,0,0-8.32.21,12.18,12.18,0,0,0-6.59,5,7.24,7.24,0,0,0-.76,6.87,222.09,222.09,0,0,0,10.93,20.28c2.06,3.36,4.26,6.59,6.6,9.76a89.7,89.7,0,0,0,7.9,9.21A57.52,57.52,0,0,0,121,337l.69.55.89.62c.55.41,1.17.75,1.79,1.17a4.78,4.78,0,0,0,1,.48,4.05,4.05,0,0,0,.9.48c.62.27,1.3.62,1.92.82a18,18,0,0,0,1.93.62c.68.14,1.37.28,2,.35a16.15,16.15,0,0,0,4-.07,12.86,12.86,0,0,0,6.73-3.71,19.51,19.51,0,0,0,3.92-6.74,17.48,17.48,0,0,0,.55-1.79l.21-.89a6.73,6.73,0,0,0,.2-.89c.21-1,.35-2,.48-3a65.74,65.74,0,0,0,.21-11.62c-.07-1.3-1.44-2.26-3.09-2.26" transform="translate(-20.85 -70.65)"/><path class="cls-7" d="M98.93,324.83,89.79,300c-2.75-7.49.48-15.81,8-18.56A15.09,15.09,0,0,1,116.94,290l9.14,24.82Z" transform="translate(-20.85 -70.65)"/><path class="cls-7" d="M80.51,273.42h0A26.64,26.64,0,0,1,111.16,298l5.43,74.64c-24.12,13.61-39,10.31-61.38,4.47L52.67,307a32.79,32.79,0,0,1,27.84-33.54" transform="translate(-20.85 -70.65)"/><path class="cls-2" d="M53,314h-.83l1.24,34.1h.82Zm62.75,34.78-.89.07,1.78,23.85C93.77,385.53,79.13,383.26,58.65,378l.07.9c9.62,2.47,17.46,4.12,25.64,4.12,10.72,0,20.82-3,32.58-9.69l.48-.21ZM84.56,273.08A26.71,26.71,0,0,1,111.16,298l1.65,22.82h.83L112,298a27.55,27.55,0,0,0-27.43-25.71,28.31,28.31,0,0,0-4.19.35H80.1l-.07.89a1.12,1.12,0,0,1,.48-.07A26.35,26.35,0,0,1,84.56,273.08Z" transform="translate(-20.85 -70.65)"/><path class="cls-6" d="M90.82,265.58l-2.41,18.84c-4.4,2.2-8.52,1.65-12.3-1.51l2.41-18.84Z" transform="translate(-20.85 -70.65)"/><path class="cls-8" d="M90.82,265.58l-1.1,8.53a7.82,7.82,0,0,1-2.82.27,4.44,4.44,0,0,1-1-.07,11,11,0,0,1-8-5.22l.62-5Z" transform="translate(-20.85 -70.65)"/><path class="cls-6" d="M97.83,254.79l-1.24,7.84L96,265.79A8.8,8.8,0,0,1,87,273.15a9.28,9.28,0,0,1-4.12-1.1,3.7,3.7,0,0,1-.9-.49c-.14-.13-.34-.2-.48-.34A9.87,9.87,0,0,1,78,266.55a52.88,52.88,0,0,1-1.44-5.3c-.27-1-.48-2.13-.69-3.23a13.36,13.36,0,0,1,4.54-13.19c3.3-2.68,7.08-3.17,11.34-1.24a10.22,10.22,0,0,1,6,11.2" transform="translate(-20.85 -70.65)"/><path class="cls-1" d="M100.3,257.2a4,4,0,0,0,1.1-3.44,8.27,8.27,0,0,1,.42-3.71c.68-1.44,2.33-2.13,2.75-3.71s-.55-2.89-1.52-3.85l-7.42-8a10.71,10.71,0,0,0-3.3-2.82,3.76,3.76,0,0,0-4.12.34,21.6,21.6,0,0,1-1.79,1.79c-1.44,1.1-3.3.48-4.88.07a7.88,7.88,0,0,0-6.12.14,6.08,6.08,0,0,0-3.3,5.91A11.3,11.3,0,0,0,73.36,243a4.79,4.79,0,0,1,.28,3.37c-.55,1.51-2.07,2.06-3.24,2.89a8.16,8.16,0,0,0-3.09,5.63,7.16,7.16,0,0,0,1.79,5.84c1.17,1.24,3.16,1.65,4.33.14,1.37-1.65.89-4.88,2.61-5.91,2.06-1.17,4.06,2.75,6.12,1.44,1.1-.68,1.37-2.4,2.34-3.36,1.3-1.24,3-.55,4.26,0a28.53,28.53,0,0,0,4.12,1,7.26,7.26,0,0,1,3.37,1.78c1.1.9,2.54,2.48,4,1.38" transform="translate(-20.85 -70.65)"/><path class="cls-6" d="M82,258.57a4.67,4.67,0,1,1-4-4.67,4.41,4.41,0,0,1,4,4.67" transform="translate(-20.85 -70.65)"/><polygon class="cls-5" points="85.16 297 129.43 297 147.64 239.68 103.38 239.68 85.16 297"/><path class="cls-9" d="M162.23,352.05a2.71,2.71,0,0,1-2.61,3,66.56,66.56,0,0,1-13.88-.83,109.73,109.73,0,0,1-13.41-3.16c-1-.34-2.19-.69-3.23-1.1l-3.23-1.1-3.23-1.24c-1.1-.41-2.13-.82-3.16-1.3l-1.58-.62-1.58-.69-3.09-1.44c-2.07-1-4.13-2-6.12-3.1-16.15-8.45-31-19.1-44.88-30.79a13.82,13.82,0,0,1-1.38-1.58,9.13,9.13,0,0,1-1-1.79,9.42,9.42,0,0,1-.82-3.85,10,10,0,0,1,3.09-7.35,10.65,10.65,0,0,1,7.35-3,10,10,0,0,1,3.78.68,13.65,13.65,0,0,1,1.72,1A11.65,11.65,0,0,1,76.45,295a229.88,229.88,0,0,0,37.46,34.3c1.72,1.31,3.51,2.41,5.23,3.64l2.68,1.65,1.37.9,1.38.75,2.68,1.65,2.82,1.52,2.81,1.44c.9.48,1.86.89,2.82,1.37a106.41,106.41,0,0,0,11.76,4.54,62.19,62.19,0,0,0,12.16,2.47,3,3,0,0,1,2.61,2.82" transform="translate(-20.85 -70.65)"/><path class="cls-7" d="M84.63,332.74,64,315.55c-6.25-5.22-7.63-14.22-2.4-20.41s15-7.35,21.24-2.2l20.62,17.25Z" transform="translate(-20.85 -70.65)"/><path class="cls-2" d="M89.86,298.78l11,9.21.49-.61-11-9.22Zm-32.1,7a16.16,16.16,0,0,0,4.81,9.49l.62-.48a14.61,14.61,0,0,1-3.71-16.09l-.69-.41A13.83,13.83,0,0,0,57.76,305.79Zm15.74-16.9a16.6,16.6,0,0,0-9.69,3.16l.48.55a15.66,15.66,0,0,1,16.56-1l.48-.55A15.12,15.12,0,0,0,73.5,288.89Zm-3.23,31.89-.48.62L84.7,333.84l6.67-8-.69-.35-6.05,7.29Zm32.1-9.28-7.22,8.66.76.27,7-8.45A4.5,4.5,0,0,0,102.37,311.5Z" transform="translate(-20.85 -70.65)"/></svg>