<svg width="723" height="723" viewBox="0 0 723 723" fill="none" xmlns="http://www.w3.org/2000/svg">
<path d="M690.345 563.699C690.345 564.844 689.863 565.868 689.14 566.591C688.417 567.314 687.392 567.796 686.248 567.796H36.7525C34.463 567.796 32.6555 565.928 32.6555 563.699C32.6555 562.554 33.1375 561.53 33.8605 560.747C34.5835 560.024 35.6078 559.542 36.7525 559.542H686.248C688.537 559.542 690.345 561.41 690.345 563.699Z" fill="#050F64"/>
<path d="M109.113 200.331V482.482C109.113 493.327 117.909 502.123 128.754 502.123H594.246C605.091 502.123 613.887 493.327 613.887 482.482V200.331C613.887 189.486 605.091 180.689 594.246 180.689H128.754C117.909 180.689 109.113 189.486 109.113 200.331Z" fill="#050F64"/>
<path d="M126.766 468.203H596.234V198.343H126.766V468.203Z" fill="white"/>
<path d="M448.682 530.683H274.318V502.124H448.682V530.683Z" fill="#E5E6EB"/>
<path d="M474.529 559.542H248.471L274.318 529.598H448.682L474.529 559.542Z" fill="#E5E6EB"/>
<path d="M569.965 165.688V342.22C569.965 348.004 565.266 352.704 559.482 352.704H163.519C157.735 352.704 153.035 348.004 153.035 342.22V165.688C153.035 159.904 157.735 155.204 163.519 155.204H559.482C565.266 155.204 569.965 159.904 569.965 165.688Z" fill="#84A9FF"/>
<path d="M569.965 165.688V184.004H153.035V165.688C153.035 159.904 157.735 155.204 163.519 155.204H559.482C565.266 155.204 569.965 159.904 569.965 165.688Z" fill="#155BCD"/>
<path d="M170.929 197.439H266.968V321.434H170.929V197.439Z" fill="white"/>
<path d="M259.979 279.982V316.252H177.979V279.741C177.979 275.282 180.63 271.246 184.727 269.438L198.403 263.413L217.382 255.099L218.949 255.701L239.434 264.016L252.93 269.498C257.147 271.246 259.979 275.403 259.979 279.982Z" fill="#155BCD"/>
<path d="M239.434 264.016C238.65 267.39 234.794 283.657 228.589 288.176C228.589 288.176 219.732 285.103 218.949 281.187C218.226 285.103 209.369 288.176 209.369 288.176C202.44 283.115 198.403 263.413 198.403 263.413L217.382 255.099L218.949 255.701L239.434 264.016Z" fill="#050F64"/>
<path d="M233.951 229.432V221.781L204.007 221.479V229.432C202.621 229.432 201.476 230.577 201.476 231.963V241.241C201.476 242.627 202.621 243.712 204.007 243.712V246.242C204.007 249.737 205.212 252.93 207.2 255.46V266.064C207.2 272.571 212.442 277.873 218.949 277.873C225.456 277.873 230.758 272.571 230.758 266.064V255.46C232.746 252.93 233.951 249.737 233.951 246.242V243.712C235.337 243.712 236.481 242.627 236.481 241.241V231.963C236.481 230.577 235.337 229.432 233.951 229.432Z" fill="#F5BDC8"/>
<path d="M224.974 211.297C220.696 210.032 216.9 209.851 212.984 211.297C206.537 213.707 201.657 218.828 203.103 225.516L204.85 237.867C204.85 237.867 215.695 224.492 229.01 224.793L233.529 237.867L234.855 225.516C236.301 218.828 231.541 213.346 224.974 211.297Z" fill="#050F64"/>
<path d="M220.636 290.586C220.636 291.489 219.852 292.212 218.949 292.212C218.045 292.212 217.322 291.489 217.322 290.586C217.322 289.682 218.045 288.959 218.949 288.959C219.852 288.959 220.636 289.682 220.636 290.586Z" fill="#050F64"/>
<path d="M220.636 298.9C220.636 299.804 219.852 300.527 218.949 300.527C218.045 300.527 217.322 299.804 217.322 298.9C217.322 297.996 218.045 297.273 218.949 297.273C219.852 297.273 220.636 297.996 220.636 298.9Z" fill="#050F64"/>
<path d="M220.636 307.215C220.636 308.118 219.852 308.841 218.949 308.841C218.045 308.841 217.322 308.118 217.322 307.215C217.322 306.311 218.045 305.588 218.949 305.588C219.852 305.588 220.636 306.311 220.636 307.215Z" fill="#050F64"/>
<path d="M552.071 213.165H290.646V207.381H552.071V213.165Z" fill="white"/>
<path d="M552.071 237.144H290.646V231.3H552.071V237.144Z" fill="white"/>
<path d="M552.071 261.063H290.646V255.279H552.071V261.063Z" fill="white"/>
<path d="M552.071 284.982H290.646V279.198H552.071V284.982Z" fill="white"/>
<path d="M552.071 308.902H290.646V303.118H552.071V308.902Z" fill="white"/>
<path d="M183.28 169.604C183.28 171.833 181.473 173.701 179.244 173.701C176.954 173.701 175.147 171.833 175.147 169.604C175.147 167.375 176.954 165.567 179.244 165.567C181.473 165.567 183.28 167.375 183.28 169.604Z" fill="white"/>
<path d="M205.212 169.604C205.212 171.833 203.404 173.701 201.175 173.701C198.946 173.701 197.078 171.833 197.078 169.604C197.078 167.375 198.946 165.567 201.175 165.567C203.404 165.567 205.212 167.375 205.212 169.604Z" fill="white"/>
<path d="M227.143 169.604C227.143 171.833 225.335 173.701 223.106 173.701C220.877 173.701 219.069 171.833 219.069 169.604C219.069 167.375 220.877 165.567 223.106 165.567C225.335 165.567 227.143 167.375 227.143 169.604Z" fill="white"/>
<path d="M569.965 207.441V384.034C569.965 389.818 565.266 394.517 559.482 394.517H163.519C157.735 394.517 153.035 389.818 153.035 384.034V207.441C153.035 201.657 157.735 197.018 163.519 197.018H559.482C565.266 197.018 569.965 201.657 569.965 207.441Z" fill="#84A9FF"/>
<path d="M569.965 207.441V225.817H153.035V207.441C153.035 201.657 157.735 197.018 163.519 197.018H559.482C565.266 197.018 569.965 201.657 569.965 207.441Z" fill="#155BCD"/>
<path d="M170.929 239.253H266.968V363.187H170.929V239.253Z" fill="white"/>
<path d="M259.979 321.795V358.005H177.979V321.554C177.979 317.035 180.63 312.999 184.727 311.191L198.403 305.226L217.382 296.852L218.949 297.514L239.434 305.829L252.93 311.312C257.147 313.059 259.979 317.156 259.979 321.795Z" fill="#155BCD"/>
<path d="M239.434 305.829C238.65 309.143 234.794 325.47 228.589 329.929C228.589 329.929 219.732 326.916 218.949 322.94C218.226 326.916 209.369 329.929 209.369 329.929C202.44 324.928 198.403 305.226 198.403 305.226L217.382 296.852L218.949 297.514L239.434 305.829Z" fill="#050F64"/>
<path d="M233.951 271.246V263.534L204.007 263.293V271.246C202.621 271.246 201.476 272.33 201.476 273.716V282.995C201.476 284.38 202.621 285.525 204.007 285.525V287.995C204.007 291.49 205.212 294.683 207.2 297.274V307.878C207.2 314.385 212.442 319.627 218.949 319.627C225.456 319.627 230.758 314.385 230.758 307.878V297.274C232.746 294.683 233.951 291.49 233.951 287.995V285.525C235.337 285.525 236.481 284.38 236.481 282.995V273.716C236.481 272.33 235.337 271.246 233.951 271.246Z" fill="#F5BDC8"/>
<path d="M224.974 253.11C220.696 251.785 216.9 251.664 212.984 253.11C206.537 255.46 201.657 260.581 203.103 267.269L204.85 279.62C204.85 279.62 215.695 266.305 229.01 266.606L233.529 279.62L234.855 267.269C236.301 260.581 231.541 255.098 224.974 253.11Z" fill="#050F64"/>
<path d="M220.636 332.339C220.636 333.242 219.852 334.026 218.949 334.026C218.045 334.026 217.322 333.242 217.322 332.339C217.322 331.435 218.045 330.712 218.949 330.712C219.852 330.712 220.636 331.435 220.636 332.339Z" fill="#050F64"/>
<path d="M220.636 340.654C220.636 341.558 219.852 342.341 218.949 342.341C218.045 342.341 217.322 341.558 217.322 340.654C217.322 339.75 218.045 339.027 218.949 339.027C219.852 339.027 220.636 339.75 220.636 340.654Z" fill="#050F64"/>
<path d="M220.636 348.969C220.636 349.933 219.852 350.656 218.949 350.656C218.045 350.656 217.322 349.933 217.322 348.969C217.322 348.065 218.045 347.342 218.949 347.342C219.852 347.342 220.636 348.065 220.636 348.969Z" fill="#050F64"/>
<path d="M552.071 254.978H290.646V249.194H552.071V254.978Z" fill="white"/>
<path d="M552.071 278.897H290.646V273.113H552.071V278.897Z" fill="white"/>
<path d="M552.071 302.816H290.646V297.032H552.071V302.816Z" fill="white"/>
<path d="M552.071 326.796H290.646V320.952H552.071V326.796Z" fill="white"/>
<path d="M552.071 350.716H290.646V344.932H552.071V350.716Z" fill="white"/>
<path d="M183.28 211.417C183.28 213.647 181.473 215.454 179.244 215.454C176.954 215.454 175.147 213.647 175.147 211.417C175.147 209.128 176.954 207.32 179.244 207.32C181.473 207.32 183.28 209.128 183.28 211.417Z" fill="white"/>
<path d="M205.212 211.417C205.212 213.647 203.404 215.454 201.175 215.454C198.946 215.454 197.078 213.647 197.078 211.417C197.078 209.128 198.946 207.32 201.175 207.32C203.404 207.32 205.212 209.128 205.212 211.417Z" fill="white"/>
<path d="M227.143 211.417C227.143 213.647 225.335 215.454 223.106 215.454C220.877 215.454 219.069 213.647 219.069 211.417C219.069 209.128 220.877 207.32 223.106 207.32C225.335 207.32 227.143 209.128 227.143 211.417Z" fill="white"/>
<path d="M569.965 248.893V425.486C569.965 431.27 565.266 435.969 559.482 435.969H163.519C157.735 435.969 153.035 431.27 153.035 425.486V248.893C153.035 243.109 157.735 238.47 163.519 238.47H559.482C565.266 238.47 569.965 243.109 569.965 248.893Z" fill="#84A9FF"/>
<path d="M569.965 248.893V267.269H153.035V248.893C153.035 243.109 157.735 238.47 163.519 238.47H559.482C565.266 238.47 569.965 243.109 569.965 248.893Z" fill="#155BCD"/>
<path d="M170.929 280.705H266.968V404.639H170.929V280.705Z" fill="white"/>
<path d="M259.979 363.247V399.457H177.979V363.006C177.979 358.487 180.63 354.451 184.727 352.643L198.403 346.678L217.382 338.304L218.949 338.966L239.434 347.281L252.93 352.764C257.147 354.511 259.979 358.608 259.979 363.247Z" fill="#FF654F"/>
<path d="M239.434 347.281C238.65 350.595 234.794 366.922 228.589 371.381C228.589 371.381 219.732 368.368 218.949 364.392C218.226 368.368 209.369 371.381 209.369 371.381C202.44 366.38 198.403 346.678 198.403 346.678L217.382 338.304L218.949 338.966L239.434 347.281Z" fill="#050F64"/>
<path d="M233.951 312.697V304.985L204.007 304.744V312.697C202.621 312.697 201.476 313.782 201.476 315.167V324.446C201.476 325.832 202.621 326.976 204.007 326.976V329.447C204.007 332.941 205.212 336.134 207.2 338.725V349.329C207.2 355.836 212.442 361.078 218.949 361.078C225.456 361.078 230.758 355.836 230.758 349.329V338.725C232.746 336.134 233.951 332.941 233.951 329.447V326.976C235.337 326.976 236.481 325.832 236.481 324.446V315.167C236.481 313.782 235.337 312.697 233.951 312.697Z" fill="#F5BDC8"/>
<path d="M224.974 294.562C220.696 293.237 216.9 293.116 212.984 294.562C206.537 296.912 201.657 302.033 203.103 308.721L204.85 321.072C204.85 321.072 215.695 307.757 229.01 308.058L233.529 321.072L234.855 308.721C236.301 302.033 231.541 296.551 224.974 294.562Z" fill="#050F64"/>
<path d="M552.071 296.43H290.646V290.646H552.071V296.43Z" fill="white"/>
<path d="M552.071 320.349H290.646V314.565H552.071V320.349Z" fill="white"/>
<path d="M552.071 344.268H290.646V338.484H552.071V344.268Z" fill="white"/>
<path d="M552.071 368.249H290.646V362.404H552.071V368.249Z" fill="white"/>
<path d="M552.071 392.168H290.646V386.384H552.071V392.168Z" fill="white"/>
<path d="M183.28 252.869C183.28 255.099 181.473 256.906 179.244 256.906C176.954 256.906 175.147 255.099 175.147 252.869C175.147 250.58 176.954 248.772 179.244 248.772C181.473 248.772 183.28 250.58 183.28 252.869Z" fill="white"/>
<path d="M205.212 252.869C205.212 255.099 203.404 256.906 201.175 256.906C198.946 256.906 197.078 255.099 197.078 252.869C197.078 250.58 198.946 248.772 201.175 248.772C203.404 248.772 205.212 250.58 205.212 252.869Z" fill="white"/>
<path d="M227.143 252.869C227.143 255.099 225.335 256.906 223.106 256.906C220.877 256.906 219.069 255.099 219.069 252.869C219.069 250.58 220.877 248.772 223.106 248.772C225.335 248.772 227.143 250.58 227.143 252.869Z" fill="white"/>
<path d="M624.07 307.215C623.588 302.395 626.781 297.876 631.661 296.791C634.192 296.249 636.722 296.731 638.771 297.996C639.976 296.912 641.482 296.129 643.169 295.767C647.808 294.743 652.387 297.153 654.195 301.37C657.93 302.033 661.123 304.865 661.967 308.841C662.449 310.95 662.148 313.059 661.364 314.866C664.136 316.071 666.365 318.542 667.028 321.735C668.052 326.434 665.522 331.074 661.184 332.821C661.304 333.122 661.364 333.423 661.425 333.725C662.569 339.027 659.256 344.208 654.014 345.353C651.182 345.955 648.35 345.293 646.181 343.666C646.001 343.726 645.88 343.726 645.76 343.786C644.193 344.088 642.566 344.027 641.06 343.606C639.915 344.63 638.469 345.353 636.843 345.714C631.601 346.859 626.419 343.545 625.275 338.243C624.973 336.797 624.973 335.291 625.335 333.905C624.431 332.761 623.768 331.435 623.467 329.989C622.925 327.459 623.407 324.928 624.612 322.88C622.624 321.494 621.178 319.445 620.635 316.915C619.792 313.179 621.238 309.444 624.07 307.215Z" fill="#050F64"/>
<path d="M548.697 367.103C549.781 366.26 551.227 366.2 552.131 367.043C557.554 371.863 564.121 375.478 570.809 377.105C574.183 377.888 577.557 378.129 580.87 377.828C582.497 377.707 584.124 377.406 585.751 376.984C587.317 376.623 588.884 376.081 590.39 375.418C591.896 374.755 593.402 374.032 594.788 373.128L595.33 372.827L595.873 372.466C596.234 372.225 596.596 372.044 596.957 371.803C597.62 371.321 598.343 370.839 599.006 370.297C601.657 368.248 604.187 365.898 606.537 363.308C611.297 358.126 615.394 352.222 619.009 345.956C619.611 344.992 620.394 344.208 621.358 343.606C621.78 343.305 622.262 343.064 622.804 342.823C623.286 342.642 623.829 342.461 624.431 342.341C626.6 341.859 629.131 342.22 631.3 343.546C633.469 344.871 634.915 346.98 635.397 349.269C635.517 349.872 635.577 350.414 635.577 351.017C635.577 351.619 635.517 352.222 635.336 352.824C635.095 353.969 634.613 355.114 633.83 356.138C631.3 359.391 628.649 362.524 625.757 365.537C622.925 368.489 619.912 371.381 616.659 374.092C613.405 376.743 609.851 379.214 606.115 381.322C605.211 381.865 604.187 382.347 603.223 382.889C602.741 383.13 602.259 383.311 601.777 383.552L601.054 383.913L600.271 384.214C598.283 385.058 596.174 385.781 594.065 386.383C589.787 387.528 585.329 388.01 580.931 387.769C576.532 387.588 572.255 386.564 568.278 385.058C564.302 383.491 560.687 381.383 557.373 378.912C554.059 376.502 551.047 373.731 548.396 370.598C547.492 369.574 547.612 367.947 548.697 367.103Z" fill="#EA8096"/>
<path d="M603.042 361.801L615.514 345.594C619.31 340.653 626.118 339.388 630.998 343.124C635.939 346.919 637.083 354.39 633.288 359.271L620.816 375.478L603.042 361.801Z" fill="#FF654F"/>
<path d="M640.698 556.771C641.12 556.168 641.843 555.867 642.566 555.746C643.289 555.626 644.012 555.686 644.735 555.626C646.482 555.505 648.23 555.023 649.796 554.18C650.579 553.698 651.363 553.156 652.206 552.854L657.327 552.975C657.99 553.698 658.472 554.722 658.653 555.686C658.834 556.59 658.894 557.554 658.834 558.518V559.542H640.156V558.518C640.156 557.855 640.277 557.253 640.698 556.771Z" fill="#050F64"/>
<path d="M657.93 547.432L657.327 552.975L652.206 552.854L651.784 547.492L657.93 547.432Z" fill="#F5BDC8"/>
<path d="M636.361 437.897C631.36 450.67 624.853 462.117 617.743 470.552L609.911 548.757L584.726 547.311L596.475 470.793C597.017 467.359 597.801 463.985 598.825 460.671L616.84 404.579C618.768 397.228 658.352 402.53 658.352 402.53C669.317 417.713 662.389 466.034 662.389 466.034L668.293 547.251L641.482 547.672L641.602 467.178L636.361 437.897Z" fill="#155BCD"/>
<path d="M600.15 548.155L598.644 552.975L593.523 552.794L594.306 547.854L600.15 548.155Z" fill="#F5BDC8"/>
<path d="M582.015 556.77C582.437 556.168 583.16 555.867 583.883 555.746C584.606 555.626 585.329 555.686 586.052 555.626C587.799 555.565 589.546 555.023 591.113 554.18C591.896 553.698 592.679 553.155 593.523 552.794L598.644 552.975C599.307 553.698 599.789 554.662 599.97 555.686C600.211 556.59 600.211 557.554 600.15 558.457V559.542H581.473V558.518C581.473 557.855 581.593 557.252 582.015 556.77Z" fill="#050F64"/>
<path d="M642.687 335.652C627.142 334.749 614.429 347.883 615.815 363.367L616.839 404.578C633.83 411.688 646.964 408.254 658.352 402.53L662.328 359.632C664.015 347.401 654.978 336.375 642.687 335.652Z" fill="#FF654F"/>
<path d="M654.134 404.518V405C655.58 404.398 657.026 403.675 658.532 402.952L658.773 402.831L659.677 392.89L659.255 392.649L658.352 402.53C656.966 403.253 655.58 403.916 654.134 404.518ZM616.357 385.54H615.936L616.237 398.915H616.719L616.357 385.54ZM615.333 363.428L615.454 366.983L615.875 366.922L615.815 363.368C614.731 351.679 621.72 341.376 631.842 337.4L631.721 336.918C628.046 338.364 624.732 340.653 622.021 343.606C617.08 349.028 614.67 356.077 615.333 363.428ZM619.972 406.266C625.214 408.133 630.335 409.037 635.457 409.037C638.77 409.037 642.024 408.676 645.338 407.892L645.277 407.41C637.806 409.158 629.552 409.158 619.972 405.784V406.266ZM648.953 336.496V336.978C654.616 339.147 658.954 343.606 661.123 349.088C661.244 349.088 661.424 349.088 661.545 349.088C660.762 346.919 659.557 344.871 658.111 343.063C655.64 340.111 652.507 337.822 648.953 336.496Z" fill="white"/>
<path d="M634.975 326.977L635.035 342.582C638.409 344.751 641.783 344.751 645.217 342.522L645.157 326.917L634.975 326.977Z" fill="#F5BDC8"/>
<path d="M634.975 328.363V332.219C636.481 333.123 638.289 333.725 640.156 333.785C640.277 333.785 640.337 333.785 640.458 333.785C642.205 333.785 643.952 333.123 645.157 331.918V328.303L634.975 328.363Z" fill="#EA8096"/>
<path d="M630.697 312.276L630.938 321.374L630.998 323.362C631.179 328.423 635.216 332.46 640.217 332.701C640.759 332.701 641.241 332.641 641.783 332.52C641.964 332.52 642.145 332.46 642.325 332.4C642.386 332.339 642.446 332.339 642.446 332.339C643.169 332.038 643.832 331.616 644.434 331.014C645.639 329.749 646.422 328.363 647.145 326.917C647.748 325.652 648.35 324.386 648.772 323.121C649.254 321.615 649.495 320.048 649.435 318.361L649.134 310.408L633.649 308.48L630.697 312.276Z" fill="#F5BDC8"/>
<path d="M627.504 314.686C627.564 313.722 628.468 311.373 628.468 311.373C628.468 311.373 629.191 310.348 630.396 309.746C630.697 309.565 631.179 309.505 631.661 309.505C632.143 308.902 632.746 308.42 633.469 307.999C637.144 306.131 642.084 305.89 644.675 306.974C646.483 307.818 650.037 308.179 649.375 308.902C650.58 308.842 649.796 310.469 650.64 313.722C651.423 316.614 651.242 321.434 649.736 322.398C648.29 323.302 646.121 322.941 647.507 319.446C647.507 319.446 647.507 319.265 647.507 319.024C646.904 318.904 646.362 318.542 646.001 318.06C645.458 317.337 645.217 316.373 645.097 315.47C644.916 314.566 644.856 313.662 644.615 312.819C644.193 311.614 643.47 310.65 642.566 309.927C642.386 309.866 642.265 309.806 642.145 309.746C641.783 309.927 641.482 310.107 641.301 310.228C640.217 311.071 639.614 312.337 638.831 313.361C637.264 315.47 635.035 317.036 632.565 317.759C632.023 317.94 631.42 318 630.818 318C630.818 318.121 630.818 318.301 630.878 318.422C630.878 318.422 628.829 318.301 628.167 317.337C627.564 316.373 627.504 315.711 627.504 314.686Z" fill="#050F64"/>
<path d="M645.94 320.168C645.94 322.217 647.567 323.904 649.616 323.904C651.664 323.904 653.351 322.217 653.351 320.168C653.291 318.12 651.664 316.493 649.616 316.493C647.567 316.493 645.88 318.12 645.94 320.168Z" fill="#F5BDC8"/>
<path d="M641.18 445.609C643.771 443.018 643.771 438.801 641.18 436.21L561.349 356.379L551.95 365.778L631.781 445.609C634.372 448.2 638.59 448.2 641.18 445.609Z" fill="#050F64"/>
<path d="M550.203 387.468L583.099 354.631L573.098 344.63L540.262 377.526L550.203 387.468Z" fill="#155BCD"/>
<path d="M435.367 357.162C403.012 324.808 403.012 272.149 435.367 239.795C467.721 207.381 520.379 207.381 552.734 239.795C585.148 272.149 585.148 324.808 552.734 357.162C520.379 389.516 467.721 389.516 435.367 357.162ZM427.534 364.995C464.226 401.687 523.874 401.687 560.566 364.995C597.258 328.302 597.258 268.595 560.566 231.963C523.874 195.27 464.226 195.27 427.534 231.963C390.842 268.595 390.842 328.302 427.534 364.995Z" fill="#050F64"/>
<path d="M622.081 439.885C621.117 438.921 620.937 437.535 621.66 436.571C622.684 435.125 623.708 433.619 624.612 432.113C625.094 431.329 625.516 430.546 625.998 429.763C626.419 428.98 626.841 428.196 627.263 427.413C628.89 424.16 630.336 420.846 631.601 417.532C634.131 410.784 635.939 403.735 637.204 396.686L637.445 395.36L637.626 394.035L637.987 391.384L638.349 388.672C638.409 387.829 638.53 386.925 638.59 386.021C638.771 384.214 638.951 382.467 639.012 380.659L639.192 377.948C639.192 377.044 639.253 376.201 639.253 375.297C639.433 368.127 639.132 360.957 638.469 353.788C638.289 351.558 639.132 349.45 640.699 347.823C642.265 346.196 644.494 345.051 647.085 344.871C649.616 344.75 651.965 345.594 653.652 347.16C655.4 348.666 656.484 350.956 656.364 353.426C656.002 361.259 655.219 369.031 653.893 376.743C653.773 377.707 653.592 378.671 653.411 379.635L652.869 382.527C652.508 384.455 652.026 386.323 651.544 388.251C651.363 389.215 651.122 390.118 650.821 391.082L650.098 393.914L649.254 396.746L648.832 398.132L648.35 399.517C645.94 406.928 642.928 414.158 639.192 421.027C637.325 424.401 635.276 427.714 632.987 430.908C632.444 431.691 631.842 432.474 631.3 433.257C630.697 434.041 630.095 434.824 629.432 435.547C628.227 437.053 626.901 438.559 625.516 439.945C624.612 440.909 622.985 440.909 622.081 439.885Z" fill="#F5BDC8"/>
<path d="M658.171 376.683L658.231 356.198C658.292 349.992 653.713 344.751 647.507 344.751C641.361 344.69 635.879 349.872 635.818 356.078L635.758 376.563L658.171 376.683Z" fill="#FF654F"/>
<path d="M658.171 376.683L645.278 376.623L645.338 377.045L658.593 377.105L658.653 371.261H658.171V376.683ZM657.207 350.113L656.846 350.414C657.749 352.101 658.292 354.089 658.231 356.198V363.247L658.653 363.308L658.713 356.198C658.713 354.029 658.171 351.92 657.207 350.113ZM635.517 354.33L635.939 354.511C636.782 349.028 641.843 344.69 647.507 344.751C648.29 344.751 649.013 344.811 649.676 344.992L649.857 344.57C649.134 344.389 648.35 344.269 647.507 344.269C644.434 344.269 641.361 345.534 639.072 347.763C637.144 349.571 635.939 351.86 635.517 354.33ZM635.336 366.019L635.276 376.984L639.132 377.045L639.192 376.563H635.758V366.079L635.336 366.019Z" fill="white"/>
<path d="M115.861 559.542H140.864C140.864 558.698 140.684 557.915 140.202 557.252C139.599 556.469 138.635 556.047 137.671 555.867C136.707 555.746 135.743 555.746 134.779 555.746C132.429 555.626 130.08 554.903 127.971 553.758C126.886 553.155 125.922 552.432 124.717 552.011L117.909 552.131C117.005 553.155 116.403 554.481 116.102 555.806C115.861 557.072 115.8 558.337 115.861 559.542Z" fill="#050F64"/>
<path d="M67.1787 559.542H92.1825C92.1825 558.698 92.0017 557.915 91.5197 557.252C90.9172 556.469 89.9532 556.047 88.9892 555.867C88.0252 555.746 87.0612 555.746 86.0972 555.746C83.7475 555.626 81.3977 554.903 79.289 553.758C78.2045 553.155 77.2405 552.432 76.0355 552.011L69.2272 552.131C68.3235 553.155 67.721 554.481 67.4197 555.806C67.1787 557.072 67.1185 558.337 67.1787 559.542Z" fill="#050F64"/>
<path d="M126.043 552.01L123.332 475.011C123.332 475.011 123.272 473.625 123.211 473.384L116.584 419.942C116.102 413.255 62.7805 423.859 62.7805 423.859L68.7453 552.251L77.602 552.01L90.0135 447.115L104.956 476.698L117.066 552.251L126.043 552.01Z" fill="#155BCD"/>
<path d="M141.708 365.959C140.262 365.959 139.057 366.802 138.937 367.827C138.575 370.899 138.033 373.912 137.189 376.744C137.009 377.406 136.768 378.069 136.527 378.732C136.466 378.913 136.406 379.033 136.346 379.154L136.165 379.515C136.045 379.696 135.924 379.937 135.804 380.118C135.322 380.901 134.779 381.624 134.117 382.106C133.454 382.588 132.61 382.889 131.767 382.769C130.984 382.648 130.261 382.287 129.658 381.805C129.357 381.564 129.116 381.323 128.875 381.021C128.754 380.901 128.634 380.78 128.513 380.66L128.333 380.419L128.031 380.118C127.188 379.154 126.344 378.069 125.561 376.924C124.718 375.78 123.995 374.575 123.272 373.37C122.549 372.104 121.826 370.779 121.163 369.453C119.837 366.802 118.632 364.091 117.548 361.259C115.319 355.656 113.451 349.812 111.824 343.907C111.282 342.04 109.715 340.714 107.667 339.991C105.558 339.328 102.967 339.328 100.377 340.172C97.7858 341.076 95.7373 342.642 94.5925 344.57C93.3875 346.438 93.0863 348.607 93.9298 350.595C96.8218 356.62 99.9548 362.585 103.51 368.369C105.317 371.321 107.245 374.153 109.294 376.924C111.402 379.696 113.632 382.407 116.222 384.998C117.548 386.263 118.934 387.528 120.44 388.673L121.042 389.155L121.826 389.697C122.308 390.059 122.85 390.36 123.392 390.722C123.633 390.902 123.934 391.023 124.236 391.143C124.477 391.324 124.718 391.445 125.019 391.565C125.561 391.806 126.164 392.107 126.706 392.288C127.248 392.529 127.851 392.65 128.393 392.83C128.995 392.951 129.598 393.071 130.14 393.132C131.285 393.252 132.49 393.252 133.635 393.071C135.864 392.65 137.973 391.445 139.539 389.818C141.106 388.131 142.19 386.082 142.973 383.913C143.154 383.431 143.335 382.829 143.455 382.347L143.636 381.564C143.696 381.262 143.817 381.021 143.817 380.78C143.998 379.877 144.118 379.033 144.239 378.129C144.66 374.635 144.6 371.261 144.419 367.947C144.359 366.802 143.154 365.959 141.708 365.959Z" fill="#EA8096"/>
<path d="M101.1 378.009L93.0863 356.258C90.6763 349.691 93.508 342.401 100.075 339.991C106.643 337.521 114.415 340.895 116.885 347.462L124.898 369.212L101.1 378.009Z" fill="#FF654F"/>
<path d="M84.9525 332.941C98.5087 330.833 110.92 340.834 111.824 354.511L116.584 419.942C95.436 431.872 82.3617 428.98 62.7805 423.859L60.5512 362.343C60.0692 347.763 70.5527 335.11 84.9525 332.941Z" fill="#FF654F"/>
<path d="M88.5072 332.64C100.617 332.64 110.98 342.039 111.824 354.511L113.27 374.514H113.993L112.547 354.45C111.703 341.798 101.16 331.917 88.5072 331.917C87.3022 331.917 86.037 332.037 84.832 332.218C84.7717 332.218 84.6512 332.218 84.591 332.218L84.5307 333.001C84.6512 332.941 84.832 332.941 84.9525 332.941C86.1575 332.76 87.3022 332.64 88.5072 332.64ZM115.8 398.975L115.017 399.035L116.584 419.942C96.5807 431.209 83.7475 429.221 65.793 424.642L65.8532 425.425C74.2882 427.594 81.1567 429.04 88.3265 429.04C97.7255 429.04 106.582 426.389 116.885 420.545L117.307 420.364L115.8 398.975ZM60.7922 368.489H60.0692L61.1537 398.373H61.8767L60.7922 368.489Z" fill="white"/>
<path d="M93.9901 326.074L91.8813 342.582C88.0253 344.51 84.4103 344.028 81.0966 341.257L83.2053 324.748L93.9901 326.074Z" fill="#F5BDC8"/>
<path d="M93.99 326.074L93.026 333.545C92.2427 333.786 91.3992 333.846 90.5557 333.786C90.2545 333.786 90.0135 333.786 89.7122 333.725C86.76 333.364 84.1692 331.617 82.663 329.146L83.2052 324.748L93.99 326.074Z" fill="#EA8096"/>
<path d="M100.136 316.613L99.051 323.482L98.569 326.253C97.9063 330.109 94.5323 332.881 90.616 332.7C89.2905 332.64 88.0855 332.339 87.001 331.736C86.6998 331.616 86.4588 331.495 86.2178 331.314C86.0973 331.194 85.9165 331.134 85.796 331.013C84.4103 329.989 83.386 328.603 82.7835 326.916C82.3015 325.47 81.8798 323.904 81.5183 322.277C81.2773 321.373 81.0965 320.409 80.9158 319.445C80.012 315.167 81.458 310.649 84.8923 307.877C87.7843 305.527 91.098 305.106 94.8335 306.793C98.6895 308.419 100.859 312.516 100.136 316.613Z" fill="#F5BDC8"/>
<path d="M102.305 318.722C103.148 318.06 103.329 316.794 103.269 315.71C103.269 314.565 103.148 313.42 103.63 312.456C104.233 311.191 105.679 310.589 106.04 309.203C106.402 307.877 105.558 306.672 104.715 305.829C102.546 303.479 100.377 301.129 98.2075 298.78C97.364 297.816 96.4603 296.852 95.3155 296.309C94.1708 295.767 92.785 295.707 91.7005 296.611C91.1583 297.093 90.7365 297.755 90.134 298.177C88.8688 299.141 87.242 298.599 85.8563 298.237C84.109 297.695 82.181 297.454 80.494 298.358C78.7468 299.201 77.3008 301.431 77.602 303.539C77.7828 304.564 78.2648 305.407 78.6865 306.251C79.048 307.154 79.289 308.239 78.9275 309.203C78.4455 310.528 77.12 311.01 76.0958 311.733C74.6498 312.818 73.5653 314.686 73.3845 316.674C73.1435 318.602 73.746 320.59 74.951 321.795C75.9753 322.88 77.7225 323.241 78.7468 321.916C79.9518 320.47 79.53 317.638 81.0363 316.734C82.8438 315.71 84.591 319.144 86.3985 317.999C87.3625 317.397 87.6035 315.891 88.447 315.047C89.5918 313.963 91.0378 314.565 92.1825 315.047C93.3875 315.469 94.5323 315.71 95.7975 315.951C96.9423 316.192 97.846 316.734 98.7498 317.517C99.7138 318.301 100.979 319.686 102.305 318.722Z" fill="#050F64"/>
<path d="M86.2178 319.927C85.9768 321.915 83.9283 323.301 81.6991 323C79.4698 322.759 77.9033 320.891 78.1443 318.903C78.3853 316.915 80.4338 315.529 82.6631 315.83C84.8923 316.131 86.4588 317.939 86.2178 319.927Z" fill="#F5BDC8"/>
<path d="M107.305 415.544H146.106L162.073 365.296H123.272L107.305 415.544Z" fill="#155BCD"/>
<path d="M156.59 401.868C156.831 403.194 155.686 404.459 154.3 404.519C150.143 404.76 146.106 404.399 142.13 403.796C138.153 403.133 134.237 402.169 130.381 401.025C129.477 400.723 128.453 400.422 127.549 400.061L124.717 399.097L121.886 398.012C120.922 397.651 120.018 397.289 119.114 396.867L117.728 396.325L116.343 395.723C115.439 395.301 114.535 394.879 113.631 394.457C111.824 393.554 110.016 392.71 108.269 391.746C94.1105 384.335 81.0965 374.997 68.926 364.754C68.5042 364.332 68.0825 363.85 67.721 363.368C67.3595 362.886 67.0582 362.344 66.8172 361.802C66.3352 360.717 66.0942 359.573 66.0942 358.428C66.034 356.078 66.998 353.789 68.8055 351.981C70.613 350.234 72.9627 349.33 75.2522 349.33C76.397 349.33 77.5417 349.511 78.566 349.933C79.1082 350.174 79.5902 350.475 80.0722 350.776C80.494 351.077 80.976 351.439 81.3977 351.861C91.339 363.007 102.184 373.31 114.234 381.925C115.74 383.07 117.307 384.034 118.813 385.119C119.596 385.601 120.379 386.083 121.163 386.565L122.368 387.348L123.573 388.011C124.356 388.493 125.139 388.975 125.922 389.457L128.393 390.782L130.863 392.047C131.646 392.469 132.49 392.831 133.333 393.252C136.707 394.759 140.141 396.144 143.636 397.229C147.13 398.253 150.745 399.097 154.3 399.398C155.505 399.458 156.409 400.482 156.59 401.868Z" fill="#F4BCC7"/>
<path d="M88.5675 384.937L70.4925 369.874C65.0097 365.295 63.8047 357.403 68.3837 351.98C72.9627 346.497 81.5785 345.533 87.001 350.052L105.076 365.175L88.5675 384.937Z" fill="#FF654F"/>
<path d="M104.112 366.32L97.7858 373.912L98.4486 374.153L104.594 366.742C104.474 366.622 104.293 366.441 104.112 366.32ZM75.9753 374.454L75.5536 374.996L88.6278 385.902L94.4721 378.852L93.8696 378.551L88.5676 384.938L75.9753 374.454ZM78.8071 346.498C75.7343 346.498 72.7218 347.522 70.3118 349.27L70.7336 349.752C74.9511 346.739 80.7351 346.317 85.2538 348.848L85.6756 348.366C83.6873 347.161 81.2773 346.498 78.8071 346.498ZM65.0098 361.32C65.4316 364.453 66.8776 367.345 69.2273 369.634L69.7696 369.212C65.8533 365.417 64.5278 359.874 66.5161 355.114L65.9136 354.752C65.0098 356.801 64.7086 359.03 65.0098 361.32ZM93.1466 355.174L102.787 363.248L103.208 362.705L93.5683 354.632L93.1466 355.174Z" fill="white"/>
</svg>
