<svg id="Layer_1" data-name="Layer 1" xmlns="http://www.w3.org/2000/svg" viewBox="0 0 727.66 484.45"><defs><style>.cls-1{fill:#155bcd;}.cls-2{fill:#84a9ff;}.cls-3{fill:#050f64;}.cls-4{fill:#fff;}.cls-5{fill:#e5e6eb;}.cls-6{fill:#ea8096;}.cls-7{fill:#ff654f;}.cls-8{fill:#f5bdc8;}.cls-9{fill:#f4bcc7;}.cls-10{fill:#da5544;}.cls-11{fill:#e9998f;}.cls-12{fill:#ffa395;}</style></defs><title>icon2</title><path class="cls-1" d="M107.53,511h0c0,15.62,9.75,28.27,21.74,28.27h542c12,0,21.68-12.65,21.68-28.27Z" transform="translate(-32.17 -63.78)"/><rect class="cls-2" x="133.27" y="128.72" width="469.63" height="294.99"/><path class="cls-3" d="M643.3,161.4h-486a16.43,16.43,0,0,0-16.47,16.41V489.2a16.48,16.48,0,0,0,16.47,16.47h486a16.42,16.42,0,0,0,16.4-16.47V177.81a16.37,16.37,0,0,0-16.4-16.41" transform="translate(-32.17 -63.78)"/><rect class="cls-4" x="133.27" y="122.27" width="469.63" height="294.99"/><polygon class="cls-5" points="300.33 447.23 182.28 447.23 182.67 442.02 183.2 435.5 299.4 435.5 300.33 447.23"/><polygon class="cls-5" points="553.95 447.23 435.83 447.23 436.29 442.02 436.76 435.5 553.02 435.5 553.95 447.23"/><path class="cls-3" d="M263.26,511H290.6a3.81,3.81,0,0,0-.79-2.5,4.13,4.13,0,0,0-2.7-1.51,24,24,0,0,0-3.16-.14,17.13,17.13,0,0,1-7.45-2.17,25.46,25.46,0,0,0-3.56-1.91l-7.44.2a7.59,7.59,0,0,0-2,3.95,14.18,14.18,0,0,0-.26,4.08" transform="translate(-32.17 -63.78)"/><path class="cls-3" d="M210,511h27.34a3.81,3.81,0,0,0-.79-2.5,4.13,4.13,0,0,0-2.7-1.51,23.87,23.87,0,0,0-3.16-.14,17.13,17.13,0,0,1-7.45-2.17,25.92,25.92,0,0,0-3.55-1.91l-7.45.2a8,8,0,0,0-2,3.95A14.56,14.56,0,0,0,210,511" transform="translate(-32.17 -63.78)"/><path class="cls-3" d="M274.39,502.84l-3-84.26s-.13-1.51-.13-1.78L264,358.37c-.47-7.31-58.77,4.28-58.77,4.28L211.75,503l9.61-.26L235,388.08l16.34,32.35L264.51,503Z" transform="translate(-32.17 -63.78)"/><path class="cls-6" d="M295.87,277.34c-1.38.66-2.24,2.05-1.85,3.1a52.84,52.84,0,0,1,2.44,9.62c.13.79.2,1.58.27,2.3v.93a3.06,3.06,0,0,1-.07.79,6.69,6.69,0,0,1-.72,2.76,3.46,3.46,0,0,1-2,1.72,4.89,4.89,0,0,1-2.57.06l-1.19-.39a4.78,4.78,0,0,0-.52-.2l-.27-.13-.46-.2a41.92,41.92,0,0,1-3.88-2,43.25,43.25,0,0,1-4-2.5c-1.31-.86-2.57-1.84-3.88-2.83-2.51-2-5-4.15-7.38-6.39a169.5,169.5,0,0,1-13.77-14.56,6.66,6.66,0,0,0-6-1.85,12.51,12.51,0,0,0-7.05,3.56,12.21,12.21,0,0,0-3.76,7.05,7,7,0,0,0,2.24,6.26,211.92,211.92,0,0,0,17.79,13.11q4.63,3.06,9.68,5.73A77.29,77.29,0,0,0,279.6,308a41.58,41.58,0,0,0,5.93,1.65l.79.2,1,.19c.65.14,1.38.14,2,.27a5.49,5.49,0,0,0,1,.06c.39,0,.72.07,1.05.07.66-.07,1.32-.07,2-.13a9.62,9.62,0,0,0,2-.27,9.86,9.86,0,0,0,1.85-.52,13.8,13.8,0,0,0,3.36-1.65,11.69,11.69,0,0,0,4.34-6,18.64,18.64,0,0,0,.66-7.38c-.06-.66-.2-1.25-.26-1.85l-.2-.85A5.15,5.15,0,0,1,305,291c-.26-.92-.53-1.91-.86-2.83A64,64,0,0,0,299.49,278a2.72,2.72,0,0,0-3.62-.66" transform="translate(-32.17 -63.78)"/><path class="cls-7" d="M261.42,308.17,243.3,290.45c-5.47-5.33-6.06-13.9-.72-19.36s14.69-5.8,20.15-.46l18,17.72Z" transform="translate(-32.17 -63.78)"/><path class="cls-7" d="M229.47,263.25h0a25.57,25.57,0,0,1,29.38,23.58L264,358.37c-23.06,13.05-37.36,9.88-58.77,4.28l-2.43-67.26a31.31,31.31,0,0,1,26.68-32.14" transform="translate(-32.17 -63.78)"/><path class="cls-4" d="M203.05,302.11h-.79l1.19,32.74h.79Zm60.08,33.34-.79.06L264,358.37c-21.88,12.32-35.84,10.15-55.47,5.14l.06.86c9.23,2.37,16.74,3.95,24.51,3.95,10.34,0,20-2.9,31.29-9.22l.46-.27Zm-29.78-72.53a25.66,25.66,0,0,1,25.5,23.91l1.58,21.87h.79l-1.58-21.94a26.21,26.21,0,0,0-30.31-24.3H229v.85a1,1,0,0,1,.46-.06A24.77,24.77,0,0,1,233.35,262.92Z" transform="translate(-32.17 -63.78)"/><path class="cls-8" d="M239.35,255.74,237,273.85a10.15,10.15,0,0,1-11.79-1.51l2.31-18Z" transform="translate(-32.17 -63.78)"/><path class="cls-6" d="M239.35,255.74l-1.06,8.17a7.58,7.58,0,0,1-2.7.26,4.08,4.08,0,0,1-.92-.07,10.59,10.59,0,0,1-7.71-5l.6-4.81Z" transform="translate(-32.17 -63.78)"/><path class="cls-8" d="M246.07,245.39l-1.25,7.51-.47,3a8.48,8.48,0,0,1-8.76,7.05,9.19,9.19,0,0,1-4-1.05,4.61,4.61,0,0,1-.79-.46,2.61,2.61,0,0,1-.46-.33,9.06,9.06,0,0,1-3.3-4.48c-.52-1.58-1-3.29-1.38-5.07-.26-1-.46-2.05-.72-3.1a12.92,12.92,0,0,1,4.34-12.58c3.17-2.57,6.86-3,10.94-1.25a10,10,0,0,1,5.8,10.73" transform="translate(-32.17 -63.78)"/><path class="cls-3" d="M248.44,247.7a4.36,4.36,0,0,0,1.05-3.29,7.87,7.87,0,0,1,.4-3.56c.66-1.38,2.24-2,2.63-3.56s-.59-2.7-1.45-3.69L244,225.9a12.3,12.3,0,0,0-3.16-2.71,3.65,3.65,0,0,0-4,.33,19.83,19.83,0,0,1-1.71,1.72c-1.45,1-3.16.46-4.68.06a7.74,7.74,0,0,0-5.92.13,5.68,5.68,0,0,0-3.1,5.67,10.38,10.38,0,0,0,1.12,3,4.29,4.29,0,0,1,.33,3.23c-.53,1.45-2,2-3.1,2.77a8.16,8.16,0,0,0-3,5.4,7.32,7.32,0,0,0,1.72,5.6c1.18,1.19,3.09,1.58,4.21.13s.86-4.68,2.5-5.66c2-1.12,3.89,2.63,5.87,1.38,1-.66,1.32-2.31,2.24-3.23,1.25-1.18,2.83-.46,4.08,0a26.54,26.54,0,0,0,3.95,1,7,7,0,0,1,3.23,1.71c1.06.86,2.44,2.37,3.89,1.32" transform="translate(-32.17 -63.78)"/><path class="cls-8" d="M230.85,249a4.26,4.26,0,0,1-4.94,3.36,4,4,0,1,1,1-7.84,4.27,4.27,0,0,1,3.95,4.48" transform="translate(-32.17 -63.78)"/><path class="cls-9" d="M202.19,385a2.61,2.61,0,0,1-3.69-1.26,62.85,62.85,0,0,1-4.21-12.58,98.07,98.07,0,0,1-2-13c-.07-1.12-.2-2.18-.27-3.3l-.13-3.29-.06-3.23c-.07-1.12,0-2.24,0-3.29v-1.65l.06-1.64c.07-1.13.07-2.18.13-3.3.2-2.17.27-4.35.53-6.52,1.71-17.39,5.86-34.45,11.26-50.92a9.72,9.72,0,0,1,.86-1.85,6.78,6.78,0,0,1,1.19-1.51,10.45,10.45,0,0,1,3.16-2.18,9.67,9.67,0,0,1,7.64.14A10.1,10.1,0,0,1,222,281a8.5,8.5,0,0,1,.72,3.56,8,8,0,0,1-.2,1.85,8.78,8.78,0,0,1-.59,1.84,223.18,223.18,0,0,0-17,45.65c-.46,2-.85,3.95-1.25,5.93-.19,1-.39,2-.59,3l-.26,1.52-.2,1.51c-.13,1-.33,2-.46,3l-.33,3-.26,3c-.14,1-.14,2-.2,3a91.43,91.43,0,0,0,.2,12,53.24,53.24,0,0,0,2.17,11.73,2.91,2.91,0,0,1-1.52,3.3" transform="translate(-32.17 -63.78)"/><path class="cls-7" d="M191.32,309.1l7.91-24.51c2.37-7.38,9.88-11.86,17.26-9.49s11.92,10.74,9.55,18.12l-7.9,24.51Z" transform="translate(-32.17 -63.78)"/><path class="cls-4" d="M223.34,301.52l-4.15,13,.66.27,4.21-13.11Zm-17.72-25.95a15.21,15.21,0,0,0-6.72,7.64l.66.39a14,14,0,0,1,13-9.09l.13-.79A14,14,0,0,0,205.62,275.57Zm20.68,7.9A15.71,15.71,0,0,0,220,276l-.33.66a14.86,14.86,0,0,1,6.92,14.29l.72.27A15.53,15.53,0,0,0,226.3,283.47ZM196.79,292l-.72-.19-5.67,17.72,9.55,3.09.07-.79-8.7-2.76Zm19.83,25.17-10.34-3.29.06.79,10,3.22C216.42,317.66,216.55,317.46,216.62,317.2Z" transform="translate(-32.17 -63.78)"/><path class="cls-7" d="M451,396l-2.64,11.85-62.12,10a7.38,7.38,0,0,1-8.56-6.85l-5.41-107.84-.06-1.25,49.41-6.39v.72l.33,10.67,2.23,75.3Z" transform="translate(-32.17 -63.78)"/><polygon class="cls-3" points="284.38 164.75 293.01 217.78 329.58 222.13 317.78 149.08 284.38 164.75"/><path class="cls-1" d="M437.37,184.2l15,92.81-88.6,14.37a16.26,16.26,0,0,1-17.53-9.89,14.9,14.9,0,0,1-1-3.49l-9.82-61a16.15,16.15,0,0,1,13.31-18.51Z" transform="translate(-32.17 -63.78)"/><path class="cls-1" d="M438.62,279.25l-4.81,17.26L432.56,301a8.39,8.39,0,0,1-8.69,6.06l-1.91-.13L398,305.14l-25.76-2h-.72a5.9,5.9,0,0,1-5.34-4.88l-1.12-7.18Z" transform="translate(-32.17 -63.78)"/><path class="cls-3" d="M422.75,331l.92,33.4,2.7-.39a10.38,10.38,0,0,0,8.69-10.54L434.67,341a10.31,10.31,0,0,0-11.92-10" transform="translate(-32.17 -63.78)"/><path class="cls-7" d="M562.73,96.45,599,320.56c-9-5.53-18.12-10.61-27.27-15.15-.6-.27-1.26-.6-1.85-.86-1.18-.59-2.37-1.19-3.56-1.71a16.38,16.38,0,0,0-1.84-.86c-.59-.33-1.19-.59-1.78-.85l-1.78-.8c-1.84-.85-3.62-1.64-5.47-2.37-.52-.26-1.05-.46-1.51-.66-1.91-.85-3.82-1.58-5.73-2.37-.59-.19-1.25-.46-1.85-.66s-1-.39-1.44-.59c-2.18-.86-4.35-1.65-6.53-2.37-.66-.26-1.25-.46-1.91-.66l-2.24-.79c-.79-.26-1.51-.53-2.3-.72-.07-.07-.13-.07-.2-.14-1.45-.46-2.9-.85-4.35-1.31-.79-.27-1.51-.46-2.3-.66-2.24-.73-4.55-1.32-6.79-1.91a.24.24,0,0,0-.2-.07l-2.17-.59-2.31-.59c-1.71-.4-3.36-.79-5-1.12a11.4,11.4,0,0,0-1.58-.33c-1.39-.33-2.7-.6-4.09-.86l-1-.2c-.19-.06-.39-.06-.59-.13-1.32-.26-2.63-.46-3.95-.72-3.23-.6-6.52-1.06-9.88-1.52l-1.52-.2c-1.58-.19-3.23-.39-4.87-.52-.53-.07-1.06-.14-1.65-.2h-.33a9.2,9.2,0,0,0-1.38-.13,12.16,12.16,0,0,0-1.58-.13l-2.37-.2-2.38-.2c-.79-.07-1.58-.07-2.37-.13s-1.45-.07-2.17-.07c-.13,0-.33-.06-.53-.06a14,14,0,0,1-1.71-.07c-2.31-.07-4.61-.13-6.92-.13h-1.58c-.66,0-1.25,0-1.91.06h-1.91a97.35,97.35,0,0,1-6.46-10.14q-20.15-36.17-8.56-82.67Q495.18,171,540.2,123.39a291.22,291.22,0,0,0,22.53-26.94" transform="translate(-32.17 -63.78)"/><path class="cls-7" d="M624.19,201.46c10.08,61.92-1.25,115.21-25.16,119.1-9,1.45-18.45-4.22-27.27-15.15-14.83-18.25-28-51.12-34.26-89.92A263.21,263.21,0,0,1,534.08,162c.59-14.83,2.7-28,6.12-38.61C545.14,108,552.85,98,562.73,96.45c23.91-3.89,51.45,43.15,61.46,105" transform="translate(-32.17 -63.78)"/><path class="cls-10" d="M619.45,202.25a295.2,295.2,0,0,1,3.62,36.49c.2,7,.2,13.77-.19,20.09-.07,1.06-.14,2.18-.2,3.23A136.56,136.56,0,0,1,619.25,285c-3.69,14.82-9.81,24.37-18,25.69-13.64,2.17-29.25-19.17-40.38-52-1-3-2-6-2.9-9.16-.2-.73-.46-1.45-.66-2.18l-.2-.72c-.33-1.12-.66-2.31-1-3.49-2.43-9.29-4.61-19.24-6.25-29.58a292.13,292.13,0,0,1-3.63-34.78c-1.64-40.58,6.66-71.21,21.74-73.65,19.24-3.1,42.23,40.38,51.45,97.17" transform="translate(-32.17 -63.78)"/><path class="cls-11" d="M622.68,262.06A136.56,136.56,0,0,1,619.25,285l-58.36-26.35c-1-3-2-6-2.9-9.16Z" transform="translate(-32.17 -63.78)"/><path class="cls-11" d="M623.07,238.74c.2,7,.2,13.77-.19,20.09l-65.75-12.25c-.33-1.12-.66-2.31-1-3.49Z" transform="translate(-32.17 -63.78)"/><path class="cls-3" d="M584.34,183.73,592,230.9c-22.93,3-34.65,16.4-34.65,16.4a298.46,298.46,0,0,1-7.44-33.79,292.13,292.13,0,0,1-3.63-34.78c14.56,13,38.08,5,38.08,5" transform="translate(-32.17 -63.78)"/><path class="cls-7" d="M599.69,205.47c2.11,13-1.39,24.44-7.71,25.43s-13.24-8.69-15.35-21.74,1.38-24.44,7.71-25.43,13.24,8.7,15.35,21.74" transform="translate(-32.17 -63.78)"/><path class="cls-3" d="M452.39,277l-88.6,14.37a16.26,16.26,0,0,1-17.53-9.89s17.13-3.22,69.63-11.26c9.56-1.52,19.77-2.5,30-3.36A97.35,97.35,0,0,0,452.39,277" transform="translate(-32.17 -63.78)"/><path class="cls-10" d="M571.76,305.41c-.6-.27-1.26-.6-1.85-.86-1.18-.59-2.37-1.19-3.56-1.71a16.38,16.38,0,0,0-1.84-.86c-.59-.26-1.19-.59-1.78-.85l-1.78-.8c-1.84-.85-3.62-1.64-5.47-2.37-.52-.26-1.05-.46-1.51-.66-1.91-.85-3.82-1.58-5.73-2.37-.59-.19-1.25-.46-1.85-.66s-1-.39-1.44-.59c-2.18-.86-4.35-1.65-6.53-2.37-.66-.26-1.25-.46-1.91-.66l-2.24-.79c-.79-.26-1.51-.53-2.3-.72-.07-.07-.13-.07-.2-.14-1.45-.46-2.9-.85-4.35-1.31-.79-.27-1.51-.46-2.3-.66-2.24-.73-4.55-1.32-6.79-1.91a.24.24,0,0,0-.2-.07l-2.17-.59-2.31-.59c-1.71-.4-3.36-.79-5-1.12a11.4,11.4,0,0,0-1.58-.33c-1.39-.33-2.7-.6-4.09-.86l-1-.2c-.19-.06-.39-.06-.59-.13-1.32-.26-2.63-.46-3.95-.72-3.23-.6-6.52-1.06-9.88-1.52l-1.52-.2c-1.58-.19-3.23-.39-4.87-.52-.53-.07-1.06-.14-1.65-.2h-.33a9.2,9.2,0,0,0-1.38-.13,12.16,12.16,0,0,0-1.58-.13,23.67,23.67,0,0,0-2.37-.2l-2.38-.2c-.79,0-1.58-.07-2.37-.13s-1.45-.07-2.17-.07c-.13,0-.33-.06-.53-.06a14,14,0,0,1-1.71-.07c-2.31-.07-4.61-.13-6.92-.13h-1.58c-.66,0-1.25,0-1.91.06h-1.91a97.35,97.35,0,0,1-6.46-10.14c1.58-.13,3.17-.26,4.75-.33,44.79-3.62,89.19-5.8,82.8-34.85-4.15-18.84-2.24-46.9.6-69.69a263.21,263.21,0,0,0,3.42,53.49c6.26,38.8,19.43,71.67,34.26,89.92" transform="translate(-32.17 -63.78)"/><path class="cls-10" d="M398,305.14c-7.18,6.06-12.58,16.08-13.5,32.08-2.9,53.89-7.31,75.7,6.72,79.85l-5,.79a7.38,7.38,0,0,1-8.56-6.85l-5.41-107.84Z" transform="translate(-32.17 -63.78)"/><path class="cls-3" d="M438.62,279.25l-4.81,17.26a66.35,66.35,0,0,0-12.18-.26c-7.78.59-16.54,2.83-23.59,8.89l-25.76-2h-.72a5.9,5.9,0,0,1-5.34-4.88l-1.12-7.18Z" transform="translate(-32.17 -63.78)"/><path class="cls-12" d="M450,185.38a13.11,13.11,0,0,0-9.88,10.21c-1.38,6.66-2.31,15.88.66,22.93,4.15,10.14,9.09,4.41,9.09-5.34-.13-13.9-4.35-18,13.44-23.65s32.21-18.64,42-28c0,0-26.22,17.13-55.27,23.85" transform="translate(-32.17 -63.78)"/><rect class="cls-1" x="459.48" y="355.2" width="129.05" height="92.03"/><polygon class="cls-3" points="576.74 406.19 523.98 406.19 471.27 406.19 459.48 355.2 588.53 355.2 576.74 406.19"/><polygon class="cls-1" points="571.4 401.12 523.98 401.12 476.61 401.12 459.48 355.2 588.53 355.2 571.4 401.12"/><rect class="cls-2" x="490.51" y="395.32" width="7.84" height="17.39"/><rect class="cls-2" x="549.67" y="395.32" width="7.84" height="17.39"/><path class="cls-1" d="M586.84,420.16h-6.65a24,24,0,0,0-48,0h-6.66a30.67,30.67,0,1,1,61.33,0" transform="translate(-32.17 -63.78)"/><rect class="cls-7" x="282.8" width="78" height="56.72"/><polygon class="cls-10" points="321.8 56.72 298.15 56.72 321.8 78.33 345.45 56.72 321.8 56.72"/><path class="cls-4" d="M343,103V91.57a11,11,0,0,1,8.7-10.8V77.94a2.34,2.34,0,0,1,2.3-2.31,2.3,2.3,0,0,1,2.31,2.31v2.83A11,11,0,0,1,365,91.57V103c3,.59,4.81,1.38,4.81,2.31,0,1.84-7.12,3.29-15.88,3.29s-15.81-1.45-15.81-3.29c0-.93,1.85-1.72,4.81-2.31" transform="translate(-32.17 -63.78)"/><path class="cls-3" d="M759.83,543.75a4.49,4.49,0,0,1-4.54,4.47H36.71a4.47,4.47,0,0,1-3.22-7.64,4.73,4.73,0,0,1,3.22-1.31H755.29a4.49,4.49,0,0,1,4.54,4.48" transform="translate(-32.17 -63.78)"/></svg>