<svg width="714" height="529" viewBox="0 0 714 529" fill="none" xmlns="http://www.w3.org/2000/svg">
<g clip-path="url(#clip0_4498_118947)">
<path d="M70.0765 183.378C70.587 183.322 71.1006 183.301 71.614 183.313C73.5312 183.313 72.7254 183.313 70.0765 183.378Z" fill="#AACAF9"/>
<path d="M130.456 261.804C130.456 380.99 227.086 477.647 346.316 477.647C465.546 477.647 562.121 380.999 562.121 261.804C562.121 142.608 465.491 45.96 346.316 45.96C227.142 45.96 130.456 142.552 130.456 261.804Z" fill="#479DEA"/>
<path d="M395.275 476.582C497.157 455.71 573.773 365.547 573.773 257.542C573.773 134.039 473.697 33.926 350.206 33.926C311.335 33.8725 273.124 43.9864 239.368 63.2641" stroke="#231F20" stroke-width="2" stroke-miterlimit="2.61"/>
<path d="M392.747 95.1317C393.238 96.7343 400.527 133.418 397.683 157.133C397.498 158.736 403.241 129.833 398.489 93.4642C398.239 91.7968 396.322 90.9908 394.784 91.4262C394.405 91.5327 394.051 91.7135 393.743 91.9583C393.435 92.203 393.178 92.5067 392.989 92.8516C392.799 93.1966 392.68 93.5758 392.638 93.9673C392.597 94.3588 392.634 94.7546 392.747 95.1317Z" fill="white"/>
<path d="M392.747 95.1317C393.238 96.7343 400.527 133.418 397.683 157.133C397.498 158.736 403.241 129.833 398.489 93.4642C398.239 91.7968 396.322 90.9908 394.784 91.4262C394.405 91.5327 394.051 91.7135 393.743 91.9583C393.435 92.203 393.178 92.5067 392.989 92.8516C392.799 93.1966 392.68 93.5758 392.638 93.9673C392.597 94.3588 392.634 94.7546 392.747 95.1317Z" stroke="#231F20" stroke-width="2" stroke-miterlimit="2.61"/>
<path d="M420.283 131.936C420.097 132.798 413.244 151.019 405.528 160.709C405.028 161.394 415.466 150.148 423.311 132.733C423.413 132.332 423.354 131.908 423.146 131.551C422.938 131.194 422.598 130.933 422.2 130.824C421.8 130.74 421.382 130.807 421.028 131.013C420.674 131.218 420.409 131.547 420.283 131.936Z" fill="white"/>
<path d="M420.283 131.936C420.097 132.798 413.244 151.019 405.528 160.709C405.028 161.394 415.466 150.148 423.311 132.733C423.413 132.332 423.354 131.908 423.146 131.551C422.938 131.194 422.598 130.933 422.2 130.824C421.8 130.74 421.382 130.807 421.028 131.013C420.674 131.218 420.409 131.547 420.283 131.936V131.936Z" stroke="#231F20" stroke-width="2" stroke-miterlimit="2.61"/>
<path d="M454.302 172.011C453.441 172.011 434.176 174.67 422.997 180.108C432.788 174.859 443.294 171.07 454.182 168.861C454.599 168.856 455.001 169.016 455.301 169.306C455.601 169.595 455.774 169.992 455.784 170.408C455.797 170.817 455.648 171.213 455.371 171.513C455.094 171.813 454.71 171.992 454.302 172.011Z" fill="white"/>
<path d="M454.302 172.011C453.441 172.011 434.176 174.67 422.997 180.108C432.788 174.859 443.294 171.07 454.182 168.861C454.599 168.856 455.001 169.016 455.301 169.306C455.601 169.595 455.774 169.992 455.784 170.408C455.797 170.817 455.648 171.213 455.371 171.513C455.094 171.813 454.71 171.992 454.302 172.011Z" stroke="#231F20" stroke-width="2" stroke-miterlimit="2.61"/>
<path d="M468.26 128.851C466.778 130.018 437.575 152.316 415.531 170.038C414.049 171.214 430.221 154.595 463.87 123.534C464.217 123.245 464.618 123.028 465.049 122.897C465.481 122.765 465.935 122.721 466.383 122.768C466.832 122.815 467.267 122.951 467.663 123.168C468.058 123.386 468.406 123.68 468.686 124.034C469.266 124.73 469.547 125.628 469.467 126.531C469.387 127.433 468.953 128.268 468.26 128.851Z" fill="white"/>
<path d="M468.26 128.851C466.778 130.018 437.575 152.316 415.531 170.038C414.049 171.214 430.221 154.595 463.87 123.534C464.217 123.245 464.618 123.028 465.049 122.897C465.481 122.765 465.935 122.721 466.383 122.768C466.832 122.815 467.267 122.951 467.663 123.168C468.058 123.386 468.406 123.68 468.686 124.034C469.266 124.73 469.547 125.628 469.467 126.531C469.387 127.433 468.953 128.268 468.26 128.851V128.851Z" stroke="#231F20" stroke-width="2" stroke-miterlimit="2.61"/>
<path d="M593.538 222.47C593.538 223.621 593.311 224.762 592.87 225.825C592.429 226.889 591.783 227.856 590.969 228.67C590.154 229.484 589.187 230.129 588.123 230.569C587.059 231.009 585.918 231.234 584.767 231.233H410.835C409.66 231.271 408.489 231.073 407.392 230.649C406.295 230.226 405.295 229.586 404.45 228.768C403.605 227.95 402.933 226.971 402.475 225.888C402.016 224.805 401.779 223.641 401.779 222.465C401.779 221.289 402.016 220.125 402.475 219.042C402.933 217.959 403.605 216.98 404.45 216.162C405.295 215.344 406.295 214.704 407.392 214.281C408.489 213.857 409.66 213.659 410.835 213.697L584.767 213.762C587.084 213.757 589.308 214.671 590.952 216.303C592.596 217.935 593.526 220.153 593.538 222.47Z" fill="#5F3155"/>
<path d="M584.276 231.234H411.326C411.271 307.066 472.576 331.096 478.504 356.229C472.521 384.205 411.271 396.183 411.271 480.658L584.211 480.723C584.211 404.826 522.962 380.805 517.034 355.664C522.962 327.752 584.211 315.765 584.276 231.225M533.335 386.234C551.859 405.002 576.867 435.757 578.719 480.723L416.698 480.658C418.31 431.135 442.076 404.15 461.341 386.669C472.085 376.979 481.347 368.577 483.691 357.34L483.941 356.164L483.691 355.052C481.347 345.177 472.891 336.525 462.147 325.659C443.679 306.881 418.616 276.135 416.763 231.234H578.849C577.181 280.767 553.406 307.752 534.15 325.223C523.462 334.922 514.2 343.38 511.792 354.561L511.551 355.728L511.792 356.905C514.135 366.789 522.591 375.377 533.335 386.243V386.234Z" fill="#5F3155"/>
<path d="M511.541 355.728L511.782 354.561C514.19 343.379 523.452 334.987 534.141 325.223C553.397 307.751 577.172 280.757 578.839 231.233H416.754C418.606 276.134 443.669 306.881 462.138 325.658C472.882 336.524 481.338 345.177 483.681 355.052L483.931 356.163L483.681 357.34C481.338 368.577 472.076 376.979 461.332 386.669C442.067 404.149 418.301 431.134 416.689 480.658L578.71 482.455C576.857 437.554 551.85 405.011 533.326 386.243C522.582 375.367 514.126 366.789 511.773 356.904L511.541 355.728Z" fill="white"/>
<path d="M511.541 355.728L511.782 354.561C514.19 343.379 523.452 334.987 534.141 325.223C553.397 307.751 577.172 280.757 578.839 231.233H416.754C418.606 276.134 443.669 306.881 462.138 325.658C472.882 336.524 481.338 345.177 483.681 355.052L483.931 356.163L483.681 357.34C481.338 368.577 472.076 376.979 461.332 386.669C442.067 404.149 418.301 431.134 416.689 480.658L578.71 482.455C576.857 437.554 551.85 405.011 533.326 386.243C522.582 375.367 514.126 366.789 511.773 356.904L511.541 355.728Z" stroke="#231F20" stroke-width="2" stroke-miterlimit="2.61"/>
<path d="M534.141 289.474C518.701 297.311 512.338 299.35 498.63 299.535C484.922 299.72 473.688 294.347 461.406 288.113C450.718 282.675 430.841 283.787 430.841 283.787C439.974 301.573 452.014 315.403 462.147 325.658C472.891 336.525 481.347 345.177 483.69 355.052V367.586C483.682 367.956 483.747 368.324 483.883 368.669C484.019 369.014 484.222 369.328 484.481 369.593C484.74 369.858 485.049 370.068 485.391 370.212C485.732 370.356 486.099 370.43 486.469 370.43C486.843 370.431 487.213 370.358 487.559 370.216C487.904 370.073 488.218 369.864 488.482 369.599C488.747 369.335 488.956 369.021 489.099 368.676C489.241 368.33 489.314 367.96 489.313 367.586V381.667C489.32 382.417 489.62 383.135 490.15 383.666C490.68 384.198 491.396 384.501 492.147 384.51C492.517 384.511 492.884 384.437 493.225 384.293C493.567 384.149 493.876 383.939 494.135 383.674C494.394 383.409 494.597 383.095 494.733 382.75C494.868 382.405 494.934 382.037 494.925 381.667V366.233C494.925 366.979 495.222 367.694 495.749 368.221C496.276 368.749 496.991 369.045 497.736 369.045C498.482 369.045 499.197 368.749 499.724 368.221C500.251 367.694 500.547 366.979 500.547 366.233V396.368C500.54 396.738 500.606 397.105 500.743 397.449C500.879 397.792 501.083 398.105 501.341 398.369C501.6 398.633 501.909 398.843 502.25 398.986C502.59 399.129 502.956 399.203 503.326 399.203C504.077 399.198 504.796 398.898 505.328 398.368C505.86 397.837 506.162 397.119 506.169 396.368V359.378C506.162 359.748 506.228 360.115 506.365 360.459C506.501 360.802 506.705 361.115 506.963 361.379C507.222 361.643 507.531 361.853 507.872 361.996C508.213 362.139 508.578 362.213 508.948 362.213C509.697 362.203 510.412 361.901 510.941 361.372C511.471 360.842 511.773 360.127 511.782 359.378V357.275H511.912C511.898 357.143 511.854 357.016 511.782 356.905V354.561C514.19 343.38 523.452 334.987 534.141 325.223C545.061 315.283 557.472 302.314 566.428 283.851C555.346 282.459 544.1 284.417 534.141 289.474Z" fill="#97C3F9"/>
<path d="M537.846 287.798C541.921 291.818 540.809 297.932 537.345 302.128C533.251 306.95 528.792 311.45 524.008 315.589C503.391 333.931 506.169 359.378 506.169 359.378C506.162 359.748 506.228 360.115 506.365 360.459C506.501 360.802 506.705 361.115 506.963 361.379C507.222 361.643 507.531 361.853 507.872 361.996C508.213 362.139 508.578 362.213 508.948 362.213C509.697 362.203 510.412 361.901 510.941 361.372C511.471 360.842 511.773 360.127 511.782 359.378V357.275H511.912C511.898 357.143 511.854 357.016 511.782 356.905V354.561C514.19 343.38 523.452 334.922 534.141 325.223C545.061 315.283 557.472 302.314 566.428 283.851C556.719 282.594 546.851 283.956 537.846 287.798Z" fill="black"/>
<path d="M503.335 405.687C502.965 405.686 502.598 405.76 502.257 405.904C501.915 406.048 501.606 406.258 501.347 406.523C501.088 406.788 500.885 407.102 500.749 407.447C500.614 407.792 500.548 408.16 500.557 408.53V430.272C500.557 431.009 500.849 431.716 501.371 432.237C501.892 432.759 502.598 433.051 503.335 433.051C503.706 433.06 504.074 432.995 504.419 432.859C504.763 432.723 505.077 432.52 505.342 432.261C505.607 432.002 505.818 431.692 505.961 431.351C506.105 431.01 506.179 430.643 506.179 430.272V408.53C506.169 407.779 505.867 407.061 505.335 406.53C504.804 405.999 504.086 405.696 503.335 405.687Z" fill="#F4B671"/>
<path d="M492.147 390.068C491.397 390.078 490.68 390.381 490.15 390.913C489.62 391.444 489.32 392.162 489.313 392.912V394.885C489.311 395.259 489.384 395.628 489.526 395.973C489.668 396.318 489.876 396.632 490.139 396.896C490.403 397.16 490.716 397.37 491.06 397.513C491.405 397.656 491.774 397.729 492.147 397.729C492.884 397.729 493.591 397.437 494.112 396.915C494.633 396.394 494.925 395.687 494.925 394.95V392.912C494.934 392.542 494.869 392.174 494.733 391.829C494.597 391.484 494.394 391.17 494.135 390.905C493.876 390.64 493.567 390.43 493.225 390.286C492.884 390.142 492.517 390.068 492.147 390.068Z" fill="#F4B671"/>
<path d="M544.199 480.723C527.222 469.671 523.082 452.812 498.815 452.812C474.549 452.812 471.594 468.866 453.376 480.658L544.199 480.723Z" fill="#97C3F9"/>
<path d="M517.404 460.964C520.859 470.968 513.7 478.064 504.252 479.917C502.52 480.232 500.733 480.473 498.945 480.658L544.199 480.723C531.668 472.571 526.111 461.269 514.376 455.896C515.736 457.349 516.769 459.077 517.404 460.964Z" fill="#97C3F9"/>
<path d="M454.247 418.165C430.415 442.621 421.654 485.169 422.45 474.053C424.062 452.005 429.054 432.366 448.634 406.557C459.619 392.041 474.438 397.359 454.247 418.165Z" fill="white"/>
<path d="M402.009 489.431C402.003 488.278 402.225 487.135 402.663 486.069C403.101 485.002 403.746 484.033 404.561 483.217C405.376 482.402 406.344 481.755 407.41 481.316C408.476 480.877 409.618 480.653 410.771 480.658L584.702 480.723C585.874 480.685 587.041 480.883 588.134 481.305C589.228 481.727 590.226 482.365 591.068 483.18C591.91 483.995 592.58 484.972 593.037 486.051C593.494 487.131 593.73 488.291 593.73 489.463C593.73 490.636 593.494 491.796 593.037 492.876C592.58 493.955 591.91 494.931 591.068 495.747C590.226 496.562 589.228 497.2 588.134 497.622C587.041 498.044 585.874 498.242 584.702 498.204H410.715C408.399 498.191 406.181 497.261 404.549 495.617C402.917 493.972 402.004 491.748 402.009 489.431Z" fill="#5F3155"/>
<path d="M485.913 207.703C484.496 206.907 450.347 191.649 426.637 189.176C425.025 188.991 454.478 189.797 488.868 202.516C490.415 203.071 490.785 205.174 489.98 206.592C489.785 206.933 489.526 207.232 489.216 207.473C488.906 207.713 488.551 207.89 488.173 207.993C487.794 208.097 487.399 208.124 487.009 208.074C486.62 208.025 486.245 207.898 485.904 207.703" fill="white"/>
<path d="M485.913 207.703C484.496 206.907 450.347 191.649 426.637 189.176C425.025 188.991 454.478 189.797 488.868 202.516C490.415 203.071 490.785 205.174 489.98 206.592C489.587 207.278 488.939 207.781 488.176 207.989C487.414 208.197 486.6 208.095 485.913 207.703V207.703Z" stroke="#231F20" stroke-width="2" stroke-miterlimit="2.61"/>
<path d="M100.271 208.324C101.753 207.278 137.189 187.388 162.567 182.321C164.299 181.96 132.493 185.841 96.5658 203.016C94.9542 203.757 94.7134 206.036 95.76 207.518C96.2532 208.221 97.0042 208.7 97.8492 208.851C98.6943 209.002 99.5647 208.813 100.271 208.324Z" fill="white"/>
<path d="M100.271 208.324C101.753 207.278 137.189 187.388 162.567 182.321C164.299 181.96 132.493 185.841 96.5658 203.016C94.9542 203.757 94.7134 206.036 95.76 207.518C96.2532 208.221 97.0042 208.7 97.8492 208.851C98.6943 209.002 99.5647 208.813 100.271 208.324V208.324Z" stroke="#231F20" stroke-width="2" stroke-miterlimit="2.61"/>
<path d="M128.974 167.443C129.9 167.379 151.017 168.305 163.614 173.002C164.484 173.307 149.35 166.332 128.788 164.108C128.565 164.1 128.342 164.141 128.135 164.227C127.928 164.313 127.742 164.442 127.59 164.607C127.438 164.771 127.323 164.967 127.253 165.18C127.183 165.393 127.161 165.618 127.186 165.841C127.215 166.289 127.418 166.708 127.752 167.007C128.087 167.307 128.525 167.464 128.974 167.443Z" fill="white"/>
<path d="M128.974 167.443C129.9 167.379 151.017 168.305 163.614 173.002C164.484 173.307 149.35 166.332 128.788 164.108C128.565 164.1 128.342 164.141 128.135 164.227C127.928 164.313 127.742 164.442 127.59 164.607C127.438 164.771 127.323 164.967 127.253 165.18C127.183 165.393 127.161 165.618 127.186 165.841C127.215 166.289 127.418 166.708 127.752 167.007C128.087 167.307 128.525 167.464 128.974 167.443V167.443Z" stroke="#231F20" stroke-width="2" stroke-miterlimit="2.61"/>
<path d="M158.788 118.847C159.159 119.708 168.421 138.727 177.747 148.426C169.049 140.069 161.603 130.5 155.639 120.014C155.562 119.807 155.527 119.587 155.536 119.367C155.544 119.147 155.596 118.93 155.688 118.73C155.78 118.529 155.91 118.349 156.072 118.199C156.234 118.049 156.423 117.932 156.63 117.856C156.837 117.779 157.057 117.744 157.277 117.752C157.497 117.761 157.714 117.812 157.914 117.904C158.115 117.996 158.295 118.127 158.445 118.289C158.595 118.45 158.711 118.64 158.788 118.847Z" fill="white"/>
<path d="M158.788 118.847C159.159 119.708 168.421 138.727 177.747 148.426C169.049 140.069 161.603 130.5 155.639 120.014C155.562 119.807 155.527 119.587 155.536 119.367C155.544 119.147 155.596 118.93 155.688 118.73C155.78 118.529 155.91 118.349 156.072 118.199C156.234 118.049 156.423 117.932 156.63 117.856C156.837 117.779 157.057 117.744 157.277 117.752C157.497 117.761 157.714 117.812 157.914 117.904C158.115 117.996 158.295 118.127 158.445 118.289C158.595 118.45 158.711 118.64 158.788 118.847V118.847Z" stroke="#231F20" stroke-width="2" stroke-miterlimit="2.61"/>
<path d="M109.588 118.967C111.32 120.079 144.163 142.738 169.847 159.542C171.579 160.654 148.98 149.593 105.578 125.267C105.163 125.009 104.804 124.671 104.52 124.273C104.236 123.876 104.034 123.426 103.924 122.95C103.815 122.474 103.801 121.981 103.883 121.499C103.965 121.018 104.141 120.557 104.402 120.144C104.946 119.315 105.791 118.729 106.758 118.51C107.725 118.291 108.739 118.455 109.588 118.967Z" fill="white"/>
<path d="M109.588 118.967C111.32 120.079 144.163 142.738 169.847 159.542C171.579 160.654 148.98 149.593 105.578 125.267C105.163 125.009 104.804 124.671 104.52 124.273C104.236 123.876 104.034 123.426 103.924 122.95C103.815 122.474 103.801 121.981 103.883 121.499C103.965 121.018 104.141 120.557 104.402 120.144C104.946 119.315 105.791 118.729 106.758 118.51C107.725 118.291 108.739 118.455 109.588 118.967Z" stroke="#231F20" stroke-width="2" stroke-miterlimit="2.61"/>
<path d="M185.037 74.0749C184.666 75.8627 180.471 116.308 185.842 141.57C186.278 143.358 177.136 112.602 178.683 72.8335C178.739 71.0456 180.721 69.934 182.508 70.3045C183.342 70.4724 184.075 70.9629 184.549 71.669C185.022 72.3752 185.198 73.2399 185.037 74.0749Z" fill="white"/>
<path d="M185.037 74.0749C184.666 75.8627 180.471 116.308 185.842 141.57C186.278 143.358 177.136 112.602 178.683 72.8335C178.739 71.0456 180.721 69.934 182.508 70.3045C183.342 70.4724 184.075 70.9629 184.549 71.669C185.022 72.3752 185.198 73.2399 185.037 74.0749Z" stroke="#231F20" stroke-width="2" stroke-miterlimit="2.61"/>
<path d="M174.293 348.011C209.803 451.208 297.042 515.795 363.108 493.071L386.199 481.399C425.96 434.774 287.78 209.926 254.502 113.103L232.523 119.893C166.457 142.617 138.791 244.878 174.293 348.011Z" fill="#231F20"/>
<path d="M363.294 472.756C341.62 477.693 321.309 476.582 300.071 470.097C262.773 458.74 227.086 436.878 201.894 406.613C244.064 474.794 311.741 510.793 364.285 492.765L387.004 479.917C391.57 474.609 393.979 471.765 394.284 462.075C384.343 466.678 373.959 470.257 363.294 472.756Z" fill="#DD785E"/>
<path d="M192.02 343.5C228.077 446.817 313.649 511.413 383.17 487.828C452.691 464.242 479.865 361.351 443.808 258.033C407.751 154.715 322.17 90.0547 252.649 113.714C183.129 137.374 156.009 240.191 192.02 343.5Z" fill="white"/>
<path d="M192.02 343.5C228.077 446.817 313.649 511.413 383.17 487.828C452.691 464.242 479.865 361.351 443.808 258.033C407.751 154.715 322.17 90.0547 252.649 113.714C183.129 137.374 156.009 240.191 192.02 343.5Z" stroke="#231F20" stroke-width="2" stroke-miterlimit="2.61"/>
<path d="M220.362 334.921C251.047 424.214 322.355 480.722 379.53 461.028C436.704 441.333 458.257 352.949 427.507 263.656C396.757 174.363 325.504 117.846 268.33 137.549C211.156 157.253 189.603 245.62 220.362 334.921Z" fill="#F36A54"/>
<path d="M245.675 326.464C270.368 398.285 327.672 443.668 373.667 427.864C419.662 412.06 436.954 340.971 412.253 269.149C387.551 197.328 330.2 151.945 284.196 167.749C238.191 183.553 220.973 254.642 245.675 326.464Z" fill="white"/>
<path d="M245.675 326.464C270.368 398.285 327.672 443.668 373.667 427.864C419.662 412.06 436.954 340.971 412.253 269.149C387.551 197.328 330.2 151.945 284.196 167.749C238.191 183.553 220.973 254.642 245.675 326.464Z" stroke="#231F20" stroke-width="2" stroke-miterlimit="2.61"/>
<path d="M269.692 318.368C288.151 372.097 331.006 406.002 365.396 394.209C399.786 382.417 412.688 329.178 394.229 275.514C375.769 221.849 332.914 187.824 298.524 199.681C264.134 211.539 251.167 264.648 269.692 318.368Z" fill="#F36A54"/>
<path d="M291.179 311.087C304.146 348.873 334.276 372.774 358.477 364.436C382.679 356.099 391.756 318.739 378.724 280.952C365.692 243.165 335.628 219.321 311.426 227.658C287.225 235.995 278.148 273.356 291.179 311.087Z" fill="white"/>
<path d="M291.179 311.087C304.146 348.873 334.276 372.774 358.477 364.436C382.679 356.099 391.756 318.739 378.724 280.952C365.692 243.165 335.628 219.321 311.426 227.658C287.225 235.995 278.148 273.356 291.179 311.087Z" stroke="#231F20" stroke-width="2" stroke-miterlimit="2.61"/>
<path d="M316.057 302.749C322.856 322.508 338.592 334.987 351.253 330.596C363.914 326.205 368.666 306.76 361.876 287.001C355.087 267.241 339.333 254.698 326.681 259.089C314.029 263.48 309.268 282.99 316.057 302.749Z" fill="#F36A54"/>
<path d="M423.247 415.821L421.7 413.412C426.516 407.604 434.361 390.374 430.101 383.889C426.21 377.96 405.769 381.11 397.869 377.164L348.474 301.887C353.226 298.423 357.986 297.932 355.764 294.532C354.032 291.882 345.696 289.9 340.203 288.918L334.952 294.096C334.702 301.137 334.702 312.133 336.499 314.847C338.721 318.247 340.018 312.383 343.538 307.066L392.988 382.351C394.599 392.912 388.421 417.729 392.376 423.723C396.572 430.143 411.391 423.538 416.763 418.6L418.366 421.009V420.944C419.171 421.62 420.588 421.194 421.83 419.953C423.071 418.711 423.617 416.933 423.247 415.821Z" fill="black"/>
<path d="M501.965 227.407C491.776 230.121 477.522 254.948 466.963 257.792C461.591 259.209 515.487 244.638 525.74 241.923C524.258 236.486 512.153 224.628 501.965 227.407Z" fill="#F36A54"/>
<path d="M513.635 270.512C503.446 273.291 478.633 259.09 468.075 261.924C462.703 263.351 516.663 248.77 526.852 246.056C528.269 251.429 523.823 267.733 513.635 270.512Z" fill="#F36A54"/>
<path d="M532.103 242.35C531.917 241.691 531.505 241.12 530.939 240.735C530.373 240.35 529.69 240.178 529.01 240.247V240.191L354.708 287.306L356.19 292.93L530.556 245.805V245.75C531.181 245.465 531.682 244.964 531.966 244.339C532.25 243.714 532.299 243.008 532.103 242.35Z" fill="black"/>
<path d="M355.449 278.293C361.562 276.626 356.004 283.416 357.672 289.53C359.339 295.644 367.489 298.673 361.441 300.341C357.366 301.452 346.316 299.164 339.333 297.562L337.98 291.633C343.167 286.751 351.438 279.405 355.449 278.293Z" fill="#F7F5EE"/>
<path d="M128.733 283.915C139.532 283.6 138.236 266.87 127.492 267.176C118.044 267.482 113.043 275.513 111.255 283.851C110.725 284.722 110.37 285.688 110.209 286.695C109.588 290.085 101.567 291.011 98.7887 291.447C93.0463 292.308 87.1741 292.623 81.3761 293.67C76.1245 294.661 71.1879 296.264 67.7887 300.646C66.0753 302.785 65.0759 305.408 64.9314 308.145C64.7868 310.882 65.5044 313.595 66.9829 315.903C68.4682 318.095 70.6309 319.741 73.1399 320.587C75.649 321.434 78.3663 321.435 80.876 320.59C82.6499 319.936 84.3167 319.021 85.8219 317.876C88.8413 319.108 91.4347 321.646 94.028 323.805C98.659 327.76 103.605 331.401 109.588 332.883C121.508 335.848 133.79 329.178 138.551 318.061C139.381 316.222 139.506 314.141 138.902 312.216C138.297 310.291 137.005 308.655 135.272 307.621C135.026 306.836 134.674 306.088 134.225 305.398C134.41 305.157 134.661 304.907 134.846 304.657C135.216 304.045 135.642 303.49 136.013 302.869C136.613 301.555 136.889 300.116 136.819 298.673C136.819 297.616 136.883 296.634 136.939 295.643C136.896 294.505 136.558 293.397 135.957 292.429C135.503 291.427 134.825 290.543 133.975 289.844C133.168 289.123 132.194 288.614 131.141 288.362C130.126 287.938 129.018 287.788 127.927 287.927C127.807 287.927 127.677 287.991 127.492 287.991C127.682 286.969 127.929 285.957 128.233 284.962C128.362 284.592 128.548 284.221 128.668 283.851C129.159 283.295 129.224 283.295 128.733 283.915Z" fill="#231F20"/>
<path d="M173.061 282.369C165.225 285.148 148.794 296.08 140.959 300.832C139.782 301.573 146.016 305.399 146.886 306.39C147.043 306.97 147.338 307.503 147.746 307.944C148.154 308.384 148.663 308.719 149.23 308.919C156.639 310.531 171.023 296.385 177.071 290.521C179.915 287.798 176.645 281.072 173.061 282.369Z" fill="#97C3F9"/>
<path d="M190.659 258.654C190.103 258.839 187.51 258.163 187.445 258.589C187.139 260.506 185.907 263.035 182.999 267.853C180.406 272.114 172.135 279.284 169.791 283.601C167.448 287.918 171.208 293.856 176.33 291.262C181.832 288.483 184.796 278.969 187.074 273.911C188.501 270.697 189.668 267.732 191.214 264.518C191.52 263.841 193.372 260.016 194.614 259.701C192.261 258.774 191.214 260.877 190.659 258.654Z" fill="#F99E82"/>
<path d="M124.157 301.081C122.99 299.164 108.606 301.693 105.022 304.287C96.0657 310.771 89.3415 314.051 83.3489 323.99C82.2375 325.843 84.2751 330.66 89.7119 331.651C91.9348 332.078 104.957 323.314 118.665 316.515L124.157 301.081Z" fill="#97C3F9"/>
<path d="M110.765 349.614C110.765 349.058 112.126 346.529 111.691 346.344C109.903 345.603 107.68 343.75 103.661 339.739C100.021 336.098 95.0839 325.964 91.3791 322.573C87.6743 319.183 80.7556 321.832 81.9874 327.761C83.349 334.06 92.0553 339.183 96.501 342.583C99.3445 344.806 101.993 346.659 104.772 348.938C105.393 349.438 106.754 351.161 108.606 352.949C110.144 350.726 108.477 349.744 110.765 349.614Z" fill="#F99E82"/>
<path d="M188.501 250.993C188.261 253.396 188.261 255.816 188.501 258.219" stroke="#F99E82" stroke-width="6" stroke-linecap="round" stroke-linejoin="round"/>
<path d="M187.445 260.627C187.389 258.218 187.445 255.625 187.445 255.625C187.445 255.625 191.835 251.613 192.391 250.752C193.743 248.714 197.513 255.689 196.336 257.663C194.734 260.256 192.882 260.627 191.335 263.656L187.445 260.627Z" fill="#F99E82"/>
<path d="M191.52 253.716C192.925 251.763 194.126 249.671 195.104 247.473" stroke="#F99E82" stroke-width="6" stroke-linecap="round" stroke-linejoin="round"/>
<path d="M190.659 257.728C192.275 255.967 193.703 254.042 194.919 251.984" stroke="#F99E82" stroke-width="6" stroke-linecap="round" stroke-linejoin="round"/>
<path d="M191.65 259.46C193.266 257.662 194.711 255.718 195.966 253.651" stroke="#F99E82" stroke-width="6" stroke-linecap="round" stroke-linejoin="round"/>
<path d="M191.835 261.368C191.835 261.368 195.41 257.848 196.651 255.569" stroke="#F99E82" stroke-width="6" stroke-linecap="round" stroke-linejoin="round"/>
<path d="M164.79 464.354C163.243 464.169 155.278 466.021 155.278 466.021L157.445 492.275L166.272 493.692C163.058 465.53 165.096 464.419 164.79 464.354Z" fill="#F99E82"/>
<path d="M156.704 488.754C154.972 489.615 155.278 494.868 156.269 496.721C157.26 498.573 184.851 498.573 184.546 495.359C184.24 492.144 177.442 490.051 170.162 489.921C168.745 489.866 164.234 489.68 161.576 490.357C158.242 491.162 158.427 487.883 156.704 488.754Z" fill="white"/>
<path d="M156.704 488.755C154.972 489.616 155.278 494.869 156.269 496.721C157.26 498.574 184.851 498.574 184.546 495.36C184.24 492.145 177.442 490.051 170.162 489.922C168.745 489.866 164.234 489.681 161.576 490.357C158.242 491.172 158.427 487.884 156.704 488.755Z" stroke="#231F20" stroke-width="2" stroke-miterlimit="2.61"/>
<path d="M156.574 487.392C154.907 488.198 154.852 493.506 155.834 495.359C156.815 497.212 184.546 497.212 184.175 493.997C183.805 490.783 177.136 488.689 169.912 488.569C168.55 488.504 167.198 486.345 164.91 487.578C159.788 490.292 158.306 486.531 156.574 487.392Z" fill="#DCDCDC"/>
<path d="M173.126 488.439C171.514 488.198 170.532 489.366 170.403 491.839" stroke="#F7F5EE" stroke-linecap="round" stroke-linejoin="round"/>
<path d="M175.534 488.81C174.052 488.57 173.126 489.737 172.996 492.025" stroke="#F7F5EE" stroke-linecap="round" stroke-linejoin="round"/>
<path d="M178.238 489.366C176.877 489.18 176.015 490.172 175.951 492.274" stroke="#F7F5EE" stroke-linecap="round" stroke-linejoin="round"/>
<path d="M156.399 359.869L164.855 421.13L143.496 427.484L122.194 358.998L156.399 359.869Z" fill="#DCDCDC"/>
<path d="M157.075 368.826C153.74 373.328 150.647 378.025 147.442 382.657C145.96 384.815 144.413 386.983 142.811 389.142L141.885 390.439C141.743 390.567 141.619 390.713 141.514 390.874C140.829 391.671 140.153 392.541 139.477 393.338C137.865 395.256 136.198 397.108 134.596 399.026L122.185 359.007L156.389 359.868L157.565 368.271C157.38 368.391 157.26 368.641 157.075 368.826Z" fill="#231F20"/>
<path d="M109.412 476.026L100.15 472.256L97.0012 490.848L104.531 491.895L109.412 476.026Z" fill="#F99E82"/>
<path d="M95.5748 488.014C93.8428 488.81 93.9076 494.063 94.8338 495.98C95.76 497.898 123.361 498.815 123.176 495.545C122.99 492.275 116.257 490.052 108.977 489.616C107.551 489.551 103.049 489.181 100.391 489.737C96.9919 490.478 97.3068 487.208 95.5748 488.014Z" fill="white"/>
<path d="M95.5748 488.014C93.8428 488.81 93.9076 494.063 94.8338 495.98C95.76 497.898 123.361 498.815 123.176 495.545C122.99 492.275 116.257 490.052 108.977 489.616C107.551 489.551 103.049 489.181 100.391 489.737C96.9919 490.478 97.3068 487.208 95.5748 488.014Z" stroke="#231F20" stroke-width="2" stroke-miterlimit="2.61"/>
<path d="M95.5099 486.587C93.7872 487.393 93.5371 492.701 94.4633 494.619C95.3895 496.536 123.046 497.463 122.861 494.183C122.675 490.904 116.007 488.625 108.792 488.254C107.43 488.134 106.133 485.976 103.79 487.087C98.5386 489.616 97.2419 485.79 95.5099 486.587Z" fill="#DCDCDC"/>
<path d="M111.932 488.255C110.394 487.949 109.347 489.125 109.153 491.534" stroke="#F7F5EE" stroke-linecap="round" stroke-linejoin="round"/>
<path d="M114.404 488.69C112.923 488.44 111.932 489.551 111.756 491.839" stroke="#F7F5EE" stroke-linecap="round" stroke-linejoin="round"/>
<path d="M117.109 489.366C115.812 489.125 114.886 490.107 114.701 492.145" stroke="#F7F5EE" stroke-linecap="round" stroke-linejoin="round"/>
<path d="M145.154 362.833L129.9 428.846C129.9 428.846 111.005 432.366 107.551 429.216C115.636 393.838 103.105 384.816 113.599 361.721C116.257 355.913 145.154 362.833 145.154 362.833Z" fill="#DCDCDC"/>
<path d="M107.551 429.217L129.965 428.605C129.197 432.853 128.059 437.025 126.566 441.074C123.231 450.709 110.95 477.944 109.959 481.158C108.968 484.373 94.7134 484.123 95.76 480.232C96.8066 476.341 104.161 443.242 107.551 429.217Z" fill="#DCDCDC"/>
<path d="M158.056 367.651L157.315 362.898L143.858 362.528C138.115 361.231 115.886 356.655 113.599 361.722C111.829 365.539 110.544 369.563 109.773 373.7C109.588 374.941 127.001 378.091 138.18 376.294C152.258 374.07 158.056 367.651 158.056 367.651Z" fill="#231F20"/>
<path d="M143.487 427.179L164.855 421.13C164.855 421.13 168.124 473.192 168.309 476.212C168.495 479.232 151.823 481.835 151.388 477.694C150.952 473.553 148.118 439.907 143.487 427.179Z" fill="#DCDCDC"/>
<path d="M118.785 347.15C115.851 346.843 112.893 346.843 109.959 347.15" stroke="#F36A54" stroke-width="6" stroke-linecap="round" stroke-linejoin="round"/>
<path d="M153.675 306.325C157.13 313.495 154.602 322.944 152.87 329.854C149.906 341.406 156.76 360.675 158.001 363.639C159.242 366.603 143.487 374.135 124.658 372.773C105.828 371.411 111.32 363.88 111.32 363.88C111.32 363.88 122.12 336.339 115.516 304.843C113.978 297.376 144.784 297.867 144.784 297.867L153.675 306.325Z" fill="#97C3F9"/>
<path d="M136.698 284.963L127.862 286.139L127.742 299.349C127.742 299.349 135.216 304.722 138.671 299.47C139.347 298.358 136.698 284.963 136.698 284.963Z" fill="#F99E82"/>
<path d="M138.115 292.429C137.93 291.012 137.68 290.15 137.439 288.854C137.179 289.3 136.844 289.698 136.448 290.03C135.272 290.956 133.419 291.633 132.373 292.679L138.115 292.429Z" fill="#231F20"/>
<path d="M124.963 286.075C124.289 284.87 123.769 283.584 123.416 282.249C121.629 275.699 124.037 269.28 128.788 267.983C133.54 266.686 139.662 270.762 140.644 277.552C141.635 284.657 141.57 287.863 141.079 288.919C140.644 289.78 136.448 291.448 132.373 292.68L124.963 286.075Z" fill="#F99E82"/>
<path d="M140.459 273.54C140.569 273.353 140.615 273.135 140.588 272.919C140.338 272.201 139.961 271.533 139.477 270.946C138.665 269.66 137.565 268.582 136.263 267.797C135.652 267.471 134.98 267.276 134.29 267.222C133.6 267.167 132.907 267.256 132.252 267.482L131.882 267.667C131.817 267.667 131.817 267.667 131.752 267.611C130.351 267.26 128.883 267.28 127.492 267.667C126.037 268.195 124.742 269.088 123.731 270.261C122.671 271.301 121.794 272.513 121.138 273.846C120.791 274.985 120.683 276.184 120.823 277.366L122.99 289.474L127.927 290.03C127.927 285.518 126.816 280.886 131.937 277.922L134.901 276.745C136.819 275.949 138.791 275.208 140.709 274.402C141.2 274.216 140.894 273.54 140.459 273.54Z" fill="#231F20"/>
<path d="M108.847 345.603C110.885 345.177 115.766 346.038 115.766 346.038L115.951 347.946C115.766 349.123 117.674 350.855 119.035 351.902C121.444 353.82 117.183 359.433 114.775 357.951C111.57 355.978 106.069 351.717 105.948 348.632L108.847 345.603Z" fill="#F99E82"/>
<path d="M116.072 350.855C118.472 352.586 121.038 354.076 123.731 355.302" stroke="#F99E82" stroke-width="6" stroke-linecap="round" stroke-linejoin="round"/>
<path d="M114.71 351.967C117.021 353.787 119.502 355.378 122.12 356.719" stroke="#F99E82" stroke-width="6" stroke-linecap="round" stroke-linejoin="round"/>
<path d="M113.228 353.264C115.539 355.084 118.02 356.675 120.638 358.016" stroke="#F99E82" stroke-width="6" stroke-linecap="round" stroke-linejoin="round"/>
<path d="M110.765 353.755C113.032 355.643 115.469 357.317 118.044 358.757" stroke="#F99E82" stroke-width="6" stroke-linecap="round" stroke-linejoin="round"/>
<path d="M122.99 384.695C122.37 432.496 118.23 436.757 103.605 475.229" stroke="#231F20" stroke-width="2" stroke-miterlimit="2.61"/>
<path d="M654.482 472.812L661.392 464.975L670.163 475.406L661.392 479.732L654.482 472.812Z" fill="#F99E82"/>
<path d="M578.839 470.097C580.442 470.227 587.851 473.432 587.851 473.432L582.665 492.886L574.088 487.828C574.088 487.828 577.728 469.977 578.839 470.097Z" fill="#F99E82"/>
<path d="M630.151 411.375L607.116 432.617C609.788 436.237 612.83 439.568 616.193 442.557C623.723 449.477 652.926 475.841 652.926 475.841L666.578 467.383C666.578 467.383 632.189 428.42 630.151 411.375Z" fill="#DCDCDC"/>
<path d="M592.177 360.915L582.729 414.885L604.717 422.546L617.499 357.33L592.177 360.915Z" fill="black"/>
<path d="M611.192 422.177L582.729 414.896L575.07 482.02L592.668 481.399C592.668 481.399 606.561 434.905 611.192 422.177Z" fill="black"/>
<path d="M591.186 366.844C588.166 378.331 599.651 423.843 607.552 433.292C615.452 442.741 633.976 433.107 633.976 433.107C628.725 404.269 634.161 388.892 631.133 370.058C628.104 351.225 594.214 355.422 591.186 366.844Z" fill="#DCDCDC"/>
<path d="M603.967 396.683C607.422 397.303 611.192 396.812 614.646 396.497C618.272 396.277 621.869 395.719 625.39 394.83C627.664 394.302 629.864 393.493 631.939 392.421C632.189 384.77 632.374 377.729 631.133 370.068C628.169 351.235 594.214 355.432 591.186 366.854C589.889 371.736 591.25 382.852 593.844 394.71C597.234 395.08 600.577 396.127 603.967 396.683Z" fill="black"/>
<path d="M586.99 386.918C588.907 400.508 630.947 391.3 635.523 386.483C640.098 381.666 634.411 303.175 634.411 303.175L601.124 298.182C601.124 298.182 585.073 372.838 586.99 386.918Z" fill="white"/>
<path d="M600.512 317.2C588.777 321.147 570.689 320.906 562.538 320.405C558.028 320.165 557.166 312.133 560.436 310.716C572.541 305.343 593.659 295.894 607.301 298.182L600.512 317.2Z" fill="#479DEA"/>
<path d="M606.19 299.47L610.886 286.195L624.279 287.251L622.241 298.183V302.008C621.871 303.861 618.231 306.14 612.423 305.464C607.116 304.843 605.884 301.323 606.19 299.47Z" fill="#F99E82"/>
<path d="M634.411 303.175C619.277 297.496 623.232 303.305 618.166 303.731C611.932 304.231 608.969 377.905 607.672 388.151C620.639 387.965 633.485 383.519 636.199 380.619C640.83 375.802 635.949 303.796 634.411 303.175Z" fill="#479DEA"/>
<path d="M635.023 305.898C635.023 310.716 634.837 315.533 635.208 320.405C635.643 325.037 636.505 330.595 634.467 334.986C633.608 337.191 631.956 338.995 629.836 340.044C627.798 341.036 625.64 341.656 623.603 342.453C619.538 343.957 615.217 344.65 610.886 344.491C610.701 346.409 610.571 348.317 610.386 350.234C612.488 350.725 633.356 355.487 635.273 358.386C636.69 360.545 636.94 363.268 636.82 365.797C636.632 370.975 635.457 376.069 633.356 380.805C632.902 381.694 632.343 382.524 631.688 383.278C633.342 382.676 634.871 381.775 636.199 380.619C640.274 376.358 636.94 319.108 635.023 305.898Z" fill="black"/>
<path d="M634.411 303.175C648.36 304.842 661.577 348.011 645.767 350.79C642.868 351.29 639.533 347.77 634.902 338.933C633.372 336.165 632.13 333.247 631.198 330.225L634.411 303.175Z" fill="#479DEA"/>
<path d="M648.916 344.991C651.389 359.869 597.613 349.558 596.928 341.897C596.437 337.21 616.628 339.303 632.059 341.286C640.765 342.453 648.175 340.6 648.916 344.991Z" fill="#F99E82"/>
<path d="M597.669 375.246C599.707 360.73 603.662 346.714 602.606 332.142C601.439 316.394 608.598 302.193 608.598 302.193C607.446 300.966 606.031 300.016 604.458 299.416C602.886 298.816 601.198 298.581 599.521 298.728C599.521 298.728 585.758 366.974 587.666 381.055C588.166 384.63 591.436 386.613 596.067 387.539C596.558 383.398 597.113 379.322 597.669 375.246Z" fill="#479DEA"/>
<path d="M616.499 291.503C618.636 290.214 620.662 288.748 622.556 287.122L610.886 286.195L608.348 293.301C611.312 293.301 616.499 291.503 616.499 291.503Z" fill="black"/>
<path d="M598.225 333.56C600.191 335.465 601.968 337.556 603.532 339.803" stroke="#F99E82" stroke-width="8" stroke-linecap="round" stroke-linejoin="round"/>
<path d="M580.136 355.422H600.198C600.492 355.43 600.785 355.372 601.054 355.252C601.323 355.132 601.562 354.952 601.752 354.727C601.943 354.502 602.08 354.237 602.154 353.951C602.228 353.666 602.237 353.368 602.18 353.078L596.993 320.285C596.894 319.629 596.568 319.029 596.072 318.589C595.576 318.149 594.942 317.897 594.279 317.876H574.208C573.909 317.871 573.612 317.933 573.34 318.059C573.068 318.185 572.828 318.37 572.638 318.602C572.448 318.834 572.313 319.106 572.243 319.397C572.174 319.689 572.171 319.992 572.235 320.285L577.422 353.078C577.533 353.723 577.865 354.309 578.36 354.736C578.855 355.163 579.482 355.406 580.136 355.422Z" fill="white"/>
<path d="M580.136 355.422H600.198C600.492 355.43 600.785 355.372 601.054 355.252C601.323 355.132 601.562 354.952 601.752 354.727C601.943 354.502 602.08 354.237 602.154 353.951C602.228 353.666 602.237 353.368 602.18 353.078L596.993 320.285C596.894 319.629 596.568 319.029 596.072 318.589C595.576 318.149 594.942 317.897 594.279 317.876H574.208C573.909 317.871 573.612 317.933 573.34 318.059C573.068 318.185 572.828 318.37 572.638 318.602C572.448 318.834 572.313 319.106 572.243 319.397C572.174 319.689 572.171 319.992 572.235 320.285L577.422 353.078C577.533 353.723 577.865 354.309 578.36 354.736C578.855 355.163 579.482 355.406 580.136 355.422V355.422Z" stroke="#231F20" stroke-width="2" stroke-miterlimit="2.61"/>
<path d="M606.866 341.656C606.005 338.933 602.43 337.08 602.43 337.08C602.43 337.08 595.761 336.524 594.705 336.283C591.991 335.542 592.732 344.371 595.205 345.177C598.54 346.223 603.171 347.77 605.329 345.973L606.866 341.656Z" fill="#F99E82"/>
<path d="M556.055 278.107C556.675 278.478 557.231 278.784 557.722 279.034C560.25 280.21 559.945 284.592 561.306 290.826C562.538 296.449 569.457 307.381 570.383 312.874C571.309 318.367 563.9 323.129 558.713 318.247C553.211 313.124 553.897 301.822 553.461 295.644C553.156 291.632 553.091 288.047 552.656 284.036C552.6 283.23 552.1 278.358 550.683 277.616C553.952 277.552 554.388 280.145 556.055 278.107Z" fill="#F99E82"/>
<path d="M584.517 487.884C586.314 488.625 586.369 493.877 585.508 495.795C584.647 497.712 555.99 499.371 556.175 496.1C556.36 492.83 563.159 490.422 570.689 489.866C572.106 489.736 576.737 489.245 579.515 489.736C583.1 490.422 582.665 487.087 584.517 487.884Z" fill="white"/>
<path d="M584.517 487.884C586.314 488.625 586.369 493.877 585.508 495.795C584.647 497.712 555.99 499.371 556.175 496.1C556.36 492.83 563.159 490.422 570.689 489.866C572.106 489.736 576.737 489.245 579.515 489.736C583.1 490.422 582.665 487.087 584.517 487.884Z" stroke="#231F20" stroke-width="2" stroke-miterlimit="2.61"/>
<path d="M584.517 486.467C586.314 487.273 586.74 492.516 585.814 494.433C584.887 496.351 556.305 498.018 556.425 494.739C556.546 491.46 563.344 489.06 570.809 488.44C572.235 488.319 573.532 486.096 575.996 487.208C581.433 489.616 582.729 485.726 584.517 486.467Z" fill="#5F3155"/>
<path d="M567.54 488.504C569.142 488.198 570.253 489.365 570.568 491.774" stroke="#F7F5EE" stroke-linecap="round" stroke-linejoin="round"/>
<path d="M565.067 489.06C566.549 488.754 567.605 489.801 567.845 492.089" stroke="#F7F5EE" stroke-linecap="round" stroke-linejoin="round"/>
<path d="M562.288 489.801C563.65 489.495 564.641 490.477 564.826 492.515" stroke="#F7F5EE" stroke-linecap="round" stroke-linejoin="round"/>
<path d="M667.19 470.838C668.801 469.856 673.117 472.941 674.173 474.729C675.229 476.517 660.336 499.87 657.742 497.832C655.149 495.794 657.131 489.06 660.892 482.825C661.632 481.649 663.92 477.693 665.893 475.84C668.431 473.432 665.523 471.829 667.19 470.838Z" fill="white"/>
<path d="M667.19 470.838C668.801 469.856 673.117 472.941 674.173 474.729C675.229 476.517 660.336 499.87 657.742 497.832C655.149 495.794 657.131 489.06 660.892 482.825C661.632 481.649 663.92 477.693 665.893 475.84C668.431 473.432 665.523 471.829 667.19 470.838Z" stroke="#231F20" stroke-width="2" stroke-miterlimit="2.61"/>
<path d="M666.078 470.042C667.69 469.05 672.191 471.83 673.247 473.682C674.303 475.535 659.354 498.879 656.816 496.841C654.278 494.803 656.159 488.069 659.863 481.908C660.604 480.732 659.558 478.388 661.781 477.091C666.838 474.247 664.43 470.977 666.097 470.051" fill="#5F3155"/>
<path d="M658.057 484.493C658.734 483.011 660.28 482.826 662.374 484.058" stroke="#F7F5EE" stroke-linecap="round" stroke-linejoin="round"/>
<path d="M657.085 486.772C657.705 485.354 659.187 485.169 661.16 486.345" stroke="#F7F5EE" stroke-linecap="round" stroke-linejoin="round"/>
<path d="M656.159 489.32C656.65 488.078 658.011 487.958 659.808 488.949" stroke="#F7F5EE" stroke-linecap="round" stroke-linejoin="round"/>
<path d="M597.234 337.701C594.563 337.07 591.96 336.18 589.463 335.042" stroke="#F99E82" stroke-width="7" stroke-linecap="round" stroke-linejoin="round"/>
<path d="M597.299 339.989C594.608 339.467 591.982 338.659 589.463 337.58" stroke="#F99E82" stroke-width="7" stroke-linecap="round" stroke-linejoin="round"/>
<path d="M597.299 342.398C594.608 341.876 591.982 341.069 589.463 339.989" stroke="#F99E82" stroke-width="7" stroke-linecap="round" stroke-linejoin="round"/>
<path d="M598.41 344.991C595.694 344.575 593.027 343.892 590.445 342.953" stroke="#F99E82" stroke-width="7" stroke-linecap="round" stroke-linejoin="round"/>
<path d="M562.353 268.844C561.517 271.921 560.359 274.902 558.898 277.737" stroke="#F99E82" stroke-width="8" stroke-linecap="round" stroke-linejoin="round"/>
<path d="M558.768 282.119C561.121 279.775 561.056 275.144 561.056 275.144C561.056 275.144 557.972 268.038 557.657 266.741C556.861 263.592 548.645 270.512 549.201 273.476C549.942 277.487 550.497 281.693 553.582 282.99L558.768 282.119Z" fill="#F99E82"/>
<path d="M557.287 269.955C556.464 266.888 555.967 263.743 555.805 260.571" stroke="#F99E82" stroke-width="9" stroke-linecap="round" stroke-linejoin="round"/>
<path d="M556.49 276.19C555.325 273.239 554.456 270.179 553.897 267.056" stroke="#F99E82" stroke-width="8" stroke-linecap="round" stroke-linejoin="round"/>
<path d="M554.452 277.801C553.288 274.847 552.419 271.784 551.859 268.658" stroke="#F99E82" stroke-width="8" stroke-linecap="round" stroke-linejoin="round"/>
<path d="M552.424 278.728C551.398 276.156 550.632 273.487 550.136 270.762" stroke="#F99E82" stroke-width="8" stroke-linecap="round" stroke-linejoin="round"/>
<path d="M605.143 288.788C604.893 291.817 611.006 291.262 616.564 291.567C622.121 291.873 625.27 289.965 625.64 283.73C626.011 277.496 621.815 272.114 616.258 271.808C610.701 271.502 605.755 282.554 605.143 288.788Z" fill="#F99E82"/>
<path d="M606.811 271.928C606.678 273.206 607.059 274.484 607.868 275.481C608.678 276.478 609.85 277.113 611.127 277.246C613.665 277.431 623.297 277.06 620.639 275.949C614.591 273.54 615.082 268.223 611.006 267.111C608.533 266.435 606.931 269.094 606.811 271.928Z" fill="black"/>
<path d="M614.896 270.261C612.118 269.955 614.155 283.73 620.889 284.406C623.417 284.712 627.428 277.246 627.613 274.402C627.734 273.117 627.341 271.837 626.52 270.842C625.699 269.847 624.516 269.218 623.232 269.094C620.704 268.908 619.777 270.696 614.896 270.261Z" fill="black"/>
<path d="M619.407 274.707C617.304 274.522 625.335 283.851 622.306 286.009C620.333 287.436 623.538 290.215 625.02 290.4C627.428 290.641 630.947 283.73 631.197 281.007C631.568 276.81 629.901 273.725 627.428 273.596C624.955 273.466 624.094 275.208 619.407 274.707Z" fill="black"/>
<path d="M620.454 283.045C620.148 284.286 620.639 285.398 621.5 285.639C622.362 285.88 623.417 285.083 623.723 283.916C623.911 283.422 623.908 282.876 623.714 282.384C623.521 281.892 623.151 281.49 622.676 281.257C622.148 281.217 621.624 281.379 621.211 281.711C620.798 282.043 620.527 282.52 620.454 283.045Z" fill="#F99E82"/>
<path d="M611.997 280.952C611.747 281.628 611.868 282.304 612.238 282.434C612.609 282.564 613.109 282.184 613.35 281.507C613.59 280.831 613.535 280.146 613.164 280.025C612.794 279.905 612.238 280.331 611.997 280.952Z" fill="black"/>
<path d="M607.792 279.96C607.552 280.581 607.607 281.137 607.978 281.257C608.348 281.378 608.719 281.007 608.969 280.451C609.219 279.895 609.089 279.284 608.783 279.154C608.478 279.025 607.978 279.405 607.792 279.96Z" fill="black"/>
<path d="M614.48 402.111C618.064 434.905 622.325 436.137 654.797 465.901" stroke="#231F20" stroke-width="2" stroke-miterlimit="2.61"/>
<path d="M61.1849 104.766C61.1904 106.444 61.6925 108.082 62.6278 109.475C63.5632 110.867 64.8899 111.952 66.4407 112.591C67.9916 113.231 69.697 113.397 71.3419 113.068C72.9868 112.74 74.4976 111.931 75.6838 110.745C76.8699 109.558 77.6782 108.047 78.0068 106.402C78.3354 104.757 78.1696 103.051 77.5302 101.5C76.8908 99.949 75.8065 98.622 74.4141 97.6864C73.0216 96.7509 71.3834 96.2487 69.706 96.2432C68.5856 96.2383 67.4753 96.4554 66.4393 96.882C65.4033 97.3086 64.462 97.9361 63.6697 98.7285C62.8775 99.5209 62.25 100.462 61.8235 101.499C61.397 102.535 61.18 103.645 61.1849 104.766V104.766Z" stroke="#F4B671" stroke-width="2" stroke-miterlimit="2.61"/>
<path d="M27.4712 211.659C27.4657 215.442 28.5824 219.14 30.6798 222.287C32.7773 225.434 35.7612 227.888 39.2538 229.338C42.7464 230.788 46.5905 231.169 50.2996 230.432C54.0087 229.696 57.4159 227.875 60.0898 225.201C62.7637 222.526 64.5841 219.118 65.3205 215.409C66.0569 211.699 65.6761 207.854 64.2265 204.361C62.7768 200.868 60.3235 197.883 57.177 195.785C54.0305 193.688 50.3325 192.571 46.551 192.576C41.4967 192.596 36.655 194.613 33.0811 198.187C29.5072 201.762 27.4907 206.604 27.4712 211.659V211.659Z" stroke="#479DEA" stroke-width="2" stroke-miterlimit="2.61"/>
</g>
<defs>
<clipPath id="clip0_4498_118947">
<rect width="714" height="466" fill="white" transform="translate(0 33)"/>
</clipPath>
</defs>
</svg>
