<svg width="950" height="900" viewBox="0 0 950 900" fill="none" xmlns="http://www.w3.org/2000/svg">
<rect width="950" height="900" fill="#395987"/>
<path d="M372 650L124.016 900H0L248.008 650H372Z" fill="#476897"/>
<path d="M263.001 650L513.021 899.959H638.055L388.011 650H263.001Z" fill="#476897"/>
<path d="M124 775H0V900H124V775Z" fill="#203A5C"/>
<path d="M824.984 650.004C824.991 616.862 838.164 585.079 861.607 561.646C885.051 538.213 916.844 525.049 949.994 525.049V650.004H824.984Z" fill="#203A5C"/>
<path d="M700 899.964V774.936C716.417 774.936 732.672 778.168 747.839 784.449C763.006 790.73 776.787 799.936 788.395 811.541C800.004 823.147 809.212 836.924 815.494 852.087C821.776 867.251 825.01 883.503 825.01 899.915H700V899.964Z" fill="#203A5C"/>
<path d="M950.02 899.964V774.936C933.603 774.936 917.347 778.168 902.18 784.449C887.014 790.73 873.233 799.936 861.624 811.541C850.016 823.147 840.808 836.924 834.526 852.087C828.243 867.251 825.01 883.503 825.01 899.915H950.044L950.02 899.964Z" fill="#203A5C"/>
<path d="M824.984 650.004H950.019V774.935C916.868 774.941 885.072 761.783 861.625 738.355C838.177 714.927 824.997 683.146 824.984 650.004Z" fill="#476897"/>
<path d="M247 775H0V525L247 775Z" fill="#203A5C"/>
<path d="M823.073 748.301C819.564 748.285 816.087 748.962 812.841 750.294C809.595 751.625 806.644 753.584 804.158 756.059C801.671 758.533 799.698 761.475 798.352 764.714C797.006 767.953 796.312 771.426 796.313 774.934C796.313 778.447 797.005 781.926 798.349 785.172C799.694 788.418 801.665 791.367 804.15 793.851C806.635 796.336 809.585 798.306 812.832 799.651C816.079 800.995 819.559 801.687 823.073 801.687C826.587 801.687 830.067 800.995 833.313 799.651C836.56 798.306 839.51 796.336 841.995 793.851C844.48 791.367 846.451 788.418 847.796 785.172C849.141 781.926 849.833 778.447 849.833 774.934C849.833 771.426 849.14 767.953 847.794 764.714C846.447 761.475 844.474 758.533 841.988 756.059C839.501 753.584 836.55 751.625 833.304 750.294C830.058 748.962 826.581 748.285 823.073 748.301Z" fill="#476897"/>
<path d="M247 900.028V775C263.417 775 279.672 778.233 294.839 784.514C310.006 790.794 323.787 800 335.395 811.606C347.004 823.211 356.212 836.989 362.494 852.152C368.776 867.315 372.01 883.567 372.01 899.98H247V900.028Z" fill="#203A5C"/>
<path d="M247.034 775.047H122V900.026H247.034V775.047Z" fill="#476897"/>
<path d="M700.034 775H575V899.98H700.034V775Z" fill="#476897"/>
<path d="M392.76 802C389.252 801.984 385.775 802.661 382.529 803.993C379.283 805.324 376.332 807.283 373.845 809.758C371.359 812.233 369.386 815.174 368.039 818.413C366.693 821.652 366 825.125 366 828.633C366 832.146 366.692 835.625 368.037 838.871C369.382 842.117 371.353 845.066 373.838 847.551C376.323 850.035 379.273 852.006 382.52 853.35C385.766 854.695 389.246 855.387 392.76 855.387C396.274 855.387 399.754 854.695 403.001 853.35C406.248 852.006 409.198 850.035 411.682 847.551C414.167 845.066 416.139 842.117 417.483 838.871C418.828 835.625 419.52 832.146 419.52 828.633C419.52 825.125 418.827 821.652 417.481 818.413C416.135 815.174 414.162 812.233 411.675 809.758C409.189 807.283 406.238 805.324 402.992 803.993C399.746 802.661 396.269 801.984 392.76 802Z" fill="#476897"/>
<path d="M0 150.883V0H149C149 40.0477 133.305 78.4551 105.367 106.773C77.4299 135.091 39.5385 151 0.0288654 151L0 150.883Z" fill="#476897"/>
<path d="M122 775V900H0L122 775Z" fill="white"/>
<path d="M246.536 899.521V838C238.454 837.997 230.451 839.586 222.984 842.676C215.516 845.767 208.731 850.299 203.016 856.012C197.302 861.725 192.769 868.509 189.678 875.974C186.586 883.44 184.997 891.441 185 899.521H246.536Z" fill="white"/>
<path d="M575.999 898.521V837C584.081 836.997 592.084 838.586 599.552 841.676C607.019 844.767 613.804 849.299 619.519 855.012C625.234 860.725 629.766 867.509 632.857 874.974C635.949 882.44 637.538 890.441 637.535 898.521H575.999Z" fill="white"/>
<path d="M950.034 0V124.98L825 0H950.034Z" fill="#203A5C"/>
</svg>
