<svg width="549" height="333" viewBox="0 0 549 333" fill="none" xmlns="http://www.w3.org/2000/svg">
<g clip-path="url(#clip0_4521_47155)">
<path d="M57.612 169.195C57.612 169.195 42.4731 167.311 40.2464 158.643C38.0197 149.975 38.4297 140.364 40.0445 137.16C41.6594 133.955 49.5369 130.941 49.5369 130.941C49.5369 130.941 55.3937 128.868 56.6048 125.476C57.8159 122.084 61.7458 111.154 64.3152 108.596C67.1695 105.751 71.7511 103.052 84.8789 104.37C98.0066 105.689 100.833 112.662 100.833 112.662C100.833 112.662 102.448 117.938 102.045 122.838C101.641 127.738 101.034 134.522 102.247 136.217C103.459 137.912 111.334 139.232 111.334 139.232C111.334 139.232 117.595 141.117 119.211 144.886C120.826 148.655 120.826 169.006 108.709 174.848C108.103 175.037 57.612 169.195 57.612 169.195Z" fill="#0060BF"/>
<path d="M51.5942 241.203C51.5942 241.203 36.8926 292.547 38.7514 331.389H119.131C119.131 331.389 112.56 264.596 108.843 244.135L51.5942 241.203Z" fill="#26B3B5"/>
<path d="M26.5183 245.795C26.5183 245.795 11.064 232.159 9.96326 224.32C8.86254 216.481 26.2586 197.593 28.336 192.86C31.2976 186.104 35.7772 179.127 40.8918 175.378C46.0065 171.628 65.5199 166.793 65.5199 166.793C65.5199 166.793 76.6323 166.035 88.6856 167.992L108.046 172.423C108.046 172.423 116.082 174.809 118.274 186.738C120.466 198.668 125.885 268.471 125.885 268.471C125.885 268.471 85.4907 269.578 86.7039 268.219C87.9171 266.86 52.716 243.544 52.716 243.544L47.1608 220.833L45.3084 206.02L29.3453 224.509C29.3453 224.509 36.1315 230.452 40.1738 233.702C39.9772 237.159 27.7378 247.621 26.5183 245.795Z" fill="#26B3B5"/>
<path d="M62.2725 167.852C62.2725 167.852 65.4632 196.399 75.5958 213.232C89.9178 183.572 94.9115 169.586 94.9115 169.586C94.9115 169.586 78.0474 162.816 62.2725 167.852Z" fill="#78DEB5"/>
<path d="M39.6145 233.831L55.3653 247.055C55.3653 247.055 54.3886 254.044 53.7368 257.387C53.085 260.73 46.5721 266.2 43.6442 265.896C40.7163 265.592 37.1765 264.032 37.1765 264.032C37.1765 264.032 39.6345 261.92 43.3351 262.69L47.4437 250.998L32.2301 242.153L39.6145 233.831Z" fill="white"/>
<path d="M59.0901 117.975L55.051 148.049C54.9006 150.291 57.8296 151.188 60.0226 151.528L91.8375 156.172C94.9777 156.662 96.9174 155.15 97.5535 151.997L102.063 124.29L59.0901 117.975Z" fill="#D2EAF7"/>
<path d="M63.5298 113.712C71.9708 114.757 89.1346 116.933 98.814 118.512C99.511 118.627 100.176 118.872 100.768 119.232C101.361 119.593 101.869 120.063 102.261 120.612C102.654 121.161 102.923 121.779 103.052 122.428C103.181 123.077 103.168 123.744 103.013 124.389L102.87 124.977L57.5321 118.538L57.6909 117.694C57.9269 116.456 58.6658 115.351 59.7536 114.609C60.8414 113.867 62.1942 113.546 63.5298 113.712Z" fill="#26B3B5"/>
<path d="M67.9443 166.864L68.6108 149.745C68.6108 149.745 67.9432 147.881 66.7752 146.474C65.6072 145.068 57.9295 140.401 62.7697 121.558C62.7697 121.558 81.6292 123.115 93.3125 126.07C93.3125 126.07 93.1464 137.284 90.3089 140.865C87.4714 144.447 85.8019 144.759 85.8019 144.759C85.8019 144.759 85.1343 146.315 85.1343 147.25C85.1343 147.93 85.0229 157.904 86.2729 164.902C86.911 168.475 91.8554 168.772 91.8554 168.772C91.8554 168.772 79.4152 176.362 63.943 167.879C65.2193 167.435 67.9443 166.864 67.9443 166.864Z" fill="white"/>
<path d="M64.785 120.588L60.5546 149.876L65.6965 150.583L70.2393 121.478L64.785 120.588Z" fill="#D2EAF7"/>
<path d="M69.4255 152.855L88.6068 155.093" stroke="#D2EAF7" stroke-width="10" stroke-miterlimit="10"/>
<path d="M413.031 328.956C430.492 329.696 473.622 331.818 489.619 330.066C493.984 325.623 486.841 317.477 486.445 303.406C496.414 304.779 514.373 308.645 514.354 308.655C516.997 292.912 516.767 292.217 518.072 281.384C519.223 271.842 521.73 262.184 521.563 252.599C521.299 237.447 519.761 222.362 518.854 207.241C518.398 199.656 515.466 188.121 509.129 182.884C506.042 180.334 500.423 175.073 496.845 173.094C492.845 170.882 474.387 163.341 468.775 160.62L452.426 164.157C445.99 168.112 431.628 172.731 427.466 174.849C424.07 176.578 420.527 183.331 419.46 186.86" fill="#7DCFFF"/>
<path d="M530.536 245.894L514.929 186.173L506.003 183.345C499.77 184.098 495.799 196.734 494.592 204.635C493.167 213.952 493.085 224.929 495.57 233.88C496.625 237.685 498.137 240.29 497.33 244.595C496.131 250.995 493.091 255.85 492.625 262.818C492.209 269.034 493.654 274.322 493.878 280.398C494.085 286.017 493.08 291.857 492.38 297.356C491.688 302.796 492.534 302.974 491.594 308.1C496.836 310.61 502.926 312.43 508.354 313.251C513.072 313.966 512.393 320.425 514.929 314.111C516.346 310.58 517.212 306.636 518.358 302.912C519.513 299.156 521.348 296.627 522.682 293.293C524.671 288.333 525.009 280.45 525.904 274.854L529.043 255.217C529.38 253.126 530.923 248.028 530.536 245.894Z" fill="white"/>
<path d="M446.999 176.11C446.999 176.11 449.924 166.824 451.123 164.78C452.617 162.229 453.684 159.384 454.091 156.504C454.309 154.951 455.26 151.584 453.202 150.882C452.159 150.527 451.045 150.471 450.048 149.984C446.871 148.442 446.207 144.894 445.236 141.996C444.238 139.012 443.145 136.123 443.151 132.945C443.151 131.081 443.474 129.414 443.832 127.603C444.42 124.616 444.072 121.496 444.432 118.48C444.565 117.372 444.864 115.635 445.823 114.844C446.324 114.433 447.106 114.32 447.756 114.134C452.632 112.741 457.77 112.046 462.861 111.938C466.794 111.855 472.928 111.318 475.991 114.075C478.132 116.001 478.795 118.908 478.844 121.585C478.89 124.136 478.375 127.427 476.513 129.414C480.303 129.058 479.282 133.044 478.903 135.392C478.513 137.817 477.967 140.189 475.664 141.558C474.087 142.494 472.255 142.801 471.59 144.613C471.119 145.893 470.933 147.359 470.787 148.71C470.297 153.243 470.854 157.919 472.69 162.156C470.408 166.415 465.401 176.649 465.401 176.649C465.401 176.649 455.017 181.383 446.999 176.11Z" fill="#26B3B5"/>
<path d="M266.575 266.199V331.735H334.07L364.452 324.849L363.86 256.212L266.575 266.199Z" fill="#26B3B5"/>
<path d="M264.978 241.291L260.717 174.114C260.717 174.114 259.605 161.688 267.188 157.207C274.771 152.725 311.491 138.211 311.491 138.211L328.664 141.809C328.664 141.809 350.989 149.055 364.579 159.32C367.5 161.526 365.84 263.463 365.84 263.463L341.923 315.179C341.923 315.179 321.337 315.426 319.602 291.158C319.602 291.158 316.571 275.54 315.88 263.158C313.328 262.751 310.413 263.016 308.584 263.158C302.944 314.41 288.03 317.27 275.436 311.71L267.42 303.367L264.978 241.291Z" fill="white"/>
<path d="M300.825 142.698C300.825 142.698 310.229 139.229 310.885 137.188C311.541 135.146 311.322 132.494 311.322 132.494C311.322 132.494 308.261 128.821 306.292 126.371C304.323 123.922 302.137 120.249 300.825 111.678C299.513 103.108 299.512 96.5714 299.512 96.5714L327.289 90.25C327.289 90.25 334.506 94.1278 335.162 98.4137C335.818 102.7 335.818 119.025 333.194 124.535C330.57 130.045 329.257 130.453 329.038 133.515C328.819 136.577 327.163 139.526 328.428 140.806C329.693 142.085 335.818 144.533 335.818 144.533L334.069 151.881L319.62 161.229C319.62 161.229 316.571 160.86 314.385 159.839C312.198 158.819 302.137 149.839 302.137 149.839L300.825 142.698Z" fill="#2D2E83"/>
<path d="M300.452 109.976C296.44 107.612 292.283 99.8616 296.835 96.3095C299.594 94.1563 300.898 96.1133 299.959 92.3405C297.737 83.4313 309 79.5466 316.445 78.6343C324.188 77.6867 327.615 82.5435 327.615 82.5435L336.63 95.5709C336.63 95.5709 337.261 102.322 336.757 105.046C336.252 107.77 335.107 108.362 335.107 108.362C335.107 108.362 334.092 101.612 333.584 100.545C333.076 99.4791 329.141 94.6232 327.237 93.7943C327.237 93.7943 326.095 93.4392 326.856 95.097C327.618 96.7549 328.125 99.8352 325.841 99.8352C323.556 99.8352 301.47 97.3474 299.948 96.8736C300.013 100.858 301.272 106.173 300.452 109.976Z" fill="#26B3B5"/>
<path d="M302.137 149.841C302.137 149.841 306.144 229.496 306.261 261.215C310.737 263.999 313.347 262.955 315.958 263.303C320.433 213.19 332.11 160.709 334.068 151.882C334.068 151.882 323.149 159.499 318.284 160.841L302.137 149.841Z" fill="#0060BF"/>
<path d="M305.818 115.184C305.818 115.184 319.352 109.396 330.628 113.342C330.628 113.342 331.279 122.171 329.69 129.776C328.895 130.146 317.767 133.111 309.421 130.146C309.425 130.146 307.208 122.23 305.818 115.184Z" fill="white"/>
<path d="M329.562 113.381L335.477 108.041L335.55 109.055L330.23 115.005L329.562 113.381Z" fill="#D2EAF7"/>
<path d="M307.208 115.129L300.649 110.883L300.784 112.257L306.94 117.003L307.208 115.129Z" fill="#D2EAF7"/>
<path d="M341.269 309.057L332.374 331.445C332.374 331.445 401.82 332.131 431.271 331.39C431.271 331.39 424.858 304.387 424.431 302.794C424.004 301.201 397.107 277.299 397.107 277.299L360.39 291.241L341.269 309.057Z" fill="#8288FF"/>
<path d="M331.598 214.736C327.536 212.996 322.7 208.148 322.573 203.755C322.437 198.971 328.075 195.915 330.383 192.203C332.561 188.7 331.398 185.636 332.653 181.97C334.441 176.743 341.13 175.483 345.717 173.013C351.822 169.725 359.505 164.744 361.171 157.876C362.869 150.866 361.54 143.2 363.29 136.203C365.376 127.864 366.873 122.17 377.483 116.653C383.282 113.637 396.314 112.622 400.674 118.848C403.844 123.372 403.757 129.591 403.398 135.062C403.139 139.038 402.528 142.977 401.909 146.875C401.488 149.495 400.637 153.559 401.278 156.186C401.987 159.074 404.664 160.11 407.009 161.958C411.991 165.898 409.39 169.34 409.482 174.515C409.588 180.241 416.487 180.325 421.164 181.239C432.502 183.458 432.077 198.761 427.844 206.305C424.89 211.568 419.564 216.35 413.344 217.554" fill="#2D2E83"/>
<path d="M370.467 194.475L399.425 196.097C399.425 196.097 393.634 245.005 386.973 257.975C386.973 257.974 373.362 215.551 370.467 194.475Z" fill="#78DEB5"/>
<path d="M337.658 257.351C333.892 247.112 334.152 235.366 333.144 224.782C332.342 216.356 332.818 207.173 334.264 198.82C334.842 195.484 335.325 192.489 338.785 191.014C347.369 187.36 356.68 185.461 364.633 180.506C367.787 178.544 370.021 175.765 372.949 173.755C372.634 177.607 371.141 180.947 371.363 184.914C371.573 188.752 372.624 192.794 373.483 196.558C375.391 204.955 377.138 216.237 378.885 224.661C381.343 236.514 388.808 254.052 388.808 266.179C388.808 273.831 385.179 286.3 381.261 293.254C377.656 299.653 369.645 304.751 363.052 308.469C357.901 311.376 341.751 317.061 337.985 316.808C338.226 315.163 350.658 272.023 350.928 263.384C349.237 263.921 340.437 264.909 337.658 257.351Z" fill="#8288FF"/>
<path d="M387.207 173.339C391.292 180.273 400.674 183.071 408.3 185.209C411.559 186.123 414.55 186.931 415.52 190.335C416.729 194.58 416.539 199.229 417.576 203.519C420.367 215.066 428.877 224.445 430.416 236.411C431.216 242.638 431.42 254.919 424.538 258.414C419.578 260.932 415.733 262.233 410.647 261.199C412.656 264.581 423.887 294.018 425.681 299.226C427.1 303.347 430.537 309.538 429.136 313.897C423.227 312.371 417.097 311.035 411.387 308.609C403.608 305.305 396.831 301.167 390.199 296.166C385.419 292.561 382.743 289.207 382.689 283.053C382.615 274.617 383.221 246.937 384.055 243.945C385.02 240.492 390.433 226.442 390.994 222.906C394.82 198.774 392.503 187.931 391.126 184.707" fill="#8288FF"/>
<path d="M373.173 194.765C373.173 194.765 370.019 183.253 371.441 178.6C372.889 173.868 371.432 160.485 370.859 158.195C370.003 154.773 367.974 141.04 368.086 138.454C370.692 138.124 373.626 137.537 376.157 136.753C377.712 136.271 379.206 135.533 380.625 134.818C381.151 134.552 383.802 132.797 384.351 133.125C386.007 134.117 376.057 141.708 381.092 140.396C393.182 137.25 395.822 132.555 397.025 131.932C397.505 133.311 395.685 143.224 394.802 146.695C393.865 150.377 393.065 154.136 391.227 157.539C390.66 158.589 388.8 160.689 388.425 161.777C388.221 162.365 392.776 189.146 392.999 196.08C392.997 196.081 377.804 195.763 373.173 194.765Z" fill="white"/>
<path d="M359.549 234.944C359.549 234.944 363.199 228.829 365.924 229.703C369.363 230.805 374.86 231.408 374.86 231.408L393.334 235.385L390.811 247.173L371.548 236.565L358.077 237.124L359.549 234.944Z" fill="white"/>
<path d="M387.491 234.503C387.491 234.503 399.491 231.574 403.438 229.217C407.386 226.86 409.256 229.768 415.159 231.735C417.857 232.444 415.718 239.9 413.86 239.66C406.137 238.659 404.819 234.819 399.352 235.012L391 235.986L387.491 234.503Z" fill="white"/>
<path d="M122.495 231.81C122.495 231.81 123.791 252.851 125.346 262.282L135.454 264.458L142.193 241.725L122.495 231.81Z" fill="#8288FF"/>
<path d="M120.679 290.82C120.456 290.784 121.03 293.517 121.119 293.696C121.902 295.276 123.366 295.821 125.099 295.273C126.102 296.745 127.096 296.895 128.712 295.974C128.906 296.505 129.589 297.914 130.421 297.832C131.22 297.752 131.357 296.079 131.484 295.44C131.744 294.123 131.924 292.799 130.339 292.595C128.985 292.422 127.646 292.149 126.303 291.892C124.432 291.536 122.562 291.125 120.679 290.82Z" fill="#8288FF"/>
<path d="M135.312 263.407L110.775 257.365L109.627 260.884L107.71 257.638L105.479 288.576L132.085 292.996C132.085 292.996 134.113 265.733 135.312 263.407Z" fill="#2D2E83"/>
<path d="M140.93 232.099C140.93 232.099 127.773 282.443 129.015 331.386C129.015 331.386 158.498 331.16 191.243 331.288L196.727 282.717L177.803 230.932L140.93 232.099Z" fill="#0060BF"/>
<path d="M142.138 96.3134L164.327 103.313C164.327 103.313 170.264 105.063 171.515 115.269C172.767 125.475 173.078 133.349 173.078 133.349C173.078 133.349 172.452 140.348 181.516 141.515L190.579 142.681C190.579 142.681 198.392 142.093 197.455 151.138C196.517 160.184 192.142 168.635 189.017 173.014L127.449 177.097C127.449 177.097 126.511 141.811 124.949 136.271C123.386 130.73 123.073 125.48 125.573 121.398C128.073 117.316 130.261 114.691 130.261 114.691C130.261 114.691 128.074 104.195 132.762 99.5261C137.45 94.8576 142.138 96.3134 142.138 96.3134Z" fill="#2D2E83"/>
<path d="M161.206 158.134L188.395 168.63C188.395 168.63 193.083 171.547 194.646 176.504C196.21 181.46 176.407 245.564 176.407 245.564L141.305 240.469L138.221 241.563L120.889 231.327C120.889 231.327 117.139 229.869 117.765 225.787C118.39 221.705 119.015 216.455 117.134 208.873C115.253 201.291 111.196 189.335 117.45 181.46C123.703 173.586 137.764 163.671 139.948 161.922L161.206 158.134Z" fill="#7DCFFF"/>
<path d="M140.049 165.205C140.049 165.205 142.88 161.121 142.108 157.76C141.337 154.398 140.306 149.354 140.306 149.354C140.306 149.354 129.723 142.815 127.606 129.532C125.49 116.249 135.687 110.501 135.687 110.501L138.572 108.526C138.572 108.526 143.766 113.553 145.882 114.271C147.999 114.989 156.656 117.502 158.393 119.836C160.13 122.17 158.393 136.171 153.391 143.891C153.391 143.891 151.659 146.763 153.006 148.378C154.353 149.994 158.781 157.435 158.781 157.435L163.419 160.004C163.419 160.004 161.664 170.279 149.735 170.458C137.807 170.638 140.049 165.205 140.049 165.205Z" fill="#8288FF"/>
<path d="M159.622 127.121C160.346 126.121 160.369 123.51 160.369 122.216" stroke="#D2EAF7" stroke-width="10" stroke-miterlimit="10"/>
<path d="M121.538 143.344L126.019 138.538C126.095 138.456 126.192 138.394 126.301 138.357C126.41 138.319 126.527 138.308 126.642 138.323C126.756 138.338 126.865 138.38 126.958 138.444C127.052 138.509 127.126 138.594 127.175 138.692L130.131 144.651C130.184 144.759 130.205 144.878 130.191 144.996C130.177 145.113 130.129 145.225 130.052 145.32C129.975 145.414 129.872 145.487 129.754 145.531C129.636 145.574 129.507 145.587 129.382 145.567L121.952 144.415C121.83 144.396 121.715 144.347 121.619 144.273C121.523 144.199 121.451 144.102 121.408 143.993C121.366 143.884 121.356 143.766 121.379 143.652C121.401 143.538 121.457 143.432 121.538 143.344Z" fill="#0060BF"/>
<path d="M159.785 139.864L162.339 133.601C162.528 133.136 163.143 133.046 163.495 133.43L168.436 138.776C168.83 139.203 168.609 139.873 168.05 139.941L160.558 140.858C160.016 140.925 159.581 140.366 159.785 139.864Z" fill="#0060BF"/>
<path d="M163.643 158.646C165.536 172.763 165.282 187.921 166.03 202.327C167.186 224.719 169.561 247.06 172.121 269.34C174.013 285.854 176.281 302.172 179.283 318.525C179.793 321.309 180.221 324.086 180.678 326.807C180.851 327.845 181.578 331.758 181.658 331.025L224.046 331.685L197.907 180.729C197.907 180.729 198.853 172.02 185.073 166.746L163.643 158.646Z" fill="#D2EAF7"/>
<path d="M139.55 166.206C139.55 166.206 146.411 231.73 146.748 243.975C147.084 256.221 146.411 331.891 146.411 331.891L127.052 333C127.052 333 130.32 264.542 138.221 241.573L117.136 230.479L115.454 215.407L118.483 214.466C118.483 214.466 111.755 194.684 113.772 187.776C115.79 180.868 131.27 167.367 131.27 167.367L142.138 159.354L139.55 166.206Z" fill="#D2EAF7"/>
<path d="M122.519 291.84C123.863 291.533 124.411 289.516 125.895 289.364C126.189 290.315 126.06 291.303 126.202 292.266C127.049 291.127 128.176 289.656 129.898 289.781C129.707 290.647 129.928 291.576 129.928 292.466C129.928 292.806 129.854 293.269 129.994 293.597" fill="#8288FF"/>
<path d="M118.412 290.694C118.089 291.432 119.147 293.255 119.358 294.139C120.724 294.344 121.067 292.078 121.263 291.178" fill="#8288FF"/>
<path d="M325.188 232.908C323.696 219.87 315.172 207.567 306.256 197.519C301.239 191.866 296.07 186.402 290.889 180.878C287.116 176.856 283.38 172.446 278.483 169.611C267.12 163.039 255.775 159.27 247.979 148.633L225.417 148.339C220.056 156.961 210.856 162.935 202.227 168.717C197.33 171.999 191.3 175.243 187.983 180.064C185.641 183.47 185.472 188.28 185.062 192.228C183.92 203.187 186.381 213.278 187.259 223.927C187.873 231.374 187.867 238.642 186.491 246.008C185.594 250.819 181.703 256.248 182.189 261.149C182.641 265.691 183.184 269.487 182.449 274.062C181.666 278.926 179.813 284.591 180.031 289.428C183.552 290.59 189.096 291.898 191.733 294.224L193.037 289.62C190.287 306.433 187.276 325.679 187.138 330.172C187.138 330.172 228.357 329.202 282.498 330.172L267.044 262.202C266.905 261.927 270.986 253.854 271.489 251.835C272.791 246.612 273.509 241.331 274.026 236.021C274.617 229.948 276.561 223.983 276.151 217.838C278.314 220.953 281.958 223.45 284.771 226.072C286.616 227.795 288.164 229.985 290.017 231.588C293.436 234.541 298.036 233.107 302.024 233.23C299.877 236.191 295.902 238.412 293.097 240.881C289.935 243.659 286.63 246.287 283.483 249.085C281.27 251.053 278.824 253.04 277.217 255.386C278.355 258.021 282.024 262.229 284.26 263.997C288.21 267.117 288.772 263.979 292.189 262.466C296.89 260.382 301.571 265.684 306.768 262.22C316.512 255.708 326.497 244.345 325.188 232.908Z" fill="#7DCFFF"/>
<path d="M217.498 156.662C222.124 163.859 227.477 242.383 228.09 257.337C229.094 281.813 223.718 306.411 224.795 330.836C228.466 330.013 233.55 331.704 237.573 331.531C240.289 331.414 242.963 331.249 245.694 331.18C245.88 324.013 237.765 245.066 240.653 227.227C243.459 209.9 251.492 167.006 254.94 153.904C255.773 150.742 218.602 134.762 217.498 156.662Z" fill="#8288FF"/>
<path d="M188.997 316.623C184.413 318.51 181.377 313.061 179.535 309.804C174.984 301.739 185.879 299.102 185.267 291.485L192.144 294.159L188.997 316.623Z" fill="white"/>
<path d="M225.035 135.375C225.035 135.375 221.059 128.368 220.141 125.512C217.681 117.86 216.733 108.359 218.747 104.432C221.51 99.0366 227.788 91.7773 227.788 91.7773C227.788 91.7773 247.132 92.9545 247.886 93.1841C248.64 93.4136 252.659 100.217 252.659 100.217L254.198 121.132L248.137 149.445L237.414 156.691C236.389 157.384 235.113 157.672 233.862 157.493C232.611 157.313 231.486 156.682 230.731 155.734L225.001 152.138L225.035 135.375Z" fill="white"/>
<path d="M217.823 107.755C217.823 107.755 217.992 114.071 218.669 115.807C219.346 117.544 221.718 122.914 221.718 122.914C221.718 122.914 222.559 125.283 223.917 123.698C225.275 122.114 225.779 117.856 230.687 116.908C235.594 115.96 241.01 116.123 241.01 116.123C241.01 116.123 243.718 115.965 245.241 118.176C246.764 120.388 248.625 124.019 250.487 120.703C252.349 117.388 253.195 105.228 253.195 105.228L254.379 106.649C254.379 106.649 255.22 130.809 254.548 135.704C253.876 140.6 249.81 148.653 240.503 148.337C231.195 148.022 223.576 144.39 221.379 140.284C219.182 136.177 216.64 125.441 216.64 114.386C216.638 114.387 216.299 109.807 217.823 107.755Z" fill="#2D2E83"/>
<path d="M220.946 95.0501C220.946 95.0501 216.035 97.8381 216.462 103.615C216.889 109.392 216.89 110.586 216.89 110.586L227.136 94.6519L247.416 95.8467C247.416 95.8467 251.685 101.822 252.966 106.802C254.246 111.783 254.887 107.798 254.887 107.798C254.887 107.798 256.239 93.7003 243.715 88.8053C231.192 83.9102 221.377 82.6467 217.146 84.2261C212.914 85.8054 215.961 90.2267 215.961 90.2267C215.961 90.2267 217.484 91.6481 219.685 91.8051C221.885 91.962 224.576 92.7674 220.946 95.0501Z" fill="#2D2E83"/>
<path d="M230.658 125.565C230.658 125.565 238.345 125.916 241.302 125.653C244.258 125.39 242.977 124.515 242.977 124.515C242.977 124.515 241.597 121.802 239.922 121.627C238.248 121.451 233.121 121.452 233.121 121.452C233.121 121.452 231.447 121.802 230.756 122.677C230.065 123.552 229.573 124.69 229.573 124.69C229.573 124.69 229.674 125.387 230.658 125.565Z" fill="white"/>
<path d="M277.18 255.56C275.143 256.854 273.448 258.834 271.51 260.312C270.375 261.18 268.993 262.042 268.374 263.324C267.129 265.899 268.606 272.102 270.98 273.846C278.95 276.869 283.022 278.849 286.386 271.583C286.912 268.909 280.099 269.857 279.835 267.123C280.744 265.983 282.596 264.377 283.376 263.158" fill="#D2EAF7"/>
<path d="M218.396 152.804L223.887 170.472C223.887 170.472 224.85 173.023 226.449 170.97C228.048 168.918 233.492 161.609 233.492 161.609L242.296 170.681C242.882 171.149 244.136 170.877 244.525 170.259L254.971 153.549" stroke="#D2EAF7" stroke-width="10" stroke-miterlimit="10"/>
<path d="M222.213 150.263C207.206 147.747 209.434 169.626 225.847 195.151C228.397 199.117 235.696 208.571 245.779 192.818C255.862 177.064 266.648 150.701 250.702 150.591" stroke="#8288FF" stroke-width="10" stroke-miterlimit="10"/>
<path d="M234.758 200.986C235.034 209.913 237.071 217.25 239.544 225.911C242.132 234.992 241.113 253.392 232.178 259.478" stroke="#0060BF" stroke-width="10" stroke-miterlimit="10" stroke-linecap="round"/>
<path d="M229.912 264.875C232.264 264.875 234.172 263.095 234.172 260.9C234.172 258.704 232.264 256.925 229.912 256.925C227.559 256.925 225.652 258.704 225.652 260.9C225.652 263.095 227.559 264.875 229.912 264.875Z" fill="#0060BF"/>
<path d="M221.979 188.333C224.09 192.599 227.372 196.648 227.372 196.648C227.372 196.648 235.696 208.572 245.779 192.822C246.702 191.383 247.566 189.96 248.37 188.554" stroke="#0060BF" stroke-width="20" stroke-miterlimit="10" stroke-linecap="round"/>
<path d="M229.912 263.125C231.229 263.125 232.296 262.128 232.296 260.9C232.296 259.671 231.229 258.675 229.912 258.675C228.595 258.675 227.527 259.671 227.527 260.9C227.527 262.128 228.595 263.125 229.912 263.125Z" fill="#D2EAF7" stroke="#7DCFFF" stroke-width="2" stroke-miterlimit="10"/>
<path d="M224.639 149.46C224.254 149.406 223.861 149.484 223.533 149.681C223.347 149.574 223.135 149.511 222.916 149.499C222.697 149.487 222.478 149.526 222.28 149.612C222.081 149.698 221.908 149.829 221.776 149.992C221.644 150.156 221.558 150.347 221.525 150.549C221.492 150.751 221.513 150.958 221.587 151.151C221.66 151.343 221.783 151.516 221.946 151.654C222.108 151.791 222.304 151.889 222.517 151.938C222.729 151.988 222.952 151.987 223.164 151.937C223.334 152.123 223.549 152.268 223.792 152.36C224.034 152.451 224.297 152.487 224.558 152.463C224.818 152.439 225.069 152.356 225.287 152.222C225.506 152.088 225.687 151.906 225.814 151.693C225.941 151.479 226.011 151.24 226.017 150.996C226.024 150.752 225.966 150.51 225.851 150.291C225.735 150.072 225.564 149.882 225.352 149.739C225.141 149.595 224.895 149.501 224.636 149.465L224.639 149.46Z" fill="#0060BF"/>
<path d="M248.116 152.042C248.504 152.008 248.866 151.844 249.134 151.58C249.321 151.638 249.52 151.655 249.716 151.632C249.912 151.608 250.099 151.545 250.265 151.445C250.431 151.346 250.572 151.213 250.676 151.056C250.78 150.9 250.846 150.724 250.868 150.541C250.89 150.358 250.868 150.173 250.804 149.999C250.74 149.825 250.635 149.666 250.497 149.534C250.359 149.403 250.191 149.302 250.006 149.238C249.821 149.175 249.623 149.15 249.426 149.167C249.246 149.183 249.072 149.232 248.913 149.312C248.701 149.17 248.455 149.077 248.196 149.043C247.937 149.008 247.673 149.033 247.426 149.114C247.18 149.195 246.958 149.331 246.78 149.51C246.602 149.689 246.473 149.906 246.405 150.141C246.336 150.377 246.329 150.624 246.386 150.862C246.442 151.101 246.559 151.323 246.727 151.51C246.895 151.697 247.11 151.843 247.351 151.935C247.593 152.028 247.856 152.065 248.116 152.042Z" fill="#0060BF"/>
<path d="M472.541 162.862C470.411 165.844 466.139 177.16 463.859 182.029C459.198 191.985 455.616 203.665 452.295 214.06C448.288 226.585 437.314 253.413 437.044 254.314" stroke="#26B3B5" stroke-width="10" stroke-miterlimit="10"/>
<path d="M451.088 165.481C447.716 174.222 444.23 188.601 441.795 196.795C435.085 219.38 436.405 327.606 438.417 329.257" stroke="#26B3B5" stroke-width="10" stroke-miterlimit="10"/>
<path d="M444.558 130.54C444.558 130.54 461.064 128.744 465.923 130.04C465.923 130.04 468.531 141.641 463.845 145.367C463.15 146.014 457.898 150.688 448.075 146.272C448.076 146.272 441.525 141.292 444.558 130.54Z" fill="#2D2E83"/>
<path d="M460.281 130.294L474.103 129.45L473.648 130.869L460.892 131.86L460.281 130.294Z" fill="#2D2E83"/>
<path d="M465.063 143.061L471.468 144.971L471.122 145.965L464.146 144.058L465.063 143.061Z" fill="#2D2E83"/>
<path d="M446.378 130.654L442.86 130.088L442.739 131.446L444.315 132.465L446.378 130.654Z" fill="#2D2E83"/>
<path d="M446.984 144.801L445.043 145.592L446.135 146.838L448.197 146.046L446.984 144.801Z" fill="#2D2E83"/>
<path d="M368.004 211.399H352.7V219.691H368.004V211.399Z" fill="#7DCFFF"/>
<path d="M496.114 306.653C496.114 306.653 492.995 311.68 490.727 314.59C489.405 316.286 488.203 321.106 490.357 322.569C491.934 321.391 492.409 319.488 493.681 318.131C493.871 319.669 492.616 331.424 495.153 331.742C496.738 331.938 499.126 327.101 499.724 326.129C499.507 326.481 501.898 326.578 502.078 326.554C503.086 326.427 504.316 325.613 504.978 324.927C506.22 323.64 506.522 321.82 506.936 320.155C507.807 316.645 508.174 312.348 511.014 309.633C511.043 309.935 510.819 309.964 510.757 310.226" fill="#26B3B5"/>
<path d="M161.98 120.329L172.18 121.725L172.452 125.531L161.98 125.912V120.329Z" fill="#26B3B5"/>
<path d="M131.756 136.014C131.938 135.344 132.387 134.677 133.242 133.939C134.91 132.498 137.069 131.285 139.181 130.499C141.704 129.559 143.096 129.395 145.583 130.499C147.8 131.48 150.021 132.631 152.021 133.961C153.208 134.751 154.79 135.373 155.566 136.588C156.645 138.276 155.251 140.447 154.649 142.106C153.949 144.027 153.539 147.992 151.495 149.114C150.798 149.497 149.918 149.587 149.085 149.703C146.127 150.117 142.557 150.291 139.687 149.356C137.049 148.496 135.377 146.281 134.22 144.024C133.583 142.786 133.087 141.49 132.614 140.191C131.991 138.485 131.421 137.245 131.756 136.014Z" fill="white"/>
<path d="M161.841 127.595C162.533 124.59 162.556 119.924 158.928 118.66C157.863 118.289 156.729 118.114 155.564 117.99C149.256 117.314 142.212 117.151 135.893 117.892C133.152 118.213 127.246 118.108 125.585 120.486C123.353 123.681 125.231 130.078 127.806 132.65C129.092 133.934 131.999 134.906 133.852 134.523C138.502 133.564 140.5 130.962 145.039 132.344C149.376 133.665 150.533 134.841 155.204 134.612C159.662 134.386 160.983 131.319 161.841 127.595Z" stroke="#D2EAF7" stroke-width="10" stroke-miterlimit="10"/>
<path d="M448.921 117.242C448.283 117.356 447.638 117.439 446.99 117.493C444.943 117.649 444.362 117.689 444.311 119.914C444.32 119.515 443.146 118.912 443.019 118.418C442.862 117.801 443.262 117.158 443.361 116.535C443.695 114.433 443.6 112.236 443.65 110.116C443.713 107.476 445.172 106.434 447.26 104.735C450.794 101.861 456.839 98.0076 461.789 97.882C467.208 97.7447 473.618 101.076 478.01 103.768C482.28 106.384 485.693 112.476 486.12 117.226C486.424 120.619 482.72 121.15 480.434 122.977C480.213 123.154 480.224 124.902 479.756 125.223C478.627 125.997 475.995 122.15 474.373 121.581C473.556 121.295 472.626 121.375 471.843 121.012C471.288 120.756 470.916 120.269 470.342 120.021C468.717 119.319 466.825 118.433 465.123 117.904C463.336 117.349 461.645 117.298 459.802 117.119C458.135 116.959 456.551 116.477 454.868 116.439C452.837 116.392 450.892 116.902 448.921 117.242Z" fill="#0060BF"/>
<path d="M460.764 287.493L483.305 287.124V296.35L459.974 296.719L460.764 287.493Z" stroke="white" stroke-width="10" stroke-miterlimit="10"/>
<path d="M153.354 134.488L160.04 124.989" stroke="#D2EAF7" stroke-width="10" stroke-miterlimit="10" stroke-linecap="round"/>
<path d="M129.504 133.411L138.995 120.249" stroke="#D2EAF7" stroke-width="10" stroke-miterlimit="10" stroke-linecap="round"/>
<path d="M138.49 126.356L144.812 117.766" stroke="#D2EAF7" stroke-width="10" stroke-miterlimit="10" stroke-linecap="round"/>
<path d="M394.087 148.559L391.266 151.566C388.946 149.728 383.832 148.231 381.362 148.109C379.271 148.011 373.565 150.233 371.086 151.248L368.969 146.901C368.932 146.826 368.868 146.766 368.787 146.732C368.707 146.697 368.616 146.691 368.531 146.714C368.445 146.736 368.372 146.787 368.323 146.856C368.275 146.925 368.254 147.008 368.266 147.09C368.269 147.111 368.274 147.133 368.281 147.154L369.918 151.735H369.91C369.91 155.364 372.188 161.054 372.755 162.415L371.522 163.601C371.417 163.638 371.323 163.695 371.243 163.768C371.163 163.841 371.1 163.928 371.057 164.024C371.015 164.12 370.994 164.224 370.995 164.328C370.997 164.432 371.021 164.535 371.066 164.63L371.138 164.78L373.475 162.916C381.162 165.383 386.916 163.373 387.708 163.07L388.835 163.727C388.835 163.727 389.132 163.569 388.962 163.139C388.857 162.869 388.524 162.523 388.286 162.3C390.37 158.965 391.286 155.258 391.65 153.367L391.714 153.534L395.002 149.24C395.042 149.187 395.072 149.128 395.09 149.065C395.129 148.945 395.123 148.816 395.072 148.7C395.02 148.584 394.928 148.488 394.81 148.429C394.692 148.37 394.555 148.35 394.424 148.374C394.292 148.397 394.173 148.463 394.087 148.559Z" fill="#26B3B5"/>
<path d="M111.529 255.099L105.407 291.82" stroke="#26B3B5" stroke-width="10" stroke-miterlimit="10"/>
<path d="M384.025 263.272C383.598 264.466 384.878 321.414 381.891 328.98" stroke="#7DCFFF" stroke-width="10" stroke-miterlimit="10"/>
<path d="M384.025 301.104C384.025 301.104 388.72 324.998 393.841 328.98" stroke="#7DCFFF" stroke-width="10" stroke-miterlimit="10"/>
<path d="M353.604 263.241C353.604 263.241 378.801 260.603 386.973 257.975" stroke="#7DCFFF" stroke-width="10" stroke-miterlimit="10"/>
<path d="M390.529 249.243L389.373 257.857C389.373 257.857 404.222 261.658 410.644 261.192" stroke="#7DCFFF" stroke-width="10" stroke-miterlimit="10"/>
<path d="M94.9115 169.586C94.9115 169.586 73.8337 216.182 75.2919 221.512L75.8333 330.768" stroke="#78DEB5" stroke-width="10" stroke-miterlimit="10"/>
<path d="M62.2725 167.853C62.2725 167.853 66.8635 199.705 76.6166 214.413" stroke="#78DEB5" stroke-width="10" stroke-miterlimit="10"/>
</g>
<defs>
<clipPath id="clip0_4521_47155">
<rect width="549" height="333" fill="white"/>
</clipPath>
</defs>
</svg>
