<?xml version="1.0" encoding="UTF-8"?>
<svg version="1.1" xmlns="http://www.w3.org/2000/svg" width="1069" height="1500">
<path d="M0 0 C352.77 0 705.54 0 1069 0 C1069 495 1069 990 1069 1500 C716.23 1500 363.46 1500 0 1500 C0 1005 0 510 0 0 Z " fill="#395987" transform="translate(0,0)"/>
<path d="M0 0 C1.31221024 -0.01149078 2.62442047 -0.02298157 3.97639465 -0.03482056 C5.43933029 -0.04244601 6.90226673 -0.04991761 8.36520386 -0.05725098 C9.89929953 -0.06842379 11.43339277 -0.07993703 12.96748352 -0.09176636 C18.01522412 -0.12836115 23.06298988 -0.15355125 28.11080933 -0.1763916 C28.96959985 -0.18033747 29.82839038 -0.18428333 30.71320486 -0.18834877 C38.81329423 -0.22477426 46.91339228 -0.25621876 55.01353645 -0.27745819 C65.37298496 -0.30502271 75.73174798 -0.35576185 86.09091103 -0.43793249 C93.3750857 -0.49375318 100.65907458 -0.52269858 107.94345558 -0.5319314 C112.29349175 -0.53818528 116.64272465 -0.55627297 120.99252701 -0.60331726 C125.08859855 -0.64706713 129.18342995 -0.65744738 133.27969551 -0.64268875 C134.77929333 -0.64301675 136.27894535 -0.65524283 137.77832985 -0.68053818 C139.83506358 -0.71339149 141.88730293 -0.70242366 143.9440918 -0.68115234 C145.0918918 -0.68630608 146.23969181 -0.69145981 147.42227364 -0.69676971 C152.46624128 0.57370126 155.22022822 3.56550173 158.85299683 7.1673584 C159.52802628 7.81937206 160.20305573 8.47138572 160.89854062 9.14315736 C163.11373216 11.30194878 165.30073921 13.48650881 167.48373413 15.67784119 C168.73130359 16.92412901 168.73130359 16.92412901 170.00407648 18.19559437 C172.29093141 20.48109573 174.5755492 22.76880531 176.85920572 25.05750167 C179.33034002 27.5329802 181.80439031 30.00554153 184.27807617 32.47846985 C188.55649128 36.75636223 192.83308094 41.0360724 197.1084137 45.31704521 C203.28972553 51.50650615 209.47381777 57.693183 215.65857822 63.87919772 C225.69441884 73.91722352 235.72802723 83.95747747 245.76022339 93.99914551 C255.50188581 103.7499959 265.24460464 113.49978878 274.98873901 123.24816895 C275.59001033 123.84970299 276.19128165 124.45123703 276.81077331 125.07099938 C279.8273734 128.08890456 282.84399418 131.10678904 285.86062527 134.12466323 C310.8612932 159.13568712 335.85833487 184.15033252 360.85299683 209.1673584 C361.58262278 205.00696385 361.97139414 201.12971393 361.95065308 196.90246582 C361.94734985 195.68488083 361.94404663 194.46729584 361.94064331 193.21281433 C361.93234497 191.91261856 361.92404663 190.61242279 361.91549683 189.27282715 C361.91108776 187.9161649 361.90727206 186.5595006 361.90402222 185.20283508 C361.89264261 180.92014625 361.87336645 176.63751265 361.85299683 172.3548584 C361.82941101 167.37381204 361.80904554 162.39279582 361.79705811 157.41170692 C361.79055878 155.4168438 361.77798378 153.4220035 361.76535034 151.4271698 C361.76204712 150.22534561 361.7587439 149.02352142 361.75534058 147.78527832 C361.75010376 146.72193771 361.74486694 145.65859711 361.73947144 144.56303406 C361.85299683 142.1673584 361.85299683 142.1673584 362.85299683 141.1673584 C364.64762451 141.0687852 366.44616708 141.04103728 368.24349976 141.04037476 C369.99774513 141.03614502 369.99774513 141.03614502 371.78742981 141.03182983 C373.72930931 141.03486618 373.72930931 141.03486618 375.7104187 141.03796387 C377.07838487 141.03660984 378.44635068 141.03482991 379.8143158 141.03265381 C383.53942057 141.02807959 387.26449777 141.02986898 390.98960304 141.03303289 C394.8795746 141.03555656 398.76954373 141.03321894 402.65951538 141.03164673 C409.19325181 141.02982505 415.72697695 141.03223129 422.26071167 141.0369873 C429.82527365 141.04242992 437.38980869 141.04066726 444.95437002 141.0351609 C451.43758167 141.03062972 457.92078518 141.02997925 464.4039979 141.03259957 C468.28120268 141.03416232 472.15839478 141.03435617 476.03559875 141.03106308 C479.67987269 141.02818429 483.32411173 141.03016019 486.96838188 141.03595734 C488.95177537 141.03792051 490.9351718 141.03493109 492.91856384 141.03182983 C494.08806076 141.03464966 495.25755768 141.03746948 496.4624939 141.04037476 C497.48530708 141.04075178 498.50812027 141.04112881 499.5619278 141.04151726 C501.85299683 141.1673584 501.85299683 141.1673584 502.85299683 142.1673584 C502.85299683 188.0373584 502.85299683 233.9073584 502.85299683 281.1673584 C594.59299683 281.1673584 686.33299683 281.1673584 780.85299683 281.1673584 C780.85299683 281.8273584 780.85299683 282.4873584 780.85299683 283.1673584 C428.08299683 283.1673584 75.31299683 283.1673584 -288.14700317 283.1673584 C-284.32437489 278.70762541 -280.57141685 274.44914592 -276.42097473 270.33453369 C-275.87752484 269.7916405 -275.33407494 269.24874732 -274.77415687 268.68940282 C-272.97331969 266.89157408 -271.1689331 265.09735224 -269.36453247 263.30310059 C-268.06456285 262.0066912 -266.76483057 260.71004379 -265.46531677 259.41317749 C-262.6773682 256.63175569 -259.88791963 253.85185023 -257.09732628 251.07308197 C-252.68693939 246.68103881 -248.28094605 242.28460597 -243.87571716 237.88739014 C-231.35229491 225.38808478 -218.8229306 212.89474557 -206.28933716 200.40563965 C-199.35903204 193.49985605 -192.43230433 186.59050428 -185.50941974 179.67728162 C-181.12828866 175.30270163 -176.74268431 170.93267132 -172.35374582 166.56592512 C-169.63110894 163.85498907 -166.91263447 161.1399094 -164.19534111 158.42361832 C-162.93165758 157.16208823 -161.66624495 155.90228755 -160.39901352 154.64432144 C-158.67408695 152.93152421 -156.95537446 151.21272606 -155.2381134 149.49224854 C-154.73151379 148.99215672 -154.22491417 148.49206491 -153.70296305 147.9768188 C-151.44179517 145.69903938 -150.17897376 144.26327015 -149.14700317 141.1673584 C-102.28700317 141.4973584 -55.42700317 141.8273584 -7.14700317 142.1673584 C1.93994624 187.60210545 -6.14700317 234.83282604 -6.14700317 281.1673584 C91.53299683 280.8373584 189.21299683 280.5073584 289.85299683 280.1673584 C262.79299683 253.1073584 235.73299683 226.0473584 207.85299683 198.1673584 C207.85299683 197.5073584 207.85299683 196.8473584 207.85299683 196.1673584 C206.53299683 195.5073584 205.21299683 194.8473584 203.85299683 194.1673584 C203.85299683 193.5073584 203.85299683 192.8473584 203.85299683 192.1673584 C202.98674683 191.7961084 202.98674683 191.7961084 202.10299683 191.4173584 C199.52359703 189.98435851 197.79178091 188.38311163 195.85299683 186.1673584 C195.85299683 185.5073584 195.85299683 184.8473584 195.85299683 184.1673584 C195.23424683 183.9198584 194.61549683 183.6723584 193.97799683 183.4173584 C191.44941056 181.92995471 191.13460678 180.73057831 189.85299683 178.1673584 C187.81940202 176.89931274 187.81940202 176.89931274 185.85299683 176.1673584 C185.85299683 175.5073584 185.85299683 174.8473584 185.85299683 174.1673584 C184.98674683 173.7961084 184.98674683 173.7961084 184.10299683 173.4173584 C181.52359703 171.98435851 179.79178091 170.38311163 177.85299683 168.1673584 C177.85299683 167.5073584 177.85299683 166.8473584 177.85299683 166.1673584 C177.23424683 165.9198584 176.61549683 165.6723584 175.97799683 165.4173584 C173.44941056 163.92995471 173.13460678 162.73057831 171.85299683 160.1673584 C169.81940202 158.89931274 169.81940202 158.89931274 167.85299683 158.1673584 C167.85299683 157.5073584 167.85299683 156.8473584 167.85299683 156.1673584 C166.98674683 155.7961084 166.98674683 155.7961084 166.10299683 155.4173584 C163.52359703 153.98435851 161.79178091 152.38311163 159.85299683 150.1673584 C159.85299683 149.5073584 159.85299683 148.8473584 159.85299683 148.1673584 C159.23424683 147.9198584 158.61549683 147.6723584 157.97799683 147.4173584 C155.44941056 145.92995471 155.13460678 144.73057831 153.85299683 142.1673584 C151.81940202 140.89931274 151.81940202 140.89931274 149.85299683 140.1673584 C149.85299683 139.5073584 149.85299683 138.8473584 149.85299683 138.1673584 C148.98674683 137.7961084 148.98674683 137.7961084 148.10299683 137.4173584 C145.52359703 135.98435851 143.79178091 134.38311163 141.85299683 132.1673584 C141.85299683 131.5073584 141.85299683 130.8473584 141.85299683 130.1673584 C141.23424683 129.9198584 140.61549683 129.6723584 139.97799683 129.4173584 C137.44941056 127.92995471 137.13460678 126.73057831 135.85299683 124.1673584 C133.81940202 122.89931274 133.81940202 122.89931274 131.85299683 122.1673584 C131.85299683 121.5073584 131.85299683 120.8473584 131.85299683 120.1673584 C131.23424683 119.9198584 130.61549683 119.6723584 129.97799683 119.4173584 C127.44941056 117.92995471 127.13460678 116.73057831 125.85299683 114.1673584 C123.81940202 112.89931274 123.81940202 112.89931274 121.85299683 112.1673584 C121.85299683 111.5073584 121.85299683 110.8473584 121.85299683 110.1673584 C120.53299683 109.5073584 119.21299683 108.8473584 117.85299683 108.1673584 C117.85299683 107.5073584 117.85299683 106.8473584 117.85299683 106.1673584 C116.53299683 105.5073584 115.21299683 104.8473584 113.85299683 104.1673584 C113.85299683 103.5073584 113.85299683 102.8473584 113.85299683 102.1673584 C113.23424683 101.9198584 112.61549683 101.6723584 111.97799683 101.4173584 C109.44941056 99.92995471 109.13460678 98.73057831 107.85299683 96.1673584 C105.81940202 94.89931274 105.81940202 94.89931274 103.85299683 94.1673584 C103.85299683 93.5073584 103.85299683 92.8473584 103.85299683 92.1673584 C102.53299683 91.5073584 101.21299683 90.8473584 99.85299683 90.1673584 C99.85299683 89.5073584 99.85299683 88.8473584 99.85299683 88.1673584 C98.53299683 87.5073584 97.21299683 86.8473584 95.85299683 86.1673584 C95.85299683 85.5073584 95.85299683 84.8473584 95.85299683 84.1673584 C95.23424683 83.9198584 94.61549683 83.6723584 93.97799683 83.4173584 C91.44941056 81.92995471 91.13460678 80.73057831 89.85299683 78.1673584 C87.81940202 76.89931274 87.81940202 76.89931274 85.85299683 76.1673584 C85.85299683 75.5073584 85.85299683 74.8473584 85.85299683 74.1673584 C84.53299683 73.5073584 83.21299683 72.8473584 81.85299683 72.1673584 C81.85299683 71.5073584 81.85299683 70.8473584 81.85299683 70.1673584 C80.53299683 69.5073584 79.21299683 68.8473584 77.85299683 68.1673584 C77.85299683 67.5073584 77.85299683 66.8473584 77.85299683 66.1673584 C75.20560766 64.70672989 73.95851348 64.1673584 70.85299683 64.1673584 C69.22086884 65.36519908 69.22086884 65.36519908 67.63389587 67.0526123 C66.67716728 68.01182587 66.67716728 68.01182587 65.70111084 68.99041748 C64.66073166 70.05640167 64.66073166 70.05640167 63.59933472 71.1439209 C62.86405045 71.88519226 62.12876617 72.62646362 61.37120056 73.39019775 C59.77189848 75.00429044 58.17603509 76.62179575 56.58317757 78.24224854 C54.06460388 80.80359524 51.53648491 83.35514764 49.00544739 85.9041748 C41.81007689 93.1547343 34.63454337 100.42484165 27.46066284 107.69665527 C23.07593031 112.13990256 18.68159323 116.57346994 14.28152275 121.00152588 C11.7853188 123.51999496 9.30099611 126.04981168 6.81663513 128.57995605 C5.29039924 130.11752298 3.76357076 131.65450199 2.23605347 133.1907959 C1.54449158 133.90145203 0.85292969 134.61210815 0.14041138 135.34429932 C-0.82054695 136.30351288 -0.82054695 136.30351288 -1.80091858 137.28210449 C-2.63021834 138.12277969 -2.63021834 138.12277969 -3.47627163 138.98043823 C-5.14700317 140.1673584 -5.14700317 140.1673584 -9.14700317 140.1673584 C-11.70950317 137.8548584 -11.70950317 137.8548584 -14.14700317 135.1673584 C-14.74512817 134.6104834 -15.34325317 134.0536084 -15.95950317 133.4798584 C-17.14700317 132.1673584 -17.14700317 132.1673584 -17.14700317 130.1673584 C-17.80700317 130.1673584 -18.46700317 130.1673584 -19.14700317 130.1673584 C-19.14700317 129.5073584 -19.14700317 128.8473584 -19.14700317 128.1673584 C-19.76575317 127.9198584 -20.38450317 127.6723584 -21.02200317 127.4173584 C-23.49769004 125.96107201 -24.0982532 124.78923334 -25.14700317 122.1673584 C-25.80700317 122.1673584 -26.46700317 122.1673584 -27.14700317 122.1673584 C-28.85693751 120.545113 -30.52048001 118.87322415 -32.14700317 117.1673584 C-32.74512817 116.6104834 -33.34325317 116.0536084 -33.95950317 115.4798584 C-35.14700317 114.1673584 -35.14700317 114.1673584 -35.14700317 112.1673584 C-35.80700317 112.1673584 -36.46700317 112.1673584 -37.14700317 112.1673584 C-37.14700317 111.5073584 -37.14700317 110.8473584 -37.14700317 110.1673584 C-37.76575317 109.9198584 -38.38450317 109.6723584 -39.02200317 109.4173584 C-41.49769004 107.96107201 -42.0982532 106.78923334 -43.14700317 104.1673584 C-43.80700317 104.1673584 -44.46700317 104.1673584 -45.14700317 104.1673584 C-46.85693751 102.545113 -48.52048001 100.87322415 -50.14700317 99.1673584 C-50.74512817 98.6104834 -51.34325317 98.0536084 -51.95950317 97.4798584 C-53.14700317 96.1673584 -53.14700317 96.1673584 -53.14700317 94.1673584 C-53.80700317 94.1673584 -54.46700317 94.1673584 -55.14700317 94.1673584 C-55.14700317 93.5073584 -55.14700317 92.8473584 -55.14700317 92.1673584 C-55.76575317 91.9198584 -56.38450317 91.6723584 -57.02200317 91.4173584 C-59.49769004 89.96107201 -60.0982532 88.78923334 -61.14700317 86.1673584 C-61.80700317 86.1673584 -62.46700317 86.1673584 -63.14700317 86.1673584 C-64.85693751 84.545113 -66.52048001 82.87322415 -68.14700317 81.1673584 C-68.74512817 80.6104834 -69.34325317 80.0536084 -69.95950317 79.4798584 C-71.14700317 78.1673584 -71.14700317 78.1673584 -71.14700317 76.1673584 C-71.80700317 76.1673584 -72.46700317 76.1673584 -73.14700317 76.1673584 C-76.14700317 71.78274301 -76.14700317 71.78274301 -76.14700317 69.1673584 C-75.48700317 69.1673584 -74.82700317 69.1673584 -74.14700317 69.1673584 C-74.14700317 68.5073584 -74.14700317 67.8473584 -74.14700317 67.1673584 C-73.48700317 67.1673584 -72.82700317 67.1673584 -72.14700317 67.1673584 C-72.14700317 66.5073584 -72.14700317 65.8473584 -72.14700317 65.1673584 C-71.48700317 65.1673584 -70.82700317 65.1673584 -70.14700317 65.1673584 C-70.14700317 64.5073584 -70.14700317 63.8473584 -70.14700317 63.1673584 C-69.48700317 63.1673584 -68.82700317 63.1673584 -68.14700317 63.1673584 C-68.14700317 62.5073584 -68.14700317 61.8473584 -68.14700317 61.1673584 C-67.48700317 61.1673584 -66.82700317 61.1673584 -66.14700317 61.1673584 C-66.14700317 60.5073584 -66.14700317 59.8473584 -66.14700317 59.1673584 C-65.48700317 59.1673584 -64.82700317 59.1673584 -64.14700317 59.1673584 C-64.14700317 58.5073584 -64.14700317 57.8473584 -64.14700317 57.1673584 C-63.48700317 57.1673584 -62.82700317 57.1673584 -62.14700317 57.1673584 C-62.14700317 56.5073584 -62.14700317 55.8473584 -62.14700317 55.1673584 C-61.48700317 55.1673584 -60.82700317 55.1673584 -60.14700317 55.1673584 C-60.14700317 54.5073584 -60.14700317 53.8473584 -60.14700317 53.1673584 C-59.48700317 53.1673584 -58.82700317 53.1673584 -58.14700317 53.1673584 C-58.14700317 52.5073584 -58.14700317 51.8473584 -58.14700317 51.1673584 C-57.48700317 51.1673584 -56.82700317 51.1673584 -56.14700317 51.1673584 C-56.14700317 50.5073584 -56.14700317 49.8473584 -56.14700317 49.1673584 C-55.48700317 49.1673584 -54.82700317 49.1673584 -54.14700317 49.1673584 C-54.14700317 48.5073584 -54.14700317 47.8473584 -54.14700317 47.1673584 C-53.48700317 47.1673584 -52.82700317 47.1673584 -52.14700317 47.1673584 C-52.14700317 46.5073584 -52.14700317 45.8473584 -52.14700317 45.1673584 C-51.48700317 45.1673584 -50.82700317 45.1673584 -50.14700317 45.1673584 C-50.14700317 44.5073584 -50.14700317 43.8473584 -50.14700317 43.1673584 C-49.48700317 43.1673584 -48.82700317 43.1673584 -48.14700317 43.1673584 C-48.14700317 42.5073584 -48.14700317 41.8473584 -48.14700317 41.1673584 C-47.48700317 41.1673584 -46.82700317 41.1673584 -46.14700317 41.1673584 C-46.14700317 40.5073584 -46.14700317 39.8473584 -46.14700317 39.1673584 C-45.48700317 39.1673584 -44.82700317 39.1673584 -44.14700317 39.1673584 C-44.14700317 38.5073584 -44.14700317 37.8473584 -44.14700317 37.1673584 C-43.48700317 37.1673584 -42.82700317 37.1673584 -42.14700317 37.1673584 C-42.14700317 36.5073584 -42.14700317 35.8473584 -42.14700317 35.1673584 C-41.48700317 35.1673584 -40.82700317 35.1673584 -40.14700317 35.1673584 C-40.14700317 34.5073584 -40.14700317 33.8473584 -40.14700317 33.1673584 C-39.48700317 33.1673584 -38.82700317 33.1673584 -38.14700317 33.1673584 C-38.14700317 32.5073584 -38.14700317 31.8473584 -38.14700317 31.1673584 C-37.48700317 31.1673584 -36.82700317 31.1673584 -36.14700317 31.1673584 C-36.14700317 30.5073584 -36.14700317 29.8473584 -36.14700317 29.1673584 C-35.48700317 29.1673584 -34.82700317 29.1673584 -34.14700317 29.1673584 C-34.14700317 28.5073584 -34.14700317 27.8473584 -34.14700317 27.1673584 C-33.48700317 27.1673584 -32.82700317 27.1673584 -32.14700317 27.1673584 C-32.14700317 26.5073584 -32.14700317 25.8473584 -32.14700317 25.1673584 C-31.48700317 25.1673584 -30.82700317 25.1673584 -30.14700317 25.1673584 C-30.14700317 24.5073584 -30.14700317 23.8473584 -30.14700317 23.1673584 C-29.48700317 23.1673584 -28.82700317 23.1673584 -28.14700317 23.1673584 C-28.14700317 22.5073584 -28.14700317 21.8473584 -28.14700317 21.1673584 C-27.48700317 21.1673584 -26.82700317 21.1673584 -26.14700317 21.1673584 C-26.14700317 20.5073584 -26.14700317 19.8473584 -26.14700317 19.1673584 C-25.48700317 19.1673584 -24.82700317 19.1673584 -24.14700317 19.1673584 C-24.14700317 18.5073584 -24.14700317 17.8473584 -24.14700317 17.1673584 C-23.48700317 17.1673584 -22.82700317 17.1673584 -22.14700317 17.1673584 C-22.14700317 16.5073584 -22.14700317 15.8473584 -22.14700317 15.1673584 C-21.48700317 15.1673584 -20.82700317 15.1673584 -20.14700317 15.1673584 C-20.14700317 14.5073584 -20.14700317 13.8473584 -20.14700317 13.1673584 C-19.48700317 13.1673584 -18.82700317 13.1673584 -18.14700317 13.1673584 C-18.14700317 12.5073584 -18.14700317 11.8473584 -18.14700317 11.1673584 C-17.48700317 11.1673584 -16.82700317 11.1673584 -16.14700317 11.1673584 C-16.14700317 10.5073584 -16.14700317 9.8473584 -16.14700317 9.1673584 C-15.48700317 9.1673584 -14.82700317 9.1673584 -14.14700317 9.1673584 C-14.14700317 8.5073584 -14.14700317 7.8473584 -14.14700317 7.1673584 C-13.48700317 7.1673584 -12.82700317 7.1673584 -12.14700317 7.1673584 C-12.14700317 6.5073584 -12.14700317 5.8473584 -12.14700317 5.1673584 C-11.48700317 5.1673584 -10.82700317 5.1673584 -10.14700317 5.1673584 C-10.14700317 4.5073584 -10.14700317 3.8473584 -10.14700317 3.1673584 C-9.48700317 3.1673584 -8.82700317 3.1673584 -8.14700317 3.1673584 C-8.14700317 2.5073584 -8.14700317 1.8473584 -8.14700317 1.1673584 C-5.37338512 -0.21945063 -3.10499496 0.02214472 0 0 Z " fill="#476896" transform="translate(288.1470031738281,1216.8326416015625)"/>
<path d="M0 0 C1.485 0.99 1.485 0.99 3 2 C3 2.66 3 3.32 3 4 C4.32 4.66 5.64 5.32 7 6 C7 6.66 7 7.32 7 8 C8.32 8.66 9.64 9.32 11 10 C11 10.66 11 11.32 11 12 C12.32 12.66 13.64 13.32 15 14 C15 14.66 15 15.32 15 16 C16.32 16.66 17.64 17.32 19 18 C19 18.66 19 19.32 19 20 C20.32 20.66 21.64 21.32 23 22 C23 22.66 23 23.32 23 24 C24.32 24.66 25.64 25.32 27 26 C27 26.66 27 27.32 27 28 C28.32 28.66 29.64 29.32 31 30 C31 30.66 31 31.32 31 32 C32.32 32.66 33.64 33.32 35 34 C35 34.66 35 35.32 35 36 C36.32 36.66 37.64 37.32 39 38 C39 38.66 39 39.32 39 40 C40.32 40.66 41.64 41.32 43 42 C43 42.66 43 43.32 43 44 C44.32 44.66 45.64 45.32 47 46 C47 46.66 47 47.32 47 48 C48.32 48.66 49.64 49.32 51 50 C51 50.66 51 51.32 51 52 C52.32 52.66 53.64 53.32 55 54 C55 54.66 55 55.32 55 56 C56.32 56.66 57.64 57.32 59 58 C59 58.66 59 59.32 59 60 C60.32 60.66 61.64 61.32 63 62 C63 62.66 63 63.32 63 64 C64.98 64.99 64.98 64.99 67 66 C67 66.66 67 67.32 67 68 C68.98 68.99 68.98 68.99 71 70 C71 70.66 71 71.32 71 72 C72.98 72.99 72.98 72.99 75 74 C75 74.66 75 75.32 75 76 C76.98 76.99 76.98 76.99 79 78 C79 78.66 79 79.32 79 80 C80.98 80.99 80.98 80.99 83 82 C83 82.66 83 83.32 83 84 C84.98 84.99 84.98 84.99 87 86 C87 86.66 87 87.32 87 88 C88.98 88.99 88.98 88.99 91 90 C91 90.66 91 91.32 91 92 C92.98 92.99 92.98 92.99 95 94 C95 94.66 95 95.32 95 96 C96.98 96.99 96.98 96.99 99 98 C99 98.66 99 99.32 99 100 C100.98 100.99 100.98 100.99 103 102 C103 102.66 103 103.32 103 104 C104.98 104.99 104.98 104.99 107 106 C107 106.66 107 107.32 107 108 C108.98 108.99 108.98 108.99 111 110 C111 110.66 111 111.32 111 112 C112.98 112.99 112.98 112.99 115 114 C115 114.66 115 115.32 115 116 C116.98 116.99 116.98 116.99 119 118 C119 118.66 119 119.32 119 120 C120.98 120.99 120.98 120.99 123 122 C123 122.66 123 123.32 123 124 C124.98 124.99 124.98 124.99 127 126 C127 126.66 127 127.32 127 128 C128.32 128.66 129.64 129.32 131 130 C131 130.66 131 131.32 131 132 C132.32 132.66 133.64 133.32 135 134 C135 134.66 135 135.32 135 136 C136.32 136.66 137.64 137.32 139 138 C139 138.66 139 139.32 139 140 C140.32 140.66 141.64 141.32 143 142 C143 142.66 143 143.32 143 144 C143.53077148 144.20545441 144.06154297 144.41090881 144.60839844 144.62258911 C147.99626572 146.5737859 150.5392946 149.27831438 153.265625 152.03857422 C153.88401245 152.65666962 154.5023999 153.27476501 155.13952637 153.91159058 C157.18112773 155.95458432 159.21555209 158.00457217 161.25 160.0546875 C162.66915897 161.4775787 164.08876172 162.90002743 165.50878906 164.322052 C169.24678568 168.06768323 172.97874184 171.81927723 176.70947266 175.57214355 C180.50063537 179.38371276 184.29741204 183.18968032 188.09375 186.99609375 C194.22803582 193.14796403 200.35882591 199.30329255 206.48522949 205.4630127 C207.02345337 206.00412689 207.56167725 206.54524109 208.11621094 207.10275269 C208.86058411 207.85482813 208.86058411 207.85482813 209.61999512 208.62209702 C210.85746211 209.85767921 212.12287764 211.0651204 213.39160156 212.26858521 C215 214 215 214 215 216 C215.66 216 216.32 216 217 216 C218.25227484 217.47704212 219.50166522 218.95827399 220.68359375 220.4921875 C222.11764091 222.26762944 222.11764091 222.26762944 225 224 C225 224.66 225 225.32 225 226 C225.66 226 226.32 226 227 226 C228.35386936 227.65002828 229.68678142 229.3174387 231 231 C231.66 231.33 232.32 231.66 233 232 C233 232.66 233 233.32 233 234 C233.66 234 234.32 234 235 234 C236.25227484 235.47704212 237.50166522 236.95827399 238.68359375 238.4921875 C240.11764091 240.26762944 240.11764091 240.26762944 243 242 C243 242.66 243 243.32 243 244 C243.66 244 244.32 244 245 244 C246.35386936 245.65002828 247.68678142 247.3174387 249 249 C249.66 249.33 250.32 249.66 251 250 C251 250.66 251 251.32 251 252 C251.66 252 252.32 252 253 252 C254.25227484 253.47704212 255.50166522 254.95827399 256.68359375 256.4921875 C258.11764091 258.26762944 258.11764091 258.26762944 261 260 C261 260.66 261 261.32 261 262 C261.66 262 262.32 262 263 262 C264.35386936 263.65002828 265.68678142 265.3174387 267 267 C267.66 267.33 268.32 267.66 269 268 C269 268.66 269 269.32 269 270 C269.66 270 270.32 270 271 270 C272.25227484 271.47704212 273.50166522 272.95827399 274.68359375 274.4921875 C276.11764091 276.26762944 276.11764091 276.26762944 279 278 C279 278.66 279 279.32 279 280 C284.47587877 278.51589141 287.68653291 274.71411145 291.54418945 270.79638672 C292.28619095 270.0548233 293.02819244 269.31325989 293.79267883 268.54922485 C296.24005888 266.09975714 298.67664526 263.63983938 301.11328125 261.1796875 C302.80941876 259.47795399 304.50622044 257.77688223 306.20365906 256.07644653 C310.66711313 251.60154413 315.12148432 247.11770533 319.57403564 242.63195801 C324.1200867 238.05520614 328.67465368 233.48694651 333.22851562 228.91796875 C342.16070704 219.95361333 351.08362019 210.98008113 360 202 C366.54782312 206.27740301 366.54782312 206.27740301 369 209.4375 C370.90129015 211.7718065 372.76973681 213.74907429 375.125 215.625 C377.88282457 217.9032029 379.77692505 220.22115631 382 223 C383.46891505 224.21345156 384.93872142 225.42604134 386.42578125 226.6171875 C388.72849964 228.63992276 390.61132294 230.9588213 392.5703125 233.30859375 C395.5626119 236.8486638 398.88171907 239.91964699 402.4375 242.875 C405.50266842 245.46144363 408.04626692 248.26460479 410.60546875 251.34375 C413.61727074 254.92079214 416.98466816 258.00832359 420.5625 261 C423.44227883 263.43195146 425.69657391 266.00554608 428 269 C430.35477895 271.47553685 432.658177 273.73913508 435.375 275.8125 C438.3752806 278.31273383 440.77188422 281.0882937 443.30859375 284.046875 C446.26170898 287.45693877 449.36068463 290.48576807 452.875 293.3125 C456.0775152 295.92226174 458.66402201 298.94980533 461.34375 302.08203125 C464.28111118 305.48355092 467.37409442 308.49655421 470.875 311.3125 C474.0775152 313.92226174 476.66402201 316.94980533 479.34375 320.08203125 C482.28111118 323.48355092 485.37409442 326.49655421 488.875 329.3125 C491.24904745 331.25098983 493.21230282 333.3230534 495.19438171 335.65994263 C498.95653706 340.00522965 502.94177365 344.07591278 507.01489258 348.12841797 C508.16740509 349.28114952 508.16740509 349.28114952 509.34320068 350.45716858 C511.8579452 352.9712221 514.37620283 355.48172443 516.89453125 357.9921875 C518.65115385 359.74694267 520.40755404 361.5019205 522.16374207 363.2571106 C526.76877359 367.85833955 531.3768003 372.45655732 535.98547363 377.05413818 C540.68679599 381.74520895 545.38526986 386.43912977 550.08398438 391.1328125 C558.89999478 399.93859741 567.71877086 408.74160618 576.53968525 417.54247856 C577.69376128 418.69434706 578.84702721 419.84702721 580 421 C481.66 421 383.32 421 282 421 C280.82712766 317.78723404 280.82712766 317.78723404 281 283 C280.28639659 282.99576806 279.57279318 282.99153612 278.83756542 282.98717594 C261.48680164 282.88394301 244.13608006 282.77531632 226.78538799 282.66066074 C218.39478134 282.60534509 210.00417043 282.5518658 201.61352539 282.50268555 C194.30160596 282.45982342 186.98971763 282.41354027 179.67784625 282.36312145 C175.80504861 282.33653688 171.93225707 282.31168419 168.05942345 282.29092598 C164.41595288 282.27134315 160.77254142 282.24719442 157.12912369 282.21950912 C155.15089664 282.20567579 153.17263741 282.19671473 151.19438171 282.18788147 C149.4338446 282.17319824 149.4338446 282.17319824 147.63774109 282.15821838 C146.61547267 282.15176583 145.59320425 282.14531328 144.539958 282.1386652 C142 282 142 282 139 281 C138.94461311 281.54280735 138.88922623 282.0856147 138.83216095 282.64487076 C137.62245059 286.06851644 135.22010469 288.18595599 132.6854248 290.68206787 C131.84603151 291.52636443 131.84603151 291.52636443 130.98968077 292.38771749 C129.10891571 294.27577734 127.21760387 296.15290413 125.32617188 298.03027344 C123.97727284 299.37996313 122.62902682 300.73030573 121.28138733 302.08125305 C117.61680659 305.75097437 113.94294847 309.41127837 110.26725197 313.06986141 C106.42827521 316.89382571 102.59738122 320.72587079 98.76550293 324.5569458 C92.33093495 330.98781968 85.89075241 337.4130257 79.44677734 343.83447266 C71.16336732 352.0889837 62.88926517 360.35275973 54.61806488 368.61950302 C47.52018691 375.71340765 40.4180496 382.80304354 33.3152256 389.89199543 C31.02539852 392.17771599 28.736164 394.46402877 26.44700623 396.75041962 C22.85773547 400.33481204 19.2658278 403.91654127 15.67181206 407.49617577 C14.34906759 408.81438195 13.02717701 410.13344556 11.70617867 411.45340157 C9.91128656 413.24655909 8.11336849 415.03662394 6.3145752 416.8258667 C5.52037776 417.62136386 5.52037776 417.62136386 4.71013594 418.43293166 C1.11420739 422 1.11420739 422 0 422 C0 282.74 0 143.48 0 0 Z " fill="#203A5C" transform="translate(0,1077)"/>
<path d="M0 0 C6.54782312 4.27740301 6.54782312 4.27740301 9 7.4375 C10.90129015 9.7718065 12.76973681 11.74907429 15.125 13.625 C17.88282457 15.9032029 19.77692505 18.22115631 22 21 C23.46891505 22.21345156 24.93872142 23.42604134 26.42578125 24.6171875 C28.72849964 26.63992276 30.61132294 28.9588213 32.5703125 31.30859375 C35.5626119 34.8486638 38.88171907 37.91964699 42.4375 40.875 C45.50266842 43.46144363 48.04626692 46.26460479 50.60546875 49.34375 C53.61727074 52.92079214 56.98466816 56.00832359 60.5625 59 C63.44227883 61.43195146 65.69657391 64.00554608 68 67 C70.35477895 69.47553685 72.658177 71.73913508 75.375 73.8125 C78.3752806 76.31273383 80.77188422 79.0882937 83.30859375 82.046875 C86.26170898 85.45693877 89.36068463 88.48576807 92.875 91.3125 C96.0775152 93.92226174 98.66402201 96.94980533 101.34375 100.08203125 C104.28111118 103.48355092 107.37409442 106.49655421 110.875 109.3125 C114.0775152 111.92226174 116.66402201 114.94980533 119.34375 118.08203125 C122.28111118 121.48355092 125.37409442 124.49655421 128.875 127.3125 C131.24904745 129.25098983 133.21230282 131.3230534 135.19438171 133.65994263 C138.95653706 138.00522965 142.94177365 142.07591278 147.01489258 146.12841797 C148.16740509 147.28114952 148.16740509 147.28114952 149.34320068 148.45716858 C151.8579452 150.9712221 154.37620283 153.48172443 156.89453125 155.9921875 C158.65115385 157.74694267 160.40755404 159.5019205 162.16374207 161.2571106 C166.76877359 165.85833955 171.3768003 170.45655732 175.98547363 175.05413818 C180.68679599 179.74520895 185.38526986 184.43912977 190.08398438 189.1328125 C198.89999478 197.93859741 207.71877086 206.74160618 216.53968525 215.54247856 C217.69376128 216.69434706 218.84702721 217.84702721 220 219 C121.66 219 23.32 219 -78 219 C-78.52270725 173.00176212 -79 127.00120771 -79 81 C-147.805 80.505 -147.805 80.505 -218 80 C-218 79.67 -218 79.34 -218 79 C-217.29339391 78.99761165 -216.58678782 78.99522329 -215.85876942 78.99276257 C-198.66579931 78.9336276 -181.47297973 78.85808723 -164.28016376 78.76428509 C-155.96584147 78.7193187 -147.65156209 78.67990601 -139.3371582 78.65356445 C-132.09035445 78.63059117 -124.84368642 78.59720071 -117.59699029 78.55129844 C-113.75986891 78.52735708 -109.92288201 78.50863433 -106.08568764 78.50238609 C-102.47328046 78.49633929 -98.86121741 78.47635451 -95.24893761 78.44572449 C-93.29258603 78.43275098 -91.33615409 78.43451531 -89.37976074 78.4367218 C-88.21173416 78.42418365 -87.04370758 78.41164551 -85.84028625 78.39872742 C-84.82723577 78.39411845 -83.81418528 78.38950949 -82.77043629 78.38476086 C-78.00232748 77.72256132 -74.8709401 75.12260713 -71.55143738 71.79194641 C-70.9135025 71.15676086 -70.27556763 70.52157532 -69.61830139 69.86714172 C-68.93497238 69.17662216 -68.25164337 68.4861026 -67.54760742 67.7746582 C-66.8153595 67.04270233 -66.08311157 66.31074646 -65.32867432 65.55661011 C-62.91616662 63.14271214 -60.51081523 60.72181338 -58.10546875 58.30078125 C-56.43153318 56.62311449 -54.7571547 54.94588954 -53.08235168 53.26908875 C-48.68030722 48.85941626 -44.28430258 44.44377011 -39.88952637 40.02685547 C-35.40198665 35.51883951 -30.90876412 31.01649565 -26.41601562 26.51367188 C-17.60510415 17.68132515 -8.80056261 8.84265755 0 0 Z " fill="#395987" transform="translate(360,1279)"/>
<path d="M0 0 C15.27591259 0 15.27591259 0 21.5625 1.125 C22.31007568 1.25624268 23.05765137 1.38748535 23.82788086 1.52270508 C39.49977082 4.4592589 53.82938651 9.78468763 68 17 C68.8146875 17.40734375 69.629375 17.8146875 70.46875 18.234375 C71.22671875 18.61335938 71.22671875 18.61335938 72 19 C72 19.66 72 20.32 72 21 C72.56460938 21.10183594 73.12921875 21.20367188 73.7109375 21.30859375 C81.66467255 23.71100178 89.97711328 31.42562612 96 37 C96 37.66 96 38.32 96 39 C97.32 39.66 98.64 40.32 100 41 C100 41.66 100 42.32 100 43 C101.32 43.66 102.64 44.32 104 45 C104 45.66 104 46.32 104 47 C104.66 47 105.32 47 106 47 C107.29345703 48.43017578 107.29345703 48.43017578 108.7578125 50.4453125 C109.29744629 51.18612061 109.83708008 51.92692871 110.39306641 52.69018555 C110.96460449 53.49367432 111.53614258 54.29716309 112.125 55.125 C112.70813965 55.9394458 113.2912793 56.7538916 113.89208984 57.59301758 C120.26150517 66.60768829 125.74394764 75.78778741 130 86 C130.39960937 86.8971875 130.79921875 87.794375 131.2109375 88.71875 C135.39941817 98.72612663 137.39347461 109.15006091 139.50683594 119.75439453 C139.99187777 122.15125575 139.99187777 122.15125575 141 125 C141.15855469 123.97003906 141.31710937 122.94007812 141.48046875 121.87890625 C145.31380494 98.02735096 153.40707724 77.02562987 167 57 C167.4429541 56.33661621 167.8859082 55.67323242 168.34228516 54.98974609 C169.50770034 53.28835088 170.748214 51.63889293 172 50 C172.66 50 173.32 50 174 50 C174.40412109 49.12408203 174.40412109 49.12408203 174.81640625 48.23046875 C185.96424797 27.22248979 215.46337415 13.23352686 237 6 C250.6220383 1.84558651 263.77657341 0 278 0 C278 46.2 278 92.4 278 140 C186.26 140 94.52 140 0 140 C0 93.8 0 47.6 0 0 Z " fill="#203A5C" transform="translate(791,1358)"/>
<path d="M0 0 C56.1 0 112.2 0 170 0 C170 40.00692419 156.35384272 77.33137227 131.29736328 108.36621094 C130.2362321 109.70250936 129.23228235 111.08403785 128.24609375 112.4765625 C127.83488281 112.97929688 127.42367187 113.48203125 127 114 C126.34 114 125.68 114 125 114 C125 114.66 125 115.32 125 116 C124.34 116 123.68 116 123 116 C123 116.66 123 117.32 123 118 C122.34 118 121.68 118 121 118 C120.01 119.98 120.01 119.98 119 122 C118.34 122 117.68 122 117 122 C116.505 123.485 116.505 123.485 116 125 C115.34 125 114.68 125 114 125 C114 125.66 114 126.32 114 127 C110.53846154 130 110.53846154 130 108 130 C108 130.66 108 131.32 108 132 C106.35 132.66 104.7 133.32 103 134 C103 134.66 103 135.32 103 136 C101.05078125 137.4453125 101.05078125 137.4453125 98.3125 139.125 C97.30316406 139.74632812 96.29382813 140.36765625 95.25390625 141.0078125 C94.18011719 141.66523438 93.10632813 142.32265625 92 143 C90.97777344 143.65742188 89.95554687 144.31484375 88.90234375 144.9921875 C62.25809582 161.96262546 31.48055701 170 0 170 C0 113.9 0 57.8 0 0 Z " fill="#476897" transform="translate(0,0)"/>
<path d="M0 0 C0.66 0 1.32 0 2 0 C2 46.2 2 92.4 2 140 C25.1 139.67 48.2 139.34 72 139 C72.99 131.575 72.99 131.575 74 124 C79.29107102 105.10331777 89.87256562 89.69153183 106.6875 79.25 C117.78662079 73.07584484 129.30590761 70 142 70 C142 93.1 142 116.2 142 140 C325.15 139.505 325.15 139.505 512 139 C512 116.89 512 94.78 512 72 C513 71 513 71 515.484375 70.98046875 C535.23571902 72.23264726 552.19330608 80.40580167 565.8125 94.8125 C573.53091217 103.87324472 578.12596535 113.48840961 581 125 C581.19851563 125.74378906 581.39703125 126.48757813 581.6015625 127.25390625 C582.21192647 131.46063051 582 135.74922676 582 140 C696.84 140 811.68 140 930 140 C930 140.33 930 140.66 930 141 C577.23 141 224.46 141 -139 141 C-135.17717441 136.54003681 -131.42214049 132.27851595 -127.27397156 128.16044617 C-126.45879672 127.34504804 -126.45879672 127.34504804 -125.62715369 126.51317722 C-123.82631125 124.71302294 -122.02193271 122.91645736 -120.2175293 121.11987305 C-118.91756773 119.82183279 -117.61783524 118.52356309 -116.3183136 117.2250824 C-113.53041603 114.44033471 -110.74097535 111.65714545 -107.9503231 108.87515831 C-103.5403659 104.47875708 -99.13425567 100.07851391 -94.72871399 95.6776886 C-85.38460366 86.34465794 -76.03625958 77.01587322 -66.6875 67.6875 C-56.57703377 57.59905157 -46.46729915 47.50987638 -36.36241657 37.41583472 C-31.97942898 33.03783895 -27.59401254 28.66229499 -23.20674264 24.28859079 C-20.4857178 21.57500161 -17.76674508 18.85936352 -15.04833794 16.14315224 C-13.7837772 14.88047029 -12.51834904 13.6186564 -11.25201035 12.35775757 C-9.52941409 10.64233146 -7.80988566 8.9238887 -6.09111023 7.20463562 C-5.33121081 6.45012864 -5.33121081 6.45012864 -4.55595988 5.68037909 C-1.94920152 3.08811981 -1.94920152 3.08811981 0 0 Z " fill="#FEFEFE" transform="translate(139,1359)"/>
<path d="M0 0 C27.79342664 0.25317899 58.11918544 12.34366202 79.9375 29.25 C79.9375 29.91 79.9375 30.57 79.9375 31.25 C80.51886719 31.51425781 81.10023438 31.77851562 81.69921875 32.05078125 C88.10628359 35.48353676 94.26316095 41.71382968 98.9375 47.25 C98.9375 47.91 98.9375 48.57 98.9375 49.25 C99.5975 49.25 100.2575 49.25 100.9375 49.25 C122.06529762 75.35887648 133.9375 106.62898911 133.9375 140.25 C87.7375 140.25 41.5375 140.25 -6.0625 140.25 C-6.68279657 89.61829268 -6.68279657 89.61829268 -6.8359375 75.2265625 C-6.84628399 74.25444447 -6.85663048 73.28232643 -6.8672905 72.28075027 C-7.04607229 55.29127766 -7.17333764 38.30299186 -7.1875 21.3125 C-7.18999756 20.25292084 -7.19249512 19.19334167 -7.19506836 18.10165405 C-7.20078891 15.20445188 -7.19959613 12.30735866 -7.1953125 9.41015625 C-7.19729645 8.5791037 -7.1992804 7.74805115 -7.20132446 6.89181519 C-7.17282459 0.11244186 -6.68369416 0.09042202 0 0 Z " fill="#203A5C" transform="translate(288.0625,1357.75)"/>
<path d="M0 0 C1.50298346 0.00138269 1.50298346 0.00138269 3.03633022 0.00279331 C4.17963582 0.00141582 5.32294142 0.00003832 6.50089264 -0.00138092 C7.77139182 0.00221719 9.041891 0.0058153 10.35089016 0.00952244 C11.71268587 0.00982856 13.07448175 0.00969565 14.43627739 0.00915718 C18.09515289 0.00893069 21.75399592 0.01474182 25.41286373 0.02176762 C28.84162916 0.02744721 32.27038654 0.0277299 35.69915676 0.02844334 C45.73793876 0.03369828 55.77671467 0.04765933 65.81548977 0.06054783 C99.44455227 0.09148533 99.44455227 0.09148533 133.75298977 0.12304783 C133.75298977 46.65304783 133.75298977 93.18304783 133.75298977 141.12304783 C122.13628382 142.28471842 122.13628382 142.28471842 115.75298977 140.99804783 C115.0329678 140.85971531 114.31294582 140.72138279 113.571105 140.57885838 C94.3008652 136.72481041 76.75141738 130.00759604 59.75298977 120.12304783 C59.75298977 119.46304783 59.75298977 118.80304783 59.75298977 118.12304783 C58.76298977 118.12304783 57.77298977 118.12304783 56.75298977 118.12304783 C56.75298977 117.46304783 56.75298977 116.80304783 56.75298977 116.12304783 C55.98986477 115.83429783 55.22673977 115.54554783 54.44048977 115.24804783 C51.75298977 114.12304783 51.75298977 114.12304783 48.75298977 112.12304783 C48.75298977 111.46304783 48.75298977 110.80304783 48.75298977 110.12304783 C48.15486477 109.83429783 47.55673977 109.54554783 46.94048977 109.24804783 C44.75298977 108.12304783 44.75298977 108.12304783 41.75298977 106.12304783 C41.75298977 105.46304783 41.75298977 104.80304783 41.75298977 104.12304783 C41.09298977 104.12304783 40.43298977 104.12304783 39.75298977 104.12304783 C39.75298977 103.46304783 39.75298977 102.80304783 39.75298977 102.12304783 C38.43298977 101.46304783 37.11298977 100.80304783 35.75298977 100.12304783 C35.75298977 99.46304783 35.75298977 98.80304783 35.75298977 98.12304783 C35.09298977 98.12304783 34.43298977 98.12304783 33.75298977 98.12304783 C31.93449734 96.05726456 30.23971433 93.98914482 28.56548977 91.81054783 C27.82238552 90.84931004 27.82238552 90.84931004 27.06426907 89.8686533 C7.97572546 64.9002537 -5.28148856 33.01648757 -3.24701023 1.12304783 C-2.24701023 0.12304783 -2.24701023 0.12304783 0 0 Z " fill="#466796" transform="translate(935.2470102310181,1216.8769521713257)"/>
<path d="M0 0 C0 46.2 0 92.4 0 140 C-4.19417649 140.69902942 -7.54353998 141.12423845 -11.6947937 141.12025452 C-12.80529587 141.12162918 -13.91579803 141.12300385 -15.05995178 141.12442017 C-16.26332687 141.12082489 -17.46670197 141.11722961 -18.70654297 141.11352539 C-20.62443382 141.11374443 -20.62443382 141.11374443 -22.58106995 141.1139679 C-26.07441906 141.11425402 -29.56773363 141.10838717 -33.06107473 141.10139394 C-36.7165875 141.09512963 -40.37210111 141.09455417 -44.02761841 141.09336853 C-50.94416462 141.09026428 -57.86069496 141.08206312 -64.7772342 141.07201904 C-72.65388391 141.06082975 -80.5305344 141.05534036 -88.40719008 141.05032361 C-104.60480267 141.03987974 -120.80239931 141.02229787 -137 141 C-137.01300621 138.26699299 -137.0225213 135.53404844 -137.0300293 132.80102539 C-137.0340551 132.03056129 -137.0380809 131.2600972 -137.0422287 130.46628571 C-137.10562214 99.69985149 -122.0016144 70.26853589 -103 47 C-102.43925781 46.20851563 -101.87851562 45.41703125 -101.30078125 44.6015625 C-100.87152344 44.07304688 -100.44226563 43.54453125 -100 43 C-99.34 43 -98.68 43 -98 43 C-98 42.34 -98 41.68 -98 41 C-97.34 41 -96.68 41 -96 41 C-95.34 39.68 -94.68 38.36 -94 37 C-93.34 37 -92.68 37 -92 37 C-92 36.34 -92 35.68 -92 35 C-87.52941176 31 -87.52941176 31 -85 31 C-85 30.34 -85 29.68 -85 29 C-82.84570712 27.3560148 -80.7029062 25.85288538 -78.4375 24.375 C-77.76001709 23.9305957 -77.08253418 23.48619141 -76.38452148 23.02832031 C-52.64276759 7.68555163 -28.37512411 0 0 0 Z " fill="#203A5C" transform="translate(1069,1077)"/>
<path d="M0 0 C45.21 0 90.42 0 137 0 C137 46.2 137 92.4 137 140 C132.14549058 135.83899192 127.56229389 131.74462765 123.0625 127.25 C122.47404297 126.67378906 121.88558594 126.09757812 121.27929688 125.50390625 C119.81239777 124.04211829 118.40088212 122.52517091 117 121 C117 120.34 117 119.68 117 119 C116.34 119 115.68 119 115 119 C115 118.34 115 117.68 115 117 C114.34 117 113.68 117 113 117 C113 116.34 113 115.68 113 115 C112.34 115 111.68 115 111 115 C111 114.34 111 113.68 111 113 C110.34 113 109.68 113 109 113 C109 112.34 109 111.68 109 111 C108.34 111 107.68 111 107 111 C107 110.34 107 109.68 107 109 C106.34 109 105.68 109 105 109 C103.67553711 107.64990234 103.67553711 107.64990234 102.08984375 105.7109375 C99.04871405 102.13285957 95.84715949 98.77066782 92.50390625 95.4765625 C92.02174652 95.00007263 91.53958679 94.52358276 91.04281616 94.03265381 C89.03762757 92.05449468 87.02825002 90.08068411 85.01489258 88.11083984 C83.52775618 86.65371557 82.04674995 85.19058243 80.56640625 83.7265625 C79.68927979 82.86627441 78.81215332 82.00598633 77.90844727 81.11962891 C76 79 76 79 76 77 C75.34 77 74.68 77 74 77 C74 76.34 74 75.68 74 75 C73.34 75 72.68 75 72 75 C72 74.34 72 73.68 72 73 C71.34 73 70.68 73 70 73 C70 72.34 70 71.68 70 71 C69.34 71 68.68 71 68 71 C68 70.34 68 69.68 68 69 C67.34 69 66.68 69 66 69 C66 68.34 66 67.68 66 67 C65.34 67 64.68 67 64 67 C62.60522461 65.57958984 62.60522461 65.57958984 60.96484375 63.5859375 C56.01549627 57.76272286 50.52639476 52.51266052 45.05664062 47.18359375 C44.27611328 46.41402344 43.49558594 45.64445312 42.69140625 44.8515625 C41.98185791 44.15885254 41.27230957 43.46614258 40.54125977 42.75244141 C39 41 39 41 39 39 C37.68 38.34 36.36 37.68 35 37 C35 36.34 35 35.68 35 35 C34.34 35 33.68 35 33 35 C33 34.34 33 33.68 33 33 C32.34 33 31.68 33 31 33 C31 32.34 31 31.68 31 31 C30.34 31 29.68 31 29 31 C29 30.34 29 29.68 29 29 C28.34 29 27.68 29 27 29 C27 28.34 27 27.68 27 27 C26.34 27 25.68 27 25 27 C25 26.34 25 25.68 25 25 C24.34 25 23.68 25 23 25 C23 24.34 23 23.68 23 23 C22.34 23 21.68 23 21 23 C19.765625 21.7421875 19.765625 21.7421875 18.25 19.875 C13.99734614 14.84254181 9.32411756 10.2705547 4.62402344 5.66162109 C4.02750977 5.0733252 3.43099609 4.4850293 2.81640625 3.87890625 C2.27443604 3.3485376 1.73246582 2.81816895 1.17407227 2.27172852 C0 1 0 1 0 0 Z " fill="#203A5C" transform="translate(932,0)"/>
<path d="M0 0 C6.54960437 5.36961492 10.29626835 12.68880584 11.5703125 20.99609375 C12.15114661 28.88786159 10.38355631 36.22380991 6.1875 42.9375 C5.713125 43.4325 5.23875 43.9275 4.75 44.4375 C4.09 44.4375 3.43 44.4375 2.75 44.4375 C2.75 45.0975 2.75 45.7575 2.75 46.4375 C2.09 46.4375 1.43 46.4375 0.75 46.4375 C0.75 47.0975 0.75 47.7575 0.75 48.4375 C-8.12421289 53.99008013 -15.80004678 56.00384966 -26.25 54.4375 C-31.08327226 52.75876803 -35.01828655 50.2586423 -39.25 47.4375 C-39.25 46.7775 -39.25 46.1175 -39.25 45.4375 C-40.24 45.1075 -41.23 44.7775 -42.25 44.4375 C-47.90862119 36.91505996 -50.08232048 28.25852644 -48.85546875 18.9921875 C-46.60111855 9.48028407 -40.98015026 2.92513502 -33.05859375 -2.4921875 C-22.98291393 -8.45490083 -9.37766998 -6.29337928 0 0 Z " fill="#476897" transform="translate(948.25,1333.5625)"/>
<path d="M0 0 C0 0.66 0 1.32 0 2 C0.99 2.33 1.98 2.66 3 3 C8.80997978 10.05180752 11.34635487 18.32184514 10.875 27.41015625 C9.47988533 35.65005228 4.95914552 42.73859532 -1.4375 48 C-5.19529802 50.6680366 -8.40865309 52.19450054 -13 53 C-13.76054687 53.14308594 -14.52109375 53.28617188 -15.3046875 53.43359375 C-23.517537 54.674476 -30.41350582 53.06945222 -37.25 48.3125 C-45.56736489 41.47377776 -49.25719088 33.68528207 -50.4375 23.0625 C-49.99707784 14.32452429 -46.1231993 7.07172663 -40.13671875 0.875 C-28.11126497 -9.67750057 -12.71056222 -8.47370815 0 0 Z " fill="#476897" transform="translate(465,1395)"/>
</svg>
