<svg width="950" height="901" viewBox="0 0 950 901" fill="none" xmlns="http://www.w3.org/2000/svg">
<rect width="950" height="900" fill="#395987"/>
<path d="M375.054 650.004L125.034 899.963H0L250.044 650.004H375.054Z" fill="#476897"/>
<path d="M266.001 650L516.021 899.959H641.055L391.011 650H266.001Z" fill="#476897"/>
<path d="M125.034 774.984H0V899.964H125.034V774.984Z" fill="#203A5C"/>
<path d="M828 650C828.006 616.846 840.863 585.052 863.741 561.61C886.62 538.169 917.648 525 950 525V525V650H828Z" fill="#203A5C"/>
<path d="M703 899.966V774.938C719.417 774.938 735.672 778.17 750.839 784.451C766.006 790.732 779.787 799.938 791.395 811.543C803.004 823.149 812.212 836.926 818.494 852.089C824.776 867.253 828.01 883.504 828.01 899.917H703V899.966Z" fill="#203A5C"/>
<path d="M949.976 900V775C933.958 775 918.097 778.232 903.298 784.511C888.499 790.791 875.053 799.995 863.726 811.597C852.399 823.2 843.415 836.975 837.285 852.135C831.155 867.294 828 883.543 828 899.952H950L949.976 900Z" fill="#203A5C"/>
<path d="M828 650H950V775C917.654 775.006 886.63 761.841 863.751 738.4C840.872 714.958 828.013 683.161 828 650V650Z" fill="#476897"/>
<path d="M250.068 774.983H0V525L250.068 774.983Z" fill="#203A5C"/>
<path d="M826.073 748.297C822.564 748.281 819.087 748.958 815.841 750.29C812.595 751.621 809.644 753.58 807.158 756.055C804.671 758.529 802.698 761.471 801.352 764.71C800.006 767.949 799.312 771.422 799.313 774.93V774.93C799.313 778.443 800.005 781.922 801.349 785.168C802.694 788.414 804.665 791.363 807.15 793.847C809.635 796.332 812.585 798.302 815.832 799.647C819.079 800.991 822.559 801.683 826.073 801.683V801.683C829.587 801.683 833.067 800.991 836.313 799.647C839.56 798.302 842.51 796.332 844.995 793.847C847.48 791.363 849.451 788.414 850.796 785.168C852.141 781.922 852.833 778.443 852.833 774.93C852.833 771.422 852.14 767.949 850.794 764.71C849.447 761.471 847.474 758.529 844.988 756.055C842.501 753.58 839.55 751.621 836.304 750.29C833.058 748.958 829.581 748.281 826.073 748.297V748.297Z" fill="#476897"/>
<path d="M250 900.028V775C266.417 775 282.672 778.233 297.839 784.514C313.006 790.794 326.787 800 338.395 811.606C350.004 823.211 359.212 836.989 365.494 852.152C371.776 867.315 375.01 883.567 375.01 899.98H250V900.028Z" fill="#203A5C"/>
<path d="M250.034 775.047H125V900.026H250.034V775.047Z" fill="#476897"/>
<path d="M703.034 775H578V899.98H703.034V775Z" fill="#476897"/>
<path d="M395.76 802C392.252 801.984 388.775 802.661 385.529 803.993C382.283 805.324 379.332 807.283 376.845 809.758C374.359 812.233 372.386 815.174 371.039 818.413C369.693 821.652 369 825.125 369 828.633V828.633C369 832.146 369.692 835.625 371.037 838.871C372.382 842.117 374.353 845.066 376.838 847.551C379.323 850.035 382.273 852.006 385.52 853.35C388.766 854.695 392.246 855.387 395.76 855.387V855.387C399.274 855.387 402.754 854.695 406.001 853.35C409.248 852.006 412.198 850.035 414.682 847.551C417.167 845.066 419.139 842.117 420.483 838.871C421.828 835.625 422.52 832.146 422.52 828.633C422.52 825.125 421.827 821.652 420.481 818.413C419.135 815.174 417.162 812.233 414.675 809.758C412.189 807.283 409.238 805.324 405.992 803.993C402.746 802.661 399.269 801.984 395.76 802V802Z" fill="#476897"/>
<path d="M0 150.883V0H151C151 40.0477 135.094 78.4551 106.782 106.773C78.4692 135.091 40.0692 151 0.0292528 151L0 150.883Z" fill="#476897"/>
<path d="M125.034 774.984V899.964H0.0244141L125.034 774.984Z" fill="white"/>
<path d="M249.536 899.521V838C241.454 837.997 233.451 839.586 225.984 842.676C218.516 845.767 211.731 850.299 206.016 856.012C200.302 861.725 195.769 868.509 192.678 875.974C189.586 883.44 187.997 891.441 188 899.521H249.536Z" fill="white"/>
<path d="M579 898.521V837C587.082 836.997 595.085 838.586 602.553 841.676C610.02 844.767 616.805 849.299 622.52 855.012C628.234 860.725 632.767 867.509 635.858 874.974C638.95 882.44 640.539 890.441 640.536 898.521H579Z" fill="white"/>
<path d="M950 0V125L828 0H950Z" fill="#203A5C"/>
</svg>
