<svg id="Layer_1" data-name="Layer 1" xmlns="http://www.w3.org/2000/svg" viewBox="0 0 100.95 29.65"><defs><style>.cls-1,.cls-2{fill:#fff;}.cls-2{fill-rule:evenodd;}</style></defs><title>medlink white</title><path class="cls-1" d="M290,430.2v-.12h.38v-2.87H290v-.12h1.27v.12h-.42v2.87h.64a.74.74,0,0,0,.52-.16,1.24,1.24,0,0,0,.27-.6h.09l-.05.88Z" transform="translate(-247.02 -405.38)"/><path class="cls-1" d="M292.62,430.2v-.12H293v-2.87h-.35v-.12h2.31v.75h-.1a.77.77,0,0,0-.22-.49,1,1,0,0,0-.58-.14h-.59v1.32h.1a.69.69,0,0,0,.43-.11.62.62,0,0,0,.15-.39h.1v1.17h-.1a.59.59,0,0,0-.16-.43.72.72,0,0,0-.49-.13h0v1.44h.66a.83.83,0,0,0,.57-.16,1.12,1.12,0,0,0,.27-.6h.1l-.05.88Z" transform="translate(-247.02 -405.38)"/><path class="cls-1" d="M295.93,430.2v-.12h.4v-2.87h-.16a.66.66,0,0,0-.49.16,1.3,1.3,0,0,0-.25.62h-.11l.05-.9h2.39l0,.9h-.11a1.09,1.09,0,0,0-.23-.6.71.71,0,0,0-.53-.18h-.13v2.87h.39v.12Z" transform="translate(-247.02 -405.38)"/><path class="cls-1" d="M298.13,430.21h-.08v-.81h.09a1.09,1.09,0,0,0,.35.54.84.84,0,0,0,.54.2.79.79,0,0,0,.56-.21.68.68,0,0,0,.23-.51c0-.24-.23-.43-.7-.58l-.08,0a2.1,2.1,0,0,1-.79-.39.73.73,0,0,1-.2-.54.86.86,0,0,1,.25-.63A.92.92,0,0,1,299,427a1,1,0,0,1,.56.17l.06,0h0l0,0,.09-.11h.1v.71h-.08a1,1,0,0,0-.32-.49.77.77,0,0,0-.5-.16.64.64,0,0,0-.45.16.49.49,0,0,0-.19.38.37.37,0,0,0,.15.31,1.16,1.16,0,0,0,.46.21l.14,0a2.16,2.16,0,0,1,.71.27.8.8,0,0,1,.23.29,1,1,0,0,1,.08.4,1,1,0,0,1-.29.77,1,1,0,0,1-.77.29,1.16,1.16,0,0,1-.62-.19l-.05,0h0s0,0,0,0Z" transform="translate(-247.02 -405.38)"/><path class="cls-1" d="M304.37,429.1h1.24v.12h-.28a1,1,0,0,1-.32.78,1.32,1.32,0,0,1-.89.28,1.25,1.25,0,0,1-1-.44,1.74,1.74,0,0,1-.37-1.15,1.91,1.91,0,0,1,.11-.64,1.78,1.78,0,0,1,.3-.54,1.31,1.31,0,0,1,.45-.35,1.25,1.25,0,0,1,.54-.12,1.4,1.4,0,0,1,.41.06,1.55,1.55,0,0,1,.36.19l.17-.16h.07v.79h-.1a1.07,1.07,0,0,0-.32-.56.84.84,0,0,0-.57-.21.72.72,0,0,0-.67.38,2.46,2.46,0,0,0-.21,1.17,2.37,2.37,0,0,0,.19,1.12.64.64,0,0,0,.62.34.67.67,0,0,0,.54-.2,1,1,0,0,0,.16-.64v-.1h-.44Z" transform="translate(-247.02 -405.38)"/><path class="cls-1" d="M305.86,430.2v-.12h.35v-2.87h-.35v-.12h2.31v.75h-.1a.77.77,0,0,0-.22-.49,1,1,0,0,0-.58-.14h-.59v1.32h.1a.69.69,0,0,0,.43-.11.62.62,0,0,0,.15-.39h.1v1.17h-.1a.59.59,0,0,0-.16-.43.72.72,0,0,0-.49-.13h0v1.44h.66a.83.83,0,0,0,.57-.16,1.12,1.12,0,0,0,.27-.6h.1l0,.88Z" transform="translate(-247.02 -405.38)"/><path class="cls-1" d="M309.18,430.2v-.12h.39v-2.87h-.16a.66.66,0,0,0-.49.16,1.3,1.3,0,0,0-.25.62h-.1l0-.9H311l0,.9h-.11a1.09,1.09,0,0,0-.23-.6.71.71,0,0,0-.53-.18H310v2.87h.39v.12Z" transform="translate(-247.02 -405.38)"/><path class="cls-1" d="M313.65,430.08H314v-2.87h-.35v-.12H315a1.51,1.51,0,0,1,.8.18.59.59,0,0,1,.28.51.65.65,0,0,1-.25.52,1.26,1.26,0,0,1-.7.22v0a1.19,1.19,0,0,1,.56.24.73.73,0,0,1,.25.44,3.38,3.38,0,0,1,0,.39,1.62,1.62,0,0,0,0,.34.25.25,0,0,0,.09.13.33.33,0,0,0,.15,0h.12l.12-.05v.12l-.22.08-.21,0a.49.49,0,0,1-.44-.23,1.53,1.53,0,0,1-.17-.73v0a.76.76,0,0,0-.15-.5.63.63,0,0,0-.23-.16.72.72,0,0,0-.29-.06h-.28v1.51h.36v.12h-1.19Zm.83-1.63h.28a1.08,1.08,0,0,0,.64-.14.66.66,0,0,0,.16-.5.63.63,0,0,0-.14-.47.77.77,0,0,0-.53-.13h-.41Z" transform="translate(-247.02 -405.38)"/><path class="cls-1" d="M316.78,430.2v-.12h.35v-2.87h-.35v-.12h2.31v.75H319a.77.77,0,0,0-.22-.49,1,1,0,0,0-.58-.14h-.59v1.32h.1a.69.69,0,0,0,.43-.11.62.62,0,0,0,.15-.39h.1v1.17h-.1a.64.64,0,0,0-.16-.43.72.72,0,0,0-.49-.13h0v1.44h.66a.83.83,0,0,0,.57-.16,1.12,1.12,0,0,0,.27-.6h.1l-.05.88Z" transform="translate(-247.02 -405.38)"/><path class="cls-1" d="M321.88,429.37H322v.83h-.1l-.15-.14a1,1,0,0,1-.33.16,1.33,1.33,0,0,1-.42.06,1.16,1.16,0,0,1-1-.45,1.67,1.67,0,0,1-.37-1.13,2.08,2.08,0,0,1,.09-.63,1.92,1.92,0,0,1,.28-.53,1.37,1.37,0,0,1,.46-.37A1.2,1.2,0,0,1,321,427a1,1,0,0,1,.35.06,1.12,1.12,0,0,1,.33.19l.16-.16h.07v.79h-.1a1.2,1.2,0,0,0-.31-.57.75.75,0,0,0-.52-.2.66.66,0,0,0-.63.39,3,3,0,0,0-.2,1.26,4.9,4.9,0,0,0,0,.64,1.06,1.06,0,0,0,.13.37.72.72,0,0,0,.26.26.7.7,0,0,0,.35.09.86.86,0,0,0,.57-.2,1.23,1.23,0,0,0,.35-.59" transform="translate(-247.02 -405.38)"/><path class="cls-1" d="M322.46,430.08h.37v-2.87h-.35v-.12h1.31a1.46,1.46,0,0,1,.8.18.57.57,0,0,1,.29.51.64.64,0,0,1-.26.52,1.26,1.26,0,0,1-.69.22v0a1.11,1.11,0,0,1,.55.24.69.69,0,0,1,.25.44,1.85,1.85,0,0,1,0,.39,1.14,1.14,0,0,0,0,.34.25.25,0,0,0,.09.13.28.28,0,0,0,.15,0h.11l.13-.05v.12l-.23.08-.2,0a.48.48,0,0,1-.44-.23,1.42,1.42,0,0,1-.17-.73v0a.76.76,0,0,0-.14-.5.63.63,0,0,0-.23-.16.77.77,0,0,0-.3-.06h-.27v1.51h.36v.12h-1.19Zm.83-1.63h.27a1.06,1.06,0,0,0,.64-.14.89.89,0,0,0,0-1,.79.79,0,0,0-.54-.13h-.4Z" transform="translate(-247.02 -405.38)"/><path class="cls-1" d="M325.93,429.41v-2.2h-.36v-.12h1.17v.12h-.36v2.18a.82.82,0,0,0,.17.55.66.66,0,0,0,.49.18.69.69,0,0,0,.57-.23,1,1,0,0,0,.19-.68v-2h-.35v-.12h.85v.12h-.36v2a1.09,1.09,0,0,1-.25.79,1.06,1.06,0,0,1-.78.26,1,1,0,0,1-.71-.23.8.8,0,0,1-.27-.64" transform="translate(-247.02 -405.38)"/><polygon class="cls-1" points="81.61 24.82 81.61 24.7 82 24.7 82 21.83 81.61 21.83 81.61 21.71 82.87 21.71 82.87 21.83 82.47 21.83 82.47 24.7 82.87 24.7 82.87 24.82 81.61 24.82"/><path class="cls-1" d="M330.71,430.2v-.12h.39v-2.87h-.16a.66.66,0,0,0-.49.16,1.3,1.3,0,0,0-.25.62h-.1l0-.9h2.4l0,.9h-.1a1.09,1.09,0,0,0-.24-.6.71.71,0,0,0-.53-.18h-.13v2.87H332v.12Z" transform="translate(-247.02 -405.38)"/><path class="cls-1" d="M332.83,430.2v-.12h.35v-2.87h-.35v-.12h2.31v.75H335a.73.73,0,0,0-.22-.49,1,1,0,0,0-.58-.14h-.58v1.32h.09a.67.67,0,0,0,.43-.11.52.52,0,0,0,.15-.39h.1v1.17h-.1a.55.55,0,0,0-.16-.43.7.7,0,0,0-.49-.13h0v1.44h.66a.81.81,0,0,0,.56-.16,1.12,1.12,0,0,0,.27-.6h.11l-.05.88Z" transform="translate(-247.02 -405.38)"/><path class="cls-1" d="M336,430.08v-2.87h-.35v-.12h1.14a1.55,1.55,0,0,1,1.15.4,1.5,1.5,0,0,1,.41,1.12,1.86,1.86,0,0,1-.15.77,1.46,1.46,0,0,1-.44.57,1.18,1.18,0,0,1-.39.19,2.09,2.09,0,0,1-.53.06h-1.19v-.12Zm.48-2.87v2.87h.33a1.34,1.34,0,0,0,.42-.05.62.62,0,0,0,.29-.15.78.78,0,0,0,.24-.38,3.86,3.86,0,0,0,.07-.87,3.73,3.73,0,0,0-.06-.8.86.86,0,0,0-.2-.38.83.83,0,0,0-.32-.18,1.56,1.56,0,0,0-.48-.06Z" transform="translate(-247.02 -405.38)"/><polygon class="cls-1" points="26.71 19.56 26.71 19.02 28.26 19.02 28.26 5.9 26.71 5.9 26.71 5.36 30.99 5.36 33.99 15.86 37.19 5.36 41.36 5.36 41.36 5.9 39.69 5.9 39.69 19.02 41.36 19.02 41.36 19.56 36.06 19.56 36.06 19.02 37.66 19.02 37.66 6.09 37.58 6.09 33.47 19.56 32.93 19.56 29.1 6.09 28.93 6.09 28.93 19.02 30.53 19.02 30.53 19.56 26.71 19.56"/><path class="cls-1" d="M292.14,419.56h4v-.21a3.22,3.22,0,0,0-.43-1.89,1.67,1.67,0,0,0-1.42-.58,1.89,1.89,0,0,0-1.56.67,3.57,3.57,0,0,0-.63,2m-.06.6v.63a5.86,5.86,0,0,0,.55,3,2.13,2.13,0,0,0,1.92.85,3.14,3.14,0,0,0,2-.62,3.1,3.1,0,0,0,1.1-1.74h.48a3.63,3.63,0,0,1-1.27,2.17,4.05,4.05,0,0,1-2.54.73,4.12,4.12,0,0,1-3-1.2,4,4,0,0,1-1.21-2.94,4.55,4.55,0,0,1,1.24-3.23,4,4,0,0,1,3-1.32,3.64,3.64,0,0,1,2.65.94,4.16,4.16,0,0,1,1.13,2.73Z" transform="translate(-247.02 -405.38)"/><path class="cls-1" d="M307.79,410.53v13.91H309v.5c-.64,0-1.18,0-1.62.05a11.28,11.28,0,0,0-1.18.16v-1.53a3.08,3.08,0,0,1-1.15,1.17,3.13,3.13,0,0,1-1.58.41,3.62,3.62,0,0,1-2.79-1.26,4.45,4.45,0,0,1-1.14-3.11,4.37,4.37,0,0,1,1.14-3.07,3.67,3.67,0,0,1,2.81-1.25,3.09,3.09,0,0,1,1.62.41,2.61,2.61,0,0,1,1,1.2v-6.94h-1.4v-.44h.35c.45,0,.9,0,1.35-.05s.92-.09,1.39-.16m-1.67,11.88v-2.89a2.42,2.42,0,0,0-.75-1.77,2.39,2.39,0,0,0-1.77-.76,1.75,1.75,0,0,0-1.65.86,6.35,6.35,0,0,0-.49,2.94,6.5,6.5,0,0,0,.51,3,1.78,1.78,0,0,0,1.69.88,2.4,2.4,0,0,0,1.7-.72A2.15,2.15,0,0,0,306.12,422.41Z" transform="translate(-247.02 -405.38)"/><path class="cls-1" d="M310.21,424.94v-.54H312V411.28h-1.69v-.54h5.8v.54h-1.95V424.4h2.92a3.41,3.41,0,0,0,2.38-.73,5.6,5.6,0,0,0,1.25-2.73h.41l-.24,4Z" transform="translate(-247.02 -405.38)"/><path class="cls-1" d="M322.05,424.94v-.5h1.45v-7.3h-1.36v-.45h.41c.45,0,.9,0,1.35-.05s.86-.09,1.26-.15v7.95h1.25v.5Zm1.27-12.66a1,1,0,0,1,.32-.75,1.07,1.07,0,0,1,1.82.75,1,1,0,0,1-.31.76,1.05,1.05,0,0,1-1.51,0A1.05,1.05,0,0,1,323.32,412.28Z" transform="translate(-247.02 -405.38)"/><path class="cls-1" d="M327.94,424.94v-.5h1.15v-7.3h-1.17v-.45h.39c.44,0,.86,0,1.26-.05s.79-.09,1.15-.15v2.4A4,4,0,0,1,332,417.1a3,3,0,0,1,1.92-.61,2.45,2.45,0,0,1,1.76.6,2.21,2.21,0,0,1,.64,1.68v5.67h1.12v.5h-4v-.5h1.23v-5.73a1.83,1.83,0,0,0-.32-1.2,1.26,1.26,0,0,0-1-.39,2.23,2.23,0,0,0-1.81,1,4.28,4.28,0,0,0-.76,2.55v3.73h1.15v.5Z" transform="translate(-247.02 -405.38)"/><path class="cls-1" d="M339.77,424.44V411.18h-1.13v-.44l1.21-.08,1.59-.13v13.91h1.21v.5h-4.08v-.5Zm1.75-4.24,3.67-3h-1.42v-.47h3.54v.47H346L343,419.62l4.08,4.82H348v.5h-4.09v-.5H345Z" transform="translate(-247.02 -405.38)"/><path class="cls-2" d="M251.79,416.56c0,2.35,1.28,1.47,1.78,2.55.09.19.14.39.26.63a13.63,13.63,0,0,0,3.63,4.57c-.62.33-.94.69-1.58,1a14.69,14.69,0,0,0-7.07,5.89,17.48,17.48,0,0,0-1.79,3.43h1.2a15.87,15.87,0,0,1,2.72-4.57c.76-.89,2.94-2.9,4.13-3.17-1.2,2.27-.49,3.87-.82,4.69s-.67.22-.67,1.56c0,1.72,3.28,2.42,3.28-.29a1.12,1.12,0,0,0-.33-.87c-.56-.68-1-.33-1.14-1.4s.57-4.23,1.92-4.59a9.41,9.41,0,0,0-.45,1.94,3.51,3.51,0,0,0,3.31,3.53,3.61,3.61,0,0,0,3.55-3.38c0-.74-.43-1.25-.45-2.09.66.35.7.35,1.05,1a4.43,4.43,0,0,1,.59,1.64c-2.2.52-1.47,2.7-2.38,3.89-.08.1-.09.05-.19.25a1,1,0,1,0,1.82.33c0-.64-.4,0-.25-1.12.55-4.11,4.44-2.82,3.85.09-.19.94-.11.87-.49,1.32-1.43,1.66,1.66,2.33,1.66.76,0-1.15-.51.2-.07-2.32a3,3,0,0,0-2.11-3.4c-1.49-.38-.31.46-1.4-1.58,1.09.29,3.32,2.39,4.06,3.24a20.73,20.73,0,0,1,2.8,4.5h1c-.69-3-4.1-6.69-6.94-8.41a12.59,12.59,0,0,0-1.7-.82c-.62-.29-1.06-.89-1.64-1.05a12.31,12.31,0,0,0,3.68-4.52c.92-2,.64-.77,1.58-1.69,1.41-1.39-.28-2.72-.31-2.76-.68-1,1.29-9.95-6.89-9.95-2,0-3.62-.11-5.4,1-2.07,1.3-2.77,3.9-2.79,6.44,0,3.9-1.05,2.15-1.05,3.72m1.94-2.23c0-2.35.13-4.36,1.07-5.79a5.32,5.32,0,0,1,4.59-2.11c2.92,0,1.77,0,4.33.6l-.75.44c.11,1.28.55,2.31-.14,3.44-.58.93-1.7,1.06-2.88,1.29C256.72,412.85,256.43,412.52,253.73,414.33Zm6.26,10a7.2,7.2,0,0,1-2.79-1.53,12.36,12.36,0,0,1-3.37-6.33c-.11-.73.53-1.34,1.15-1.76,1.71-1.17,4.49-1.27,6.68-1.82,2.39-.59,3-2.92,2.35-5.55,2.46.66,2.54,6,2.54,7.9C266.55,419.24,263.08,424.31,260,424.31Zm-7.15-8.19c0,.79.13.83.15,1.49a.87.87,0,0,1-.45-.9C252.54,416.37,252.52,416.48,252.84,416.12Zm14.6,1.63c.08-.35.1-.42.18-.86l.27-.77C268.17,417.31,268.12,417.18,267.44,417.75Zm-9.54,10.44c0-1.14.72-2.16.75-3.28,1.8.86,2.29.17,3.28.15.13,1.6,1.58,3,0,4.59a2.19,2.19,0,0,1-1.61.74,2.91,2.91,0,0,1-1.68-.67A2.94,2.94,0,0,1,257.9,428.19Zm-3.28,4.91c0-1.06,1-.63,1.2-.59,0,.55.13,1-.45,1S254.62,433.33,254.62,433.1Z" transform="translate(-247.02 -405.38)"/><polygon class="cls-1" points="98.94 7.02 98.67 7.02 98.67 5.82 98.29 5.82 98.29 5.6 99.32 5.6 99.32 5.82 98.94 5.82 98.94 7.02"/><polygon class="cls-1" points="100.86 7.02 100.6 7.02 100.6 5.78 100.21 7.02 100.08 7.02 99.68 5.78 99.68 7.02 99.47 7.02 99.47 5.6 99.87 5.6 100.17 6.52 100.46 5.6 100.86 5.6 100.86 7.02"/></svg>