<svg width="525" height="373" viewBox="0 0 525 373" fill="none" xmlns="http://www.w3.org/2000/svg">
<g clip-path="url(#clip0_5488_43521)">
<path d="M37.3185 371.272C37.3185 371.272 -27.5472 302.735 13.7631 222.149C55.0734 141.564 110.503 182.111 107.852 88.2872C105.201 -5.53615 235.399 -13.5657 276.831 13.6536C318.263 40.873 321.921 58.4037 407.473 47.5923C493.026 36.7808 532.818 116.64 504.701 172.051C471.86 236.772 570.786 243.042 495.618 371.434L37.3185 371.272Z" fill="#EBF3FA"/>
<g opacity="0.4">
<path d="M485.557 130.36C485.559 134.439 485.195 138.51 484.468 142.523C482.778 151.811 479.15 160.638 473.821 168.428C461.672 186.212 441.247 197.882 418.099 197.882C390.562 197.882 366.878 181.372 356.396 157.697C355.002 154.554 353.852 151.307 352.959 147.987C350.156 137.537 349.884 126.569 352.166 115.993C352.166 115.938 352.188 115.888 352.199 115.834C355.772 99.6716 365.141 85.3812 378.531 75.6663C379.917 74.6591 381.348 73.7042 382.812 72.8037C393.421 66.2662 405.64 62.8147 418.099 62.836C419.813 62.836 421.512 62.9 423.196 63.0279C435.197 63.9172 446.738 68.0228 456.608 74.9141C464.002 80.0675 470.294 86.6464 475.114 94.2653C476.147 95.8989 477.112 97.5777 478.009 99.3015C482.984 108.9 485.573 119.558 485.557 130.371V130.36Z" fill="#D7E5FF"/>
<path d="M395.176 100.135C392.483 104.404 396.3 111.814 388.225 109.793C380.15 107.772 375.212 106.872 374.764 111.363C374.315 115.854 380.821 115.854 380.821 120.57C380.821 125.286 377.902 126.844 373.415 124.605C368.928 122.366 367.638 119.109 362.422 121.13C357.205 123.151 354.177 121.804 352.999 117.762C352.821 117.13 352.538 116.532 352.162 115.994C352.162 115.939 352.184 115.889 352.195 115.835C355.769 99.6726 365.137 85.3822 378.528 75.6672C379.913 74.66 381.344 73.7051 382.808 72.8047C384.91 72.881 387.426 73.6768 389.56 76.3344C394.27 82.175 397.402 79.2536 396.289 85.9903C395.176 92.727 396.962 93.6209 400.776 93.4029C404.59 93.1849 409.077 93.1849 409.524 96.0976C409.97 99.0103 397.875 95.8686 395.176 100.135Z" fill="#AEC3FF"/>
<path d="M423.106 140.551C423.106 140.551 417.162 142.459 415.591 138.306C414.021 134.152 415.809 133.254 410.544 132.018C405.28 130.782 404.822 127.191 401.457 127.64C398.091 128.089 399.775 129.437 395.85 132.356C391.925 135.275 388.333 133.928 388.444 139.315C388.555 144.702 394.388 145.548 395.567 149.084C396.745 152.62 394.726 154.136 397.248 156.83C399.771 159.525 404.484 158.346 402.298 162.05C400.111 165.754 396.745 168.619 398.427 174.344C400.108 180.069 398.932 180.407 401.792 184.449C404.652 188.491 410.205 189.838 411.045 187.143C411.886 184.449 407.177 180.912 408.691 178.218C410.205 175.523 412.729 177.376 413.738 173.334C414.746 169.292 418.841 169.292 419.183 166.486C419.525 163.68 414.247 159.412 416.267 157.615C418.286 155.819 422.324 160.872 425.465 156.381C428.606 151.89 426.474 148.297 429.726 144.031C432.978 139.764 425.35 138.085 423.106 140.551Z" fill="#AEC3FF"/>
<path d="M485.556 130.36C485.558 134.438 485.194 138.509 484.467 142.523C482.777 151.811 479.149 160.638 473.82 168.427C472.063 169.031 470.148 168.979 468.426 168.281C460.014 164.913 466.248 155.82 469.605 151.276C472.962 146.733 464.377 148.751 458.163 144.542C451.948 140.332 458.836 129.047 452.442 130.9C446.049 132.753 438.308 135.11 434.607 128.879C430.906 122.648 437.972 121.637 434.775 116.417C431.577 111.198 436.626 108.166 443.019 107.66C449.413 107.154 448.572 102.608 456.481 101.935C464.39 101.261 464.22 111.366 472.97 110.692C481.72 110.019 481.326 112.04 481.326 112.04C481.956 112.024 482.581 112.155 483.151 112.423C484.752 118.267 485.561 124.3 485.556 130.36Z" fill="#AEC3FF"/>
<path d="M478.01 99.2905C470.734 102.833 467.813 93.1969 461.594 96.0944C455.325 99.0136 456.421 93.3997 451.487 89.8046C446.554 86.2095 436.675 92.726 437.128 87.1099C437.581 81.4938 444.981 83.0679 446.551 78.5789C448.122 74.09 455.301 75.2106 455.301 75.2106C455.721 75.0524 456.161 74.9527 456.608 74.9141C464.002 80.0674 470.294 86.6464 475.115 94.2652C476.147 95.8916 477.112 97.5667 478.01 99.2905Z" fill="#AEC3FF"/>
<path d="M416.713 79.9246C416.713 79.9246 420.527 74.4175 414.469 72.7911C408.412 71.1647 408.525 73.2947 403.813 72.7911C399.102 72.2875 397.25 75.9393 400.783 79.9246C404.317 83.91 407.179 91.558 410.368 87.4811C413.557 83.4042 412.955 80.3105 416.713 79.9246Z" fill="#AEC3FF"/>
</g>
<path d="M442.293 120.117V330.285C442.293 333.961 439.642 336.943 436.37 336.943H133.399C130.132 336.943 127.479 333.961 127.479 330.285V120.117C127.479 116.437 130.129 113.457 133.399 113.457H436.37C439.642 113.451 442.293 116.437 442.293 120.117Z" fill="#395987"/>
<path d="M442.293 119.384V135.251H127.479V119.384C127.477 118.605 127.63 117.833 127.927 117.113C128.224 116.393 128.66 115.739 129.209 115.188C129.759 114.637 130.412 114.199 131.131 113.901C131.85 113.603 132.621 113.449 133.399 113.449H436.37C437.148 113.449 437.919 113.602 438.638 113.9C439.358 114.199 440.011 114.636 440.561 115.187C441.111 115.738 441.547 116.393 441.844 117.113C442.142 117.833 442.294 118.605 442.293 119.384Z" fill="#476897"/>
<path d="M137.109 124.35C137.109 123.804 137.271 123.27 137.574 122.816C137.877 122.362 138.308 122.009 138.812 121.8C139.316 121.591 139.871 121.536 140.406 121.643C140.941 121.75 141.432 122.013 141.818 122.399C142.203 122.785 142.466 123.277 142.572 123.813C142.678 124.348 142.623 124.903 142.414 125.408C142.205 125.912 141.851 126.343 141.398 126.646C140.944 126.949 140.41 127.11 139.865 127.11C139.503 127.11 139.144 127.039 138.81 126.9C138.475 126.761 138.172 126.558 137.916 126.301C137.66 126.045 137.457 125.741 137.319 125.406C137.18 125.071 137.109 124.712 137.109 124.35Z" fill="#DFEBFD"/>
<path d="M147.973 124.35C147.973 123.804 148.134 123.27 148.437 122.817C148.74 122.363 149.171 122.009 149.675 121.8C150.179 121.591 150.733 121.536 151.268 121.643C151.803 121.749 152.295 122.012 152.68 122.398C153.066 122.784 153.329 123.276 153.435 123.811C153.541 124.347 153.487 124.902 153.278 125.406C153.069 125.911 152.716 126.342 152.262 126.645C151.809 126.948 151.276 127.11 150.73 127.11C149.999 127.11 149.298 126.819 148.78 126.302C148.263 125.784 147.973 125.082 147.973 124.35Z" fill="#DFEBFD"/>
<path d="M159.109 124.35C159.109 123.804 159.271 123.27 159.574 122.817C159.877 122.363 160.308 122.009 160.812 121.8C161.316 121.591 161.87 121.536 162.405 121.643C162.94 121.749 163.431 122.012 163.817 122.398C164.203 122.784 164.465 123.276 164.572 123.811C164.678 124.347 164.623 124.902 164.415 125.406C164.206 125.911 163.853 126.342 163.399 126.645C162.946 126.948 162.412 127.11 161.867 127.11C161.136 127.11 160.434 126.819 159.917 126.302C159.4 125.784 159.109 125.082 159.109 124.35Z" fill="#DFEBFD"/>
<path opacity="0.5" d="M330.076 271.52H296.873V304.752H330.076V271.52Z" fill="#EBF3FA"/>
<path d="M299.365 300.958L309.172 283.262L316.384 293.105L319.984 289.166L327.615 300.958H299.365Z" fill="#739AF0"/>
<path d="M313.848 280.72C313.848 280.217 313.996 279.726 314.275 279.308C314.554 278.891 314.951 278.565 315.414 278.373C315.878 278.181 316.388 278.13 316.88 278.228C317.373 278.326 317.825 278.568 318.18 278.924C318.535 279.279 318.776 279.731 318.874 280.224C318.972 280.717 318.922 281.227 318.73 281.692C318.538 282.156 318.212 282.552 317.795 282.831C317.378 283.111 316.887 283.259 316.385 283.259C315.712 283.259 315.067 282.991 314.592 282.515C314.116 282.039 313.848 281.393 313.848 280.72Z" fill="#739AF0"/>
<path opacity="0.5" d="M379.659 210.688H296.873V258.714H379.659V210.688Z" fill="#EBF3FA"/>
<path d="M328.922 222.395V247.002L347.605 234.699L328.922 222.395Z" fill="#739AF0"/>
<path d="M417.533 174.931C417.542 180.132 415.515 185.129 411.885 188.851C410.123 190.676 408.014 192.128 405.681 193.122C403.348 194.116 400.839 194.631 398.304 194.638H174.277C162.843 194.635 153.477 185.769 153.477 174.931C153.477 169.513 155.814 164.586 159.576 161.015C163.55 157.276 168.805 155.204 174.259 155.227H398.311C408.882 155.225 417.533 164.091 417.533 174.931Z" fill="#EBF3FA"/>
<path d="M417.534 174.929C417.543 180.13 415.515 185.127 411.886 188.849C410.124 190.674 408.014 192.127 405.681 193.12C403.349 194.114 400.84 194.63 398.305 194.636H357.766V155.223H398.311C408.882 155.223 417.534 164.089 417.534 174.929Z" fill="#F2B45A"/>
<path d="M391.875 182.092C391.372 182.092 390.87 182.054 390.372 181.981C388.41 181.686 386.579 180.815 385.112 179.479C383.644 178.143 382.605 176.401 382.125 174.475C381.646 172.548 381.748 170.522 382.419 168.653C383.09 166.784 384.299 165.156 385.894 163.975C387.169 163.03 388.649 162.401 390.214 162.14C391.779 161.88 393.384 161.994 394.896 162.473C396.408 162.953 397.785 163.785 398.914 164.901C400.043 166.016 400.892 167.384 401.39 168.891C401.889 170.399 402.023 172.003 401.783 173.573C401.542 175.142 400.933 176.632 400.005 177.92C399.078 179.208 397.858 180.258 396.447 180.983C395.035 181.708 393.472 182.088 391.886 182.092H391.875ZM386.865 165.305C385.533 166.293 384.524 167.654 383.964 169.216C383.405 170.778 383.321 172.471 383.724 174.081C384.126 175.69 384.996 177.145 386.224 178.259C387.452 179.374 388.983 180.099 390.623 180.343C392.263 180.587 393.938 180.339 395.437 179.63C396.936 178.921 398.191 177.783 399.043 176.36C399.896 174.937 400.308 173.293 400.227 171.635C400.146 169.978 399.576 168.382 398.588 167.049C397.263 165.264 395.285 164.078 393.087 163.751C390.889 163.424 388.652 163.983 386.865 165.305Z" fill="white"/>
<path d="M384.96 178.193L383.977 176.863L372.97 185.018L373.953 186.348L384.96 178.193Z" fill="white"/>
<path d="M369.624 188.519C369.508 188.363 369.425 188.187 369.378 187.998C369.331 187.81 369.322 187.615 369.35 187.423C369.379 187.232 369.445 187.047 369.544 186.881C369.644 186.715 369.775 186.57 369.931 186.455L376.413 181.658C376.569 181.543 376.746 181.459 376.934 181.411C377.122 181.364 377.318 181.355 377.509 181.383C377.701 181.412 377.886 181.478 378.052 181.578C378.218 181.678 378.363 181.81 378.478 181.966C378.711 182.281 378.809 182.676 378.751 183.063C378.693 183.451 378.484 183.799 378.169 184.032L371.689 188.829C371.374 189.062 370.979 189.16 370.592 189.102C370.205 189.044 369.857 188.834 369.624 188.519Z" fill="white"/>
<path d="M219.749 147.77C219.554 147.983 219.425 148.248 219.378 148.533C219.33 148.818 219.366 149.11 219.481 149.375C219.869 150.445 221.147 151.64 222.631 152.835C222.82 152.987 222.99 153.127 223.136 153.256L223.249 153.358L223.336 153.437C224.722 154.714 224.208 155.008 226.687 157.601C229.518 160.555 231.479 160.609 232.03 160.341C232.5 160.123 231.546 158.545 230.488 156.783L230.335 156.526C230.194 156.293 230.054 156.055 229.915 155.819C228.675 153.7 228.993 152.706 229.29 149.551C229.529 146.99 233.278 135.237 233.278 135.237L227.832 134.297C227.832 134.297 226.192 143.656 224.389 145.097C223.424 145.865 222.345 145.874 221.417 146.445L221.226 146.565C220.682 146.899 220.185 147.304 219.749 147.77Z" fill="#FFB27D"/>
<path d="M219.749 147.772C219.554 147.985 219.425 148.25 219.378 148.534C219.33 148.819 219.366 149.111 219.481 149.376C219.956 150.444 221.202 151.635 222.635 152.825C222.825 152.98 222.988 153.124 223.136 153.261L223.249 153.364L223.336 153.442C224.722 154.72 224.208 155.014 226.687 157.606C229.518 160.56 231.479 160.615 232.03 160.347C232.5 160.129 231.546 158.55 230.488 156.789C228.505 156.012 226.761 154.725 225.434 153.058C223.789 150.957 222.672 148.277 221.552 146.631L221.234 146.57C220.688 146.902 220.188 147.306 219.749 147.772Z" fill="#233862"/>
<path d="M263.577 144.386C263.912 146.067 266.304 145.788 268.977 145.134C271.65 144.48 271.013 145.258 274.817 144.838C278.62 144.417 279.772 143 279.888 142.439C279.992 141.938 278.112 141.761 276.097 141.528L275.335 141.437C273.059 141.149 271.395 139.679 269.328 138.472C267.367 137.327 264.45 132.668 264.45 132.668L259.223 133.08C259.223 133.08 261.959 137.242 263.017 139.051C263.638 140.115 263.605 141.522 263.527 142.607C263.466 143.2 263.483 143.798 263.577 144.386Z" fill="#FFB27D"/>
<path d="M268.978 145.137C271.65 144.483 271.014 145.262 274.818 144.841C278.621 144.42 279.773 143.003 279.888 142.443C279.993 141.941 278.113 141.765 276.098 141.531L276.081 141.568C274.451 142.614 272.57 143.199 270.635 143.262C268.056 143.323 265.323 142.582 263.541 142.608C263.475 143.203 263.489 143.803 263.58 144.394C263.913 146.07 266.309 145.791 268.978 145.137Z" fill="#233862"/>
<path d="M243.604 111.004L238.724 124.13L232.353 141.273C231.217 141.357 230.074 141.251 228.972 140.961C227.448 140.525 225.705 139.367 225.705 139.367C225.705 139.367 227.478 120.96 230.78 110.393C231.626 107.681 232.573 105.488 233.612 104.254C238.729 98.2125 243.604 111.004 243.604 111.004Z" fill="#D28E2A"/>
<path d="M238.645 90.1484C235.87 89.2524 228.625 90.131 220.783 91.5525C219.723 91.7425 218.629 91.6065 217.648 91.1625C216.666 90.7184 215.841 89.9871 215.283 89.0649L195.516 87.5039C195.516 87.5039 188.981 101.978 192.555 111.204C193.08 112.558 194.233 113.406 196.01 113.435C196.01 113.435 207.953 113.457 211.774 113.457C221.602 113.457 232.578 106.698 233.992 106.417C236.316 105.952 237.244 110.605 239.566 115.488C241.888 120.372 261.399 137.124 261.399 137.124C261.399 137.124 264.398 137.155 265.637 136.688C266.971 136.189 267.458 135.539 267.458 135.539C267.458 135.539 245.855 92.4769 238.645 90.1484Z" fill="#F2B45A"/>
<path d="M213.204 30.972C212.065 30.2923 210.756 29.9506 209.43 29.9866C208.82 30.003 208.21 29.9658 207.606 29.8754C200.063 28.7657 195.517 39.7319 195.249 43.0458C194.759 49.1284 191.546 50.055 187.015 53.8637C177.937 61.4943 180.596 70.3785 185.556 73.6792C188.534 75.6588 193.783 73.6792 193.783 73.6792C193.857 73.7316 208.138 65.6955 215.178 61.8191C225.729 60.3235 217.443 33.4988 213.204 30.972Z" fill="#233862"/>
<path d="M209.279 58.5093C209.311 58.5289 205.815 59.7215 203.48 58.6859C201.282 57.7113 199.618 54.0923 199.651 54.0901C200.651 54.0443 201.749 53.1701 202.596 47.4297L203.031 47.5823L210.189 50.1636C210.189 50.1636 209.669 52.4615 209.333 54.6504C209.041 56.497 208.889 58.2564 209.279 58.5093Z" fill="#FFB27D"/>
<path d="M210.181 50.1712C210.181 50.1712 209.894 51.4117 209.478 53.727C205.365 52.9857 203.596 49.8158 203.023 47.5898L210.181 50.1712Z" fill="#ED975D"/>
<path d="M211.246 52.4532C211.246 52.4532 201.444 51.132 202.366 45.0406C203.287 38.9493 202.634 34.6761 208.924 35.2604C215.215 35.8447 216.08 38.3519 216.27 40.4601C216.459 42.5683 213.815 52.6385 211.246 52.4532Z" fill="#FFB27D"/>
<path d="M215.912 37.1224C215.912 37.1224 209.64 42.5292 205.375 42.9631C201.11 43.3969 199.494 42.0278 199.494 42.0278C201.195 40.5061 202.566 38.651 203.522 36.5774C203.74 36.089 204.084 35.6677 204.519 35.3568C204.954 35.046 205.464 34.857 205.996 34.8093C209.044 34.5389 214.816 34.419 215.912 37.1224Z" fill="#233862"/>
<path d="M211.992 36.6374C211.992 36.6374 214.09 38.6671 214.75 40.1736C215.386 41.6256 215.575 45.1008 215.068 46.4808C215.068 46.4808 218.335 40.1213 216.488 37.032C214.528 33.753 211.992 36.6374 211.992 36.6374Z" fill="#233862"/>
<path d="M217.516 72.9613C217.213 92.8008 217.429 88.6584 215.26 90.5399C214.737 90.9934 213.269 91.2616 211.339 91.3902C205.259 91.7913 194.566 90.7841 194.168 89.6613C192.767 85.7697 193.758 84.5597 192.588 78.6035C192.469 77.9691 192.316 77.2845 192.14 76.5367C191.166 72.4468 190.216 71.0536 193.68 64.4826C196.821 58.5286 200.082 53.6974 200.376 53.8718C208.653 58.7946 209.324 54.661 209.324 54.661C209.324 54.661 217.669 63.2814 217.516 72.9613Z" fill="#AFCDFB"/>
<path d="M238.724 124.132L232.353 141.274C231.217 141.358 230.074 141.253 228.972 140.963C227.448 140.527 225.705 139.369 225.705 139.369C225.705 139.369 227.478 120.962 230.78 110.395L238.724 124.132Z" fill="#F2B45A"/>
<path d="M209.324 54.6602C209.324 54.6602 217.843 56.11 218.843 59.7814C219.843 63.4528 223.128 85.7384 223.128 85.7384C223.128 85.7384 220.732 88.0864 218.723 86.0829C216.715 84.0793 212.435 65.2296 212.435 65.2296L209.324 54.6602Z" fill="#AFCDFB"/>
<path d="M211.34 91.3893C205.261 91.7905 194.568 90.7832 194.169 89.6605C192.768 85.7689 193.76 84.5589 192.59 78.6027L195.526 70.3398C195.526 70.3398 195.038 79.5423 197.748 81.9645C200.458 84.3866 208.857 86.6387 210.164 88.6619C210.802 89.6343 211.22 90.6066 211.34 91.3893Z" fill="#95B3EF"/>
<path d="M204.375 87.5162C204.375 87.5162 210.374 86.1819 211.345 86.716C212.317 87.2502 214.678 89.1883 214.974 89.8642C215.271 90.54 212.82 89.3519 212.023 89.136C211.507 88.9987 210.147 89.4696 209.474 89.6941C206.643 90.6381 204.9 90.152 204.9 90.152L204.375 87.5162Z" fill="#FFB27D"/>
<path d="M200.371 53.8672C200.371 53.8672 192.311 54.3621 189.528 58.2515C185.607 63.7303 177.809 87.0733 182.27 90.1887C187.293 93.6966 205.141 91.1153 205.141 91.1153C205.141 91.1153 205.736 88.3356 204.91 86.9926C204.085 85.6496 190.66 83.4738 190.039 82.8503C189.419 82.2268 197.79 70.7591 197.79 68.8972C197.79 67.0354 200.371 53.8672 200.371 53.8672Z" fill="#AFCDFB"/>
<path d="M211.635 88.3789C211.635 88.3789 212.892 90.001 213.303 90.195C213.51 90.3077 213.746 90.3584 213.981 90.3411L213.136 88.8149L211.635 88.3789Z" fill="#FFB27D"/>
<path d="M211.342 86.7148L214.995 88.4917C214.923 88.58 214.829 88.6479 214.723 88.6888C214.617 88.7298 214.502 88.7422 214.389 88.7249C213.94 88.7031 212.806 88.2889 212.806 88.2889L211.342 86.7148Z" fill="#FFB27D"/>
<path d="M242.538 90.9037L204.373 90.8906V91.7322L242.2 91.7452L242.538 90.9037Z" fill="#233862"/>
<path d="M213.297 91.7336L242.2 91.7423L250.9 70.1086L222.045 70.0977L213.297 91.7336Z" fill="#233862"/>
<path d="M234.907 80.9208C235.125 80.1599 234.689 79.543 233.927 79.543C233.526 79.5653 233.143 79.7091 232.826 79.9552C232.51 80.2014 232.276 80.5382 232.156 80.9208C231.938 81.6817 232.374 82.2987 233.136 82.2987C233.536 82.2764 233.92 82.1326 234.236 81.8864C234.553 81.6403 234.787 81.3034 234.907 80.9208Z" fill="white"/>
<path d="M215.161 215.176H162.979C161.892 215.176 161.012 216.057 161.012 217.144V217.973C161.012 219.06 161.892 219.942 162.979 219.942H215.161C216.247 219.942 217.127 219.06 217.127 217.973V217.144C217.127 216.057 216.247 215.176 215.161 215.176Z" fill="#F2B45A"/>
<path d="M188.386 236.327H162.637C162.206 236.327 161.792 236.156 161.488 235.851C161.183 235.546 161.012 235.132 161.012 234.701C161.012 234.269 161.183 233.856 161.488 233.551C161.792 233.246 162.206 233.074 162.637 233.074H188.386C188.816 233.075 189.229 233.246 189.533 233.551C189.838 233.856 190.008 234.27 190.008 234.701C190.008 235.132 189.838 235.545 189.533 235.85C189.229 236.155 188.816 236.326 188.386 236.327Z" fill="#739AF0"/>
<path d="M208.099 226.254H162.523C161.689 226.254 161.012 226.931 161.012 227.767V227.994C161.012 228.829 161.689 229.507 162.523 229.507H208.099C208.934 229.507 209.61 228.829 209.61 227.994V227.767C209.61 226.931 208.934 226.254 208.099 226.254Z" fill="#739AF0"/>
<path d="M257.961 226.254H215.503C214.695 226.254 214.041 226.909 214.041 227.717V228.044C214.041 228.852 214.695 229.507 215.503 229.507H257.961C258.768 229.507 259.422 228.852 259.422 228.044V227.717C259.422 226.909 258.768 226.254 257.961 226.254Z" fill="#739AF0"/>
<path d="M220.499 236.327H194.752C194.321 236.327 193.908 236.156 193.603 235.851C193.298 235.546 193.127 235.132 193.127 234.701C193.127 234.269 193.298 233.856 193.603 233.551C193.908 233.246 194.321 233.074 194.752 233.074H220.499C220.93 233.074 221.343 233.246 221.648 233.551C221.952 233.856 222.124 234.269 222.124 234.701C222.124 235.132 221.952 235.546 221.648 235.851C221.343 236.156 220.93 236.327 220.499 236.327Z" fill="#739AF0"/>
<path d="M278.703 215.176H226.522C225.435 215.176 224.555 216.057 224.555 217.144V217.973C224.555 219.06 225.435 219.942 226.522 219.942H278.703C279.79 219.942 280.67 219.06 280.67 217.973V217.144C280.67 216.057 279.79 215.176 278.703 215.176Z" fill="#F2B45A"/>
<path d="M215.161 300.492H162.979C161.892 300.492 161.012 301.374 161.012 302.461V303.289C161.012 304.377 161.892 305.258 162.979 305.258H215.161C216.247 305.258 217.127 304.377 217.127 303.289V302.461C217.127 301.374 216.247 300.492 215.161 300.492Z" fill="#F2B45A"/>
<path d="M188.386 321.653H162.637C162.206 321.653 161.793 321.482 161.488 321.177C161.184 320.873 161.012 320.46 161.012 320.029C161.012 319.597 161.183 319.184 161.488 318.879C161.792 318.574 162.206 318.402 162.637 318.402H188.386C188.816 318.403 189.229 318.575 189.533 318.879C189.838 319.184 190.008 319.598 190.008 320.029C190.008 320.459 189.837 320.872 189.532 321.177C189.228 321.481 188.816 321.652 188.386 321.653Z" fill="#739AF0"/>
<path d="M208.099 311.574H162.523C161.689 311.574 161.012 312.252 161.012 313.087V313.314C161.012 314.15 161.689 314.827 162.523 314.827H208.099C208.934 314.827 209.61 314.15 209.61 313.314V313.087C209.61 312.252 208.934 311.574 208.099 311.574Z" fill="#739AF0"/>
<path d="M257.961 311.574H215.503C214.695 311.574 214.041 312.229 214.041 313.037V313.364C214.041 314.172 214.695 314.827 215.503 314.827H257.961C258.768 314.827 259.422 314.172 259.422 313.364V313.037C259.422 312.229 258.768 311.574 257.961 311.574Z" fill="#739AF0"/>
<path d="M220.499 321.653H194.752C194.321 321.653 193.908 321.482 193.604 321.177C193.299 320.873 193.128 320.46 193.127 320.029C193.127 319.597 193.298 319.184 193.603 318.879C193.908 318.574 194.321 318.402 194.752 318.402H220.499C220.93 318.402 221.343 318.574 221.648 318.879C221.952 319.184 222.124 319.597 222.124 320.029C222.123 320.46 221.952 320.873 221.647 321.177C221.342 321.482 220.929 321.653 220.499 321.653Z" fill="#739AF0"/>
<path d="M278.703 300.492H226.522C225.435 300.492 224.555 301.374 224.555 302.461V303.289C224.555 304.377 225.435 305.258 226.522 305.258H278.703C279.79 305.258 280.67 304.377 280.67 303.289V302.461C280.67 301.374 279.79 300.492 278.703 300.492Z" fill="#F2B45A"/>
<path d="M215.161 257.836H162.979C161.892 257.836 161.012 258.717 161.012 259.805V260.633C161.012 261.72 161.892 262.602 162.979 262.602H215.161C216.247 262.602 217.127 261.72 217.127 260.633V259.805C217.127 258.717 216.247 257.836 215.161 257.836Z" fill="#F2B45A"/>
<path d="M188.386 278.985H162.637C162.206 278.985 161.792 278.814 161.488 278.509C161.183 278.204 161.012 277.79 161.012 277.359C161.012 276.928 161.184 276.514 161.488 276.21C161.793 275.905 162.206 275.734 162.637 275.734H188.386C188.816 275.735 189.228 275.906 189.532 276.211C189.837 276.515 190.008 276.928 190.008 277.359C190.008 277.79 189.838 278.203 189.533 278.508C189.229 278.813 188.816 278.984 188.386 278.985Z" fill="#739AF0"/>
<path d="M208.099 268.914H162.523C161.689 268.914 161.012 269.591 161.012 270.427V270.654C161.012 271.489 161.689 272.167 162.523 272.167H208.099C208.934 272.167 209.61 271.489 209.61 270.654V270.427C209.61 269.591 208.934 268.914 208.099 268.914Z" fill="#739AF0"/>
<path d="M257.961 268.914H215.503C214.695 268.914 214.041 269.569 214.041 270.377V270.704C214.041 271.512 214.695 272.167 215.503 272.167H257.961C258.768 272.167 259.422 271.512 259.422 270.704V270.377C259.422 269.569 258.768 268.914 257.961 268.914Z" fill="#739AF0"/>
<path d="M220.499 278.985H194.752C194.321 278.985 193.908 278.814 193.603 278.509C193.298 278.204 193.127 277.79 193.127 277.359C193.128 276.928 193.299 276.514 193.604 276.21C193.908 275.905 194.321 275.734 194.752 275.734H220.499C220.929 275.734 221.342 275.905 221.647 276.21C221.952 276.514 222.123 276.928 222.124 277.359C222.124 277.79 221.952 278.204 221.648 278.509C221.343 278.814 220.93 278.985 220.499 278.985Z" fill="#739AF0"/>
<path d="M278.703 257.836H226.522C225.435 257.836 224.555 258.717 224.555 259.805V260.633C224.555 261.72 225.435 262.602 226.522 262.602H278.703C279.79 262.602 280.67 261.72 280.67 260.633V259.805C280.67 258.717 279.79 257.836 278.703 257.836Z" fill="#F2B45A"/>
<path d="M132.148 239.656C132.148 239.656 132.737 238.331 133.118 237.694C133.499 237.058 135.128 235.231 135.405 235.647C135.682 236.063 136.79 238.863 136.202 239.648C135.614 240.432 136.239 241.795 133.312 242.621L132.148 239.656Z" fill="#FFB27D"/>
<path d="M99.5996 231.289C99.5996 231.289 114.595 243.816 120.441 242.656C125.015 241.749 132.027 239.343 132.027 239.343L133.432 242.933C133.432 242.933 127.139 251.477 120.58 251.532C110.327 251.621 102.752 247.089 102.752 247.089L99.5996 231.289Z" fill="#95B3EF"/>
<path d="M73.3047 363.42C73.3047 363.42 73.7403 370.449 75.0996 370.549C75.2803 370.562 81.9893 370.562 81.9893 370.562L90.552 370.512C90.552 370.512 90.4975 368.447 87.9925 368.011C85.4876 367.575 81.2988 365.813 79.7828 362.502C78.1883 359.018 73.3047 363.42 73.3047 363.42Z" fill="#1C4B8E"/>
<path d="M72.8126 363.907C72.8126 363.907 75.4265 364.779 77.4479 364.779C78.9113 364.76 80.366 364.552 81.7761 364.16C81.7761 364.16 82.2662 359.416 84.9628 348.962C86.3787 343.483 88.3979 336.439 91.2797 327.686C99.2238 303.486 101.639 289.337 101.859 288.007C101.859 287.935 101.877 287.9 101.877 287.9L101.851 287.889L77.4261 277.156C77.4261 277.156 80.4452 310.5 76.594 323.299C76.0086 325.314 75.5417 327.361 75.1956 329.43C72.756 343.324 72.8126 363.907 72.8126 363.907Z" fill="#F2B45A"/>
<path d="M84.9614 348.962C86.3772 343.483 88.3964 336.439 91.2782 327.686C99.2223 303.486 101.638 289.337 101.858 288.007C101.858 287.966 101.858 287.928 101.858 287.889L77.4334 277.156C77.4334 277.156 80.4524 310.5 76.6013 323.299C76.0436 325.078 84.9614 348.962 84.9614 348.962Z" fill="#D28E2A"/>
<path d="M92.3809 363.42C92.3809 363.42 92.8165 370.449 94.1735 370.549C94.3543 370.562 101.063 370.562 101.063 370.562L109.628 370.512C109.628 370.512 109.572 368.447 107.069 368.011C104.566 367.575 100.375 365.813 98.8589 362.502C97.2623 359.018 92.3809 363.42 92.3809 363.42Z" fill="#1C4B8E"/>
<path d="M106.229 277.934C106.229 277.934 106.545 299.541 102.811 326.072C99.0776 352.602 100.341 363.863 100.341 363.863C100.341 363.863 97.775 364.695 96.7381 364.78C94.1003 364.998 91.3949 364.161 91.3949 364.161C91.3949 364.161 86.0495 337.622 87.5808 324.343C89.1121 311.063 80.2598 278.777 80.2598 278.777L106.229 277.934Z" fill="#F2B45A"/>
<path d="M88.9082 227.371L93.6764 230.5L98.0176 229.272C98.8127 228.139 99.0218 225.952 99.0348 224.059C99.0395 222.901 98.9821 221.743 98.8628 220.591L92.4326 217.757L90.0365 216.699C90.0365 216.736 90.2239 218.661 90.2544 218.954C90.6922 223.961 88.9082 227.371 88.9082 227.371Z" fill="#FFB27D"/>
<path d="M106.338 283.938C100.404 289.674 77.9464 288.709 76.561 282.391C75.1757 276.072 78.0705 228.608 88.208 225.626C90.31 225.006 101.556 228.645 101.556 228.645C102.796 232.066 103.773 235.577 104.477 239.147C104.695 240.292 105.349 252.422 105.85 263.77C106.067 269.076 106.272 274.215 106.37 277.976C106.462 281.501 106.466 283.816 106.338 283.938Z" fill="#AFCDFB"/>
<path d="M90.7261 219.031C92.033 221.24 96.6073 223.174 99.0361 224.046C99.0408 222.887 98.9834 221.729 98.864 220.577L92.4338 217.743C91.0114 217.727 90.1445 218.044 90.7261 219.031Z" fill="#FCA56B"/>
<path d="M101.29 220.197C101.29 220.197 90.9257 223.432 89.0132 216.942C87.1007 210.451 84.4715 206.497 91.0084 204.157C97.5453 201.818 99.5667 203.911 100.732 205.923C101.897 207.936 103.936 219.187 101.29 220.197Z" fill="#FFB27D"/>
<path d="M100.327 205.299C100.327 205.299 99.6731 212.851 98.1048 212.524C96.5365 212.197 94.8374 211.495 95.0553 213.771C95.2731 216.047 93.5305 219.952 91.2869 219.941C86.4599 219.921 81.2169 207.527 82.5369 205.175C86.3467 198.394 105.833 197.025 100.327 205.299Z" fill="#163560"/>
<path d="M98.8018 225.791C98.6689 225.734 91.0864 222.331 90.1999 222.623C89.3134 222.915 88.209 225.628 88.209 225.628L101.557 228.649C101.557 228.649 100.505 226.51 98.8018 225.791Z" fill="#95B3EF"/>
<path d="M145.998 262.551L103.5 302.601C102.668 303.386 101.616 303.634 101.165 303.157L99.7321 301.631C99.2812 301.151 99.5927 300.118 100.427 299.333L142.924 259.283C143.759 258.498 144.809 258.25 145.259 258.727L146.693 260.253C147.144 260.733 146.832 261.766 145.998 262.551Z" fill="#1F4D84"/>
<path d="M122.15 285.028L103.5 302.602C102.668 303.387 101.616 303.636 101.165 303.158L99.7321 301.632C99.2812 301.153 99.5927 300.119 100.427 299.334L119.075 281.758L122.15 285.028Z" fill="#739AF0"/>
<path d="M136.231 247.432C137.71 252.29 140.279 256.745 143.741 260.457C147.203 264.17 151.467 267.042 156.207 268.854C160.946 270.667 166.037 271.371 171.09 270.914C176.144 270.458 181.026 268.852 185.365 266.219C189.704 263.586 193.384 259.996 196.125 255.722C198.867 251.449 200.597 246.605 201.183 241.561C201.769 236.516 201.196 231.405 199.508 226.616C197.82 221.827 195.061 217.487 191.442 213.927C191.27 213.757 191.096 213.587 190.92 213.422C185.571 208.385 178.709 205.258 171.402 204.528C164.094 203.798 156.75 205.506 150.512 209.385C144.275 213.264 139.492 219.098 136.909 225.978C134.327 232.859 134.088 240.401 136.231 247.432ZM145.752 216.661C149.91 212.237 155.285 209.146 161.198 207.78C167.112 206.414 173.297 206.833 178.972 208.986C184.646 211.138 189.556 214.926 193.08 219.871C196.604 224.816 198.584 230.696 198.768 236.767C198.953 242.838 197.335 248.828 194.119 253.979C190.903 259.13 186.233 263.21 180.699 265.704C175.166 268.198 169.018 268.994 163.032 267.991C157.047 266.988 151.493 264.231 147.074 260.068C144.135 257.308 141.768 253.994 140.111 250.317C138.453 246.64 137.536 242.672 137.414 238.639C137.291 234.607 137.964 230.59 139.395 226.819C140.826 223.047 142.986 219.596 145.752 216.661Z" fill="#1F4D84"/>
<g opacity="0.5">
<path d="M190.44 258.743C186.282 263.167 180.907 266.258 174.994 267.625C169.081 268.991 162.895 268.572 157.22 266.42C151.545 264.268 146.635 260.48 143.111 255.534C139.587 250.589 137.607 244.709 137.422 238.638C137.238 232.567 138.856 226.577 142.072 221.426C145.288 216.275 149.959 212.194 155.492 209.7C161.026 207.206 167.174 206.411 173.16 207.414C179.145 208.418 184.699 211.175 189.118 215.338C192.066 218.093 194.44 221.404 196.103 225.082C197.767 228.759 198.686 232.73 198.809 236.765C198.932 240.799 198.256 244.819 196.82 248.591C195.383 252.363 193.215 255.813 190.44 258.743Z" fill="#B3CFF9"/>
</g>
<path d="M106.37 277.976C82.9536 261.276 84.9009 238.988 84.9009 238.988C93.4592 243.822 101.952 254.505 105.849 263.77C106.078 269.077 106.272 274.215 106.37 277.976Z" fill="#95B3EF"/>
<path d="M129.481 270.374C131.134 269.993 132.243 268.741 132.474 268.523C132.474 268.523 133.177 268.571 132.356 270.076C132.288 270.202 132.138 270.525 132.021 270.754C132.008 270.776 132.002 270.801 132.002 270.826C132.002 270.851 132.008 270.876 132.021 270.898C132.033 270.92 132.051 270.938 132.073 270.951C132.095 270.964 132.119 270.971 132.145 270.972C133.097 271.044 134.055 270.667 135.891 271.05C136.144 271.103 136.218 271.704 136.207 271.968C136.192 272.404 136.222 272.899 135.715 273.57C135.419 273.961 134.593 274.382 132.755 275.121C132.055 275.402 130.054 275.19 128.18 274.545L126.682 273.85L127.148 271.061L127.525 271.14C128.117 271.257 128.862 270.527 129.481 270.374Z" fill="#FFB27D"/>
<path d="M92.1682 228.648C92.1682 228.648 71.1264 232.658 98.3587 263.154C102.715 268.031 126.24 274.382 126.24 274.382C126.24 274.382 128.636 272.35 127.425 270.704C127.425 270.704 111.223 258.931 107.66 257.058C106.054 256.214 101.434 238.263 98.8205 233.948C96.2066 229.634 92.1682 228.648 92.1682 228.648Z" fill="#AFCDFB"/>
<path d="M132.721 240.023C132.721 240.023 133.409 238.715 133.544 238.013C133.679 237.311 134.544 235.294 134.901 234.937C135.045 234.793 135.515 234.978 135.572 235.591C135.596 235.857 135.465 236.343 135.234 236.923C134.858 237.865 134.919 239.142 134.799 239.57C134.461 240.631 132.721 240.023 132.721 240.023Z" fill="#FFB27D"/>
<path d="M414.049 199.827L402.136 202.603L396.246 213.331L391.748 188.883L414.049 199.827Z" fill="#233862"/>
<path d="M401.486 200.254L399.75 201.57L407.359 211.621L409.095 210.305L401.486 200.254Z" fill="#233862"/>
<path d="M374.77 312.823C374.77 312.823 379.695 307.035 375.044 303.386C375.044 303.386 371.651 301.343 368.889 301.517C368.889 301.517 372.823 308.075 371.559 308.733C370.296 309.392 367.699 301.103 367.699 301.103C367.699 301.103 359.989 300.379 357.512 301.58C357.512 301.58 364.121 306.959 362.74 307.284C361.359 307.608 354.216 302.333 354.216 302.333C354.216 302.333 347.043 303.577 347.44 307.96C347.836 312.342 350.313 313.685 351.4 313.565C352.487 313.445 358.836 310.994 358.978 311.886C359.119 312.778 355.301 315.701 352.622 315.845C352.622 315.845 357.699 321.413 361.056 319.791C364.413 318.169 364.691 315.614 366.785 314.648C368.878 313.682 370.666 313.68 369.804 314.661C368.941 315.642 365.153 316.602 363.959 318.73C362.766 320.857 361.698 322.29 365.175 321.753C368.651 321.217 374.297 318.653 374.541 315.736L374.77 312.823Z" fill="#82B378"/>
<path d="M350.959 308.073C350.959 308.073 370.448 307.258 374.769 312.824C374.769 312.824 375.73 315.675 378.666 318.274L379.128 319.519C379.128 319.519 375.739 315.965 374.53 315.754C374.53 315.743 376.399 308.825 350.959 308.073Z" fill="#82B378"/>
<path d="M378.667 318.262C378.667 318.262 382.862 321.344 383.17 326.878L382.409 326.947C382.409 326.947 381.057 321.231 378.635 319.001C376.212 316.77 378.667 318.262 378.667 318.262Z" fill="#82B378"/>
<path d="M400.902 297.558C400.902 297.558 393.024 293.176 396.674 287.183C396.674 287.183 399.6 283.5 402.741 282.545C402.741 282.545 401.092 291.471 402.771 291.676C404.451 291.881 403.891 281.597 403.891 281.597C403.891 281.597 412.168 277.583 415.414 277.891C415.414 277.891 410.304 286.611 411.981 286.393C413.658 286.175 419.387 277.343 419.387 277.343C419.387 277.343 427.882 275.743 429.252 280.775C430.622 285.807 428.438 288.334 427.181 288.652C425.924 288.97 417.851 288.892 418.065 289.94C418.278 290.989 423.728 292.65 426.778 291.698C426.778 291.698 423.449 299.998 419.045 299.592C414.641 299.186 413.268 296.461 410.55 296.261C407.831 296.06 405.834 296.801 407.2 297.532C408.565 298.262 413.177 297.75 415.383 299.618C417.59 301.487 419.378 302.633 415.292 303.486C411.205 304.338 403.865 303.837 402.386 300.695L400.902 297.558Z" fill="#A8D29F"/>
<path d="M425.387 282.367C425.387 282.367 403.387 289.562 400.902 297.556C400.902 297.556 401.017 301.123 398.828 305.222V306.796C398.828 306.796 401.117 301.437 402.372 300.691C402.379 300.7 397.438 293.789 425.387 282.367Z" fill="#82B378"/>
<path d="M398.829 305.224C398.829 305.224 395.45 310.396 397.406 316.672L398.278 316.435C398.278 316.435 397.406 309.519 399.175 306.033C400.944 302.547 398.829 305.224 398.829 305.224Z" fill="#82B378"/>
<path d="M388.373 291.52C388.373 291.52 398.72 285.677 393.858 277.809C393.858 277.809 389.972 272.978 385.823 271.748C385.823 271.748 388.071 283.497 385.862 283.78C383.653 284.064 384.298 270.508 384.298 270.508C384.298 270.508 373.363 265.275 369.081 265.711C369.081 265.711 375.89 277.17 373.677 276.902C371.464 276.634 363.827 265.038 363.827 265.038C363.827 265.038 352.626 262.997 350.851 269.642C349.076 276.287 351.988 279.599 353.648 280.009C355.308 280.419 365.949 280.246 365.676 281.631C365.404 283.015 358.225 285.25 354.212 284.018C354.212 284.018 358.669 294.932 364.472 294.361C370.275 293.79 372.061 290.186 375.653 289.898C379.244 289.61 381.874 290.569 380.081 291.544C378.288 292.519 372.204 291.886 369.31 294.365C366.415 296.844 364.082 298.372 369.464 299.462C374.847 300.552 384.529 299.829 386.454 295.673L388.373 291.52Z" fill="#A8D29F"/>
<path d="M355.971 271.703C355.971 271.703 385.024 281.017 388.374 291.519C388.374 291.519 388.25 296.221 391.169 301.608V303.682C391.169 303.682 388.106 296.638 386.446 295.674C386.453 295.674 392.918 286.524 355.971 271.703Z" fill="#82B378"/>
<path d="M391.169 301.609C391.169 301.609 395.667 308.395 393.142 316.684L391.99 316.379C391.99 316.379 393.079 307.255 390.722 302.675C388.366 298.094 391.169 301.609 391.169 301.609Z" fill="#82B378"/>
<path d="M471.36 371.089H365.129C350.317 354.132 354.238 331.225 373.888 311.905C376.36 309.476 381.102 307.762 386.215 306.537C395.64 304.298 406.326 303.781 406.409 303.738C406.44 303.725 412.057 299.159 415.436 295.071C425.935 282.35 434.866 283.442 434.866 283.442C445.567 281.358 454.688 280.748 461.464 284.517C467.733 288.006 471.978 295.276 473.566 308.623C473.867 311.145 474.072 313.891 474.181 316.862C474.568 327.693 476.701 337.33 477.969 345.488C479.805 357.311 481.103 366.297 471.36 371.089Z" fill="#F2B45A"/>
<path d="M456.16 298.124C449.667 301.664 448.948 313.326 438.787 316.339C428.625 319.352 411.38 319.077 401.578 329.701C392.138 339.948 381.726 313.873 386.208 306.537C395.634 304.298 406.32 303.781 406.403 303.738C406.433 303.725 412.051 299.159 415.43 295.071C425.929 282.35 434.859 283.442 434.859 283.442C445.561 281.358 454.681 280.748 461.458 284.517C468.921 292.224 462.654 294.583 456.16 298.124Z" fill="#D28E2A"/>
<path d="M385.878 348.545C385.878 348.545 387.747 353.509 387.359 355.356C386.971 357.203 387.618 360.772 386.869 362.374C386.12 363.976 384.782 366.298 386.076 366.885C386.566 367.103 392.258 362.66 392.583 361.351C392.907 360.043 393.147 356.185 394.231 354.089C395.316 351.994 394.397 350.307 392.816 349.542C391.234 348.776 389.021 344.566 389.021 344.566L385.878 348.545Z" fill="#F9DDBF"/>
<path d="M416.301 301.478C416.301 301.478 385.219 299.557 381.214 303.682C376.994 308.029 383.869 350.791 383.869 350.791C383.869 350.791 392.299 351.033 392.961 348.798C392.961 348.798 391.379 328.087 392.695 324.513C394.011 320.94 393.176 315.978 393.176 315.978C393.176 315.978 409.668 318.442 414.898 317.186C420.128 315.93 416.301 301.478 416.301 301.478Z" fill="#233862"/>
<path d="M423.831 278.641C423.831 278.667 419.257 289.341 417.016 290.479C414.774 291.617 406.693 300.926 404.957 300.765C403.221 300.604 406.75 302.666 406.75 302.666C406.75 302.666 421.126 295.646 421.951 295.236C422.777 294.826 427.103 287.695 427.695 284.074C428.288 280.452 423.831 278.641 423.831 278.641Z" fill="#FFB27D"/>
<path d="M380.138 356.74C380.138 356.74 378.367 361.739 376.87 362.899C375.374 364.059 373.577 367.205 371.972 367.944C370.366 368.683 367.833 369.596 368.456 370.878C368.689 371.364 375.906 371.643 376.995 370.852C378.084 370.061 380.756 367.27 382.939 366.37C385.122 365.469 385.503 363.586 384.786 361.981C384.07 360.376 385.096 355.73 385.096 355.73L380.138 356.74Z" fill="#F9DDBF"/>
<path d="M433.193 273.91C432.539 273.143 449.359 275.033 451.599 283.64C451.599 283.64 464.527 273.442 452.668 264.847C448.562 261.871 448.148 258.695 447.554 255.789C446.959 252.883 442.86 244.528 435.754 248.677C435.754 248.677 432.506 248.692 430.452 250.476C425.78 254.522 420.683 280.283 433.193 273.91Z" fill="#163560"/>
<path d="M429.916 302.984C429.916 302.984 396.132 306.436 393.156 309.88C390.181 313.325 378.529 358.23 378.529 358.23C378.529 358.23 381.98 360.153 385.114 358.352C385.114 358.352 394.045 343.121 398.003 338.338C401.961 333.555 403.431 318.795 404.084 318.642C404.738 318.49 425.915 321.594 433.205 315.989C440.496 310.384 429.916 302.984 429.916 302.984Z" fill="#2A4E96"/>
<path d="M448.725 272.289C448.725 272.289 440.666 268.687 430.441 270.34C428.354 270.678 426.472 271.365 424.98 273.828C422.869 277.317 421.883 279.176 421.883 279.176C421.883 279.176 422.087 280.787 424.969 282.072C424.185 284.956 425.69 289.992 424.316 291.948C422.941 293.903 414.344 298.752 413.919 301.447C413.141 306.4 428.6 315.374 433.209 314.414C446.462 311.652 455.458 276.091 448.725 272.289Z" fill="#476897"/>
<path d="M444.16 262.085C444.16 262.085 445.748 258.956 445.959 256.388C446.107 254.555 444.558 247.96 437.941 249.555C436.607 249.872 435.361 250.483 434.295 251.345C432.931 252.468 431.027 254.792 433.933 260.402L434.728 262.314L444.16 262.085Z" fill="#163560"/>
<path d="M435.091 272.641C434.422 273.347 434.686 275.693 437.818 275.521C439.874 275.403 444.281 272.859 443.867 271.099C443.671 270.264 442.09 268.108 441.717 263.148L441.343 263.253L435.067 265.021C435.067 265.021 435.37 267.018 435.522 268.911C435.653 270.498 435.368 272.349 435.091 272.641Z" fill="#FFB27D"/>
<path d="M435.066 265.022C435.066 265.022 435.369 267.019 435.522 268.911C439.083 268.528 440.712 265.122 441.342 263.254L435.066 265.022Z" fill="#F4A269"/>
<path d="M434.93 267.928C434.93 267.928 443.144 265.859 441.776 260.759C440.408 255.66 440.55 251.958 435.242 253.063C429.933 254.169 429.445 256.388 429.489 258.202C429.532 260.016 432.761 268.335 434.93 267.928Z" fill="#FFB27D"/>
<path d="M431.492 253.945C431.492 253.945 434.25 259.203 439.454 259.768C442.503 260.099 443.333 262.105 443.333 262.105C443.333 262.105 442.418 256.367 440.887 252.855C440.887 252.855 432.414 250.642 431.492 253.945Z" fill="#163560"/>
<path d="M432.432 254.638C432.432 254.638 430.633 256.476 430.08 257.771C429.259 259.689 430.862 263.729 431.524 264.601C431.524 264.601 427.699 258.111 428.976 255.301C430.33 252.325 432.432 254.638 432.432 254.638Z" fill="#163560"/>
<path d="M407.398 301.986C407.398 301.986 405.762 303.73 405.564 303.816C404.474 304.321 403.115 304.034 402.455 304.193C401.795 304.352 401.908 303.948 402.396 303.615C402.884 303.281 404.08 303.41 403.592 303.288C403.104 303.166 400.458 302.675 399.454 302.941C397.877 303.364 396.622 302.869 396.535 302.708C396.448 302.547 400.133 300.746 401.19 300.798C402.246 300.85 405.283 300.711 405.283 300.711L407.398 301.986Z" fill="#FFB27D"/>
<path d="M451.506 275.484C451.506 275.484 461.698 298.511 458.866 301.893C456.034 305.274 436.443 301.173 436.443 301.173L437.049 299.035C437.049 299.035 451.471 298.162 452.499 297.859C453.976 297.441 445.191 281.29 445.191 281.29L451.506 275.484Z" fill="#FFB27D"/>
<path d="M447.704 271.911C447.948 271.911 450.993 272.916 453.182 277.248C455.332 281.503 456.114 283.57 456.114 283.57C456.114 283.57 446.587 290.963 442.797 288.244C439.006 285.526 444.208 271.819 447.704 271.911Z" fill="#476897"/>
<path d="M438.732 298.929C438.732 298.929 437.094 297.865 436.432 297.283C435.769 296.701 431.931 296.23 431.934 296.629C431.936 297.028 434.168 297.544 434.412 297.937C434.656 298.329 436.022 299.923 437.185 299.921C437.512 299.925 437.833 299.834 438.108 299.658C438.383 299.481 438.6 299.228 438.732 298.929Z" fill="#FFB27D"/>
<path d="M434.252 302.389L429.856 301.763C429.522 301.709 429.208 301.567 428.947 301.351C428.686 301.136 428.486 300.855 428.368 300.538L425.942 291.948C425.776 291.364 426.175 290.967 426.83 291.061L431.226 291.684C431.88 291.778 432.551 292.338 432.714 292.912L435.143 301.501C435.313 302.086 434.905 302.482 434.252 302.389Z" fill="#1F4A91"/>
<path d="M433.344 302.25L428.948 301.625C428.614 301.569 428.3 301.427 428.039 301.211C427.778 300.996 427.578 300.715 427.46 300.397L425.034 291.807C424.868 291.223 425.267 290.826 425.922 290.92L430.318 291.546C430.971 291.639 431.642 292.187 431.806 292.771L434.234 301.361C434.398 301.954 433.999 302.351 433.344 302.25Z" fill="#233862"/>
<path d="M425.783 292.028C425.715 291.784 425.881 291.621 426.153 291.658C426.292 291.681 426.422 291.74 426.53 291.83C426.639 291.919 426.722 292.036 426.772 292.168C426.839 292.41 426.674 292.575 426.401 292.536C426.263 292.513 426.133 292.454 426.024 292.365C425.916 292.276 425.832 292.16 425.783 292.028Z" fill="#1F4A91"/>
<path d="M436.443 301.173C436.443 301.173 433.469 301.215 432.724 301.038C431.979 300.862 430.073 298.494 430.581 297.903C430.901 297.528 432.679 298.198 433.524 298.195C434.369 298.193 436.573 296.968 438.074 299.475C438.244 299.759 436.443 301.173 436.443 301.173Z" fill="#FFB27D"/>
<path d="M449.205 306.828C449.205 306.828 446.006 309.83 432.609 310.262C419.213 310.694 401.748 325.51 401.585 329.694C401.421 333.877 428.56 340.233 428.978 339.633C429.396 339.033 446.186 324.59 446.186 324.59L449.205 306.828Z" fill="#F2B45A"/>
<path d="M477.968 345.489C463.064 326.869 432.443 352.248 424.527 351.535C417.243 350.881 438.731 325.428 465.378 321.641C476.151 320.114 473.57 308.969 473.566 308.625C473.866 311.147 474.071 313.893 474.18 316.864C474.568 327.695 476.7 337.331 477.968 345.489Z" fill="#D28E2A"/>
<path d="M516.906 372.215L8.7905 372.041C8.70908 372.041 8.62846 372.025 8.55326 371.994C8.47806 371.962 8.40977 371.917 8.3523 371.859C8.29482 371.801 8.2493 371.733 8.21834 371.657C8.18738 371.582 8.17159 371.501 8.17188 371.42V371.104C8.17188 371.022 8.18788 370.942 8.21897 370.867C8.25006 370.791 8.29562 370.723 8.35307 370.666C8.41051 370.608 8.47871 370.563 8.55377 370.532C8.62882 370.5 8.70926 370.484 8.7905 370.484L516.906 370.659C517.07 370.659 517.227 370.725 517.343 370.841C517.459 370.957 517.524 371.114 517.525 371.278V371.596C517.524 371.76 517.459 371.917 517.343 372.033C517.227 372.149 517.07 372.215 516.906 372.215Z" fill="#2E3552"/>
<path d="M307.012 89.1231L336.035 95.1338L317.428 80.6641L316.173 84.85L308.972 85.6981L307.012 89.1231Z" fill="#95B3EF"/>
<path d="M336.035 95.1354L312.449 81.0384L288.641 78.3438L336.035 95.1354Z" fill="#F9DDBF"/>
<path d="M317.428 80.6646L336.034 95.1343L322.281 73.4766L317.428 80.6646Z" fill="#F9DDBF"/>
<path d="M124.636 170.875L95.6133 176.884L114.22 162.414L115.474 166.602L122.676 167.448L124.636 170.875Z" fill="#95B3EF"/>
<path d="M95.6133 176.883L119.199 162.786L143.007 160.094L95.6133 176.883Z" fill="#F9DDBF"/>
<path d="M114.22 162.415L95.6133 176.884L109.367 155.227L114.22 162.415Z" fill="#F9DDBF"/>
<path d="M172.189 179.267L173.039 178.258C173.808 178.912 174.577 179.302 175.574 179.302C176.446 179.302 176.997 178.901 176.997 178.268C176.997 177.695 176.674 177.383 175.185 177.028C173.475 176.627 172.512 176.121 172.512 174.617C172.512 173.239 173.658 172.286 175.252 172.286C176.313 172.264 177.347 172.623 178.167 173.298L177.409 174.364C176.688 173.825 175.964 173.538 175.23 173.538C174.405 173.538 173.923 173.963 173.923 174.514C173.923 175.133 174.291 175.41 175.829 175.777C177.526 176.191 178.411 176.799 178.411 178.153C178.411 179.657 177.228 180.551 175.542 180.551C174.303 180.558 173.107 180.1 172.189 179.267Z" fill="#739AF0"/>
<path d="M179.578 177.407C179.578 175.663 180.804 174.25 182.536 174.25C184.464 174.25 185.44 175.776 185.44 177.52C185.439 177.651 185.431 177.781 185.416 177.91H180.966C181.004 178.341 181.207 178.741 181.531 179.027C181.855 179.314 182.276 179.465 182.708 179.45C183.017 179.451 183.323 179.387 183.606 179.263C183.889 179.138 184.143 178.955 184.351 178.726L185.163 179.45C184.867 179.818 184.488 180.113 184.059 180.31C183.629 180.507 183.159 180.601 182.686 180.586C180.922 180.575 179.578 179.301 179.578 177.407ZM184.063 176.971C183.972 176.075 183.442 175.375 182.525 175.375C181.676 175.375 181.081 176.029 180.955 176.971H184.063Z" fill="#739AF0"/>
<path d="M190.543 180.436V179.691C190.304 179.976 190.003 180.202 189.663 180.353C189.323 180.504 188.954 180.576 188.582 180.563C187.434 180.563 186.426 179.909 186.426 178.668C186.426 177.325 187.469 176.682 188.881 176.682C189.448 176.673 190.014 176.758 190.554 176.935V176.819C190.554 175.982 190.026 175.522 189.064 175.522C188.462 175.523 187.868 175.652 187.321 175.902L186.942 174.788C187.661 174.444 188.45 174.271 189.247 174.282C191.037 174.282 191.908 175.224 191.908 176.843V180.436H190.543ZM190.577 177.899C190.133 177.737 189.663 177.656 189.19 177.659C188.319 177.659 187.802 178.014 187.802 178.622C187.802 179.196 188.319 179.518 188.972 179.518C189.889 179.518 190.577 179.002 190.577 178.243V177.899Z" fill="#739AF0"/>
<path d="M193.572 174.376H194.962V175.741C195.341 174.834 196.051 174.214 197.105 174.26V175.73H197.027C195.809 175.73 194.962 176.521 194.962 178.128V180.434H193.572V174.376Z" fill="#739AF0"/>
<path d="M197.77 177.417C197.765 177.001 197.842 176.588 197.998 176.203C198.154 175.818 198.385 175.467 198.677 175.172C198.97 174.877 199.319 174.644 199.703 174.485C200.087 174.327 200.498 174.246 200.914 174.249C201.37 174.229 201.824 174.313 202.243 174.494C202.662 174.674 203.035 174.948 203.334 175.293L202.462 176.222C202.027 175.786 201.591 175.465 200.892 175.465C199.881 175.465 199.149 176.338 199.149 177.417C199.149 178.496 199.896 179.379 200.962 179.379C201.615 179.379 202.099 179.069 202.534 178.622L203.371 179.449C202.953 179.947 202.393 180.305 201.765 180.475C201.138 180.644 200.473 180.617 199.862 180.397C199.25 180.176 198.721 179.773 198.345 179.243C197.97 178.712 197.766 178.078 197.762 177.428L197.77 177.417Z" fill="#739AF0"/>
<path d="M204.666 172.055H206.054V175.314C206.443 174.741 207.005 174.248 207.946 174.248C209.312 174.248 210.103 175.166 210.103 176.579V180.435H208.715V176.991C208.715 176.051 208.245 175.51 207.408 175.51C206.572 175.51 206.043 176.073 206.043 177.015V180.435H204.666V172.055Z" fill="#739AF0"/>
<path d="M211.674 178.863H213.199V180.435H211.674V178.863Z" fill="#739AF0"/>
<path d="M214.76 178.863H216.285V180.435H214.76V178.863Z" fill="#739AF0"/>
<path d="M217.846 178.863H219.37V180.435H217.846V178.863Z" fill="#739AF0"/>
<path d="M220.932 178.863H222.456V180.435H220.932V178.863Z" fill="#739AF0"/>
<path d="M301.174 254.382C301.173 254.087 301.26 253.799 301.424 253.554C301.587 253.309 301.819 253.117 302.091 253.004C302.363 252.891 302.662 252.862 302.951 252.919C303.24 252.977 303.505 253.118 303.714 253.327C303.922 253.535 304.063 253.801 304.121 254.09C304.178 254.379 304.148 254.678 304.036 254.951C303.923 255.223 303.732 255.455 303.487 255.619C303.242 255.782 302.954 255.869 302.659 255.869C302.265 255.869 301.888 255.712 301.609 255.433C301.33 255.154 301.174 254.776 301.174 254.382Z" fill="#D7E5FF"/>
<path d="M370.262 254.781H303.061C302.955 254.781 302.853 254.739 302.778 254.664C302.703 254.589 302.661 254.488 302.66 254.382C302.66 254.275 302.702 254.173 302.778 254.098C302.853 254.023 302.955 253.98 303.061 253.98H370.262C370.314 253.98 370.366 253.991 370.415 254.011C370.463 254.031 370.507 254.061 370.544 254.098C370.581 254.135 370.611 254.18 370.631 254.228C370.651 254.277 370.661 254.329 370.66 254.382C370.66 254.487 370.618 254.589 370.544 254.664C370.469 254.739 370.367 254.781 370.262 254.781Z" fill="#D7E5FF"/>
</g>
<defs>
<clipPath id="clip0_5488_43521">
<rect width="524.548" height="372.217" fill="white"/>
</clipPath>
</defs>
</svg>
