<svg width="548" height="307" viewBox="0 0 548 307" fill="none" xmlns="http://www.w3.org/2000/svg">
<g clip-path="url(#clip0_5488_43664)">
<path d="M79.4677 28.4577C154.32 0.715828 230.401 25.2435 281.991 78.6624C333.582 132.081 441.872 41.7908 499.299 95.1233C538.491 131.52 520.54 225.098 466.8 265.632C393.758 320.72 171.624 292.766 123.567 283.391C68.2077 272.589 27.7369 239.818 11.2938 200.044C-28.3214 104.206 46.3905 40.726 79.4677 28.4577Z" fill="#E7F3FE"/>
<path d="M335.313 67.0002C335.571 64.7136 335.701 62.4143 335.702 60.1133C335.702 58.8848 335.661 57.6654 335.59 56.4549L324.19 52.7785C323.501 48.0647 322.142 43.4733 320.153 39.1432L327.719 29.857C325.977 26.7942 323.974 23.8866 321.733 21.1661L310.33 24.8802C306.995 21.475 303.194 18.5571 299.042 16.2127L299.69 4.25372C296.481 2.79462 293.151 1.6163 289.738 0.732037L282.698 10.432C277.995 9.63976 273.203 9.51442 268.465 10.0596L261.947 0C258.491 0.702084 255.103 1.70165 251.82 2.9875L251.835 14.9645C247.564 17.0847 243.615 19.7969 240.104 23.0205L228.92 18.7038C226.536 21.3041 224.379 24.104 222.474 27.0727L229.533 36.7475C227.316 40.9665 225.714 45.4797 224.775 50.1508L213.198 53.2264C212.94 55.513 212.81 57.8122 212.809 60.1133C212.809 61.3417 212.85 62.5612 212.92 63.7717L224.321 67.4552C225.01 72.1689 226.369 76.7603 228.358 81.0905L220.791 90.3767C222.534 93.4395 224.537 96.3471 226.778 99.0676L238.18 95.3535C241.516 98.756 245.316 101.672 249.467 104.014L248.819 115.973C252.028 117.432 255.358 118.61 258.771 119.495L265.817 109.795C270.52 110.587 275.311 110.712 280.049 110.167L286.567 120.227C290.025 119.525 293.415 118.525 296.7 117.239L296.685 105.262C300.954 103.141 304.902 100.428 308.41 97.2043L319.594 101.521C321.977 98.9228 324.133 96.1253 326.037 93.1592L318.978 83.4845C321.196 79.2658 322.798 74.7524 323.736 70.0812L335.313 67.0002ZM274.255 84.1733C269.488 84.1737 264.828 82.7627 260.865 80.1189C256.901 77.4751 253.811 73.7172 251.987 69.3204C250.162 64.9236 249.685 60.0854 250.615 55.4177C251.545 50.75 253.84 46.4624 257.211 43.0972C260.582 39.732 264.877 37.4402 269.552 36.5119C274.227 35.5835 279.074 36.0602 283.478 37.8816C287.882 39.703 291.646 42.7873 294.294 46.7445C296.942 50.7018 298.356 55.3541 298.355 60.1133C298.355 66.4944 295.816 72.6142 291.297 77.1263C286.777 81.6384 280.647 84.1733 274.255 84.1733Z" fill="#476897"/>
<path d="M307.125 87.5559C306.954 87.5558 306.786 87.507 306.642 87.4153C306.497 87.3236 306.382 87.1927 306.31 87.0379C306.237 86.8832 306.21 86.711 306.232 86.5415C306.254 86.372 306.324 86.2123 306.433 86.081C310.898 80.7089 313.904 74.2808 315.162 67.4142C316.42 60.5476 315.889 53.4734 313.618 46.8712C313.576 46.7587 313.557 46.639 313.561 46.519C313.566 46.399 313.595 46.2812 313.646 46.1725C313.698 46.0639 313.77 45.9665 313.86 45.8863C313.949 45.8061 314.054 45.7446 314.168 45.7054C314.281 45.6663 314.402 45.6502 314.522 45.6583C314.642 45.6663 314.759 45.6983 314.867 45.7523C314.974 45.8063 315.07 45.8813 315.147 45.9727C315.225 46.0642 315.284 46.1703 315.32 46.2849C317.692 53.1789 318.247 60.566 316.934 67.7363C315.62 74.9065 312.481 81.6189 307.819 87.2285C307.734 87.3307 307.628 87.413 307.509 87.4696C307.389 87.5262 307.258 87.5556 307.125 87.5559Z" fill="white"/>
<path d="M303.636 30.7665C303.407 30.7662 303.186 30.6787 303.02 30.5219C298.989 26.7207 294.219 23.7865 289.005 21.9012C288.894 21.8608 288.792 21.7989 288.705 21.7191C288.617 21.6393 288.547 21.5431 288.497 21.4361C288.396 21.2199 288.385 20.9724 288.466 20.7482C288.548 20.524 288.716 20.3414 288.932 20.2406C289.149 20.1397 289.397 20.1289 289.621 20.2105C295.065 22.1809 300.046 25.2468 304.254 29.2179C304.385 29.3415 304.476 29.5016 304.515 29.6775C304.555 29.8534 304.54 30.037 304.473 30.2044C304.407 30.3719 304.291 30.5156 304.142 30.6168C303.993 30.7179 303.816 30.772 303.636 30.7719V30.7665Z" fill="white"/>
<path d="M264.907 20.7352C264.688 20.7354 264.475 20.6553 264.31 20.51C264.146 20.3648 264.04 20.1643 264.013 19.9465C263.986 19.7286 264.039 19.5084 264.164 19.3274C264.288 19.1464 264.474 19.017 264.688 18.9636C268.1 18.1068 271.604 17.6742 275.122 17.6758C275.361 17.6758 275.59 17.7705 275.759 17.9392C275.928 18.1078 276.023 18.3366 276.023 18.5751C276.023 18.8136 275.928 19.0423 275.759 19.211C275.59 19.3797 275.361 19.4744 275.122 19.4744C271.753 19.473 268.395 19.8874 265.127 20.7082C265.055 20.726 264.982 20.735 264.907 20.7352Z" fill="white"/>
<path d="M141.609 219.349C141.788 217.765 141.878 216.172 141.878 214.579C141.878 213.727 141.852 212.883 141.8 212.044L133.906 209.494C133.428 206.228 132.487 203.048 131.11 200.048L136.345 193.609C135.139 191.488 133.753 189.474 132.201 187.59L124.303 190.163C121.994 187.805 119.362 185.786 116.486 184.164L116.935 175.88C114.712 174.87 112.406 174.053 110.042 173.441L105.165 180.159C101.907 179.611 98.5884 179.524 95.3066 179.901L90.7918 172.934C88.3987 173.421 86.0522 174.114 83.7782 175.004L83.789 183.299C80.8314 184.767 78.096 186.644 75.6638 188.875L67.917 185.891C66.2662 187.69 64.7733 189.628 63.4545 191.682L68.344 198.382C66.8085 201.305 65.6984 204.431 65.0471 207.667L57.0282 209.796C56.8504 211.381 56.7608 212.974 56.7598 214.568C56.7598 215.419 56.7886 216.264 56.8372 217.102L64.7336 219.653C65.2106 222.918 66.1521 226.098 67.5297 229.097L62.2943 235.529C63.5002 237.65 64.8865 239.664 66.4379 241.549L74.3343 238.975C76.6446 241.333 79.2769 243.353 82.1532 244.975L81.7028 253.249C83.9257 254.26 86.2326 255.076 88.5974 255.688L93.4815 248.99C95.4126 249.315 97.3675 249.479 99.3259 249.479C100.667 249.478 102.007 249.401 103.34 249.249L107.855 256.215C110.248 255.729 112.595 255.037 114.868 254.146V245.849C117.826 244.382 120.562 242.505 122.993 240.274L130.74 243.258C132.39 241.459 133.883 239.522 135.201 237.468L130.313 230.766C131.842 227.845 132.946 224.72 133.59 221.487L141.609 219.349ZM99.3169 231.245C96.0152 231.245 92.7877 230.267 90.0425 228.436C87.2972 226.605 85.1576 224.002 83.8941 220.956C82.6306 217.911 82.3 214.56 82.9441 211.327C83.5883 208.094 85.1782 205.125 87.5128 202.794C89.8474 200.463 92.8219 198.876 96.0602 198.233C99.2984 197.59 102.655 197.92 105.705 199.181C108.756 200.443 111.363 202.579 113.197 205.32C115.031 208.06 116.01 211.282 116.01 214.579C116.01 218.999 114.251 223.237 111.12 226.363C107.99 229.488 103.744 231.244 99.3169 231.245Z" fill="#476897"/>
<path d="M122.084 233.862C121.913 233.862 121.745 233.813 121.601 233.722C121.456 233.63 121.341 233.499 121.269 233.344C121.196 233.19 121.169 233.017 121.191 232.848C121.213 232.678 121.283 232.519 121.392 232.387C124.453 228.703 126.513 224.294 127.376 219.586C128.239 214.877 127.875 210.026 126.32 205.498C126.249 205.275 126.268 205.032 126.374 204.823C126.48 204.614 126.663 204.454 126.885 204.377C127.107 204.301 127.35 204.314 127.562 204.414C127.775 204.514 127.94 204.692 128.022 204.912C129.679 209.732 130.067 214.897 129.149 219.91C128.23 224.923 126.036 229.616 122.778 233.539C122.693 233.64 122.587 233.722 122.467 233.778C122.347 233.834 122.216 233.862 122.084 233.862Z" fill="white"/>
<path d="M119.667 194.531C119.438 194.53 119.218 194.443 119.051 194.286C116.287 191.679 113.015 189.667 109.44 188.374C109.218 188.291 109.038 188.124 108.938 187.909C108.839 187.694 108.829 187.448 108.909 187.225C108.99 187.003 109.156 186.821 109.37 186.72C109.585 186.618 109.83 186.605 110.054 186.683C113.861 188.06 117.343 190.203 120.285 192.979C120.417 193.102 120.509 193.262 120.549 193.438C120.588 193.615 120.574 193.799 120.507 193.967C120.44 194.134 120.325 194.278 120.175 194.38C120.025 194.481 119.848 194.535 119.667 194.534V194.531Z" fill="white"/>
<path d="M92.8411 187.581C92.6212 187.581 92.4088 187.501 92.244 187.356C92.0792 187.211 91.9733 187.01 91.9463 186.792C91.9193 186.574 91.973 186.354 92.0973 186.173C92.2216 185.992 92.408 185.863 92.6213 185.809C95.007 185.211 97.4577 184.909 99.9177 184.91C100.157 184.91 100.386 185.005 100.555 185.174C100.724 185.342 100.818 185.571 100.818 185.809C100.818 186.048 100.724 186.277 100.555 186.445C100.386 186.614 100.157 186.709 99.9177 186.709C97.6065 186.707 95.304 186.991 93.0626 187.554C92.9903 187.573 92.9158 187.582 92.8411 187.581Z" fill="white"/>
<path d="M372.111 112.823C372.111 112.359 372.098 111.898 372.073 111.438L377.989 106.696C377.531 104.36 376.81 102.084 375.84 99.9112L368.201 99.3338C366.464 96.5995 364.219 94.2222 361.588 92.33L361.562 84.7291C359.413 83.6026 357.14 82.7274 354.79 82.1211L349.566 87.731C346.418 87.3881 343.233 87.637 340.177 88.4648L334.191 83.7326C331.949 84.7073 329.827 85.9373 327.867 87.3982L329 94.9326C326.752 97.1661 324.943 99.8011 323.668 102.701L316.22 104.426C315.579 106.765 315.21 109.17 315.119 111.593L321.679 115.37C322.005 118.607 322.958 121.75 324.486 124.624L321.201 131.5C322.609 133.422 324.228 135.181 326.028 136.743L333.054 133.993C335.869 135.827 339.023 137.078 342.33 137.673L345.645 144.488C346.04 144.502 346.436 144.513 346.836 144.513C348.787 144.511 350.734 144.331 352.652 143.974L354.891 136.754C358.111 135.672 361.08 133.951 363.618 131.696L371.004 133.355C372.528 131.57 373.848 129.623 374.943 127.549L370.657 121.264C371.621 118.554 372.112 115.699 372.111 112.823ZM346.551 123.944C344.445 123.944 342.386 123.321 340.635 122.153C338.884 120.984 337.519 119.324 336.713 117.381C335.907 115.439 335.696 113.301 336.107 111.239C336.518 109.176 337.532 107.282 339.021 105.795C340.511 104.308 342.408 103.296 344.474 102.885C346.54 102.475 348.681 102.686 350.627 103.49C352.573 104.295 354.236 105.658 355.406 107.406C356.576 109.154 357.201 111.21 357.201 113.313C357.201 114.709 356.925 116.091 356.39 117.381C355.855 118.671 355.07 119.843 354.082 120.83C353.093 121.818 351.919 122.601 350.627 123.135C349.335 123.669 347.95 123.944 346.551 123.944Z" fill="#476897"/>
<g opacity="0.8">
<path d="M470.552 51.5786H461.4C459.701 51.5767 458.071 50.9019 456.87 49.7022C455.668 48.5024 454.992 46.8758 454.99 45.1792V36.0422C454.993 34.3459 455.669 32.7197 456.87 31.5204C458.072 30.321 459.701 29.6464 461.4 29.6445H470.552C472.251 29.6464 473.881 30.321 475.082 31.5204C476.284 32.7197 476.96 34.3459 476.962 36.0422V45.1792C476.96 46.8758 476.285 48.5024 475.083 49.7022C473.881 50.9019 472.252 51.5767 470.552 51.5786ZM461.4 32.1626C460.37 32.1635 459.382 32.5725 458.653 33.2998C457.924 34.0272 457.514 35.0134 457.512 36.0422V45.1792C457.513 46.2083 457.923 47.195 458.652 47.9227C459.381 48.6504 460.369 49.0596 461.4 49.0606H470.552C471.583 49.0596 472.571 48.6504 473.3 47.9227C474.029 47.195 474.439 46.2083 474.44 45.1792V36.0422C474.439 35.0134 474.029 34.0272 473.3 33.2998C472.571 32.5725 471.583 32.1635 470.552 32.1626H461.4Z" fill="#395987"/>
</g>
<g opacity="0.8">
<path d="M427.484 51.5786H418.33C416.631 51.5763 415.002 50.9012 413.801 49.7015C412.599 48.5019 411.924 46.8755 411.922 45.1792V36.0422C411.924 34.346 412.6 32.7199 413.801 31.5205C415.002 30.3211 416.631 29.6464 418.33 29.6445H427.484C429.183 29.6464 430.812 30.3211 432.013 31.5205C433.215 32.7199 433.89 34.346 433.892 36.0422V45.1792C433.89 46.8755 433.215 48.5019 432.013 49.7015C430.812 50.9012 429.183 51.5763 427.484 51.5786ZM418.33 32.1626C417.3 32.164 416.312 32.5732 415.584 33.3005C414.855 34.0277 414.446 35.0137 414.444 36.0422V45.1792C414.445 46.208 414.855 47.1944 415.583 47.922C416.312 48.6497 417.3 49.0591 418.33 49.0606H427.484C428.514 49.0591 429.502 48.6497 430.231 47.922C430.959 47.1944 431.369 46.208 431.37 45.1792V36.0422C431.369 35.0137 430.959 34.0277 430.23 33.3005C429.502 32.5732 428.514 32.164 427.484 32.1626H418.33Z" fill="#395987"/>
</g>
<path d="M423.479 46.2571H423.427C423.27 46.2493 423.116 46.2074 422.977 46.1344C422.838 46.0614 422.717 45.959 422.621 45.8344L416.044 37.2694C415.877 37.0418 415.807 36.7582 415.847 36.4793C415.887 36.2003 416.035 35.9481 416.259 35.7767C416.483 35.6052 416.765 35.528 417.046 35.5616C417.326 35.5951 417.582 35.7369 417.759 35.9564L423.56 43.5106L438.706 27.3105C438.803 27.2055 438.919 27.1206 439.048 27.0607C439.178 27.0009 439.318 26.9672 439.461 26.9617C439.603 26.9562 439.746 26.979 439.88 27.0287C440.013 27.0784 440.136 27.1541 440.24 27.2514C440.345 27.3487 440.429 27.4656 440.487 27.5954C440.546 27.7253 440.579 27.8655 440.583 28.0079C440.587 28.1504 440.563 28.2923 440.512 28.4254C440.461 28.5585 440.384 28.6802 440.286 28.7835L424.27 45.9153C424.169 46.0234 424.046 46.1095 423.91 46.1683C423.774 46.2271 423.627 46.2573 423.479 46.2571Z" fill="#F2B45A"/>
<path d="M500.8 287.545C463.327 285.716 335.872 288.815 297.107 290.022C258.342 291.229 213.346 288.428 189.972 284.31C166.598 280.191 31.4914 284.669 37.6222 295.736C43.753 306.803 97.8187 300.69 159.13 305.141C220.442 309.593 358.332 304.585 389.435 305.141C420.537 305.697 449.067 304.03 489.143 301.803C529.22 299.576 522.52 288.605 500.8 287.545Z" fill="#CCE2FF"/>
<path d="M117.828 55.9414H39.5059V184.105H117.828V55.9414Z" fill="#99BBEB"/>
<path d="M115.253 58.5547H43.6074V179.222H115.253V58.5547Z" fill="white"/>
<path d="M65.0371 106.945C67.7395 101.151 72.2975 99.2969 79.7921 99.2969C88.7172 99.2969 93.3509 102.534 94.6642 107.223C78.6823 107.443 65.0371 106.945 65.0371 106.945Z" fill="#9BD6E8"/>
<path d="M76.6778 71.1234C72.8944 72.181 73.0656 74.3016 71.8135 76.2675C70.5614 78.2334 67.8176 79.5464 67.4897 80.8575C67.1618 82.1687 68.3328 84.9008 66.9492 86.4332C65.5656 87.9657 65.0882 88.7265 65.6358 90.2571C66.1835 91.7877 67.387 94.1907 67.4969 94.5198C67.6068 94.849 69.1381 97.1422 70.9992 97.4695C72.8602 97.7969 76.3625 98.3437 78.1136 99.1081C79.8648 99.8725 85.5002 98.1296 88.6223 98.2393C91.7445 98.3491 93.8757 96.0486 93.6577 94.5198C93.4398 92.991 95.962 89.9297 95.9566 87.3074C95.9566 84.4907 92.6723 82.39 91.7967 80.532C90.9211 78.674 91.8922 75.3969 88.6169 73.4616C86.5415 72.2332 85.1146 72.3429 83.4734 71.7961C81.8321 71.2493 79.0847 70.4526 76.6778 71.1234Z" fill="#3A384D"/>
<path d="M81.2736 103.919C80.4196 105.178 79.7927 105.23 78.8667 103.919C78.128 102.876 76.6777 100.501 76.6777 99.3053V87.3103C76.6792 86.7312 76.9102 86.1762 77.3204 85.7666C77.7306 85.3571 78.2866 85.1264 78.8667 85.125H81.2736C81.854 85.1259 82.4104 85.3564 82.821 85.766C83.2316 86.1756 83.4629 86.7309 83.4643 87.3103V99.3071C83.4643 100.507 82.0411 102.789 81.2736 103.919Z" fill="#F09959"/>
<path d="M81.2736 85.125H78.8667C78.2863 85.1264 77.73 85.3574 77.3198 85.7673C76.9096 86.1772 76.6787 86.7327 76.6777 87.3121V98.0139C79.3801 98.8736 81.8483 97.1649 83.4643 95.2404V87.3121C83.4634 86.7323 83.2323 86.1766 82.8216 85.7666C82.411 85.3567 81.8543 85.126 81.2736 85.125Z" fill="#E38540"/>
<path d="M80.0694 95.1465C84.0892 95.1465 87.3478 90.7135 87.3478 85.2451C87.3478 79.7767 84.0892 75.3438 80.0694 75.3438C76.0497 75.3438 72.791 79.7767 72.791 85.2451C72.791 90.7135 76.0497 95.1465 80.0694 95.1465Z" fill="#F09959"/>
<path d="M83.4643 77.3668C78.8667 85.126 72.0801 84.3598 72.0801 84.3598C72.0801 84.3598 72.244 74.0879 77.6344 73.5411C83.0247 72.9943 86.1991 75.1599 87.2945 78.7193C88.3899 82.2788 87.2945 84.6332 87.2945 84.6332C86.1495 83.6734 85.2493 82.4559 84.6678 81.0809C84.1721 79.8754 83.7697 78.6337 83.4643 77.3668Z" fill="#3A384D"/>
<path d="M73.0435 88.491C73.9989 88.0379 74.2213 86.5105 73.5403 85.0794C72.8593 83.6483 71.5328 82.8554 70.5775 83.3085C69.6221 83.7616 69.3997 85.289 70.0807 86.7202C70.7616 88.1513 72.0881 88.9441 73.0435 88.491Z" fill="#F09959"/>
<path d="M86.2743 85.0908C85.5951 86.5297 85.8167 88.0495 86.7734 88.5082C87.73 88.9668 89.0542 88.1682 89.7352 86.7383C90.4162 85.3084 90.1946 83.7796 89.2379 83.321C88.2813 82.8623 86.9553 83.6609 86.2743 85.0908Z" fill="#F09959"/>
<path d="M82.8072 90.6172C82.8072 90.6172 81.5821 92.2011 80.0706 92.2011C78.5591 92.2011 77.334 90.6172 77.334 90.6172H82.8072Z" fill="white"/>
<path d="M88.7358 122.651H70.3596C69.8034 122.635 69.2755 122.403 68.8878 122.004C68.5001 121.606 68.2832 121.072 68.2832 120.517C68.2832 119.961 68.5001 119.428 68.8878 119.029C69.2755 118.631 69.8034 118.399 70.3596 118.383H88.7358C89.292 118.399 89.82 118.631 90.2077 119.029C90.5954 119.428 90.8122 119.961 90.8122 120.517C90.8122 121.072 90.5954 121.606 90.2077 122.004C89.82 122.403 89.292 122.635 88.7358 122.651Z" fill="#99BBEB"/>
<path d="M92.1007 129.206H66.9866C66.4304 129.189 65.9024 128.958 65.5147 128.559C65.127 128.161 64.9102 127.627 64.9102 127.072C64.9102 126.516 65.127 125.982 65.5147 125.584C65.9024 125.186 66.4304 124.954 66.9866 124.938H92.1007C92.6569 124.954 93.1849 125.186 93.5726 125.584C93.9603 125.982 94.1771 126.516 94.1771 127.072C94.1771 127.627 93.9603 128.161 93.5726 128.559C93.1849 128.958 92.6569 129.189 92.1007 129.206Z" fill="#99BBEB"/>
<path d="M110.087 152.78H48.9987C48.6779 152.768 48.3743 152.632 48.1517 152.402C47.9291 152.171 47.8047 151.863 47.8047 151.543C47.8047 151.222 47.9291 150.914 48.1517 150.683C48.3743 150.453 48.6779 150.317 48.9987 150.305H110.087C110.408 150.317 110.711 150.453 110.934 150.683C111.157 150.914 111.281 151.222 111.281 151.543C111.281 151.863 111.157 152.171 110.934 152.402C110.711 152.632 110.408 152.768 110.087 152.78Z" fill="#99BBEB"/>
<path d="M110.087 158.534H48.9987C48.6779 158.522 48.3743 158.386 48.1517 158.156C47.9291 157.925 47.8047 157.617 47.8047 157.296C47.8047 156.976 47.9291 156.668 48.1517 156.437C48.3743 156.207 48.6779 156.071 48.9987 156.059H110.087C110.408 156.071 110.711 156.207 110.934 156.437C111.157 156.668 111.281 156.976 111.281 157.296C111.281 157.617 111.157 157.925 110.934 158.156C110.711 158.386 110.408 158.522 110.087 158.534Z" fill="#99BBEB"/>
<path d="M110.087 164.292H48.9987C48.6779 164.28 48.3743 164.144 48.1517 163.913C47.9291 163.683 47.8047 163.375 47.8047 163.054C47.8047 162.734 47.9291 162.426 48.1517 162.195C48.3743 161.964 48.6779 161.829 48.9987 161.816H110.087C110.408 161.829 110.711 161.964 110.934 162.195C111.157 162.426 111.281 162.734 111.281 163.054C111.281 163.375 111.157 163.683 110.934 163.913C110.711 164.144 110.408 164.28 110.087 164.292Z" fill="#99BBEB"/>
<path d="M101.543 108.367H57.5442C56.9572 108.366 56.3942 108.133 55.9791 107.719C55.564 107.305 55.3306 106.743 55.3301 106.156V65.6714C55.3306 65.0853 55.564 64.5233 55.9791 64.1089C56.3942 63.6945 56.9572 63.4614 57.5442 63.4609H101.543C102.128 63.4633 102.69 63.6972 103.103 64.1114C103.517 64.5257 103.749 65.0866 103.75 65.6714V106.156C103.749 106.741 103.517 107.302 103.103 107.716C102.69 108.131 102.128 108.365 101.543 108.367ZM57.5442 65.2596C57.4353 65.2609 57.3311 65.3048 57.2541 65.3817C57.177 65.4587 57.1331 65.5626 57.1317 65.6714V106.156C57.1331 106.265 57.177 106.369 57.2541 106.446C57.3311 106.523 57.4353 106.567 57.5442 106.568H101.543C101.652 106.567 101.756 106.523 101.833 106.446C101.91 106.369 101.954 106.265 101.955 106.156V65.6714C101.954 65.5626 101.91 65.4587 101.833 65.3817C101.756 65.3048 101.652 65.2609 101.543 65.2596H57.5442Z" fill="#99BBEB"/>
<path d="M63.8935 134.773L65.1672 137.351L68.0156 137.763L65.9545 139.77L66.441 142.601L63.8935 141.265L61.3461 142.601L61.8325 139.77L59.7715 137.763L62.6198 137.351L63.8935 134.773Z" fill="#99BBEB"/>
<path d="M74.3271 134.773L75.6008 137.351L78.4491 137.763L76.3881 139.77L76.8746 142.601L74.3271 141.265L71.7797 142.601L72.2661 139.77L70.2051 137.763L73.0534 137.351L74.3271 134.773Z" fill="#99BBEB"/>
<path d="M84.7607 134.773L86.0344 137.351L88.8827 137.763L86.8217 139.77L87.3082 142.601L84.7607 141.265L82.2115 142.601L82.6997 139.77L80.6387 137.763L83.487 137.351L84.7607 134.773Z" fill="#99BBEB"/>
<path d="M95.1943 134.773L96.468 137.351L99.3163 137.763L97.2553 139.77L97.7417 142.601L95.1943 141.265L92.6469 142.601L93.1333 139.77L91.0723 137.763L93.9206 137.351L95.1943 134.773Z" fill="#99BBEB"/>
<path d="M292.441 55.9414H214.119V184.105H292.441V55.9414Z" fill="#99BBEB"/>
<path d="M289.864 58.5547H218.219V179.222H289.864V58.5547Z" fill="white"/>
<path d="M243.055 84.5938C243.055 90.3331 246.516 99.596 254.682 99.2992C262.849 99.0024 264.656 90.173 264.973 87.682C265.29 85.1909 243.055 84.5938 243.055 84.5938Z" fill="#7A4E34"/>
<path d="M239.65 106.945C242.353 101.151 246.911 99.2969 254.405 99.2969C263.329 99.2969 267.962 102.534 269.276 107.223C253.296 107.443 239.65 106.945 239.65 106.945Z" fill="#D54A41"/>
<path d="M255.887 103.919C255.031 105.178 254.406 105.23 253.478 103.919C252.741 102.876 251.289 100.501 251.289 99.3053V87.3103C251.29 86.7312 251.522 86.1762 251.932 85.7666C252.342 85.3571 252.898 85.1264 253.478 85.125H255.887C256.467 85.1264 257.023 85.3571 257.433 85.7666C257.843 86.1762 258.074 86.7312 258.076 87.3103V99.3071C258.076 100.507 256.652 102.789 255.887 103.919Z" fill="#F09959"/>
<path d="M255.887 85.125H253.478C252.898 85.1264 252.341 85.3574 251.931 85.7673C251.521 86.1772 251.29 86.7327 251.289 87.3121V98.0139C253.991 98.8736 256.461 97.1649 258.076 95.2404V87.3121C258.075 86.7327 257.844 86.1772 257.434 85.7673C257.023 85.3574 256.467 85.1264 255.887 85.125Z" fill="#E38540"/>
<path d="M254.681 95.1465C258.701 95.1465 261.959 90.7135 261.959 85.2451C261.959 79.7767 258.701 75.3438 254.681 75.3438C250.661 75.3438 247.402 79.7767 247.402 85.2451C247.402 90.7135 250.661 95.1465 254.681 95.1465Z" fill="#F09959"/>
<path d="M258.686 77.7181C257.821 80.7632 255.926 80.7272 253.281 81.7273C250.636 82.7273 249.375 83.7327 248.511 85.6842C247.406 88.1681 249.011 95.4111 249.011 95.4111C249.011 95.4111 242.319 90.4128 243.091 82.5492C243.864 74.6857 248.511 71.6406 252.879 71.6406C257.248 71.6406 258.913 74.299 258.913 74.299C258.913 74.299 261.241 74.3098 263.442 76.9124C266.402 80.4125 265.491 88.9127 263.442 91.9578C261.394 95.0028 260.019 95.9561 260.073 95.8212C260.127 95.6863 261.985 88.6915 260.985 84.3676C259.985 80.0438 258.686 77.7181 258.686 77.7181Z" fill="#7A4E34"/>
<path d="M257.425 90.6172C257.425 90.6172 256.199 92.2011 254.688 92.2011C253.176 92.2011 251.953 90.6172 251.953 90.6172H257.425Z" fill="white"/>
<path d="M263.346 122.652H244.97C244.684 122.66 244.399 122.611 244.133 122.508C243.866 122.404 243.623 122.248 243.418 122.049C243.213 121.85 243.05 121.612 242.938 121.349C242.827 121.086 242.77 120.803 242.77 120.518C242.77 120.232 242.827 119.95 242.938 119.686C243.05 119.423 243.213 119.185 243.418 118.986C243.623 118.787 243.866 118.632 244.133 118.528C244.399 118.424 244.684 118.375 244.97 118.384H263.346C263.902 118.4 264.43 118.632 264.818 119.03C265.206 119.429 265.423 119.962 265.423 120.518C265.423 121.073 265.206 121.607 264.818 122.005C264.43 122.404 263.902 122.636 263.346 122.652Z" fill="#99BBEB"/>
<path d="M266.713 129.207H241.601C241.315 129.215 241.03 129.166 240.764 129.062C240.497 128.959 240.254 128.803 240.049 128.604C239.844 128.405 239.681 128.167 239.569 127.904C239.458 127.641 239.4 127.358 239.4 127.072C239.4 126.787 239.458 126.504 239.569 126.241C239.681 125.978 239.844 125.74 240.049 125.541C240.254 125.342 240.497 125.186 240.764 125.083C241.03 124.979 241.315 124.93 241.601 124.938H266.713C267.269 124.955 267.797 125.186 268.185 125.585C268.573 125.983 268.79 126.517 268.79 127.072C268.79 127.628 268.573 128.162 268.185 128.56C267.797 128.958 267.269 129.19 266.713 129.207Z" fill="#99BBEB"/>
<path d="M284.699 152.781H223.613C223.446 152.788 223.279 152.76 223.123 152.701C222.967 152.642 222.825 152.551 222.705 152.436C222.584 152.32 222.489 152.182 222.423 152.028C222.358 151.875 222.324 151.71 222.324 151.543C222.324 151.377 222.358 151.212 222.423 151.059C222.489 150.905 222.584 150.767 222.705 150.651C222.825 150.535 222.967 150.445 223.123 150.386C223.279 150.327 223.446 150.299 223.613 150.306H284.699C284.866 150.299 285.033 150.327 285.189 150.386C285.345 150.445 285.487 150.535 285.607 150.651C285.728 150.767 285.823 150.905 285.889 151.059C285.954 151.212 285.988 151.377 285.988 151.543C285.988 151.71 285.954 151.875 285.889 152.028C285.823 152.182 285.728 152.32 285.607 152.436C285.487 152.551 285.345 152.642 285.189 152.701C285.033 152.76 284.866 152.788 284.699 152.781Z" fill="#99BBEB"/>
<path d="M284.699 158.535H223.613C223.446 158.542 223.279 158.514 223.123 158.455C222.967 158.396 222.825 158.305 222.705 158.19C222.584 158.074 222.489 157.936 222.423 157.782C222.358 157.629 222.324 157.464 222.324 157.297C222.324 157.131 222.358 156.966 222.423 156.812C222.489 156.659 222.584 156.52 222.705 156.405C222.825 156.289 222.967 156.199 223.123 156.14C223.279 156.08 223.446 156.053 223.613 156.059H284.699C284.866 156.053 285.033 156.08 285.189 156.14C285.345 156.199 285.487 156.289 285.607 156.405C285.728 156.52 285.823 156.659 285.889 156.812C285.954 156.966 285.988 157.131 285.988 157.297C285.988 157.464 285.954 157.629 285.889 157.782C285.823 157.936 285.728 158.074 285.607 158.19C285.487 158.305 285.345 158.396 285.189 158.455C285.033 158.514 284.866 158.542 284.699 158.535Z" fill="#99BBEB"/>
<path d="M284.699 164.293H223.613C223.446 164.299 223.279 164.272 223.123 164.213C222.967 164.153 222.825 164.063 222.705 163.948C222.584 163.832 222.489 163.693 222.423 163.54C222.358 163.387 222.324 163.222 222.324 163.055C222.324 162.889 222.358 162.724 222.423 162.57C222.489 162.417 222.584 162.278 222.705 162.163C222.825 162.047 222.967 161.957 223.123 161.898C223.279 161.838 223.446 161.811 223.613 161.817H284.699C284.866 161.811 285.033 161.838 285.189 161.898C285.345 161.957 285.487 162.047 285.607 162.163C285.728 162.278 285.823 162.417 285.889 162.57C285.954 162.724 285.988 162.889 285.988 163.055C285.988 163.222 285.954 163.387 285.889 163.54C285.823 163.693 285.728 163.832 285.607 163.948C285.487 164.063 285.345 164.153 285.189 164.213C285.033 164.272 284.866 164.299 284.699 164.293Z" fill="#99BBEB"/>
<path d="M276.161 108.367H232.156C231.568 108.366 231.006 108.133 230.59 107.719C230.175 107.305 229.942 106.743 229.941 106.156V65.6714C229.942 65.0853 230.175 64.5233 230.59 64.1089C231.006 63.6945 231.568 63.4614 232.156 63.4609H276.161C276.748 63.4614 277.311 63.6945 277.726 64.1089C278.141 64.5233 278.375 65.0853 278.375 65.6714V106.156C278.375 106.743 278.141 107.305 277.726 107.719C277.311 108.133 276.748 108.366 276.161 108.367ZM232.156 65.2596C232.047 65.2609 231.942 65.3048 231.865 65.3817C231.788 65.4587 231.744 65.5626 231.743 65.6714V106.156C231.744 106.265 231.788 106.369 231.865 106.446C231.942 106.523 232.047 106.567 232.156 106.568H276.161C276.27 106.567 276.374 106.523 276.451 106.446C276.528 106.369 276.572 106.265 276.574 106.156V65.6714C276.572 65.5626 276.528 65.4587 276.451 65.3817C276.374 65.3048 276.27 65.2609 276.161 65.2596H232.156Z" fill="#99BBEB"/>
<path d="M238.505 134.773L239.779 137.351L242.627 137.763L240.566 139.77L241.052 142.601L238.505 141.265L235.957 142.601L236.444 139.77L234.383 137.763L237.231 137.351L238.505 134.773Z" fill="#99BBEB"/>
<path d="M248.94 134.773L250.214 137.351L253.062 137.763L251.001 139.77L251.488 142.601L248.94 141.265L246.391 142.601L246.879 139.77L244.816 137.763L247.667 137.351L248.94 134.773Z" fill="#99BBEB"/>
<path d="M259.372 134.773L260.646 137.351L263.494 137.763L261.433 139.77L261.919 142.601L259.372 141.265L256.825 142.601L257.311 139.77L255.25 137.763L258.098 137.351L259.372 134.773Z" fill="#99BBEB"/>
<path d="M269.807 134.773L271.081 137.351L273.929 137.763L271.868 139.77L272.355 142.601L269.807 141.265L267.258 142.601L267.745 139.77L265.684 137.763L268.532 137.351L269.807 134.773Z" fill="#99BBEB"/>
<path opacity="0.2" d="M222.923 182.825H99.3164L108.06 56.418H227.381L222.923 182.825Z" fill="#99BBEB"/>
<path d="M219.277 32.5H112.301V207.552H219.277V32.5Z" fill="#99BBEB"/>
<path d="M215.761 36.0664H117.902V200.881H215.761V36.0664Z" fill="white"/>
<path d="M157.713 70.6844C157.644 70.4811 155.931 60.6625 155.731 56.8458C155.531 53.0292 161.878 52.4824 161.878 52.4824C161.878 52.4824 167.067 49.6874 170.823 51.119C174.579 52.5507 177.129 54.9591 178.842 57.9538C180.555 60.9485 177.341 70.3013 177.341 70.3013L157.713 70.6844Z" fill="#2E2D3D"/>
<path d="M145.938 102.227C145.915 102.065 146.378 98.2017 146.394 98.0452C147.259 89.9101 157.305 87.6133 167.327 87.6133C179.104 87.6133 187.094 89.7716 188.369 98.2251C188.407 98.4733 189.09 102.346 189.052 102.607C167.224 102.907 145.938 102.227 145.938 102.227Z" fill="#D5E1E8"/>
<path d="M169.35 93.9376C168.183 95.657 167.327 95.7362 166.06 93.9376C165.053 92.5148 161.691 89.2611 161.691 87.6226L163.071 71.2552C163.074 70.4644 163.389 69.7066 163.949 69.1473C164.509 68.5879 165.268 68.2724 166.06 68.2695H169.35C170.142 68.2719 170.902 68.5872 171.462 69.1466C172.022 69.7061 172.338 70.4641 172.341 71.2552L172.982 87.6226C172.982 89.2647 170.397 92.3961 169.35 93.9376Z" fill="#F09959"/>
<path d="M169.35 68.2656H166.06C165.268 68.2685 164.509 68.584 163.949 69.1434C163.389 69.7027 163.073 70.4605 163.071 71.2513L161.873 85.7751C165.566 86.9496 170.553 84.5629 172.758 81.9351L172.34 71.2513C172.338 70.4602 172.022 69.7021 171.462 69.1427C170.901 68.5833 170.142 68.268 169.35 68.2656Z" fill="#E38540"/>
<path d="M156.418 88.8175L161.691 98.548C161.691 98.548 164.513 96.2296 164.786 96.6846C165.06 97.1397 164.286 102.875 164.286 102.875C164.286 102.875 170.568 102.96 170.841 102.696C171.115 102.431 169.566 96.4652 170.204 96.4652C170.841 96.4652 172.758 98.1937 172.758 98.1937L178.646 88.8265L177.352 88.5117L167.707 93.6845L157.391 88.616L156.418 88.8175Z" fill="#BDCCD4"/>
<path d="M162.447 93.2986L166.364 95.921L165.15 102.883L170.43 102.59L169.111 96.2555L172.358 93.2986L170.834 91.8633H163.971L162.447 93.2986Z" fill="#D54A41"/>
<path d="M161.964 84.0488L157.121 88.6497C157.121 88.6497 162.056 97.4107 162.328 97.4107C162.6 97.4107 166.516 92.5796 166.516 92.5796L169.022 92.5365L172.986 96.6841L177.585 88.5579L172.901 83.5938C172.901 83.5938 168.894 91.3278 168.167 91.5077C167.439 91.6875 167.433 91.781 166.844 91.3278C166.255 90.8745 161.964 84.0488 161.964 84.0488Z" fill="#D5E1E8"/>
<path d="M167.705 81.9538C173.195 81.9538 177.646 75.899 177.646 68.43C177.646 60.9611 173.195 54.9062 167.705 54.9062C162.214 54.9062 157.764 60.9611 157.764 68.43C157.764 75.899 162.214 81.9538 167.705 81.9538Z" fill="#F09959"/>
<path d="M158.781 68.2203C159.711 70.1754 159.407 72.2618 158.1 72.8806C156.794 73.4993 154.984 72.4165 154.054 70.4614C153.124 68.5063 153.429 66.4217 154.733 65.803C156.038 65.1843 157.852 66.267 158.781 68.2203Z" fill="#F09959"/>
<path d="M176.173 68.2203C175.244 70.1754 175.548 72.2618 176.852 72.8806C178.157 73.4993 179.969 72.4165 180.899 70.4614C181.828 68.5063 181.526 66.4217 180.22 65.803C178.913 65.1843 177.11 66.267 176.173 68.2203Z" fill="#F09959"/>
<path d="M172.115 73.9805C172.115 73.9805 170.134 77.173 167.705 77.173C165.277 77.173 163.295 73.9805 163.295 73.9805H172.115Z" fill="white"/>
<path d="M161.872 59.2302C165.969 56.3668 167.818 56.8452 170.88 61.5486C173.943 66.252 177.642 66.3365 177.642 66.3365L178.119 61.4587C178.119 61.4587 173.541 52.6167 167.396 53.7768C161.251 54.9369 157.758 60.4587 157.758 60.4587C157.758 60.4587 157.458 70.8079 158.316 71.1622C159.174 71.5165 159.271 67.8204 159.885 67.0704C160.5 66.3203 159.271 62.7753 160.091 61.1349C160.91 59.4946 161.872 59.2302 161.872 59.2302Z" fill="#2E2D3D"/>
<path d="M175.051 64.5469C176.481 66.1099 175.939 72.3187 176.69 72.2503C177.441 72.182 177.715 66.3149 177.51 65.7052C177.305 65.0955 175.051 64.5469 175.051 64.5469Z" fill="#2E2D3D"/>
<path d="M189.819 123.611H144.153C143.391 123.593 142.667 123.277 142.135 122.733C141.602 122.188 141.305 121.458 141.305 120.697C141.305 119.936 141.602 119.206 142.135 118.661C142.667 118.116 143.391 117.801 144.153 117.782H189.819C190.209 117.772 190.596 117.841 190.959 117.983C191.322 118.125 191.652 118.338 191.931 118.61C192.21 118.881 192.431 119.206 192.583 119.564C192.734 119.923 192.812 120.308 192.812 120.697C192.812 121.086 192.734 121.471 192.583 121.829C192.431 122.188 192.21 122.512 191.931 122.784C191.652 123.055 191.322 123.269 190.959 123.411C190.596 123.553 190.209 123.621 189.819 123.611Z" fill="#99BBEB"/>
<path d="M184.137 132.568H149.837C149.447 132.578 149.06 132.51 148.697 132.368C148.334 132.226 148.004 132.012 147.725 131.741C147.446 131.469 147.224 131.145 147.073 130.786C146.922 130.428 146.844 130.043 146.844 129.654C146.844 129.265 146.922 128.88 147.073 128.521C147.224 128.163 147.446 127.838 147.725 127.567C148.004 127.295 148.334 127.082 148.697 126.94C149.06 126.798 149.447 126.73 149.837 126.739H184.137C184.899 126.758 185.623 127.073 186.155 127.618C186.687 128.163 186.985 128.893 186.985 129.654C186.985 130.415 186.687 131.145 186.155 131.69C185.623 132.234 184.899 132.55 184.137 132.568Z" fill="#99BBEB"/>
<path d="M208.705 164.772H125.268C125.045 164.772 124.825 164.728 124.62 164.643C124.414 164.558 124.227 164.434 124.07 164.277C123.913 164.12 123.788 163.933 123.703 163.728C123.618 163.523 123.574 163.303 123.574 163.081C123.574 162.859 123.618 162.639 123.703 162.434C123.788 162.229 123.913 162.043 124.07 161.886C124.227 161.729 124.414 161.604 124.62 161.519C124.825 161.434 125.045 161.391 125.268 161.391H208.705C208.927 161.391 209.147 161.434 209.353 161.519C209.558 161.604 209.745 161.729 209.902 161.886C210.059 162.043 210.184 162.229 210.269 162.434C210.354 162.639 210.398 162.859 210.398 163.081C210.398 163.303 210.354 163.523 210.269 163.728C210.184 163.933 210.059 164.12 209.902 164.277C209.745 164.434 209.558 164.558 209.353 164.643C209.147 164.728 208.927 164.772 208.705 164.772Z" fill="#99BBEB"/>
<path d="M208.705 172.631H125.268C124.819 172.631 124.388 172.453 124.07 172.136C123.753 171.819 123.574 171.389 123.574 170.941C123.574 170.492 123.753 170.062 124.07 169.745C124.388 169.428 124.819 169.25 125.268 169.25H208.705C209.154 169.25 209.585 169.428 209.902 169.745C210.22 170.062 210.398 170.492 210.398 170.941C210.398 171.389 210.22 171.819 209.902 172.136C209.585 172.453 209.154 172.631 208.705 172.631Z" fill="#99BBEB"/>
<path d="M208.706 180.493H125.269C124.829 180.478 124.412 180.294 124.106 179.978C123.8 179.662 123.629 179.24 123.629 178.801C123.629 178.362 123.8 177.94 124.106 177.624C124.412 177.308 124.829 177.124 125.269 177.109H208.706C209.146 177.124 209.563 177.308 209.869 177.624C210.175 177.94 210.346 178.362 210.346 178.801C210.346 179.24 210.175 179.662 209.869 179.978C209.563 180.294 209.146 180.478 208.706 180.493Z" fill="#99BBEB"/>
<path d="M197.034 103.771H136.937C136.22 103.771 135.533 103.487 135.026 102.981C134.519 102.475 134.234 101.789 134.234 101.073V45.7839C134.234 45.0683 134.519 44.3821 135.026 43.8761C135.533 43.3702 136.22 43.0859 136.937 43.0859H197.034C197.751 43.0859 198.438 43.3702 198.945 43.8761C199.452 44.3821 199.737 45.0683 199.737 45.7839V101.08C199.735 101.795 199.449 102.479 198.942 102.984C198.436 103.488 197.75 103.771 197.034 103.771ZM136.937 44.8917C136.698 44.8917 136.469 44.9865 136.3 45.1552C136.131 45.3238 136.036 45.5525 136.036 45.7911V101.08C136.036 101.319 136.131 101.548 136.3 101.716C136.469 101.885 136.698 101.98 136.937 101.98H197.034C197.273 101.98 197.502 101.885 197.671 101.716C197.84 101.548 197.935 101.319 197.935 101.08V45.7839C197.935 45.5453 197.84 45.3166 197.671 45.148C197.502 44.9793 197.273 44.8846 197.034 44.8846L136.937 44.8917Z" fill="#99BBEB"/>
<path d="M138.37 140.168L140.111 143.688L144 144.251L141.186 146.992L141.851 150.859L138.37 149.033L134.891 150.859L135.554 146.992L132.74 144.251L136.63 143.688L138.37 140.168Z" fill="#99BBEB"/>
<path d="M152.622 140.168L154.362 143.688L158.252 144.251L155.438 146.992L156.103 150.859L152.622 149.033L149.143 150.859L149.808 146.992L146.992 144.251L150.884 143.688L152.622 140.168Z" fill="#99BBEB"/>
<path d="M166.872 140.168L168.612 143.688L172.504 144.251L169.688 146.992L170.353 150.859L166.872 149.033L163.393 150.859L164.058 146.992L161.242 144.251L165.134 143.688L166.872 140.168Z" fill="#99BBEB"/>
<path d="M181.124 140.168L182.862 143.688L186.754 144.251L183.938 146.992L184.603 150.859L181.124 149.033L177.643 150.859L178.308 146.992L175.492 144.251L179.384 143.688L181.124 140.168Z" fill="#99BBEB"/>
<path d="M195.601 140.168L197.341 143.688L201.232 144.251L198.417 146.992L199.081 150.859L195.601 149.033L192.122 150.859L192.787 146.992L189.971 144.251L193.862 143.688L195.601 140.168Z" fill="#99BBEB"/>
<path d="M391.089 196.707H253.814C252.989 196.707 252.32 197.375 252.32 198.198V200.434C252.32 201.257 252.989 201.925 253.814 201.925H391.089C391.914 201.925 392.583 201.257 392.583 200.434V198.198C392.583 197.375 391.914 196.707 391.089 196.707Z" fill="#2E5B9A"/>
<path d="M426.433 126.776C428.293 133.321 423.751 140.068 418.746 141.485C413.741 142.903 410.17 138.455 408.311 131.908C406.452 125.361 408.999 118.905 414.004 117.488C419.009 116.071 424.572 120.227 426.433 126.776Z" fill="#F09959"/>
<path d="M398.376 253.633C398.376 253.633 411.201 273.52 412.934 274.383C414.668 275.247 418.997 275.463 417.372 278.7C415.747 281.938 415.098 294.697 413.588 295.344C412.079 295.992 399.082 297.503 401.03 295.344C402.977 293.186 404.177 294.265 405.161 290.373C406.144 286.481 407.526 279.134 405.685 277.619C403.844 276.105 392.58 262.498 392.58 262.498L398.376 253.633Z" fill="#F09959"/>
<path d="M333.825 262.172C333.825 262.172 318.236 287.826 315.348 290.131C312.46 292.437 302.933 295.887 310.729 296.471C318.524 297.056 322.277 293.878 327.184 292.437C332.092 290.996 338.156 290.131 335.846 286.383C333.537 282.635 334.495 274.456 339.475 269.269C344.454 264.082 333.825 262.172 333.825 262.172Z" fill="#F09959"/>
<path d="M413.386 202.687C413.386 202.687 374.792 201.68 359.491 214.216C350.541 227.764 328.89 267.734 327.205 272.132C328.36 273.285 334.856 275.369 337.744 275.078C346.261 264.939 357.519 256.174 361.996 248.221C367.512 238.422 369.213 233.521 378.163 232.656C387.113 231.791 407.324 228.909 413.386 228.909C419.448 228.909 413.386 202.687 413.386 202.687Z" fill="#395987"/>
<path d="M447.041 296.54H445.018L430.512 236.113H434.962L447.041 296.54Z" fill="#2E5B9A"/>
<path d="M386.439 296.54H388.463L405.109 233.977H400.659L386.439 296.54Z" fill="#2E5B9A"/>
<path d="M435.371 200.047L412.934 203.914C412.934 203.914 383.116 204.187 369.487 206.722C357.087 209.027 355.255 223.089 369.487 242.462C377.569 253.466 384.403 262.247 398.376 272.139C401.93 269.535 403.291 268.542 404.272 262.279C403.262 260.894 400.644 252.23 399.832 250.534C392.101 234.404 381.785 228.539 381.635 226.951C383.369 224.141 427.52 241.598 436.298 231.33C444.686 221.522 435.371 200.047 435.371 200.047Z" fill="#476897"/>
<path d="M436.303 149.334C430.394 148.504 424.377 149.627 418.747 153.695C413.829 158.701 408.263 166.955 408.604 180.572C409.036 197.866 405.923 198.975 409.171 203.731C422.718 209.306 445.884 233.309 440.429 207.587C436.478 188.961 449.093 175.077 438.917 154.416C438.089 152.735 437.053 151.103 436.303 149.334Z" fill="#F2B45A"/>
<path d="M408.599 187.081C408.336 196.098 407.061 198.752 408.035 201.58C413.557 202.143 423.659 204.348 426.183 207.875C429.065 211.909 431.959 212.487 430.611 209.508C429.264 206.529 425.702 202.303 431.188 187.795C436.673 173.288 439.271 163.487 433.89 153.398L408.599 187.081Z" fill="#D28E2A"/>
<path d="M436.303 149.333C432.665 140.732 431.772 131.07 431.772 131.07L422.243 133.88C422.243 133.88 427.657 145.986 422.461 150.308C421.166 151.373 419.926 152.503 418.746 153.695C424.376 149.627 430.393 148.504 436.303 149.333Z" fill="#F09959"/>
<path d="M432.058 133.355C431.494 132.853 430.797 132.229 430.046 131.574L422.27 133.869L422.254 133.912C422.434 134.34 424.416 138.949 424.681 143.386C426.996 141.985 429.532 139.697 432.427 135.702C432.28 134.815 432.155 134.026 432.058 133.355Z" fill="#E38540"/>
<path d="M429.607 152.038C419.794 155.456 420.882 165.783 411.852 180.996C407.168 188.874 402.845 188.755 402.845 188.755C394.749 188.714 386.663 188.203 378.628 187.225C370.324 186.212 369.8 188.68 375.565 190.739C387.209 194.896 399.294 199.373 409.037 198.293C418.78 197.214 435.446 172.393 436.304 165.933C437.493 157.001 434.549 150.312 429.607 152.038Z" fill="#F09959"/>
<path d="M424.554 238.633C423.943 238.633 423.32 238.633 422.679 238.61C414.681 238.414 409.237 237.31 404.865 236.421C399.757 235.385 396.938 234.815 393.669 236.376C393.37 236.526 393.043 236.614 392.709 236.636C392.375 236.659 392.039 236.614 391.723 236.505C391.406 236.397 391.114 236.226 390.864 236.004C390.614 235.781 390.41 235.511 390.266 235.21C390.122 234.908 390.039 234.58 390.023 234.246C390.006 233.912 390.057 233.578 390.171 233.264C390.286 232.95 390.462 232.661 390.689 232.415C390.916 232.17 391.19 231.972 391.495 231.833C396.293 229.543 400.31 230.358 405.868 231.486C410.048 232.335 415.251 233.391 422.803 233.576C431.256 233.786 436.409 232.534 439.017 229.642C441.345 227.065 442.026 222.736 441.161 216.018C440.866 213.717 440.568 211.805 440.307 210.118C439.57 205.357 439.082 202.204 439.686 197.348C440.246 192.834 441.743 186.821 445.213 175.159C445.308 174.842 445.464 174.546 445.673 174.29C445.882 174.033 446.139 173.82 446.431 173.663C446.722 173.505 447.042 173.407 447.371 173.373C447.701 173.339 448.034 173.37 448.351 173.464C448.669 173.559 448.965 173.715 449.222 173.923C449.479 174.132 449.692 174.389 449.85 174.68C450.007 174.971 450.106 175.29 450.14 175.619C450.174 175.948 450.143 176.281 450.048 176.598C443.584 198.328 443.912 200.444 445.292 209.352C445.559 211.07 445.86 213.016 446.164 215.379C447.231 223.664 446.152 229.27 442.765 233.018C439.28 236.876 433.621 238.633 424.554 238.633Z" fill="#2E5B9A"/>
<path d="M334.893 283.793C324.549 288.843 318.98 291.739 315.663 291.462C314.881 291.398 314.233 291.318 313.681 291.232C309.992 293.41 304.102 295.982 310.729 296.471C318.524 297.049 322.277 293.878 327.184 292.437C332.092 290.996 338.156 290.131 335.846 286.383C335.378 285.583 335.055 284.706 334.893 283.793Z" fill="#F2B45A"/>
<path d="M414.063 274.805C413.809 282.981 412.683 291.084 407.675 292.611C406.511 292.978 405.282 293.088 404.072 292.933C403.282 293.906 402.322 293.917 401.03 295.347C399.083 297.505 412.074 295.996 413.589 295.347C415.104 294.697 415.751 281.945 417.373 278.702C418.708 276.042 416.023 275.422 414.063 274.805Z" fill="#F2B45A"/>
<path d="M374.215 197.419H341.353C340.872 197.419 340.401 197.282 339.996 197.024C339.59 196.766 339.267 196.398 339.065 195.962L325.785 167.427C325.512 166.823 325.489 166.136 325.721 165.515C325.952 164.894 326.42 164.389 327.022 164.11C327.624 163.83 328.312 163.799 328.936 164.023C329.561 164.247 330.073 164.707 330.359 165.305L342.971 192.383H374.224C374.893 192.383 375.535 192.649 376.008 193.121C376.481 193.593 376.747 194.233 376.747 194.901C376.747 195.569 376.481 196.21 376.008 196.682C375.535 197.154 374.893 197.419 374.224 197.419H374.215Z" fill="#75A1DE"/>
<path d="M381.091 187.517C374.451 187.422 367.864 183.47 364.592 184.046C361.321 184.621 350.639 192.021 351.981 192.308C353.323 192.596 361.796 188.215 362.085 188.148C362.373 188.082 364.203 191.182 368.725 192.323C373.247 193.463 368.758 188.938 382.778 193.166C391.901 195.915 381.091 187.517 381.091 187.517Z" fill="#F09959"/>
<path d="M435.326 141.484L436.303 149.334C436.303 149.334 427.711 149.844 423.434 152.245C419.157 154.647 412.848 161.595 412.848 161.595L418.004 152.733L418.746 147.064L435.326 141.484Z" fill="#F2E5DE"/>
<path d="M431.669 151.091C425.288 149.896 422.335 155.607 418.197 164.926C414.058 174.244 406.994 185.565 405.585 187.023C404.177 188.482 381.911 187.023 381.911 187.023C381.911 187.023 381.237 193.461 381.911 194.23C382.585 195 386.435 194.901 386.435 194.901C386.435 194.901 387.975 196.13 389.418 197.101C390.861 198.072 403.083 199.898 408.762 199.61C414.44 199.322 419.636 198.842 420.405 197.977C421.175 197.112 436.683 173.284 437.636 164.733C438.589 156.183 434.926 151.7 431.669 151.091Z" fill="#F2E5DE"/>
<path d="M412.848 111.895C400.777 112.471 402.67 130.601 402.67 130.601C402.67 130.601 405.805 131.567 412.374 130.486C411.869 128.54 412.086 123.568 412.086 123.568C412.086 123.568 412.848 127.603 413.817 130.054C415.206 130.689 416.777 130.126 419.447 129.48C420.82 135.236 424.695 137.675 427.347 138.508C430.28 139.428 433.382 140.526 436.847 138.797C440.311 137.069 438.407 119.388 436.566 115.834C433.806 110.498 429.215 105.722 421.275 108.244C417.294 109.508 412.848 111.895 412.848 111.895Z" fill="#303C60"/>
<path d="M433.84 133.424L438.774 140.619C438.774 140.619 433.305 154.263 449.213 160.443C461.671 165.285 460.203 173.814 454.574 182.386C448.946 190.958 457.942 198.467 457.942 198.467C457.942 198.467 459.314 188.965 471.419 187.172C487.924 184.726 492.597 162.605 480.269 151.543C470.068 142.389 466.964 149.97 460.058 141.755C453.153 133.541 440.118 139.09 440.118 139.09L435.341 132.133L433.84 133.424Z" fill="#303C60"/>
<path d="M485.947 173.826C485.871 173.826 485.796 173.806 485.73 173.769C485.663 173.731 485.608 173.677 485.569 173.611C485.53 173.546 485.509 173.471 485.508 173.395C485.507 173.319 485.525 173.244 485.562 173.177C489.705 165.605 486.326 156.432 484.623 153.946C484.443 153.683 484.263 153.406 484.083 153.133C482.409 150.527 480.326 147.28 469.212 145.284C466.537 144.802 464.37 143.214 462.076 141.532C457.336 138.059 451.966 134.124 440.295 139.485C440.191 139.521 440.078 139.517 439.977 139.474C439.876 139.431 439.795 139.351 439.75 139.251C439.705 139.151 439.699 139.038 439.733 138.934C439.767 138.83 439.839 138.742 439.935 138.688C452.074 133.113 457.668 137.21 462.602 140.827C464.813 142.446 466.899 143.976 469.376 144.424C480.865 146.489 483.068 149.914 484.828 152.665C485.009 152.941 485.174 153.205 485.347 153.455C487.131 156.059 490.678 165.669 486.333 173.599C486.295 173.668 486.239 173.725 486.171 173.765C486.103 173.805 486.026 173.826 485.947 173.826Z" fill="#303C60"/>
<path d="M431.204 140.798C430.346 140.792 429.489 140.724 428.64 140.593C424.418 139.96 418.752 137.564 418.308 124.11C418.303 124.051 418.31 123.991 418.329 123.934C418.347 123.878 418.378 123.825 418.417 123.781C418.457 123.736 418.505 123.7 418.559 123.674C418.613 123.649 418.672 123.635 418.732 123.633C418.792 123.631 418.851 123.641 418.907 123.663C418.962 123.685 419.013 123.718 419.055 123.76C419.098 123.802 419.131 123.852 419.154 123.907C419.176 123.962 419.187 124.022 419.186 124.081C419.366 129.627 420.47 133.731 422.461 136.278C423.973 138.211 425.978 139.308 428.767 139.726C432.676 140.31 435.267 139.589 436.467 137.584C436.526 137.483 436.623 137.411 436.737 137.382C436.85 137.354 436.97 137.371 437.07 137.431C437.17 137.49 437.243 137.587 437.272 137.7C437.3 137.813 437.283 137.933 437.223 138.033C436.122 139.873 434.103 140.798 431.204 140.798Z" fill="#303C60"/>
<path d="M267.033 296.539H270.276L282.893 200.258H275.758L267.033 296.539Z" fill="#2E5B9A"/>
<path d="M377.084 296.539H373.841L361.225 200.258H368.361L377.084 296.539Z" fill="#2E5B9A"/>
<path d="M504.267 215.27C509.877 220.385 507.438 225.498 503.291 234.999C499.144 244.499 498.412 279.568 498.412 279.568L501.835 279.081C501.835 279.081 501.347 243.035 505.979 233.293C510.611 223.552 512.565 218.68 516.713 221.845C520.86 225.011 504.267 215.27 504.267 215.27Z" fill="#74B570"/>
<path d="M501.181 208.649C501.862 205.618 505.908 202.338 511.32 199.557C510.515 204.027 507.935 211.336 510.599 212.836C514.202 214.858 510.951 204.652 512.34 199.043C517.678 196.47 523.335 194.618 529.163 193.533L529.141 193.595C525.969 201.633 521.821 204.798 523.529 206.016C524.814 206.933 528.999 197.649 534.519 192.886C538.663 192.665 542.176 193.226 544.247 194.864C547.456 197.4 549.609 199.651 546.382 207.372C544.539 208.689 542.15 209.631 539.376 209.908C532.058 210.638 528.642 210.883 533.766 213.325C536.274 214.518 540.479 213.257 543.889 212.491C542.783 214.525 541.423 216.827 539.771 219.451C538.789 221.022 537.642 222.482 536.348 223.808C533.989 224.259 531.932 224.265 530.844 223.799C527.421 222.336 518.645 217.709 516.449 219.662C514.301 221.57 532.716 222.777 531.438 227.624C522.513 232.758 512.3 230.322 510.495 225.601C508.086 219.263 499.134 217.773 501.181 208.649Z" fill="#9CD499"/>
<path d="M519.637 243.282C509.878 235.974 499.875 242.794 494.753 250.588C489.631 258.381 493.289 275.918 493.289 275.918C493.289 275.918 495.24 275.918 495.24 275.187C495.24 274.457 489.873 254.485 502.56 245.472C510.495 239.836 516.221 242.55 516.952 245.23C517.684 247.909 513.782 252.784 513.782 252.784L519.637 243.282Z" fill="#74B570"/>
<path d="M497.194 228.262C506.951 228.262 510.124 243.37 507.44 252.131C504.755 260.892 501.096 277.216 501.096 277.216L498.659 274.781C498.659 274.781 507.93 251.887 505.733 241.658C503.537 231.429 498.167 229.722 497.196 229.722C496.225 229.722 497.194 228.262 497.194 228.262Z" fill="#9CD499"/>
<path d="M505.377 252.197C506.047 251.283 506.928 250.543 507.944 250.039C507.815 250.744 507.646 251.441 507.438 252.127C506.215 256.122 504.79 261.683 503.601 266.556C503.493 265.932 503.327 264.969 503.06 263.487C502.999 263.128 502.952 262.755 502.918 262.352C503.925 259.015 504.746 255.625 505.377 252.197Z" fill="#74B570"/>
<path d="M508.047 252.268C526.587 244.475 516.819 233.779 533.164 240.842C534.316 241.34 535.719 242.595 537.128 244.324C535.452 244.833 533.686 244.974 531.95 244.739C527.07 244.009 528.777 247.905 536.829 248.876C538.111 249.006 539.376 249.273 540.601 249.671C544.437 257.026 546.165 266.702 538.048 270.066C536.449 270.729 534.472 271.107 532.271 271.249C529.767 269.271 532.883 257.759 529.028 259.349C525.32 260.873 530.188 269.208 529.522 271.307C525.863 271.24 521.811 270.645 517.939 269.688C516.408 268.832 515.237 267.682 514.876 266.17C513.657 261.056 521.706 257.896 521.951 253.506C522.175 249.475 519 262.373 510.589 264.27C502.982 260.725 499.379 255.912 508.047 252.268Z" fill="#9CD499"/>
<path d="M494.834 238.491C496.785 234.354 491.662 233.377 491.907 236.543C492.123 239.349 492.146 246.169 489.264 248.025C484.293 247.485 477.53 245.487 472.419 242.449C472.353 242.014 472.428 241.569 472.633 241.179C474.83 236.794 488.979 233.142 484.587 231.681C481.09 230.517 474.961 237.386 470.023 240.854C467.057 238.607 465.07 235.929 465.07 232.94C465.07 228.893 469.996 224.307 476.364 222.123C479.231 222.413 481.892 223.978 486.052 226.33C492.195 229.805 490.774 224.186 484.971 220.852C489.984 221.111 494.984 223.249 498.672 228.359C498.672 228.359 498.322 230.543 500.637 233.922C506.955 243.138 499.664 248.52 490.95 248.169C491.438 245.725 493.485 241.352 494.834 238.491Z" fill="#9CD499"/>
<path d="M519.051 242.867C523.821 246.547 529.122 250.851 535.625 253.774C542.129 256.696 540.83 266.222 540.83 266.222C540.83 266.222 541.805 257.995 536.384 255.18C530.963 252.365 527.385 249.011 523.265 248.36C519.144 247.709 516.867 247.061 516.867 247.061C516.867 247.061 518.168 244.464 517.408 243.489C516.647 242.514 519.051 242.867 519.051 242.867Z" fill="#74B570"/>
<path d="M542.566 199.645C525.108 204.299 512.314 215.451 509.928 218.156C507.543 220.861 507.543 221.62 507.543 221.62L509.386 225.084L510.253 224.652C510.253 224.652 508.844 221.728 512.53 217.94C518.888 211.406 526.625 206.249 531.94 203.976C537.255 201.702 542.566 199.645 542.566 199.645Z" fill="#74B570"/>
<path d="M501.047 296.117H494.381C492.103 296.117 489.919 295.214 488.308 293.606C486.697 291.998 485.793 289.817 485.793 287.543V272.244H509.635V287.543C509.635 289.817 508.73 291.998 507.119 293.606C505.509 295.214 503.324 296.117 501.047 296.117Z" fill="#75A1DE"/>
<path d="M509.633 274.98H485.789V276.656H509.633V274.98Z" fill="white"/>
<path d="M509.633 278.035H485.789V279.02H509.633V278.035Z" fill="white"/>
<path d="M59.4115 275.289H65.0991C66.301 275.289 67.2754 274.316 67.2754 273.116V268.44C67.2754 267.24 66.301 266.267 65.0991 266.267H59.4115C58.2095 266.267 57.2351 267.24 57.2351 268.44V273.116C57.2351 274.316 58.2095 275.289 59.4115 275.289Z" fill="#395987"/>
<path d="M41.1556 275.289H46.8432C48.0452 275.289 49.0195 274.316 49.0195 273.116V268.44C49.0195 267.24 48.0452 266.267 46.8432 266.267H41.1556C39.9537 266.267 38.9793 267.24 38.9793 268.44V273.116C38.9793 274.316 39.9537 275.289 41.1556 275.289Z" fill="#395987"/>
<path d="M22.8978 275.289H28.5854C29.7873 275.289 30.7617 274.316 30.7617 273.116V268.44C30.7617 267.24 29.7873 266.267 28.5854 266.267H22.8978C21.6958 266.267 20.7215 267.24 20.7215 268.44V273.116C20.7215 274.316 21.6958 275.289 22.8978 275.289Z" fill="#395987"/>
<path d="M542.422 101.492V107.172C542.422 107.748 542.193 108.3 541.784 108.708C541.376 109.115 540.823 109.344 540.246 109.344H535.561C534.984 109.344 534.431 109.115 534.023 108.708C533.614 108.3 533.385 107.748 533.385 107.172V101.492C533.387 100.916 533.616 100.365 534.024 99.9587C534.432 99.5524 534.985 99.3242 535.561 99.3242H540.246C540.822 99.3237 541.375 99.5518 541.783 99.9582C542.191 100.365 542.421 100.916 542.422 101.492Z" fill="#395987"/>
<path d="M542.422 119.714V125.394C542.422 125.68 542.366 125.963 542.256 126.228C542.146 126.492 541.985 126.732 541.782 126.934C541.58 127.136 541.339 127.295 541.074 127.404C540.809 127.513 540.525 127.568 540.238 127.567H535.554C534.98 127.563 534.43 127.333 534.025 126.926C533.62 126.518 533.392 125.968 533.392 125.394V119.714C533.394 119.141 533.622 118.592 534.027 118.186C534.431 117.781 534.98 117.551 535.554 117.547H540.238C540.524 117.546 540.808 117.601 541.072 117.709C541.337 117.818 541.578 117.977 541.781 118.178C541.983 118.38 542.144 118.619 542.254 118.882C542.365 119.146 542.421 119.429 542.422 119.714Z" fill="#395987"/>
<path d="M542.422 137.941V143.621C542.422 144.197 542.193 144.749 541.785 145.156C541.377 145.563 540.824 145.792 540.247 145.792H535.563C534.986 145.792 534.432 145.563 534.024 145.155C533.616 144.748 533.387 144.195 533.387 143.619V137.939C533.388 137.364 533.618 136.813 534.026 136.407C534.433 136.001 534.986 135.773 535.561 135.773H540.246C540.822 135.773 541.375 136.001 541.783 136.407C542.191 136.814 542.421 137.365 542.422 137.941Z" fill="#395987"/>
</g>
<defs>
<clipPath id="clip0_5488_43664">
<rect width="548" height="307" fill="white"/>
</clipPath>
</defs>
</svg>
