<svg width="584" height="307" viewBox="0 0 584 307" fill="none" xmlns="http://www.w3.org/2000/svg">
<g clip-path="url(#clip0_5488_43412)">
<path d="M90.8367 305.609C90.8367 305.609 27.1873 317.253 6.93321 273.203C-19.3512 216.055 34.6502 172.726 76.0661 180.799C166.313 198.389 144.582 4.30921 289.416 43.9256C330.143 55.0641 440.178 -11.0955 470.868 94.9855C478.164 120.21 504.02 122.989 541.554 138.999C615.008 170.325 581.423 306.141 528.935 306.675C476.447 307.209 90.8367 305.609 90.8367 305.609Z" fill="#EBF2F9"/>
<path d="M406.458 306.367H443.941V167.226H406.458V306.367Z" fill="#D28E2A"/>
<path d="M388.958 306.367H416.5V167.226H388.958V306.367Z" fill="#F2B45A"/>
<path d="M403.189 297.75C406.585 297.75 409.338 295.007 409.338 291.625C409.338 288.242 406.585 285.5 403.189 285.5C399.794 285.5 397.041 288.242 397.041 291.625C397.041 295.007 399.794 297.75 403.189 297.75Z" fill="#D28E2A"/>
<path d="M461.443 306.367H498.926V167.226H461.443V306.367Z" fill="#699DEE"/>
<path d="M443.94 306.367H471.482V167.226H443.94V306.367Z" fill="#AFCDFB"/>
<path d="M458.176 297.75C461.571 297.75 464.324 295.007 464.324 291.625C464.324 288.242 461.571 285.5 458.176 285.5C454.78 285.5 452.027 288.242 452.027 291.625C452.027 295.007 454.78 297.75 458.176 297.75Z" fill="#699DEE"/>
<path d="M464.324 181.387H452.027V254.418H464.324V181.387Z" fill="white"/>
<path d="M515.784 306.367H553.268V167.226H515.784V306.367Z" fill="#D28E2A"/>
<path d="M498.28 306.367H525.822V167.226H498.28V306.367Z" fill="#F2B45A"/>
<path d="M512.516 297.75C515.911 297.75 518.664 295.007 518.664 291.625C518.664 288.242 515.911 285.5 512.516 285.5C509.12 285.5 506.367 288.242 506.367 291.625C506.367 295.007 509.12 297.75 512.516 297.75Z" fill="#D28E2A"/>
<path d="M518.664 181.387H506.367V254.418H518.664V181.387Z" fill="white"/>
<path d="M408.877 182.32H396.58V255.352H408.877V182.32Z" fill="white"/>
<path d="M316.473 140.263L329.69 296.8C329.69 296.8 331.075 306.289 323.988 306.307C312.339 306.333 266.004 306.307 266.004 306.307C266.004 306.307 274.772 304.33 274.665 299.886C274.541 294.656 259.219 138.781 259.219 138.781L316.473 140.263Z" fill="#5C7FAF"/>
<path d="M262.253 303.465C264.546 303.465 308.8 303.611 320.146 303.465C325.091 303.404 325.957 299.086 325.999 296.292C326.014 295.512 325.963 294.732 325.848 293.961L325.505 289.893L324.63 279.524L323.858 270.372L322.862 258.606L322.025 248.668L312.635 137.439L255.381 135.957C255.381 135.957 261.833 201.186 266.398 248.668C266.908 253.959 267.391 259.031 267.84 263.766C267.986 265.278 268.124 266.757 268.262 268.196C268.684 272.688 269.071 276.813 269.408 280.456C269.585 282.376 269.749 284.16 269.898 285.794C270.48 292.198 270.821 296.286 270.825 297.064C270.829 297.489 270.791 297.913 270.714 298.332C269.762 303.302 263.106 303.465 262.253 303.465Z" fill="#5C7FAF"/>
<path d="M180.64 55.082H455.52L423.328 183.893L418.921 201.533L403.929 261.531H125.379L180.64 55.082Z" fill="#395987"/>
<path d="M455.519 55.082L459.981 56.5637L409.858 266.011L403.926 261.531L455.519 55.082Z" fill="#5C7FAF"/>
<path d="M409.859 266.011H133.023L125.379 261.531H403.927L409.859 266.011Z" fill="#395987"/>
<path d="M312.643 303.527H252.703V306.364H312.643V303.527Z" fill="#395987"/>
<path d="M267.939 266.012L268.25 268.18L324.618 279.525L323.846 270.363L323.476 266.012H267.939Z" fill="#395987"/>
<path opacity="0.4" d="M262.254 303.466C264.546 303.466 308.801 303.611 320.146 303.466C325.092 303.405 325.958 299.086 326 296.293L269.896 285.777C270.478 292.181 270.819 296.269 270.824 297.047C270.827 297.472 270.79 297.896 270.712 298.315C269.763 303.302 263.107 303.466 262.254 303.466Z" fill="#395987"/>
<path opacity="0.4" d="M285.184 220.973L403.926 261.531L414.068 220.949L285.184 220.973Z" fill="#5C7FAF"/>
<path d="M180.639 55.082H455.52L414.093 220.949L136.041 221.002L180.639 55.082Z" fill="#395987"/>
<path d="M257.269 241.974C258.063 237.904 262.017 234.605 266.103 234.605C270.189 234.605 272.855 237.904 272.061 241.974C271.267 246.045 267.313 249.341 263.227 249.341C259.141 249.341 256.475 246.042 257.269 241.974Z" fill="#5C7FAF"/>
<path d="M149.006 213.813H406.377L435.525 98.1467L437.758 89.2765L439.665 81.7092L444.136 63.9688H190.472L185.564 81.7092L183.471 89.2765L181.017 98.1467L149.006 213.813Z" fill="#E9F3FE"/>
<path d="M190.471 63.9688H444.135L439.664 81.7092H185.562L190.471 63.9688Z" fill="#F2B45A"/>
<path d="M431.969 69.7695C433.198 69.7695 433.938 70.7631 433.64 71.9876C433.343 73.2122 432.087 74.2057 430.858 74.2057C429.629 74.2057 428.889 73.2122 429.187 71.9876C429.484 70.7631 430.74 69.7695 431.969 69.7695Z" fill="#E9F3FE"/>
<path d="M424.573 69.7695C425.802 69.7695 426.541 70.7631 426.244 71.9876C425.946 73.2122 424.693 74.2057 423.462 74.2057C422.23 74.2057 421.493 73.2122 421.79 71.9876C422.088 70.7631 423.343 69.7695 424.573 69.7695Z" fill="#E9F3FE"/>
<path d="M413.83 71.9876C414.136 70.7631 415.381 69.7695 416.61 69.7695C417.839 69.7695 418.578 70.7631 418.283 71.9876C417.988 73.2122 416.73 74.2057 415.501 74.2057C414.272 74.2057 413.519 73.2143 413.83 71.9876Z" fill="#E9F3FE"/>
<path d="M56.0928 290.417C56.0928 290.417 52.8119 293.441 53.4571 295.59C54.1024 297.738 57.053 299.172 57.4511 301.8C57.8491 304.427 59.4502 305.859 60.8873 305.859H67.7443C67.7443 305.859 68.803 304.011 66.2461 303.462C63.6891 302.913 62.7246 299.819 62.8842 296.952C63.0439 294.084 62.6458 290.267 62.6458 290.267L57.2127 288.992L56.0928 290.417Z" fill="#233862"/>
<path d="M115.487 305.855H97.2805C97.1584 305.834 97.0394 305.798 96.9262 305.748C95.7122 305.145 96.0906 300.519 96.2372 299.085C96.2656 298.819 96.2853 298.662 96.2853 298.662C96.2853 298.662 102.679 293.57 103.558 297.471C103.584 297.593 103.617 297.712 103.652 297.83C104.759 301.477 109.722 303.138 112.587 303.6C114.772 303.955 115.341 305.219 115.487 305.855Z" fill="#233862"/>
<path d="M111.826 201.422C111.826 201.422 110.855 213.489 109.715 228.005C108.164 247.708 106.298 271.911 106.115 276.496C105.795 284.457 104.516 297.195 104.516 297.195C104.516 297.195 101.48 300.222 95.4059 298.938C95.4059 298.938 89.9924 280.76 88.446 261.523C88.4219 261.209 88.3979 260.891 88.3738 260.573C86.9368 240.991 84.6992 199.758 84.6992 199.758L111.826 201.422Z" fill="#699DEE"/>
<path d="M111.826 201.426C111.826 201.426 110.855 213.493 109.715 228.008L88.446 261.53C88.4219 261.217 88.3979 260.898 88.3738 260.58C86.9368 240.999 84.6992 199.766 84.6992 199.766L111.826 201.426Z" fill="#4A75CB"/>
<path d="M107.396 202.858C107.396 202.858 89.8977 246.557 78.3905 267.095C66.8833 287.633 63.2874 293.364 63.2874 293.364C63.2874 293.364 56.695 290.736 56.0957 288.945C56.0957 288.945 60.4965 249.29 68.2022 239.633C72.5571 234.17 77.6709 217.783 77.9115 212.05C78.1521 206.318 79.4688 194.977 79.4688 194.977L107.396 202.858Z" fill="#699DEE"/>
<path d="M125.091 190.793L126.092 192.778C126.092 192.778 131.178 193.486 129.778 198.768C129.778 198.768 129.023 200.947 127.621 200.254C126.219 199.561 126.908 199.624 124.898 198.7C122.888 197.776 121.724 195.996 122.175 194.364L121.854 192.636L125.091 190.793Z" fill="#FFB27D"/>
<path d="M98.4279 135.4C99.2065 130.824 99.2284 128.112 99.2284 128.112L90.335 120.984C90.6653 130.789 84.3594 135.498 84.3594 135.498C84.3594 135.498 96.1925 141.3 103.032 139.152C101.74 137.632 100.179 136.361 98.4279 135.4Z" fill="#FFB27D"/>
<path d="M101.312 127.951C101.312 127.951 90.0169 129.82 88.956 122.795C87.8952 115.771 85.7233 111.28 92.8931 109.79C100.063 108.299 101.861 110.768 102.795 113.028C103.729 115.287 104.223 127.284 101.312 127.951Z" fill="#FFB27D"/>
<path d="M89.0226 123.279C89.0226 123.279 89.2413 113.868 99.5412 112.358C106.591 111.323 102.323 105.456 101.51 104.527C101.51 104.527 96.1203 105.551 90.6062 106.756C79.0443 109.288 87.8065 121.88 89.0226 123.279Z" fill="#163560"/>
<path d="M123.905 193.556C124.914 192.475 125.795 191.283 126.53 190.002C126.53 190.002 113.697 174.118 112.654 172.471C111.61 170.823 103.815 144.404 103.815 144.404L84.1055 140.426C84.1055 140.426 100.558 174.238 103.283 178.36C107.787 185.171 121.261 195.31 121.261 195.31C122.249 194.904 123.148 194.308 123.905 193.556Z" fill="#5C7FAF"/>
<path d="M112.581 202.42C112.382 202.593 112.128 202.691 111.863 202.694C109.295 202.659 101.802 204.08 95.4696 203.431C90.1283 202.921 85.4082 201.343 80.3228 199.073C79.6491 198.772 78.0961 197.946 78.1355 197.195C78.1596 196.373 78.2405 195.181 78.3433 193.68C78.7042 188.451 79.3298 179.48 78.7195 169.12C78.6101 167.191 78.5511 165.278 78.5445 163.394C78.492 149.355 81.2392 136.935 86.8561 132.756C87.3373 132.414 90.3295 133.918 93.0352 135.247C95.5352 136.476 97.2828 136.447 99.6451 135.97L102.76 138.214C105.636 140.875 108.786 144.492 110.155 149.98C111.321 154.654 112.005 163.082 112.382 171.813C112.552 175.77 112.69 179.764 112.725 183.548V183.686C112.758 184.06 112.758 184.47 112.758 184.847C112.891 194.576 112.751 202.291 112.581 202.42Z" fill="#395987"/>
<path d="M78.3398 193.703C78.7007 188.474 79.3263 179.503 78.7161 169.143C78.6067 167.215 78.5476 165.301 78.5411 163.417C80.8815 157.765 82.7931 153.664 82.7931 153.664H88.6987C88.6987 153.664 93.012 183.068 78.3398 193.703Z" fill="#5C7FAF"/>
<path d="M66.8679 195.521L65.7502 197.442C65.7502 197.442 67.9375 202.068 62.7405 203.798C62.7405 203.798 60.5008 204.36 60.3105 202.813C60.1202 201.266 60.4483 201.876 60.1245 199.693C59.8008 197.51 60.6539 195.569 62.2703 195.048L63.5454 193.832L66.8679 195.521Z" fill="#FFB27D"/>
<path d="M63.902 196.048C65.3626 196.298 66.8472 196.381 68.3268 196.294C68.3268 196.294 74.6305 176.902 75.442 175.122C76.2534 173.342 94.165 152.377 94.165 152.377L86.7042 133.773C86.7042 133.773 67.3294 166.021 65.3609 170.542C62.1106 178.029 60.9863 194.813 60.9863 194.813C61.867 195.412 62.8579 195.832 63.902 196.048Z" fill="#395987"/>
<path d="M290.087 187.671H169.934L211.008 22.1328H331.161L290.087 187.671Z" fill="#AFCDFB"/>
<path d="M272.139 177.345H151.986L193.061 11.8047H313.214L272.139 177.345Z" fill="#C0D8F9"/>
<path d="M252.692 165.541H132.539L173.614 0H293.767L252.692 165.541Z" fill="#D4E3F4"/>
<path d="M310.766 22.1328L272.752 176.354L172.861 177.343L275.768 179.598L310.766 22.1328Z" fill="#699DEE"/>
<path d="M290.811 11.8047L254.695 164.551L154.805 165.542L256.39 168.041L290.811 11.8047Z" fill="#699DEE"/>
<path d="M202.632 57.3666H169.031L179.55 15.3164H213.153L202.632 57.3666Z" fill="#E9F3FE"/>
<path d="M279.347 21.1275H219.143L220.623 15.3164H280.828L279.347 21.1275Z" fill="#AFCDFB"/>
<path d="M276.632 33.0572H216.426L217.907 27.2461H278.113L276.632 33.0572Z" fill="#AFCDFB"/>
<path d="M273.793 44.9808H213.586L215.069 39.1719H275.273L273.793 44.9808Z" fill="#AFCDFB"/>
<path d="M270.46 56.9066H210.256L211.737 51.0977H271.941L270.46 56.9066Z" fill="#AFCDFB"/>
<path d="M270.46 69.3284H160.248L161.731 63.5195H271.941L270.46 69.3284Z" fill="#AFCDFB"/>
<path d="M267.519 81.7486H157.307L158.79 75.9375H268.999L267.519 81.7486Z" fill="#AFCDFB"/>
<path d="M263.444 95.7308H153.232L154.713 89.9219H264.925L263.444 95.7308Z" fill="#AFCDFB"/>
<path d="M259.741 107.805H149.529L151.01 101.996H261.222L259.741 107.805Z" fill="#AFCDFB"/>
<path d="M205.569 61.5497C205.569 61.5497 207.538 60.6542 208.308 60.9266C209.078 61.1989 211.164 62.0966 211.118 62.9965C211.072 63.8964 207.721 64.8943 205.486 63.8027C203.251 62.7111 205.569 61.5497 205.569 61.5497Z" fill="#E49963"/>
<path d="M206.152 64.0142C206.118 64.1232 206.071 64.2278 206.012 64.3258C205.356 65.389 194.419 65.4435 193.179 64.5436C192.621 64.1427 192.451 58.6389 192.433 52.6753C192.411 45.2998 192.621 37.2227 192.621 37.2227C192.621 37.2227 196.895 39.1989 197.105 41.6305C197.315 44.0622 195.515 58.6759 196.764 59.5693C198.013 60.4626 203.763 60.5781 205.69 61.1402C205.69 61.1468 206.506 62.8964 206.152 64.0142Z" fill="#F2B45A"/>
<path d="M195.105 20.4643C194.357 19.6887 193.137 19.6167 192.349 19.5601C192.54 19.4406 192.757 19.3702 192.981 19.3553C192.509 19.2224 191.367 19.5601 191.367 19.5601C191.367 19.5601 187.55 16.9454 184.963 22.0506C184.963 22.0506 185.341 21.6889 185.838 21.288C184.344 24.2229 184.843 29.0186 188.183 30.2911C190.361 31.1191 202.761 28.4085 195.105 20.4643Z" fill="#163560"/>
<path d="M192.791 38.4469C192.811 38.4599 190.482 39.3075 188.898 38.6495C187.406 38.0285 186.658 35.9041 186.68 35.9019C187.349 35.8562 187.656 34.9868 188.141 31.1367L188.43 31.2326L193.275 32.8559C193.275 32.8559 192.96 34.4007 192.765 35.8671C192.601 37.1003 192.525 38.2791 192.791 38.4469Z" fill="#E49963"/>
<path d="M193.274 32.8537C193.274 32.8537 192.96 34.3986 192.765 35.8649C189.991 35.4292 188.85 32.7099 188.43 31.2305L193.274 32.8537Z" fill="#D68D5D"/>
<path d="M187.986 30.6283C187.986 30.6283 186.825 28.1444 186.731 26.1376C186.663 24.7039 188.056 19.601 193.199 21.026C194.234 21.3081 195.193 21.8182 196.005 22.5185C197.044 23.4314 198.47 25.2966 196.044 29.5911L195.368 31.0597L187.986 30.6283Z" fill="#163560"/>
<path d="M194.022 34.3655C194.022 34.3655 187.425 33.6225 187.952 29.5371C188.479 25.4517 187.982 22.6039 192.217 22.9046C196.452 23.2052 197.068 24.8656 197.226 26.2753C197.383 27.685 195.76 34.4526 194.022 34.3655Z" fill="#E49963"/>
<path d="M194.449 43.6201C194.395 43.1386 195.425 42.9163 195.613 43.363C195.963 44.1975 195.926 45.1889 196.005 45.9929C196.223 48.2873 195.318 51.2702 195.318 51.2702L194.449 43.6201Z" fill="#82B479"/>
<path d="M197.326 23.9782C196.47 22.6208 195.668 22.7885 195.186 23.1067C194.04 20.8058 189.145 23.2875 189.145 23.2875C188.622 25.0364 187.503 26.5494 185.982 27.5668C185.982 27.5668 187.087 28.4624 189.946 28.1094C192.194 27.8327 194.176 24.95 194.92 23.7342C195.265 24.1329 195.987 25.0415 196.134 25.8564C196.326 26.9459 196.195 29.0986 196.831 29.1073C196.831 29.1008 198.605 26.0198 197.326 23.9782Z" fill="#163560"/>
<path d="M192.883 31.7017C192.883 31.7017 192.938 32.2355 194.243 32.3227C194.243 32.3227 195.337 32.3968 195.381 31.8215C195.381 31.8128 194.379 31.279 192.883 31.7017Z" fill="white"/>
<path d="M206.152 64.0137C206.118 64.1228 206.071 64.2274 206.012 64.3253C205.356 65.3886 194.42 65.443 193.18 64.5432C192.622 64.1423 192.44 57.3028 193.978 51.4023C194.343 54.9365 193.674 62.0048 195.533 62.58C197.639 63.2424 203.388 63.2555 206.152 64.0137Z" fill="#D28E2A"/>
<path d="M195.693 51.5973C191.357 64.0648 193.332 66.3221 191.784 67.4029C191.784 67.4029 190.472 67.7755 190.472 67.782C188.864 68.8431 189.026 67.3266 184.229 68.7015C181.943 69.3551 179.008 70.2267 176.491 70.6625C175.631 70.8139 174.76 70.8919 173.888 70.8956C172.405 70.8782 171.35 70.4838 171.123 69.4554C170.467 66.4681 176.403 59.5306 175.837 54.2032L175.823 54.0659C175.799 53.5455 175.847 53.0242 175.966 52.5167C176.571 49.6624 178.947 45.7056 181.307 42.3697C183.914 38.6896 186.502 35.7677 186.681 35.9071C191.775 39.8836 192.626 37.2341 192.626 37.2341C192.626 37.2341 197.171 47.3441 195.693 51.5973Z" fill="#F2B45A"/>
<path d="M190.936 67.6553C189.33 68.7186 189.028 67.3241 184.232 68.6989C181.946 69.3526 179.011 70.2242 176.493 70.6599C175.229 70.7166 174.282 70.7863 173.884 70.9018C172.401 70.8844 171.347 70.49 171.119 69.4615C170.463 66.4743 176.399 59.5367 175.833 54.2094L175.82 54.0721C175.783 53.5515 175.831 53.0283 175.962 52.5229C176.506 50.3658 178.435 48.1957 180.719 44.9688C181.778 46.4177 191.181 46.1105 187.344 58.5802C186.167 62.3889 190.759 64.5482 190.936 67.6553Z" fill="#D28E2A"/>
<path d="M190.404 68.2507C190.404 68.2507 192.497 68.0328 193.376 68.5296C194.256 69.0264 196.001 70.2248 195.752 70.7085C195.502 71.1922 193.273 71.19 192.412 70.556C191.55 69.9219 190.778 70.4841 189.691 69.9611C188.604 69.4382 190.404 68.2507 190.404 68.2507Z" fill="#E49963"/>
<path d="M186.68 35.8998C186.68 35.8998 179.177 35.0282 177.369 38.4578C175.56 41.8873 174.324 54.5815 175.792 58.6429C177.259 62.7044 187.736 69.2802 188.948 69.6463C190.16 70.0123 191.181 68.2104 191.157 67.9969C191.133 67.7833 180.691 56.8715 180.877 55.8997C181.063 54.9279 186.68 35.8998 186.68 35.8998Z" fill="#F2B45A"/>
<path d="M437.24 286.238L434.563 297.479L430.549 297.455L430.402 286.238H437.24Z" fill="#E49963"/>
<path d="M403.485 286.718L395.863 297.479L392.893 293.679L397.479 285.238L403.485 286.718Z" fill="#E49963"/>
<path d="M423.303 138.534C424.688 137.75 426.348 137.662 427.51 137.732C427.254 137.52 426.948 137.376 426.621 137.314C427.341 137.207 428.949 137.917 428.949 137.917C438.966 134.074 440.541 148.764 440.323 152.178C440.104 155.592 443.689 156.706 448.899 159.395C458.842 164.526 459.715 171.396 459.715 171.396C459.638 171.442 459.557 171.495 459.472 171.553C458.978 170.72 457.963 169.156 457.105 168.921C457.138 168.997 458.118 171.073 458.483 172.263C455.55 174.485 450.062 179.41 446.235 182.903C446.252 182.221 446.235 181.251 445.974 180.739L445.502 183.571C443.455 185.445 442.044 186.763 442.044 186.763C442.295 184.005 429.522 169.45 422.857 165.092C421.234 162.713 420.657 158.508 420.613 158.177C420.893 161.51 421.466 163.38 421.978 164.432C416.346 159.259 419.631 140.613 423.303 138.534Z" fill="#163560"/>
<path d="M423.262 165.309C423.229 165.325 426.479 167.007 428.925 166.34C431.226 165.715 432.728 162.743 432.698 162.736C431.722 162.544 431.442 161.211 431.462 155.48L431.025 155.565L423.618 157.027C423.618 157.027 423.787 159.348 423.793 161.536C423.796 163.372 423.684 165.113 423.262 165.309Z" fill="#E49963"/>
<path d="M423.617 157.028C423.617 157.028 423.786 159.349 423.792 161.537C427.935 161.421 430.135 157.654 431.023 155.566L423.617 157.028Z" fill="#D68D5D"/>
<path d="M431.788 154.763C431.788 154.763 433.96 151.345 434.481 148.421C434.852 146.335 433.785 138.6 425.983 139.705C424.412 139.922 422.909 140.488 421.587 141.361C419.891 142.501 417.448 144.961 420.18 151.711L420.891 153.992L431.788 154.763Z" fill="#163560"/>
<path d="M394.102 290.727L398.026 290.847L402.275 290.975C402.275 290.975 412.09 280.081 417.586 262.65C417.715 262.245 417.851 261.833 417.993 261.419C421.007 252.666 427.252 241.68 430.544 231.738C431.069 230.154 431.539 228.664 431.961 227.252C432.097 226.8 432.227 226.356 432.352 225.921C434.778 217.523 435.48 212.011 436.128 206.121L412.361 206.311C412.361 206.311 408.531 246.52 394.102 290.727Z" fill="#2B478B"/>
<path d="M415.696 192.697C415.755 203.964 414.036 208.799 414.036 208.799C414.036 208.799 424.213 213.95 436.309 210.159C436.451 210.113 445.406 208.324 445.406 208.324C445.202 207.867 442.733 200.073 442.536 199.654C439.981 194.192 439.631 191.542 439.327 189.863C438.765 186.727 438.754 183.483 439.034 180.424C439.513 175.4 440.496 170.436 441.967 165.607C438.671 164.86 435.585 163.548 432.155 162.267C431.365 163.245 428.953 164.269 426.862 164.228C424.456 164.176 423.671 163.139 423.8 162.027C421.232 163.45 419.185 164.795 419.185 164.795C416.997 168.571 412.577 172.235 412.255 178.029C412.172 179.439 415.694 192.381 415.696 192.697Z" fill="#E7F1FD"/>
<path d="M401.897 175.96C405.397 171.901 414.426 163.105 423.754 162.016L415.705 177.636C415.705 177.636 415.252 180.314 412.862 181.874C407.024 185.698 399.598 187.387 399.598 187.387C399.598 187.387 394.567 185.208 387.699 180.196C385.541 178.621 381.75 172.616 381.75 172.616L382.774 169.206C382.774 169.206 389.209 172.792 391.507 173.825C392.82 174.413 395.834 175.821 397.96 176.815C398.619 177.123 399.362 177.207 400.074 177.052C400.785 176.898 401.426 176.514 401.897 175.96Z" fill="#699DEE"/>
<path d="M422.234 159.099C422.234 159.099 432.037 159.26 432.044 153.177C432.05 147.093 433.321 143.016 427.061 142.655C420.801 142.293 419.583 144.616 419.084 146.646C418.585 148.677 419.683 158.9 422.234 159.099Z" fill="#E49963"/>
<path d="M422.598 142.5C422.598 142.5 425.281 149.638 429.4 150.693C433.519 151.747 435.306 150.649 435.306 150.649C433.273 148.87 431.924 146.444 431.489 143.783C431.489 143.783 424.621 139.108 422.598 142.5Z" fill="#163560"/>
<path d="M423.262 143.086C423.262 143.086 421.256 144.678 420.769 146.228C420.281 147.777 420.06 150.967 419.126 150.858C419.126 150.858 417.103 146.007 419.377 143.262C421.788 140.353 423.262 143.086 423.262 143.086Z" fill="#163560"/>
<path d="M382.772 169.195C382.772 169.195 381.39 164.234 375.913 164.935C375.285 165.131 373.448 165.861 374.622 167.818C375.497 169.262 375.862 168.517 377.223 170.459C378.583 172.4 380.066 172.836 381.748 172.605L382.772 169.195Z" fill="#E49963"/>
<path d="M434.694 296.848C434.528 298.403 434.703 299.975 435.206 301.456C435.206 301.456 435.862 304.437 432.916 304.493C429.97 304.55 429.246 304.275 429.578 302.443C429.911 300.611 430.547 297.453 430.547 297.453L434.694 296.848Z" fill="#E49963"/>
<path d="M429.301 305.765C429.301 305.765 429.365 305.804 429.485 305.863H435.266C435.323 305.834 435.377 305.801 435.43 305.765C435.762 304.27 435.211 301.455 435.211 301.455C431.873 304.506 429.784 301.379 429.784 301.379C429.238 302.682 429.301 305.765 429.301 305.765Z" fill="#395987"/>
<path d="M385.79 302.744C385.79 302.744 391.223 296.737 392.892 293.68L396.931 295.741L387.9 304.191L385.785 303.914L385.79 302.744Z" fill="#E49963"/>
<path d="M382.418 305.865H389.855C390.57 305.331 391.239 304.098 392.07 302.442C392.508 301.57 393.51 301.071 394.531 300.803V305.815H396.062L397.523 300.496C398.483 298.733 397.6 297.136 396.922 295.746C396.134 295.746 394.017 296.28 390.003 300.786C388.691 302.265 387.226 302.795 385.78 302.747C385.761 302.759 385.741 302.769 385.721 302.777C383.308 303.858 382.617 305.207 382.418 305.865Z" fill="#395987"/>
<path d="M423.796 162.016C423.796 162.016 418.125 175.976 417.956 178.793C417.788 181.61 417.289 224.985 417.289 224.985C417.289 224.985 417.624 226.979 413.789 226.149C409.955 225.319 408.951 224.486 408.951 224.486C408.951 224.486 412.621 197.73 411.62 188.424C410.618 179.118 419.299 163.953 419.299 163.953L423.796 162.016Z" fill="#699DEE"/>
<path d="M398.025 290.847L402.275 290.976C402.275 290.976 412.089 280.081 417.586 262.65C417.715 262.245 417.851 261.833 417.993 261.419C421.007 252.667 427.252 241.681 430.543 231.738C431.068 230.154 431.539 228.664 431.961 227.252C432.096 226.8 432.227 226.357 432.352 225.921L428.853 223.273C428.853 223.273 418.354 240.225 415.09 256.175C412.273 270.026 400.956 286.701 398.025 290.847Z" fill="#233862"/>
<path d="M428.497 257.658C428.436 265.415 428.83 283.251 429.844 290.633H433.609C435.689 290.633 436.726 290.605 436.726 290.605C439.272 277.767 441.08 267.143 442.399 257.989C443.48 250.479 444.44 244.045 445.179 238.495C445.923 232.915 446.441 228.254 446.625 224.297C446.654 223.674 446.675 223.071 446.689 222.482C446.702 221.894 446.702 221.319 446.689 220.763L426.152 218.77C426.419 232.361 428.53 253.148 428.497 257.658Z" fill="#2B478B"/>
<path d="M433.607 290.633C435.688 290.633 436.724 290.605 436.724 290.605C439.27 277.767 441.079 267.142 442.398 257.989C443.479 250.478 444.439 244.044 445.178 238.494C445.922 232.914 446.44 228.254 446.624 224.297L439.089 228.711C439.089 228.711 443.901 230.402 442.063 243.199C440.226 255.995 436.162 288.822 433.607 290.633Z" fill="#233862"/>
<path d="M432.64 224.168C432.64 224.168 434.088 229.374 439.093 228.709C444.097 228.045 451.215 225.053 451.215 225.053C451.215 225.053 449.076 218.32 446.416 209.476C443.196 198.769 439.211 184.966 437.332 176.259C436.881 174.301 436.54 172.318 436.311 170.322L432.155 162.297C432.155 162.297 425.965 176.139 425.63 179.63C425.296 183.12 432.64 224.168 432.64 224.168Z" fill="#699DEE"/>
<path d="M432.86 186.949C433.079 192.599 434.417 203.567 446.318 209.439L446.412 209.483C443.193 198.776 439.207 184.972 437.329 176.266C435.143 179.512 432.737 183.831 432.86 186.949Z" fill="#4A75CB"/>
<path d="M365.937 140.882L362.184 144.621L377.109 159.489L380.862 155.75L365.937 140.882Z" fill="#5C7FAF"/>
<path d="M376.979 154.315L375.671 155.619C373.094 158.185 373.094 162.346 375.671 164.912L448.704 237.666C451.28 240.232 455.457 240.232 458.033 237.666L459.342 236.362C461.918 233.796 461.918 229.635 459.342 227.069L386.308 154.315C383.732 151.749 379.555 151.749 376.979 154.315Z" fill="#395987"/>
<path d="M275.677 54.7049C251.3 78.9885 251.3 118.359 275.677 142.642C300.054 166.926 339.576 166.926 363.953 142.642C388.33 118.359 388.33 78.9885 363.953 54.7049C339.576 30.4213 300.054 30.4213 275.677 54.7049ZM359.091 137.799C337.4 159.407 302.222 159.407 280.54 137.799C258.857 116.191 258.849 81.1478 280.54 59.5486C302.231 37.9493 337.409 37.9406 359.091 59.5486C380.773 81.1565 380.782 116.191 359.091 137.799Z" fill="#395987"/>
<path d="M437.634 179.105L432.166 162.293C432.181 162.293 439.087 164.341 442.562 166.089C442.562 166.089 444.732 168.878 446.077 175.312C446.077 175.312 447.497 190.76 444.327 196.41C444.327 196.41 434.316 198.404 418.299 192.924V189.268C418.299 189.268 435.817 190.183 439.404 190.599L437.634 179.105Z" fill="#E49963"/>
<path d="M432.156 162.297C432.156 162.297 442.313 163.009 444.761 168.439C447.208 173.869 447.987 191.927 444.872 197.246C444.872 197.246 440.585 198.462 433.002 197.048C432.908 197.033 432.816 197.013 432.722 196.996C432.722 196.996 430.303 191.095 432.471 189.934C432.471 189.934 438.866 190.265 438.199 188.16C437.532 186.055 432.156 162.297 432.156 162.297Z" fill="#699DEE"/>
<path d="M420.086 190.244C420.086 190.244 418.691 188.558 418.393 186.839C418.096 185.12 417.173 183.843 414.762 183.529C412.352 183.215 411.32 183.178 411.326 183.856C411.333 184.533 413.295 189.253 416.751 192.072C420.207 194.892 420.086 190.244 420.086 190.244Z" fill="#E49963"/>
<path opacity="0.4" d="M344.41 48.6641L270.021 122.768C271.232 125.206 272.621 127.553 274.177 129.788L351.46 52.8018C349.216 51.2516 346.859 49.8686 344.41 48.6641Z" fill="white"/>
<path opacity="0.4" d="M339.309 46.4667C333.083 44.1511 326.489 42.9702 319.842 42.9805C289.166 42.9805 264.299 67.7544 264.299 98.311C264.289 104.932 265.475 111.5 267.799 117.703L339.309 46.4667Z" fill="white"/>
<path opacity="0.4" d="M295.248 147.922C302.896 151.692 311.317 153.648 319.85 153.637C350.527 153.637 375.407 128.863 375.407 98.2932C375.418 89.7924 373.454 81.4043 369.67 73.7852L295.248 147.922Z" fill="white"/>
<path d="M10.1261 306.866H573.872C574.005 306.866 574.133 306.813 574.228 306.719C574.322 306.625 574.375 306.497 574.375 306.364C574.375 306.232 574.321 306.105 574.227 306.011C574.133 305.917 574.005 305.864 573.872 305.863H10.1261C9.99287 305.864 9.86525 305.917 9.77103 306.011C9.67681 306.105 9.62362 306.232 9.62305 306.364C9.62305 306.497 9.67605 306.625 9.77039 306.719C9.86474 306.813 9.9927 306.866 10.1261 306.866Z" fill="#283250"/>
</g>
<defs>
<clipPath id="clip0_5488_43412">
<rect width="584" height="307" fill="white"/>
</clipPath>
</defs>
</svg>
