<svg width="423" height="423" viewBox="0 0 423 423" fill="none" xmlns="http://www.w3.org/2000/svg">
<path fill-rule="evenodd" clip-rule="evenodd" d="M407.73 176.73C402.857 213.066 397.356 232.259 365.248 270.312C333.14 308.364 186.211 333.397 131.891 333.397C77.572 333.397 10.6295 291.511 14.8544 242.979C19.0794 194.447 41.1215 154.781 93.8803 149.898C147.797 144.907 195.158 168.016 248.092 155.622C293.855 144.907 307.857 104.065 339.289 91.1799C402.857 65.12 411.046 152.011 407.73 176.73Z" fill="#395987"/>
<path d="M375.026 194.477C373.23 197.521 350.496 212.924 336.705 215.203C334.036 215.645 331.122 215.796 328.804 214.403C327.435 213.579 326.414 212.296 325.445 211.026C323.229 208.122 321.114 205.14 319.107 202.088C318.053 200.484 317.007 198.81 316.648 196.924C315.699 191.93 319.725 187.444 323.703 184.28C332.849 177.006 343.557 171.707 354.887 168.848C356.892 168.342 359.019 167.914 361.006 168.489C364.231 169.422 366.159 172.685 367.389 175.808C368.62 178.932 369.58 182.348 372.039 184.633C372.601 185.155 376.822 191.433 375.026 194.477Z" fill="white"/>
<path fill-rule="evenodd" clip-rule="evenodd" d="M252.865 327.179C230.8 330.952 241.316 314.915 244.359 294.843C249.359 261.861 255.525 211.739 255.525 211.739C255.525 211.739 259.545 288.113 259.545 306.709C259.545 325.306 255.524 326.724 252.865 327.179Z" fill="white"/>
<path d="M229.29 309.008C229.853 314.319 230.447 319.742 232.704 324.583C231.472 313.621 230.241 302.66 229.009 291.699C228.857 290.346 228.902 288.623 230.147 288.071C231.201 300.448 232.772 312.781 234.855 325.027C235.102 326.481 232.918 327.312 231.692 326.493C230.465 325.674 230.073 324.079 229.794 322.631C227.762 312.079 226.644 301.35 226.458 290.605C223.871 291.115 222.057 293.623 221.533 296.208C221.01 298.793 221.514 301.462 222.018 304.05C223.641 312.382 225.264 320.714 226.886 329.046C227.645 332.943 228.404 336.97 227.567 340.851C224.346 326.148 221.757 311.306 219.809 296.38C195.098 311.491 163.257 314.301 136.282 303.751C130.39 301.447 124.539 298.394 120.648 293.406C117.582 289.477 115.947 284.599 115.09 279.69C112.046 262.255 118.283 244.471 126.748 228.928C129.96 223.031 133.618 216.889 133.359 210.178C133.269 207.868 132.771 205.31 134.12 203.432C134.311 203.78 125.288 139.236 128.908 124.959C137.622 90.5879 165.93 85.9331 184.055 86.357C196.216 86.6415 273.3 101.961 284.437 122.793C299.075 150.173 295.967 173.192 293.368 188.371C292.594 192.89 255.536 211.406 255.526 211.5C253.407 231.195 239.19 274.11 227.266 289.928C227.941 296.288 228.615 302.648 229.29 309.008Z" fill="white"/>
<path fill-rule="evenodd" clip-rule="evenodd" d="M51.3593 228.87C44.4096 226.095 36.1277 226.918 29.8621 231.005C29.2555 231.401 28.3834 230.96 28.0831 230.301C27.7829 229.643 27.8952 228.877 28.0488 228.171C30.0499 218.962 38.0217 211.915 46.887 208.677C55.7524 205.439 65.4495 205.43 74.8735 205.984C75.8085 206.039 76.7859 206.112 77.5835 206.602C78.3812 207.092 78.9178 208.14 78.5203 208.987C74.8131 216.881 72.0206 225.202 70.216 233.733C69.9234 235.116 68.4901 236.034 67.0786 236.149C65.667 236.264 64.2839 235.743 63.0028 235.14C59.0105 233.261 55.4576 230.506 51.3593 228.87Z" fill="white"/>
<path fill-rule="evenodd" clip-rule="evenodd" d="M264.972 89.8526C265.317 84.57 264.918 79.2393 263.792 74.0666L263.768 73.9563C263.577 73.0817 263.381 72.182 263.557 71.3067C263.946 69.3708 266.096 68.2055 268.071 68.2461C270.045 68.2868 271.874 69.2292 273.621 70.1496C281.999 74.5634 290.529 79.0886 297.126 85.883C297.333 91.3837 296.037 96.8119 294.757 102.171L294.637 102.674C289.294 125.071 284.919 147.699 281.529 170.473C281.204 172.656 280.587 175.231 278.517 175.996C277.032 176.544 275.305 175.843 274.25 174.663C273.195 173.483 272.691 171.915 272.339 170.372C271.471 166.563 271.366 162.583 272.033 158.734C272.441 156.38 273.131 154.091 273.82 151.801L273.82 151.801L273.821 151.801L273.821 151.801L273.821 151.8L273.821 151.8L273.821 151.8L273.821 151.8C274.44 149.744 275.059 147.688 275.475 145.585C275.891 143.481 276.101 141.343 276.304 139.208C277.385 127.857 278.302 116.489 279.055 105.111C279.161 103.503 279.258 101.845 278.732 100.322C277.795 97.6136 275.066 95.9016 272.31 95.1166C271.835 94.9814 271.352 94.8663 270.869 94.7512C269.746 94.4835 268.624 94.2159 267.6 93.6939C266.135 92.9477 264.864 91.4929 264.972 89.8526ZM270.091 89.4185C273.987 90.2407 277.795 91.4822 281.427 93.1147C282.158 93.4434 282.927 93.8282 283.323 94.5258C283.645 95.0956 283.664 95.7819 283.673 96.4367C283.788 104.127 283.812 111.838 282.997 119.486C282.51 124.065 281.723 128.604 280.937 133.143V133.144L280.937 133.144L280.937 133.144C280.688 134.581 280.439 136.018 280.199 137.455C279.014 144.571 278.061 151.725 277.34 158.903C276.817 164.11 276.434 169.493 278.054 174.47C278.885 174.318 279.205 173.317 279.363 172.487L294.333 93.5792C294.696 91.6673 295.058 89.6907 294.631 87.7922C293.883 84.4685 290.933 82.1575 288.088 80.2823C282.613 76.6724 276.785 73.5979 270.713 71.1169C270.208 77.2024 270.001 83.3127 270.091 89.4185ZM277.79 141.242C280.531 127.169 281.769 112.805 281.477 98.4713C281.455 97.3887 281.397 96.2254 280.734 95.3686C280.249 94.7408 279.508 94.3731 278.784 94.0487C276.064 92.8306 273.205 91.9242 270.281 91.3529C269.434 91.1875 268.19 91.3667 268.227 92.2284L278.739 96.5721C279.355 96.8269 280.012 97.1151 280.361 97.684C280.702 98.242 280.669 98.943 280.624 99.5958L277.79 141.242ZM268.008 69.7249C267.141 69.1504 265.889 69.7426 265.406 70.6635C264.924 71.5843 264.997 72.6867 265.107 73.7206C265.267 75.2377 265.479 76.7555 265.69 78.2735C266.276 82.485 266.863 86.6982 266.365 90.9009C267.16 91.1738 268.047 90.6135 268.433 89.8667C268.818 89.1199 268.828 88.2427 268.83 87.4022L268.856 72.2464C268.858 71.3201 268.78 70.2367 268.008 69.7249ZM275.791 174.128C275.314 170.383 275.189 166.592 275.418 162.824C275.541 160.809 275.764 158.801 275.988 156.794L275.988 156.793C276.284 154.138 276.579 151.483 276.641 148.814C274.458 155.312 273.634 162.263 274.236 169.092C274.393 170.868 274.684 172.73 275.791 174.128ZM276.993 144.975C277.344 144.818 277.492 144.324 277.285 144C276.928 144.176 276.776 144.674 276.975 145.019L276.993 144.975ZM273.728 112.43C256.354 101.715 236.708 95.2951 217.061 89.7555C210.78 87.9846 204.447 86.2877 197.962 85.5612C178.748 83.4086 159.268 90.0383 143.291 100.927C136.884 105.295 130.702 110.667 127.933 117.91C125.879 123.284 125.893 129.201 126.091 134.951C126.775 154.782 129.319 174.496 131.861 194.176C133.848 193.818 134.044 191.069 133.756 189.071C131.114 170.718 129.632 152.198 129.323 133.659C129.236 128.46 129.263 123.131 131.062 118.252C134.319 109.422 142.719 103.647 150.961 99.1017C161.342 93.3772 172.626 88.5651 184.478 88.3097C198.835 88.0003 212.443 94.3685 224.984 101.363C231.976 105.262 239.065 109.616 243.513 116.272C247.552 122.316 249.019 129.682 250.079 136.874C253.442 159.698 253.566 182.861 253.682 205.932C253.687 206.866 253.63 207.935 252.899 208.515C252.399 208.912 251.716 208.962 251.079 208.995L227.657 210.214C238.571 213.352 250.679 212.114 260.732 206.833L286.757 193.161C289.186 191.885 291.693 190.545 293.367 188.371C295.671 185.379 296.001 181.355 296.11 177.58C296.511 163.64 295.117 149.649 291.973 136.063C293.063 150.76 293.214 165.528 292.426 180.245C292.291 182.758 292.09 185.395 290.723 187.508C289.263 189.766 286.725 191.044 284.307 192.219L256.221 205.87C257.384 184.048 256.482 162.116 253.532 140.462C252.54 133.179 251.275 125.795 247.942 119.244C240.066 103.762 222.632 96.1036 206.52 89.6143C230.609 96.6618 254.973 103.826 276.644 116.486C276.926 114.737 275.236 113.36 273.728 112.43ZM363.487 179.044C364.735 182.262 366.491 185.692 369.718 186.919C370.482 186.978 370.939 185.965 370.688 185.24C370.479 184.635 369.986 184.194 369.502 183.761C369.407 183.676 369.312 183.591 369.219 183.505C367.166 181.597 366.158 178.901 365.165 176.245C364.968 175.72 364.773 175.196 364.569 174.68C363.339 171.557 361.411 168.293 358.186 167.36C356.199 166.786 354.072 167.214 352.067 167.72C340.737 170.579 330.029 175.878 320.883 183.152C316.905 186.316 312.879 190.801 313.828 195.795C314.187 197.681 315.233 199.356 316.287 200.96C318.294 204.012 320.409 206.994 322.625 209.898C323.594 211.168 324.615 212.451 325.984 213.274C328.302 214.668 331.216 214.516 333.885 214.075C347.676 211.796 359.479 203.225 370.711 194.904C371.295 194.471 371.903 194.01 372.206 193.349C372.509 192.687 372.38 191.767 371.737 191.425C371.001 191.034 370.132 191.575 369.476 192.089C359.024 200.272 347.859 208.268 334.9 211.142C332.443 211.687 329.736 212.008 327.525 210.805C325.872 209.905 324.755 208.287 323.701 206.727L317.163 197.054C316.612 196.24 316.041 195.364 316.021 194.381C316.001 193.398 316.795 192.334 317.77 192.461C326.934 193.653 336.141 194.51 345.368 195.029C346.102 195.07 346.871 195.103 347.54 194.798C348.402 194.404 348.927 193.532 349.387 192.704C353.293 185.662 356.277 178.11 358.238 170.3C360.845 172.169 362.062 175.336 363.222 178.357C363.311 178.587 363.399 178.816 363.487 179.044ZM355.422 169.682C353.676 176.213 351.093 182.52 347.757 188.4C347.197 189.386 346.576 190.401 345.598 190.974C344.354 191.703 342.806 191.565 341.372 191.405L318.546 188.858C322.333 183.854 327.959 180.606 333.581 177.815C338.902 175.173 344.364 172.817 349.937 170.759C351.701 170.108 353.552 169.477 355.422 169.682ZM229.289 309.008C229.852 314.319 230.446 319.742 232.703 324.583L229.009 291.7C228.857 290.346 228.902 288.623 230.147 288.071C231.2 300.448 232.771 312.781 234.854 325.027C235.101 326.481 232.918 327.312 231.691 326.493C230.465 325.674 230.072 324.08 229.793 322.632C227.761 312.079 226.644 301.35 226.458 290.606C223.87 291.115 222.056 293.624 221.532 296.208C221.009 298.793 221.514 301.462 222.018 304.051L226.886 329.047C227.645 332.944 228.404 336.971 227.566 340.852C224.346 326.148 221.756 311.306 219.808 296.38C195.097 311.491 163.257 314.301 136.281 303.752C130.389 301.448 124.538 298.394 120.647 293.407C117.582 289.478 115.946 284.6 115.089 279.691C112.046 262.256 118.282 244.472 126.747 228.929C126.968 228.524 127.19 228.118 127.414 227.711C130.443 222.185 133.599 216.428 133.358 210.178C133.342 209.765 133.313 209.345 133.284 208.921C133.15 206.975 133.012 204.974 134.12 203.432C135.606 206.136 136.172 209.335 135.704 212.384C161.286 211.283 186.906 211.061 212.504 211.72C212.803 212.896 211.098 213.443 209.884 213.425C185.995 213.069 162.096 213.476 138.233 214.645C137.478 214.682 136.684 214.731 136.044 215.134C135.37 215.557 134.977 216.3 134.615 217.008C127.843 230.259 121.048 243.703 117.774 258.22C116.091 265.686 115.446 273.856 118.897 280.687C120.205 283.279 122.057 285.567 124.124 287.606C135.22 298.551 151.836 301.906 167.42 301.645C177.366 301.477 187.29 300.048 196.878 297.4C207.044 294.594 217.182 290.171 224.121 282.229C228.195 277.565 230.965 271.918 233.39 266.219C238.021 255.339 241.573 244 243.977 232.422C245.483 232.739 245.504 234.868 245.156 236.366C240.858 254.908 235.863 274.672 221.706 287.395C208.92 298.886 190.903 302.45 173.74 303.411C163.825 303.966 153.754 303.793 144.151 301.265C134.548 298.738 125.379 293.682 119.283 285.844C121.061 292.623 127.084 297.462 133.354 300.593C149.819 308.814 169.261 308.38 187.44 305.522C199.55 303.618 211.98 300.494 221.404 292.655C229.46 285.954 234.594 276.383 238.458 266.644C242.736 255.862 245.703 244.562 247.274 233.07C248.252 232.452 248.977 234.181 248.853 235.331C246.735 255.026 239.189 274.11 227.265 289.928L229.289 309.008ZM217.839 342.687C216.789 340.913 216.113 338.919 215.867 336.872L214.358 341.986L210.549 327.46C210.253 326.333 209.534 324.922 208.395 325.165C207.287 325.4 207.163 326.92 207.328 328.041C208.157 333.676 209.74 339.201 212.02 344.42L207.97 340.866C207.772 342.558 208.218 344.317 209.196 345.712C207.087 344.158 204.256 343.628 201.727 344.314C203.535 346.825 205.988 348.867 208.786 350.187L205.363 345.41C208.13 347.007 211.028 348.375 214.02 349.497L211.119 345.86L214.703 346.853C211.961 340.616 209.168 334.14 209.234 327.326C210.272 332.869 211.791 338.322 213.769 343.602C214.104 344.497 214.477 345.423 215.191 346.058C215.905 346.693 217.066 346.932 217.814 346.337C218.395 345.875 218.565 345.078 218.697 344.347L220.311 335.396L222.083 346.496C223.427 343.101 227.799 342.25 231.45 342.228C236.272 342.198 241.129 342.729 245.975 343.259C254.708 344.214 263.401 345.164 271.77 342.815C271.524 344.109 271.094 345.368 270.497 346.541C277.25 345.558 284.082 345.127 290.905 345.253C293.786 345.306 296.676 345.458 299.566 345.609H299.566H299.566H299.567H299.567H299.567H299.568H299.568H299.568H299.569C307.209 346.01 314.849 346.411 322.334 344.993L272.652 344.556C273.585 344.502 274.3 343.417 273.982 342.538C273.664 341.659 272.42 341.283 271.668 341.838C271.18 340.285 268.983 339.594 267.694 340.588C268.441 338.283 269.92 336.22 271.864 334.772C269.67 334.655 267.442 335.326 265.679 336.637L271.023 311.904C270.571 311.516 269.817 311.777 269.484 312.271C269.153 312.76 269.116 313.381 269.081 313.971L269.08 313.989C268.58 322.435 265.602 330.718 260.611 337.549L258.651 331.878L255.841 338.652C254.568 337.665 252.762 337.417 251.27 338.022C251.651 339.47 252.81 340.689 254.237 341.142L254.902 339.361L259.29 342.301C257.613 340.543 257.249 337.667 258.437 335.547L261.092 340.002L266.24 329.821C266.269 333.909 264.517 337.773 262.8 341.482C264.666 340.021 266.271 338.225 267.514 336.207C268.715 338.332 267.404 341.182 265.316 342.448C263.228 343.713 260.647 343.782 258.208 343.678C254.486 343.521 250.737 343.054 246.992 342.587C238.581 341.539 230.194 340.493 222.205 342.969L221.053 332.347C219.294 335.527 218.192 339.07 217.839 342.687ZM267.964 342.97C267.784 342.755 267.785 342.408 267.967 342.194L268.112 342.249C268.356 341.665 269.382 341.713 269.57 342.317C269.097 342.658 268.541 342.884 267.964 342.97ZM295.108 230.113C289.322 227.189 282.436 227.978 276.013 228.858C274.198 229.107 272.347 229.368 270.703 230.176C269.059 230.984 267.628 232.448 267.344 234.258C251.657 232.299 236.625 225.395 224.918 214.771C222.377 212.465 219.785 209.182 220.927 205.946C221.287 204.929 221.985 204.071 222.712 203.275C228.17 197.291 235.695 193.692 243.021 190.237C234.718 190.965 226.752 195.004 221.257 201.27C219.997 202.706 218.836 204.311 218.402 206.171C217.332 210.764 220.899 215.073 224.47 218.154C235.862 227.987 250.192 234.372 265.121 236.268C266.016 236.382 266.062 237.641 265.98 238.539C265.616 242.537 267.795 246.438 270.816 249.082C273.836 251.726 277.619 253.314 281.373 254.736C292.998 259.14 305.063 262.383 317.329 264.402C318.139 264.535 319.252 264.472 319.423 263.669C316.592 261.796 313.185 261.082 309.854 260.385C309.674 260.347 309.494 260.31 309.315 260.272C300.869 258.494 292.536 256.178 284.384 253.343C281.039 252.18 277.687 250.91 274.771 248.901C271.854 246.893 269.378 244.055 268.445 240.639C267.985 238.953 268.61 236.435 270.345 236.647C277.412 237.511 284.674 238.365 291.574 236.612C293.136 236.215 294.764 235.617 295.715 234.317C296.667 233.017 296.546 230.84 295.108 230.113ZM277.282 234.783C274.856 234.366 272.377 234.254 269.924 234.451C271.116 232.187 274.028 231.591 276.564 231.245C282.076 230.495 287.816 229.763 293.097 231.51C293.445 231.626 293.818 231.773 294.006 232.088C294.255 232.503 294.074 233.068 293.721 233.399C293.368 233.73 292.886 233.88 292.421 234.01C287.514 235.382 282.302 235.648 277.282 234.783ZM197.006 349.036C201.066 348.923 205.15 349.82 208.789 351.625C207.816 353.023 205.862 353.219 204.16 353.283L159.689 354.971C159.281 354.921 159.204 354.291 159.493 353.999C159.782 353.707 160.233 353.669 160.643 353.65L204.056 351.532C201.548 351.302 199.101 350.436 197.006 349.036ZM111.423 201.96C110.789 204.991 113.353 208.224 116.441 208.453C111.391 216.063 102.296 219.819 93.5563 222.47C88.1019 224.124 82.0514 225.483 76.8516 223.148C76.2063 223.543 76.8944 224.514 77.5757 224.842C82.636 227.28 88.6353 225.922 94.0178 224.315C101.911 221.96 110.048 218.915 115.419 212.669C115.639 212.414 115.858 212.15 116.079 211.885C117.461 210.224 118.903 208.491 120.981 208.107C127.673 206.869 133.246 202.678 138.753 198.536L138.754 198.535C140.003 197.596 141.249 196.66 142.503 195.761C150.128 190.296 158.585 185.994 167.492 183.049C168.279 182.789 169.235 182.307 169.165 181.481C158.122 182.495 148.469 189.08 139.569 195.695L139.272 195.916L139.272 195.916L139.272 195.916C133.223 200.413 126.902 205.112 119.459 206.227C121.89 204.309 121.377 199.878 118.634 198.442C115.891 197.005 112.056 198.929 111.423 201.96ZM113.483 203.812C112.987 202.342 113.753 200.593 115.115 199.848C115.501 199.637 115.933 199.496 116.374 199.495C117.828 199.494 118.89 201.049 118.899 202.503C118.909 203.957 118.172 205.298 117.455 206.563C115.78 206.307 114.026 205.418 113.483 203.812ZM278.731 171.415C278.319 170.957 278.445 170.339 278.577 169.7C278.669 169.248 278.764 168.785 278.673 168.359C278.594 167.99 278.379 167.676 278.163 167.361C277.972 167.082 277.78 166.802 277.682 166.483C277.704 166.061 278.268 165.844 278.653 166.019C279.037 166.194 279.252 166.607 279.387 167.008C279.876 168.47 279.625 170.159 278.731 171.415ZM241.503 139.338C242.532 136.898 244.572 134.735 247.173 134.24C248.015 134.079 247.988 132.692 247.251 132.256C246.513 131.819 245.566 132.077 244.793 132.445C241.189 134.161 238.914 137.936 238.022 141.826C237.131 145.717 237.426 149.768 237.726 153.748L239.319 174.901C239.373 175.621 239.439 176.376 239.839 176.976C240.655 178.197 242.405 178.236 243.871 178.143L251.292 177.671C249.642 176.379 247.429 175.835 245.368 176.215C244.165 176.438 242.956 175.644 242.318 174.599C241.681 173.555 241.494 172.305 241.336 171.092C240.302 163.153 239.922 155.128 240.203 147.127C240.296 144.481 240.474 141.777 241.503 139.338ZM260.451 327.104C260.03 327.41 259.607 326.713 259.546 326.196C256.678 302.089 256.246 277.767 255.816 253.494L255.527 237.131C255.519 236.665 255.525 236.154 255.825 235.797C256.341 235.182 257.425 235.464 257.876 236.128C258.326 236.792 258.327 237.652 258.312 238.455C257.87 262.341 258.16 286.273 260.447 310.053C260.474 310.333 260.501 310.613 260.528 310.893L260.531 310.922C261.055 316.324 261.588 321.807 260.451 327.104ZM236.608 175.149C235.98 174.804 235.205 174.999 234.518 175.202C202.724 184.606 171.003 194.302 139.749 205.369C139.164 205.576 138.495 205.874 138.361 206.48C138.218 207.122 138.822 207.735 139.469 207.854C140.115 207.973 140.769 207.742 141.386 207.515C172.708 195.993 204.501 185.752 236.659 176.827C237.349 176.636 237.237 175.494 236.608 175.149Z" fill="#00160A"/>
<path fill-rule="evenodd" clip-rule="evenodd" d="M349.885 318.991C349.145 319.316 348.343 319.619 347.547 319.482C346.75 319.345 346.005 318.597 346.165 317.804C347.628 310.559 345.791 302.712 341.263 296.869C339.676 294.822 337.786 293.02 336.24 290.941C335.266 289.632 334.399 287.984 334.893 286.429C335.596 284.215 338.428 283.676 340.746 283.518C346.133 283.151 351.521 282.784 356.908 282.417C359.391 282.247 362.25 282.222 363.907 284.078C368.52 289.245 377.511 289.592 382.508 284.796C383.281 284.054 384.255 285.532 384.224 286.603C384.128 289.972 382.739 293.287 380.407 295.72C379.856 296.294 379.153 296.856 378.362 296.774C377.571 296.691 376.988 295.556 377.618 295.071C378.971 294.032 380.349 292.967 381.297 291.549C382.246 290.131 382.706 288.273 382.059 286.694C378.579 291.097 375.065 295.473 371.519 299.823C365.37 307.364 358.794 315.078 349.885 318.991ZM359.603 296.8C358.718 297.045 357.774 296.856 356.89 296.607C350.531 294.81 344.673 289.842 338.168 291.005C345.753 297.113 349.78 307.355 348.387 316.993C353.384 315.923 357.33 312.192 360.869 308.506C366.108 303.049 371.082 297.339 375.769 291.401C372.4 291.373 369.045 290.402 366.182 288.625C362.647 289.5 363.113 295.829 359.603 296.8ZM364.221 286.768C362.114 284.284 358.329 284.361 355.085 284.646C350.854 285.018 346.623 285.389 342.392 285.761C340.674 285.912 338.701 286.213 337.805 287.687C345.128 289.22 352.268 291.628 359.024 294.843C359.893 292.114 361.634 289.67 363.93 287.958C364.188 287.765 364.484 287.518 364.45 287.198C364.432 287.034 364.327 286.893 364.221 286.768Z" fill="#FFB61D"/>
<path fill-rule="evenodd" clip-rule="evenodd" d="M50.5384 227.55C44.1656 225.002 36.5712 225.757 30.8257 229.512C30.2695 229.876 29.4698 229.47 29.1944 228.866C28.9191 228.261 29.0221 227.557 29.1629 226.908C30.9979 218.448 38.308 211.975 46.4374 209C54.5668 206.026 63.459 206.017 72.1006 206.526C72.9581 206.576 73.8543 206.643 74.5858 207.094C75.3172 207.544 75.8093 208.507 75.4447 209.285C72.0453 216.537 69.4846 224.181 67.8298 232.018C67.5615 233.288 66.2472 234.131 64.9528 234.237C63.6584 234.343 62.3901 233.865 61.2154 233.311C57.5545 231.585 54.2965 229.053 50.5384 227.55ZM51.2669 218.99C50.6989 219.452 49.8112 219.208 49.2768 218.708C48.7424 218.208 48.4378 217.516 48.0178 216.917C45.7645 213.703 40.5937 213.97 37.5287 216.422C34.4637 218.874 32.9806 222.749 31.63 226.435C40.622 222.529 51.697 223.931 59.4325 229.954C60.4886 230.776 61.5366 231.702 62.8371 232.019C64.1377 232.336 65.776 231.767 66.1055 230.469C67.8653 223.539 70.0339 216.712 72.5963 210.036C67.6797 216.147 57.3545 214.044 51.2669 218.99ZM49.3103 215.297C49.8152 215.931 50.732 216.1 51.5301 215.957C52.3282 215.813 53.0532 215.416 53.7969 215.093C56.3571 213.98 59.1927 213.731 61.9375 213.223C64.6824 212.714 67.5135 211.853 69.4458 209.838C65.0861 209.825 60.7264 209.811 56.3667 209.798C51.9854 209.785 47.2641 209.878 43.7444 212.487C45.887 212.565 47.975 213.619 49.3103 215.297Z" fill="#FFB61D"/>
<path fill-rule="evenodd" clip-rule="evenodd" d="M255.282 226.966C255.272 223.131 255.261 219.296 255.251 215.461C255.248 214.36 255.245 213.259 255.242 212.158C255.24 211.398 255.367 210.448 256.089 210.212C256.635 210.033 257.236 210.425 257.491 210.94C257.747 211.455 257.743 212.054 257.735 212.629C257.655 217.98 257.576 223.331 257.496 228.683C257.485 229.452 257.356 230.399 256.635 230.669C255.433 229.989 255.286 228.347 255.282 226.966H255.282Z" fill="#00160A"/>
<path fill-rule="evenodd" clip-rule="evenodd" d="M247.626 223.416C247.071 223.66 246.785 222.745 246.87 222.145C247.177 219.998 247.485 217.846 248.008 215.741C248.333 214.43 248.801 213.051 249.884 212.243C250.967 211.436 252.825 211.577 253.355 212.82C253.612 213.421 253.505 214.109 253.387 214.752C252.658 218.736 251.677 222.673 250.45 226.533C250.398 226.697 250.341 226.868 250.217 226.987C249.915 227.276 249.371 227.081 249.162 226.719C248.952 226.357 248.98 225.911 249.013 225.494C249.511 225.457 249.744 224.871 249.864 224.386C250.352 222.404 250.841 220.422 251.33 218.441C251.711 216.899 252.058 215.143 251.172 213.824C250.263 214.384 249.921 215.516 249.651 216.549C249.106 218.628 248.562 220.706 248.017 222.784C247.952 223.033 247.861 223.313 247.626 223.416L247.626 223.416Z" fill="#00160A"/>
</svg>
