<svg width="12" height="12" viewBox="0 0 12 12" fill="none" xmlns="http://www.w3.org/2000/svg">
<g clip-path="url(#clip0_7403_49721)">
<path d="M6 7C6.82843 7 7.5 6.32843 7.5 5.5C7.5 4.67157 6.82843 4 6 4C5.17157 4 4.5 4.67157 4.5 5.5C4.5 6.32843 5.17157 7 6 7Z" stroke="#080B0F" stroke-opacity="0.8" stroke-width="0.8" stroke-linecap="round" stroke-linejoin="round"/>
<path d="M8.8285 8.3286L6.707 10.4501C6.51949 10.6374 6.26529 10.7426 6.00025 10.7426C5.73521 10.7426 5.48101 10.6374 5.2935 10.4501L3.1715 8.3286C2.61211 7.76918 2.23117 7.05645 2.07685 6.28053C1.92252 5.50461 2.00175 4.70036 2.3045 3.96946C2.60726 3.23857 3.11995 2.61387 3.77774 2.17435C4.43553 1.73483 5.20889 1.50024 6 1.50024C6.79112 1.50024 7.56447 1.73483 8.22226 2.17435C8.88005 2.61387 9.39274 3.23857 9.6955 3.96946C9.99826 4.70036 10.0775 5.50461 9.92316 6.28053C9.76883 7.05645 9.38789 7.76918 8.8285 8.3286V8.3286Z" stroke="#080B0F" stroke-opacity="0.8" stroke-width="0.8" stroke-linecap="round" stroke-linejoin="round"/>
</g>
<defs>
<clipPath id="clip0_7403_49721">
<rect width="12" height="12" fill="white"/>
</clipPath>
</defs>
</svg>
