<svg width="24" height="24" viewBox="0 0 24 24" fill="none" xmlns="http://www.w3.org/2000/svg">
<rect width="24" height="24" rx="4" fill="#395987"/>
<path fill-rule="evenodd" clip-rule="evenodd" d="M6.59682 9.65009C6.59682 11.1417 7.43503 10.5832 7.76247 11.2687C7.82144 11.3893 7.8607 11.5162 7.93279 11.6686C8.49978 12.7905 9.31078 13.7802 10.31 14.5694C9.904 14.7788 9.69442 15.0074 9.28187 15.2041C7.36232 15.9356 5.73665 17.2464 4.64523 18.9427C4.1746 19.6243 3.78364 20.3546 3.47949 21.1199H4.25882C4.68003 20.0628 5.28226 19.0821 6.04009 18.2191C6.53784 17.6543 7.96553 16.3784 8.74486 16.207C7.95893 17.6479 8.42394 18.6635 8.20785 19.184C7.99167 19.7044 7.76907 19.3236 7.76907 20.1742C7.76907 21.2659 9.91711 21.7103 9.91711 19.9901C9.92398 19.8884 9.90828 19.7865 9.87099 19.6912C9.83369 19.5959 9.7757 19.5095 9.70102 19.4379C9.33424 19.0062 9.04606 19.2284 8.95444 18.5492C8.86272 17.87 9.32773 15.8643 10.2118 15.6358C10.0689 16.0349 9.97011 16.4477 9.91711 16.8672C9.91274 17.4389 10.1354 17.9903 10.5389 18.4074C10.9424 18.8245 11.4958 19.0752 12.0848 19.1078C12.6798 19.0994 13.2495 18.8739 13.6805 18.4761C14.1114 18.0785 14.3718 17.5379 14.4097 16.9623C14.4097 16.4927 14.1281 16.1689 14.115 15.6358C14.5472 15.8579 14.5734 15.8579 14.7698 16.2705C14.9685 16.5893 15.0999 16.9431 15.1563 17.3114C13.7154 17.6416 14.1936 19.0253 13.5976 19.7806C13.5452 19.844 13.5386 19.8124 13.4731 19.9393C13.4151 20.0271 13.3803 20.1274 13.3719 20.2313C13.3633 20.3353 13.3813 20.4396 13.4243 20.5351C13.4672 20.6307 13.5339 20.7146 13.6182 20.7793C13.7025 20.844 13.802 20.8875 13.9078 20.9062C14.0137 20.9247 14.1226 20.9178 14.225 20.8859C14.3274 20.854 14.4201 20.7982 14.495 20.7233C14.5698 20.6485 14.6245 20.5569 14.6541 20.4566C14.6838 20.3564 14.6876 20.2507 14.6651 20.1488C14.6651 19.7425 14.4097 20.1488 14.5014 19.4379C14.8616 16.829 17.4091 17.6416 17.0227 19.495C16.8983 20.0916 16.9506 20.0472 16.7018 20.3265C15.7653 21.3865 17.7889 21.8055 17.7889 20.8153C17.7889 20.0853 17.4615 20.9422 17.7431 19.3426C17.8271 18.8811 17.7325 18.4059 17.4776 18.0076C17.2227 17.6095 16.8252 17.3164 16.3612 17.1845C15.3855 16.9433 16.1582 17.4765 15.4509 16.1816C16.1582 16.3657 17.6186 17.6986 18.1099 18.2382C18.8426 19.1105 19.4566 20.0705 19.937 21.0945H20.5919C20.14 19.1903 17.9068 16.8481 16.0469 15.7564C15.6898 15.5561 15.3177 15.3821 14.9336 15.2359C14.5341 15.0517 14.2394 14.6709 13.8595 14.6011C14.8868 13.8441 15.7131 12.8606 16.2695 11.732C16.872 10.4625 16.6887 11.2433 17.3043 10.6594C18.2277 9.77708 17.1275 8.93285 17.1013 8.90747C16.6559 8.27268 17.9461 2.59176 12.5891 2.59176C11.2793 2.59176 10.2183 2.52191 9.05918 3.22655C7.69698 4.04531 7.23857 5.702 7.22545 7.31423C7.22545 9.78977 6.53784 8.67895 6.53784 9.67547M7.80833 8.25998C7.80833 6.76836 7.89344 5.49256 8.50905 4.58488C8.85638 4.1376 9.31283 3.78114 9.83762 3.54735C10.3623 3.31357 10.9388 3.2098 11.515 3.24554C13.4274 3.24554 12.6742 3.24554 14.3507 3.62004L13.8595 3.90571C13.9316 4.71817 14.2263 5.37196 13.7679 6.08919C13.388 6.67953 12.6545 6.76206 11.8818 6.90804C9.8254 7.28885 9.66828 7.08571 7.8673 8.2346L7.80833 8.25998ZM11.908 14.6075C11.2318 14.4199 10.6075 14.088 10.0808 13.6363C8.95167 12.5378 8.18367 11.1396 7.87381 9.6184C7.80181 9.15498 8.22097 8.76778 8.627 8.50119C9.74679 7.75857 11.5674 7.69512 13.0082 7.346C14.5669 6.9715 14.9729 5.49256 14.5406 3.82318C16.1517 4.24206 16.204 7.63158 16.204 8.83763C16.263 11.3512 13.9971 14.5694 11.9669 14.5694L11.908 14.6075ZM7.22545 9.40888C7.22545 9.91037 7.31066 9.93575 7.32369 10.3546C7.21957 10.3008 7.13534 10.2168 7.08253 10.1145C7.02971 10.0122 7.01106 9.89647 7.02899 9.78338C7.08797 9.52948 7.04862 9.59932 7.28443 9.37081L7.22545 9.40888ZM16.7869 10.4436C16.8459 10.2213 16.8524 10.177 16.9048 9.89768L17.0816 9.40888C17.3239 10.1262 17.2978 10.0437 16.872 10.4055L16.7869 10.4436ZM10.5392 17.0702C10.5392 16.3467 11.0108 15.6929 11.0304 14.9883C12.2092 15.5341 12.5301 15.0962 13.1784 15.0835C13.2636 16.0991 14.2132 16.9877 13.1784 17.997C13.0461 18.1421 12.884 18.2589 12.7025 18.3398C12.5209 18.4207 12.3239 18.4639 12.1241 18.4667C11.7201 18.4418 11.3347 18.2928 11.0239 18.0415C10.7815 17.7535 10.6333 17.4022 10.5982 17.0322L10.5392 17.0702ZM8.39771 20.1869C8.39771 19.514 9.05267 19.787 9.17704 19.8124C9.17704 20.1615 9.26224 20.4471 8.88235 20.4471C8.50254 20.4471 8.45668 20.2948 8.45668 20.1488L8.39771 20.1869Z" fill="white"/>
</svg>
