<svg width="36" height="36" viewBox="0 0 36 36" fill="none" xmlns="http://www.w3.org/2000/svg">
<rect width="36" height="36" rx="6" fill="#E4EEF5"/>
<path d="M23.4223 20.4453L21.5173 20.2278C21.0598 20.1753 20.6098 20.3328 20.2873 20.6553L18.9073 22.0353C16.7848 20.9553 15.0448 19.2228 13.9648 17.0928L15.3523 15.7053C15.6748 15.3828 15.8323 14.9328 15.7798 14.4753L15.5623 12.5853C15.4723 11.8278 14.8348 11.2578 14.0698 11.2578H12.7723C11.9248 11.2578 11.2198 11.9628 11.2723 12.8103C11.6698 19.2153 16.7923 24.3303 23.1898 24.7278C24.0373 24.7803 24.7423 24.0753 24.7423 23.2278V21.9303C24.7498 21.1728 24.1798 20.5353 23.4223 20.4453Z" fill="#395987"/>
</svg>
