<svg width="14" height="16" viewBox="0 0 14 16" fill="none" xmlns="http://www.w3.org/2000/svg">
<path d="M2.06201 0.746094L7.97266 6.90137L9.72021 5.08203C6.70896 3.37878 2.72651 1.12559 2.06201 0.746094ZM0.355469 1.13574C0.291719 1.28424 0.25 1.44718 0.25 1.62793V14.4438C0.25 14.5916 0.283281 14.728 0.332031 14.8555L6.93262 7.98389L0.355469 1.13574ZM11.0679 5.84521L9.0127 7.98389L11.0518 10.1079C12.3035 9.39916 13.1699 8.9082 13.1699 8.9082C13.5442 8.68095 13.7538 8.3312 13.7485 7.9502C13.7433 7.57895 13.527 7.23645 13.1685 7.0332C13.1197 7.00545 12.2739 6.52696 11.0679 5.84521ZM7.97266 9.06787L2.10596 15.1748C3.11621 14.6003 6.8481 12.4866 9.7041 10.8696L7.97266 9.06787Z" fill="#6F7482"/>
</svg>
