<svg width="16" height="16" viewBox="0 0 16 16" fill="none" xmlns="http://www.w3.org/2000/svg">
<path d="M8 0.5C3.8645 0.5 0.5 3.8645 0.5 8C0.5 12.1355 3.8645 15.5 8 15.5C12.1355 15.5 15.5 12.1355 15.5 8C15.5 3.8645 12.1355 0.5 8 0.5ZM7.54175 3.23075L8 4.05575L8.45825 3.23075L9.76925 3.959L8.858 5.6L8 7.14425L7.5245 8H5.80925L7.14275 5.6L6.23075 3.95825L7.54175 3.23075ZM6.27425 10.25L5.291 12.0192L3.98 11.291L4.559 10.25H3.5V8.75H4.21025C4.214 8.75225 4.217 8.75375 4.22075 8.756C4.23125 8.75525 4.2395 8.75 4.25 8.75H5.39225H7.1075H7.69475H8.03375L8.867 10.25H6.27425ZM12.5 10.25H11.441L12.0192 11.2917L10.7083 12.02L9.72575 10.25H9.698C9.6995 10.2478 9.701 10.2448 9.7025 10.2425C9.7055 10.2387 9.71075 10.232 9.71375 10.2282L8.69825 8.4005L8.429 7.916L9.287 6.37175L10.6077 8.75H12.5V10.25Z" fill="#6F7482"/>
</svg>
