<svg width="512" height="346" viewBox="0 0 512 346" fill="none" xmlns="http://www.w3.org/2000/svg">
<path d="M126.457 98.3398H19.8242V158.779H126.457V98.3398Z" fill="#FAFAFA"/>
<path d="M126.457 158.779C126.457 158.779 126.457 158.406 126.457 157.693C126.457 156.98 126.457 155.914 126.457 154.537C126.457 151.769 126.457 147.687 126.423 142.448C126.423 131.985 126.382 116.893 126.355 98.3401L126.492 98.4785L19.8659 98.52L20.0434 98.3401C20.0434 119.716 20.0434 140.158 20.0434 158.779L19.8795 158.613L96.5635 158.696L118.593 158.738H124.471H125.986H126.512H126.007H124.512H118.668L96.6727 158.786L19.7976 158.952H19.627V158.779C19.627 140.158 19.627 119.716 19.627 98.3401V98.1602H19.8181L126.444 98.2017H126.58V98.3401C126.546 116.934 126.526 132.054 126.505 142.538C126.505 147.756 126.505 151.825 126.471 154.586C126.471 155.97 126.471 157.008 126.471 157.721C126.471 158.433 126.457 158.779 126.457 158.779Z" fill="#E0E0E0"/>
<path d="M47.9229 112.748H32.8496V128.027H47.9229V112.748Z" fill="#E0E0E0"/>
<path d="M68.6359 114.871C68.6359 114.968 65.1133 115.051 60.7784 115.051C56.4434 115.051 52.9141 114.968 52.9141 114.871C52.9141 114.774 56.4366 114.691 60.7784 114.691C65.1201 114.691 68.6359 114.795 68.6359 114.871Z" fill="#E0E0E0"/>
<path d="M118.832 120.408C118.832 120.505 104.08 120.588 85.88 120.588C67.6801 120.588 52.9141 120.505 52.9141 120.408C52.9141 120.312 67.6733 120.229 85.88 120.229C104.087 120.229 118.832 120.291 118.832 120.408Z" fill="#E0E0E0"/>
<path d="M96.659 126.553C96.659 126.65 86.9583 126.733 74.9979 126.733C63.0376 126.733 53.3438 126.65 53.3438 126.553C53.3438 126.456 63.0376 126.373 74.9979 126.373C86.9583 126.373 96.659 126.449 96.659 126.553Z" fill="#E0E0E0"/>
<path d="M110.668 150.773H37.8274C35.9746 150.771 34.1983 150.023 32.8888 148.695C31.5793 147.366 30.8437 145.565 30.8438 143.687C30.8438 141.809 31.5795 140.008 32.8892 138.681C34.1989 137.353 35.9752 136.607 37.8274 136.607H110.668C111.586 136.607 112.495 136.789 113.343 137.144C114.191 137.5 114.961 138.021 115.611 138.678C116.26 139.336 116.775 140.117 117.126 140.976C117.478 141.835 117.658 142.756 117.658 143.687C117.658 144.617 117.478 145.539 117.126 146.398C116.775 147.258 116.26 148.039 115.611 148.697C114.962 149.355 114.191 149.877 113.343 150.233C112.495 150.589 111.586 150.773 110.668 150.773Z" fill="#E0E0E0"/>
<path d="M60.8591 144.683H59.0706L58.7292 145.52H57.8145L59.5348 141.617H60.4154L62.1221 145.52H61.2005L60.8591 144.683ZM60.5793 143.991L59.9648 142.496L59.3914 143.998L60.5793 143.991Z" fill="white"/>
<path d="M65.8773 143.029C65.8773 143.901 65.1946 144.413 64.2048 144.413H63.4265V145.493H62.5391V141.59H64.2048C65.2288 141.618 65.8773 142.157 65.8773 143.029ZM64.9762 143.029C64.9762 142.6 64.6963 142.337 64.1502 142.337H63.4265V143.721H64.1706C64.6963 143.707 64.9762 143.458 64.9762 143.029Z" fill="white"/>
<path d="M69.8441 143.029C69.8441 143.901 69.2024 144.413 68.1784 144.413H67.4002V145.493H66.5059V141.59H68.1784C69.2024 141.618 69.8441 142.157 69.8441 143.029ZM68.943 143.029C68.943 142.6 68.6699 142.337 68.1238 142.337H67.4002V143.721H68.1238C68.6699 143.707 68.9498 143.458 68.9498 143.029H68.943Z" fill="white"/>
<path d="M70.4785 141.617H71.3728V144.78H73.3048V145.52H70.4785V141.617Z" fill="white"/>
<path d="M75.2575 144.136V145.52H74.3632V144.136L72.875 141.631H73.8171L74.8479 143.361L75.8787 141.631H76.7525L75.2575 144.136Z" fill="white"/>
<path d="M82.213 141.617V145.52H81.4825L79.5642 143.147V145.52H78.6836V141.617H79.4209L81.3323 143.984V141.617H82.213Z" fill="white"/>
<path d="M82.8829 143.57C82.8569 143.14 82.9587 142.713 83.1752 142.343C83.3917 141.974 83.7128 141.678 84.0969 141.496C84.481 141.313 84.9104 141.252 85.3293 141.32C85.7481 141.388 86.1372 141.582 86.4461 141.876C86.7549 142.171 86.9692 142.553 87.0611 142.973C87.1531 143.393 87.1185 143.831 86.9617 144.231C86.805 144.63 86.5335 144.973 86.1823 145.214C85.8311 145.455 85.4165 145.584 84.9923 145.583C84.7215 145.599 84.4504 145.559 84.1954 145.465C83.9405 145.371 83.7071 145.226 83.5096 145.037C83.3122 144.849 83.1547 144.621 83.0469 144.369C82.9392 144.117 82.8834 143.845 82.8829 143.57ZM86.1938 143.57C86.1884 143.33 86.1134 143.097 85.9782 142.901C85.8429 142.704 85.6535 142.552 85.4335 142.464C85.2135 142.376 84.9729 142.356 84.7416 142.406C84.5104 142.456 84.2989 142.574 84.1336 142.746C83.9682 142.917 83.8565 143.134 83.8123 143.37C83.7681 143.605 83.7935 143.849 83.8851 144.07C83.9768 144.291 84.1308 144.479 84.3277 144.612C84.5247 144.744 84.7559 144.815 84.9923 144.815C85.1538 144.82 85.3145 144.791 85.4643 144.73C85.6142 144.669 85.7498 144.577 85.8628 144.46C85.9757 144.343 86.0634 144.203 86.1204 144.05C86.1774 143.897 86.2024 143.733 86.1938 143.57Z" fill="white"/>
<path d="M93.4643 141.617L92.2014 145.52H91.2456L90.3991 142.877L89.5253 145.52H88.5764L87.3066 141.617H88.2351L89.1021 144.385L90.01 141.617H90.836L91.7167 144.385L92.611 141.617H93.4643Z" fill="white"/>
<path d="M128.71 227.045H36.543V279.284H128.71V227.045Z" fill="#FAFAFA"/>
<path d="M128.711 279.291C128.711 279.291 128.711 278.966 128.711 278.343C128.711 277.72 128.711 276.807 128.711 275.617C128.711 273.215 128.711 269.693 128.67 265.167C128.67 256.123 128.629 243.079 128.601 227.045L128.738 227.183L36.5778 227.225L36.7553 227.045C36.7553 245.521 36.7553 263.188 36.7553 279.291L36.5915 279.118L102.865 279.201L121.911 279.25H126.99H128.308H128.758H126.977H121.932L102.919 279.298L36.5369 279.381H36.373V279.215C36.373 263.112 36.373 245.445 36.373 226.969V226.789H36.5574L128.717 226.831H128.854V226.969C128.82 243.044 128.799 256.116 128.779 265.174C128.779 269.686 128.779 273.201 128.779 275.589C128.779 276.772 128.779 277.665 128.779 278.302C128.779 278.938 128.711 279.291 128.711 279.291Z" fill="#E0E0E0"/>
<path d="M60.8388 239.502H47.8066V252.712H60.8388V239.502Z" fill="#E0E0E0"/>
<path d="M78.7325 241.356C76.4615 241.536 74.1829 241.596 71.9058 241.536C69.6401 241.595 67.3729 241.535 65.1133 241.356C67.3729 241.178 69.6401 241.118 71.9058 241.176C74.1829 241.117 76.4615 241.177 78.7325 241.356Z" fill="#E0E0E0"/>
<path d="M122.122 246.104C122.122 246.201 109.37 246.284 93.6342 246.284C77.8987 246.284 65.1465 246.201 65.1465 246.104C65.1465 246.007 77.8987 245.924 93.6342 245.924C109.37 245.924 122.122 246.007 122.122 246.104Z" fill="#E0E0E0"/>
<path d="M102.954 251.432C102.954 251.529 94.5709 251.612 84.2353 251.612C73.8998 251.612 65.5371 251.529 65.5371 251.432C65.5371 251.335 73.9203 251.252 84.2558 251.252C94.5914 251.252 102.954 251.328 102.954 251.432Z" fill="#E0E0E0"/>
<path d="M115.064 272.365H52.108C50.5057 272.365 48.969 271.719 47.8359 270.571C46.7029 269.422 46.0664 267.865 46.0664 266.24C46.0664 265.436 46.2227 264.64 46.5264 263.898C46.8301 263.155 47.2753 262.48 47.8364 261.912C48.3975 261.344 49.0635 260.894 49.7965 260.587C50.5295 260.28 51.3149 260.122 52.108 260.123H115.064C115.857 260.122 116.642 260.28 117.375 260.587C118.108 260.894 118.774 261.344 119.335 261.912C119.896 262.48 120.341 263.155 120.645 263.898C120.949 264.64 121.105 265.436 121.105 266.24C121.105 267.865 120.469 269.422 119.336 270.571C118.203 271.719 116.666 272.365 115.064 272.365Z" fill="#E0E0E0"/>
<path d="M72.0082 267.112H70.4653L70.1718 267.804H69.3867L70.8681 264.434H71.6259L73.1141 267.804H72.3017L72.0082 267.112ZM71.7692 266.517L71.2436 265.229L70.7111 266.517H71.7692Z" fill="white"/>
<path d="M76.3437 265.679C76.3437 266.427 75.7908 266.897 74.9033 266.897H74.2206V267.804H73.4492V264.434H74.8896C75.7771 264.454 76.3437 264.918 76.3437 265.679ZM75.5655 265.679C75.5655 265.306 75.3266 265.091 74.8828 265.091H74.2548V266.26H74.8828C75.3266 266.26 75.5655 266.046 75.5655 265.679Z" fill="white"/>
<path d="M79.7773 265.679C79.7773 266.427 79.2244 266.897 78.3369 266.897H77.6542V267.804H76.8828V264.434H78.3232C79.2244 264.454 79.7773 264.918 79.7773 265.679ZM78.9991 265.679C78.9991 265.306 78.7601 265.091 78.3164 265.091H77.6952V266.26H78.3164C78.7601 266.26 78.9991 266.046 78.9991 265.679Z" fill="white"/>
<path d="M80.3301 264.455H81.0947V267.188H82.7672V267.804H80.3301V264.455Z" fill="white"/>
<path d="M84.4533 266.627V267.804H83.6819V266.6L82.3984 264.434H83.2108L84.1051 265.928L84.9926 264.434H85.7435L84.4533 266.627Z" fill="white"/>
<path d="M90.4675 264.454V267.804H89.8327L88.1806 265.728V267.804H87.416V264.434H88.0645L89.7234 266.51V264.434L90.4675 264.454Z" fill="white"/>
<path d="M91.0478 266.137C91.0273 265.768 91.1166 265.401 91.304 265.084C91.4914 264.767 91.7684 264.514 92.0991 264.358C92.4299 264.202 92.7991 264.15 93.1592 264.209C93.5192 264.268 93.8535 264.436 94.1187 264.689C94.384 264.943 94.568 265.272 94.6471 265.633C94.7261 265.994 94.6965 266.37 94.5621 266.714C94.4276 267.058 94.1946 267.353 93.893 267.561C93.5914 267.769 93.2353 267.88 92.8705 267.881C92.6361 267.895 92.4014 267.86 92.1807 267.779C91.96 267.698 91.7581 267.572 91.5873 267.408C91.4166 267.245 91.2806 267.048 91.1878 266.829C91.095 266.611 91.0474 266.375 91.0478 266.137ZM93.9082 266.137C93.9028 265.93 93.8374 265.73 93.7202 265.56C93.603 265.391 93.4391 265.261 93.2491 265.185C93.059 265.11 92.8513 265.093 92.6519 265.137C92.4524 265.18 92.2701 265.282 92.1277 265.431C91.9853 265.579 91.8891 265.766 91.8513 265.969C91.8134 266.173 91.8355 266.383 91.9147 266.573C91.994 266.764 92.127 266.927 92.297 267.041C92.467 267.155 92.6665 267.216 92.8705 267.216C93.0102 267.221 93.1492 267.195 93.2787 267.142C93.4082 267.089 93.5254 267.009 93.623 266.907C93.7205 266.806 93.7962 266.685 93.8453 266.553C93.8944 266.42 93.9158 266.278 93.9082 266.137Z" fill="white"/>
<path d="M100.189 264.454L99.1037 267.804H98.3049L97.5677 265.52L96.8167 267.804H95.9907L94.8984 264.434H95.6972L96.4481 266.8L97.2332 264.434H97.9158L98.6804 266.821L99.4518 264.434L100.189 264.454Z" fill="white"/>
<path d="M449.809 250.615H357.643V302.854H449.809V250.615Z" fill="#FAFAFA"/>
<path d="M449.81 302.861C449.81 302.861 449.81 302.536 449.81 301.913C449.81 301.291 449.81 300.377 449.81 299.187C449.81 296.786 449.81 293.263 449.776 288.738C449.776 279.693 449.735 266.649 449.701 250.615L449.838 250.754L357.678 250.795L357.855 250.615C357.855 269.092 357.855 286.759 357.855 302.861L357.691 302.688L423.964 302.771L443.011 302.82H448.09H449.407H449.858H448.131H443.086L424.074 302.868L357.691 302.951H357.527V302.785C357.527 286.682 357.527 269.016 357.527 250.539V250.359H357.712L449.872 250.401H450.008V250.539C449.974 266.614 449.954 279.686 449.933 288.745C449.933 293.256 449.933 296.772 449.933 299.159C449.933 300.343 449.933 301.235 449.933 301.872C449.933 302.508 449.81 302.861 449.81 302.861Z" fill="#E0E0E0"/>
<path d="M381.938 263.07H368.906V276.281H381.938V263.07Z" fill="#E0E0E0"/>
<path d="M399.831 264.926C395.306 265.166 390.771 265.166 386.246 264.926C390.771 264.686 395.306 264.686 399.831 264.926Z" fill="#E0E0E0"/>
<path d="M443.221 269.672C443.221 269.769 430.469 269.852 414.734 269.852C398.998 269.852 386.246 269.769 386.246 269.672C386.246 269.575 398.998 269.492 414.734 269.492C430.469 269.492 443.221 269.575 443.221 269.672Z" fill="#E0E0E0"/>
<path d="M424.053 275C424.053 275.097 415.67 275.18 405.334 275.18C394.998 275.18 386.615 275.097 386.615 275C386.615 274.903 394.998 274.82 405.334 274.82C415.67 274.82 424.053 274.896 424.053 275Z" fill="#E0E0E0"/>
<path d="M436.163 295.933H373.208C371.605 295.933 370.069 295.288 368.936 294.139C367.803 292.991 367.166 291.433 367.166 289.809C367.166 289.005 367.322 288.209 367.626 287.466C367.93 286.723 368.375 286.049 368.936 285.481C369.497 284.913 370.163 284.462 370.896 284.155C371.629 283.848 372.415 283.691 373.208 283.691H436.163C436.956 283.691 437.742 283.848 438.475 284.155C439.208 284.462 439.874 284.913 440.435 285.481C440.996 286.049 441.441 286.723 441.745 287.466C442.048 288.209 442.205 289.005 442.205 289.809C442.205 291.433 441.568 292.991 440.435 294.139C439.302 295.288 437.765 295.933 436.163 295.933Z" fill="#E0E0E0"/>
<path d="M393.115 290.674H391.565L391.271 291.366H390.486L391.968 287.996H392.725L394.214 291.366H393.408L393.115 290.674ZM392.869 290.079L392.343 288.785L391.818 290.079H392.869Z" fill="white"/>
<path d="M397.449 289.256C397.449 290.004 396.889 290.474 396.002 290.474H395.319V291.401H394.582V288.031H396.022C396.889 288.024 397.449 288.488 397.449 289.256ZM396.671 289.256C396.671 288.882 396.432 288.668 395.988 288.668H395.36V289.837H395.947C396.432 289.831 396.671 289.609 396.671 289.256Z" fill="white"/>
<path d="M400.882 289.256C400.882 290.004 400.322 290.474 399.435 290.474H398.752V291.401H397.994V288.031H399.435C400.322 288.024 400.882 288.488 400.882 289.256ZM400.097 289.256C400.097 288.882 399.865 288.668 399.414 288.668H398.786V289.837H399.414C399.865 289.831 400.097 289.609 400.097 289.256Z" fill="white"/>
<path d="M401.408 288.023H402.18V290.757H403.845V291.393H401.408V288.023Z" fill="white"/>
<path d="M405.552 290.196V291.393H404.821V290.189L403.531 288.023H404.35L405.238 289.518L406.125 288.023H406.869L405.552 290.196Z" fill="white"/>
<path d="M411.567 288.023V291.393H410.966L409.308 289.317V291.393H408.543V288.023H409.185L410.837 290.099V288.023H411.567Z" fill="white"/>
<path d="M412.153 289.705C412.133 289.336 412.222 288.969 412.41 288.651C412.598 288.334 412.875 288.081 413.206 287.925C413.537 287.77 413.907 287.718 414.267 287.778C414.627 287.838 414.962 288.006 415.227 288.26C415.492 288.515 415.675 288.844 415.753 289.205C415.832 289.567 415.801 289.944 415.666 290.287C415.53 290.631 415.296 290.925 414.994 291.133C414.691 291.34 414.334 291.45 413.969 291.449C413.735 291.463 413.501 291.429 413.28 291.347C413.06 291.266 412.859 291.14 412.688 290.976C412.518 290.813 412.383 290.616 412.291 290.397C412.199 290.178 412.152 289.943 412.153 289.705ZM415.014 289.705C415.01 289.497 414.945 289.294 414.828 289.123C414.711 288.952 414.546 288.819 414.355 288.742C414.164 288.665 413.954 288.647 413.753 288.69C413.552 288.733 413.368 288.836 413.224 288.985C413.08 289.134 412.982 289.322 412.944 289.527C412.905 289.732 412.927 289.944 413.006 290.136C413.086 290.328 413.22 290.492 413.391 290.608C413.562 290.723 413.763 290.785 413.969 290.785C414.109 290.789 414.248 290.763 414.378 290.71C414.508 290.657 414.626 290.577 414.724 290.476C414.822 290.375 414.898 290.254 414.948 290.121C414.998 289.989 415.02 289.847 415.014 289.705Z" fill="white"/>
<path d="M421.288 288.023L420.202 291.393H419.376L418.646 289.11L417.888 291.393H417.069L415.977 288.023H416.775L417.526 290.39L418.304 288.023H418.987L419.745 290.411L420.516 288.023H421.288Z" fill="white"/>
<path d="M483.008 123.059H376.375V183.498H483.008V123.059Z" fill="#FAFAFA"/>
<path d="M483.006 183.498C483.006 183.498 483.006 183.124 483.006 182.412C483.006 181.699 483.006 180.64 483.006 179.256C483.006 176.488 483.006 172.405 483.006 167.174C483.006 156.711 482.966 141.618 482.931 123.059L483.068 123.197L376.442 123.239L376.62 123.059C376.62 144.435 376.62 164.876 376.62 183.498L376.456 183.332L453.14 183.415L475.176 183.463H481.047H483.095H482.597H481.095H475.251L453.256 183.512L376.463 183.595H376.299V183.422C376.299 164.8 376.299 144.359 376.299 122.983V122.803H376.483L483.109 122.844H483.245V122.983C483.245 141.577 483.191 156.697 483.17 167.181C483.17 172.398 483.17 176.467 483.17 179.235C483.17 180.619 483.17 181.65 483.17 182.363C483.17 183.076 483.006 183.498 483.006 183.498Z" fill="#E0E0E0"/>
<path d="M404.48 137.465H389.406V152.744H404.48V137.465Z" fill="#E0E0E0"/>
<path d="M425.186 139.612C425.186 139.715 421.67 139.791 417.328 139.791C412.986 139.791 409.471 139.715 409.471 139.612C409.471 139.508 412.986 139.432 417.328 139.432C421.67 139.432 425.186 139.515 425.186 139.612Z" fill="#E0E0E0"/>
<path d="M475.389 145.106C475.389 145.21 460.63 145.286 442.43 145.286C424.23 145.286 409.471 145.21 409.471 145.106C409.471 145.002 424.223 144.926 442.43 144.926C460.637 144.926 475.389 145.009 475.389 145.106Z" fill="#E0E0E0"/>
<path d="M453.21 151.272C453.21 151.369 443.516 151.452 431.556 151.452C419.595 151.452 409.895 151.369 409.895 151.272C409.895 151.175 419.588 151.092 431.556 151.092C443.523 151.092 453.21 151.168 453.21 151.272Z" fill="#E0E0E0"/>
<path d="M467.224 161.326H394.376C390.519 161.326 387.393 164.496 387.393 168.405V168.412C387.393 172.322 390.519 175.491 394.376 175.491H467.224C471.081 175.491 474.207 172.322 474.207 168.412V168.405C474.207 164.496 471.081 161.326 467.224 161.326Z" fill="#E0E0E0"/>
<path d="M417.41 169.402H415.621L415.28 170.239H414.379L416.092 166.336H416.973L418.693 170.239H417.758L417.41 169.402ZM417.13 168.71L416.522 167.215L415.908 168.71H417.13Z" fill="white"/>
<path d="M422.428 167.754C422.428 168.619 421.786 169.138 420.756 169.138H419.984V170.231H419.09V166.328H420.756C421.786 166.335 422.428 166.875 422.428 167.754ZM421.527 167.754C421.527 167.325 421.254 167.062 420.708 167.062H419.984V168.446H420.708C421.254 168.425 421.527 168.155 421.527 167.754Z" fill="white"/>
<path d="M426.401 167.754C426.401 168.619 425.759 169.138 424.728 169.138H423.936V170.231H423.049V166.328H424.715C425.759 166.335 426.401 166.875 426.401 167.754ZM425.5 167.754C425.5 167.325 425.22 167.062 424.68 167.062H423.936V168.446H424.667C425.22 168.425 425.5 168.155 425.5 167.754Z" fill="white"/>
<path d="M427.035 166.336H427.923V169.54H429.855V170.232H427.035V166.336Z" fill="white"/>
<path d="M431.808 168.848V170.232H430.921V168.848L429.398 166.336H430.347L431.371 168.066L432.402 166.336H433.276L431.808 168.848Z" fill="white"/>
<path d="M438.764 166.335V170.231H438.033L436.115 167.857V170.231H435.234V166.328H435.972L437.89 168.695V166.328L438.764 166.335Z" fill="white"/>
<path d="M439.439 168.287C439.416 167.86 439.519 167.435 439.737 167.068C439.954 166.701 440.276 166.409 440.659 166.229C441.042 166.049 441.47 165.99 441.886 166.059C442.303 166.129 442.69 166.323 442.996 166.618C443.303 166.912 443.515 167.293 443.605 167.711C443.696 168.13 443.66 168.566 443.504 168.963C443.347 169.361 443.076 169.701 442.726 169.941C442.376 170.181 441.964 170.309 441.541 170.308C441.27 170.324 440.999 170.283 440.744 170.189C440.489 170.095 440.256 169.948 440.058 169.759C439.861 169.57 439.705 169.341 439.598 169.088C439.492 168.835 439.437 168.562 439.439 168.287ZM442.75 168.287C442.746 168.046 442.671 167.811 442.536 167.612C442.401 167.414 442.211 167.26 441.99 167.17C441.769 167.081 441.526 167.06 441.293 167.109C441.06 167.159 440.847 167.277 440.68 167.449C440.513 167.621 440.4 167.839 440.355 168.077C440.31 168.314 440.335 168.559 440.427 168.781C440.519 169.004 440.674 169.194 440.872 169.328C441.07 169.461 441.303 169.533 441.541 169.533C441.703 169.537 441.863 169.507 442.013 169.446C442.163 169.384 442.298 169.292 442.412 169.175C442.525 169.059 442.613 168.92 442.672 168.767C442.73 168.614 442.756 168.451 442.75 168.287Z" fill="white"/>
<path d="M450.014 166.335L448.758 170.231H447.83L446.976 167.588L446.075 170.231H445.099L443.836 166.328H444.758L445.625 169.096L446.532 166.328H447.358L448.239 169.096L449.133 166.328L450.014 166.335Z" fill="white"/>
<path d="M408.766 30.0742H92.8418V322.908H408.766V30.0742Z" fill="white"/>
<path d="M408.766 30.0742H92.8418V49.554H408.766V30.0742Z" fill="#E0E0E0"/>
<path d="M366.238 304.106C366.238 304.209 313.372 304.286 248.136 304.286C182.901 304.286 130.035 304.209 130.035 304.106C130.035 304.002 182.894 303.926 248.136 303.926C313.379 303.926 366.238 304.009 366.238 304.106Z" fill="#263238"/>
<path d="M228.598 245.363H223.922V270.331H228.598V245.363Z" fill="#E0E0E0"/>
<path d="M228.605 270.323C228.594 270.152 228.594 269.981 228.605 269.811C228.605 269.451 228.605 268.973 228.605 268.371C228.605 267.098 228.605 265.313 228.55 263.091C228.55 258.607 228.502 252.4 228.475 245.362L228.653 245.535H223.915C224.263 245.176 224.01 245.439 224.092 245.362V252.974C224.092 255.396 224.092 257.701 224.092 259.839C224.092 264.095 224.051 267.7 224.038 270.344L223.935 270.247L227.349 270.302H228.263H228.598C228.5 270.312 228.402 270.312 228.304 270.302H227.403L223.915 270.351H223.826V270.247C223.826 267.603 223.792 264.019 223.771 259.742C223.771 257.604 223.771 255.3 223.771 252.878V249.155C223.771 248.525 223.771 247.881 223.771 247.238V245.3L223.956 245.113H228.803V245.293C228.803 252.379 228.748 258.628 228.728 263.147C228.728 265.347 228.687 267.126 228.68 268.392C228.68 268.973 228.68 269.437 228.68 269.776C228.668 269.96 228.643 270.143 228.605 270.323Z" fill="#263238"/>
<path d="M237.089 241.577H215.244C213.688 241.577 212.196 240.951 211.095 239.836C209.994 238.722 209.375 237.21 209.373 235.633H242.96C242.958 237.21 242.339 238.722 241.238 239.836C240.137 240.951 238.645 241.577 237.089 241.577Z" fill="#263238"/>
<path d="M256.376 236.796H218.256V228.533H256.376C257.462 228.533 258.504 228.971 259.272 229.749C260.04 230.528 260.472 231.584 260.472 232.685C260.461 233.779 260.025 234.825 259.258 235.594C258.491 236.364 257.455 236.796 256.376 236.796Z" fill="white"/>
<path d="M188.628 169.173C187.58 169.317 186.628 169.87 185.977 170.714C185.325 171.558 185.025 172.627 185.139 173.692L190.641 224.388C191.021 227.801 192.627 230.952 195.153 233.241C197.679 235.53 200.948 236.795 204.336 236.796H218.876C219.963 236.796 221.005 236.358 221.773 235.579C222.541 234.801 222.972 233.745 222.972 232.644C222.972 231.542 222.541 230.486 221.773 229.708C221.005 228.929 219.963 228.492 218.876 228.492H206.527C204.83 228.492 203.191 227.867 201.914 226.735C200.637 225.602 199.809 224.038 199.584 222.333L193.195 172.709C193.125 172.173 192.951 171.657 192.684 171.189C192.417 170.721 192.062 170.311 191.638 169.982C191.215 169.654 190.731 169.413 190.216 169.275C189.7 169.136 189.163 169.101 188.634 169.173H188.628Z" fill="white"/>
<path d="M234.954 228.934L193.509 229.522L189.461 169.132L224.147 168.91C225.817 168.919 227.415 169.6 228.59 170.803C229.765 172.006 230.421 173.632 230.414 175.325L234.954 228.934Z" fill="white"/>
<g opacity="0.3">
<path d="M188.628 169.173C187.58 169.317 186.628 169.87 185.977 170.714C185.325 171.558 185.025 172.627 185.139 173.692L190.641 224.388C191.021 227.801 192.627 230.952 195.153 233.241C197.679 235.53 200.948 236.795 204.336 236.796H218.876C219.963 236.796 221.005 236.358 221.773 235.579C222.541 234.801 222.972 233.745 222.972 232.644C222.972 231.542 222.541 230.486 221.773 229.708C221.005 228.929 219.963 228.492 218.876 228.492H205.64C202.131 228.492 199.666 225.973 199.202 222.443L193.195 172.709C193.125 172.173 192.951 171.657 192.684 171.189C192.417 170.721 192.062 170.311 191.638 169.982C191.215 169.654 190.731 169.413 190.216 169.275C189.7 169.136 189.163 169.101 188.634 169.173H188.628Z" fill="black"/>
</g>
<path d="M230.789 241.578H221.73V246.353H230.789V241.578Z" fill="#263238"/>
<path d="M227.956 268.926H224.441C222.944 268.926 221.73 270.156 221.73 271.673V288.053C221.73 289.57 222.944 290.8 224.441 290.8H227.956C229.453 290.8 230.667 289.57 230.667 288.053V271.673C230.667 270.156 229.453 268.926 227.956 268.926Z" fill="#E0E0E0"/>
<path d="M227.962 290.799C227.962 290.799 228.16 290.799 228.522 290.703C228.97 290.589 229.383 290.361 229.721 290.042C230.059 289.722 230.311 289.321 230.454 288.876C230.568 288.424 230.607 287.956 230.57 287.492C230.57 286.461 230.57 285.291 230.57 284.032C230.57 281.43 230.57 278.357 230.529 274.946C230.529 274.095 230.529 273.216 230.529 272.323C230.56 271.887 230.528 271.449 230.434 271.022C230.323 270.602 230.107 270.218 229.806 269.908C229.504 269.585 229.125 269.347 228.706 269.216C228.259 269.112 227.799 269.077 227.341 269.112H224.46C224.009 269.113 223.566 269.235 223.177 269.468C222.788 269.7 222.467 270.034 222.248 270.434C222.037 270.826 221.927 271.267 221.928 271.714V273.098C221.928 274.953 221.928 276.752 221.928 278.461C221.928 281.873 221.928 284.945 221.893 287.54C221.831 288.135 221.932 288.737 222.187 289.277C222.421 289.711 222.77 290.071 223.195 290.315C223.619 290.559 224.102 290.679 224.59 290.661H225.778L227.423 290.696C227.615 290.688 227.807 290.699 227.997 290.73C227.806 290.745 227.614 290.745 227.423 290.73L225.778 290.765H224.59C224.064 290.791 223.541 290.666 223.081 290.406C222.621 290.145 222.243 289.759 221.989 289.291C221.844 289.016 221.742 288.719 221.689 288.412C221.646 288.091 221.63 287.767 221.641 287.443C221.641 284.848 221.641 281.776 221.6 278.364C221.6 276.655 221.6 274.856 221.6 273.001V271.617C221.594 271.23 221.665 270.846 221.807 270.487C221.95 270.128 222.161 269.801 222.429 269.525C222.697 269.25 223.017 269.031 223.369 268.882C223.721 268.732 224.099 268.655 224.481 268.655H227.327C227.815 268.619 228.306 268.659 228.782 268.773C229.254 268.92 229.684 269.184 230.031 269.541C230.357 269.898 230.592 270.33 230.714 270.801C230.809 271.255 230.844 271.721 230.816 272.185C230.816 273.077 230.816 273.956 230.816 274.807C230.816 278.219 230.816 281.291 230.782 283.893C230.782 285.18 230.782 286.35 230.782 287.353C230.81 287.838 230.76 288.324 230.632 288.793C230.496 289.185 230.28 289.544 229.997 289.844C229.607 290.254 229.101 290.532 228.549 290.64C228.363 290.724 228.165 290.778 227.962 290.799Z" fill="#263238"/>
<path d="M252.28 289.443H199.1C198.39 289.417 197.681 289.542 197.022 289.812C196.362 290.081 195.765 290.488 195.271 291.007C193.298 293.083 193.421 296.543 193.428 296.667L195.851 296.564C195.851 295.872 195.981 293.796 197.025 292.702C197.293 292.432 197.614 292.221 197.966 292.083C198.319 291.945 198.696 291.882 199.073 291.899H213.027V298.162H215.45V291.899H252.253C253.002 291.901 253.72 292.204 254.249 292.741C254.779 293.277 255.077 294.005 255.079 294.764V296.612H257.503V294.792C257.508 293.381 256.961 292.026 255.982 291.023C255.003 290.02 253.672 289.452 252.28 289.443Z" fill="#E0E0E0"/>
<path d="M252.279 289.444C252.506 289.427 252.735 289.427 252.962 289.444C253.611 289.515 254.241 289.71 254.819 290.018C255.76 290.538 256.529 291.327 257.031 292.288C257.347 292.901 257.542 293.571 257.604 294.26C257.652 295 257.604 295.762 257.638 296.585V296.675H255.037V296.578C254.969 295.381 255.31 293.914 254.32 292.89C253.855 292.373 253.213 292.054 252.525 291.997C251.842 291.997 251.05 291.997 250.286 291.997H240.175H215.504L215.668 291.824C215.668 293.796 215.668 295.928 215.668 298.087V298.267H212.896V291.824L213.074 292.004H198.867C198.381 292.019 197.909 292.17 197.502 292.44C197.11 292.73 196.799 293.119 196.601 293.568C196.198 294.481 196 295.474 196.021 296.474V296.654H195.857L193.433 296.758H193.256V296.578C193.233 295.416 193.411 294.259 193.781 293.16C194.129 292.058 194.775 291.077 195.645 290.329C196.532 289.625 197.618 289.225 198.744 289.188C199.837 289.188 200.888 289.188 201.946 289.188H214.002L234.12 289.229L247.46 289.277L251.044 289.312H251.972H252.286C252.286 289.312 252.184 289.312 251.972 289.312H251.044H247.46L234.12 289.367L214.002 289.409H201.946C200.895 289.409 199.823 289.409 198.765 289.409C197.708 289.442 196.69 289.82 195.864 290.488C195.04 291.193 194.43 292.119 194.102 293.16C193.751 294.218 193.584 295.33 193.611 296.447L193.426 296.281L195.843 296.177L195.679 296.357C195.654 295.297 195.864 294.244 196.294 293.277C196.519 292.773 196.869 292.337 197.311 292.011C197.77 291.703 198.304 291.531 198.854 291.513H213.237V291.693C213.237 293.845 213.237 295.976 213.237 297.955L213.067 297.782H215.483L215.313 297.955C215.313 295.796 215.313 293.665 215.313 291.693V291.52H215.483H240.155H250.265C251.037 291.52 251.774 291.52 252.525 291.52C253.247 291.584 253.921 291.916 254.417 292.452C254.913 292.988 255.197 293.691 255.215 294.426C255.215 295.083 255.215 295.72 255.215 296.336L255.119 296.239H257.543L257.454 296.322C257.454 295.505 257.488 294.724 257.454 294.011C257.402 293.34 257.218 292.686 256.914 292.087C256.438 291.141 255.698 290.359 254.785 289.838C254.22 289.52 253.602 289.312 252.962 289.222C252.504 289.457 252.279 289.457 252.279 289.444Z" fill="#263238"/>
<path d="M218.93 301.082C218.932 302.033 218.655 302.964 218.134 303.756C217.614 304.547 216.873 305.165 216.006 305.53C215.139 305.895 214.185 305.991 213.265 305.807C212.344 305.622 211.498 305.164 210.833 304.492C210.169 303.82 209.717 302.963 209.533 302.03C209.349 301.096 209.443 300.129 209.802 299.25C210.161 298.371 210.769 297.619 211.549 297.09C212.33 296.562 213.247 296.279 214.186 296.279C215.443 296.279 216.649 296.785 217.538 297.685C218.428 298.586 218.929 299.807 218.93 301.082Z" fill="#263238"/>
<path d="M199.38 299.913C199.38 300.864 199.101 301.794 198.58 302.585C198.059 303.376 197.318 303.992 196.451 304.356C195.584 304.72 194.63 304.815 193.71 304.63C192.789 304.444 191.944 303.986 191.28 303.314C190.617 302.641 190.165 301.784 189.982 300.851C189.799 299.918 189.893 298.951 190.252 298.072C190.611 297.194 191.219 296.442 191.999 295.914C192.779 295.386 193.697 295.104 194.635 295.104C195.893 295.104 197.1 295.61 197.99 296.512C198.88 297.414 199.38 298.637 199.38 299.913Z" fill="#263238"/>
<path d="M260.512 300.086C260.514 301.037 260.237 301.968 259.716 302.76C259.196 303.551 258.455 304.169 257.588 304.534C256.722 304.899 255.767 304.995 254.847 304.81C253.926 304.626 253.08 304.168 252.415 303.496C251.751 302.823 251.299 301.967 251.115 301.033C250.931 300.1 251.025 299.133 251.384 298.254C251.743 297.375 252.351 296.623 253.131 296.094C253.912 295.565 254.829 295.283 255.768 295.283C257.025 295.283 258.231 295.789 259.12 296.689C260.01 297.59 260.511 298.811 260.512 300.086Z" fill="#263238"/>
<path d="M257.4 228.533C257.4 228.63 245.713 228.754 231.301 228.81C216.89 228.865 205.203 228.81 205.203 228.727C205.203 228.644 216.884 228.505 231.301 228.45C245.719 228.395 257.4 228.429 257.4 228.533Z" fill="#263238"/>
<path d="M199.258 221.661C199.162 221.661 197.722 210.727 196.049 197.213C194.376 183.698 193.093 172.723 193.189 172.709C193.284 172.695 194.725 183.643 196.397 197.164C198.07 210.686 199.339 221.647 199.258 221.661Z" fill="#263238"/>
<path d="M192.75 169.056C192.869 169.01 192.993 168.977 193.119 168.959C193.475 168.897 193.836 168.86 194.197 168.848C195.537 168.801 196.873 169.01 198.136 169.464C199.019 169.787 199.808 170.33 200.43 171.042C201.115 171.863 201.703 172.762 202.184 173.72C203.208 175.72 204.349 177.872 205.598 180.149C208.103 184.654 210.458 188.695 212.056 191.684C212.868 193.172 213.489 194.39 213.913 195.241C214.104 195.636 214.254 195.933 214.384 196.224C214.447 196.336 214.493 196.457 214.52 196.584C214.443 196.481 214.375 196.372 214.315 196.259L213.79 195.304L211.837 191.809C210.185 188.854 207.796 184.841 205.284 180.322C204.028 178.066 202.894 175.872 201.87 173.879C201.412 172.935 200.843 172.05 200.177 171.243C199.595 170.552 198.851 170.022 198.013 169.7C196.783 169.241 195.481 169.006 194.17 169.008C193.269 168.98 192.757 169.091 192.75 169.056Z" fill="#263238"/>
<path d="M185.42 171.686C185.509 171.735 182.368 177.284 178.416 184.073C174.463 190.862 171.186 196.335 171.098 196.287C171.009 196.238 174.149 190.689 178.109 183.893C182.068 177.098 185.338 171.617 185.42 171.686Z" fill="#263238"/>
<path d="M222.447 196.279H165.629V213.261H222.447V196.279Z" fill="#FAFAFA"/>
<path d="M180.955 201.553L178.177 208.071H176.709L173.938 201.553H175.542L177.494 206.217L179.474 201.56L180.955 201.553Z" fill="#263238"/>
<path d="M185.5 206.674H182.517L181.95 208.058H180.428L183.288 201.539H184.756L187.63 208.058H186.067L185.5 206.674ZM185.002 205.525L183.984 203.027L182.995 205.525H185.002Z" fill="#263238"/>
<path d="M187.801 204.831C187.84 204.126 188.083 203.449 188.501 202.884C188.918 202.319 189.491 201.891 190.147 201.654C190.803 201.418 191.514 201.383 192.189 201.554C192.865 201.726 193.476 202.095 193.945 202.617L192.989 203.51C192.794 203.268 192.548 203.074 192.269 202.943C191.99 202.811 191.686 202.744 191.378 202.748C190.835 202.748 190.314 202.967 189.93 203.356C189.546 203.746 189.33 204.274 189.33 204.824C189.33 205.375 189.546 205.903 189.93 206.292C190.314 206.682 190.835 206.9 191.378 206.9C191.686 206.904 191.991 206.836 192.27 206.703C192.549 206.57 192.795 206.375 192.989 206.132L193.945 207.025C193.477 207.55 192.867 207.922 192.191 208.096C191.515 208.269 190.803 208.236 190.146 208C189.489 207.763 188.915 207.335 188.498 206.769C188.08 206.202 187.838 205.523 187.801 204.818V204.831Z" fill="#263238"/>
<path d="M199.031 206.674H196.048L195.481 208.058H193.959L196.819 201.539H198.287L201.161 208.058H199.598L199.031 206.674ZM198.567 205.532L197.543 203.034L196.526 205.525L198.567 205.532Z" fill="#263238"/>
<path d="M207.721 201.553V208.071H206.5L203.298 204.141V208.099H201.83V201.58H203.059L206.254 205.539V201.58L207.721 201.553Z" fill="#263238"/>
<path d="M210.568 202.755H208.52V201.523H214.117V202.755H212.069V208.042H210.581L210.568 202.755Z" fill="#263238"/>
<path d="M220.61 211.752C220.61 211.752 220.61 211.669 220.61 211.502C220.61 211.336 220.61 211.101 220.61 210.81C220.61 210.181 220.61 209.267 220.61 208.091C220.61 205.71 220.61 202.257 220.555 197.898L220.657 198.002L167.068 198.078C167.143 197.995 166.884 198.258 167.239 197.898V211.738L167.061 211.565L205.291 211.641L216.561 211.689H219.606H220.398H220.671C220.587 211.696 220.503 211.696 220.419 211.689H219.647H216.643L205.414 211.738L167.075 211.821H166.904V211.752C166.904 209.516 166.904 207.233 166.904 204.922V197.856C167.259 197.496 167.007 197.752 167.089 197.676L220.678 197.746H220.787V197.856C220.787 202.244 220.739 205.717 220.726 208.112C220.726 209.281 220.726 210.188 220.726 210.81V211.502C220.696 211.59 220.657 211.673 220.61 211.752Z" fill="#263238"/>
<path d="M226.167 112.021H230.488L226.208 115.565H223.115L226.167 112.021Z" fill="#263238"/>
<path d="M177.651 145.432V154.545H172.149V146.345C172.149 144.048 171.159 143.079 169.568 143.079C167.8 143.079 166.435 144.2 166.435 146.843V154.545H160.926V132.74H166.435V140.082C167.735 138.918 169.425 138.299 171.159 138.352C174.839 138.352 177.651 140.477 177.651 145.432Z" fill="#263238"/>
<path d="M180.496 133.881C180.496 132.206 181.861 130.912 183.855 130.912C185.848 130.912 187.22 132.116 187.22 133.791C187.22 135.465 185.889 136.849 183.855 136.849C181.82 136.849 180.496 135.555 180.496 133.881ZM181.104 138.614H186.613V154.53H181.104V138.614Z" fill="#263238"/>
<path d="M200.704 138.352V143.375C200.29 143.317 199.873 143.287 199.455 143.286C197.223 143.286 195.687 144.434 195.687 147.223V154.544H190.178V138.628H195.427V140.538C196.561 139.092 198.383 138.352 200.704 138.352Z" fill="#263238"/>
<path d="M202.355 133.881C202.355 132.206 203.687 130.912 205.721 130.912C207.755 130.912 209.08 132.116 209.08 133.791C209.08 135.465 207.749 136.849 205.721 136.849C203.693 136.849 202.355 135.555 202.355 133.881ZM202.963 138.614H208.472V154.53H202.963V138.614Z" fill="#263238"/>
<path d="M228.768 145.43V154.544H223.232V146.344C223.232 144.046 222.249 143.078 220.651 143.078C218.883 143.078 217.518 144.199 217.518 146.842V154.544H212.016V138.628H217.259V140.358C217.912 139.698 218.692 139.181 219.55 138.838C220.408 138.495 221.327 138.334 222.249 138.365C225.962 138.351 228.768 140.476 228.768 145.43Z" fill="#263238"/>
<path d="M249.351 138.614V151.631C249.351 157.658 245.992 160.509 240.135 160.509C237.117 160.509 234.25 159.817 232.332 158.433L234.332 154.523C235.883 155.64 237.74 156.238 239.643 156.233C242.599 156.233 243.842 154.849 243.842 152.378V151.852C243.25 152.496 242.525 152.998 241.719 153.324C240.912 153.649 240.045 153.79 239.179 153.735C235.001 153.735 231.465 150.731 231.465 146.033C231.465 141.334 235.001 138.365 239.179 138.365C241.35 138.365 243.029 139.057 244.108 140.566V138.628L249.351 138.614ZM243.889 146.019C243.889 144.081 242.435 142.787 240.476 142.787C238.517 142.787 237.022 144.081 237.022 146.019C237.022 147.956 238.503 149.278 240.476 149.278C240.917 149.311 241.36 149.25 241.777 149.1C242.193 148.95 242.575 148.715 242.897 148.408C243.219 148.101 243.475 147.729 243.648 147.317C243.821 146.904 243.908 146.46 243.903 146.012L243.889 146.019Z" fill="#263238"/>
<path d="M251.904 151.486C251.904 150.598 252.252 149.746 252.872 149.118C253.492 148.49 254.332 148.137 255.208 148.137C256.085 148.137 256.925 148.49 257.545 149.118C258.164 149.746 258.513 150.598 258.513 151.486C258.513 152.374 258.164 153.226 257.545 153.854C256.925 154.482 256.085 154.835 255.208 154.835C254.332 154.835 253.492 154.482 252.872 153.854C252.252 153.226 251.904 152.374 251.904 151.486Z" fill="white"/>
<path d="M235.999 116.816V120.768C235.675 120.723 235.349 120.7 235.022 120.699C233.268 120.699 232.066 121.598 232.066 123.785V129.528H227.738V117.024H231.834V118.526C232.749 117.398 234.155 116.816 235.999 116.816Z" fill="#263238"/>
<path d="M250.204 124.387H241.233C241.602 125.653 242.667 126.394 244.264 126.394C244.785 126.412 245.304 126.325 245.792 126.139C246.279 125.952 246.725 125.67 247.104 125.307L249.384 127.708C248.197 129.044 246.469 129.743 244.128 129.743C239.731 129.743 236.885 126.975 236.885 123.259C236.885 119.543 239.779 116.816 243.67 116.816C247.309 116.816 250.272 119.176 250.272 123.3C250.272 123.626 250.224 124.041 250.204 124.387ZM241.165 122.083H246.217C246.11 121.482 245.798 120.94 245.337 120.549C244.875 120.158 244.293 119.944 243.691 119.944C243.089 119.944 242.507 120.158 242.045 120.549C241.584 120.94 241.272 121.482 241.165 122.083Z" fill="#263238"/>
<path d="M209.101 117.023L204.705 129.528H200.52L198.199 122.726L195.782 129.528H191.598L187.201 117.023H191.297L193.823 124.594L196.444 117.023H200.131L202.677 124.635L205.299 117.023H209.101Z" fill="#263238"/>
<path d="M222.617 124.387H213.674C214.042 125.653 215.107 126.394 216.705 126.394C217.227 126.412 217.747 126.326 218.235 126.139C218.724 125.953 219.171 125.67 219.552 125.307L221.825 127.708C220.644 129.044 218.91 129.743 216.568 129.743C212.172 129.743 209.332 126.975 209.332 123.259C209.332 119.543 212.22 116.816 216.111 116.816C219.756 116.816 222.712 119.176 222.712 123.3C222.685 123.626 222.637 124.041 222.617 124.387ZM213.578 122.083H218.637C218.534 121.478 218.223 120.93 217.761 120.535C217.298 120.141 216.712 119.924 216.107 119.924C215.503 119.924 214.917 120.141 214.454 120.535C213.992 120.93 213.681 121.478 213.578 122.083Z" fill="#263238"/>
<path d="M190.403 93.8774L189.72 79.1724C189.694 78.5915 189.458 78.0407 189.058 77.6238C188.658 77.2069 188.122 76.9528 187.549 76.9095C186.948 76.8621 186.351 77.0512 185.883 77.4378C185.416 77.8243 185.113 78.3786 185.037 78.9855L183.201 93.7251C183.172 93.9862 183.198 94.2505 183.277 94.5007C183.355 94.751 183.485 94.9816 183.658 95.1775C183.831 95.3734 184.042 95.5302 184.279 95.6376C184.515 95.7451 184.771 95.8008 185.03 95.8011H188.567C188.813 95.7994 189.056 95.7479 189.282 95.6499C189.508 95.5518 189.712 95.409 189.883 95.2299C190.054 95.0508 190.188 94.8389 190.277 94.6067C190.367 94.3745 190.409 94.1265 190.403 93.8774Z" fill="#E0E0E0"/>
<path d="M183.829 68.5847C184.06 67.9155 184.482 67.3307 185.04 66.9044C185.599 66.478 186.27 66.2291 186.968 66.1893C187.666 66.1494 188.361 66.3203 188.963 66.6804C189.566 67.0405 190.049 67.5736 190.353 68.2122C190.656 68.8509 190.766 69.5665 190.669 70.2685C190.571 70.9705 190.27 71.6274 189.804 72.1561C189.338 72.6848 188.728 73.0616 188.051 73.2389C187.374 73.4161 186.66 73.3858 186 73.1519C185.562 72.9965 185.158 72.7551 184.811 72.4415C184.465 72.1279 184.183 71.7482 183.981 71.3241C183.78 70.9 183.663 70.4398 183.636 69.9697C183.61 69.4997 183.676 69.0291 183.829 68.5847Z" fill="#E0E0E0"/>
<path d="M152.432 112.457L143.981 105.184C143.645 104.899 143.22 104.748 142.783 104.758C142.345 104.768 141.927 104.939 141.605 105.239C141.267 105.555 141.062 105.991 141.033 106.456C141.004 106.921 141.152 107.38 141.448 107.737L148.602 116.443C148.73 116.597 148.889 116.723 149.069 116.811C149.248 116.899 149.444 116.947 149.643 116.953C149.842 116.959 150.041 116.922 150.225 116.845C150.409 116.768 150.575 116.652 150.712 116.505L152.548 114.505C152.677 114.365 152.777 114.2 152.841 114.019C152.906 113.839 152.933 113.647 152.922 113.456C152.911 113.264 152.862 113.077 152.778 112.905C152.694 112.734 152.576 112.581 152.432 112.457Z" fill="#F5F5F5"/>
<path d="M135.092 103.025C134.834 102.541 134.724 101.99 134.776 101.443C134.829 100.895 135.041 100.376 135.386 99.9509C135.73 99.526 136.192 99.215 136.712 99.0574C137.232 98.8998 137.787 98.9029 138.305 99.0662C138.823 99.2295 139.282 99.5456 139.622 99.9743C139.962 100.403 140.169 100.925 140.215 101.473C140.261 102.021 140.146 102.571 139.882 103.052C139.619 103.533 139.221 103.924 138.737 104.174C138.102 104.503 137.365 104.567 136.684 104.353C136.002 104.138 135.431 103.662 135.092 103.025Z" fill="#F5F5F5"/>
<path d="M145.265 78.2575L158.235 100.568C158.748 101.45 159.562 102.111 160.522 102.427C161.483 102.744 162.525 102.692 163.451 102.284C164.425 101.854 165.199 101.062 165.613 100.07C166.027 99.0783 166.05 97.9634 165.676 96.9554L156.59 72.4862C156.427 72.0505 156.175 71.6548 155.85 71.3252C155.525 70.9955 155.135 70.7395 154.705 70.5741C154.276 70.4086 153.816 70.3374 153.357 70.3653C152.899 70.3931 152.451 70.5193 152.044 70.7355L146.534 73.6696C146.147 73.8787 145.804 74.1654 145.529 74.5123C145.253 74.8593 145.05 75.2593 144.931 75.6882C144.813 76.117 144.781 76.5659 144.838 77.0075C144.896 77.4491 145.041 77.8744 145.265 78.2575Z" fill="#E0E0E0"/>
<path d="M175.998 112.146C176.181 113.38 175.999 114.642 175.475 115.772C174.951 116.902 174.108 117.849 173.053 118.493C171.998 119.137 170.778 119.449 169.548 119.391C168.318 119.332 167.133 118.905 166.142 118.163C165.151 117.421 164.4 116.398 163.983 115.223C163.566 114.049 163.502 112.775 163.799 111.564C164.096 110.352 164.741 109.257 165.653 108.417C166.564 107.577 167.7 107.03 168.918 106.845C170.55 106.597 172.213 107.016 173.54 108.01C174.868 109.004 175.752 110.492 175.998 112.146Z" fill="#E0E0E0"/>
<path d="M408.76 322.908C408.76 321.607 408.699 206.175 408.61 30.0745L408.76 30.2267L92.8426 30.2544L93.02 30.0745C93.02 136.753 93.02 237.066 93.02 322.908L92.8699 322.749L408.788 322.908L92.8426 323.067H92.6855V322.908C92.6855 237.1 92.6855 136.76 92.6855 30.0745V29.8945H92.8903H408.781H408.917V30.0468C408.822 206.175 408.76 321.607 408.76 322.908Z" fill="#263238"/>
<path d="M101.622 42.33C103.066 42.33 104.237 41.1434 104.237 39.6797C104.237 38.2159 103.066 37.0293 101.622 37.0293C100.178 37.0293 99.0078 38.2159 99.0078 39.6797C99.0078 41.1434 100.178 42.33 101.622 42.33Z" fill="white"/>
<path d="M110.605 42.33C112.049 42.33 113.219 41.1434 113.219 39.6797C113.219 38.2159 112.049 37.0293 110.605 37.0293C109.161 37.0293 107.99 38.2159 107.99 39.6797C107.99 41.1434 109.161 42.33 110.605 42.33Z" fill="white"/>
<path d="M119.589 42.33C121.033 42.33 122.204 41.1434 122.204 39.6797C122.204 38.2159 121.033 37.0293 119.589 37.0293C118.145 37.0293 116.975 38.2159 116.975 39.6797C116.975 41.1434 118.145 42.33 119.589 42.33Z" fill="white"/>
<path d="M287.786 94.8043C285.574 94.2405 283.434 93.4161 281.41 92.3477C282.534 92.5641 283.629 92.9124 284.673 93.3857C285.762 93.7332 286.807 94.2094 287.786 94.8043Z" fill="#455A64"/>
<path d="M279.055 108.74C278.372 108.664 276.529 109.591 274.993 111.439L274.918 111.522C273.832 112.76 273.156 108.954 273.088 107.55C273.07 107.331 273.003 107.12 272.893 106.932C272.783 106.743 272.633 106.582 272.453 106.461C272.273 106.339 272.069 106.26 271.855 106.229C271.642 106.199 271.424 106.217 271.218 106.283L266.439 108.138L265.074 108.089C264.741 108.179 264.454 108.393 264.271 108.688C264.087 108.983 264.021 109.338 264.084 109.681L265.777 117.217L265.688 119.237L274.836 121.161L275.327 116.123C275.505 115.549 275.737 114.871 276.01 114.103C276.285 113.409 276.675 112.767 277.164 112.207C277.699 111.569 278.299 110.989 278.952 110.477L279.109 110.387C279.216 110.335 279.311 110.262 279.389 110.172C279.507 110.075 279.596 109.947 279.645 109.801C279.694 109.656 279.701 109.499 279.666 109.349C279.631 109.2 279.555 109.063 279.447 108.955C279.339 108.847 279.203 108.773 279.055 108.74Z" fill="#FFBE9D"/>
<path d="M277.047 87.496C277.047 87.496 271.586 86.804 263.394 80.1885C255.202 73.5729 250.744 64.1617 249.829 64.2725C248.914 64.3832 244.709 62.8885 238.627 80.5068C232.544 98.1251 235.896 101.737 237.439 101.564C238.982 101.391 249.044 97.4746 255.557 97.6061C262.069 97.7376 270.698 100.374 270.698 100.374L277.047 87.496Z" fill="white"/>
<path d="M289.266 95.6066L287.764 99.295L287.082 100.949C286.639 102.041 285.799 102.919 284.736 103.402C283.672 103.885 282.467 103.936 281.368 103.544L269.523 100.589L274.766 84.5L286.795 89.5931C287.908 90.0603 288.793 90.9555 289.256 92.0825C289.719 93.2096 289.723 94.4767 289.266 95.6066Z" fill="#263238"/>
<path d="M284.598 101.031L280.632 108.158L278.823 107.57L266.446 116.947L263.367 110.165C263.367 110.165 270.569 107.397 271.989 104.871C273.409 102.345 271.914 101.73 271.914 101.73L275.396 98.0273L284.598 101.031Z" fill="#263238"/>
<path d="M239.254 80.7768C236.032 90.3056 235.09 98.6096 237.158 99.3293C239.227 100.049 243.507 92.9006 246.715 83.3718C249.924 73.843 250.88 65.5389 248.811 64.8193C246.743 64.0996 242.476 71.2756 239.254 80.7768Z" fill="#263238"/>
<path d="M290.721 100.596L287.52 99.9038L289.103 96.0078L291.568 97.2534L290.721 100.596Z" fill="#455A64"/>
<path d="M287.042 97.0669C287.001 97.1776 285.397 96.7139 283.451 96.0358C282.251 95.6901 281.09 95.2145 279.99 94.6172C281.219 94.8349 282.422 95.1804 283.581 95.6483C284.78 95.9973 285.941 96.4727 287.042 97.0669Z" fill="#455A64"/>
<path d="M286.037 99.5021C286.037 99.5574 285.655 99.5021 285.047 99.3775L283.982 99.1284C283.586 99.0246 283.17 98.8585 282.726 98.7063C281.634 98.3838 280.587 97.9186 279.613 97.3223C279.654 97.2116 281.102 97.7029 282.863 98.3326C283.3 98.4918 283.709 98.6648 284.098 98.7893C284.488 98.9139 284.829 99.0108 285.116 99.1146C285.703 99.2945 286.037 99.4467 286.037 99.5021Z" fill="#455A64"/>
<path d="M247.365 77.9454C247.365 77.9454 242.443 75.468 240.49 82.0974C238.538 88.7268 243.528 89.2665 243.528 89.2665C245.33 85.6964 246.622 81.8845 247.365 77.9454Z" fill="#FAFAFA"/>
<path d="M251.605 69.8906C251.616 70.3047 251.593 70.719 251.536 71.1293C251.461 71.9182 251.359 73.0669 251.188 74.4855C251.058 75.1775 250.908 75.9525 250.758 76.776C250.676 77.1843 250.594 77.6133 250.512 78.0493C250.465 78.2707 250.424 78.4922 250.383 78.7413C250.342 78.9904 250.26 79.1911 250.198 79.4333L249.406 82.2774C249.338 82.5265 249.263 82.7757 249.195 83.0248C249.126 83.2739 249.017 83.5161 248.935 83.7721L248.376 85.2807C248.191 85.7859 248 86.291 247.816 86.7893C247.72 87.0384 247.645 87.2875 247.536 87.5228L247.208 88.2148L245.959 90.8928C245.863 91.1004 245.768 91.3149 245.659 91.5156C245.549 91.7163 245.44 91.917 245.324 92.1107L244.682 93.2387C244.266 93.9307 243.884 94.6227 243.529 95.2524C242.737 96.4288 242.075 97.363 241.617 98.0204C241.396 98.3657 241.147 98.692 240.873 98.9961C241.046 98.6231 241.252 98.2664 241.487 97.9305L243.29 95.1002L244.396 93.0726L245.017 91.9447L245.338 91.3565C245.447 91.1558 245.536 90.9413 245.631 90.7267C246.02 89.8756 246.43 88.9829 246.846 88.0625L247.167 87.3705C247.276 87.1353 247.352 86.8792 247.447 86.637C247.631 86.1457 247.816 85.6405 248 85.1354L248.56 83.6407C248.642 83.3915 248.751 83.1493 248.819 82.9002C248.888 82.6511 248.963 82.402 249.031 82.1598L249.843 79.3364C249.905 79.115 249.98 78.8935 250.028 78.6444C250.075 78.3953 250.123 78.2015 250.164 77.9524C250.26 77.5234 250.342 77.1013 250.43 76.693C250.601 75.8764 250.765 75.1221 250.908 74.4232C251.106 73.0392 251.27 71.9043 251.379 71.0947C251.424 70.6882 251.5 70.2857 251.605 69.8906Z" fill="#263238"/>
<path d="M269.701 104.754C269.452 104.849 269.248 105.036 269.129 105.277C269.01 105.518 268.985 105.796 269.059 106.055C269.339 107.1 269.803 108.733 270.165 109.736C270.266 110.063 270.426 110.368 270.636 110.636C270.74 110.766 270.877 110.863 271.033 110.918C271.188 110.973 271.356 110.983 271.517 110.947C271.68 110.877 271.821 110.763 271.926 110.618C272.03 110.474 272.094 110.303 272.111 110.124C272.138 109.759 272.096 109.393 271.988 109.044C271.756 108.076 271.305 106.615 270.964 105.425C270.93 105.293 270.869 105.17 270.786 105.063C270.703 104.955 270.599 104.866 270.48 104.802C270.362 104.737 270.232 104.697 270.098 104.685C269.964 104.674 269.829 104.69 269.701 104.733V104.754Z" fill="#FFBE9D"/>
<path d="M268.172 106.568C267.922 106.662 267.716 106.848 267.596 107.089C267.476 107.33 267.45 107.609 267.523 107.868C267.81 108.913 268.274 110.547 268.636 111.543C268.733 111.872 268.89 112.18 269.1 112.45C269.204 112.579 269.342 112.677 269.497 112.732C269.653 112.787 269.82 112.797 269.981 112.761C270.146 112.693 270.289 112.58 270.394 112.435C270.498 112.289 270.561 112.117 270.575 111.937C270.607 111.573 270.567 111.206 270.459 110.858C270.22 109.889 269.776 108.422 269.435 107.232C269.401 107.1 269.34 106.976 269.257 106.869C269.174 106.762 269.07 106.673 268.951 106.608C268.833 106.543 268.703 106.504 268.569 106.492C268.435 106.48 268.3 106.497 268.172 106.54V106.568Z" fill="#FFBE9D"/>
<path d="M266.739 107.626C266.517 107.7 266.332 107.86 266.223 108.07C266.115 108.281 266.092 108.526 266.159 108.754C266.418 109.653 266.841 111.079 267.169 111.944C267.262 112.226 267.405 112.489 267.592 112.719C267.689 112.833 267.813 112.92 267.954 112.968C268.095 113.017 268.246 113.026 268.391 112.996C268.535 112.941 268.661 112.848 268.756 112.726C268.851 112.604 268.911 112.458 268.93 112.304C268.951 111.988 268.914 111.671 268.821 111.369C268.603 110.525 268.213 109.293 267.879 108.228C267.803 107.998 267.64 107.809 267.427 107.7C267.213 107.591 266.966 107.572 266.739 107.646V107.626Z" fill="#FFBE9D"/>
<path d="M264.929 107.902C264.706 107.977 264.521 108.136 264.412 108.346C264.302 108.557 264.277 108.802 264.342 109.03C264.608 109.937 265.025 111.369 265.366 112.234C265.453 112.523 265.597 112.792 265.789 113.023C265.881 113.156 266.013 113.255 266.164 113.307C266.316 113.359 266.48 113.36 266.633 113.31C266.785 113.261 266.918 113.163 267.012 113.032C267.106 112.901 267.156 112.742 267.155 112.58C267.177 112.264 267.138 111.947 267.039 111.646C266.82 110.795 266.431 109.521 266.096 108.483C266.059 108.369 266 108.262 265.922 108.171C265.845 108.079 265.749 108.004 265.643 107.95C265.536 107.896 265.42 107.864 265.301 107.856C265.182 107.847 265.062 107.863 264.95 107.902H264.929Z" fill="#FFBE9D"/>
<path d="M270.535 110.671C270.159 110.106 269.883 109.478 269.723 108.816C269.45 108.193 269.295 107.524 269.266 106.844C269.647 107.406 269.922 108.035 270.078 108.698C270.354 109.32 270.51 109.989 270.535 110.671Z" fill="#EB996E"/>
<path d="M268.897 112.104C268.497 111.446 268.207 110.726 268.036 109.973C267.747 109.259 267.576 108.501 267.531 107.73C267.931 108.389 268.221 109.109 268.391 109.862C268.684 110.575 268.855 111.333 268.897 112.104Z" fill="#EB996E"/>
<path d="M267.285 112.215C266.861 111.671 266.558 111.041 266.398 110.367C266.118 109.735 265.985 109.046 266.008 108.354C266.343 108.947 266.594 109.585 266.753 110.25C267.027 110.874 267.207 111.536 267.285 112.215Z" fill="#EB996E"/>
<path d="M324.206 87.0466C321.605 82.5901 316.908 79.6975 311.979 78.3205C309.931 77.7461 308.497 77.9053 306.361 78.1475C304.232 78.3298 302.235 79.2684 300.722 80.7978C298.868 82.5942 297.492 84.8366 296.721 87.3165C295.966 89.8642 295.445 92.4772 295.165 95.1222C294.888 97.7833 295.342 100.47 296.476 102.886L302.879 105.059C306.497 105.751 310.163 106.443 313.802 106.146C317.44 105.848 321.195 104.457 323.564 101.599C326.882 97.6411 326.806 91.5031 324.206 87.0466Z" fill="#263238"/>
<path d="M327.68 106.568C327.731 105.802 327.607 105.035 327.32 104.325C327.032 103.615 326.588 102.981 326.021 102.472C325.439 101.979 324.717 101.686 323.96 101.637C323.203 101.587 322.449 101.782 321.809 102.195L320.587 103.281C319.729 103.535 318.97 104.053 318.416 104.763C317.862 105.474 317.54 106.342 317.495 107.247C317.481 108.153 317.724 109.045 318.193 109.817C318.662 110.59 319.339 111.21 320.143 111.606C320.958 111.98 321.853 112.136 322.743 112.059C323.634 111.981 324.49 111.673 325.229 111.163C325.958 110.639 326.558 109.952 326.983 109.155C327.408 108.358 327.646 107.473 327.68 106.568Z" fill="#263238"/>
<path d="M325.687 110.886C326.001 110.532 326.194 110.086 326.24 109.612C326.198 108.456 325.834 107.335 325.189 106.381C324.584 105.39 323.799 104.526 322.874 103.834C322.192 103.295 321.659 103.059 321.687 103.004C322.162 103.127 322.61 103.344 323.004 103.641C324.003 104.3 324.845 105.177 325.469 106.208C325.812 106.773 326.085 107.38 326.281 108.014C326.466 108.534 326.531 109.09 326.472 109.64C326.425 110.016 326.265 110.369 326.015 110.65C325.837 110.844 325.701 110.9 325.687 110.886Z" fill="#455A64"/>
<path d="M322.218 112.367C322.559 110.908 322.683 109.406 322.587 107.91C322.382 106.429 321.951 104.988 321.311 103.641C321.622 103.963 321.867 104.344 322.034 104.762C322.984 106.734 323.225 108.981 322.717 111.114C322.628 111.559 322.459 111.984 322.218 112.367Z" fill="#455A64"/>
<path d="M300.708 118.976C301.104 116.644 301.985 111.641 301.985 111.654C301.985 111.668 296.708 110.222 296.278 103.025C296.059 99.4476 296.79 93.6832 297.534 88.9845C298.216 84.7564 302.626 79.5387 307.774 80.3207L310.102 80.4037L318.341 85.2962C318.953 85.4206 319.495 85.7754 319.859 86.2891C320.222 86.8028 320.38 87.4371 320.301 88.0642L315.788 118.298L303.015 143.632L300.128 125.64L300.708 118.976Z" fill="#FFBE9D"/>
<path d="M299.909 94.1457C299.885 94.3817 299.954 94.6177 300.099 94.8037C300.244 94.9896 300.455 95.111 300.687 95.1422C300.8 95.163 300.916 95.1605 301.028 95.135C301.141 95.1095 301.247 95.0615 301.34 94.9937C301.434 94.926 301.513 94.8399 301.573 94.7406C301.633 94.6413 301.673 94.5308 301.691 94.4156C301.714 94.1788 301.646 93.942 301.501 93.7549C301.356 93.5678 301.145 93.445 300.912 93.4122C300.799 93.3915 300.682 93.3942 300.57 93.4201C300.457 93.446 300.351 93.4947 300.257 93.5631C300.163 93.6316 300.084 93.7184 300.024 93.8185C299.965 93.9186 299.925 94.0299 299.909 94.1457Z" fill="#263238"/>
<path d="M298.844 91.8549C298.946 91.9864 299.677 91.5435 300.639 91.6404C301.602 91.7373 302.264 92.2978 302.38 92.1871C302.496 92.0764 302.346 91.9103 302.059 91.6543C301.674 91.3228 301.197 91.1198 300.694 91.073C300.193 91.0211 299.688 91.1326 299.253 91.3913C298.919 91.592 298.796 91.7996 298.844 91.8549Z" fill="#263238"/>
<path d="M303.788 100.14C303.294 99.9269 302.776 99.7781 302.245 99.6967C301.999 99.6482 301.774 99.579 301.747 99.3991C301.756 99.1494 301.839 98.9082 301.986 98.7071C302.272 98.1258 302.573 97.5099 302.894 96.8733C304.163 94.2645 305.112 92.1054 305.003 92.0293C304.055 93.5055 303.224 95.0559 302.518 96.6657L301.638 98.5064C301.452 98.7924 301.373 99.1355 301.412 99.4752C301.441 99.5675 301.489 99.6521 301.554 99.7228C301.619 99.7934 301.699 99.8484 301.788 99.8835C301.92 99.9324 302.058 99.9649 302.197 99.9804C302.719 100.103 303.253 100.156 303.788 100.14Z" fill="#263238"/>
<path d="M301.985 111.654C305.276 112.023 308.603 111.46 311.597 110.027C311.597 110.027 308.634 114.691 301.691 113.342L301.985 111.654Z" fill="#EB996E"/>
<path d="M299.602 88.4031C299.752 88.6453 300.441 88.4792 301.24 88.5484C302.039 88.6176 302.701 88.839 302.878 88.6245C302.96 88.5207 302.878 88.2854 302.598 88.0432C302.224 87.7536 301.773 87.5827 301.303 87.5519C300.833 87.5211 300.365 87.6319 299.957 87.8702C299.69 88.0709 299.54 88.2924 299.602 88.4031Z" fill="#263238"/>
<path d="M310.948 94.8583C310.919 95.0947 310.8 95.3102 310.616 95.4589C310.433 95.6076 310.199 95.6776 309.965 95.6541C309.851 95.6471 309.738 95.6171 309.635 95.5659C309.532 95.5146 309.44 95.4432 309.365 95.3556C309.289 95.2681 309.232 95.1662 309.195 95.0559C309.159 94.9456 309.144 94.829 309.153 94.713C309.18 94.4759 309.299 94.2593 309.483 94.1103C309.667 93.9613 309.902 93.8919 310.136 93.9172C310.25 93.9242 310.362 93.9542 310.465 94.0055C310.568 94.0567 310.66 94.1282 310.736 94.2157C310.811 94.3033 310.869 94.4052 310.906 94.5155C310.942 94.6258 310.956 94.7423 310.948 94.8583Z" fill="#263238"/>
<path d="M311.624 92.6728C311.494 92.7766 310.887 92.1746 309.924 92.0431C308.961 91.9116 308.197 92.3061 308.108 92.1746C308.019 92.0431 308.204 91.9185 308.538 91.7317C308.995 91.4958 309.512 91.4088 310.02 91.4826C310.519 91.5508 310.984 91.7759 311.351 92.1261C311.61 92.396 311.685 92.6244 311.624 92.6728Z" fill="#263238"/>
<path d="M311.481 89.3363C311.283 89.5301 310.648 89.2117 309.856 89.0941C309.064 88.9764 308.361 89.0387 308.238 88.7896C308.184 88.665 308.32 88.4574 308.641 88.2914C309.066 88.0857 309.544 88.0227 310.006 88.1114C310.474 88.1805 310.908 88.3958 311.249 88.7273C311.501 88.9972 311.57 89.2671 311.481 89.3363Z" fill="#263238"/>
<path d="M318.806 97.9737L317.441 99.0463C313.01 93.2128 304.77 79.0475 305.221 79.8849C307.712 79.3586 310.293 79.4704 312.73 80.2101C316.485 81.4765 323.509 84.5628 322.704 89.1577C321.898 93.7525 318.806 97.9737 318.806 97.9737Z" fill="#263238"/>
<path d="M321.7 102.491C321.721 102.115 321.762 101.741 321.823 101.37C321.93 100.356 321.948 99.3352 321.878 98.3184C321.599 94.9568 320.517 91.7146 318.724 88.8726C316.902 86.0525 314.666 83.5301 312.095 81.392C311.112 80.5616 310.3 79.9181 309.726 79.4752C309.424 79.2618 309.135 79.0307 308.859 78.7832C308.859 78.7832 308.955 78.7832 309.112 78.9216C309.269 79.06 309.508 79.1776 309.795 79.3852C310.389 79.7935 311.228 80.4094 312.232 81.226C314.878 83.3277 317.163 85.8574 318.997 88.7134C320.82 91.596 321.889 94.9014 322.103 98.3184C322.156 99.3499 322.104 100.384 321.946 101.405C321.898 101.765 321.816 102.034 321.782 102.228C321.769 102.32 321.741 102.408 321.7 102.491Z" fill="#455A64"/>
<path d="M311.883 78.9434C311.974 78.9792 312.061 79.0256 312.142 79.0818C312.313 79.1786 312.552 79.324 312.859 79.5246C313.467 79.926 314.34 80.528 315.371 81.3446C316.573 82.3037 317.719 83.3318 318.805 84.424C320.183 85.7201 321.401 87.1818 322.43 88.7767C322.953 89.6207 323.36 90.5334 323.638 91.4893C323.892 92.3896 324.02 93.3212 324.021 94.2573C324.013 95.8166 323.783 97.3665 323.338 98.8591C322.963 100.132 322.58 101.129 322.307 101.814C322.171 102.153 322.055 102.416 321.979 102.596C321.941 102.687 321.896 102.775 321.843 102.859C321.939 102.471 322.064 102.092 322.218 101.724C322.451 101.032 322.799 100.022 323.14 98.7553C323.555 97.2811 323.766 95.7557 323.768 94.2227C323.753 93.3235 323.623 92.4302 323.379 91.5654C323.104 90.6391 322.706 89.7547 322.198 88.9358C321.18 87.367 319.989 85.9206 318.648 84.6247C317.562 83.5381 316.423 82.508 315.235 81.5384C314.231 80.708 313.378 80.0782 312.791 79.6492C312.472 79.4365 312.168 79.2006 311.883 78.9434Z" fill="#455A64"/>
<path d="M318.908 98.1034C318.712 97.8905 318.535 97.6587 318.383 97.4114L317.017 95.4322C315.905 93.7576 314.382 91.4256 312.723 88.8375C311.065 86.2494 309.57 83.9035 308.505 82.1874L307.255 80.1529C307.094 79.9087 306.953 79.6519 306.832 79.3848C307.031 79.5963 307.207 79.8282 307.358 80.0768L308.723 82.0559C309.836 83.7305 311.358 86.0626 313.024 88.6506C314.69 91.2387 316.178 93.5915 317.243 95.3008L318.492 97.3422C318.656 97.5808 318.796 97.8359 318.908 98.1034Z" fill="#455A64"/>
<path d="M317.502 99.8419C317.556 99.316 318.28 98.1257 318.799 98.0981C320.164 98.015 322.663 98.3679 322.342 101.911C321.912 106.755 317.215 105.309 317.215 105.17C317.215 105.032 317.324 101.662 317.502 99.8419Z" fill="#FFBE9D"/>
<path d="M318.533 103.349C318.533 103.349 318.608 103.418 318.745 103.495C318.839 103.547 318.942 103.58 319.049 103.592C319.155 103.604 319.263 103.594 319.366 103.564C319.693 103.396 319.969 103.142 320.165 102.829C320.362 102.517 320.473 102.156 320.486 101.785C320.532 101.37 320.488 100.95 320.356 100.554C320.324 100.4 320.256 100.257 320.157 100.136C320.059 100.016 319.932 99.9214 319.789 99.8616C319.696 99.8294 319.594 99.8304 319.501 99.8643C319.408 99.8983 319.329 99.9632 319.277 100.048C319.202 100.18 319.223 100.277 319.202 100.284C319.182 100.291 319.107 100.194 319.161 100C319.196 99.8828 319.271 99.7822 319.373 99.7163C319.442 99.6712 319.519 99.6407 319.6 99.6264C319.681 99.6121 319.764 99.6145 319.844 99.6332C320.038 99.6889 320.214 99.7947 320.355 99.9403C320.497 100.086 320.598 100.266 320.65 100.464C320.82 100.903 320.876 101.38 320.813 101.848C320.697 102.823 320.131 103.688 319.448 103.827C319.317 103.854 319.181 103.85 319.051 103.817C318.921 103.783 318.8 103.72 318.697 103.633C318.533 103.467 318.52 103.356 318.533 103.349Z" fill="#EB996E"/>
<path d="M328.711 278.932C328.616 279.693 326.766 300.972 326.766 300.972H317.147L315.461 279.022L328.711 278.932Z" fill="#FFBE9D"/>
<path d="M317.121 297.801C317.121 297.801 323.879 302.645 327.142 298.458L328.002 300.493L331.839 315.025C331.971 315.48 331.934 315.968 331.735 316.398C331.536 316.827 331.19 317.168 330.76 317.357C330.431 317.489 330.071 317.524 329.723 317.457C329.374 317.389 329.052 317.223 328.794 316.976C326.016 314.291 315.824 304.389 315.946 303.046L315.981 299.482C315.986 299.12 316.098 298.768 316.3 298.47C316.503 298.172 316.789 297.942 317.121 297.808V297.801Z" fill="white"/>
<path d="M330.411 317.447L315.939 301.801V302.576C315.922 302.896 315.974 303.216 316.092 303.514C316.21 303.812 316.391 304.079 316.621 304.299C317.796 305.897 321.038 309.482 328.732 316.969C328.952 317.184 329.221 317.34 329.516 317.423C329.81 317.506 330.12 317.515 330.418 317.447H330.411Z" fill="#263238"/>
<path d="M318.061 299.477C318.285 299.642 318.44 299.885 318.498 300.16C318.556 300.434 318.512 300.721 318.375 300.965C318.22 301.198 317.984 301.362 317.713 301.424C317.443 301.485 317.159 301.44 316.921 301.297C316.685 301.12 316.521 300.862 316.462 300.57C316.403 300.279 316.452 299.976 316.6 299.719C316.785 299.494 317.05 299.35 317.337 299.317C317.625 299.285 317.914 299.367 318.143 299.546" fill="white"/>
<path d="M326.253 309.434C326.686 308.856 327.224 308.368 327.837 307.994C328.489 307.732 329.183 307.591 329.885 307.579C329.885 307.538 329.673 307.392 329.25 307.337C328.691 307.273 328.127 307.376 327.625 307.635C327.118 307.882 326.695 308.277 326.41 308.769C326.233 309.143 326.205 309.42 326.253 309.434Z" fill="#263238"/>
<path d="M327.55 311.891C328.068 311.59 328.604 311.322 329.155 311.088C329.739 310.975 330.329 310.897 330.923 310.853C330.977 310.756 330.103 310.376 329.038 310.708C327.973 311.04 327.455 311.843 327.55 311.891Z" fill="#263238"/>
<path d="M323.838 306.286C324.6 305.766 325.399 305.304 326.227 304.902C327.106 304.616 328.005 304.401 328.917 304.259C328.917 304.155 327.593 303.906 326.077 304.529C325.148 304.826 324.354 305.449 323.838 306.286Z" fill="#263238"/>
<path d="M323.51 301.864C323.564 301.975 324.561 301.546 325.865 301.497C327.169 301.449 328.2 301.753 328.241 301.643C327.506 301.241 326.678 301.05 325.845 301.089C325.012 301.128 324.204 301.396 323.51 301.864Z" fill="#263238"/>
<path d="M326.608 301.455C326.621 301.219 326.587 300.984 326.506 300.763C326.326 300.15 326.029 299.578 325.632 299.081C325.374 298.689 324.994 298.394 324.553 298.244C324.404 298.208 324.247 298.219 324.105 298.276C323.962 298.333 323.84 298.433 323.755 298.562C323.608 298.827 323.562 299.137 323.625 299.434C323.778 300.038 324.135 300.567 324.634 300.932C325.133 301.296 325.742 301.471 326.355 301.427C326.957 301.375 327.529 301.143 328.001 300.762C328.472 300.38 328.821 299.865 329.004 299.282C329.049 299.134 329.062 298.979 329.042 298.826C329.022 298.673 328.97 298.526 328.888 298.396C328.799 298.267 328.669 298.173 328.521 298.129C328.372 298.085 328.212 298.094 328.069 298.154C327.649 298.335 327.282 298.623 327.004 298.991C326.595 299.476 326.272 300.028 326.048 300.624C325.949 300.841 325.895 301.077 325.891 301.316C326.227 300.548 326.673 299.834 327.216 299.199C327.47 298.895 327.793 298.657 328.158 298.507C328.237 298.476 328.323 298.472 328.405 298.496C328.486 298.52 328.557 298.57 328.608 298.638C328.657 298.727 328.687 298.826 328.694 298.928C328.701 299.029 328.686 299.131 328.649 299.226C328.468 299.719 328.152 300.149 327.739 300.467C327.325 300.784 326.831 300.976 326.315 301.019C325.798 301.049 325.287 300.902 324.865 300.6C324.442 300.299 324.132 299.861 323.987 299.358C323.937 299.153 323.961 298.937 324.055 298.749C324.099 298.675 324.165 298.617 324.243 298.583C324.322 298.55 324.409 298.542 324.492 298.562C324.861 298.693 325.182 298.934 325.413 299.254C325.936 299.911 326.341 300.656 326.608 301.455Z" fill="#263238"/>
<path d="M275.893 272.003L277.551 299.171L289.198 299.088L291.164 270.861L275.893 272.003Z" fill="#FFBE9D"/>
<path d="M277.341 295.891V296.68C277.341 296.68 264.193 301.974 264.029 304.479H290.107L289.739 295.684C287.808 296.619 285.701 297.121 283.562 297.157C281.423 297.193 279.301 296.761 277.341 295.891Z" fill="white"/>
<path d="M287.104 298.487C287.354 298.564 287.569 298.733 287.705 298.96C287.841 299.187 287.889 299.457 287.841 299.719C287.775 299.975 287.614 300.197 287.392 300.337C287.169 300.477 286.903 300.526 286.646 300.473C286.38 300.391 286.153 300.212 286.01 299.97C285.866 299.729 285.815 299.442 285.868 299.165C285.965 298.904 286.158 298.692 286.406 298.572C286.654 298.452 286.938 298.434 287.199 298.522" fill="white"/>
<path d="M290.133 304.48L290.044 302.369L265.086 303.172C265.086 303.172 263.925 303.684 264.055 304.507L290.133 304.48Z" fill="#263238"/>
<path d="M277.239 296.757C277.239 296.882 277.881 296.937 278.509 297.353C279.137 297.768 279.471 298.314 279.587 298.259C279.703 298.204 279.512 297.463 278.748 296.979C277.983 296.494 277.212 296.633 277.239 296.757Z" fill="#263238"/>
<path d="M274.508 297.905C274.508 298.03 275.027 298.244 275.464 298.791C275.9 299.338 276.023 299.912 276.146 299.912C276.269 299.912 276.358 299.172 275.805 298.528C275.252 297.885 274.508 297.781 274.508 297.905Z" fill="#263238"/>
<path d="M272.957 301.22C273.073 301.22 273.251 300.604 272.957 299.898C272.664 299.192 272.029 298.909 271.974 299.019C271.919 299.13 272.295 299.504 272.554 300.085C272.814 300.666 272.827 301.213 272.957 301.22Z" fill="#263238"/>
<path d="M291.165 187.926C290.817 188.943 277.007 236.366 277.007 236.366L274.631 292.646L291.82 293.649L297.964 237.459L313.666 202.312L306.764 173.719H292.728L291.165 187.926Z" fill="#263238"/>
<path d="M303.398 173.733C303.644 174.425 312.457 206.603 312.457 206.603L313.679 254.586V294.286H329.347L336.644 206.734C336.644 206.734 337.935 190.818 335.73 185.469C333.525 180.12 324.595 170.723 324.595 170.723L303.398 173.733Z" fill="#263238"/>
<path d="M304.66 177.027C304.807 177.391 304.925 177.766 305.015 178.148C305.24 178.93 305.541 179.968 305.896 181.221C306.688 183.871 307.739 187.449 308.906 191.345C310.074 195.241 311.009 198.957 311.555 201.579C311.842 202.908 312.026 203.988 312.135 204.735C312.213 205.12 312.256 205.512 312.265 205.904C312.149 205.531 312.06 205.149 311.999 204.763C311.849 204.022 311.623 202.95 311.316 201.642C310.709 199.005 309.726 195.414 308.585 191.449C307.445 187.483 306.367 183.906 305.677 181.29C305.329 179.982 305.063 178.923 304.899 178.183C304.787 177.806 304.707 177.419 304.66 177.027Z" fill="#455A64"/>
<path d="M310.067 177.026C309.679 177.153 309.337 177.394 309.084 177.718C308.963 177.894 308.887 178.097 308.863 178.31C308.839 178.522 308.868 178.738 308.948 178.936C309.042 179.176 309.201 179.384 309.406 179.537C309.611 179.689 309.855 179.781 310.108 179.801C310.363 179.805 310.614 179.736 310.832 179.603C311.051 179.47 311.228 179.277 311.344 179.047C311.444 178.859 311.496 178.648 311.496 178.435C311.496 178.221 311.444 178.01 311.344 177.822C311.126 177.467 310.807 177.188 310.429 177.019C310.429 177.019 310.566 176.985 310.791 177.061C311.109 177.18 311.379 177.404 311.556 177.698C311.7 177.916 311.786 178.169 311.804 178.431C311.822 178.693 311.772 178.956 311.658 179.192C311.526 179.492 311.308 179.745 311.033 179.917C310.757 180.09 310.437 180.174 310.113 180.159C309.789 180.144 309.478 180.031 309.219 179.834C308.96 179.636 308.765 179.365 308.661 179.054C308.571 178.807 308.546 178.541 308.588 178.282C308.63 178.022 308.737 177.778 308.9 177.573C309.106 177.298 309.397 177.1 309.726 177.013C309.931 176.978 310.067 177.006 310.067 177.026Z" fill="#455A64"/>
<path d="M323.974 200.141C323.983 200.221 323.983 200.302 323.974 200.383C323.974 200.563 323.974 200.791 323.974 201.075C323.974 201.725 323.974 202.639 323.974 203.801C323.974 206.175 323.974 209.6 323.899 213.835C323.776 222.305 323.401 233.993 322.909 246.906C322.418 259.819 322.008 271.513 321.817 279.977C321.721 284.212 321.66 287.637 321.626 290.004C321.626 291.166 321.626 292.08 321.585 292.73C321.585 293.021 321.585 293.252 321.585 293.422C321.615 293.427 321.642 293.444 321.661 293.469C321.68 293.493 321.689 293.524 321.687 293.555C321.684 293.587 321.67 293.616 321.647 293.637C321.625 293.658 321.595 293.67 321.564 293.67C321.533 293.67 321.504 293.658 321.481 293.637C321.458 293.616 321.444 293.587 321.442 293.555C321.439 293.524 321.448 293.493 321.467 293.469C321.486 293.444 321.513 293.427 321.544 293.422C321.544 293.242 321.544 293.007 321.544 292.73C321.544 292.08 321.544 291.166 321.544 290.004C321.544 287.63 321.544 284.205 321.619 279.97C321.749 271.5 322.117 259.805 322.609 246.892C323.1 233.979 323.51 222.292 323.701 213.828C323.797 209.593 323.865 206.168 323.892 203.801C323.892 202.639 323.926 201.725 323.933 201.075C323.933 200.777 323.933 200.549 323.933 200.383C323.936 200.301 323.95 200.219 323.974 200.141Z" fill="#455A64"/>
<path d="M299.8 194.361C299.782 194.444 299.757 194.525 299.724 194.604L299.458 195.296C299.206 195.939 298.851 196.853 298.4 198.022C297.465 200.402 296.12 203.814 294.454 208.021C292.789 212.229 290.891 217.308 289.075 223.024C287.001 229.186 285.548 235.546 284.74 242.006C284.378 245.466 284.221 248.842 284.016 252.102C283.811 255.361 283.675 258.517 283.511 261.52C283.204 267.52 282.931 272.924 282.699 277.477C282.467 282.031 282.221 285.692 282.016 288.224C281.914 289.477 281.839 290.452 281.784 291.144C281.75 291.463 281.729 291.712 281.709 291.899C281.703 291.987 281.692 292.075 281.675 292.162C281.666 292.074 281.666 291.986 281.675 291.899C281.675 291.712 281.675 291.456 281.709 291.138C281.75 290.446 281.804 289.47 281.88 288.217C282.023 285.678 282.214 281.989 282.426 277.464C282.637 272.938 282.89 267.506 283.163 261.506C283.32 258.503 283.477 255.347 283.648 252.081C283.818 248.815 284.003 245.431 284.364 241.971C285.188 235.492 286.664 229.116 288.768 222.941C290.604 217.218 292.563 212.173 294.229 207.952C295.895 203.731 297.315 200.34 298.277 197.994C298.755 196.832 299.131 195.918 299.397 195.289L299.697 194.597C299.723 194.515 299.757 194.436 299.8 194.361Z" fill="#455A64"/>
<path d="M323.435 117.086C323.435 117.086 332.753 118.851 334.801 120.581C336.849 122.311 355.513 146.987 355.903 151.97C356.292 156.952 354.018 158.779 352.728 159.962C351.438 161.146 329.128 176.46 329.128 176.46L322.268 164.924L341.546 153.25L332.241 137.119L323.435 117.086Z" fill="white"/>
<path d="M347.771 148.862C346.467 149.061 345.211 149.502 344.065 150.163C342.981 150.923 342.042 151.874 341.293 152.973C341.38 152.574 341.555 152.2 341.805 151.879C342.35 151.066 343.056 150.376 343.879 149.856C344.702 149.335 345.623 148.994 346.584 148.855C346.975 148.765 347.381 148.767 347.771 148.862Z" fill="white"/>
<path d="M300.851 118.283L303.322 141.008L315.931 115.404L324.062 123.777C324.062 123.777 329.052 153.706 329.127 153.921C329.202 154.136 325.714 171.041 325.714 171.041L302.605 175.574L295.553 173.754L294.441 147.132L293.949 126.746L300.851 118.283Z" fill="white"/>
<path d="M297.855 119.253L291.854 120.637C291.052 120.824 290.307 121.207 289.683 121.751C284.563 126.193 273.49 135.591 273.49 135.591L275.538 118.914L264.875 117.91C264.875 117.91 261.68 138.933 262.008 144.462C262.397 150.884 268.077 152.462 276.344 149.009C281.453 146.93 286.399 144.46 291.137 141.618L297.855 119.253Z" fill="white"/>
<path d="M331.318 137.21L330.219 157.139L331.325 161.014C331.325 161.014 341.674 180.82 343.381 193.933L330.574 196.009C330.574 196.009 327.079 179.09 324.621 170.703C322.164 162.315 314.893 158.786 312.436 150.164C310.956 145.238 310.429 140.068 310.886 134.94C310.886 134.414 315.931 115.398 315.931 115.398L316.832 111.426L321.365 115.792L333.004 119.716L331.318 137.21Z" fill="white"/>
<g opacity="0.3">
<path d="M337.421 174.272C335.304 175.931 333.091 177.458 330.793 178.847C330.656 178.916 330.479 178.992 330.281 179.068C329.82 179.24 329.313 179.238 328.853 179.063C328.393 178.888 328.01 178.55 327.775 178.113C327.502 177.608 327.222 177.075 327.038 176.674C326.567 175.643 326.055 174.404 325.598 173.331L327.038 172.978L329.127 176.487L335.148 172.335L336.295 171.539L337.421 174.272Z" fill="black"/>
</g>
<path d="M300.96 116.041L298.161 119.01L291.451 121.397C291.451 121.397 289.812 141.465 290.7 145.742C291.56 149.852 293.198 154.848 293.335 160.751C293.471 166.654 286.822 197.849 286.822 197.849L294.864 200.942C294.864 200.942 298.96 164.827 298.161 156.952C297.363 149.077 299.438 133.203 299.438 133.203L300.96 116.041Z" fill="white"/>
<path d="M316.183 154.315C316.076 154.217 315.977 154.108 315.89 153.99C315.63 153.655 315.401 153.296 315.207 152.918C314.536 151.5 314.18 149.95 314.163 148.378C314.137 146.062 314.297 143.748 314.641 141.458C315.014 138.653 315.582 135.878 316.341 133.154C317.628 128.471 319.461 123.959 321.802 119.715L321.911 119.916L319.064 119.826H318.86L318.982 119.66L320.853 117.114L321.358 116.422C321.412 116.342 321.476 116.27 321.549 116.207C321.512 116.296 321.464 116.38 321.406 116.456L320.942 117.148L319.153 119.757L319.071 119.591L321.918 119.626H322.136L322.027 119.819C319.754 124.072 317.954 128.567 316.661 133.223C315.91 135.929 315.336 138.683 314.941 141.465C314.593 143.732 314.41 146.022 314.395 148.316C314.393 149.858 314.704 151.385 315.31 152.8C315.573 153.321 315.865 153.827 316.183 154.315Z" fill="#263238"/>
<path d="M324.063 135.916C322.998 136.279 321.888 136.493 320.766 136.553C319.656 136.724 318.528 136.738 317.414 136.594C318.509 136.383 319.618 136.249 320.732 136.193C321.834 136.017 322.948 135.925 324.063 135.916Z" fill="#263238"/>
<path d="M332.226 131.293C332.208 131.633 332.16 131.971 332.083 132.303C331.994 132.954 331.878 133.895 331.769 135.071C331.55 137.41 331.332 140.642 331.086 144.213L330.54 153.368C330.458 154.537 330.39 155.485 330.328 156.136C330.317 156.476 330.271 156.815 330.192 157.146C330.165 156.808 330.165 156.467 330.192 156.129C330.192 155.402 330.246 154.468 330.287 153.361C330.376 151.015 330.52 147.776 330.731 144.199C330.943 140.621 331.209 137.389 331.496 135.051C331.632 133.888 331.789 132.975 331.919 132.283C331.99 131.943 332.093 131.612 332.226 131.293Z" fill="#263238"/>
<path d="M347.129 153.914C347.095 154.018 345.839 153.609 344.227 153.492C342.616 153.374 341.319 153.582 341.299 153.492C342.242 153.137 343.257 153.02 344.255 153.153C345.259 153.168 346.245 153.43 347.129 153.914Z" fill="#263238"/>
<path d="M273.559 135.203C273.355 136.101 273.038 136.968 272.616 137.784C272.303 138.649 271.878 139.468 271.354 140.22C271.553 139.321 271.87 138.453 272.296 137.639C272.613 136.776 273.037 135.958 273.559 135.203Z" fill="#263238"/>
<path d="M290.298 128.553C290.393 128.553 290.55 132.469 290.639 137.307C290.728 142.144 290.728 146.067 290.639 146.067C290.55 146.067 290.387 142.151 290.291 137.313C290.195 132.476 290.202 128.56 290.298 128.553Z" fill="#263238"/>
<path d="M298.259 145.007C298.197 144.674 298.167 144.336 298.17 143.997C298.17 143.305 298.115 142.35 298.074 141.229C298.006 138.897 297.931 135.693 297.876 132.122C297.822 128.552 297.794 125.341 297.788 123.009C297.788 121.895 297.788 120.967 297.788 120.241C297.774 119.903 297.792 119.565 297.842 119.23C297.904 119.564 297.934 119.902 297.931 120.241C297.931 120.933 297.985 121.888 298.026 123.009C298.095 125.341 298.163 128.545 298.218 132.116C298.272 135.686 298.306 138.89 298.313 141.222C298.313 142.336 298.313 143.298 298.313 143.99C298.323 144.33 298.304 144.67 298.259 145.007Z" fill="#263238"/>
<path d="M348.795 162.828C348.68 162.935 348.557 163.033 348.426 163.119L347.334 163.914L343.238 166.828L329.229 176.633L329.079 176.744L328.984 176.585L325.912 171.423L322.13 165.042L322.041 164.89L322.184 164.8L336.015 156.496L340.07 154.102L341.163 153.472C341.286 153.394 341.416 153.327 341.552 153.271C341.44 153.369 341.319 153.455 341.19 153.528L340.132 154.22L336.131 156.697L322.355 165.105L322.416 164.862C323.611 166.876 324.895 169.014 326.212 171.236L329.277 176.398L329.025 176.343C334.636 172.481 339.558 169.091 343.101 166.655L347.266 163.831L348.392 163.084C348.52 162.988 348.654 162.903 348.795 162.828Z" fill="#263238"/>
<g opacity="0.3">
<path d="M315.249 152.834C315.04 149.858 315.319 146.867 316.075 143.984C317.839 135.894 320.74 128.103 324.69 120.85C324.231 120.594 323.705 120.488 323.184 120.547C322.663 120.607 322.173 120.829 321.782 121.182C321.016 121.91 320.423 122.804 320.048 123.798C317.035 130.322 315.131 137.315 314.416 144.482C314.24 145.859 314.205 147.25 314.314 148.634C314.45 150.087 314.45 151.61 315.338 152.751" fill="black"/>
</g>
<g opacity="0.3">
<path d="M290.278 130.006C288.155 133.743 288.435 138.241 290.462 142.033C290.462 137.881 290.462 134.248 290.216 130.061" fill="black"/>
</g>
<path d="M306.783 102.284C306.765 102.161 306.721 102.043 306.654 101.939C306.587 101.836 306.498 101.748 306.394 101.682C306.251 101.624 306.097 101.6 305.944 101.613C305.055 101.629 304.173 101.756 303.315 101.993L303.268 102.132C303.309 102.519 303.389 102.902 303.507 103.273C303.622 103.648 303.84 103.981 304.135 104.235C304.422 104.451 304.77 104.567 305.128 104.567C305.485 104.567 305.833 104.451 306.121 104.235C306.402 104.006 306.613 103.702 306.73 103.356C306.847 103.011 306.866 102.639 306.783 102.284Z" fill="#EB996E"/>
<path d="M304.15 104.402C304.52 104.435 304.893 104.412 305.256 104.332C305.632 104.216 305.958 103.971 306.177 103.64C306.308 103.446 306.398 103.227 306.44 102.995C306.482 102.764 306.477 102.527 306.423 102.298C306.382 102.082 306.26 101.891 306.082 101.765C305.882 101.698 305.667 101.698 305.467 101.765L304.239 102C303.86 102.103 303.469 102.147 303.078 102.132C303.426 101.949 303.798 101.82 304.184 101.751L305.399 101.44C305.67 101.34 305.968 101.34 306.239 101.44C306.373 101.522 306.489 101.631 306.58 101.761C306.67 101.891 306.733 102.038 306.765 102.194C306.832 102.472 306.838 102.762 306.782 103.043C306.727 103.324 306.611 103.589 306.444 103.82C306.163 104.181 305.763 104.427 305.317 104.512C305.127 104.583 304.923 104.61 304.721 104.59C304.519 104.571 304.324 104.507 304.15 104.402Z" fill="#263238"/>
<path d="M319.045 105.094C318.948 104.837 318.769 104.62 318.537 104.479C318.304 104.337 318.031 104.278 317.762 104.312C317.609 104.33 317.463 104.381 317.332 104.462C317.201 104.543 317.089 104.653 317.004 104.783C316.87 105.008 316.81 105.272 316.833 105.534C316.856 105.797 316.962 106.045 317.134 106.243C317.314 106.432 317.551 106.555 317.808 106.594C318.065 106.633 318.327 106.585 318.554 106.457C318.775 106.319 318.944 106.11 319.033 105.862C319.123 105.615 319.127 105.344 319.045 105.094Z" fill="#FAFAFA"/>
<path d="M322.567 165.636L314.668 158.543L307.999 159.124C307.999 159.124 308.231 160.231 309.152 160.404C310.074 160.577 313.406 160.64 313.406 160.64L314.969 162.211L310.989 161.809L305.93 164.833C305.93 164.833 305.814 165.767 307.139 165.525C308.453 165.201 309.74 164.773 310.989 164.245L313.931 164.418L310.723 164.889L306.565 167.857C306.841 168.149 307.191 168.357 307.576 168.461C307.961 168.565 308.367 168.559 308.75 168.445C310.074 168.037 311.678 167.394 311.678 167.394L315.303 167.041L311.678 167.975L308.982 171.359C309.237 171.539 309.541 171.636 309.852 171.636C310.163 171.636 310.467 171.539 310.723 171.359C311.256 170.979 311.769 170.57 312.259 170.134L316.28 169.954C316.28 169.954 320.724 173.22 322.267 173.573C323.809 173.926 327.045 172.971 327.045 172.971L322.567 165.636Z" fill="#FFBE9D"/>
<path d="M479.116 199.014H356.721V268.387H479.116V199.014Z" fill="#FAFAFA"/>
<path d="M479.115 268.386C479.115 268.386 479.115 267.957 479.115 267.14C479.115 266.324 479.115 265.106 479.115 263.521C479.115 260.338 479.115 255.66 479.115 249.647C479.115 237.64 479.074 220.313 479.04 199.013L479.176 199.151L356.788 199.193L356.965 199.013C356.965 223.544 356.965 247.01 356.965 268.386L356.802 268.22L444.866 268.303L470.124 268.344H476.869H478.61H479.204H478.63H476.903H470.199L444.941 268.393L356.802 268.476H356.631V268.303C356.631 246.927 356.631 223.461 356.631 198.93V198.75H356.815L479.204 198.792H479.34V198.93C479.34 220.264 479.286 237.62 479.265 249.654C479.265 255.646 479.265 260.317 479.265 263.494C479.265 265.071 479.265 266.262 479.265 267.092C479.265 267.922 479.115 268.386 479.115 268.386Z" fill="#263238"/>
<path d="M388.983 215.545H371.678V233.087H388.983V215.545Z" fill="#455A64"/>
<path d="M412.746 217.981C412.746 218.085 408.705 218.168 403.728 218.168C398.751 218.168 394.703 218.085 394.703 217.981C394.703 217.877 398.745 217.801 403.728 217.801C408.711 217.801 412.746 217.912 412.746 217.981Z" fill="white"/>
<path d="M470.356 224.319C470.356 224.415 453.412 224.499 432.523 224.499C411.633 224.499 394.689 224.415 394.689 224.319C394.689 224.222 411.626 224.139 432.523 224.139C453.419 224.139 470.356 224.208 470.356 224.319Z" fill="#263238"/>
<path d="M444.914 231.391C444.914 231.488 433.78 231.571 420.058 231.571C406.336 231.571 395.195 231.488 395.195 231.391C395.195 231.294 406.323 231.211 420.058 231.211C433.793 231.211 444.914 231.294 444.914 231.391Z" fill="#263238"/>
<path d="M460.997 242.934H377.39C372.96 242.934 369.369 246.574 369.369 251.065C369.369 255.555 372.96 259.196 377.39 259.196H460.997C465.427 259.196 469.018 255.555 469.018 251.065C469.018 246.574 465.427 242.934 460.997 242.934Z" fill="white"/>
<path d="M403.824 252.199H401.776L401.387 253.161H400.336L402.309 248.684H403.319L405.292 253.161H404.22L403.824 252.199ZM403.504 251.417L402.821 249.701L402.138 251.417H403.504Z" fill="white"/>
<path d="M409.599 250.31C409.599 251.306 408.862 251.929 407.681 251.929H406.794V253.161H405.77V248.684H407.681C408.842 248.684 409.599 249.299 409.599 250.31ZM408.568 250.31C408.568 249.818 408.248 249.528 407.626 249.528H406.794V251.085H407.626C408.234 251.085 408.548 250.794 408.548 250.31H408.568Z" fill="white"/>
<path d="M414.138 250.31C414.138 251.306 413.401 251.929 412.22 251.929H411.333V253.161H410.281V248.684H412.193C413.401 248.684 414.138 249.299 414.138 250.31ZM413.101 250.31C413.101 249.818 412.787 249.528 412.165 249.528H411.333V251.085H412.165C412.787 251.085 413.101 250.794 413.101 250.31Z" fill="white"/>
<path d="M414.869 248.684H415.886V252.317H418.105V253.161H414.869V248.684Z" fill="white"/>
<path d="M420.344 251.576V253.161H419.32V251.562L417.613 248.684H418.699L419.88 250.67L421.061 248.684H422.064L420.344 251.576Z" fill="white"/>
<path d="M428.332 248.684V253.161H427.493L425.301 250.441V253.161H424.291V248.684H425.138L427.349 251.403V248.684H428.332Z" fill="white"/>
<path d="M429.103 250.919C429.076 250.428 429.195 249.941 429.444 249.519C429.693 249.097 430.061 248.761 430.501 248.553C430.941 248.346 431.432 248.277 431.91 248.356C432.389 248.434 432.834 248.657 433.186 248.994C433.539 249.332 433.784 249.768 433.889 250.248C433.994 250.728 433.955 251.229 433.776 251.686C433.597 252.143 433.287 252.535 432.886 252.812C432.485 253.088 432.012 253.237 431.527 253.237C431.215 253.256 430.903 253.21 430.61 253.102C430.316 252.994 430.048 252.827 429.821 252.609C429.594 252.392 429.413 252.13 429.29 251.84C429.166 251.549 429.103 251.236 429.103 250.919ZM432.906 250.919C432.895 250.648 432.806 250.386 432.65 250.166C432.493 249.946 432.277 249.777 432.026 249.681C431.776 249.584 431.503 249.565 431.242 249.624C430.981 249.684 430.743 249.82 430.558 250.015C430.372 250.211 430.247 250.457 430.199 250.724C430.15 250.991 430.18 251.267 430.285 251.516C430.39 251.766 430.565 251.979 430.788 252.129C431.011 252.278 431.273 252.358 431.541 252.359C431.725 252.359 431.907 252.321 432.076 252.248C432.245 252.175 432.398 252.068 432.526 251.934C432.653 251.799 432.753 251.64 432.818 251.466C432.883 251.292 432.913 251.106 432.906 250.919Z" fill="white"/>
<path d="M441.248 248.684L439.801 253.161H438.702L437.732 250.13L436.729 253.161H435.637L434.176 248.684H435.234L436.237 251.832L437.275 248.684H438.224L439.234 251.853L440.258 248.684H441.248Z" fill="white"/>
<path d="M127.761 150.809H37.1641V202.155H127.761V150.809Z" fill="#FAFAFA"/>
<path d="M127.761 202.161C127.761 202.161 127.761 201.843 127.761 201.234C127.761 200.625 127.761 199.725 127.761 198.549C127.761 196.189 127.761 192.729 127.726 188.28C127.726 179.387 127.679 166.572 127.651 150.808L127.788 150.946L37.198 150.988L37.3755 150.808C37.3755 168.966 37.3755 186.335 37.3755 202.161L37.2116 201.995L102.352 202.071L121.077 202.12H126.074H127.365H127.808H127.385H126.108H121.152L102.468 202.161L37.2116 202.244H37V202.078C37 186.252 37 168.862 37 150.725V150.545H37.1843L127.774 150.593H127.911V150.725C127.911 166.523 127.856 179.374 127.836 188.28C127.836 192.715 127.836 196.168 127.801 198.521C127.801 199.684 127.801 200.597 127.801 201.179C127.801 201.76 127.761 202.161 127.761 202.161Z" fill="#263238"/>
<path d="M61.0431 163.049H48.2363V176.031H61.0431V163.049Z" fill="#455A64"/>
<path d="M78.6362 164.876C76.4153 165.054 74.1868 165.114 71.9597 165.056C69.7326 165.114 67.5041 165.054 65.2832 164.876C67.5038 164.693 69.7326 164.633 71.9597 164.696C74.1868 164.633 76.4155 164.693 78.6362 164.876Z" fill="white"/>
<path d="M121.281 169.541C121.281 169.645 108.748 169.721 93.2921 169.721C77.8365 169.721 65.3027 169.645 65.3027 169.541C65.3027 169.437 77.8365 169.361 93.2921 169.361C108.748 169.361 121.281 169.444 121.281 169.541Z" fill="#263238"/>
<path d="M102.44 174.78C102.44 174.876 94.2073 174.959 84.0424 174.959C73.8775 174.959 65.6445 174.876 65.6445 174.78C65.6445 174.683 73.8775 174.6 84.0765 174.6C94.2756 174.6 102.44 174.676 102.44 174.78Z" fill="#263238"/>
<path d="M114.345 183.318H52.4685C49.1884 183.318 46.5293 186.012 46.5293 189.335C46.5293 192.658 49.1884 195.352 52.4685 195.352H114.345C117.626 195.352 120.285 192.658 120.285 189.335C120.285 186.012 117.626 183.318 114.345 183.318Z" fill="white"/>
<path d="M72.0346 190.182H70.5122L70.2187 190.874H69.4473L70.9013 187.553H71.6796L73.1473 190.874H72.3486L72.0346 190.182ZM71.7956 189.601L71.2768 188.328L70.758 189.601H71.7956Z" fill="white"/>
<path d="M76.295 188.778C76.295 189.519 75.7488 189.975 74.875 189.975H74.1924V190.896H73.4551V187.574H74.875C75.7761 187.574 76.295 188.031 76.295 188.778ZM75.5304 188.778C75.5304 188.412 75.2915 188.197 74.8477 188.197H74.2265V189.353H74.8477C75.2915 189.353 75.5304 189.138 75.5304 188.778Z" fill="white"/>
<path d="M79.667 188.778C79.667 189.519 79.1209 189.975 78.2471 189.975H77.5644V190.896H76.8066V187.574H78.2198C79.1209 187.574 79.667 188.031 79.667 188.778ZM78.9024 188.778C78.9024 188.412 78.6703 188.197 78.2198 188.197H77.6054V189.353H78.2198C78.6703 189.353 78.9024 189.138 78.9024 188.778Z" fill="white"/>
<path d="M80.2051 187.574H80.9628V190.301H82.6012V190.93H80.2051V187.574Z" fill="white"/>
<path d="M84.2609 189.719V190.896H83.5032V189.706L82.2402 187.574H83.039L83.9196 189.048L84.7934 187.574H85.5375L84.2609 189.719Z" fill="white"/>
<path d="M90.1727 187.574V190.896H89.5515L87.9199 188.875V190.896H87.1758V187.574H87.797L89.4286 189.609V187.595L90.1727 187.574Z" fill="white"/>
<path d="M90.7467 189.234C90.7276 188.872 90.816 188.512 91.0006 188.202C91.1851 187.891 91.4573 187.644 91.782 187.492C92.1067 187.339 92.4689 187.289 92.8219 187.348C93.1749 187.407 93.5025 187.571 93.7623 187.821C94.0221 188.07 94.2021 188.392 94.2793 188.746C94.3564 189.1 94.327 189.47 94.1949 189.807C94.0628 190.144 93.834 190.433 93.5382 190.637C93.2423 190.841 92.893 190.95 92.5353 190.95C92.3051 190.964 92.0746 190.929 91.858 190.849C91.6414 190.768 91.4433 190.644 91.2759 190.483C91.1084 190.323 90.9751 190.129 90.8841 189.914C90.7931 189.699 90.7463 189.468 90.7467 189.234ZM93.5593 189.234C93.5553 189.03 93.4918 188.831 93.3768 188.663C93.2619 188.495 93.1006 188.365 92.9132 188.29C92.7257 188.215 92.5205 188.197 92.3233 188.239C92.126 188.282 91.9454 188.382 91.8043 188.528C91.6631 188.674 91.5676 188.859 91.5297 189.06C91.4918 189.261 91.5133 189.468 91.5914 189.657C91.6694 189.845 91.8006 190.006 91.9686 190.119C92.1365 190.232 92.3336 190.293 92.5353 190.293C92.6723 190.296 92.8085 190.27 92.9354 190.218C93.0623 190.165 93.1773 190.087 93.2732 189.988C93.3691 189.889 93.444 189.771 93.4932 189.641C93.5424 189.511 93.5649 189.373 93.5593 189.234Z" fill="white"/>
<path d="M99.737 187.574L98.6652 190.896H97.8529L97.1292 188.647L96.3851 190.896H95.5728L94.4941 187.574H95.2792L96.0165 189.906L96.7879 187.574H97.4706L98.2215 189.927L98.9861 187.574H99.737Z" fill="white"/>
<path d="M457.469 61.1035H358.072V117.439H457.469V61.1035Z" fill="#FAFAFA"/>
<path d="M457.468 117.44C457.468 117.44 457.468 117.094 457.468 116.423C457.468 115.751 457.468 114.769 457.468 113.482C457.468 110.893 457.468 107.094 457.434 102.216C457.434 92.4655 457.393 78.3972 457.366 61.1041L457.502 61.2425L358.113 61.284L358.29 61.1041C358.29 81.0268 358.29 100.078 358.29 117.44L358.127 117.274L429.602 117.35L450.143 117.398H455.605H457.018H455.652H450.191L429.711 117.447L358.072 117.64H357.908V117.474C357.908 100.112 357.908 81.0614 357.908 61.1387V60.8965H358.092L457.482 60.938H457.619V61.0764C457.584 78.3764 457.564 92.5001 457.543 102.271C457.543 107.115 457.543 110.928 457.509 113.509C457.509 114.783 457.509 115.758 457.509 116.429C457.509 117.101 457.468 117.44 457.468 117.44Z" fill="#263238"/>
<path d="M384.266 74.5293H370.217V88.7707H384.266V74.5293Z" fill="#455A64"/>
<path d="M403.572 76.5365C403.572 76.6333 400.288 76.7164 396.247 76.7164C392.205 76.7164 388.922 76.6333 388.922 76.5365C393.802 76.2873 398.692 76.2873 403.572 76.5365Z" fill="white"/>
<path d="M450.362 81.6565C450.362 81.7603 436.606 81.8433 419.642 81.8433C402.678 81.8433 388.922 81.7603 388.922 81.6565C388.922 81.5527 402.671 81.4766 419.642 81.4766C436.613 81.4766 450.362 81.5527 450.362 81.6565Z" fill="#263238"/>
<path d="M429.691 87.4006C429.691 87.4975 420.653 87.5805 409.505 87.5805C398.357 87.5805 389.318 87.4975 389.318 87.4006C389.318 87.3037 398.357 87.2207 409.505 87.2207C420.653 87.2207 429.691 87.2968 429.691 87.4006Z" fill="#263238"/>
<path d="M442.75 109.973H374.858C373.131 109.973 371.475 109.277 370.253 108.039C369.032 106.801 368.346 105.122 368.346 103.371C368.346 101.62 369.032 99.9412 370.253 98.7031C371.475 97.4651 373.131 96.7695 374.858 96.7695H442.75C444.477 96.7695 446.133 97.4651 447.355 98.7031C448.576 99.9412 449.262 101.62 449.262 103.371C449.262 105.122 448.576 106.801 447.355 108.039C446.133 109.277 444.477 109.973 442.75 109.973Z" fill="white"/>
<path d="M396.321 104.299H394.656L394.342 105.074H393.488L395.086 101.441H395.905L397.509 105.074H396.629L396.321 104.299ZM396.062 103.656L395.495 102.272L394.922 103.656H396.062Z" fill="white"/>
<path d="M400.998 102.763C400.998 103.573 400.397 104.071 399.441 104.071H398.718V105.074H397.885V101.441H399.441C400.397 101.441 400.998 101.947 400.998 102.763ZM400.158 102.763C400.158 102.362 399.899 102.126 399.393 102.126H398.711V103.386H399.393C399.899 103.386 400.158 103.158 400.158 102.763Z" fill="white"/>
<path d="M404.698 102.763C404.698 103.573 404.104 104.071 403.141 104.071H402.418V105.074H401.592V101.441H403.141C404.138 101.441 404.698 101.947 404.698 102.763ZM403.858 102.763C403.858 102.362 403.606 102.126 403.094 102.126H402.411V103.386H403.094C403.606 103.386 403.858 103.158 403.858 102.763Z" fill="white"/>
<path d="M405.291 101.441H406.124V104.389H407.919V105.081H405.291V101.441Z" fill="white"/>
<path d="M409.742 103.8V105.087H408.916V103.8L407.551 101.461H408.431L409.387 103.073L410.35 101.461H411.162L409.742 103.8Z" fill="white"/>
<path d="M416.228 101.441V105.074H415.545L413.757 102.867V105.074H412.938V101.441H413.62L415.402 103.649V101.441H416.228Z" fill="white"/>
<path d="M416.857 103.261C416.834 102.862 416.929 102.466 417.131 102.123C417.333 101.78 417.631 101.506 417.988 101.337C418.345 101.168 418.744 101.112 419.133 101.176C419.522 101.24 419.883 101.42 420.169 101.694C420.456 101.968 420.654 102.324 420.739 102.713C420.824 103.103 420.792 103.51 420.646 103.881C420.5 104.252 420.248 104.57 419.921 104.794C419.595 105.018 419.21 105.137 418.816 105.136C418.564 105.151 418.312 105.114 418.075 105.027C417.837 104.939 417.62 104.803 417.437 104.628C417.253 104.452 417.107 104.24 417.007 104.005C416.908 103.77 416.857 103.517 416.857 103.261ZM419.943 103.261C419.939 103.036 419.869 102.817 419.743 102.632C419.617 102.447 419.439 102.304 419.233 102.221C419.027 102.138 418.801 102.118 418.584 102.164C418.367 102.211 418.168 102.321 418.013 102.482C417.857 102.642 417.752 102.846 417.71 103.067C417.668 103.287 417.692 103.516 417.778 103.723C417.863 103.931 418.008 104.108 418.193 104.232C418.377 104.357 418.594 104.424 418.816 104.424C418.967 104.427 419.117 104.4 419.257 104.343C419.396 104.285 419.523 104.2 419.629 104.09C419.734 103.981 419.817 103.852 419.871 103.709C419.925 103.566 419.949 103.414 419.943 103.261Z" fill="white"/>
<path d="M426.715 101.441L425.541 105.074H424.619L423.834 102.611L423.015 105.074H422.127L420.953 101.441H421.813L422.619 103.995L423.465 101.441H424.237L425.056 104.016L425.889 101.441H426.715Z" fill="white"/>
</svg>
