<svg width="418" height="280" viewBox="0 0 418 280" fill="none" xmlns="http://www.w3.org/2000/svg">
<path d="M103.241 79.582H16.1855V128.492H103.241V79.582Z" fill="#FAFAFA"/>
<path d="M103.241 128.492C103.241 128.492 103.241 128.189 103.241 127.612C103.241 127.036 103.241 126.173 103.241 125.059C103.241 122.819 103.241 119.515 103.213 115.276C103.213 106.808 103.179 94.5947 103.157 79.5811L103.268 79.6931L16.2185 79.7267L16.3634 79.5811C16.3634 96.8795 16.3634 113.422 16.3634 128.492L16.2297 128.357L78.8349 128.424L96.8201 128.458H101.619H102.856H103.285H102.873H101.652H96.8814L78.9241 128.497L16.1628 128.632H16.0234V128.492C16.0234 113.422 16.0234 96.8795 16.0234 79.5811V79.4355H16.1795L103.229 79.4691H103.341V79.5811C103.313 94.6283 103.296 106.864 103.28 115.348C103.28 119.571 103.28 122.864 103.252 125.098C103.252 126.218 103.252 127.058 103.252 127.635C103.252 128.212 103.241 128.492 103.241 128.492Z" fill="#E0E0E0"/>
<path d="M39.1243 91.2402H26.8184V103.605H39.1243V91.2402Z" fill="#E0E0E0"/>
<path d="M56.0346 92.9601C56.0346 93.0385 53.1588 93.1056 49.6197 93.1056C46.0806 93.1056 43.1992 93.0385 43.1992 92.9601C43.1992 92.8817 46.0751 92.8145 49.6197 92.8145C53.1643 92.8145 56.0346 92.8985 56.0346 92.9601Z" fill="#E0E0E0"/>
<path d="M97.0153 97.4405C97.0153 97.5189 84.9714 97.5861 70.1128 97.5861C55.2543 97.5861 43.1992 97.5189 43.1992 97.4405C43.1992 97.3621 55.2488 97.2949 70.1128 97.2949C84.9769 97.2949 97.0153 97.3453 97.0153 97.4405Z" fill="#E0E0E0"/>
<path d="M78.9136 102.413C78.9136 102.492 70.9939 102.559 61.2294 102.559C51.4649 102.559 43.5508 102.492 43.5508 102.413C43.5508 102.335 51.4649 102.268 61.2294 102.268C70.9939 102.268 78.9136 102.329 78.9136 102.413Z" fill="#E0E0E0"/>
<path d="M90.3487 122.012H30.8812C29.3686 122.011 27.9184 121.406 26.8493 120.33C25.7802 119.255 25.1797 117.798 25.1797 116.278C25.1797 114.758 25.7804 113.301 26.8496 112.227C27.9189 111.152 29.3691 110.549 30.8812 110.549H90.3487C91.0979 110.548 91.8399 110.696 92.5323 110.983C93.2246 111.271 93.8538 111.693 94.3839 112.225C94.9139 112.757 95.3344 113.389 95.6212 114.084C95.9081 114.779 96.0558 115.525 96.0558 116.278C96.0558 117.031 95.9082 117.776 95.6213 118.472C95.3345 119.168 94.9142 119.8 94.3842 120.332C93.8542 120.865 93.2251 121.287 92.5327 121.576C91.8403 121.864 91.0981 122.012 90.3487 122.012Z" fill="#E0E0E0"/>
<path d="M49.6869 117.084H48.2267L47.948 117.762H47.2012L48.6057 114.604H49.3246L50.7179 117.762H49.9655L49.6869 117.084ZM49.4584 116.524L48.9568 115.315L48.4886 116.53L49.4584 116.524Z" fill="white"/>
<path d="M53.782 115.747C53.782 116.452 53.2247 116.867 52.4165 116.867H51.7812V117.74H51.0566V114.582H52.4165C53.2525 114.604 53.782 115.041 53.782 115.747ZM53.0463 115.747C53.0463 115.4 52.8178 115.187 52.3719 115.187H51.7812V116.307H52.3887C52.8178 116.296 53.0463 116.094 53.0463 115.747Z" fill="white"/>
<path d="M57.0203 115.747C57.0203 116.452 56.4964 116.867 55.6604 116.867H55.025V117.74H54.2949V114.582H55.6604C56.4964 114.604 57.0203 115.041 57.0203 115.747ZM56.2846 115.747C56.2846 115.4 56.0617 115.187 55.6158 115.187H55.025V116.307H55.6158C56.0617 116.296 56.2902 116.094 56.2902 115.747H56.2846Z" fill="white"/>
<path d="M57.5391 114.604H58.2692V117.163H59.8464V117.762H57.5391V114.604Z" fill="white"/>
<path d="M61.4412 116.642V117.762H60.7111V116.642L59.4961 114.615H60.2652L61.1068 116.015L61.9484 114.615H62.6617L61.4412 116.642Z" fill="white"/>
<path d="M67.1197 114.604V117.762H66.5233L64.9572 115.841V117.762H64.2383V114.604H64.8402L66.4007 116.519V114.604H67.1197Z" fill="white"/>
<path d="M67.6654 116.182C67.6441 115.835 67.7273 115.489 67.904 115.19C68.0808 114.891 68.3429 114.652 68.6565 114.504C68.9701 114.356 69.3206 114.307 69.6626 114.362C70.0046 114.417 70.3222 114.573 70.5743 114.812C70.8265 115.051 71.0014 115.36 71.0765 115.7C71.1516 116.039 71.1233 116.394 70.9954 116.717C70.8674 117.041 70.6457 117.318 70.359 117.513C70.0723 117.708 69.7338 117.812 69.3875 117.812C69.1664 117.825 68.945 117.792 68.7369 117.716C68.5288 117.64 68.3383 117.522 68.177 117.37C68.0158 117.217 67.8873 117.033 67.7993 116.829C67.7113 116.625 67.6657 116.405 67.6654 116.182ZM70.3684 116.182C70.364 115.988 70.3028 115.8 70.1924 115.641C70.082 115.482 69.9273 115.359 69.7477 115.288C69.5681 115.217 69.3716 115.2 69.1828 115.241C68.9941 115.281 68.8214 115.377 68.6864 115.516C68.5515 115.654 68.4602 115.83 68.4241 116.02C68.3881 116.211 68.4088 116.408 68.4836 116.587C68.5585 116.766 68.6842 116.918 68.8449 117.026C69.0057 117.133 69.1945 117.19 69.3875 117.19C69.5193 117.194 69.6506 117.171 69.7729 117.121C69.8952 117.072 70.006 116.997 70.0982 116.903C70.1904 116.808 70.262 116.695 70.3085 116.571C70.355 116.447 70.3754 116.315 70.3684 116.182Z" fill="white"/>
<path d="M76.3045 114.604L75.2734 117.762H74.4932L73.8021 115.623L73.0887 117.762H72.314L71.2773 114.604H72.0353L72.7431 116.844L73.4844 114.604H74.1588L74.8777 116.844L75.6078 114.604H76.3045Z" fill="white"/>
<path d="M105.08 183.736H29.834V226.011H105.08V183.736Z" fill="#FAFAFA"/>
<path d="M105.08 226.016C105.08 226.016 105.08 225.753 105.08 225.249C105.08 224.745 105.08 224.006 105.08 223.043C105.08 221.1 105.08 218.249 105.047 214.587C105.047 207.268 105.013 196.712 104.991 183.736L105.103 183.848L29.8625 183.882L30.0074 183.736C30.0074 198.688 30.0074 212.985 30.0074 226.016L29.8737 225.876L83.9796 225.944L99.5292 225.983H103.676H104.751H105.119H103.665H99.5459L84.0242 226.022L29.8291 226.089H29.6953V225.955C29.6953 212.924 29.6953 198.627 29.6953 183.675V183.529H29.8458L105.086 183.563H105.197V183.675C105.169 196.684 105.153 207.262 105.136 214.592C105.136 218.244 105.136 221.088 105.136 223.02C105.136 223.978 105.136 224.7 105.136 225.216C105.136 225.731 105.08 226.016 105.08 226.016Z" fill="#E0E0E0"/>
<path d="M49.6688 193.816H39.0293V204.507H49.6688V193.816Z" fill="#E0E0E0"/>
<path d="M64.277 195.316C62.423 195.461 60.5627 195.51 58.7037 195.462C56.8539 195.509 55.003 195.46 53.1582 195.316C55.003 195.172 56.8539 195.123 58.7037 195.17C60.5627 195.122 62.423 195.171 64.277 195.316Z" fill="#E0E0E0"/>
<path d="M99.7006 199.157C99.7006 199.236 89.2896 199.303 76.4431 199.303C63.5965 199.303 53.1855 199.236 53.1855 199.157C53.1855 199.079 63.5965 199.012 76.4431 199.012C89.2896 199.012 99.7006 199.079 99.7006 199.157Z" fill="#E0E0E0"/>
<path d="M84.0513 203.47C84.0513 203.548 77.2073 203.615 68.7693 203.615C60.3312 203.615 53.5039 203.548 53.5039 203.47C53.5039 203.391 60.348 203.324 68.786 203.324C77.224 203.324 84.0513 203.386 84.0513 203.47Z" fill="#E0E0E0"/>
<path d="M93.9391 220.41H42.5418C41.2336 220.41 39.979 219.888 39.054 218.959C38.129 218.029 37.6094 216.769 37.6094 215.454C37.6094 214.804 37.737 214.16 37.9849 213.559C38.2329 212.958 38.5963 212.412 39.0544 211.952C39.5125 211.492 40.0563 211.128 40.6546 210.879C41.253 210.631 41.8943 210.503 42.5418 210.504H93.9391C94.5865 210.503 95.2278 210.631 95.8262 210.879C96.4246 211.128 96.9684 211.492 97.4265 211.952C97.8845 212.412 98.2479 212.958 98.4959 213.559C98.7438 214.16 98.8715 214.804 98.8715 215.454C98.8715 216.769 98.3518 218.029 97.4268 218.959C96.5018 219.888 95.2472 220.41 93.9391 220.41Z" fill="#E0E0E0"/>
<path d="M58.7886 216.159H57.529L57.2894 216.719H56.6484L57.8578 213.992H58.4765L59.6915 216.719H59.0283L58.7886 216.159ZM58.5935 215.678L58.1644 214.636L57.7297 215.678H58.5935Z" fill="white"/>
<path d="M62.326 215C62.326 215.605 61.8745 215.986 61.15 215.986H60.5927V216.719H59.9629V213.992H61.1389C61.8634 214.009 62.326 214.384 62.326 215ZM61.6906 215C61.6906 214.698 61.4956 214.524 61.1333 214.524H60.6205V215.471H61.1333C61.4956 215.471 61.6906 215.297 61.6906 215Z" fill="white"/>
<path d="M65.1307 215C65.1307 215.605 64.6792 215.986 63.9547 215.986H63.3974V216.719H62.7676V213.992H63.9436C64.6792 214.009 65.1307 214.384 65.1307 215ZM64.4953 215C64.4953 214.698 64.3002 214.524 63.938 214.524H63.4308V215.471H63.938C64.3002 215.471 64.4953 215.297 64.4953 215Z" fill="white"/>
<path d="M65.582 214.01H66.2062V216.222H67.5717V216.72H65.582V214.01Z" fill="white"/>
<path d="M68.9471 215.767V216.719H68.3173V215.745L67.2695 213.992H67.9328L68.6629 215.202L69.3874 213.992H70.0005L68.9471 215.767Z" fill="white"/>
<path d="M73.8585 214.009V216.719H73.3401L71.9914 215.039V216.719H71.3672V213.992H71.8967L73.251 215.672V213.992L73.8585 214.009Z" fill="white"/>
<path d="M74.3324 215.37C74.3157 215.071 74.3886 214.775 74.5416 214.518C74.6946 214.261 74.9207 214.057 75.1907 213.93C75.4607 213.804 75.7622 213.762 76.0562 213.81C76.3501 213.858 76.623 213.993 76.8396 214.199C77.0561 214.404 77.2064 214.67 77.2709 214.962C77.3354 215.254 77.3112 215.559 77.2015 215.837C77.0917 216.115 76.9015 216.354 76.6553 216.522C76.4091 216.691 76.1183 216.781 75.8205 216.781C75.6292 216.793 75.4375 216.765 75.2573 216.699C75.0772 216.633 74.9123 216.531 74.7729 216.399C74.6335 216.267 74.5225 216.107 74.4467 215.93C74.371 215.753 74.3321 215.563 74.3324 215.37ZM76.6677 215.37C76.6633 215.203 76.6099 215.041 76.5142 214.904C76.4185 214.767 76.2847 214.661 76.1296 214.6C75.9744 214.539 75.8048 214.525 75.642 214.561C75.4792 214.596 75.3303 214.679 75.2141 214.799C75.0978 214.918 75.0193 215.07 74.9884 215.235C74.9575 215.399 74.9755 215.569 75.0402 215.723C75.1049 215.878 75.2135 216.009 75.3523 216.102C75.4911 216.194 75.6539 216.244 75.8205 216.244C75.9345 216.247 76.048 216.227 76.1538 216.183C76.2595 216.14 76.3552 216.076 76.4348 215.994C76.5144 215.912 76.5762 215.814 76.6163 215.707C76.6564 215.599 76.6739 215.485 76.6677 215.37Z" fill="white"/>
<path d="M81.7939 214.009L80.9078 216.719H80.2557L79.6538 214.871L79.0407 216.719H78.3663L77.4746 213.992H78.1267L78.7398 215.907L79.3807 213.992H79.938L80.5622 215.924L81.192 213.992L81.7939 214.009Z" fill="white"/>
<path d="M367.228 202.809H291.982V245.083H367.228V202.809Z" fill="#FAFAFA"/>
<path d="M367.227 245.089C367.227 245.089 367.227 244.826 367.227 244.322C367.227 243.818 367.227 243.078 367.227 242.115C367.227 240.172 367.227 237.322 367.199 233.659C367.199 226.34 367.166 215.784 367.138 202.809L367.249 202.921L292.009 202.954L292.154 202.809C292.154 217.761 292.154 232.058 292.154 245.089L292.021 244.949L346.126 245.016L361.676 245.055H365.823H366.898H367.266H365.856H361.737L346.216 245.094L292.021 245.162H291.887V245.027C291.887 231.996 291.887 217.699 291.887 202.747V202.602H292.037L367.277 202.635H367.389V202.747C367.361 215.756 367.344 226.334 367.327 233.665C367.327 237.316 367.327 240.161 367.327 242.093C367.327 243.05 367.327 243.773 367.327 244.288C367.327 244.803 367.227 245.089 367.227 245.089Z" fill="#E0E0E0"/>
<path d="M311.817 212.889H301.178V223.579H311.817V212.889Z" fill="#E0E0E0"/>
<path d="M326.425 214.39C322.73 214.584 319.028 214.584 315.334 214.39C319.028 214.196 322.73 214.196 326.425 214.39Z" fill="#E0E0E0"/>
<path d="M361.849 218.232C361.849 218.31 351.438 218.377 338.592 218.377C325.745 218.377 315.334 218.31 315.334 218.232C315.334 218.153 325.745 218.086 338.592 218.086C351.438 218.086 361.849 218.153 361.849 218.232Z" fill="#E0E0E0"/>
<path d="M346.199 222.544C346.199 222.622 339.355 222.69 330.917 222.69C322.479 222.69 315.635 222.622 315.635 222.544C315.635 222.466 322.479 222.398 330.917 222.398C339.355 222.398 346.199 222.46 346.199 222.544Z" fill="#E0E0E0"/>
<path d="M356.086 239.483H304.688C303.38 239.483 302.126 238.96 301.201 238.031C300.276 237.102 299.756 235.841 299.756 234.527C299.756 233.876 299.883 233.232 300.131 232.631C300.379 232.03 300.743 231.484 301.201 231.024C301.659 230.564 302.203 230.2 302.801 229.951C303.4 229.703 304.041 229.575 304.688 229.576H356.086C356.733 229.575 357.374 229.703 357.973 229.951C358.571 230.2 359.115 230.564 359.573 231.024C360.031 231.484 360.394 232.03 360.642 232.631C360.89 233.232 361.018 233.876 361.018 234.527C361.018 235.841 360.498 237.102 359.573 238.031C358.648 238.96 357.394 239.483 356.086 239.483Z" fill="#E0E0E0"/>
<path d="M320.941 235.228H319.676L319.436 235.788H318.795L320.004 233.061H320.623L321.838 235.788H321.18L320.941 235.228ZM320.74 234.746L320.311 233.699L319.882 234.746H320.74Z" fill="white"/>
<path d="M324.479 234.079C324.479 234.684 324.022 235.065 323.298 235.065H322.741V235.815H322.139V233.088H323.315C324.022 233.082 324.479 233.458 324.479 234.079ZM323.844 234.079C323.844 233.777 323.649 233.603 323.287 233.603H322.774V234.55H323.253C323.649 234.544 323.844 234.365 323.844 234.079Z" fill="white"/>
<path d="M327.283 234.079C327.283 234.684 326.826 235.065 326.102 235.065H325.544V235.815H324.926V233.088H326.102C326.826 233.082 327.283 233.458 327.283 234.079ZM326.642 234.079C326.642 233.777 326.453 233.603 326.085 233.603H325.572V234.55H326.085C326.453 234.544 326.642 234.365 326.642 234.079Z" fill="white"/>
<path d="M327.713 233.082H328.343V235.294H329.703V235.809H327.713V233.082Z" fill="white"/>
<path d="M331.095 234.84V235.809H330.499V234.835L329.445 233.082H330.114L330.839 234.292L331.563 233.082H332.171L331.095 234.84Z" fill="white"/>
<path d="M336.006 233.082V235.809H335.516L334.161 234.129V235.809H333.537V233.082H334.061L335.41 234.762V233.082H336.006Z" fill="white"/>
<path d="M336.485 234.444C336.468 234.145 336.541 233.848 336.694 233.592C336.848 233.335 337.074 233.13 337.344 233.004C337.615 232.878 337.916 232.837 338.211 232.885C338.505 232.933 338.778 233.069 338.994 233.275C339.21 233.481 339.36 233.747 339.424 234.04C339.488 234.332 339.463 234.637 339.352 234.915C339.242 235.193 339.051 235.432 338.804 235.599C338.557 235.767 338.265 235.856 337.967 235.856C337.776 235.867 337.585 235.839 337.405 235.773C337.225 235.707 337.061 235.605 336.922 235.473C336.783 235.341 336.672 235.181 336.597 235.004C336.522 234.827 336.484 234.637 336.485 234.444ZM338.82 234.444C338.817 234.276 338.764 234.112 338.668 233.973C338.573 233.834 338.438 233.727 338.282 233.665C338.126 233.603 337.955 233.588 337.791 233.623C337.627 233.658 337.476 233.741 337.359 233.861C337.241 233.982 337.162 234.134 337.13 234.3C337.098 234.466 337.116 234.637 337.181 234.793C337.246 234.948 337.355 235.081 337.495 235.175C337.635 235.268 337.799 235.318 337.967 235.318C338.082 235.321 338.195 235.301 338.301 235.258C338.407 235.215 338.503 235.15 338.583 235.068C338.663 234.986 338.726 234.888 338.766 234.781C338.807 234.674 338.825 234.559 338.82 234.444Z" fill="white"/>
<path d="M343.942 233.082L343.055 235.809H342.381L341.785 233.961L341.166 235.809H340.497L339.605 233.082H340.258L340.871 234.997L341.506 233.082H342.063L342.682 235.014L343.312 233.082H343.942Z" fill="white"/>
<path d="M394.331 99.584H307.275V148.494H394.331V99.584Z" fill="#FAFAFA"/>
<path d="M394.33 148.495C394.33 148.495 394.33 148.192 394.33 147.615C394.33 147.039 394.33 146.182 394.33 145.062C394.33 142.822 394.33 139.518 394.33 135.284C394.33 126.817 394.296 114.603 394.268 99.5842L394.38 99.6961L307.33 99.7297L307.475 99.5842C307.475 116.883 307.475 133.425 307.475 148.495L307.341 148.36L369.946 148.427L387.937 148.467H392.73H394.402H393.995H392.769H387.998L370.041 148.506L307.347 148.573H307.213V148.433C307.213 133.363 307.213 116.821 307.213 99.5226V99.377H307.363L394.413 99.4106H394.525V99.5226C394.525 114.57 394.48 126.806 394.463 135.29C394.463 139.512 394.463 142.805 394.463 145.045C394.463 146.165 394.463 146.999 394.463 147.576C394.463 148.153 394.33 148.495 394.33 148.495Z" fill="#E0E0E0"/>
<path d="M330.22 111.244H317.914V123.609H330.22V111.244Z" fill="#E0E0E0"/>
<path d="M347.125 112.98C347.125 113.064 344.254 113.125 340.71 113.125C337.165 113.125 334.295 113.064 334.295 112.98C334.295 112.896 337.165 112.834 340.71 112.834C344.254 112.834 347.125 112.901 347.125 112.98Z" fill="#E0E0E0"/>
<path d="M388.111 117.427C388.111 117.511 376.061 117.572 361.203 117.572C346.344 117.572 334.295 117.511 334.295 117.427C334.295 117.343 346.339 117.281 361.203 117.281C376.067 117.281 388.111 117.348 388.111 117.427Z" fill="#E0E0E0"/>
<path d="M370.003 122.415C370.003 122.494 362.089 122.561 352.325 122.561C342.56 122.561 334.641 122.494 334.641 122.415C334.641 122.337 342.555 122.27 352.325 122.27C362.095 122.27 370.003 122.331 370.003 122.415Z" fill="#E0E0E0"/>
<path d="M381.444 130.553H321.971C318.822 130.553 316.27 133.118 316.27 136.282V136.287C316.27 139.451 318.822 142.016 321.971 142.016H381.444C384.593 142.016 387.146 139.451 387.146 136.287V136.282C387.146 133.118 384.593 130.553 381.444 130.553Z" fill="#E0E0E0"/>
<path d="M340.775 137.088H339.315L339.036 137.766H338.301L339.7 134.607H340.419L341.823 137.766H341.06L340.775 137.088ZM340.547 136.528L340.051 135.319L339.549 136.528H340.547Z" fill="white"/>
<path d="M344.872 135.755C344.872 136.455 344.348 136.875 343.506 136.875H342.877V137.76H342.146V134.602H343.506C344.348 134.607 344.872 135.044 344.872 135.755ZM344.136 135.755C344.136 135.408 343.913 135.195 343.467 135.195H342.877V136.315H343.467C343.913 136.298 344.136 136.08 344.136 135.755Z" fill="white"/>
<path d="M348.115 135.755C348.115 136.455 347.591 136.875 346.75 136.875H346.103V137.76H345.379V134.602H346.739C347.592 134.607 348.115 135.044 348.115 135.755ZM347.38 135.755C347.38 135.408 347.151 135.195 346.711 135.195H346.103V136.315H346.7C347.151 136.298 347.38 136.08 347.38 135.755Z" fill="white"/>
<path d="M348.635 134.607H349.359V137.2H350.937V137.76H348.635V134.607Z" fill="white"/>
<path d="M352.53 136.64V137.76H351.805V136.64L350.562 134.607H351.337L352.173 136.007L353.015 134.607H353.728L352.53 136.64Z" fill="white"/>
<path d="M358.21 134.607V137.76H357.613L356.047 135.839V137.76H355.328V134.602H355.93L357.496 136.517V134.602L358.21 134.607Z" fill="white"/>
<path d="M358.76 136.185C358.741 135.839 358.826 135.495 359.004 135.198C359.181 134.902 359.444 134.665 359.757 134.519C360.069 134.374 360.419 134.326 360.759 134.382C361.099 134.438 361.415 134.596 361.665 134.834C361.915 135.072 362.088 135.381 362.162 135.719C362.236 136.057 362.207 136.41 362.079 136.732C361.951 137.054 361.73 137.329 361.444 137.523C361.159 137.717 360.822 137.821 360.477 137.82C360.256 137.833 360.034 137.8 359.826 137.724C359.618 137.648 359.427 137.529 359.266 137.376C359.106 137.223 358.978 137.038 358.891 136.833C358.804 136.628 358.759 136.408 358.76 136.185ZM361.463 136.185C361.46 135.99 361.4 135.8 361.289 135.639C361.179 135.478 361.024 135.354 360.843 135.281C360.663 135.209 360.465 135.192 360.275 135.232C360.084 135.272 359.91 135.368 359.774 135.507C359.637 135.646 359.545 135.823 359.508 136.014C359.472 136.206 359.492 136.405 359.567 136.585C359.642 136.765 359.769 136.919 359.931 137.027C360.093 137.135 360.283 137.193 360.477 137.193C360.609 137.196 360.74 137.172 360.862 137.122C360.984 137.073 361.095 136.998 361.188 136.904C361.28 136.809 361.352 136.697 361.4 136.573C361.447 136.449 361.469 136.317 361.463 136.185Z" fill="white"/>
<path d="M367.393 134.607L366.368 137.76H365.61L364.913 135.621L364.178 137.76H363.381L362.35 134.602H363.102L363.81 136.842L364.551 134.602H365.225L365.944 136.842L366.674 134.602L367.393 134.607Z" fill="white"/>
<path d="M333.722 24.3379H75.7988V261.313H333.722V24.3379Z" fill="white"/>
<path d="M333.722 24.3379H75.7988V40.1019H333.722V24.3379Z" fill="#E0E0E0"/>
<path d="M298.999 246.097C298.999 246.181 255.84 246.242 202.581 246.242C149.322 246.242 106.162 246.181 106.162 246.097C106.162 246.013 149.316 245.951 202.581 245.951C255.845 245.951 298.999 246.018 298.999 246.097Z" fill="#263238"/>
<path d="M186.63 198.559H182.812V218.763H186.63V198.559Z" fill="#E0E0E0"/>
<path d="M186.635 218.758C186.626 218.62 186.626 218.482 186.635 218.344C186.635 218.053 186.635 217.666 186.635 217.179C186.635 216.149 186.635 214.704 186.591 212.906C186.591 209.277 186.552 204.254 186.529 198.559L186.674 198.699H182.806C183.091 198.408 182.885 198.621 182.951 198.559V204.719C182.951 206.679 182.951 208.544 182.951 210.274C182.951 213.718 182.918 216.636 182.907 218.775L182.823 218.697L185.61 218.741H186.357H186.63C186.55 218.749 186.47 218.749 186.39 218.741H185.654L182.806 218.781H182.734V218.697C182.734 216.557 182.706 213.657 182.689 210.196C182.689 208.465 182.689 206.601 182.689 204.641V201.628C182.689 201.118 182.689 200.597 182.689 200.077V198.509L182.84 198.357H186.797V198.503C186.797 204.237 186.752 209.294 186.736 212.951C186.736 214.732 186.702 216.171 186.697 217.196C186.697 217.666 186.697 218.041 186.697 218.316C186.687 218.465 186.667 218.612 186.635 218.758Z" fill="#263238"/>
<path d="M193.563 195.496H175.729C174.458 195.496 173.24 194.989 172.341 194.087C171.443 193.185 170.937 191.962 170.936 190.686H198.356C198.355 191.962 197.849 193.185 196.951 194.087C196.052 194.989 194.834 195.496 193.563 195.496Z" fill="#263238"/>
<path d="M209.307 191.626H178.186V184.939H209.307C210.194 184.939 211.044 185.293 211.672 185.924C212.299 186.554 212.651 187.408 212.651 188.299C212.642 189.185 212.286 190.031 211.66 190.654C211.034 191.277 210.188 191.626 209.307 191.626Z" fill="white"/>
<path d="M153.998 136.903C153.143 137.019 152.366 137.466 151.834 138.149C151.302 138.832 151.057 139.697 151.15 140.559L155.642 181.585C155.952 184.347 157.263 186.897 159.325 188.749C161.388 190.601 164.057 191.625 166.823 191.626H178.694C179.581 191.626 180.431 191.272 181.058 190.642C181.685 190.012 182.038 189.157 182.038 188.266C182.038 187.375 181.685 186.52 181.058 185.89C180.431 185.26 179.581 184.906 178.694 184.906H168.612C167.226 184.906 165.888 184.401 164.846 183.484C163.803 182.567 163.127 181.302 162.944 179.922L157.727 139.764C157.67 139.331 157.528 138.912 157.31 138.534C157.092 138.155 156.802 137.823 156.456 137.557C156.11 137.292 155.716 137.097 155.295 136.985C154.874 136.872 154.435 136.844 154.004 136.903H153.998Z" fill="white"/>
<path d="M191.818 185.264L157.983 185.74L154.678 136.869L182.996 136.689C184.359 136.697 185.664 137.248 186.623 138.221C187.583 139.195 188.118 140.511 188.112 141.881L191.818 185.264Z" fill="white"/>
<g opacity="0.3">
<path d="M153.998 136.903C153.143 137.019 152.366 137.466 151.834 138.149C151.302 138.832 151.057 139.697 151.15 140.559L155.642 181.585C155.952 184.347 157.263 186.897 159.325 188.749C161.388 190.601 164.057 191.625 166.823 191.626H178.694C179.581 191.626 180.431 191.272 181.058 190.642C181.685 190.012 182.038 189.157 182.038 188.266C182.038 187.375 181.685 186.52 181.058 185.89C180.431 185.26 179.581 184.906 178.694 184.906H167.887C165.022 184.906 163.01 182.867 162.631 180.011L157.727 139.764C157.67 139.331 157.528 138.912 157.31 138.534C157.092 138.155 156.802 137.823 156.456 137.557C156.11 137.292 155.716 137.097 155.295 136.985C154.874 136.872 154.435 136.844 154.004 136.903H153.998Z" fill="black"/>
</g>
<path d="M188.419 195.496H181.023V199.36H188.419V195.496Z" fill="#263238"/>
<path d="M186.106 217.627H183.236C182.014 217.627 181.023 218.622 181.023 219.85V233.105C181.023 234.333 182.014 235.329 183.236 235.329H186.106C187.328 235.329 188.319 234.333 188.319 233.105V219.85C188.319 218.622 187.328 217.627 186.106 217.627Z" fill="#E0E0E0"/>
<path d="M186.111 235.329C186.111 235.329 186.272 235.329 186.568 235.25C186.934 235.158 187.27 234.974 187.546 234.716C187.822 234.457 188.028 234.132 188.145 233.772C188.238 233.406 188.27 233.028 188.24 232.652C188.24 231.818 188.24 230.871 188.24 229.852C188.24 227.746 188.24 225.26 188.206 222.499C188.206 221.81 188.206 221.099 188.206 220.377C188.232 220.024 188.205 219.669 188.128 219.324C188.038 218.984 187.861 218.673 187.615 218.422C187.369 218.161 187.06 217.968 186.718 217.862C186.353 217.778 185.977 217.75 185.603 217.778H183.251C182.883 217.779 182.521 217.878 182.204 218.066C181.886 218.254 181.625 218.524 181.446 218.848C181.273 219.166 181.183 219.522 181.184 219.884V221.004C181.184 222.505 181.184 223.961 181.184 225.344C181.184 228.105 181.184 230.591 181.156 232.691C181.105 233.173 181.188 233.66 181.396 234.097C181.587 234.448 181.872 234.739 182.218 234.937C182.565 235.135 182.959 235.232 183.357 235.217H184.327L185.67 235.245C185.827 235.238 185.984 235.248 186.138 235.273C185.983 235.285 185.826 235.285 185.67 235.273L184.327 235.301H183.357C182.928 235.322 182.501 235.221 182.126 235.01C181.75 234.799 181.441 234.487 181.234 234.108C181.115 233.885 181.032 233.645 180.989 233.397C180.954 233.137 180.941 232.875 180.95 232.613C180.95 230.513 180.95 228.026 180.916 225.266C180.916 223.882 180.916 222.426 180.916 220.926V219.806C180.912 219.492 180.969 219.182 181.086 218.891C181.202 218.6 181.374 218.336 181.593 218.113C181.812 217.89 182.073 217.713 182.36 217.592C182.648 217.471 182.957 217.409 183.268 217.409H185.592C185.991 217.38 186.391 217.412 186.779 217.504C187.165 217.623 187.516 217.837 187.799 218.126C188.066 218.414 188.257 218.764 188.357 219.145C188.435 219.513 188.463 219.889 188.44 220.265C188.44 220.987 188.44 221.698 188.44 222.387C188.44 225.148 188.44 227.634 188.412 229.74C188.412 230.782 188.412 231.728 188.412 232.54C188.436 232.932 188.394 233.326 188.29 233.705C188.179 234.022 188.003 234.313 187.771 234.556C187.453 234.888 187.04 235.113 186.59 235.2C186.438 235.268 186.276 235.312 186.111 235.329Z" fill="#263238"/>
<path d="M205.963 234.231H162.547C161.966 234.21 161.388 234.312 160.849 234.53C160.311 234.748 159.824 235.077 159.42 235.497C157.809 237.177 157.91 239.977 157.915 240.078L159.894 239.994C159.894 239.434 160 237.754 160.852 236.869C161.071 236.65 161.333 236.48 161.62 236.368C161.908 236.256 162.216 236.205 162.524 236.219H173.916V241.287H175.895V236.219H205.941C206.552 236.221 207.138 236.465 207.57 236.9C208.003 237.334 208.246 237.923 208.248 238.538V240.033H210.226V238.56C210.231 237.418 209.785 236.321 208.985 235.51C208.186 234.699 207.099 234.239 205.963 234.231Z" fill="#E0E0E0"/>
<path d="M205.964 234.231C206.149 234.217 206.336 234.217 206.521 234.231C207.051 234.289 207.565 234.446 208.037 234.695C208.806 235.116 209.434 235.755 209.843 236.532C210.101 237.028 210.26 237.571 210.311 238.128C210.35 238.727 210.311 239.343 210.339 240.01V240.083H208.216V240.004C208.16 239.035 208.439 237.848 207.63 237.019C207.25 236.601 206.727 236.343 206.165 236.297C205.607 236.297 204.961 236.297 204.337 236.297H196.082H175.94L176.074 236.157C176.074 237.753 176.074 239.478 176.074 241.225V241.371H173.811V236.157L173.956 236.303H162.358C161.961 236.315 161.576 236.437 161.244 236.655C160.923 236.89 160.67 237.205 160.508 237.568C160.179 238.308 160.018 239.111 160.034 239.92V240.066H159.9L157.922 240.15H157.777V240.004C157.759 239.064 157.904 238.128 158.206 237.238C158.49 236.346 159.017 235.553 159.728 234.947C160.452 234.377 161.338 234.053 162.258 234.023C163.15 234.023 164.008 234.023 164.872 234.023H174.714L191.139 234.057L202.029 234.096L204.955 234.124H205.713H205.97C205.97 234.124 205.886 234.124 205.713 234.124H204.955H202.029L191.139 234.169L174.714 234.203H164.872C164.013 234.203 163.138 234.203 162.275 234.203C161.412 234.229 160.581 234.536 159.906 235.076C159.234 235.647 158.735 236.396 158.468 237.238C158.181 238.094 158.045 238.994 158.067 239.898L157.916 239.763L159.889 239.679L159.755 239.825C159.735 238.967 159.907 238.116 160.257 237.333C160.441 236.925 160.727 236.572 161.087 236.308C161.462 236.059 161.898 235.92 162.347 235.905H174.09V236.051C174.09 237.792 174.09 239.517 174.09 241.119L173.951 240.979H175.924L175.784 241.119C175.784 239.371 175.784 237.647 175.784 236.051V235.911H175.924H196.066H204.32C204.95 235.911 205.552 235.911 206.165 235.911C206.754 235.963 207.304 236.231 207.709 236.665C208.115 237.099 208.346 237.668 208.36 238.263C208.36 238.795 208.36 239.31 208.36 239.808L208.282 239.73H210.261L210.189 239.797C210.189 239.136 210.216 238.503 210.189 237.927C210.146 237.383 209.996 236.854 209.748 236.37C209.36 235.604 208.755 234.971 208.009 234.55C207.548 234.293 207.044 234.124 206.521 234.051C206.148 234.242 205.964 234.242 205.964 234.231Z" fill="#263238"/>
<path d="M178.737 243.65C178.738 244.42 178.512 245.173 178.087 245.814C177.662 246.455 177.058 246.954 176.35 247.25C175.642 247.545 174.863 247.623 174.111 247.474C173.36 247.324 172.669 246.954 172.127 246.41C171.584 245.866 171.215 245.172 171.065 244.417C170.915 243.662 170.992 242.879 171.285 242.168C171.578 241.456 172.074 240.848 172.711 240.42C173.348 239.992 174.097 239.764 174.864 239.764C175.89 239.764 176.874 240.173 177.601 240.902C178.327 241.63 178.736 242.619 178.737 243.65Z" fill="#263238"/>
<path d="M162.776 242.703C162.776 243.472 162.549 244.225 162.123 244.865C161.698 245.505 161.093 246.004 160.385 246.298C159.677 246.593 158.898 246.67 158.147 246.52C157.396 246.37 156.706 245.999 156.164 245.455C155.622 244.91 155.253 244.217 155.104 243.462C154.954 242.707 155.031 241.924 155.324 241.213C155.617 240.502 156.114 239.894 156.751 239.466C157.388 239.039 158.137 238.811 158.903 238.811C159.93 238.811 160.915 239.221 161.642 239.95C162.368 240.68 162.776 241.67 162.776 242.703Z" fill="#263238"/>
<path d="M212.684 242.843C212.686 243.613 212.459 244.366 212.034 245.007C211.609 245.648 211.005 246.148 210.297 246.443C209.589 246.739 208.81 246.816 208.059 246.667C207.307 246.517 206.616 246.147 206.074 245.603C205.532 245.059 205.162 244.366 205.012 243.61C204.862 242.855 204.939 242.072 205.232 241.361C205.525 240.649 206.021 240.041 206.658 239.613C207.296 239.185 208.045 238.957 208.811 238.957C209.837 238.957 210.822 239.366 211.548 240.095C212.274 240.824 212.683 241.812 212.684 242.843Z" fill="#263238"/>
<path d="M210.143 184.94C210.143 185.018 200.601 185.119 188.836 185.164C177.071 185.209 167.529 185.164 167.529 185.097C167.529 185.03 177.065 184.918 188.836 184.873C200.607 184.828 210.143 184.856 210.143 184.94Z" fill="#263238"/>
<path d="M162.676 179.378C162.598 179.378 161.422 170.53 160.056 159.593C158.691 148.656 157.643 139.775 157.721 139.764C157.799 139.752 158.975 148.612 160.34 159.554C161.706 170.496 162.742 179.367 162.676 179.378Z" fill="#263238"/>
<path d="M157.363 136.808C157.46 136.771 157.561 136.744 157.664 136.73C157.955 136.679 158.25 136.649 158.545 136.64C159.638 136.602 160.729 136.771 161.761 137.139C162.481 137.4 163.125 137.839 163.633 138.415C164.192 139.08 164.673 139.807 165.066 140.583C165.902 142.201 166.832 143.942 167.852 145.785C169.898 149.43 171.821 152.701 173.125 155.12C173.788 156.324 174.295 157.31 174.641 157.999C174.797 158.318 174.919 158.559 175.025 158.794C175.077 158.884 175.115 158.983 175.137 159.085C175.074 159.002 175.018 158.914 174.969 158.822L174.54 158.049L172.946 155.221C171.598 152.83 169.647 149.582 167.596 145.925C166.57 144.099 165.645 142.324 164.809 140.711C164.435 139.947 163.971 139.231 163.427 138.578C162.952 138.019 162.344 137.59 161.66 137.329C160.656 136.957 159.593 136.768 158.523 136.769C157.787 136.747 157.369 136.836 157.363 136.808Z" fill="#263238"/>
<path d="M151.378 138.936C151.45 138.975 148.887 143.466 145.66 148.96C142.433 154.454 139.758 158.883 139.685 158.844C139.613 158.805 142.176 154.314 145.409 148.814C148.641 143.315 151.311 138.88 151.378 138.936Z" fill="#263238"/>
<path d="M181.608 158.838H135.221V172.58H181.608V158.838Z" fill="#FAFAFA"/>
<path d="M147.733 163.105L145.465 168.381H144.267L142.004 163.105H143.314L144.908 166.88L146.524 163.111L147.733 163.105Z" fill="#263238"/>
<path d="M151.446 167.249H149.01L148.548 168.369H147.305L149.64 163.094H150.838L153.185 168.369H151.908L151.446 167.249ZM151.039 166.319L150.208 164.298L149.4 166.319H151.039Z" fill="#263238"/>
<path d="M153.322 165.76C153.354 165.19 153.553 164.641 153.894 164.184C154.234 163.727 154.702 163.381 155.238 163.189C155.773 162.998 156.353 162.97 156.905 163.108C157.457 163.247 157.955 163.546 158.338 163.968L157.558 164.69C157.399 164.495 157.198 164.338 156.97 164.232C156.743 164.125 156.494 164.071 156.243 164.074C155.799 164.074 155.374 164.251 155.06 164.567C154.747 164.882 154.571 165.309 154.571 165.754C154.571 166.2 154.747 166.627 155.06 166.942C155.374 167.257 155.799 167.434 156.243 167.434C156.494 167.437 156.743 167.382 156.971 167.275C157.199 167.167 157.399 167.009 157.558 166.813L158.338 167.535C157.957 167.96 157.458 168.261 156.907 168.402C156.355 168.542 155.774 168.515 155.237 168.324C154.7 168.133 154.232 167.786 153.891 167.328C153.551 166.87 153.353 166.32 153.322 165.749V165.76Z" fill="#263238"/>
<path d="M162.491 167.249H160.055L159.592 168.369H158.35L160.685 163.094H161.883L164.229 168.369H162.953L162.491 167.249ZM162.112 166.325L161.276 164.303L160.445 166.319L162.112 166.325Z" fill="#263238"/>
<path d="M169.587 163.105V168.381H168.59L165.976 165.2V168.403H164.777V163.128H165.781L168.389 166.331V163.128L169.587 163.105Z" fill="#263238"/>
<path d="M171.91 164.079H170.238V163.082H174.808V164.079H173.136V168.357H171.921L171.91 164.079Z" fill="#263238"/>
<path d="M180.109 171.36C180.109 171.36 180.109 171.293 180.109 171.159C180.109 171.024 180.109 170.834 180.109 170.599C180.109 170.089 180.109 169.35 180.109 168.398C180.109 166.471 180.109 163.677 180.064 160.149L180.148 160.233L136.397 160.295C136.459 160.227 136.247 160.44 136.537 160.149V171.349L136.392 171.209L167.603 171.271L176.804 171.31H179.29H179.936H180.159C180.091 171.315 180.022 171.315 179.953 171.31H179.323H176.871L167.703 171.349L136.403 171.416H136.264V171.36C136.264 169.551 136.264 167.703 136.264 165.833V160.115C136.553 159.824 136.347 160.031 136.414 159.97L180.165 160.026H180.254V160.115C180.254 163.666 180.215 166.477 180.204 168.415C180.204 169.361 180.204 170.095 180.204 170.599V171.159C180.18 171.229 180.148 171.297 180.109 171.36Z" fill="#263238"/>
<path d="M184.646 90.6523H188.174L184.679 93.5195H182.154L184.646 90.6523Z" fill="#263238"/>
<path d="M145.036 117.688V125.064H140.543V118.428C140.543 116.568 139.735 115.784 138.437 115.784C136.993 115.784 135.879 116.692 135.879 118.831V125.064H131.381V107.418H135.879V113.36C136.94 112.417 138.319 111.917 139.735 111.96C142.739 111.96 145.036 113.679 145.036 117.688Z" fill="#263238"/>
<path d="M147.359 108.342C147.359 106.987 148.474 105.939 150.101 105.939C151.729 105.939 152.849 106.914 152.849 108.269C152.849 109.624 151.762 110.744 150.101 110.744C148.441 110.744 147.359 109.697 147.359 108.342ZM147.855 112.172H152.353V125.052H147.855V112.172Z" fill="#263238"/>
<path d="M163.856 111.961V116.027C163.518 115.98 163.177 115.955 162.836 115.954C161.013 115.954 159.759 116.883 159.759 119.14V125.065H155.262V112.185H159.548V113.731C160.473 112.56 161.961 111.961 163.856 111.961Z" fill="#263238"/>
<path d="M165.205 108.342C165.205 106.987 166.292 105.939 167.953 105.939C169.614 105.939 170.695 106.914 170.695 108.269C170.695 109.624 169.608 110.744 167.953 110.744C166.297 110.744 165.205 109.697 165.205 108.342ZM165.701 112.172H170.199V125.052H165.701V112.172Z" fill="#263238"/>
<path d="M186.769 117.689V125.065H182.249V118.429C182.249 116.569 181.446 115.785 180.142 115.785C178.699 115.785 177.584 116.693 177.584 118.832V125.065H173.092V112.185H177.372V113.585C177.906 113.051 178.542 112.632 179.243 112.355C179.944 112.077 180.694 111.947 181.446 111.972C184.478 111.961 186.769 113.68 186.769 117.689Z" fill="#263238"/>
<path d="M203.573 112.172V122.706C203.573 127.584 200.831 129.891 196.049 129.891C193.585 129.891 191.245 129.331 189.679 128.211L191.312 125.047C192.578 125.951 194.094 126.434 195.648 126.43C198.061 126.43 199.075 125.31 199.075 123.311V122.885C198.592 123.406 198 123.813 197.342 124.076C196.684 124.339 195.976 124.453 195.269 124.408C191.858 124.408 188.971 121.978 188.971 118.176C188.971 114.373 191.858 111.971 195.269 111.971C197.041 111.971 198.412 112.531 199.293 113.752V112.184L203.573 112.172ZM199.114 118.164C199.114 116.596 197.927 115.549 196.328 115.549C194.728 115.549 193.507 116.596 193.507 118.164C193.507 119.732 194.717 120.802 196.328 120.802C196.688 120.828 197.049 120.779 197.389 120.658C197.729 120.537 198.041 120.346 198.304 120.097C198.567 119.849 198.776 119.548 198.917 119.215C199.058 118.881 199.129 118.521 199.125 118.159L199.114 118.164Z" fill="#263238"/>
<path d="M205.656 122.589C205.656 121.87 205.94 121.181 206.446 120.673C206.952 120.164 207.638 119.879 208.354 119.879C209.069 119.879 209.755 120.164 210.261 120.673C210.767 121.181 211.051 121.87 211.051 122.589C211.051 123.308 210.767 123.998 210.261 124.506C209.755 125.014 209.069 125.3 208.354 125.3C207.638 125.3 206.952 125.014 206.446 124.506C205.94 123.998 205.656 123.308 205.656 122.589Z" fill="white"/>
<path d="M192.671 94.5332V97.7308C192.407 97.6944 192.141 97.6756 191.874 97.6748C190.442 97.6748 189.461 98.4028 189.461 100.172V104.82H185.928V94.7012H189.272V95.9164C190.019 95.0036 191.167 94.5332 192.671 94.5332Z" fill="#263238"/>
<path d="M204.268 100.66H196.945C197.246 101.684 198.115 102.284 199.419 102.284C199.844 102.298 200.268 102.228 200.666 102.077C201.064 101.926 201.428 101.698 201.738 101.404L203.599 103.348C202.63 104.428 201.219 104.994 199.308 104.994C195.719 104.994 193.395 102.754 193.395 99.7468C193.395 96.7396 195.758 94.5332 198.934 94.5332C201.905 94.5332 204.324 96.4428 204.324 99.7804C204.324 100.044 204.285 100.38 204.268 100.66ZM196.889 98.7948H201.013C200.926 98.3092 200.672 97.8699 200.295 97.5535C199.918 97.2372 199.442 97.0639 198.951 97.0639C198.46 97.0639 197.985 97.2372 197.608 97.5535C197.231 97.8699 196.976 98.3092 196.889 98.7948Z" fill="#263238"/>
<path d="M170.711 94.7012L167.122 104.82H163.706L161.811 99.3156L159.838 104.82H156.421L152.832 94.7012H156.176L158.238 100.828L160.378 94.7012H163.388L165.467 100.861L167.607 94.7012H170.711Z" fill="#263238"/>
<path d="M181.748 100.66H174.447C174.748 101.684 175.617 102.284 176.922 102.284C177.348 102.299 177.772 102.229 178.171 102.078C178.57 101.927 178.935 101.698 179.246 101.404L181.102 103.348C180.137 104.428 178.722 104.994 176.81 104.994C173.221 104.994 170.902 102.754 170.902 99.7468C170.902 96.7396 173.26 94.5332 176.437 94.5332C179.413 94.5332 181.826 96.4428 181.826 99.7804C181.804 100.044 181.765 100.38 181.748 100.66ZM174.369 98.7948H178.499C178.415 98.3058 178.161 97.8625 177.784 97.5429C177.406 97.2233 176.928 97.048 176.434 97.048C175.94 97.048 175.462 97.2233 175.084 97.5429C174.706 97.8625 174.453 98.3058 174.369 98.7948Z" fill="#263238"/>
<path d="M155.446 75.9694L154.889 64.0694C154.867 63.5994 154.674 63.1536 154.348 62.8163C154.021 62.4789 153.583 62.2733 153.116 62.2382C152.625 62.1998 152.138 62.3529 151.756 62.6657C151.374 62.9785 151.127 63.427 151.065 63.9182L149.566 75.8462C149.542 76.0575 149.564 76.2714 149.628 76.4739C149.692 76.6764 149.798 76.863 149.939 77.0215C150.08 77.1801 150.253 77.307 150.446 77.3939C150.639 77.4809 150.848 77.526 151.06 77.5262H153.947C154.147 77.5248 154.346 77.4832 154.53 77.4038C154.715 77.3245 154.882 77.2089 155.021 77.064C155.161 76.919 155.27 76.7476 155.343 76.5596C155.416 76.3717 155.451 76.1711 155.446 75.9694Z" fill="#E0E0E0"/>
<path d="M150.08 55.5017C150.268 54.9601 150.612 54.4869 151.069 54.1419C151.525 53.7968 152.073 53.5954 152.643 53.5632C153.213 53.5309 153.779 53.6692 154.271 53.9606C154.763 54.252 155.158 54.6834 155.406 55.2003C155.654 55.7171 155.743 56.2962 155.664 56.8643C155.584 57.4324 155.338 57.964 154.958 58.3918C154.578 58.8197 154.08 59.1246 153.527 59.2681C152.974 59.4115 152.391 59.387 151.852 59.1977C151.494 59.0719 151.164 58.8766 150.882 58.6228C150.599 58.369 150.369 58.0617 150.204 57.7185C150.04 57.3753 149.944 57.0029 149.923 56.6225C149.901 56.2421 149.955 55.8613 150.08 55.5017Z" fill="#E0E0E0"/>
<path d="M124.448 91.0057L117.548 85.1201C117.274 84.8899 116.927 84.7675 116.57 84.7758C116.213 84.784 115.872 84.9223 115.609 85.1649C115.333 85.4207 115.165 85.7734 115.142 86.1499C115.118 86.5263 115.239 86.8975 115.48 87.1865L121.321 94.2313C121.426 94.3564 121.556 94.458 121.702 94.5292C121.849 94.6004 122.009 94.6397 122.171 94.6444C122.334 94.6492 122.496 94.6193 122.646 94.5568C122.796 94.4943 122.932 94.4005 123.043 94.2817L124.543 92.6633C124.648 92.5498 124.73 92.4161 124.782 92.2701C124.834 92.1242 124.857 91.969 124.848 91.8141C124.839 91.6592 124.799 91.5076 124.73 91.3687C124.662 91.2297 124.566 91.1062 124.448 91.0057Z" fill="#F5F5F5"/>
<path d="M110.291 83.3713C110.081 82.9796 109.991 82.5337 110.034 82.0906C110.077 81.6474 110.25 81.2272 110.531 80.8833C110.813 80.5395 111.19 80.2878 111.614 80.1603C112.039 80.0327 112.491 80.0352 112.915 80.1674C113.338 80.2995 113.712 80.5554 113.99 80.9023C114.267 81.2491 114.436 81.6713 114.474 82.1149C114.512 82.5584 114.417 83.0033 114.202 83.3926C113.988 83.782 113.662 84.0982 113.268 84.3009C112.749 84.5673 112.147 84.6192 111.591 84.4454C111.035 84.2717 110.568 83.8862 110.291 83.3713Z" fill="#F5F5F5"/>
<path d="M118.595 63.3291L129.185 81.3835C129.603 82.0974 130.267 82.6327 131.052 82.8885C131.836 83.1444 132.687 83.103 133.443 82.7723C134.238 82.4245 134.87 81.7832 135.208 80.9807C135.546 80.1783 135.565 79.276 135.26 78.4603L127.842 58.6587C127.709 58.3061 127.503 57.9858 127.237 57.7191C126.972 57.4523 126.654 57.2451 126.303 57.1112C125.952 56.9773 125.577 56.9197 125.202 56.9423C124.828 56.9648 124.462 57.0669 124.13 57.2419L119.632 59.6163C119.315 59.7855 119.036 60.0175 118.811 60.2983C118.586 60.5791 118.42 60.9028 118.323 61.2498C118.226 61.5969 118.2 61.9601 118.247 62.3175C118.294 62.6749 118.412 63.019 118.595 63.3291Z" fill="#E0E0E0"/>
<path d="M143.687 90.7523C143.837 91.7513 143.689 92.7725 143.261 93.6868C142.833 94.601 142.145 95.3672 141.283 95.8885C140.422 96.4097 139.426 96.6625 138.422 96.615C137.418 96.5675 136.45 96.2217 135.641 95.6215C134.832 95.0212 134.219 94.1934 133.878 93.2428C133.538 92.2922 133.486 91.2615 133.728 90.2811C133.971 89.3006 134.498 88.4145 135.241 87.7349C135.985 87.0552 136.913 86.6124 137.908 86.4627C139.24 86.262 140.597 86.6011 141.681 87.4055C142.765 88.2098 143.486 89.4136 143.687 90.7523Z" fill="#E0E0E0"/>
<path d="M333.715 261.312C333.715 260.259 333.665 166.846 333.593 24.337L333.715 24.4602L75.7981 24.4826L75.943 24.337C75.943 110.667 75.943 191.844 75.943 261.312L75.8204 261.183L333.738 261.312L75.7981 261.441H75.6699V261.312C75.6699 191.872 75.6699 110.672 75.6699 24.337V24.1914H75.8371H333.732H333.843V24.3146C333.765 166.846 333.715 260.259 333.715 261.312Z" fill="#263238"/>
<path d="M82.9647 34.2544C84.1436 34.2544 85.0993 33.2942 85.0993 32.1096C85.0993 30.9251 84.1436 29.9648 82.9647 29.9648C81.7858 29.9648 80.8301 30.9251 80.8301 32.1096C80.8301 33.2942 81.7858 34.2544 82.9647 34.2544Z" fill="white"/>
<path d="M90.3006 34.2544C91.4795 34.2544 92.4352 33.2942 92.4352 32.1096C92.4352 30.9251 91.4795 29.9648 90.3006 29.9648C89.1217 29.9648 88.166 30.9251 88.166 32.1096C88.166 33.2942 89.1217 34.2544 90.3006 34.2544Z" fill="white"/>
<path d="M97.6346 34.2544C98.8135 34.2544 99.7692 33.2942 99.7692 32.1096C99.7692 30.9251 98.8135 29.9648 97.6346 29.9648C96.4557 29.9648 95.5 30.9251 95.5 32.1096C95.5 33.2942 96.4557 34.2544 97.6346 34.2544Z" fill="white"/>
<path d="M234.95 76.7204C233.143 76.2642 231.396 75.597 229.744 74.7324C230.662 74.9076 231.556 75.1894 232.408 75.5724C233.297 75.8537 234.15 76.239 234.95 76.7204Z" fill="#455A64"/>
<path d="M227.821 87.9984C227.264 87.9368 225.759 88.6871 224.505 90.1823L224.444 90.2496C223.558 91.252 223.006 88.1719 222.95 87.0351C222.935 86.8586 222.881 86.6878 222.791 86.5353C222.701 86.3828 222.578 86.2525 222.432 86.1541C222.285 86.0557 222.118 85.9917 221.944 85.9668C221.769 85.9419 221.591 85.9568 221.423 86.0103L217.522 87.5112L216.407 87.4719C216.136 87.5448 215.902 87.7179 215.752 87.9567C215.602 88.1956 215.547 88.4824 215.599 88.76L216.981 94.8584L216.909 96.4935L224.377 98.0503L224.778 93.9735C224.923 93.5087 225.113 92.96 225.336 92.3384C225.56 91.7767 225.879 91.2578 226.278 90.8039C226.715 90.2877 227.204 89.8186 227.738 89.4039L227.866 89.3312C227.953 89.2891 228.031 89.2301 228.094 89.1576C228.191 89.0792 228.263 88.9752 228.303 88.8574C228.343 88.7396 228.349 88.6128 228.321 88.4917C228.292 88.3705 228.23 88.2599 228.142 88.1727C228.054 88.0854 227.942 88.025 227.821 87.9984Z" fill="#FFBE9D"/>
<path d="M226.183 70.8061C226.183 70.8061 221.725 70.2461 215.037 64.8925C208.349 59.5389 204.709 51.9229 203.963 52.0125C203.216 52.1021 199.783 50.8925 194.817 65.1501C189.851 79.4077 192.587 82.3309 193.847 82.1909C195.107 82.0509 203.322 78.8813 208.639 78.9877C213.956 79.0941 221 81.2277 221 81.2277L226.183 70.8061Z" fill="white"/>
<path d="M236.159 77.3689L234.933 80.3537L234.376 81.6921C234.014 82.576 233.328 83.2867 232.46 83.6774C231.592 84.0682 230.608 84.1092 229.711 83.7921L220.041 81.4009L224.321 68.3809L234.142 72.5025C235.05 72.8806 235.772 73.6049 236.151 74.517C236.529 75.4291 236.532 76.4545 236.159 77.3689Z" fill="#263238"/>
<path d="M232.347 81.7605L229.109 87.5285L227.632 87.0525L217.527 94.6405L215.014 89.1525C215.014 89.1525 220.894 86.9125 222.053 84.8685C223.212 82.8245 221.991 82.3261 221.991 82.3261L224.834 79.3301L232.347 81.7605Z" fill="#263238"/>
<path d="M195.33 65.3679C192.699 73.0791 191.93 79.7991 193.619 80.3815C195.307 80.9639 198.802 75.1791 201.421 67.4679C204.041 59.7567 204.821 53.0367 203.132 52.4543C201.444 51.8719 197.96 57.6791 195.33 65.3679Z" fill="#263238"/>
<path d="M237.346 81.4062L234.732 80.8462L236.025 77.6934L238.037 78.7014L237.346 81.4062Z" fill="#455A64"/>
<path d="M234.343 78.5508C234.31 78.6404 233 78.2652 231.412 77.7164C230.431 77.4366 229.484 77.0517 228.586 76.5684C229.589 76.7445 230.571 77.0242 231.517 77.4028C232.497 77.6852 233.444 78.07 234.343 78.5508Z" fill="#455A64"/>
<path d="M233.524 80.5228C233.524 80.5676 233.212 80.5228 232.716 80.422L231.846 80.2204C231.523 80.1364 231.183 80.002 230.821 79.8788C229.929 79.6178 229.074 79.2413 228.279 78.7588C228.313 78.6692 229.494 79.0668 230.932 79.5764C231.289 79.7052 231.623 79.8452 231.941 79.946C232.259 80.0468 232.537 80.1252 232.771 80.2092C233.251 80.3548 233.524 80.478 233.524 80.5228Z" fill="#455A64"/>
<path d="M201.951 63.0777C201.951 63.0777 197.933 61.0729 196.339 66.4377C194.745 71.8025 198.819 72.2393 198.819 72.2393C200.29 69.3502 201.345 66.2654 201.951 63.0777Z" fill="#FAFAFA"/>
<path d="M205.412 56.5605C205.421 56.8957 205.402 57.2309 205.356 57.5629C205.295 58.2013 205.211 59.1309 205.072 60.2789C204.966 60.8389 204.843 61.4661 204.721 62.1325C204.654 62.4629 204.587 62.8101 204.52 63.1629C204.481 63.3421 204.447 63.5213 204.414 63.7229C204.381 63.9245 204.314 64.0869 204.264 64.2829L203.617 66.5845C203.561 66.7861 203.5 66.9877 203.444 67.1893C203.389 67.3909 203.299 67.5869 203.232 67.7941L202.775 69.0149C202.625 69.4237 202.469 69.8325 202.318 70.2357C202.24 70.4373 202.179 70.639 202.09 70.8294L201.822 71.3894L200.803 73.5566C200.725 73.7246 200.646 73.8981 200.557 74.0605C200.468 74.2229 200.379 74.3853 200.284 74.5421L199.76 75.455C199.42 76.015 199.108 76.5749 198.818 77.0845C198.172 78.0365 197.631 78.7925 197.258 79.3245C197.077 79.6039 196.874 79.868 196.65 80.1141C196.792 79.8122 196.96 79.5236 197.152 79.2518L198.623 76.9613L199.526 75.3205L200.033 74.4077L200.295 73.9318C200.385 73.7694 200.457 73.5957 200.535 73.4221C200.853 72.7333 201.187 72.0109 201.527 71.2661L201.789 70.7061C201.878 70.5157 201.939 70.3085 202.018 70.1125C202.168 69.7149 202.318 69.3061 202.469 68.8973L202.926 67.6877C202.993 67.4861 203.082 67.2901 203.138 67.0885C203.193 66.8869 203.255 66.6853 203.311 66.4893L203.974 64.2045C204.024 64.0253 204.085 63.8461 204.124 63.6445C204.163 63.4429 204.202 63.2861 204.236 63.0845C204.314 62.7373 204.381 62.3957 204.453 62.0653C204.592 61.4045 204.726 60.7941 204.843 60.2285C205.005 59.1085 205.139 58.1901 205.228 57.5349C205.265 57.2059 205.326 56.8802 205.412 56.5605Z" fill="#263238"/>
<path d="M220.187 84.7734C219.984 84.8506 219.817 85.0018 219.72 85.1969C219.623 85.392 219.603 85.6166 219.663 85.8262C219.891 86.6718 220.27 87.9934 220.566 88.8054C220.648 89.0698 220.778 89.3167 220.95 89.5334C221.035 89.6383 221.147 89.7174 221.274 89.7619C221.401 89.8064 221.538 89.8145 221.669 89.7854C221.802 89.7285 221.918 89.6365 222.003 89.5192C222.088 89.4019 222.141 89.2636 222.154 89.119C222.176 88.824 222.142 88.5275 222.054 88.2454C221.864 87.4614 221.497 86.2798 221.218 85.3166C221.19 85.2098 221.141 85.1099 221.073 85.0231C221.005 84.9362 220.92 84.8644 220.823 84.8119C220.727 84.7594 220.62 84.7274 220.511 84.7178C220.401 84.7083 220.291 84.7215 220.187 84.7566V84.7734Z" fill="#FFBE9D"/>
<path d="M218.938 86.2399C218.734 86.3161 218.566 86.4669 218.468 86.662C218.37 86.8572 218.348 87.0825 218.408 87.2927C218.643 88.1383 219.022 89.4599 219.317 90.2663C219.396 90.5328 219.524 90.7818 219.696 90.9999C219.781 91.1048 219.893 91.1839 220.02 91.2285C220.147 91.273 220.284 91.2811 220.415 91.2519C220.549 91.1971 220.666 91.1057 220.752 90.988C220.837 90.8703 220.889 90.7309 220.9 90.5855C220.926 90.2909 220.894 89.994 220.805 89.7119C220.61 88.9279 220.248 87.7407 219.969 86.7775C219.941 86.6707 219.892 86.5708 219.824 86.484C219.756 86.3972 219.671 86.3253 219.574 86.2728C219.478 86.2203 219.371 86.1883 219.262 86.1788C219.152 86.1693 219.042 86.1825 218.938 86.2175V86.2399Z" fill="#FFBE9D"/>
<path d="M217.768 87.0956C217.586 87.156 217.435 87.2851 217.347 87.4555C217.259 87.6259 217.24 87.8242 217.294 88.0084C217.506 88.7364 217.852 89.89 218.119 90.59C218.195 90.8187 218.312 91.0313 218.465 91.2172C218.543 91.31 218.645 91.3798 218.76 91.4192C218.875 91.4586 218.998 91.4662 219.117 91.4412C219.234 91.3972 219.337 91.3217 219.415 91.223C219.492 91.1243 219.542 91.0061 219.557 90.8812C219.574 90.6258 219.544 90.3695 219.468 90.1252C219.29 89.442 218.972 88.4452 218.699 87.5828C218.636 87.3971 218.504 87.2437 218.33 87.1556C218.155 87.0675 217.954 87.052 217.768 87.1124V87.0956Z" fill="#FFBE9D"/>
<path d="M216.291 87.3206C216.11 87.3811 215.958 87.51 215.869 87.6801C215.78 87.8503 215.759 88.0486 215.812 88.2334C216.029 88.967 216.369 90.1262 216.648 90.8262C216.719 91.0603 216.837 91.2774 216.994 91.4646C217.069 91.5721 217.176 91.6526 217.3 91.6944C217.424 91.7362 217.558 91.7372 217.682 91.6972C217.807 91.6572 217.915 91.5783 217.992 91.472C218.068 91.3657 218.109 91.2375 218.108 91.1062C218.127 90.8504 218.094 90.5935 218.014 90.3502C217.835 89.6614 217.518 88.631 217.244 87.791C217.214 87.698 217.166 87.612 217.102 87.5379C217.039 87.4637 216.961 87.403 216.874 87.3593C216.787 87.3155 216.692 87.2896 216.595 87.283C216.498 87.2763 216.4 87.2891 216.308 87.3206H216.291Z" fill="#FFBE9D"/>
<path d="M220.867 89.5597C220.559 89.1028 220.335 88.5946 220.203 88.0589C219.981 87.555 219.854 87.0137 219.83 86.4629C220.141 86.9178 220.366 87.4266 220.493 87.9637C220.719 88.4665 220.846 89.0085 220.867 89.5597Z" fill="#EB996E"/>
<path d="M219.529 90.7189C219.203 90.1863 218.965 89.6037 218.826 88.9941C218.59 88.4163 218.451 87.8032 218.414 87.1797C218.74 87.7123 218.977 88.2949 219.116 88.9045C219.355 89.4815 219.495 90.095 219.529 90.7189Z" fill="#EB996E"/>
<path d="M218.214 90.8084C217.868 90.3686 217.621 89.8585 217.49 89.3132C217.262 88.8014 217.153 88.244 217.172 87.6836C217.445 88.1637 217.65 88.6803 217.78 89.218C218.004 89.723 218.15 90.2592 218.214 90.8084Z" fill="#EB996E"/>
<path d="M264.684 70.4419C262.56 66.8355 258.726 64.4947 254.702 63.3803C253.03 62.9155 251.859 63.0443 250.115 63.2403C248.377 63.3879 246.746 64.1475 245.511 65.3851C243.998 66.8389 242.874 68.6535 242.245 70.6603C241.629 72.722 241.203 74.8366 240.975 76.9771C240.749 79.1306 241.119 81.3048 242.045 83.2603L247.272 85.0187C250.226 85.5787 253.219 86.1387 256.19 85.8979C259.16 85.6571 262.226 84.5315 264.16 82.2187C266.868 79.0155 266.807 74.0483 264.684 70.4419Z" fill="#263238"/>
<path d="M267.521 86.2395C267.562 85.6196 267.462 84.9985 267.227 84.4238C266.992 83.8491 266.629 83.3362 266.167 82.9243C265.691 82.5253 265.102 82.2886 264.484 82.2483C263.865 82.2081 263.251 82.3663 262.728 82.7003L261.73 83.5795C261.03 83.7845 260.41 84.2036 259.958 84.7787C259.505 85.3537 259.242 86.0561 259.205 86.7883C259.195 87.5221 259.392 88.2438 259.775 88.8687C260.158 89.4936 260.711 89.9957 261.368 90.3163C262.033 90.619 262.764 90.7451 263.491 90.6823C264.218 90.6196 264.917 90.3701 265.52 89.9579C266.115 89.5336 266.605 88.9776 266.952 88.3328C267.298 87.6881 267.493 86.9719 267.521 86.2395Z" fill="#263238"/>
<path d="M265.894 89.7339C266.15 89.4476 266.308 89.0865 266.345 88.7035C266.311 87.7677 266.014 86.8608 265.487 86.0883C264.993 85.2868 264.352 84.5873 263.598 84.0275C263.04 83.5907 262.605 83.4003 262.628 83.3555C263.016 83.4554 263.382 83.6304 263.703 83.8707C264.519 84.4045 265.207 85.1142 265.715 85.9483C265.996 86.406 266.219 86.8969 266.379 87.4099C266.529 87.8309 266.583 88.281 266.535 88.7259C266.496 89.0303 266.366 89.3155 266.161 89.5435C266.016 89.7003 265.905 89.7451 265.894 89.7339Z" fill="#455A64"/>
<path d="M263.062 90.9327C263.34 89.7523 263.441 88.5368 263.363 87.3263C263.195 86.1274 262.843 84.9618 262.32 83.8711C262.574 84.1319 262.775 84.4401 262.911 84.7783C263.687 86.3745 263.884 88.1925 263.468 89.9191C263.396 90.2792 263.258 90.6229 263.062 90.9327Z" fill="#455A64"/>
<path d="M245.501 96.2807C245.824 94.3935 246.543 90.3447 246.543 90.3559C246.543 90.3671 242.235 89.1967 241.884 83.3727C241.705 80.4775 242.302 75.8127 242.909 72.0103C243.466 68.5887 247.067 64.3663 251.269 64.9991L253.17 65.0663L259.897 69.0255C260.396 69.1262 260.839 69.4133 261.135 69.829C261.432 70.2447 261.561 70.758 261.496 71.2655L257.812 95.7319L247.385 116.233L245.027 101.673L245.501 96.2807Z" fill="#FFBE9D"/>
<path d="M244.849 76.1868C244.83 76.3778 244.886 76.5687 245.005 76.7192C245.123 76.8697 245.295 76.9679 245.485 76.9932C245.577 77.01 245.672 77.008 245.763 76.9873C245.855 76.9667 245.942 76.9278 246.018 76.873C246.094 76.8182 246.159 76.7486 246.208 76.6682C246.257 76.5878 246.29 76.4984 246.304 76.4052C246.323 76.2135 246.268 76.0219 246.149 75.8705C246.031 75.7191 245.858 75.6197 245.669 75.5932C245.576 75.5764 245.481 75.5786 245.389 75.5996C245.297 75.6206 245.21 75.6599 245.134 75.7153C245.057 75.7707 244.993 75.841 244.944 75.922C244.895 76.003 244.863 76.093 244.849 76.1868Z" fill="#263238"/>
<path d="M243.979 74.3343C244.062 74.4407 244.659 74.0823 245.445 74.1607C246.23 74.2391 246.771 74.6927 246.866 74.6031C246.961 74.5135 246.838 74.3791 246.604 74.1719C246.289 73.9036 245.9 73.7394 245.489 73.7015C245.08 73.6595 244.668 73.7497 244.313 73.9591C244.04 74.1215 243.94 74.2895 243.979 74.3343Z" fill="#263238"/>
<path d="M248.014 81.0378C247.611 80.8657 247.188 80.7453 246.755 80.6794C246.554 80.6402 246.37 80.5842 246.348 80.4386C246.355 80.2365 246.423 80.0414 246.543 79.8786C246.777 79.4082 247.022 78.9098 247.284 78.3946C248.321 76.2834 249.095 74.5362 249.006 74.4746C248.232 75.6692 247.554 76.9239 246.977 78.2266L246.258 79.7162C246.107 79.9476 246.042 80.2253 246.075 80.5002C246.098 80.5749 246.137 80.6433 246.19 80.7005C246.243 80.7577 246.309 80.8022 246.381 80.8306C246.489 80.8702 246.601 80.8965 246.716 80.909C247.141 81.0082 247.577 81.0515 248.014 81.0378Z" fill="#263238"/>
<path d="M246.542 90.3551C249.229 90.6538 251.945 90.1982 254.39 89.0391C254.39 89.0391 251.971 92.8135 246.303 91.7215L246.542 90.3551Z" fill="#EB996E"/>
<path d="M244.597 71.5405C244.72 71.7365 245.283 71.6021 245.935 71.6581C246.587 71.7141 247.127 71.8933 247.272 71.7197C247.339 71.6357 247.272 71.4453 247.044 71.2493C246.738 71.015 246.37 70.8766 245.986 70.8517C245.603 70.8268 245.22 70.9164 244.887 71.1093C244.67 71.2717 244.547 71.4509 244.597 71.5405Z" fill="#263238"/>
<path d="M253.86 76.7638C253.836 76.9551 253.739 77.1295 253.589 77.2498C253.439 77.3701 253.249 77.4268 253.058 77.4078C252.964 77.4021 252.873 77.3778 252.789 77.3364C252.704 77.2949 252.629 77.2371 252.568 77.1662C252.506 77.0954 252.459 77.0129 252.429 76.9237C252.399 76.8344 252.388 76.7401 252.394 76.6462C252.417 76.4543 252.514 76.279 252.664 76.1584C252.814 76.0378 253.006 75.9817 253.197 76.0022C253.291 76.0079 253.382 76.0321 253.466 76.0736C253.55 76.1151 253.625 76.1729 253.687 76.2438C253.749 76.3146 253.796 76.397 253.826 76.4863C253.855 76.5756 253.867 76.6699 253.86 76.7638Z" fill="#263238"/>
<path d="M254.412 74.9956C254.306 75.0796 253.81 74.5924 253.024 74.486C252.238 74.3796 251.614 74.6988 251.542 74.5924C251.469 74.486 251.62 74.3852 251.893 74.234C252.265 74.0431 252.688 73.9727 253.102 74.0324C253.51 74.0876 253.89 74.2697 254.189 74.5532C254.401 74.7716 254.462 74.9564 254.412 74.9956Z" fill="#263238"/>
<path d="M254.296 72.2963C254.134 72.4531 253.616 72.1955 252.969 72.1003C252.323 72.0051 251.749 72.0555 251.648 71.8539C251.604 71.7531 251.715 71.5851 251.977 71.4507C252.324 71.2843 252.714 71.2333 253.092 71.3051C253.473 71.361 253.828 71.5353 254.106 71.8035C254.312 72.0219 254.368 72.2403 254.296 72.2963Z" fill="#263238"/>
<path d="M260.275 79.2852L259.161 80.1532C255.544 75.4324 248.817 63.9692 249.184 64.6468C251.218 64.221 253.325 64.3114 255.315 64.91C258.38 65.9348 264.115 68.4324 263.458 72.1508C262.8 75.8692 260.275 79.2852 260.275 79.2852Z" fill="#263238"/>
<path d="M262.638 82.9415C262.655 82.6375 262.688 82.3346 262.738 82.0343C262.825 81.214 262.84 80.3876 262.783 79.5647C262.555 76.8443 261.671 74.2206 260.208 71.9207C258.72 69.6385 256.895 67.5973 254.796 65.8671C253.994 65.1951 253.33 64.6743 252.862 64.3159C252.616 64.1432 252.379 63.9562 252.154 63.7559C252.154 63.7559 252.232 63.7559 252.361 63.8679C252.489 63.9799 252.684 64.0751 252.918 64.2431C253.403 64.5735 254.088 65.0719 254.908 65.7327C257.068 67.4335 258.934 69.4807 260.431 71.7919C261.919 74.1246 262.791 76.7995 262.967 79.5647C263.01 80.3994 262.967 81.2364 262.838 82.0623C262.799 82.3535 262.732 82.5719 262.705 82.7287C262.694 82.8027 262.671 82.8745 262.638 82.9415Z" fill="#455A64"/>
<path d="M254.625 63.8848C254.7 63.9138 254.771 63.9513 254.837 63.9968C254.976 64.0752 255.171 64.1928 255.422 64.3552C255.918 64.68 256.631 65.1672 257.473 65.828C258.454 66.6041 259.39 67.4361 260.276 68.32C261.402 69.3688 262.396 70.5517 263.236 71.8424C263.663 72.5254 263.995 73.264 264.222 74.0376C264.429 74.7661 264.534 75.52 264.534 76.2776C264.528 77.5394 264.34 78.7937 263.977 80.0016C263.671 81.032 263.358 81.8384 263.135 82.3928C263.024 82.6672 262.929 82.88 262.868 83.0256C262.837 83.0996 262.8 83.1708 262.757 83.2384C262.835 82.9246 262.937 82.6175 263.063 82.32C263.253 81.76 263.537 80.9424 263.815 79.9176C264.154 78.7245 264.327 77.4902 264.328 76.2496C264.316 75.5219 264.209 74.799 264.011 74.0992C263.786 73.3496 263.461 72.6338 263.046 71.9712C262.215 70.7016 261.243 69.5311 260.148 68.4824C259.262 67.6031 258.332 66.7695 257.362 65.9848C256.542 65.3128 255.846 64.8032 255.366 64.456C255.106 64.2839 254.858 64.093 254.625 63.8848Z" fill="#455A64"/>
<path d="M260.359 79.3902C260.198 79.2179 260.055 79.0304 259.93 78.8302L258.815 77.2286C257.907 75.8734 256.664 73.9862 255.31 71.8918C253.955 69.7974 252.735 67.899 251.865 66.5102L250.846 64.8638C250.714 64.6662 250.598 64.4583 250.5 64.2422C250.662 64.4133 250.806 64.601 250.929 64.8022L252.044 66.4038C252.952 67.759 254.195 69.6462 255.555 71.7406C256.915 73.835 258.13 75.739 258.999 77.1222L260.019 78.7742C260.153 78.9673 260.267 79.1737 260.359 79.3902Z" fill="#455A64"/>
<path d="M259.211 80.7964C259.255 80.3708 259.846 79.4076 260.27 79.3852C261.384 79.318 263.424 79.6036 263.162 82.4708C262.811 86.3908 258.977 85.2204 258.977 85.1084C258.977 84.9964 259.066 82.2692 259.211 80.7964Z" fill="#FFBE9D"/>
<path d="M260.052 83.6354C260.052 83.6354 260.113 83.6914 260.225 83.753C260.302 83.7955 260.386 83.8224 260.473 83.832C260.56 83.8416 260.648 83.8338 260.732 83.809C260.998 83.6731 261.224 83.4679 261.385 83.2148C261.545 82.9617 261.636 82.6699 261.646 82.3698C261.684 82.0338 261.648 81.6935 261.54 81.373C261.514 81.2489 261.459 81.133 261.378 81.0354C261.297 80.9378 261.194 80.8614 261.078 80.813C261.001 80.787 260.918 80.7878 260.842 80.8152C260.766 80.8427 260.702 80.8952 260.66 80.9642C260.598 81.0706 260.615 81.149 260.598 81.1546C260.582 81.1602 260.52 81.0818 260.565 80.925C260.593 80.8302 260.655 80.7488 260.738 80.6954C260.794 80.659 260.857 80.6342 260.923 80.6227C260.989 80.6111 261.057 80.613 261.122 80.6282C261.28 80.6732 261.424 80.7589 261.54 80.8767C261.655 80.9945 261.738 81.1405 261.78 81.3002C261.919 81.656 261.965 82.0415 261.914 82.4202C261.819 83.2098 261.356 83.9098 260.799 84.0218C260.692 84.0435 260.581 84.0407 260.475 84.0136C260.368 83.9865 260.27 83.9357 260.186 83.865C260.052 83.7306 260.041 83.641 260.052 83.6354Z" fill="#EB996E"/>
<path d="M268.363 225.725C268.285 226.341 266.774 243.561 266.774 243.561H258.922L257.545 225.797L268.363 225.725Z" fill="#FFBE9D"/>
<path d="M258.899 240.996C258.899 240.996 264.417 244.916 267.081 241.528L267.783 243.174L270.915 254.934C271.023 255.303 270.993 255.698 270.83 256.046C270.668 256.393 270.385 256.669 270.034 256.822C269.765 256.929 269.472 256.957 269.187 256.903C268.903 256.848 268.64 256.713 268.429 256.514C266.161 254.341 257.84 246.327 257.94 245.241L257.968 242.357C257.973 242.064 258.064 241.779 258.229 241.538C258.395 241.297 258.628 241.11 258.899 241.002V240.996Z" fill="white"/>
<path d="M269.75 256.894L257.934 244.232V244.86C257.92 245.119 257.963 245.378 258.059 245.619C258.156 245.86 258.303 246.076 258.492 246.254C259.45 247.548 262.097 250.448 268.379 256.508C268.558 256.681 268.778 256.807 269.019 256.875C269.259 256.942 269.512 256.949 269.755 256.894H269.75Z" fill="#263238"/>
<path d="M259.667 242.351C259.85 242.485 259.977 242.682 260.024 242.904C260.071 243.126 260.036 243.358 259.924 243.555C259.797 243.744 259.604 243.877 259.383 243.927C259.163 243.977 258.931 243.94 258.737 243.824C258.544 243.681 258.41 243.472 258.362 243.236C258.313 243 258.354 242.755 258.475 242.547C258.626 242.365 258.841 242.248 259.076 242.222C259.311 242.196 259.547 242.263 259.734 242.407" fill="white"/>
<path d="M266.357 250.409C266.71 249.942 267.149 249.546 267.65 249.244C268.182 249.032 268.749 248.918 269.322 248.908C269.322 248.875 269.149 248.757 268.804 248.712C268.347 248.66 267.886 248.744 267.477 248.953C267.063 249.154 266.718 249.473 266.485 249.872C266.34 250.174 266.318 250.398 266.357 250.409Z" fill="#263238"/>
<path d="M267.415 252.398C267.838 252.154 268.276 251.937 268.725 251.748C269.202 251.657 269.684 251.593 270.169 251.558C270.213 251.479 269.5 251.171 268.63 251.44C267.761 251.709 267.337 252.358 267.415 252.398Z" fill="#263238"/>
<path d="M264.383 247.862C265.005 247.441 265.657 247.067 266.333 246.742C267.051 246.51 267.785 246.336 268.529 246.221C268.529 246.137 267.448 245.935 266.211 246.439C265.453 246.68 264.804 247.184 264.383 247.862Z" fill="#263238"/>
<path d="M264.115 244.284C264.16 244.373 264.974 244.026 266.038 243.987C267.103 243.948 267.944 244.194 267.978 244.104C267.378 243.78 266.702 243.625 266.022 243.656C265.341 243.688 264.682 243.905 264.115 244.284Z" fill="#263238"/>
<path d="M266.645 243.952C266.656 243.761 266.628 243.571 266.562 243.392C266.415 242.896 266.172 242.433 265.848 242.031C265.637 241.713 265.328 241.475 264.968 241.353C264.846 241.324 264.718 241.333 264.601 241.379C264.485 241.425 264.385 241.506 264.316 241.611C264.196 241.826 264.159 242.076 264.21 242.317C264.335 242.805 264.627 243.234 265.034 243.528C265.441 243.823 265.938 243.965 266.439 243.929C266.93 243.887 267.397 243.7 267.782 243.391C268.167 243.082 268.452 242.665 268.601 242.193C268.638 242.074 268.649 241.948 268.632 241.825C268.616 241.701 268.573 241.582 268.507 241.477C268.434 241.372 268.328 241.296 268.207 241.261C268.085 241.225 267.955 241.232 267.838 241.281C267.495 241.427 267.195 241.661 266.968 241.958C266.635 242.35 266.371 242.797 266.188 243.28C266.107 243.455 266.063 243.646 266.06 243.84C266.334 243.218 266.699 242.641 267.141 242.126C267.349 241.88 267.613 241.688 267.91 241.566C267.975 241.541 268.046 241.538 268.112 241.558C268.178 241.577 268.237 241.617 268.278 241.673C268.318 241.745 268.342 241.825 268.348 241.907C268.354 241.989 268.341 242.072 268.312 242.149C268.164 242.547 267.906 242.895 267.568 243.152C267.231 243.409 266.828 243.564 266.406 243.599C265.984 243.624 265.567 243.504 265.222 243.26C264.877 243.016 264.624 242.662 264.505 242.255C264.465 242.089 264.484 241.915 264.561 241.762C264.597 241.702 264.651 241.655 264.715 241.628C264.779 241.601 264.85 241.595 264.917 241.611C265.219 241.717 265.481 241.912 265.67 242.171C266.097 242.702 266.427 243.305 266.645 243.952Z" fill="#263238"/>
<path d="M225.242 220.119L226.597 242.105L236.105 242.038L237.71 219.195L225.242 220.119Z" fill="#FFBE9D"/>
<path d="M226.423 239.449V240.088C226.423 240.088 215.688 244.372 215.555 246.399H236.845L236.544 239.281C234.968 240.038 233.248 240.445 231.502 240.474C229.755 240.503 228.023 240.153 226.423 239.449Z" fill="white"/>
<path d="M234.392 241.55C234.597 241.612 234.772 241.748 234.883 241.932C234.994 242.116 235.034 242.335 234.994 242.546C234.94 242.754 234.809 242.933 234.628 243.047C234.446 243.16 234.229 243.199 234.019 243.157C233.802 243.09 233.617 242.945 233.499 242.75C233.382 242.555 233.341 242.322 233.384 242.098C233.463 241.887 233.62 241.715 233.823 241.618C234.025 241.521 234.258 241.507 234.471 241.578" fill="white"/>
<path d="M236.867 246.399L236.794 244.691L216.418 245.341C216.418 245.341 215.471 245.755 215.577 246.422L236.867 246.399Z" fill="#263238"/>
<path d="M226.34 240.151C226.34 240.252 226.864 240.296 227.377 240.632C227.89 240.968 228.163 241.411 228.258 241.366C228.352 241.321 228.196 240.722 227.572 240.33C226.948 239.938 226.318 240.05 226.34 240.151Z" fill="#263238"/>
<path d="M224.109 241.08C224.109 241.181 224.533 241.355 224.89 241.797C225.246 242.239 225.347 242.704 225.447 242.704C225.547 242.704 225.62 242.105 225.168 241.584C224.717 241.063 224.109 240.979 224.109 241.08Z" fill="#263238"/>
<path d="M222.844 243.763C222.939 243.763 223.084 243.264 222.844 242.693C222.604 242.122 222.086 241.892 222.041 241.982C221.997 242.071 222.303 242.374 222.515 242.844C222.727 243.314 222.738 243.757 222.844 243.763Z" fill="#263238"/>
<path d="M237.71 152.079C237.425 152.902 226.15 191.279 226.15 191.279L224.211 236.824L238.245 237.636L243.261 192.164L256.079 163.721L250.445 140.582H238.986L237.71 152.079Z" fill="#263238"/>
<path d="M247.697 140.594C247.898 141.154 255.093 167.194 255.093 167.194L256.091 206.025V238.152H268.882L274.839 167.301C274.839 167.301 275.893 154.421 274.093 150.092C272.292 145.763 265.002 138.158 265.002 138.158L247.697 140.594Z" fill="#263238"/>
<path d="M248.729 143.26C248.848 143.554 248.945 143.858 249.018 144.167C249.202 144.8 249.447 145.64 249.737 146.653C250.384 148.798 251.242 151.693 252.195 154.846C253.148 157.999 253.912 161.006 254.358 163.129C254.592 164.204 254.742 165.077 254.831 165.682C254.895 165.994 254.93 166.311 254.937 166.629C254.842 166.326 254.77 166.017 254.72 165.705C254.597 165.105 254.413 164.237 254.163 163.179C253.666 161.045 252.864 158.139 251.933 154.93C251.002 151.721 250.122 148.826 249.559 146.709C249.275 145.651 249.057 144.794 248.924 144.195C248.832 143.889 248.766 143.577 248.729 143.26Z" fill="#455A64"/>
<path d="M253.142 143.259C252.825 143.361 252.545 143.556 252.339 143.819C252.24 143.961 252.178 144.125 252.158 144.297C252.139 144.47 252.163 144.644 252.228 144.804C252.305 144.998 252.435 145.167 252.602 145.29C252.77 145.414 252.968 145.488 253.175 145.504C253.383 145.507 253.588 145.452 253.766 145.344C253.945 145.236 254.089 145.08 254.184 144.894C254.265 144.742 254.308 144.571 254.308 144.398C254.308 144.225 254.265 144.055 254.184 143.903C254.006 143.616 253.746 143.389 253.437 143.253C253.437 143.253 253.549 143.225 253.733 143.287C253.992 143.383 254.212 143.565 254.357 143.802C254.475 143.979 254.545 144.183 254.559 144.396C254.574 144.608 254.533 144.82 254.44 145.012C254.333 145.254 254.155 145.459 253.93 145.598C253.705 145.738 253.443 145.806 253.179 145.794C252.915 145.782 252.66 145.69 252.449 145.531C252.238 145.371 252.079 145.151 251.994 144.9C251.92 144.7 251.9 144.485 251.934 144.275C251.968 144.065 252.056 143.867 252.189 143.701C252.357 143.478 252.594 143.319 252.863 143.248C253.03 143.22 253.142 143.242 253.142 143.259Z" fill="#455A64"/>
<path d="M264.495 161.963C264.503 162.028 264.503 162.094 264.495 162.159C264.495 162.304 264.495 162.489 264.495 162.719C264.495 163.245 264.495 163.984 264.495 164.925C264.495 166.846 264.495 169.618 264.434 173.045C264.334 179.9 264.027 189.358 263.626 199.808C263.225 210.257 262.89 219.721 262.734 226.57C262.656 229.997 262.606 232.769 262.578 234.684C262.578 235.625 262.578 236.364 262.545 236.891C262.545 237.126 262.545 237.313 262.545 237.451C262.57 237.455 262.592 237.469 262.607 237.488C262.623 237.508 262.63 237.534 262.628 237.559C262.626 237.584 262.614 237.607 262.596 237.624C262.577 237.642 262.553 237.651 262.528 237.651C262.503 237.651 262.479 237.642 262.46 237.624C262.442 237.607 262.43 237.584 262.428 237.559C262.426 237.534 262.433 237.508 262.449 237.488C262.464 237.469 262.487 237.455 262.511 237.451C262.511 237.305 262.511 237.115 262.511 236.891C262.511 236.364 262.511 235.625 262.511 234.684C262.511 232.764 262.511 229.992 262.573 226.564C262.679 219.71 262.98 210.246 263.381 199.796C263.782 189.347 264.116 179.888 264.273 173.04C264.351 169.612 264.406 166.84 264.429 164.925C264.429 163.984 264.456 163.245 264.462 162.719C264.462 162.478 264.462 162.293 264.462 162.159C264.465 162.092 264.476 162.026 264.495 161.963Z" fill="#455A64"/>
<path d="M244.76 157.287C244.745 157.354 244.725 157.42 244.698 157.483L244.481 158.043C244.275 158.564 243.985 159.303 243.617 160.25C242.854 162.176 241.756 164.937 240.396 168.342C239.036 171.746 237.487 175.857 236.004 180.482C234.311 185.469 233.125 190.616 232.465 195.843C232.17 198.643 232.041 201.376 231.874 204.014C231.707 206.651 231.596 209.205 231.462 211.635C231.211 216.49 230.988 220.864 230.799 224.549C230.609 228.234 230.408 231.196 230.241 233.246C230.158 234.259 230.096 235.049 230.052 235.609C230.024 235.866 230.007 236.068 229.99 236.219C229.986 236.291 229.976 236.362 229.963 236.432C229.955 236.361 229.955 236.29 229.963 236.219C229.963 236.068 229.963 235.861 229.99 235.603C230.024 235.043 230.068 234.254 230.13 233.24C230.247 231.185 230.403 228.2 230.576 224.538C230.748 220.875 230.955 216.479 231.178 211.624C231.306 209.194 231.434 206.64 231.573 203.997C231.713 201.354 231.863 198.615 232.158 195.815C232.831 190.572 234.036 185.412 235.753 180.415C237.252 175.784 238.852 171.702 240.212 168.286C241.572 164.87 242.731 162.126 243.517 160.227C243.907 159.286 244.214 158.547 244.431 158.038L244.676 157.478C244.697 157.411 244.725 157.347 244.76 157.287Z" fill="#455A64"/>
<path d="M264.055 94.752C264.055 94.752 271.662 96.18 273.334 97.58C275.006 98.98 290.244 118.95 290.561 122.982C290.879 127.014 289.023 128.492 287.97 129.45C286.916 130.407 268.703 142.8 268.703 142.8L263.102 133.465L278.841 124.018L271.244 110.964L264.055 94.752Z" fill="white"/>
<path d="M283.924 120.467C282.859 120.629 281.833 120.985 280.898 121.52C280.013 122.135 279.246 122.905 278.635 123.794C278.705 123.471 278.848 123.168 279.053 122.909C279.498 122.251 280.074 121.693 280.746 121.271C281.418 120.85 282.17 120.574 282.954 120.462C283.273 120.388 283.605 120.39 283.924 120.467Z" fill="white"/>
<path d="M245.617 95.7202L247.635 114.111L257.929 93.3906L264.566 100.167C264.566 100.167 268.641 124.387 268.702 124.56C268.763 124.734 265.915 138.415 265.915 138.415L247.049 142.083L241.292 140.61L240.384 119.067L239.982 102.569L245.617 95.7202Z" fill="white"/>
<path d="M243.172 96.5044L238.273 97.6244C237.618 97.7764 237.01 98.0858 236.5 98.526C232.32 102.121 223.28 109.726 223.28 109.726L224.952 96.23L216.247 95.418C216.247 95.418 213.638 112.431 213.906 116.905C214.224 122.102 218.861 123.379 225.61 120.584C229.781 118.902 233.819 116.903 237.687 114.604L243.172 96.5044Z" fill="white"/>
<path d="M270.491 111.037L269.594 127.165L270.496 130.301C270.496 130.301 278.946 146.329 280.339 156.941L269.883 158.621C269.883 158.621 267.03 144.929 265.023 138.141C263.017 131.354 257.081 128.498 255.075 121.521C253.867 117.534 253.437 113.351 253.81 109.201C253.81 108.775 257.929 93.3863 257.929 93.3863L258.664 90.1719L262.365 93.7055L271.867 96.8807L270.491 111.037Z" fill="white"/>
<g opacity="0.3">
<path d="M275.473 141.03C273.745 142.372 271.938 143.608 270.062 144.732C269.95 144.788 269.805 144.85 269.644 144.911C269.267 145.05 268.853 145.049 268.478 144.907C268.102 144.765 267.79 144.492 267.598 144.138C267.375 143.73 267.147 143.298 266.996 142.974C266.612 142.139 266.194 141.137 265.82 140.269L266.996 139.983L268.702 142.822L273.617 139.462L274.554 138.818L275.473 141.03Z" fill="black"/>
</g>
<path d="M245.706 93.9062L243.421 96.3086L237.943 98.2406C237.943 98.2406 236.605 114.481 237.33 117.941C238.032 121.268 239.37 125.311 239.481 130.088C239.592 134.865 234.164 160.109 234.164 160.109L240.729 162.613C240.729 162.613 244.073 133.386 243.421 127.013C242.769 120.641 244.464 107.794 244.464 107.794L245.706 93.9062Z" fill="white"/>
<path d="M258.136 124.88C258.048 124.8 257.968 124.712 257.897 124.617C257.684 124.346 257.497 124.055 257.339 123.749C256.791 122.602 256.5 121.348 256.487 120.075C256.466 118.201 256.596 116.328 256.877 114.475C257.181 112.205 257.645 109.96 258.264 107.755C259.316 103.965 260.812 100.315 262.723 96.8802L262.812 97.0426L260.488 96.9698H260.321L260.421 96.8354L261.948 94.7746L262.361 94.2146C262.405 94.15 262.457 94.0916 262.517 94.041C262.487 94.113 262.447 94.1808 262.4 94.2426L262.021 94.8026L260.561 96.9138L260.494 96.7794L262.818 96.8074H262.996L262.907 96.9642C261.051 100.405 259.582 104.044 258.526 107.811C257.913 110.001 257.444 112.229 257.122 114.481C256.838 116.315 256.689 118.169 256.676 120.025C256.674 121.273 256.929 122.509 257.423 123.654C257.638 124.075 257.876 124.485 258.136 124.88Z" fill="#263238"/>
<path d="M264.567 109.99C263.697 110.284 262.792 110.457 261.875 110.505C260.969 110.644 260.048 110.655 259.139 110.539C260.033 110.368 260.938 110.259 261.847 110.214C262.747 110.072 263.656 109.997 264.567 109.99Z" fill="#263238"/>
<path d="M271.232 106.248C271.217 106.524 271.178 106.797 271.115 107.066C271.042 107.592 270.948 108.354 270.858 109.306C270.68 111.198 270.502 113.814 270.301 116.703L269.855 124.112C269.788 125.058 269.733 125.826 269.682 126.352C269.673 126.628 269.636 126.902 269.571 127.17C269.549 126.896 269.549 126.62 269.571 126.346C269.571 125.758 269.616 125.002 269.649 124.106C269.721 122.208 269.838 119.587 270.011 116.692C270.184 113.797 270.401 111.182 270.635 109.289C270.747 108.348 270.875 107.609 270.981 107.049C271.039 106.774 271.123 106.506 271.232 106.248Z" fill="#263238"/>
<path d="M283.398 124.555C283.37 124.639 282.345 124.309 281.03 124.214C279.714 124.119 278.655 124.287 278.639 124.214C279.409 123.926 280.237 123.832 281.052 123.939C281.872 123.952 282.677 124.163 283.398 124.555Z" fill="#263238"/>
<path d="M223.335 109.412C223.169 110.139 222.911 110.841 222.566 111.501C222.31 112.201 221.964 112.863 221.535 113.472C221.698 112.745 221.957 112.042 222.304 111.383C222.563 110.685 222.91 110.023 223.335 109.412Z" fill="#263238"/>
<path d="M237.001 104.031C237.079 104.031 237.207 107.201 237.279 111.115C237.352 115.03 237.352 118.205 237.279 118.205C237.207 118.205 237.073 115.035 236.995 111.121C236.917 107.206 236.923 104.037 237.001 104.031Z" fill="#263238"/>
<path d="M243.499 117.348C243.449 117.079 243.425 116.805 243.427 116.531C243.427 115.971 243.382 115.198 243.349 114.291C243.293 112.403 243.232 109.811 243.187 106.921C243.143 104.031 243.12 101.433 243.115 99.5459C243.115 98.6443 243.115 97.8939 243.115 97.3059C243.104 97.0325 243.119 96.7588 243.159 96.4883C243.21 96.7578 243.234 97.0316 243.232 97.3059C243.232 97.8659 243.276 98.6387 243.31 99.5459C243.366 101.433 243.421 104.026 243.466 106.915C243.511 109.805 243.538 112.398 243.544 114.285C243.544 115.187 243.544 115.965 243.544 116.525C243.552 116.8 243.537 117.076 243.499 117.348Z" fill="#263238"/>
<path d="M284.76 131.767C284.666 131.854 284.566 131.932 284.459 132.002L283.567 132.646L280.223 135.004L268.787 142.939L268.664 143.028L268.586 142.9L266.078 138.722L262.99 133.559L262.918 133.436L263.035 133.363L274.327 126.643L277.637 124.705L278.529 124.196C278.63 124.132 278.736 124.078 278.847 124.033C278.755 124.112 278.656 124.182 278.551 124.24L277.687 124.8L274.421 126.805L263.174 133.609L263.225 133.413C264.2 135.043 265.248 136.773 266.323 138.571L268.826 142.748L268.619 142.704C273.201 139.579 277.219 136.835 280.112 134.864L283.511 132.579L284.431 131.974C284.535 131.897 284.645 131.827 284.76 131.767Z" fill="#263238"/>
<g opacity="0.3">
<path d="M257.373 123.68C257.202 121.272 257.43 118.852 258.047 116.518C259.487 109.971 261.856 103.667 265.08 97.7972C264.706 97.5896 264.276 97.504 263.851 97.5521C263.426 97.6003 263.026 97.7798 262.706 98.066C262.081 98.6546 261.597 99.3784 261.291 100.183C258.83 105.462 257.276 111.121 256.693 116.921C256.549 118.035 256.521 119.161 256.609 120.281C256.72 121.457 256.72 122.689 257.445 123.613" fill="black"/>
</g>
<g opacity="0.3">
<path d="M236.985 105.207C235.251 108.231 235.48 111.871 237.135 114.94C237.135 111.58 237.135 108.64 236.934 105.252" fill="black"/>
</g>
<path d="M250.46 82.7724C250.445 82.6729 250.409 82.5778 250.355 82.4937C250.3 82.4096 250.227 82.3384 250.142 82.2852C250.026 82.2382 249.9 82.2191 249.775 82.2292C249.049 82.2421 248.329 82.3456 247.629 82.5372L247.59 82.6492C247.624 82.963 247.689 83.2726 247.785 83.5732C247.879 83.8761 248.057 84.146 248.298 84.3516C248.533 84.5258 248.817 84.6197 249.109 84.6197C249.4 84.6197 249.685 84.5258 249.92 84.3516C250.149 84.1663 250.321 83.9197 250.416 83.6403C250.512 83.3609 250.527 83.0601 250.46 82.7724Z" fill="#EB996E"/>
<path d="M248.309 84.4864C248.611 84.5134 248.915 84.4945 249.211 84.4304C249.519 84.3361 249.785 84.1384 249.964 83.8704C250.071 83.7133 250.144 83.5356 250.178 83.3485C250.213 83.1614 250.208 82.9691 250.165 82.784C250.131 82.6093 250.031 82.4546 249.886 82.3528C249.723 82.299 249.547 82.299 249.384 82.3528L248.381 82.5432C248.072 82.6259 247.753 82.6618 247.434 82.6496C247.717 82.5015 248.022 82.3976 248.336 82.3416L249.329 82.0896C249.55 82.0092 249.793 82.0092 250.014 82.0896C250.124 82.156 250.218 82.2445 250.292 82.3496C250.366 82.4546 250.418 82.574 250.443 82.7C250.498 82.9253 250.503 83.1599 250.458 83.3872C250.412 83.6146 250.318 83.8293 250.181 84.016C249.952 84.3081 249.625 84.5071 249.262 84.576C249.106 84.6331 248.94 84.6547 248.775 84.6392C248.61 84.6237 248.451 84.5715 248.309 84.4864Z" fill="#263238"/>
<path d="M260.47 85.0465C260.391 84.8386 260.245 84.6634 260.055 84.5487C259.865 84.434 259.642 84.3865 259.423 84.4137C259.298 84.428 259.178 84.4694 259.071 84.5352C258.964 84.601 258.873 84.6895 258.804 84.7945C258.694 84.9772 258.645 85.1903 258.664 85.4028C258.683 85.6153 258.769 85.8161 258.91 85.9761C259.057 86.129 259.251 86.2289 259.46 86.2602C259.67 86.2916 259.884 86.2528 260.069 86.1497C260.25 86.0381 260.388 85.8685 260.461 85.6683C260.533 85.468 260.537 85.249 260.47 85.0465Z" fill="#FAFAFA"/>
<path d="M263.346 134.041L256.898 128.301L251.453 128.771C251.453 128.771 251.642 129.667 252.394 129.807C253.147 129.947 255.867 129.998 255.867 129.998L257.143 131.269L253.894 130.944L249.764 133.391C249.764 133.391 249.669 134.147 250.75 133.951C251.823 133.689 252.874 133.342 253.894 132.915L256.296 133.055L253.676 133.436L250.282 135.838C250.508 136.074 250.793 136.243 251.108 136.327C251.422 136.411 251.753 136.407 252.066 136.314C253.147 135.984 254.457 135.463 254.457 135.463L257.416 135.178L254.457 135.934L252.255 138.672C252.464 138.818 252.712 138.896 252.966 138.896C253.22 138.896 253.468 138.818 253.676 138.672C254.112 138.365 254.53 138.034 254.93 137.681L258.213 137.535C258.213 137.535 261.841 140.178 263.101 140.464C264.36 140.75 267.002 139.977 267.002 139.977L263.346 134.041Z" fill="#FFBE9D"/>
<path d="M391.153 161.049H291.229V217.189H391.153V161.049Z" fill="#FAFAFA"/>
<path d="M391.153 217.189C391.153 217.189 391.153 216.842 391.153 216.181C391.153 215.52 391.153 214.534 391.153 213.252C391.153 210.676 391.153 206.89 391.153 202.024C391.153 192.308 391.12 178.286 391.092 161.049L391.203 161.161L291.284 161.194L291.429 161.049C291.429 180.901 291.429 199.89 291.429 217.189L291.296 217.054L363.192 217.122L383.813 217.155H389.319H390.741H391.225H390.757H389.347H383.874L363.253 217.194L291.296 217.262H291.156V217.122C291.156 199.823 291.156 180.834 291.156 160.982V160.836H291.307L391.225 160.87H391.337V160.982C391.337 178.246 391.292 192.291 391.276 202.03C391.276 206.879 391.276 210.659 391.276 213.23C391.276 214.506 391.276 215.47 391.276 216.142C391.276 216.814 391.153 217.189 391.153 217.189Z" fill="#263238"/>
<path d="M317.568 174.428H303.439V188.624H317.568V174.428Z" fill="#455A64"/>
<path d="M336.969 176.4C336.969 176.484 333.669 176.551 329.606 176.551C325.543 176.551 322.238 176.484 322.238 176.4C322.238 176.316 325.538 176.254 329.606 176.254C333.675 176.254 336.969 176.344 336.969 176.4Z" fill="white"/>
<path d="M384.001 181.528C384.001 181.607 370.168 181.674 353.114 181.674C336.06 181.674 322.227 181.607 322.227 181.528C322.227 181.45 336.054 181.383 353.114 181.383C370.174 181.383 384.001 181.439 384.001 181.528Z" fill="#263238"/>
<path d="M363.231 187.253C363.231 187.331 354.141 187.399 342.939 187.399C331.736 187.399 322.641 187.331 322.641 187.253C322.641 187.175 331.725 187.107 342.939 187.107C354.152 187.107 363.231 187.175 363.231 187.253Z" fill="#263238"/>
<path d="M376.362 196.594H308.105C304.489 196.594 301.557 199.54 301.557 203.174C301.557 206.808 304.489 209.754 308.105 209.754H376.362C379.979 209.754 382.911 206.808 382.911 203.174C382.911 199.54 379.979 196.594 376.362 196.594Z" fill="white"/>
<path d="M329.684 204.091H328.012L327.694 204.869H326.836L328.447 201.246H329.271L330.882 204.869H330.007L329.684 204.091ZM329.422 203.458L328.865 202.069L328.307 203.458H329.422Z" fill="white"/>
<path d="M334.4 202.562C334.4 203.368 333.798 203.872 332.834 203.872H332.109V204.869H331.273V201.246H332.834C333.781 201.246 334.4 201.744 334.4 202.562ZM333.558 202.562C333.558 202.164 333.297 201.929 332.789 201.929H332.109V203.189H332.789C333.285 203.189 333.542 202.954 333.542 202.562H333.558Z" fill="white"/>
<path d="M338.106 202.562C338.106 203.368 337.504 203.872 336.54 203.872H335.815V204.869H334.957V201.246H336.518C337.504 201.246 338.106 201.744 338.106 202.562ZM337.259 202.562C337.259 202.164 337.002 201.929 336.495 201.929H335.815V203.189H336.495C337.002 203.189 337.259 202.954 337.259 202.562Z" fill="white"/>
<path d="M338.703 201.246H339.534V204.186H341.345V204.869H338.703V201.246Z" fill="white"/>
<path d="M343.173 203.587V204.869H342.337V203.576L340.943 201.246H341.83L342.794 202.853L343.758 201.246H344.577L343.173 203.587Z" fill="white"/>
<path d="M349.692 201.246V204.869H349.006L347.217 202.668V204.869H346.393V201.246H347.084L348.889 203.447V201.246H349.692Z" fill="white"/>
<path d="M350.323 203.055C350.301 202.658 350.398 202.263 350.601 201.922C350.805 201.58 351.105 201.308 351.464 201.141C351.823 200.973 352.224 200.917 352.615 200.981C353.006 201.044 353.369 201.224 353.657 201.497C353.945 201.77 354.145 202.124 354.23 202.512C354.316 202.901 354.284 203.306 354.138 203.676C353.992 204.046 353.739 204.363 353.412 204.587C353.085 204.81 352.698 204.93 352.302 204.931C352.048 204.946 351.793 204.909 351.553 204.822C351.314 204.734 351.094 204.599 350.909 204.423C350.724 204.247 350.576 204.035 350.475 203.8C350.375 203.565 350.323 203.311 350.323 203.055ZM353.428 203.055C353.419 202.836 353.346 202.624 353.219 202.446C353.091 202.267 352.914 202.131 352.71 202.053C352.505 201.975 352.283 201.959 352.07 202.007C351.856 202.055 351.662 202.165 351.511 202.324C351.359 202.482 351.257 202.681 351.218 202.897C351.178 203.113 351.203 203.336 351.288 203.538C351.374 203.74 351.517 203.913 351.699 204.034C351.881 204.155 352.095 204.22 352.313 204.22C352.463 204.22 352.612 204.19 352.75 204.131C352.888 204.071 353.013 203.985 353.118 203.876C353.222 203.767 353.303 203.639 353.356 203.497C353.409 203.356 353.434 203.206 353.428 203.055Z" fill="white"/>
<path d="M360.237 201.246L359.055 204.869H358.158L357.367 202.416L356.547 204.869H355.656L354.463 201.246H355.327L356.146 203.794L356.993 201.246H357.768L358.593 203.811L359.429 201.246H360.237Z" fill="white"/>
<path d="M104.304 122.041H30.3398V163.593H104.304V122.041Z" fill="#FAFAFA"/>
<path d="M104.304 163.599C104.304 163.599 104.304 163.341 104.304 162.848C104.304 162.355 104.304 161.627 104.304 160.675C104.304 158.766 104.305 155.966 104.277 152.365C104.277 145.169 104.238 134.798 104.215 122.041L104.327 122.153L30.3687 122.187L30.5136 122.041C30.5136 136.735 30.5136 150.791 30.5136 163.599L30.3798 163.464L83.5606 163.526L98.8482 163.565H102.928H103.981H104.344H103.998H102.956H98.9095L83.6553 163.599L30.3798 163.666H30.207V163.531C30.207 150.724 30.207 136.651 30.207 121.974V121.828H30.3575L104.316 121.867H104.427V121.974C104.427 134.759 104.383 145.158 104.366 152.365C104.366 155.955 104.366 158.749 104.338 160.653C104.338 161.594 104.338 162.333 104.338 162.803C104.338 163.274 104.304 163.599 104.304 163.599Z" fill="#263238"/>
<path d="M49.8364 131.947H39.3809V142.453H49.8364V131.947Z" fill="#455A64"/>
<path d="M64.1983 133.425C62.3852 133.569 60.5658 133.618 58.7476 133.57C56.9294 133.618 55.11 133.569 53.2969 133.425C55.1098 133.277 56.9294 133.229 58.7476 133.279C60.5658 133.229 62.3854 133.277 64.1983 133.425Z" fill="white"/>
<path d="M99.0158 137.198C99.0158 137.282 88.7831 137.344 76.1651 137.344C63.5471 137.344 53.3145 137.282 53.3145 137.198C53.3145 137.114 63.5471 137.053 76.1651 137.053C88.7831 137.053 99.0158 137.12 99.0158 137.198Z" fill="#263238"/>
<path d="M83.6321 141.439C83.6321 141.517 76.9106 141.584 68.6119 141.584C60.3132 141.584 53.5918 141.517 53.5918 141.439C53.5918 141.36 60.3132 141.293 68.6398 141.293C76.9664 141.293 83.6321 141.355 83.6321 141.439Z" fill="#263238"/>
<path d="M93.3538 148.35H42.8371C40.1592 148.35 37.9883 150.53 37.9883 153.219C37.9883 155.908 40.1592 158.088 42.8371 158.088H93.3538C96.0317 158.088 98.2026 155.908 98.2026 153.219C98.2026 150.53 96.0317 148.35 93.3538 148.35Z" fill="white"/>
<path d="M58.8096 153.903H57.5667L57.3271 154.463H56.6973L57.8844 151.775H58.5197L59.718 154.463H59.0659L58.8096 153.903ZM58.6145 153.433L58.1909 152.403L57.7673 153.433H58.6145Z" fill="white"/>
<path d="M62.2873 152.767C62.2873 153.367 61.8414 153.736 61.128 153.736H60.5707V154.481H59.9688V151.793H61.128C61.8637 151.793 62.2873 152.163 62.2873 152.767ZM61.663 152.767C61.663 152.471 61.468 152.297 61.1057 152.297H60.5985V153.232H61.1057C61.468 153.232 61.663 153.059 61.663 152.767Z" fill="white"/>
<path d="M65.0403 152.767C65.0403 153.367 64.5944 153.736 63.8811 153.736H63.3237V154.481H62.7051V151.793H63.8588C64.5944 151.793 65.0403 152.163 65.0403 152.767ZM64.4161 152.767C64.4161 152.471 64.2266 152.297 63.8588 152.297H63.3572V153.232H63.8588C64.2266 153.232 64.4161 153.059 64.4161 152.767Z" fill="white"/>
<path d="M65.4805 151.793H66.0991V153.999H67.4367V154.509H65.4805V151.793Z" fill="white"/>
<path d="M68.7903 153.529V154.481H68.1717V153.518L67.1406 151.793H67.7927L68.5117 152.986L69.2251 151.793H69.8325L68.7903 153.529Z" fill="white"/>
<path d="M73.6186 151.793V154.481H73.1114L71.7794 152.846V154.481H71.1719V151.793H71.6791L73.0111 153.439V151.81L73.6186 151.793Z" fill="white"/>
<path d="M74.0861 153.137C74.0705 152.844 74.1427 152.553 74.2933 152.302C74.444 152.051 74.6662 151.85 74.9313 151.727C75.1964 151.604 75.4921 151.564 75.7803 151.611C76.0685 151.659 76.3359 151.792 76.548 151.993C76.7601 152.195 76.9071 152.456 76.9701 152.743C77.033 153.029 77.009 153.328 76.9012 153.601C76.7933 153.874 76.6066 154.107 76.3651 154.272C76.1235 154.437 75.8383 154.526 75.5463 154.526C75.3583 154.537 75.1702 154.509 74.9934 154.444C74.8165 154.379 74.6548 154.278 74.5181 154.148C74.3814 154.018 74.2725 153.861 74.1982 153.688C74.1239 153.514 74.0858 153.327 74.0861 153.137ZM76.3823 153.137C76.379 152.972 76.3272 152.811 76.2333 152.675C76.1395 152.539 76.0078 152.434 75.8548 152.373C75.7018 152.312 75.5342 152.298 75.3732 152.332C75.2121 152.367 75.0647 152.448 74.9495 152.566C74.8342 152.684 74.7563 152.834 74.7253 152.996C74.6944 153.159 74.7119 153.327 74.7757 153.479C74.8394 153.632 74.9465 153.762 75.0836 153.854C75.2207 153.945 75.3817 153.994 75.5463 153.994C75.6582 153.997 75.7693 153.976 75.8729 153.933C75.9765 153.891 76.0704 153.828 76.1487 153.747C76.227 153.667 76.2882 153.572 76.3284 153.467C76.3685 153.362 76.3869 153.25 76.3823 153.137Z" fill="white"/>
<path d="M81.4268 151.793L80.5518 154.481H79.8886L79.2978 152.661L78.6903 154.481H78.0271L77.1465 151.793H77.7874L78.3893 153.68L79.0191 151.793H79.5765L80.1895 153.697L80.8137 151.793H81.4268Z" fill="white"/>
<path d="M373.48 49.4473H292.332V95.0369H373.48V49.4473Z" fill="#FAFAFA"/>
<path d="M373.481 95.0369C373.481 95.0369 373.481 94.7569 373.481 94.2137C373.481 93.6705 373.481 92.8753 373.481 91.8337C373.481 89.7393 373.481 86.6649 373.453 82.7169C373.453 74.8265 373.419 63.4417 373.397 49.4473L373.509 49.5593L292.366 49.5929L292.511 49.4473C292.511 65.5697 292.511 80.9865 292.511 95.0369L292.378 94.9025L350.73 94.9641L367.501 95.0033H371.959H373.113H371.998H367.54L350.82 95.0425L292.333 95.1993H292.199V95.0649C292.199 81.0145 292.199 65.5977 292.199 49.4753V49.2793H292.35L373.492 49.3129H373.603V49.4249C373.575 63.4249 373.559 74.8545 373.542 82.7617C373.542 86.6817 373.542 89.7673 373.514 91.8561C373.514 92.8865 373.514 93.6761 373.514 94.2193C373.514 94.7625 373.481 95.0369 373.481 95.0369Z" fill="#263238"/>
<path d="M313.716 60.3105H302.246V71.8353H313.716V60.3105Z" fill="#455A64"/>
<path d="M329.478 61.9344C329.478 62.0128 326.797 62.08 323.498 62.08C320.198 62.08 317.518 62.0128 317.518 61.9344C321.502 61.7328 325.494 61.7328 329.478 61.9344Z" fill="white"/>
<path d="M367.678 66.0792C367.678 66.1632 356.447 66.2304 342.598 66.2304C328.748 66.2304 317.518 66.1632 317.518 66.0792C317.518 65.9952 328.742 65.9336 342.598 65.9336C356.453 65.9336 367.678 65.9952 367.678 66.0792Z" fill="#263238"/>
<path d="M350.802 70.7276C350.802 70.806 343.423 70.8732 334.322 70.8732C325.221 70.8732 317.842 70.806 317.842 70.7276C317.842 70.6492 325.221 70.582 334.322 70.582C343.423 70.582 350.802 70.6436 350.802 70.7276Z" fill="#263238"/>
<path d="M361.464 88.9953H306.038C304.628 88.9953 303.275 88.4325 302.278 87.4306C301.281 86.4287 300.721 85.0698 300.721 83.653C300.721 82.2361 301.281 80.8772 302.278 79.8753C303.275 78.8734 304.628 78.3105 306.038 78.3105H361.464C362.875 78.3105 364.227 78.8734 365.224 79.8753C366.221 80.8772 366.781 82.2361 366.781 83.653C366.781 85.0698 366.221 86.4287 365.224 87.4306C364.227 88.4325 362.875 88.9953 361.464 88.9953Z" fill="white"/>
<path d="M323.559 84.4026H322.199L321.943 85.0298H321.246L322.55 82.0898H323.219L324.529 85.0298H323.81L323.559 84.4026ZM323.347 83.8818L322.885 82.7618L322.416 83.8818H323.347Z" fill="white"/>
<path d="M327.377 83.1594C327.377 83.8146 326.887 84.2178 326.107 84.2178H325.516V85.0298H324.836V82.0898H326.107C326.887 82.0898 327.377 82.4986 327.377 83.1594ZM326.692 83.1594C326.692 82.8346 326.48 82.6442 326.068 82.6442H325.51V83.6634H326.068C326.48 83.6634 326.692 83.4786 326.692 83.1594Z" fill="white"/>
<path d="M330.397 83.1594C330.397 83.8146 329.912 84.2178 329.126 84.2178H328.536V85.0298H327.861V82.0898H329.126C329.94 82.0898 330.397 82.4986 330.397 83.1594ZM329.712 83.1594C329.712 82.8346 329.505 82.6442 329.087 82.6442H328.53V83.6634H329.087C329.505 83.6634 329.712 83.4786 329.712 83.1594Z" fill="white"/>
<path d="M330.883 82.0898H331.563V84.4754H333.029V85.0354H330.883V82.0898Z" fill="white"/>
<path d="M334.518 84.0002V85.0418H333.843V84.0002L332.729 82.1074H333.447L334.228 83.4122L335.014 82.1074H335.677L334.518 84.0002Z" fill="white"/>
<path d="M339.811 82.0898V85.0298H339.254L337.794 83.2434V85.0298H337.125V82.0898H337.682L339.137 83.8762V82.0898H339.811Z" fill="white"/>
<path d="M340.323 83.5635C340.304 83.2409 340.382 82.92 340.547 82.6424C340.711 82.3648 340.955 82.1434 341.247 82.0067C341.538 81.8701 341.864 81.8246 342.181 81.8761C342.499 81.9276 342.794 82.0738 343.027 82.2956C343.261 82.5175 343.423 82.8048 343.493 83.1204C343.562 83.4359 343.536 83.7651 343.417 84.0653C343.297 84.3655 343.091 84.6229 342.825 84.804C342.559 84.9851 342.244 85.0816 341.923 85.0811C341.717 85.0933 341.511 85.0631 341.317 84.9923C341.124 84.9215 340.946 84.8117 340.797 84.6695C340.647 84.5274 340.527 84.3559 340.446 84.1657C340.365 83.9755 340.323 83.7705 340.323 83.5635ZM342.842 83.5635C342.839 83.3815 342.782 83.2045 342.679 83.0548C342.576 82.9051 342.431 82.7892 342.263 82.7219C342.095 82.6545 341.91 82.6386 341.733 82.6761C341.556 82.7136 341.394 82.8029 341.267 82.9328C341.14 83.0627 341.054 83.2273 341.02 83.4061C340.986 83.5849 341.005 83.7698 341.075 83.9376C341.145 84.1055 341.263 84.2488 341.414 84.3496C341.564 84.4504 341.741 84.5042 341.923 84.5043C342.046 84.5075 342.168 84.4852 342.282 84.4388C342.396 84.3924 342.5 84.323 342.586 84.2347C342.672 84.1465 342.74 84.0414 342.784 83.9259C342.828 83.8104 342.848 83.687 342.842 83.5635Z" fill="white"/>
<path d="M348.372 82.0898L347.413 85.0298H346.661L346.02 83.0362L345.351 85.0298H344.627L343.668 82.0898H344.37L345.028 84.1562L345.719 82.0898H346.349L347.018 84.173L347.697 82.0898H348.372Z" fill="white"/>
</svg>
