<svg width="346" height="346" viewBox="0 0 346 346" fill="none" xmlns="http://www.w3.org/2000/svg">
<path d="M126.097 16.5312L129.342 22.4617L135.28 25.7141L129.342 28.9596L126.097 34.89L122.851 28.9596L116.914 25.7141L122.851 22.4617L126.097 16.5312Z" fill="#F5F5F5"/>
<path d="M261.485 177.338L263.921 181.794L268.37 184.223L263.921 186.659L261.485 191.116L259.049 186.659L254.6 184.223L259.049 181.794L261.485 177.338Z" fill="#EBEBEB"/>
<path d="M268.371 155.359L269.471 157.366L271.478 158.466L269.471 159.567L268.371 161.574L267.277 159.567L265.264 158.466L267.277 157.366L268.371 155.359Z" fill="#E0E0E0"/>
<path d="M102.908 18.7598L104.008 20.7735L106.015 21.8668L104.008 22.9671L102.908 24.9739L101.815 22.9671L99.8008 21.8668L101.815 20.7735L102.908 18.7598Z" fill="#E0E0E0"/>
<path d="M47.8377 205.357C49.1145 204.772 50.1921 203.825 50.9373 202.635C51.6826 201.445 52.0629 200.062 52.0312 198.658C52.0312 194.693 48.9518 191.51 45.2358 191.537C41.5197 191.565 38.5372 194.81 38.5718 198.776C38.5618 200.191 38.972 201.578 39.7505 202.761C40.529 203.943 41.6408 204.868 42.9453 205.419C32.6068 207.114 33.2157 218.366 33.2157 218.366L57.7056 218.159C57.7056 218.159 58.1277 206.775 47.8377 205.357Z" fill="#E0E0E0"/>
<path d="M282.778 279.527C282.605 278.639 282.123 277.842 281.417 277.277C280.711 276.712 279.827 276.416 278.923 276.443C278.019 276.47 277.154 276.817 276.482 277.422C275.811 278.027 275.376 278.852 275.256 279.748C275.13 278.853 274.691 278.032 274.016 277.431C273.341 276.83 272.475 276.488 271.571 276.467C270.668 276.445 269.786 276.745 269.083 277.313C268.38 277.881 267.902 278.68 267.734 279.568C267.553 280.88 267.885 282.211 268.661 283.284C269.43 284.342 270.332 285.296 271.346 286.122C272.73 287.346 273.983 288.488 275.353 289.706C276.737 288.474 277.865 287.319 279.221 286.087C280.231 285.253 281.127 284.29 281.885 283.222C282.643 282.149 282.962 280.827 282.778 279.527Z" fill="#EBEBEB"/>
<path d="M298.729 133.659L301.351 133.14L305.503 124.02L304.465 118.781C304.465 118.781 308.472 117.729 309.358 124.684C310.243 131.639 310.409 129.791 310.409 129.791C310.409 129.791 319.025 128.116 319.89 128.718C320.52 129.161 322.45 137.673 323.461 142.296C323.74 143.403 323.641 144.573 323.178 145.618C322.715 146.663 321.916 147.522 320.907 148.06C320.62 148.201 320.315 148.304 320.001 148.364C317.855 148.793 306.534 149.222 306.534 149.222L302.002 150.122L298.729 133.659Z" fill="#E0E0E0"/>
<path d="M290.93 133.708L296.099 151.34L300.597 150.447L297.109 132.863L290.93 133.708Z" fill="#E0E0E0"/>
<path d="M325.565 324.77C325.565 324.874 256.939 324.95 172.307 324.95C87.6757 324.95 19.0293 324.874 19.0293 324.77C19.0293 324.666 87.6411 324.59 172.307 324.59C256.973 324.59 325.565 324.673 325.565 324.77Z" fill="#263238"/>
<path d="M272.254 126.739C265.548 129.999 257.821 130.462 250.773 128.026C243.726 125.59 237.934 120.456 234.671 113.75C231.412 107.044 230.949 99.3175 233.384 92.2698C235.82 85.2222 240.955 79.4304 247.66 76.1679C250.981 74.5529 254.587 73.6078 258.273 73.3865C261.959 73.1652 265.652 73.6721 269.142 74.8782C272.632 76.0844 275.85 77.9661 278.612 80.416C281.375 82.866 283.628 85.8361 285.243 89.1567C286.858 92.4773 287.803 96.0834 288.024 99.7692C288.246 103.455 287.739 107.148 286.532 110.638C285.326 114.128 283.445 117.346 280.995 120.109C278.545 122.872 275.575 125.125 272.254 126.739Z" fill="white"/>
<path d="M253.01 107.737C253.113 107.734 253.215 107.709 253.307 107.663C253.399 107.616 253.479 107.55 253.542 107.468C253.605 107.386 253.649 107.292 253.671 107.191C253.692 107.09 253.691 106.986 253.668 106.886C253.598 106.547 253.412 105.689 253.342 105.336C253.246 104.844 253.128 104.713 252.65 104.491C251.41 103.921 250.425 102.913 249.882 101.661C247.765 97.3015 249.128 91.814 254.36 89.2743C258.989 87.0184 262.913 88.5823 264.74 92.3883C267.155 97.3638 266.996 102.63 263.729 104.222C263.322 104.446 262.868 104.571 262.404 104.588C261.939 104.604 261.477 104.511 261.055 104.317C260.633 104.122 260.262 103.831 259.973 103.467C259.684 103.104 259.485 102.677 259.391 102.222C258.851 99.7858 258.699 96.9417 257.937 95.3639C257.245 93.9799 255.917 93.1426 254.353 93.9038C252.505 94.8034 251.952 97.433 253.197 99.9865C253.641 100.931 254.28 101.77 255.072 102.45C255.072 102.45 257.079 111.363 257.425 112.927C258.117 116.034 260.345 119.155 260.56 119.508C260.591 119.547 260.632 119.577 260.679 119.593C260.725 119.61 260.776 119.613 260.825 119.602C260.873 119.592 260.918 119.567 260.953 119.532C260.988 119.497 261.013 119.453 261.024 119.404C261.086 119.1 261.965 115.321 261.39 112.249C261.231 111.377 260.297 106.913 260.297 106.913C261.453 107.765 263.695 107.924 265.556 107.017C271.092 104.318 272.407 97.433 269.113 90.6652C266.629 85.5514 259.972 82.8941 253.391 86.098C245.191 90.084 243.917 97.9658 246.298 102.865C247.737 105.834 250.125 107.951 253.01 107.737Z" fill="white"/>
<path d="M300.328 206.05C297.948 205.142 295.77 203.774 293.919 202.024C292.069 200.274 290.581 198.177 289.542 195.851C288.503 193.526 287.932 191.018 287.863 188.472C287.793 185.926 288.227 183.391 289.138 181.013C290.045 178.633 291.412 176.456 293.161 174.605C294.91 172.754 297.007 171.266 299.332 170.226C301.656 169.186 304.163 168.615 306.709 168.544C309.255 168.474 311.789 168.906 314.168 169.816C316.548 170.724 318.725 172.092 320.576 173.842C322.427 175.592 323.914 177.689 324.953 180.015C325.993 182.34 326.563 184.848 326.633 187.394C326.702 189.94 326.269 192.475 325.357 194.853C324.45 197.233 323.083 199.41 321.334 201.261C319.585 203.112 317.488 204.6 315.164 205.64C312.839 206.68 310.332 207.251 307.786 207.322C305.241 207.392 302.706 206.96 300.328 206.05Z" fill="white"/>
<path fill-rule="evenodd" clip-rule="evenodd" d="M317.379 191.227C318.243 188.683 318.094 185.904 316.963 183.467C315.831 181.031 313.804 179.124 311.302 178.144C308.801 177.163 306.017 177.185 303.531 178.204C301.045 179.223 299.048 181.161 297.954 183.615C297.892 183.754 297.837 183.899 297.781 184.037C297.104 185.8 296.927 187.716 297.269 189.573L293.525 194.092L299.587 194.438C300.756 195.82 302.263 196.874 303.961 197.497C305.66 198.121 307.491 198.293 309.276 197.995C311.061 197.698 312.737 196.942 314.142 195.802C315.547 194.662 316.631 193.176 317.289 191.49C317.323 191.404 317.354 191.316 317.379 191.227ZM304.424 195.884C302.82 195.275 301.431 194.207 300.432 192.812L296.895 192.611L299.075 189.982C298.587 188.21 298.676 186.329 299.331 184.612C299.435 184.349 299.553 184.086 299.677 183.837C300.663 181.884 302.342 180.369 304.386 179.59C306.43 178.81 308.691 178.821 310.727 179.621C312.763 180.421 314.428 181.952 315.394 183.914C316.361 185.877 316.56 188.129 315.953 190.231C315.891 190.452 315.822 190.667 315.739 190.881C314.9 193.044 313.238 194.786 311.117 195.724C308.995 196.662 306.588 196.72 304.424 195.884Z" fill="white"/>
<path fill-rule="evenodd" clip-rule="evenodd" d="M311.263 191.407C311.062 191.199 310.114 190.175 309.92 190.023C309.726 189.87 309.588 189.76 309.339 189.94C309.09 190.12 308.418 190.472 308.225 190.576C308.031 190.68 307.879 190.646 307.685 190.438C307.086 189.89 306.587 189.241 306.211 188.521C305.875 187.844 305.642 187.121 305.519 186.376C305.477 186.085 305.643 186.002 305.81 185.933C305.976 185.864 306.156 185.746 306.329 185.656L306.46 185.573C306.551 185.503 306.636 185.427 306.716 185.345C306.775 185.293 306.819 185.227 306.845 185.153C306.87 185.079 306.876 185 306.861 184.923C306.861 184.784 306.813 183.428 306.792 182.881C306.771 182.335 306.543 182.335 306.405 182.279C306.266 182.224 306.114 182.141 305.955 182.085C305.833 182.041 305.702 182.023 305.573 182.031C305.443 182.04 305.316 182.075 305.201 182.134C304.835 182.287 304.504 182.514 304.231 182.801C303.957 183.088 303.745 183.429 303.609 183.802C303.508 184.076 303.446 184.362 303.422 184.653C303.383 185.318 303.46 185.986 303.651 186.625C303.713 186.826 304.301 189.884 306.363 191.767C308.425 193.649 308.557 193.33 309.014 193.455C309.376 193.526 309.749 193.517 310.108 193.428C310.467 193.34 310.802 193.174 311.09 192.943C311.384 192.651 311.584 192.277 311.664 191.87C311.588 191.739 311.456 191.614 311.263 191.407Z" fill="white"/>
<path d="M48.1845 116.422C44.2625 116.422 40.5011 114.864 37.7278 112.09C34.9545 109.317 33.3965 105.556 33.3965 101.634C33.3965 97.7117 34.9545 93.9503 37.7278 91.177C40.5011 88.4037 44.2625 86.8457 48.1845 86.8457C50.1265 86.8457 52.0495 87.2282 53.8437 87.9714C55.6378 88.7145 57.2681 89.8038 58.6413 91.177C60.0144 92.5502 61.1037 94.1804 61.8469 95.9746C62.5901 97.7688 62.9726 99.6917 62.9726 101.634C62.9726 103.576 62.5901 105.499 61.8469 107.293C61.1037 109.087 60.0144 110.717 58.6413 112.09C57.2681 113.464 55.6378 114.553 53.8437 115.296C52.0495 116.039 50.1265 116.422 48.1845 116.422Z" fill="white"/>
<path d="M40.3086 106.568C41.7288 107.474 43.3705 107.973 45.0547 108.01C46.7389 108.047 48.401 107.622 49.8599 106.78C51.3189 105.937 52.5187 104.711 53.3286 103.234C54.1385 101.756 54.5275 100.085 54.4531 98.4024C55.0782 97.9485 55.6192 97.3888 56.0516 96.7485C55.4592 97.0085 54.8321 97.181 54.1901 97.2606C54.8669 96.8651 55.378 96.2384 55.6295 95.496C54.9889 95.8769 54.2861 96.1417 53.5535 96.278C53.0681 95.7471 52.4199 95.3929 51.711 95.2713C51.0021 95.1496 50.2728 95.2674 49.6383 95.6061C49.0038 95.9448 48.5 96.4851 48.2065 97.1418C47.9131 97.7984 47.8465 98.5341 48.0175 99.2328C46.7317 99.1666 45.4742 98.8312 44.3263 98.2483C43.1783 97.6654 42.1656 96.848 41.3535 95.8489C40.9421 96.5618 40.8168 97.4043 41.0031 98.206C41.1894 99.0077 41.6733 99.7086 42.3569 100.167C41.8427 100.154 41.3393 100.016 40.8899 99.7656C40.8813 100.519 41.1358 101.252 41.6094 101.838C42.0831 102.424 42.7463 102.827 43.4849 102.977C43.0088 103.106 42.5093 103.125 42.0248 103.032C42.2319 103.673 42.6339 104.234 43.1747 104.635C43.7155 105.037 44.3682 105.261 45.0419 105.274C43.6939 106.307 41.9948 106.772 40.3086 106.568Z" fill="white"/>
<path d="M227.162 325.275L131.742 325.24C126.237 325.24 120.956 323.053 117.063 319.16C113.17 315.267 110.982 309.986 110.982 304.48L111.024 65.2698C111.024 62.5401 111.562 59.8371 112.608 57.3157C113.654 54.7943 115.187 52.5039 117.119 50.5756C119.051 48.6473 121.345 47.119 123.868 46.0781C126.392 45.0373 129.096 44.5043 131.825 44.5098L227.238 44.5652C232.744 44.5652 238.025 46.7524 241.918 50.6456C245.811 54.5389 247.998 59.8193 247.998 65.3252L247.957 304.48C247.961 307.212 247.427 309.919 246.383 312.443C245.34 314.968 243.808 317.263 241.876 319.195C239.945 321.126 237.65 322.658 235.125 323.701C232.6 324.745 229.894 325.28 227.162 325.275Z" fill="#263238"/>
<path d="M227.135 52.9528H208.631C207.417 52.9818 206.263 53.4899 205.422 54.3663C204.58 55.2426 204.12 56.4161 204.14 57.6307V60.9869C204.154 61.59 204.049 62.1899 203.83 62.7523C203.612 63.3146 203.285 63.8284 202.868 64.2642C202.45 64.7 201.951 65.0493 201.399 65.292C200.847 65.5347 200.252 65.6661 199.649 65.6787H163.589C162.985 65.6652 162.39 65.5329 161.838 65.2895C161.286 65.046 160.787 64.6961 160.37 64.2598C159.953 63.8234 159.626 63.3092 159.407 62.7464C159.189 62.1837 159.084 61.5834 159.098 60.98V57.603C159.122 56.3853 158.663 55.2076 157.822 54.3272C156.98 53.4467 155.824 52.9352 154.607 52.9043H148.088H131.902C129.991 52.8998 128.097 53.2723 126.33 54.0006C124.563 54.7288 122.957 55.7985 121.604 57.1484C120.251 58.4983 119.177 60.1018 118.445 61.8672C117.713 63.6325 117.336 65.5251 117.336 67.4363L117.287 300.924C117.287 304.778 118.818 308.474 121.543 311.2C124.269 313.925 127.965 315.456 131.819 315.456L227.052 315.511C228.961 315.511 230.85 315.136 232.613 314.405C234.376 313.675 235.978 312.605 237.328 311.255C238.677 309.906 239.748 308.304 240.478 306.541C241.208 304.777 241.584 302.888 241.584 300.979L241.633 67.4848C241.633 63.6366 240.106 59.9456 237.389 57.2213C234.671 54.497 230.983 52.9619 227.135 52.9528Z" fill="white"/>
<path d="M228.526 71.9198C228.526 71.982 226.118 72.0512 223.156 72.072C220.194 72.0928 217.779 72.072 217.779 72.0097C217.779 71.9474 220.181 71.8713 223.149 71.8506C226.118 71.8298 228.526 71.8575 228.526 71.9198Z" fill="#263238"/>
<path d="M228.546 74.6667C228.546 74.729 226.144 74.7982 223.176 74.8259C220.207 74.8536 217.799 74.8259 217.799 74.7567C217.799 74.6875 220.207 74.6252 223.176 74.5975C226.144 74.5699 228.546 74.6045 228.546 74.6667Z" fill="#263238"/>
<path d="M228.574 77.4148C228.574 77.4771 226.166 77.5532 223.197 77.5739C220.229 77.5947 217.827 77.5739 217.82 77.5047C217.813 77.4355 220.229 77.3733 223.197 77.3456C226.166 77.3179 228.574 77.3525 228.574 77.4148Z" fill="#263238"/>
<path d="M127.327 80.0988H127.611H128.393L131.285 80.0296L131.202 80.1057C131.202 79.4691 131.202 78.7702 131.168 78.0297C131.168 77.6422 131.168 77.2754 131.168 76.8256C131.213 76.5932 131.332 76.3813 131.506 76.2208C131.68 76.0602 131.901 75.9594 132.137 75.933C132.607 75.933 133.015 75.933 133.521 75.933C133.785 75.9757 134.026 76.1113 134.2 76.3155C134.374 76.5197 134.469 76.779 134.469 77.0471C134.469 78.0297 134.469 79.047 134.503 80.1057L134.372 79.9742H138.019L137.88 80.1126C137.88 78.6456 137.88 77.1232 137.839 75.5662C137.839 75.1787 137.839 74.7981 137.839 74.4106C137.823 74.2383 137.769 74.0718 137.68 73.9233C137.592 73.7748 137.471 73.6481 137.327 73.5525L135.735 71.9747L134.192 70.4592L133.451 69.7257C133.195 69.4766 132.995 69.2206 132.697 69.1583C132.555 69.1207 132.405 69.1156 132.261 69.1431C132.116 69.1706 131.979 69.2302 131.86 69.3174C131.638 69.5043 131.403 69.7672 131.168 70.0094L129.853 71.3312C129.03 72.1823 128.172 72.9643 127.549 73.7047C127.364 74.1411 127.302 74.6196 127.369 75.0887C127.369 75.5385 127.369 75.9676 127.369 76.3689C127.369 77.1578 127.369 77.8498 127.369 78.4449C127.369 79.04 127.369 79.4068 127.369 79.7666C127.379 79.9256 127.379 80.0851 127.369 80.2441C127.361 80.0989 127.361 79.9534 127.369 79.8082C127.369 79.4552 127.369 79.0193 127.369 78.5003C127.369 77.9813 127.369 77.2062 127.32 76.4243C127.32 76.0091 127.32 75.5731 127.32 75.1095C127.32 74.8742 127.32 74.6389 127.32 74.4175C127.319 74.1505 127.388 73.8878 127.521 73.6563C128.213 72.8328 129.002 72.0993 129.832 71.2204L131.133 69.8849C131.369 69.6565 131.555 69.4282 131.825 69.1929C131.974 69.0795 132.147 69.0013 132.33 68.9641C132.513 68.927 132.703 68.9318 132.884 68.9784C133.229 69.1049 133.532 69.3225 133.763 69.6081L134.51 70.3416L136.053 71.8571L137.652 73.421C137.802 73.5554 137.938 73.7037 138.06 73.8639C138.18 74.0476 138.247 74.2606 138.254 74.4798C138.254 74.8673 138.254 75.2548 138.254 75.6423C138.254 77.1993 138.254 78.7217 138.289 80.1888V80.3272H138.15H134.503H134.247V80.1957C134.247 79.1369 134.247 78.1197 134.247 77.137C134.252 76.9259 134.18 76.7202 134.045 76.5575C133.911 76.3949 133.722 76.2862 133.514 76.2513C133.092 76.2513 132.593 76.2513 132.185 76.2513C131.999 76.2699 131.823 76.3468 131.682 76.471C131.542 76.5952 131.444 76.7605 131.403 76.9433C131.403 77.31 131.403 77.7322 131.403 78.1058C131.403 78.8601 131.403 79.566 131.403 80.1818V80.2649H131.32H128.379H127.611C127.511 80.2195 127.416 80.1638 127.327 80.0988Z" fill="#263238"/>
<path d="M190.299 262.553C189.968 262.605 189.632 262.628 189.296 262.622L186.57 262.678C184.272 262.712 181.089 262.733 177.574 262.733C174.058 262.733 170.875 262.733 168.578 262.678L165.851 262.622C165.515 262.628 165.18 262.605 164.848 262.553C165.179 262.497 165.515 262.474 165.851 262.484L168.578 262.421C170.875 262.421 174.058 262.373 177.574 262.373C181.089 262.373 184.265 262.373 186.57 262.421L189.296 262.484C189.632 262.473 189.968 262.496 190.299 262.553Z" fill="#455A64"/>
<path d="M230.275 268.807C230.275 268.911 215.626 268.987 197.558 268.987C179.489 268.987 164.84 268.911 164.84 268.807C164.84 268.703 179.489 268.627 197.558 268.627C215.626 268.627 230.275 268.71 230.275 268.807Z" fill="#455A64"/>
<path d="M209.827 274.725C209.827 274.829 199.758 274.905 187.337 274.905C174.915 274.905 164.84 274.829 164.84 274.725C164.84 274.621 174.908 274.545 187.337 274.545C199.765 274.545 209.827 274.6 209.827 274.725Z" fill="#455A64"/>
<path d="M231.57 286.164L229.535 284.123L227.598 286.053V280.213H231.563L231.57 286.164ZM229.535 283.867L229.598 283.929L231.39 285.728V280.4H227.785V285.624L229.535 283.867Z" fill="#263238"/>
<path d="M177.435 285.403L176.743 285.084C176.33 285.279 175.859 285.312 175.423 285.178C174.986 285.043 174.616 284.751 174.383 284.358C174.151 283.965 174.074 283.499 174.167 283.052C174.26 282.605 174.516 282.208 174.886 281.94C175.256 281.672 175.712 281.552 176.166 281.603C176.62 281.653 177.038 281.871 177.34 282.214C177.641 282.557 177.804 283 177.796 283.457C177.788 283.914 177.61 284.351 177.297 284.683L177.435 285.403ZM175.767 281.514C175.294 281.547 174.851 281.759 174.529 282.107C174.208 282.456 174.031 282.914 174.035 283.388C174.04 283.862 174.225 284.317 174.553 284.659C174.882 285.002 175.328 285.206 175.802 285.23C176.118 285.208 176.424 285.111 176.694 284.946L177.227 285.181L177.103 284.662C177.347 284.396 177.508 284.064 177.566 283.707C177.624 283.351 177.576 282.985 177.429 282.655C177.282 282.325 177.042 282.045 176.738 281.85C176.434 281.654 176.08 281.552 175.719 281.555L175.767 281.514Z" fill="#263238"/>
<path d="M182.043 285.104L181.227 283.097L179.684 281.713H183.42L182.043 285.104ZM180.03 281.831L181.344 283.035L182.036 284.744L183.213 281.803L180.03 281.831Z" fill="#263238"/>
<path d="M183.342 281.668L181.301 282.996L181.376 283.112L183.418 281.784L183.342 281.668Z" fill="#263238"/>
<path d="M171.547 282.101C171.492 281.834 171.344 281.595 171.13 281.426C170.916 281.258 170.649 281.17 170.376 281.179C170.104 281.189 169.843 281.294 169.641 281.476C169.439 281.659 169.307 281.907 169.27 282.177C169.233 281.904 169.099 281.653 168.893 281.47C168.687 281.286 168.422 281.183 168.146 281.178C167.87 281.173 167.602 281.267 167.389 281.442C167.177 281.618 167.034 281.864 166.986 282.136C166.933 282.534 167.035 282.938 167.27 283.263C167.504 283.584 167.778 283.872 168.087 284.122C168.509 284.488 168.89 284.814 169.305 285.201C169.72 284.827 170.066 284.474 170.481 284.101C170.785 283.846 171.055 283.553 171.284 283.229C171.515 282.902 171.61 282.497 171.547 282.101Z" fill="white"/>
<path d="M235.736 291.332C235.736 291.332 235.736 291.104 235.736 290.682C235.736 290.26 235.736 289.616 235.736 288.786C235.736 287.118 235.736 284.634 235.702 281.478C235.702 275.119 235.667 265.867 235.64 254.262L235.757 254.38L125.1 254.442L125.279 254.262C125.279 267.147 125.279 279.638 125.279 291.332L125.106 291.159L204.292 291.235L227.405 291.284H233.633H235.238H235.792H235.259H233.674H227.509L204.43 291.332L125.127 291.415H124.947V291.332C124.947 279.638 124.947 267.147 124.947 254.262V254.082H125.141L235.799 254.144H235.916V254.262C235.916 265.894 235.868 275.174 235.854 281.554C235.854 284.724 235.854 287.167 235.854 288.834C235.854 289.651 235.854 290.274 235.854 290.703C235.854 291.132 235.736 291.332 235.736 291.332Z" fill="#263238"/>
<path d="M129.682 260.46L129.541 284.971L160.196 285.147L160.337 260.637L129.682 260.46Z" fill="#EBEBEB"/>
<path d="M160.329 260.622H159.74H158.066H151.775L129.631 260.573L129.798 260.414C129.763 267.715 129.721 276.074 129.68 284.918C129.715 284.966 129.341 284.579 129.5 284.738H131.611H133.687H137.839L145.797 284.787L160.149 284.89L160.003 285.043C160.073 277.68 160.135 271.576 160.183 267.286C160.183 265.154 160.232 263.48 160.246 262.31C160.246 261.75 160.246 261.314 160.246 260.996C160.246 260.677 160.246 260.532 160.246 260.532C160.246 260.532 160.246 260.67 160.246 260.961C160.246 261.252 160.246 261.701 160.246 262.255C160.246 263.411 160.246 265.078 160.246 267.196C160.246 271.507 160.246 277.645 160.246 285.043V285.188H160.093L145.741 285.133L137.783 285.091H133.631H131.555H129.445L129.258 284.904C129.32 276.053 129.369 267.694 129.417 260.4V260.234H129.583L151.796 260.435L158.024 260.518H159.664H160.079L160.329 260.622Z" fill="#263238"/>
<path d="M130.731 262.01L130.607 283.434L159.11 283.598L159.234 262.174L130.731 262.01Z" fill="#E0E0E0"/>
<path d="M130.594 283.415L140.628 270.156L146.745 278.523L150.952 274.094L159.097 283.581L130.594 283.415Z" fill="#F5F5F5"/>
<path d="M149.424 268.58C149.422 269.025 149.289 269.46 149.04 269.829C148.792 270.198 148.439 270.486 148.027 270.654C147.616 270.823 147.163 270.866 146.727 270.777C146.29 270.688 145.89 270.472 145.577 270.156C145.264 269.84 145.051 269.438 144.967 269.001C144.882 268.564 144.929 268.112 145.102 267.701C145.274 267.291 145.565 266.941 145.936 266.696C146.308 266.451 146.744 266.322 147.189 266.324C147.484 266.325 147.776 266.384 148.048 266.498C148.32 266.612 148.567 266.779 148.774 266.988C148.982 267.198 149.146 267.446 149.258 267.72C149.369 267.993 149.426 268.285 149.424 268.58Z" fill="#F5F5F5"/>
<path d="M181.366 101.634C181.256 101.652 181.144 101.652 181.034 101.634L180.1 101.668L176.64 101.73C173.726 101.73 169.72 101.779 165.249 101.779C160.779 101.779 156.772 101.779 153.859 101.73L150.399 101.668L149.458 101.634C149.35 101.653 149.24 101.653 149.133 101.634C149.239 101.607 149.349 101.596 149.458 101.599H150.399L153.859 101.544C156.772 101.509 160.779 101.488 165.249 101.488C169.72 101.488 173.726 101.488 176.64 101.544L180.1 101.599H181.034C181.146 101.596 181.257 101.608 181.366 101.634Z" fill="#263238"/>
<path d="M226.651 237.114L223.634 234.083L220.748 236.955V228.277H226.644L226.651 237.114ZM223.634 233.71L223.724 233.799L226.388 236.471V228.554H221.018V236.318L223.634 233.71Z" fill="#263238"/>
<path d="M149.935 236.202L148.551 235.572C147.745 235.947 146.829 236.007 145.98 235.742C145.132 235.477 144.413 234.905 143.964 234.138C143.515 233.371 143.368 232.464 143.552 231.594C143.736 230.725 144.238 229.955 144.96 229.436C145.681 228.917 146.57 228.685 147.453 228.787C148.336 228.888 149.15 229.315 149.734 229.985C150.319 230.654 150.633 231.517 150.616 232.406C150.598 233.295 150.249 234.145 149.638 234.79L149.935 236.202ZM146.634 228.555C146.155 228.559 145.68 228.658 145.239 228.845C144.797 229.032 144.396 229.305 144.06 229.647C143.724 229.989 143.458 230.394 143.278 230.839C143.098 231.284 143.008 231.76 143.012 232.24C143.016 232.72 143.115 233.194 143.302 233.636C143.489 234.077 143.762 234.478 144.104 234.814C144.446 235.151 144.851 235.416 145.296 235.596C145.741 235.776 146.217 235.867 146.697 235.862C147.319 235.825 147.923 235.635 148.454 235.309L148.517 235.274L149.555 235.738L149.319 234.714L149.368 234.665C149.849 234.141 150.165 233.487 150.279 232.785C150.393 232.082 150.299 231.362 150.008 230.712C149.718 230.063 149.243 229.513 148.644 229.129C148.044 228.746 147.346 228.546 146.634 228.555Z" fill="#263238"/>
<path d="M159.014 235.599L157.394 231.648L154.363 228.88L161.726 228.824L159.014 235.599ZM155.048 229.143L157.636 231.516L159.02 234.879L161.332 229.094L155.048 229.143Z" fill="#263238"/>
<path d="M161.58 228.812L157.566 231.424L157.714 231.65L161.727 229.038L161.58 228.812Z" fill="#263238"/>
<path d="M138.351 229.744C138.246 229.214 137.957 228.739 137.534 228.403C137.112 228.067 136.583 227.892 136.044 227.909C135.504 227.927 134.988 228.136 134.588 228.498C134.188 228.861 133.93 229.354 133.86 229.89C133.78 229.356 133.514 228.869 133.109 228.513C132.704 228.158 132.185 227.958 131.646 227.948C131.107 227.939 130.583 228.122 130.166 228.463C129.748 228.805 129.466 229.283 129.369 229.813C129.265 230.596 129.465 231.389 129.929 232.028C130.393 232.658 130.935 233.228 131.541 233.723C132.365 234.415 133.119 235.107 133.943 235.848C134.745 235.114 135.437 234.422 136.247 233.682C136.845 233.178 137.378 232.602 137.832 231.966C138.282 231.319 138.468 230.524 138.351 229.744Z" fill="white"/>
<path d="M137.68 106.631C140.439 106.631 142.676 104.394 142.676 101.635C142.676 98.8756 140.439 96.6387 137.68 96.6387C134.92 96.6387 132.684 98.8756 132.684 101.635C132.684 104.394 134.92 106.631 137.68 106.631Z" fill="#EBEBEB"/>
<path d="M224.768 208.465C224.768 208.569 203.828 208.652 178.003 208.652C152.177 208.652 131.23 208.569 131.23 208.465C131.23 208.361 152.17 208.285 178.003 208.285C203.835 208.285 224.768 208.368 224.768 208.465Z" fill="#455A64"/>
<path d="M224.768 200.68C224.768 200.777 203.828 200.86 178.003 200.86C152.177 200.86 131.23 200.777 131.23 200.68C131.23 200.583 152.17 200.5 178.003 200.5C203.835 200.5 224.768 200.583 224.768 200.68Z" fill="#455A64"/>
<path d="M182.141 216.362C182.141 216.458 170.744 216.541 156.689 216.541C142.635 216.541 131.23 216.458 131.23 216.362C131.23 216.265 142.628 216.182 156.689 216.182C170.751 216.182 182.141 216.265 182.141 216.362Z" fill="#455A64"/>
<path d="M175.865 301.221C175.858 301.614 175.735 301.997 175.511 302.32C175.287 302.643 174.973 302.893 174.607 303.039C174.242 303.184 173.842 303.217 173.457 303.136C173.072 303.054 172.72 302.86 172.446 302.578C172.171 302.297 171.986 301.941 171.913 301.554C171.841 301.168 171.884 300.768 172.038 300.406C172.192 300.044 172.449 299.736 172.778 299.52C173.107 299.304 173.492 299.191 173.885 299.193C174.149 299.196 174.409 299.251 174.651 299.354C174.893 299.458 175.112 299.608 175.296 299.796C175.48 299.985 175.625 300.207 175.722 300.452C175.82 300.696 175.868 300.958 175.865 301.221Z" fill="#263238"/>
<path d="M181.995 301.248C181.987 301.639 181.863 302.02 181.64 302.341C181.416 302.662 181.103 302.91 180.739 303.054C180.375 303.198 179.977 303.231 179.594 303.149C179.212 303.067 178.862 302.874 178.588 302.594C178.315 302.314 178.13 301.959 178.058 301.575C177.985 301.19 178.028 300.793 178.181 300.433C178.333 300.072 178.589 299.765 178.915 299.549C179.242 299.334 179.625 299.219 180.016 299.221C180.279 299.223 180.54 299.277 180.782 299.38C181.025 299.483 181.245 299.633 181.429 299.822C181.613 300.01 181.757 300.233 181.855 300.478C181.952 300.723 182 300.985 181.995 301.248Z" fill="#263238"/>
<path d="M188.175 301.276C188.167 301.667 188.043 302.047 187.82 302.368C187.596 302.689 187.283 302.937 186.919 303.081C186.555 303.225 186.157 303.258 185.774 303.176C185.391 303.094 185.041 302.901 184.768 302.621C184.495 302.341 184.31 301.987 184.238 301.602C184.165 301.218 184.208 300.82 184.36 300.46C184.513 300.1 184.768 299.792 185.095 299.577C185.421 299.361 185.804 299.247 186.196 299.248C186.459 299.251 186.719 299.305 186.961 299.409C187.203 299.512 187.422 299.663 187.606 299.851C187.79 300.039 187.935 300.262 188.033 300.507C188.13 300.751 188.178 301.012 188.175 301.276Z" fill="#263238"/>
<path d="M236.4 111.516H125.729V179.193H236.4V111.516Z" fill="#E0E0E0"/>
<path d="M135.949 179.215L167.657 136.768L187.323 163.313L200.644 149.113L226.781 179.187L135.949 179.215Z" fill="#F5F5F5"/>
<path d="M195.656 131.557C195.658 132.972 195.239 134.356 194.454 135.534C193.668 136.711 192.551 137.629 191.244 138.172C189.937 138.715 188.498 138.857 187.109 138.582C185.721 138.307 184.445 137.626 183.444 136.625C182.443 135.625 181.76 134.35 181.484 132.962C181.207 131.574 181.348 130.135 181.89 128.827C182.431 127.519 183.348 126.401 184.525 125.615C185.702 124.828 187.085 124.408 188.501 124.408C190.397 124.408 192.216 125.161 193.558 126.501C194.9 127.842 195.654 129.66 195.656 131.557Z" fill="#F5F5F5"/>
<path d="M236.103 242.097C236.103 240.65 236.034 179.512 235.937 88.9984L236.103 89.1645H125.445L125.625 88.9846C125.625 146.241 125.625 199.227 125.625 242.083L125.473 241.937L236.144 242.083L125.473 242.235H125.328V242.083C125.328 199.227 125.328 146.241 125.293 88.9846V88.8047H125.487H236.144H236.311V88.9638C236.276 134.269 236.248 172.557 236.227 199.532C236.227 212.998 236.193 223.634 236.186 230.914C236.186 234.54 236.186 237.329 236.186 239.218C236.186 240.152 236.186 240.865 236.186 241.349C236.186 241.834 236.103 242.097 236.103 242.097Z" fill="#263238"/>
<path d="M184.071 261.092L186.52 252.864C186.949 251.079 187.517 248.975 188.278 246.574C188.97 244.415 190.728 242.145 192.333 240.512C194.831 237.972 196.022 237.959 197.696 236.609C197.848 236.512 198.021 236.367 198.167 236.291C198.483 236.118 198.761 235.883 198.983 235.599C200.43 234.035 199.039 231.606 196.098 231.841C193.89 232.014 190.278 232.644 184.41 238.699C184.334 238.796 184.258 238.872 184.188 238.962C181.109 242.969 178.216 231.537 177.69 227.281C177.588 226.621 177.339 225.993 176.962 225.443C176.584 224.893 176.087 224.435 175.508 224.102C174.93 223.77 174.283 223.572 173.618 223.524C172.952 223.475 172.284 223.577 171.663 223.821L157.366 230.506C156.003 230.11 154.549 230.159 153.214 230.644C152.214 230.995 151.38 231.707 150.876 232.64C150.372 233.572 150.234 234.659 150.488 235.689L156.294 258.809L139.264 315.483H175.974L184.071 261.092Z" fill="#FFBE9D"/>
<path d="M212.305 209.04L200.956 231.281L195.282 229.703L166.771 252.906C165.608 253.858 164.119 254.319 162.621 254.189C161.123 254.06 159.734 253.351 158.751 252.214L147.887 239.599C147.887 239.599 169.789 230.167 173.837 222.361C177.885 214.555 173.207 212.777 173.207 212.777L183.511 201.068L212.305 209.04Z" fill="white"/>
<path d="M197.586 163.617C197.586 163.617 180.978 159.943 157.595 137.466C134.213 114.99 123.237 85.1166 120.407 85.2827C117.577 85.4488 105.052 79.629 81.2884 131.315C57.5251 183 66.8879 194.979 71.6004 194.909C76.3129 194.84 108.429 185.865 128.483 188.142C148.537 190.418 174.314 200.874 174.314 200.874L197.586 163.617Z" fill="white"/>
<path d="M232.87 191.788L227.203 202.563L224.663 207.407C222.987 210.595 220.151 213.019 216.74 214.178C213.329 215.337 209.604 215.142 206.332 213.635L170.729 201.227L191.489 153.895L227.057 172.848C230.33 174.599 232.777 177.573 233.866 181.121C234.955 184.669 234.597 188.503 232.87 191.788Z" fill="white"/>
<g opacity="0.4">
<path d="M232.87 191.788L227.203 202.563L224.663 207.407C222.987 210.595 220.151 213.019 216.74 214.178C213.329 215.337 209.604 215.142 206.332 213.635L170.729 201.227L191.489 153.895L227.057 172.848C230.33 174.599 232.777 177.573 233.866 181.121C234.955 184.669 234.597 188.503 232.87 191.788Z" fill="black"/>
</g>
<path d="M83.1843 132.255C70.5415 160.254 65.2754 185.207 71.4203 187.982C77.5653 190.757 92.81 170.315 105.453 142.31C118.096 114.305 123.362 89.3652 117.217 86.5833C111.072 83.8015 95.8272 104.257 83.1843 132.255Z" fill="white"/>
<g opacity="0.5">
<path d="M83.1843 132.255C70.5415 160.254 65.2754 185.207 71.4203 187.982C77.5653 190.757 92.81 170.315 105.453 142.31C118.096 114.305 123.362 89.3652 117.217 86.5833C111.072 83.8015 95.8272 104.257 83.1843 132.255Z" fill="black"/>
</g>
<path d="M235.929 207.358L226.275 204.327L232.247 192.979L239.486 197.477L235.929 207.358Z" fill="white"/>
<g opacity="0.6">
<path d="M232.247 192.979L226.275 204.327L228.261 204.95L233.112 193.511L232.247 192.979Z" fill="black"/>
</g>
<path d="M225.591 195.594C225.453 195.906 220.636 194.037 214.837 191.442C209.038 188.847 204.457 186.439 204.589 186.128C204.72 185.816 209.543 187.691 215.349 190.314C221.155 192.937 225.736 195.283 225.591 195.594Z" fill="white"/>
<path d="M228.566 188.834C228.414 189.139 224.054 187.305 218.83 184.731C213.605 182.156 209.494 179.824 209.647 179.513C209.799 179.201 214.152 181.042 219.376 183.616C224.601 186.191 228.718 188.523 228.566 188.834Z" fill="white"/>
<path d="M221.854 202.688C221.805 202.854 220.657 202.591 218.83 201.996C217.916 201.712 216.83 201.353 215.633 200.944C214.436 200.536 213.211 199.886 211.889 199.284C206.609 196.834 202.575 194.44 202.706 194.149C202.838 193.858 207.177 195.734 212.394 198.162C213.709 198.758 214.927 199.408 216.076 199.886C217.224 200.363 218.255 200.785 219.12 201.173C220.85 201.968 221.902 202.522 221.854 202.688Z" fill="white"/>
<path d="M108.962 126.034C108.962 126.034 94.5272 117.079 86.6315 136.587C78.7357 156.094 93.9182 159.298 93.9182 159.298C100.475 148.974 105.539 137.775 108.962 126.034Z" fill="white"/>
<g opacity="0.5">
<path d="M124.317 102.783C124.407 102.783 124.2 104.126 123.757 106.513C123.314 108.9 122.65 112.354 121.722 116.602L119.716 123.432C119.351 124.655 118.975 125.921 118.588 127.232L117.999 129.218C117.785 129.91 117.501 130.539 117.252 131.211L113.993 139.625C113.709 140.359 113.418 141.092 113.135 141.833C112.851 142.573 112.443 143.279 112.117 144.013L109.972 148.441L107.82 152.863C107.453 153.555 107.128 154.33 106.734 155.008C106.339 155.687 105.924 156.392 105.53 157.05L100.928 164.821C100.554 165.43 100.236 166.06 99.8205 166.641L98.6234 168.336L96.3259 171.575L92.1739 177.367C89.4059 180.709 87.0946 183.346 85.503 185.18C84.7213 186.173 83.8579 187.099 82.9219 187.948C83.5724 186.867 84.3132 185.844 85.1363 184.889C86.6725 182.931 88.8385 180.19 91.4958 176.82L95.4748 170.987L97.703 167.741C98.0905 167.188 98.478 166.62 98.8725 166.046C99.2669 165.471 99.5645 164.842 99.9451 164.226L104.492 156.462L105.675 154.427C106.083 153.735 106.367 153.043 106.747 152.296L108.879 147.902C109.571 146.414 110.311 144.954 111.017 143.507C111.349 142.815 111.751 142.082 112.027 141.348L112.892 139.162L116.2 130.858C116.456 130.166 116.747 129.55 116.968 128.885C117.19 128.221 117.377 127.571 117.577 126.92L118.754 123.163L120.878 116.416L123.279 106.451C123.52 105.201 123.867 103.974 124.317 102.783Z" fill="black"/>
</g>
<g opacity="0.4">
<path d="M151.332 238.048C152.654 240.442 153.996 242.892 155.941 244.781C157.885 246.67 160.543 248.013 163.311 247.736C166.079 247.459 168.604 245.203 168.632 242.477C169.933 243.453 171.933 242.927 173.012 241.702C174.092 240.477 174.445 238.782 174.569 237.155C176.341 238.2 178.804 237.377 179.988 235.695C180.531 234.819 180.875 233.834 180.994 232.811C181.114 231.787 181.007 230.749 180.68 229.772C180.005 227.826 179.047 225.991 177.836 224.326C179.22 224.436 180.645 224.533 181.863 223.917C183.081 223.302 183.939 221.682 183.199 220.52C182.712 219.871 182.006 219.42 181.213 219.253C179.074 218.561 177.58 218.049 175.351 218.305C174.839 218.305 176.244 224.173 162.286 232.187C154.003 236.927 151.332 238.048 151.332 238.048Z" fill="black"/>
</g>
<path d="M182.764 246.491C182.764 246.553 181.83 246.373 180.321 246.415C178.361 246.462 176.433 246.924 174.665 247.773C172.897 248.621 171.329 249.835 170.066 251.335C169.09 252.484 168.682 253.321 168.592 253.286C168.649 253.071 168.74 252.865 168.862 252.677C169.158 252.15 169.493 251.646 169.865 251.169C171.109 249.59 172.698 248.318 174.511 247.449C176.324 246.581 178.311 246.139 180.321 246.159C180.925 246.163 181.527 246.218 182.12 246.325C182.343 246.342 182.561 246.398 182.764 246.491Z" fill="#EB996E"/>
<path d="M152.238 234.306C154.487 236.465 156.024 238.852 158.383 241.025C159.456 242.014 161.151 243.883 162.535 244.132C163.919 244.381 164.888 244.194 165.455 242.852C165.919 241.765 165.089 240.278 164.521 239.392C163.02 237.032 161.58 235.191 160.459 233.358C159.926 232.499 160.611 232.32 160.861 232.721C161.94 233.842 163.559 234.797 164.528 236.036C165.857 237.703 166.092 239.925 169.566 239.219C170.031 239.143 170.471 238.961 170.853 238.686C172.161 237.683 172.237 235.918 171.67 234.534C171.18 233.466 170.526 232.48 169.732 231.614C171.213 233.281 172.825 235.074 175.178 235.226C175.843 235.306 176.516 235.179 177.105 234.86C177.694 234.541 178.169 234.048 178.465 233.447C179.157 231.87 178.168 230.34 177.164 229.109C175.388 226.918 173.412 224.898 171.261 223.074C170.458 222.4 169.445 222.025 168.396 222.016C167.179 222.016 165.628 222.237 164.936 223.289C164.541 223.796 164.253 224.379 164.09 225.001C163.927 225.623 163.893 226.272 163.988 226.908C163.988 226.908 160.944 225.365 158.494 226.977C156.986 228.036 155.902 229.596 155.435 231.378L152.238 234.306Z" fill="#FFBE9D"/>
<path d="M168.467 221.35C167.98 220.785 167.678 220.084 167.601 219.342C167.525 218.599 167.677 217.851 168.038 217.198C168.557 216.181 169.208 215.191 169.872 214.97C172.771 213.994 185.449 216.188 185.331 218.997C185.214 221.807 184.286 223.149 177.415 222.16C176.204 221.987 174.308 221.752 174.308 221.752L172.647 224.243L168.467 221.35Z" fill="#FFBE9D"/>
<path d="M170.736 233.129C169.072 230.385 166.646 228.185 163.754 226.797C164.226 226.873 164.68 227.032 165.096 227.267C167.179 228.275 168.928 229.86 170.134 231.835C170.413 232.225 170.618 232.664 170.736 233.129Z" fill="#EB996E"/>
<path d="M172.868 224.485C172.806 224.54 171.969 223.862 170.827 223.163C170.349 222.861 169.855 222.586 169.346 222.34C168.951 222.16 168.689 222.111 168.695 222.056C168.702 222 168.993 221.973 169.429 222.104C169.99 222.285 170.525 222.538 171.021 222.859C172.19 223.571 172.958 224.409 172.868 224.485Z" fill="#EB996E"/>
<path d="M175 221.869C174.175 221.965 173.339 221.871 172.557 221.592C171.985 221.417 171.453 221.13 170.993 220.748C170.647 220.451 170.502 220.208 170.536 220.174C171.202 220.604 171.915 220.957 172.661 221.226C173.454 221.388 174.235 221.603 175 221.869Z" fill="#EB996E"/>
<path d="M162.682 236.608C162.245 236.15 161.858 235.646 161.526 235.107C160.736 233.828 159.737 232.692 158.571 231.744C157.363 230.859 155.865 230.464 154.378 230.636C153.768 230.746 153.175 230.934 152.613 231.197C152.613 231.197 152.738 231.052 153.022 230.879C153.426 230.633 153.871 230.465 154.336 230.38C155.111 230.255 155.903 230.286 156.666 230.47C157.428 230.654 158.147 230.988 158.779 231.453C159.983 232.421 160.989 233.612 161.741 234.961C162.1 235.483 162.415 236.034 162.682 236.608Z" fill="#EB996E"/>
<path d="M172.377 264.635C170.671 264.998 168.941 265.245 167.201 265.375C165.471 265.626 163.725 265.755 161.977 265.763C163.686 265.4 165.417 265.153 167.16 265.022C168.888 264.776 170.631 264.646 172.377 264.635Z" fill="#EB996E"/>
<path d="M281.387 34.4902L282.169 35.9227L283.595 36.7046L282.169 37.4866L281.387 38.9121L280.605 37.4866L279.18 36.7046L280.605 35.9227L281.387 34.4902Z" fill="white"/>
<path d="M297.726 69.9004L298.508 71.3328L299.934 72.1148L298.508 72.8967L297.726 74.3223L296.944 72.8967L295.512 72.1148L296.944 71.3328L297.726 69.9004Z" fill="white"/>
<path d="M35.9145 164.371L36.6965 165.804L38.1289 166.585L36.6965 167.361L35.9145 168.793L35.1326 167.361L33.707 166.585L35.1326 165.804L35.9145 164.371Z" fill="white"/>
<path d="M259.956 43.293L261.762 46.5938L265.062 48.3999L261.762 50.1991L259.956 53.5L258.156 50.1991L254.855 48.3999L258.156 46.5938L259.956 43.293Z" fill="white"/>
<path d="M50.558 141.93L52.3572 145.217L55.6511 147.016L52.3572 148.822L50.558 152.109L48.7588 148.822L45.4648 147.016L48.7588 145.217L50.558 141.93Z" fill="white"/>
<path d="M302.169 220.445L303.969 223.739L307.256 225.538L303.969 227.338L302.169 230.632L300.37 227.338L297.076 225.538L300.37 223.739L302.169 220.445Z" fill="white"/>
<path fill-rule="evenodd" clip-rule="evenodd" d="M257.879 232.793C257.879 234.229 258.654 233.691 258.957 234.351C259.011 234.467 259.047 234.589 259.114 234.736C259.638 235.816 260.388 236.768 261.312 237.528C260.937 237.73 260.743 237.949 260.362 238.139C258.587 238.843 257.083 240.105 256.074 241.737C255.639 242.393 255.277 243.096 254.996 243.833H255.717C256.106 242.815 256.663 241.871 257.364 241.041C257.824 240.497 259.144 239.269 259.865 239.104C259.138 240.491 259.568 241.468 259.368 241.969C259.169 242.47 258.963 242.104 258.963 242.922C258.963 243.973 260.949 244.401 260.949 242.745C260.955 242.647 260.941 242.549 260.906 242.458C260.872 242.366 260.818 242.283 260.749 242.214C260.41 241.798 260.144 242.012 260.059 241.358C259.974 240.705 260.404 238.774 261.222 238.554C261.089 238.938 260.998 239.336 260.949 239.739C260.945 240.29 261.151 240.82 261.524 241.222C261.897 241.623 262.409 241.865 262.953 241.896C263.504 241.888 264.031 241.671 264.429 241.288C264.828 240.905 265.068 240.385 265.103 239.831C265.103 239.379 264.843 239.067 264.831 238.554C265.23 238.768 265.255 238.768 265.436 239.165C265.62 239.472 265.742 239.813 265.794 240.167C264.461 240.485 264.903 241.817 264.352 242.544C264.304 242.605 264.298 242.574 264.237 242.696C264.184 242.781 264.152 242.877 264.144 242.977C264.136 243.077 264.152 243.178 264.192 243.27C264.232 243.362 264.293 243.442 264.371 243.505C264.449 243.567 264.541 243.609 264.639 243.627C264.737 243.645 264.838 243.638 264.933 243.607C265.027 243.577 265.113 243.523 265.182 243.451C265.251 243.379 265.302 243.291 265.329 243.194C265.357 243.098 265.36 242.996 265.34 242.898C265.34 242.507 265.103 242.898 265.188 242.214C265.521 239.703 267.877 240.485 267.52 242.269C267.405 242.843 267.453 242.8 267.223 243.069C266.357 244.089 268.228 244.492 268.228 243.539C268.228 242.837 267.925 243.662 268.186 242.122C268.263 241.678 268.176 241.22 267.94 240.837C267.705 240.454 267.337 240.172 266.908 240.045C266.006 239.813 266.72 240.326 266.066 239.08C266.72 239.257 268.071 240.54 268.525 241.059C269.202 241.899 269.77 242.823 270.214 243.808H270.82C270.402 241.975 268.337 239.721 266.617 238.67C266.287 238.478 265.943 238.31 265.588 238.169C265.218 237.992 264.946 237.626 264.595 237.558C265.545 236.83 266.309 235.883 266.823 234.797C267.38 233.575 267.211 234.327 267.78 233.765C268.634 232.915 267.617 232.103 267.592 232.079C267.18 231.468 268.373 226 263.42 226C262.209 226 261.228 225.933 260.156 226.611C258.896 227.399 258.472 228.993 258.46 230.545C258.46 232.928 257.824 231.859 257.824 232.818M258.999 231.455C258.999 230.02 259.078 228.792 259.647 227.918C259.968 227.488 260.39 227.145 260.875 226.92C261.361 226.695 261.894 226.595 262.427 226.629C264.195 226.629 263.499 226.629 265.049 226.99L264.595 227.264C264.661 228.046 264.934 228.676 264.51 229.366C264.159 229.934 263.48 230.014 262.766 230.154C260.864 230.521 260.719 230.325 259.054 231.431L258.999 231.455ZM262.79 237.565C262.165 237.384 261.587 237.065 261.1 236.63C260.056 235.573 259.346 234.227 259.06 232.763C258.993 232.317 259.381 231.944 259.756 231.688C260.792 230.973 262.475 230.912 263.807 230.576C265.249 230.215 265.624 228.792 265.224 227.185C266.714 227.588 266.763 230.851 266.763 232.011C266.817 234.431 264.722 237.528 262.844 237.528L262.79 237.565ZM258.46 232.561C258.46 233.044 258.539 233.068 258.551 233.471C258.455 233.42 258.377 233.339 258.328 233.24C258.279 233.142 258.262 233.03 258.278 232.922C258.333 232.677 258.297 232.744 258.515 232.524L258.46 232.561ZM267.302 233.557C267.356 233.343 267.362 233.3 267.411 233.032L267.574 232.561C267.798 233.251 267.774 233.172 267.38 233.52L267.302 233.557ZM261.524 239.935C261.524 239.238 261.96 238.609 261.978 237.931C263.069 238.457 263.365 238.035 263.965 238.023C264.044 239 264.922 239.856 263.965 240.827C263.842 240.967 263.693 241.079 263.525 241.157C263.357 241.235 263.175 241.276 262.99 241.279C262.616 241.255 262.26 241.112 261.972 240.87C261.748 240.593 261.611 240.254 261.579 239.898L261.524 239.935ZM259.544 242.935C259.544 242.287 260.15 242.55 260.265 242.574C260.265 242.91 260.343 243.185 259.992 243.185C259.641 243.185 259.599 243.038 259.599 242.898L259.544 242.935Z" fill="white"/>
<rect x="33.3203" y="246.352" width="71.7583" height="22.9905" rx="5" fill="#395987"/>
<g clip-path="url(#clip0_10275_62812)">
<path d="M64.5488 263.955V263.881H64.785V262.128H64.5609V262.055H65.324V262.128H65.0696V263.881H65.4572C65.5707 263.89 65.6832 263.855 65.7721 263.784C65.8583 263.678 65.9148 263.552 65.9356 263.417H65.9901L65.9598 263.955H64.5488Z" fill="white"/>
<path d="M66.1504 263.955V263.881H66.3623V262.128H66.1504V262.055H67.5493V262.513H67.4887C67.4814 262.4 67.4341 262.294 67.3555 262.214C67.2498 262.15 67.1272 262.12 67.0043 262.128H66.6712V262.934H66.7317C66.8235 262.942 66.9151 262.918 66.9921 262.867C67.048 262.8 67.08 262.716 67.083 262.629H67.1435V263.344H67.083C67.085 263.296 67.0775 263.248 67.0609 263.202C67.0443 263.157 67.0188 263.116 66.9861 263.081C66.9 263.019 66.7945 262.991 66.6894 263.002V263.002V263.881H67.089C67.2121 263.893 67.335 263.858 67.4342 263.784C67.525 263.679 67.582 263.549 67.5977 263.411H67.6583L67.628 263.955H66.1504Z" fill="white"/>
<path d="M68.1604 263.955V263.881H68.3966V262.128H68.2997C68.2463 262.123 68.1925 262.13 68.1415 262.146C68.0905 262.163 68.0434 262.19 68.003 262.226C67.9206 262.337 67.8685 262.467 67.8516 262.605H67.791V262.055H69.2384V262.605H69.1718C69.1616 262.469 69.1132 262.34 69.0325 262.232C68.9426 262.157 68.8277 262.12 68.7115 262.128H68.6328V263.881H68.869V263.955H68.1604Z" fill="white"/>
<path d="M69.4865 263.961H69.4381V263.466H69.4926C69.5287 263.595 69.6026 263.71 69.7045 263.796C69.7959 263.874 69.9117 263.917 70.0315 263.918C70.1569 263.922 70.2787 263.876 70.3707 263.79C70.4157 263.752 70.4517 263.704 70.4759 263.65C70.5 263.596 70.5116 263.537 70.5099 263.478C70.5099 263.331 70.3707 263.215 70.0861 263.124H70.0376C69.8637 263.078 69.7009 262.997 69.5592 262.886C69.5179 262.842 69.4858 262.79 69.465 262.733C69.4442 262.676 69.435 262.616 69.4381 262.556C69.4358 262.484 69.4487 262.412 69.4758 262.346C69.503 262.28 69.5438 262.22 69.5955 262.171C69.6479 262.121 69.7098 262.082 69.7774 262.057C69.8451 262.032 69.9171 262.02 69.9892 262.024C70.1099 262.024 70.228 262.06 70.3283 262.128H70.3646L70.4191 262.061H70.4797V262.513H70.4312C70.3977 262.396 70.3302 262.292 70.2374 262.214C70.151 262.146 70.0438 262.112 69.9347 262.116C69.8347 262.112 69.7371 262.147 69.6621 262.214C69.6277 262.241 69.6 262.277 69.5811 262.317C69.5622 262.357 69.5526 262.401 69.5531 262.446C69.5512 262.482 69.5579 262.518 69.5727 262.551C69.5874 262.584 69.6098 262.613 69.6379 262.635C69.7203 262.698 69.8154 262.742 69.9165 262.763H70.0013C70.1531 262.792 70.2987 262.848 70.4312 262.928C70.4907 262.976 70.5385 263.036 70.5705 263.105C70.6031 263.183 70.6196 263.266 70.619 263.35C70.6244 263.436 70.6116 263.523 70.5813 263.604C70.551 263.685 70.504 263.759 70.4433 263.82C70.3825 263.881 70.3095 263.929 70.2291 263.959C70.1487 263.99 70.0628 264.003 69.977 263.997C69.8435 263.995 69.7132 263.955 69.6016 263.881H69.5713L69.4865 263.961Z" fill="white"/>
<path d="M73.2653 263.282H74.0162V263.355H73.8466C73.8507 263.444 73.8354 263.533 73.8019 263.615C73.7685 263.697 73.7176 263.771 73.6528 263.832C73.4995 263.952 73.3075 264.011 73.1139 263.997C72.9998 264.002 72.8859 263.982 72.781 263.936C72.676 263.891 72.5828 263.821 72.5083 263.734C72.3528 263.534 72.2733 263.285 72.2842 263.032C72.2841 262.898 72.3066 262.766 72.3508 262.641C72.3918 262.521 72.4533 262.409 72.5325 262.311C72.6083 262.22 72.7008 262.145 72.805 262.091C72.9874 262.013 73.1909 262.002 73.3803 262.06C73.4577 262.089 73.531 262.128 73.5983 262.176L73.7013 262.078H73.7437V262.561H73.6831C73.6536 262.428 73.5862 262.307 73.4893 262.213C73.3927 262.131 73.2701 262.088 73.1441 262.091C73.0616 262.087 72.9797 262.106 72.9079 262.147C72.8361 262.189 72.7773 262.249 72.7384 262.323C72.6387 262.547 72.595 262.792 72.6112 263.038C72.592 263.276 72.6315 263.515 72.7263 263.734C72.7629 263.801 72.8176 263.856 72.8841 263.893C72.9506 263.93 73.0261 263.947 73.1017 263.942C73.1618 263.947 73.2224 263.939 73.2789 263.918C73.3355 263.897 73.3867 263.863 73.4288 263.82C73.504 263.704 73.5381 263.566 73.5257 263.429V263.368H73.2592L73.2653 263.282Z" fill="white"/>
<path d="M74.168 263.955V263.881H74.3799V262.128H74.168V262.055H75.5669V262.513H75.5063C75.499 262.4 75.4517 262.294 75.3731 262.214C75.2674 262.15 75.1448 262.12 75.0218 262.128H74.6706V262.934H74.7251C74.8169 262.943 74.9088 262.919 74.9855 262.867C75.0156 262.836 75.0391 262.798 75.0547 262.757C75.0703 262.716 75.0777 262.673 75.0763 262.629H75.1369V263.344H75.0763C75.0784 263.296 75.0709 263.248 75.0542 263.202C75.0376 263.157 75.0122 263.116 74.9795 263.081C74.8934 263.019 74.7879 262.991 74.6827 263.002V263.002V263.881H75.0763C75.1994 263.893 75.3223 263.858 75.4215 263.784C75.5123 263.679 75.5693 263.549 75.585 263.411H75.6456L75.6153 263.955H74.168Z" fill="white"/>
<path d="M76.178 263.955V263.881H76.4142V262.128H76.3173C76.2639 262.123 76.21 262.13 76.1591 262.146C76.1081 262.163 76.061 262.19 76.0206 262.226C75.9407 262.338 75.8888 262.468 75.8692 262.605H75.8086V262.055H77.262V262.605H77.2015C77.1895 262.469 77.1391 262.339 77.0561 262.232C76.9669 262.156 76.8515 262.118 76.7351 262.128H76.6564V263.881H76.8926V263.955H76.178Z" fill="white"/>
<path d="M78.8828 263.881H79.1069V262.127H78.8949V262.054H79.6943C79.8627 262.045 80.0304 262.083 80.1788 262.164C80.2322 262.196 80.2761 262.242 80.3059 262.296C80.3357 262.351 80.3504 262.413 80.3483 262.476C80.35 262.537 80.3371 262.598 80.3108 262.653C80.2845 262.708 80.2454 262.756 80.1969 262.793C80.072 262.88 79.9244 262.926 79.773 262.928V262.928C79.8968 262.946 80.0136 262.997 80.1122 263.074C80.1928 263.143 80.2465 263.238 80.2635 263.343C80.2681 263.42 80.2681 263.498 80.2635 263.575C80.2519 263.646 80.2519 263.718 80.2635 263.789C80.2707 263.82 80.2877 263.848 80.312 263.868C80.3419 263.876 80.3729 263.876 80.4028 263.868H80.4755H80.5482V263.942C80.5057 263.962 80.4609 263.976 80.4149 263.985H80.2878C80.2351 263.987 80.1828 263.975 80.136 263.95C80.0893 263.925 80.0497 263.889 80.0213 263.844C79.9509 263.706 79.9155 263.553 79.9184 263.398V263.398C79.9248 263.289 79.8926 263.18 79.8275 263.093C79.7906 263.048 79.7425 263.014 79.6882 262.995C79.6328 262.971 79.573 262.958 79.5126 262.958H79.3854V263.881H79.6034V263.954H78.8828V263.881ZM79.3854 262.885H79.555C79.6899 262.898 79.8253 262.868 79.9426 262.799C79.9796 262.758 80.0073 262.71 80.0241 262.657C80.0408 262.605 80.046 262.549 80.0395 262.494C80.0466 262.443 80.0427 262.391 80.0281 262.341C80.0134 262.292 79.9884 262.246 79.9547 262.207C79.8614 262.141 79.7468 262.112 79.6337 262.127H79.3854V262.885Z" fill="white"/>
<path d="M80.7793 263.955V263.881H80.9913V262.128H80.7793V262.055H82.1782V262.513H82.1177C82.1103 262.4 82.063 262.294 81.9844 262.214C81.8787 262.15 81.7562 262.12 81.6332 262.128H81.2759V262.934H81.3364C81.4282 262.942 81.5197 262.918 81.5968 262.867C81.6527 262.8 81.6847 262.716 81.6877 262.629H81.7482V263.344H81.6877C81.6897 263.296 81.6822 263.248 81.6656 263.202C81.6489 263.157 81.6235 263.116 81.5908 263.081C81.5047 263.019 81.3992 262.991 81.294 263.002V263.002V263.881H81.6937C81.8168 263.893 81.9397 263.858 82.0389 263.784C82.1297 263.679 82.1867 263.549 82.2024 263.411H82.263L82.2327 263.955H80.7793Z" fill="white"/>
<path d="M83.8711 263.447H83.9256V263.954H83.8651L83.7742 263.868C83.7142 263.913 83.6464 263.946 83.5744 263.966C83.4917 263.99 83.4059 264 83.32 263.997C83.21 264 83.1008 263.978 83.0009 263.931C82.9011 263.884 82.8134 263.815 82.7447 263.728C82.5886 263.533 82.5089 263.288 82.5207 263.038C82.5181 262.907 82.5386 262.776 82.5812 262.653C82.616 262.536 82.6714 262.426 82.7447 262.329C82.8202 262.234 82.9153 262.157 83.0233 262.103C83.1265 262.05 83.2407 262.023 83.3564 262.023C83.4286 262.023 83.5004 262.035 83.5683 262.06C83.641 262.087 83.7086 262.126 83.7682 262.176L83.8651 262.078H83.9075V262.561H83.8469C83.8197 262.429 83.7544 262.308 83.6592 262.213C83.5736 262.133 83.4609 262.089 83.3443 262.091C83.2643 262.087 83.1853 262.108 83.1172 262.151C83.0492 262.193 82.9954 262.255 82.9627 262.329C82.8702 262.574 82.8309 262.837 82.8477 263.099C82.8398 263.229 82.8398 263.359 82.8477 263.49C82.8598 263.569 82.8865 263.646 82.9264 263.716C82.963 263.781 83.0177 263.834 83.0839 263.868C83.1469 263.91 83.2207 263.931 83.2958 263.93C83.4219 263.933 83.5449 263.89 83.641 263.807C83.7441 263.71 83.8176 263.585 83.853 263.447" fill="white"/>
<path d="M84.2344 263.881H84.4584V262.128H84.2344V262.055H85.0277C85.1963 262.044 85.3644 262.082 85.5122 262.164C85.5667 262.195 85.6118 262.241 85.6428 262.296C85.6737 262.351 85.6893 262.413 85.6878 262.476C85.6883 262.538 85.6742 262.599 85.6469 262.654C85.6195 262.709 85.5796 262.757 85.5303 262.794C85.4071 262.879 85.2618 262.926 85.1125 262.928V262.928C85.2347 262.945 85.35 262.996 85.4455 263.075C85.5279 263.142 85.582 263.238 85.5969 263.344C85.6053 263.421 85.6053 263.499 85.5969 263.576C85.5863 263.647 85.5863 263.719 85.5969 263.79C85.6061 263.821 85.6252 263.849 85.6514 263.869C85.6813 263.876 85.7124 263.876 85.7423 263.869H85.8089H85.8876V263.942C85.8431 263.962 85.7963 263.976 85.7483 263.985H85.6272C85.5743 263.988 85.5215 263.977 85.4746 263.952C85.4276 263.927 85.3883 263.89 85.3608 263.845C85.2875 263.708 85.2519 263.554 85.2578 263.399V263.399C85.2642 263.289 85.2321 263.181 85.167 263.093C85.1301 263.048 85.082 263.015 85.0277 262.995C84.9704 262.97 84.9085 262.958 84.846 262.959H84.6825V263.881H84.9005V263.954H84.2344V263.881ZM84.737 262.885H84.9005C85.0354 262.899 85.1711 262.869 85.2881 262.8C85.353 262.711 85.388 262.604 85.388 262.494C85.388 262.384 85.353 262.277 85.2881 262.189C85.1922 262.123 85.076 262.095 84.9611 262.11H84.7188L84.737 262.885Z" fill="white"/>
<path d="M86.3276 263.472V262.128H86.1035V262.055H86.8121V262.128H86.6001V263.46C86.5913 263.58 86.6257 263.699 86.697 263.796C86.7364 263.834 86.7831 263.863 86.8341 263.882C86.8851 263.901 86.9395 263.909 86.9937 263.906C87.0581 263.911 87.1228 263.901 87.1827 263.876C87.2426 263.852 87.2961 263.814 87.3389 263.765C87.4261 263.645 87.467 263.498 87.454 263.35V262.128H87.2602V262.055H87.7749V262.128H87.563V263.35C87.5758 263.525 87.5192 263.699 87.4055 263.832C87.3412 263.889 87.2663 263.933 87.1852 263.96C87.1041 263.987 87.0184 263.998 86.9332 263.991C86.7772 264.002 86.6232 263.952 86.5032 263.851C86.4497 263.802 86.4077 263.741 86.3805 263.673C86.3532 263.606 86.3414 263.533 86.3457 263.46" fill="white"/>
<path d="M87.9629 263.955V263.881H88.1991V262.128H87.9629V262.055H88.7259V262.128H88.4837V263.881H88.7259V263.955H87.9629Z" fill="white"/>
<path d="M89.2151 263.955V263.881H89.4513V262.128H89.3544C89.301 262.123 89.2472 262.13 89.1962 262.146C89.1452 262.163 89.0981 262.19 89.0577 262.226C88.9778 262.338 88.9259 262.468 88.9063 262.605H88.8457V262.055H90.2991V262.605H90.287C90.278 262.468 90.2272 262.338 90.1417 262.232C90.0525 262.156 89.9371 262.118 89.8207 262.128H89.742V263.881H89.9721V263.955H89.2151Z" fill="white"/>
<path d="M90.5059 263.955V263.881H90.7178V262.128H90.5059V262.055H91.8987V262.513H91.8382C91.8331 262.4 91.7854 262.293 91.7049 262.214C91.6003 262.147 91.4769 262.117 91.3537 262.128H91.0024V262.934H91.0569C91.1488 262.943 91.2406 262.919 91.3174 262.867C91.3474 262.836 91.3709 262.798 91.3865 262.757C91.4021 262.716 91.4095 262.673 91.4082 262.629H91.4688V263.344H91.4082C91.4117 263.295 91.4049 263.247 91.3882 263.202C91.3715 263.156 91.3452 263.115 91.3113 263.081C91.2257 263.018 91.1198 262.99 91.0146 263.002V263.002V263.881H91.4142C91.5354 263.892 91.6563 263.857 91.7534 263.784C91.8441 263.679 91.9012 263.549 91.9169 263.411H91.9835V263.955H90.5059Z" fill="white"/>
<path d="M92.4522 263.882V262.128H92.2402V262.055H92.9245C93.051 262.046 93.1778 262.063 93.2975 262.105C93.4172 262.147 93.5272 262.213 93.621 262.299C93.7071 262.39 93.7737 262.497 93.8165 262.615C93.8592 262.733 93.8772 262.858 93.8693 262.984C93.8725 263.145 93.8415 263.305 93.7784 263.454C93.7198 263.591 93.6282 263.71 93.512 263.802C93.441 263.855 93.3609 263.895 93.2758 263.918C93.1709 263.945 93.063 263.957 92.9548 263.955H92.2402V263.882H92.4522ZM92.7368 262.128V263.882H92.9427C93.0264 263.882 93.1098 263.871 93.191 263.851C93.2566 263.837 93.3172 263.805 93.3666 263.759C93.4366 263.698 93.4871 263.617 93.512 263.527C93.546 263.352 93.5602 263.174 93.5544 262.996C93.5597 262.832 93.5475 262.668 93.518 262.507C93.4977 262.421 93.4561 262.341 93.3969 262.275C93.3413 262.224 93.275 262.187 93.2031 262.165C93.1087 262.138 93.0106 262.125 92.9124 262.128H92.7368Z" fill="white"/>
<path d="M54.7168 260.739V260.41H55.6555V252.394H54.7168V252.064H57.3087L59.1255 258.479L61.0633 252.064H63.5886V252.394H62.5773V260.41H63.5886V260.739H60.379V260.41H61.348V252.51H61.2995L58.8106 260.739H58.4835L56.1641 252.51H56.0612V260.41H57.0301V260.739H54.7168Z" fill="white"/>
<path d="M65.8677 257.454H68.29V257.326C68.3222 256.922 68.2291 256.519 68.0235 256.171C67.919 256.046 67.7863 255.949 67.6366 255.888C67.4869 255.826 67.3246 255.802 67.1636 255.817C66.9854 255.806 66.8071 255.837 66.6431 255.908C66.4791 255.979 66.3338 256.088 66.2189 256.226C65.9731 256.585 65.842 257.011 65.8434 257.448M65.801 257.814V258.236C65.7481 258.866 65.8652 259.5 66.1402 260.069C66.2712 260.25 66.4469 260.393 66.6499 260.484C66.8528 260.575 67.0759 260.611 67.2968 260.588C67.7316 260.605 68.1591 260.471 68.508 260.209C68.8436 259.942 69.0786 259.567 69.1741 259.146H69.4648C69.3752 259.667 69.1021 260.138 68.6957 260.472C68.1853 260.806 67.579 260.96 66.9725 260.908C66.366 260.856 65.7939 260.601 65.3468 260.185C65.1084 259.952 64.9198 259.673 64.7927 259.364C64.6656 259.055 64.6028 258.723 64.608 258.389C64.593 257.657 64.8625 256.949 65.3589 256.415C65.5881 256.159 65.8686 255.955 66.1817 255.816C66.4948 255.677 66.8336 255.606 67.1757 255.609C67.4676 255.593 67.7598 255.635 68.0353 255.733C68.3108 255.832 68.5641 255.985 68.7805 256.183C69.2042 256.635 69.4478 257.229 69.4648 257.851L65.801 257.814Z" fill="white"/>
<path d="M75.3361 251.938V260.435H76.0447V260.741C75.651 260.741 75.324 260.741 75.0576 260.741C74.8178 260.761 74.5793 260.793 74.343 260.839V259.904C74.1798 260.201 73.9398 260.447 73.6486 260.617C73.3575 260.787 73.0261 260.874 72.6897 260.869C72.3695 260.873 72.0522 260.806 71.7603 260.673C71.4684 260.54 71.2089 260.344 71.0001 260.099C70.5438 259.589 70.2951 258.923 70.3037 258.236C70.2851 257.543 70.5324 256.869 70.9941 256.354C71.2081 256.112 71.4714 255.919 71.7661 255.788C72.0608 255.657 72.3799 255.592 72.7018 255.597C73.0434 255.589 73.3807 255.675 73.6768 255.847C73.9464 256.023 74.1574 256.276 74.2824 256.574V252.341H73.4346V252.072H73.6465C73.9191 252.072 74.1916 252.072 74.4641 252.072C74.7366 252.072 75.0212 252.017 75.3059 251.974M74.3006 259.232V257.466C74.301 257.264 74.2603 257.064 74.1812 256.878C74.102 256.692 73.9861 256.524 73.8403 256.385C73.7034 256.237 73.5373 256.119 73.3528 256.039C73.1683 255.959 72.9693 255.919 72.7685 255.921C72.5699 255.905 72.371 255.946 72.1944 256.039C72.0178 256.132 71.8705 256.273 71.7692 256.446C71.5459 257.014 71.4587 257.628 71.5149 258.236C71.4677 258.873 71.5737 259.512 71.8237 260.099C71.9273 260.278 72.079 260.423 72.2613 260.519C72.4435 260.614 72.6488 260.655 72.8532 260.637C73.2404 260.633 73.6103 260.475 73.8827 260.197C74.0238 260.072 74.1368 259.918 74.214 259.745C74.2913 259.572 74.3311 259.385 74.3309 259.195L74.3006 259.232Z" fill="white"/>
<path d="M76.8008 260.74V260.41H77.8727V252.394H76.8492V252.064H80.3616V252.394H79.1868V260.41H80.949C81.468 260.449 81.9828 260.29 82.3903 259.964C82.7884 259.488 83.0502 258.911 83.1473 258.296H83.3956L83.2503 260.74H76.8008Z" fill="white"/>
<path d="M83.9727 260.741V260.436H84.8386V255.976H84.0151V255.695H84.2633C84.5358 255.695 84.8084 255.695 85.0809 255.695C85.3534 255.695 85.6017 255.646 85.8439 255.61V260.497H86.6009V260.802L83.9727 260.741ZM84.7417 253.007C84.7395 252.92 84.7556 252.834 84.789 252.754C84.8224 252.674 84.8724 252.602 84.9355 252.543C84.9964 252.483 85.0684 252.436 85.1474 252.405C85.2264 252.373 85.3109 252.358 85.3958 252.36C85.566 252.36 85.7293 252.428 85.8497 252.549C85.9701 252.671 86.0377 252.835 86.0377 253.007C86.0408 253.093 86.0256 253.18 85.9932 253.26C85.9609 253.34 85.912 253.412 85.85 253.471C85.7907 253.533 85.7196 253.582 85.6411 253.616C85.5625 253.65 85.4781 253.667 85.3928 253.667C85.3074 253.667 85.223 253.65 85.1444 253.616C85.0659 253.582 84.9948 253.533 84.9355 253.471C84.8738 253.411 84.8249 253.339 84.7916 253.259C84.7583 253.179 84.7413 253.094 84.7417 253.007V253.007Z" fill="white"/>
<path d="M87.5394 260.74V260.435H88.2359V255.975H87.5273V255.694H87.7635C88.03 255.694 88.2843 255.694 88.5326 255.694C88.7809 255.694 89.005 255.645 89.223 255.608V257.075C89.3749 256.644 89.6435 256.265 89.9981 255.981C90.3315 255.725 90.7423 255.594 91.1609 255.608C91.5502 255.584 91.9333 255.716 92.2267 255.975C92.3599 256.108 92.4634 256.269 92.5302 256.446C92.5971 256.623 92.6257 256.812 92.6143 257.001V260.465H93.3167V260.771H90.8944V260.465H91.6453V256.965C91.6657 256.704 91.595 256.445 91.4455 256.231C91.3682 256.149 91.2738 256.085 91.1691 256.044C91.0644 256.003 90.952 255.986 90.8399 255.993C90.6219 255.998 90.4083 256.056 90.2174 256.163C90.0265 256.269 89.864 256.421 89.7438 256.604C89.4302 257.061 89.269 257.607 89.2835 258.162V260.441H89.98V260.746L87.5394 260.74Z" fill="white"/>
<path d="M94.7031 260.435V252.335H94.0188V252.066L94.7515 252.017L95.7144 251.938V260.435H96.4472V260.741H93.9824V260.435H94.7031ZM95.7628 257.845L97.9853 256.012H97.1254V255.719H99.2692V256.012H98.4577L96.6773 257.515L99.1481 260.46H99.6749V260.765H97.1981V260.46H97.8703L95.7628 257.845Z" fill="white"/>
<path fill-rule="evenodd" clip-rule="evenodd" d="M41.4236 255.621C41.4236 257.057 42.1988 256.519 42.5015 257.179C42.556 257.295 42.5924 257.418 42.659 257.564C43.1833 258.644 43.9333 259.596 44.8573 260.356C44.4818 260.558 44.288 260.778 43.9065 260.967C42.1315 261.671 40.6282 262.933 39.619 264.565C39.1838 265.221 38.8222 265.924 38.541 266.661H39.2617C39.6511 265.643 40.208 264.699 40.9089 263.869C41.3691 263.325 42.6893 262.097 43.4099 261.932C42.6832 263.319 43.1132 264.296 42.9133 264.797C42.7135 265.298 42.5076 264.932 42.5076 265.75C42.5076 266.801 44.4939 267.229 44.4939 265.573C44.5003 265.475 44.4858 265.377 44.4513 265.286C44.4168 265.194 44.3632 265.111 44.2941 265.042C43.955 264.626 43.6885 264.84 43.6037 264.187C43.5189 263.533 43.9489 261.602 44.7664 261.382C44.6343 261.767 44.543 262.164 44.4939 262.568C44.4899 263.118 44.6958 263.649 45.0689 264.05C45.442 264.451 45.9538 264.693 46.4984 264.724C47.0486 264.716 47.5755 264.499 47.974 264.116C48.3725 263.733 48.6132 263.213 48.6482 262.659C48.6482 262.207 48.3878 261.896 48.3757 261.382C48.7754 261.596 48.7996 261.596 48.9813 261.993C49.165 262.3 49.2865 262.641 49.3386 262.995C48.0063 263.313 48.4484 264.645 47.8973 265.372C47.8489 265.433 47.8428 265.402 47.7823 265.524C47.7286 265.609 47.6964 265.705 47.6886 265.805C47.6807 265.905 47.6973 266.006 47.7371 266.098C47.7768 266.19 47.8384 266.271 47.9164 266.333C47.9944 266.395 48.0863 266.437 48.1842 266.455C48.2821 266.473 48.3828 266.466 48.4775 266.436C48.5722 266.405 48.6579 266.351 48.7271 266.279C48.7963 266.207 48.8469 266.119 48.8743 266.022C48.9018 265.926 48.9052 265.824 48.8844 265.726C48.8844 265.335 48.6482 265.726 48.733 265.042C49.0661 262.531 51.4218 263.313 51.0645 265.097C50.9495 265.671 50.9979 265.628 50.7678 265.897C49.9018 266.917 51.7731 267.321 51.7731 266.367C51.7731 265.665 51.4703 266.49 51.7307 264.95C51.8084 264.506 51.721 264.049 51.4852 263.665C51.2495 263.282 50.8819 263 50.4529 262.873C49.5506 262.641 50.2651 263.154 49.6111 261.908C50.2651 262.085 51.6156 263.368 52.0698 263.887C52.7474 264.727 53.3152 265.651 53.7594 266.636H54.365C53.9471 264.804 51.8821 262.549 50.1622 261.498C49.8319 261.306 49.4878 261.138 49.1327 260.998C48.7633 260.82 48.4908 260.454 48.1395 260.387C49.0895 259.658 49.8535 258.711 50.3681 257.625C50.9252 256.403 50.7557 257.155 51.3249 256.593C52.1788 255.744 51.1614 254.931 51.1372 254.907C50.7254 254.296 51.9184 248.828 46.9647 248.828C45.7535 248.828 44.7725 248.761 43.7006 249.439C42.441 250.227 42.0171 251.822 42.005 253.373C42.005 255.756 41.3691 254.687 41.3691 255.646M42.5439 254.284C42.5439 252.848 42.6227 251.62 43.1919 250.746C43.513 250.316 43.9352 249.973 44.4204 249.748C44.9056 249.523 45.4386 249.423 45.9716 249.457C47.7399 249.457 47.0434 249.457 48.5937 249.818L48.1395 250.093C48.2062 250.875 48.4787 251.504 48.0548 252.194C47.7035 252.762 47.0253 252.842 46.3107 252.982C44.4091 253.349 44.2638 253.153 42.5984 254.259L42.5439 254.284ZM46.3349 260.393C45.7097 260.212 45.1324 259.893 44.6453 259.458C43.6012 258.401 42.891 257.055 42.6045 255.591C42.5379 255.145 42.9255 254.772 43.3009 254.516C44.3365 253.801 46.02 253.74 47.3523 253.404C48.7936 253.043 49.169 251.62 48.7694 250.013C50.2591 250.416 50.3076 253.679 50.3076 254.839C50.3621 257.259 48.2667 260.356 46.3894 260.356L46.3349 260.393ZM42.005 255.389C42.005 255.872 42.0837 255.896 42.0958 256.3C41.9995 256.248 41.9216 256.167 41.8728 256.068C41.8239 255.97 41.8067 255.859 41.8233 255.75C41.8778 255.505 41.8415 255.573 42.0595 255.353L42.005 255.389ZM50.8465 256.385C50.901 256.171 50.9071 256.128 50.9555 255.86L51.119 255.389C51.3431 256.08 51.3189 256 50.9252 256.348L50.8465 256.385ZM45.0692 262.763C45.0692 262.067 45.5053 261.437 45.5234 260.759C46.6135 261.285 46.9102 260.863 47.5097 260.851C47.5885 261.828 48.4666 262.684 47.5097 263.655C47.3874 263.795 47.2375 263.907 47.0696 263.985C46.9017 264.063 46.7195 264.104 46.5347 264.107C46.1611 264.083 45.8048 263.94 45.5174 263.698C45.2932 263.421 45.1562 263.083 45.1237 262.726L45.0692 262.763ZM43.089 265.763C43.089 265.115 43.6946 265.378 43.8096 265.402C43.8096 265.738 43.8883 266.013 43.5371 266.013C43.1859 266.013 43.1435 265.867 43.1435 265.726L43.089 265.763Z" fill="white"/>
<path d="M98.4581 253.078H98.2946V252.345H98.0645V252.211H98.6882V252.345H98.4581V253.078Z" fill="white"/>
<path d="M99.6191 253.078H99.4617V252.321L99.2255 253.078H99.1468L98.9045 252.321V253.078H98.7773V252.211H99.0196L99.2013 252.773L99.3769 252.211H99.6191V253.078Z" fill="white"/>
</g>
<defs>
<clipPath id="clip0_10275_62812">
<rect width="61.1339" height="18.1137" fill="white" transform="translate(38.541 248.791)"/>
</clipPath>
</defs>
</svg>
