<svg width="500" height="500" viewBox="0 0 500 500" fill="none" xmlns="http://www.w3.org/2000/svg">
<path d="M437.847 94.5991L435.407 90.5991C414.897 56.7791 377.797 36.3991 338.697 38.8791C333.654 39.1786 328.641 39.847 323.697 40.8791C288.137 48.4891 257.197 75.3791 244.367 109.819C236.827 130.069 234.727 153.389 220.367 169.469C201.747 190.389 170.117 191.049 142.317 190.179C114.517 189.309 82.8666 190.049 64.3166 211.059C52.7866 224.259 49.0966 242.999 49.9966 260.579C52.4766 307.229 84.9966 348.929 126.307 369.659C167.617 390.389 216.307 392.239 261.537 383.129C324.907 370.349 385.177 335.269 421.397 281.129C457.617 226.989 466.827 153.079 437.847 94.5991Z" fill="#F5F5F5"/>
<path d="M409.341 402.658C411.885 387.914 401.995 373.9 387.252 371.356C372.508 368.812 358.494 378.702 355.95 393.445C353.406 408.189 363.296 422.203 378.039 424.747C392.783 427.291 406.797 417.401 409.341 402.658Z" fill="#F5F5F5"/>
<path d="M463.139 467.86C463.139 468 367.709 468.12 250.009 468.12C132.309 468.12 36.8594 468 36.8594 467.86C36.8594 467.72 132.269 467.6 250.009 467.6C367.749 467.6 463.139 467.71 463.139 467.86Z" fill="#263238"/>
<path d="M445.53 65.5996H54.6797V90.6396H445.53V65.5996Z" fill="#E0E0E0"/>
<path d="M445.475 113.639H54.625V332.839H445.475V113.639Z" fill="white"/>
<path d="M54.6797 90.4487H108.35L113.66 74.9688H200.66L205.97 90.4487H445.53V114.169H54.6797V90.4487Z" fill="#EBEBEB"/>
<path d="M67.5831 75.5884C67.5831 76.1699 67.4107 76.7383 67.0876 77.2218C66.7646 77.7053 66.3054 78.0821 65.7682 78.3047C65.231 78.5272 64.6399 78.5854 64.0696 78.472C63.4993 78.3585 62.9754 78.0785 62.5642 77.6673C62.1531 77.2562 61.8731 76.7323 61.7596 76.162C61.6462 75.5917 61.7044 75.0006 61.9269 74.4634C62.1494 73.9262 62.5263 73.467 63.0097 73.1439C63.4932 72.8209 64.0616 72.6485 64.6431 72.6485C65.0296 72.6471 65.4125 72.7223 65.7698 72.8696C66.1271 73.0168 66.4517 73.2333 66.725 73.5066C66.9982 73.7799 67.2147 74.1045 67.362 74.4618C67.5093 74.8191 67.5844 75.202 67.5831 75.5884Z" fill="#263238"/>
<path d="M76.6691 75.5884C76.6691 76.1699 76.4966 76.7383 76.1736 77.2218C75.8505 77.7053 75.3914 78.0821 74.8542 78.3047C74.3169 78.5272 73.7258 78.5854 73.1555 78.472C72.5852 78.3585 72.0613 78.0785 71.6502 77.6673C71.239 77.2562 70.959 76.7323 70.8456 76.162C70.7321 75.5917 70.7903 75.0006 71.0129 74.4634C71.2354 73.9262 71.6122 73.467 72.0957 73.1439C72.5792 72.8209 73.1476 72.6485 73.7291 72.6485C74.1155 72.6471 74.4984 72.7223 74.8557 72.8696C75.213 73.0168 75.5376 73.2333 75.8109 73.5066C76.0842 73.7799 76.3007 74.1045 76.448 74.4618C76.5952 74.8191 76.6704 75.202 76.6691 75.5884Z" fill="#263238"/>
<path d="M85.7628 75.5884C85.7628 76.1699 85.5904 76.7383 85.2673 77.2218C84.9443 77.7053 84.4851 78.0821 83.9479 78.3047C83.4107 78.5272 82.8196 78.5854 82.2492 78.472C81.6789 78.3585 81.1551 78.0785 80.7439 77.6673C80.3327 77.2562 80.0527 76.7323 79.9393 76.162C79.8259 75.5917 79.8841 75.0006 80.1066 74.4634C80.3291 73.9262 80.706 73.467 81.1894 73.1439C81.6729 72.8209 82.2413 72.6485 82.8228 72.6485C83.2093 72.6471 83.5922 72.7223 83.9495 72.8696C84.3068 73.0168 84.6314 73.2333 84.9047 73.5066C85.1779 73.7799 85.3944 74.1045 85.5417 74.4618C85.689 74.8191 85.7641 75.202 85.7628 75.5884Z" fill="#263238"/>
<path d="M402.332 109.448H134.182C132.209 109.448 130.317 108.665 128.921 107.269C127.526 105.874 126.742 103.982 126.742 102.008C126.742 100.035 127.526 98.1428 128.921 96.7475C130.317 95.3522 132.209 94.5684 134.182 94.5684H402.332C404.305 94.5684 406.198 95.3522 407.593 96.7475C408.988 98.1428 409.772 100.035 409.772 102.008C409.772 103.982 408.988 105.874 407.593 107.269C406.198 108.665 404.305 109.448 402.332 109.448Z" fill="#FAFAFA"/>
<path d="M140.599 102.999V105.519H139.329V103.199C139.329 102.489 138.999 102.199 138.439 102.199C137.879 102.199 137.379 102.579 137.379 103.379V105.559H136.109V99.459H137.379V101.579C137.761 101.231 138.263 101.045 138.779 101.059C139.033 101.042 139.288 101.082 139.524 101.175C139.761 101.268 139.974 101.413 140.148 101.598C140.322 101.784 140.453 102.006 140.531 102.248C140.609 102.49 140.632 102.747 140.599 102.999Z" fill="#E0E0E0"/>
<path d="M144.586 105.299C144.288 105.49 143.939 105.587 143.586 105.579C143.368 105.609 143.147 105.589 142.939 105.521C142.731 105.453 142.54 105.339 142.382 105.187C142.225 105.035 142.103 104.849 142.028 104.643C141.952 104.437 141.924 104.217 141.946 103.999V102.199H141.266V101.199H141.946V100.129H143.216V101.199H144.306V102.199H143.216V103.999C143.205 104.075 143.211 104.153 143.235 104.226C143.258 104.299 143.298 104.366 143.35 104.422C143.403 104.478 143.468 104.521 143.54 104.548C143.612 104.575 143.689 104.586 143.766 104.579C143.95 104.581 144.13 104.521 144.276 104.409L144.586 105.299Z" fill="#E0E0E0"/>
<path d="M148 105.299C147.701 105.487 147.353 105.585 147 105.579C146.783 105.609 146.561 105.589 146.353 105.521C146.145 105.453 145.954 105.339 145.797 105.187C145.639 105.035 145.517 104.849 145.442 104.643C145.366 104.437 145.338 104.217 145.36 103.999V102.199H144.68V101.199H145.36V100.129H146.63V101.199H147.73V102.199H146.63V103.999C146.621 104.075 146.629 104.151 146.653 104.224C146.677 104.296 146.716 104.362 146.769 104.418C146.821 104.473 146.885 104.516 146.956 104.544C147.027 104.572 147.104 104.584 147.18 104.579C147.367 104.581 147.55 104.521 147.7 104.409L148 105.299Z" fill="#E0E0E0"/>
<path d="M153.546 103.319C153.564 103.614 153.52 103.911 153.418 104.188C153.315 104.466 153.155 104.719 152.949 104.932C152.743 105.145 152.495 105.312 152.221 105.424C151.946 105.535 151.652 105.588 151.356 105.579C151.11 105.59 150.866 105.549 150.638 105.458C150.41 105.366 150.205 105.227 150.036 105.049V107.049H148.766V101.049H150.006V101.559C150.178 101.367 150.392 101.216 150.631 101.117C150.87 101.019 151.128 100.975 151.386 100.989C151.686 100.983 151.983 101.041 152.259 101.159C152.535 101.276 152.783 101.451 152.987 101.67C153.191 101.89 153.346 102.151 153.442 102.435C153.539 102.719 153.574 103.02 153.546 103.319ZM152.256 103.319C152.236 103.103 152.154 102.897 152.02 102.726C151.886 102.556 151.705 102.428 151.499 102.358C151.294 102.288 151.072 102.28 150.862 102.334C150.652 102.388 150.462 102.502 150.315 102.661C150.168 102.821 150.071 103.02 150.035 103.235C150 103.449 150.027 103.669 150.114 103.867C150.201 104.066 150.344 104.236 150.525 104.355C150.706 104.474 150.919 104.538 151.136 104.539C151.292 104.541 151.447 104.51 151.591 104.448C151.734 104.386 151.863 104.295 151.969 104.18C152.075 104.064 152.155 103.928 152.204 103.78C152.254 103.632 152.271 103.474 152.256 103.319Z" fill="#E0E0E0"/>
<path d="M154.083 101.849C154.105 101.654 154.198 101.473 154.345 101.342C154.492 101.211 154.681 101.139 154.878 101.139C155.075 101.139 155.265 101.211 155.411 101.342C155.558 101.473 155.651 101.654 155.673 101.849C155.686 101.961 155.675 102.075 155.64 102.182C155.606 102.289 155.55 102.388 155.475 102.472C155.4 102.556 155.308 102.623 155.205 102.669C155.102 102.715 154.991 102.739 154.878 102.739C154.766 102.739 154.654 102.715 154.551 102.669C154.449 102.623 154.357 102.556 154.282 102.472C154.207 102.388 154.15 102.289 154.116 102.182C154.082 102.075 154.071 101.961 154.083 101.849ZM154.083 104.779C154.105 104.584 154.198 104.403 154.345 104.272C154.492 104.141 154.681 104.069 154.878 104.069C155.075 104.069 155.265 104.141 155.411 104.272C155.558 104.403 155.651 104.584 155.673 104.779C155.686 104.891 155.675 105.005 155.64 105.112C155.606 105.219 155.55 105.318 155.475 105.402C155.4 105.486 155.308 105.553 155.205 105.599C155.102 105.645 154.991 105.669 154.878 105.669C154.766 105.669 154.654 105.645 154.551 105.599C154.449 105.553 154.357 105.486 154.282 105.402C154.207 105.318 154.15 105.219 154.116 105.112C154.082 105.005 154.071 104.891 154.083 104.779Z" fill="#E0E0E0"/>
<path d="M158.799 98.6387H159.939L157.239 106.329H156.109L158.799 98.6387Z" fill="#E0E0E0"/>
<path d="M161.411 98.6387H162.541L159.851 106.329H158.711L161.411 98.6387Z" fill="#E0E0E0"/>
<path d="M402.093 153.06H168.463C164.965 153.06 161.61 151.67 159.137 149.196C156.663 146.723 155.273 143.368 155.273 139.87C155.276 136.372 156.667 133.019 159.14 130.546C161.613 128.073 164.966 126.682 168.463 126.68H402.093C405.591 126.682 408.944 128.073 411.417 130.546C413.89 133.019 415.281 136.372 415.283 139.87C415.283 143.368 413.894 146.723 411.42 149.196C408.947 151.67 405.592 153.06 402.093 153.06Z" fill="#FAFAFA"/>
<path d="M402.094 153.06C403.958 153.02 405.794 152.605 407.494 151.84C409.166 151.07 410.661 149.962 411.883 148.585C413.105 147.208 414.028 145.592 414.594 143.84C415.068 142.277 415.251 140.639 415.134 139.01C415.01 137.186 414.506 135.408 413.654 133.79C412.701 132.018 411.357 130.485 409.724 129.31C407.939 128.024 405.858 127.212 403.674 126.95C402.513 126.85 401.348 126.817 400.184 126.85H396.544H362.954L168.484 126.92C166.149 126.927 163.859 127.562 161.854 128.76C159.884 129.936 158.263 131.615 157.156 133.624C156.05 135.634 155.497 137.901 155.557 140.195C155.616 142.488 156.284 144.724 157.492 146.674C158.701 148.624 160.406 150.217 162.434 151.29C164.437 152.328 166.669 152.844 168.924 152.79H234.104L321.534 152.85L380.534 152.93H396.534H400.704C401.644 152.93 402.124 152.93 402.124 152.93H400.704H396.534H380.534L321.534 153.02L234.104 153.07H182.464H168.924C166.584 153.13 164.268 152.593 162.194 151.51C159.538 150.106 157.429 147.853 156.203 145.111C154.977 142.369 154.704 139.295 155.427 136.38C156.151 133.464 157.83 130.875 160.196 129.025C162.562 127.174 165.48 126.169 168.484 126.17L363.004 126.5H396.594H400.234C401.412 126.471 402.59 126.508 403.764 126.61C405.987 126.886 408.103 127.722 409.914 129.04C411.502 130.178 412.818 131.655 413.765 133.363C414.713 135.072 415.269 136.97 415.394 138.92C415.499 140.575 415.303 142.235 414.814 143.82C414.36 145.203 413.685 146.503 412.814 147.67C411.458 149.509 409.649 150.966 407.564 151.9C406.293 152.459 404.944 152.82 403.564 152.97C402.574 153.06 402.094 153.06 402.094 153.06Z" fill="#263238"/>
<path d="M173.82 142.679L174.31 141.579C174.929 142.003 175.66 142.233 176.41 142.239C177.28 142.239 177.63 141.949 177.63 141.559C177.63 140.369 173.94 141.189 173.94 138.829C173.94 137.749 174.81 136.829 176.62 136.829C177.391 136.814 178.151 137.008 178.82 137.389L178.37 138.509C177.837 138.191 177.231 138.019 176.61 138.009C175.74 138.009 175.4 138.339 175.4 138.739C175.4 139.909 179.09 139.099 179.09 141.429C179.09 142.489 178.21 143.429 176.4 143.429C175.484 143.45 174.583 143.188 173.82 142.679Z" fill="#E0E0E0"/>
<path d="M184.751 141.268H181.061C181.134 141.576 181.316 141.846 181.574 142.03C181.831 142.214 182.146 142.298 182.461 142.268C182.686 142.275 182.91 142.236 183.12 142.154C183.33 142.071 183.521 141.947 183.681 141.788L184.431 142.608C184.049 142.975 183.573 143.228 183.056 143.339C182.538 143.449 182 143.413 181.502 143.234C181.004 143.055 180.566 142.741 180.237 142.326C179.908 141.912 179.702 141.414 179.641 140.888C179.636 140.55 179.701 140.214 179.831 139.901C179.962 139.589 180.155 139.306 180.398 139.071C180.642 138.836 180.931 138.653 181.248 138.534C181.565 138.415 181.903 138.362 182.241 138.378C182.578 138.361 182.915 138.415 183.23 138.536C183.546 138.657 183.832 138.842 184.071 139.08C184.311 139.319 184.497 139.604 184.619 139.919C184.742 140.234 184.797 140.571 184.781 140.908C184.781 140.998 184.761 141.148 184.751 141.268ZM181.041 140.438H183.441C183.389 140.157 183.241 139.904 183.022 139.721C182.803 139.538 182.526 139.438 182.241 139.438C181.955 139.438 181.679 139.538 181.46 139.721C181.241 139.904 181.092 140.157 181.041 140.438Z" fill="#E0E0E0"/>
<path d="M189.903 140.52V143.31H188.583V142.7C188.419 142.936 188.193 143.124 187.931 143.243C187.669 143.363 187.38 143.41 187.093 143.38C185.953 143.38 185.273 142.74 185.273 141.9C185.273 141.06 185.883 140.44 187.363 140.44H188.493C188.493 139.84 188.123 139.44 187.363 139.44C186.861 139.435 186.37 139.593 185.963 139.89L185.453 138.89C186.08 138.49 186.811 138.284 187.553 138.3C189.003 138.36 189.903 139.05 189.903 140.52ZM188.493 141.77V141.27H187.493C186.833 141.27 186.623 141.51 186.623 141.84C186.623 142.17 186.923 142.43 187.413 142.43C187.641 142.452 187.869 142.4 188.064 142.281C188.259 142.162 188.41 141.982 188.493 141.77Z" fill="#E0E0E0"/>
<path d="M194.21 138.359V139.659H193.89C193.712 139.644 193.534 139.669 193.367 139.732C193.201 139.795 193.05 139.894 192.927 140.023C192.803 140.151 192.71 140.305 192.653 140.474C192.597 140.643 192.578 140.822 192.6 140.999V143.309H191.18V138.429H192.53V139.069C192.733 138.826 192.992 138.635 193.284 138.511C193.576 138.388 193.893 138.336 194.21 138.359Z" fill="#E0E0E0"/>
<path d="M194.648 140.87C194.649 140.522 194.721 140.178 194.86 139.86C195 139.541 195.204 139.255 195.459 139.02C195.715 138.784 196.016 138.604 196.345 138.49C196.673 138.376 197.022 138.332 197.368 138.36C197.814 138.324 198.261 138.423 198.649 138.644C199.038 138.865 199.351 139.198 199.548 139.6L198.448 140.19C198.348 139.987 198.192 139.817 197.999 139.699C197.807 139.58 197.585 139.518 197.358 139.52C197 139.52 196.657 139.662 196.404 139.915C196.151 140.168 196.008 140.511 196.008 140.87C196.008 141.228 196.151 141.571 196.404 141.824C196.657 142.077 197 142.22 197.358 142.22C197.585 142.223 197.808 142.162 198.001 142.043C198.194 141.925 198.349 141.753 198.448 141.55L199.548 142.15C199.348 142.547 199.033 142.877 198.645 143.096C198.257 143.315 197.813 143.413 197.368 143.38C197.022 143.407 196.673 143.363 196.345 143.249C196.016 143.136 195.715 142.955 195.459 142.719C195.204 142.484 195 142.198 194.86 141.879C194.721 141.561 194.649 141.217 194.648 140.87Z" fill="#E0E0E0"/>
<path d="M205.323 140.518V143.308H203.902V140.728C203.902 139.938 203.542 139.578 202.902 139.578C202.262 139.578 201.732 139.998 201.732 140.898V143.308H200.312V136.578H201.732V138.938C201.939 138.743 202.183 138.592 202.449 138.492C202.715 138.393 202.999 138.347 203.283 138.358C203.567 138.336 203.852 138.378 204.118 138.481C204.383 138.583 204.623 138.744 204.818 138.951C205.014 139.158 205.161 139.406 205.248 139.677C205.335 139.949 205.361 140.236 205.323 140.518Z" fill="#E0E0E0"/>
<path d="M208.82 142.489C208.82 142.256 208.913 142.032 209.078 141.867C209.243 141.702 209.467 141.609 209.7 141.609C209.934 141.609 210.158 141.702 210.323 141.867C210.488 142.032 210.58 142.256 210.58 142.489C210.58 142.723 210.488 142.947 210.323 143.112C210.158 143.277 209.934 143.369 209.7 143.369C209.467 143.369 209.243 143.277 209.078 143.112C208.913 142.947 208.82 142.723 208.82 142.489Z" fill="#E0E0E0"/>
<path d="M211.203 142.489C211.205 142.316 211.259 142.146 211.357 142.003C211.454 141.86 211.593 141.748 211.753 141.683C211.914 141.618 212.091 141.602 212.261 141.637C212.431 141.672 212.587 141.757 212.709 141.88C212.831 142.004 212.914 142.161 212.947 142.331C212.98 142.502 212.962 142.678 212.895 142.838C212.828 142.998 212.716 143.135 212.571 143.231C212.427 143.328 212.257 143.379 212.083 143.379C211.967 143.381 211.851 143.358 211.743 143.314C211.635 143.27 211.537 143.204 211.454 143.121C211.372 143.038 211.308 142.939 211.265 142.831C211.222 142.722 211.201 142.606 211.203 142.489Z" fill="#E0E0E0"/>
<path d="M213.57 142.489C213.57 142.256 213.663 142.032 213.828 141.867C213.993 141.702 214.217 141.609 214.45 141.609C214.684 141.609 214.908 141.702 215.073 141.867C215.238 142.032 215.33 142.256 215.33 142.489C215.33 142.605 215.308 142.719 215.263 142.826C215.219 142.933 215.154 143.03 215.073 143.112C214.991 143.193 214.894 143.258 214.787 143.302C214.68 143.347 214.566 143.369 214.45 143.369C214.335 143.369 214.22 143.347 214.114 143.302C214.007 143.258 213.91 143.193 213.828 143.112C213.746 143.03 213.682 142.933 213.637 142.826C213.593 142.719 213.57 142.605 213.57 142.489Z" fill="#E0E0E0"/>
<path d="M128.075 175.998C128.075 176.148 118.695 176.258 107.135 176.258C95.5753 176.258 86.1953 176.148 86.1953 175.998C86.1953 175.848 95.5653 175.738 107.135 175.738C118.705 175.738 128.075 175.878 128.075 175.998Z" fill="black"/>
<path d="M129.715 187.988H86.1953V231.508H129.715V187.988Z" fill="#395987"/>
<path d="M394.149 198.248C394.149 198.388 340.149 198.508 273.509 198.508C206.869 198.508 152.859 198.388 152.859 198.248C152.859 198.108 206.859 197.988 273.509 197.988C340.159 197.988 394.149 198.098 394.149 198.248Z" fill="black"/>
<path d="M218.863 214.629C218.863 214.779 204.623 214.889 187.073 214.889C169.523 214.889 155.273 214.779 155.273 214.629C155.273 214.479 169.503 214.369 187.073 214.369C204.643 214.369 218.863 214.489 218.863 214.629Z" fill="black"/>
<path d="M355.593 229.829C355.593 229.969 310.743 230.089 255.433 230.089C200.123 230.089 155.273 229.969 155.273 229.829C155.273 229.689 200.113 229.559 255.433 229.559C310.753 229.559 355.593 229.679 355.593 229.829Z" fill="#E0E0E0"/>
<path d="M128.075 253.998C128.075 254.138 118.695 254.258 107.135 254.258C95.5753 254.258 86.1953 254.138 86.1953 253.998C86.1953 253.858 95.5653 253.738 107.135 253.738C118.705 253.738 128.075 253.828 128.075 253.998Z" fill="black"/>
<path d="M129.715 265.939H86.1953V309.459H129.715V265.939Z" fill="#395987"/>
<path d="M408.489 276.19C408.489 276.34 351.259 276.45 280.679 276.45C210.099 276.45 152.859 276.34 152.859 276.19C152.859 276.04 210.079 275.93 280.679 275.93C351.279 275.93 408.489 276.05 408.489 276.19Z" fill="black"/>
<path d="M218.863 292.578C218.863 292.718 204.623 292.838 187.073 292.838C169.523 292.838 155.273 292.718 155.273 292.578C155.273 292.438 169.503 292.318 187.073 292.318C204.643 292.318 218.863 292.438 218.863 292.578Z" fill="black"/>
<path d="M390.473 307.77C390.473 307.92 337.823 308.03 272.883 308.03C207.943 308.03 155.273 307.92 155.273 307.77C155.273 307.62 207.923 307.51 272.883 307.51C337.843 307.51 390.473 307.63 390.473 307.77Z" fill="#E0E0E0"/>
<path d="M445.532 333.369C445.532 331.649 445.452 228.569 445.322 65.5991L445.532 65.8091H54.7122L54.9722 65.5491C54.9722 161.129 54.9722 251.939 54.9722 333.319L54.7322 333.079L445.582 333.319L54.7322 333.549H54.4922V333.319C54.4922 251.939 54.4922 161.129 54.4922 65.5491V65.2891H54.7822H445.602H445.812V65.4991C445.622 228.569 445.532 331.649 445.532 333.369Z" fill="#263238"/>
<path d="M190.101 84.9983C190.101 85.1483 176.301 85.2583 159.281 85.2583C142.261 85.2583 128.461 85.1483 128.461 84.9983C128.461 84.8483 142.261 84.7383 159.281 84.7383C176.301 84.7383 190.101 84.8583 190.101 84.9983Z" fill="black"/>
<path d="M134.506 134.219H79.7656V150.709H134.506V134.219Z" fill="#455A64"/>
<path d="M231.43 177.408C231.43 177.558 214.43 177.668 193.43 177.668C172.43 177.668 155.43 177.558 155.43 177.408C155.43 177.258 172.43 177.148 193.43 177.148C214.43 177.148 231.43 177.268 231.43 177.408Z" fill="#395987"/>
<path d="M231.43 253.998C231.43 254.138 214.43 254.258 193.43 254.258C172.43 254.258 155.43 254.138 155.43 253.998C155.43 253.858 172.43 253.738 193.43 253.738C214.43 253.738 231.43 253.828 231.43 253.998Z" fill="#395987"/>
<path d="M397.065 144.259C395.807 144.261 394.576 143.889 393.528 143.191C392.481 142.493 391.664 141.5 391.181 140.338C390.699 139.175 390.572 137.895 390.817 136.661C391.062 135.426 391.668 134.292 392.558 133.402C393.448 132.512 394.582 131.906 395.817 131.661C397.052 131.416 398.331 131.542 399.494 132.025C400.656 132.508 401.65 133.324 402.348 134.372C403.046 135.419 403.417 136.65 403.415 137.909C403.413 139.592 402.743 141.206 401.553 142.396C400.362 143.587 398.749 144.256 397.065 144.259ZM397.065 132.549C396.005 132.547 394.967 132.86 394.085 133.448C393.202 134.035 392.513 134.872 392.106 135.851C391.699 136.83 391.591 137.908 391.797 138.949C392.003 139.989 392.512 140.945 393.262 141.696C394.011 142.446 394.966 142.958 396.006 143.165C397.046 143.373 398.124 143.267 399.104 142.862C400.084 142.457 400.922 141.77 401.511 140.888C402.101 140.006 402.415 138.97 402.415 137.909C402.415 136.489 401.852 135.127 400.849 134.123C399.846 133.118 398.485 132.552 397.065 132.549Z" fill="#395987"/>
<path d="M404.874 147.08C404.738 147.08 404.609 147.026 404.514 146.93L400.374 142.82C400.327 142.773 400.29 142.718 400.265 142.657C400.24 142.596 400.227 142.531 400.227 142.465C400.227 142.399 400.24 142.334 400.265 142.273C400.29 142.212 400.327 142.157 400.374 142.11C400.42 142.063 400.476 142.026 400.536 142.001C400.597 141.976 400.663 141.963 400.729 141.963C400.795 141.963 400.86 141.976 400.921 142.001C400.982 142.026 401.037 142.063 401.084 142.11L405.224 146.22C405.291 146.291 405.336 146.38 405.354 146.476C405.372 146.573 405.362 146.672 405.325 146.763C405.289 146.853 405.226 146.931 405.146 146.988C405.066 147.044 404.971 147.076 404.874 147.08Z" fill="#395987"/>
<path d="M299.884 213.51C299.884 213.65 283.514 213.77 263.314 213.77C243.114 213.77 226.734 213.65 226.734 213.51C226.734 213.37 243.114 213.25 263.314 213.25C283.514 213.25 299.884 213.36 299.884 213.51Z" fill="black"/>
<path d="M347.153 212.379C347.153 212.529 338.583 212.639 328.023 212.639C317.463 212.639 308.883 212.529 308.883 212.379C308.883 212.229 317.453 212.119 328.023 212.119C338.593 212.119 347.153 212.239 347.153 212.379Z" fill="black"/>
<path d="M299.531 292.578C299.531 292.718 283.161 292.838 262.961 292.838C242.761 292.838 226.391 292.718 226.391 292.578C226.391 292.438 242.761 292.318 262.961 292.318C283.161 292.318 299.531 292.438 299.531 292.578Z" fill="black"/>
<path d="M270 448.091V468.851L311.88 468.651C311.58 464.441 288.59 456.041 288.59 456.041L289.05 448.041L270 448.091Z" fill="#455A64"/>
<g opacity="0.6">
<path d="M276.79 454.16C276.382 454.309 276.042 454.601 275.833 454.981C275.623 455.362 275.558 455.805 275.65 456.23C275.746 456.647 276.002 457.01 276.363 457.24C276.724 457.471 277.161 457.549 277.58 457.46C278.012 457.297 278.372 456.984 278.592 456.578C278.813 456.173 278.879 455.701 278.78 455.25C278.706 455.043 278.592 454.852 278.444 454.69C278.297 454.527 278.118 454.396 277.919 454.303C277.72 454.21 277.504 454.157 277.285 454.148C277.065 454.139 276.846 454.173 276.64 454.25" fill="white"/>
</g>
<path d="M270 468.851V465.541L310 466.011C310 466.011 312.08 467.261 311.89 468.651L270 468.851Z" fill="#263238"/>
<path d="M288.605 456.441C288.605 456.661 287.605 456.771 286.605 457.441C285.605 458.111 285.095 459.061 284.905 458.981C284.715 458.901 285.005 457.641 286.215 456.811C287.425 455.981 288.645 456.241 288.605 456.441Z" fill="#263238"/>
<path d="M294.1 458.36C294.1 458.57 293.27 458.95 292.59 459.87C291.91 460.79 291.73 461.76 291.53 461.75C291.33 461.74 291.18 460.53 292.04 459.4C292.9 458.27 294.09 458.16 294.1 458.36Z" fill="#263238"/>
<path d="M296.571 463.65C296.381 463.7 296.081 462.65 296.571 461.44C297.061 460.23 298.021 459.77 298.111 459.95C298.201 460.13 297.621 460.77 297.221 461.75C296.821 462.73 296.771 463.63 296.571 463.65Z" fill="#263238"/>
<path d="M288.2 450.531C288.12 450.731 287.2 450.451 286.03 450.531C284.86 450.611 284.03 451.031 283.89 450.841C283.75 450.651 284.63 449.841 285.98 449.781C287.33 449.721 288.3 450.361 288.2 450.531Z" fill="#263238"/>
<path d="M288.439 457.371C288.552 456.957 288.583 456.526 288.529 456.101C288.438 454.935 288.056 453.811 287.419 452.831C286.984 452.158 286.428 451.572 285.779 451.101C285.588 450.937 285.356 450.827 285.108 450.783C284.86 450.739 284.605 450.763 284.369 450.851C284.124 450.988 283.918 451.186 283.773 451.426C283.627 451.666 283.547 451.94 283.539 452.221C283.604 453.304 283.988 454.343 284.643 455.208C285.297 456.073 286.194 456.725 287.219 457.081C288.222 457.399 289.298 457.409 290.307 457.11C291.316 456.81 292.212 456.215 292.879 455.401C293.207 455.025 293.461 454.59 293.629 454.121C293.714 453.851 293.714 453.561 293.629 453.291C293.582 453.156 293.507 453.032 293.409 452.929C293.311 452.825 293.191 452.744 293.059 452.691C292.625 452.562 292.159 452.609 291.759 452.821C291.412 452.979 291.078 453.163 290.759 453.371C289.818 454.001 289.007 454.805 288.369 455.741C288.108 456.071 287.912 456.448 287.789 456.851C288.656 455.633 289.737 454.583 290.979 453.751C291.539 453.431 292.279 452.971 292.869 453.181C293.129 453.281 293.229 453.591 293.109 453.951C292.957 454.342 292.733 454.701 292.449 455.011C291.844 455.73 291.04 456.253 290.137 456.515C289.235 456.776 288.275 456.765 287.379 456.481C286.483 456.164 285.697 455.599 285.11 454.852C284.524 454.105 284.163 453.206 284.069 452.261C284.062 452.08 284.104 451.902 284.19 451.743C284.276 451.585 284.404 451.453 284.559 451.361C284.718 451.31 284.888 451.299 285.052 451.331C285.216 451.362 285.37 451.435 285.499 451.541C286.104 451.961 286.629 452.486 287.049 453.091C287.679 453.986 288.099 455.011 288.279 456.091C288.409 456.921 288.389 457.371 288.439 457.371Z" fill="#263238"/>
<path d="M254.708 451.091L255.417 456.441L254.947 468.491L239.247 468.871L238.688 456.441L240.467 449.051L254.708 451.091Z" fill="#455A64"/>
<path d="M247.187 467.58C247.087 467.58 247.317 463.9 247.687 459.35C248.057 454.8 248.447 451.1 248.537 451.09C248.627 451.08 248.407 454.78 248.037 459.33C247.667 463.88 247.277 467.58 247.187 467.58Z" fill="#263238"/>
<path d="M255.008 466.48L239.148 466.67V468.87L255.018 468.86L255.008 466.48Z" fill="#263238"/>
<path d="M239.188 459.55C239.188 459.55 239.297 459.3 239.587 458.92C240.003 458.374 240.472 457.872 240.988 457.42C241.745 456.734 242.597 456.162 243.518 455.72C245.128 454.932 246.949 454.683 248.711 455.008C250.474 455.334 252.085 456.218 253.307 457.53C253.769 458.043 254.156 458.619 254.458 459.24C254.585 459.458 254.67 459.699 254.708 459.95C254.22 459.177 253.671 458.445 253.068 457.76C251.497 456.212 249.382 455.343 247.177 455.34C244.968 455.406 242.848 456.232 241.177 457.68C239.887 458.75 239.247 459.61 239.188 459.55Z" fill="#263238"/>
<path d="M247.12 114.74L247 169L270.29 170.11L270.97 156.91C270.97 156.91 279.24 158.55 281.37 150.91C282.74 146 282.37 108.07 282.37 108.07L247.12 114.74Z" fill="#B78876"/>
<path d="M285.409 111.88C281.739 112.93 280.939 118.88 280.939 118.88L275.189 131.59C272.259 129.3 268.319 129.43 267.579 134.59C267.039 138.31 271.669 139.06 271.669 139.06C268.969 143.65 267.149 147.36 263.219 151.72C258.999 156.47 256.599 156.94 251.999 157H246.919C246.919 157 244.429 148.93 239.829 128.76C234.729 106.38 261.189 109.26 266.099 103.55C274.089 94.2601 296.999 108.57 285.409 111.88Z" fill="#263238"/>
<path d="M291.871 107C291.669 105.807 291.047 104.725 290.117 103.949C289.188 103.174 288.012 102.756 286.801 102.77C287.18 102.133 287.321 101.382 287.2 100.65C287.08 99.9184 286.705 99.2528 286.141 98.7704C285.556 98.3111 284.879 97.9839 284.156 97.8113C283.433 97.6387 282.68 97.6247 281.951 97.7704C280.493 98.0656 279.085 98.5708 277.771 99.2704C277.28 97.8201 276.333 96.5676 275.071 95.7004C273.713 94.9046 272.154 94.5191 270.581 94.5904C263.431 94.5904 259.671 99.4804 255.831 104.47C255.271 105.4 254.469 106.16 253.511 106.67C252.814 106.875 252.086 106.957 251.361 106.91C248.629 106.997 245.969 107.802 243.648 109.246C241.327 110.689 239.427 112.719 238.141 115.13C235.641 119.96 233.771 131.13 240.251 138.13L244.151 146.84L281.481 117.26C281.751 117.4 284.091 118.54 285.891 117.6C290.361 115.24 288.481 111.32 288.481 111.32C288.841 111.07 292.251 109.4 291.871 107Z" fill="#263238"/>
<path d="M257.318 136.111C257.629 137.473 257.585 138.892 257.188 140.231C256.977 141.614 256.409 142.917 255.538 144.011C255.378 143.931 256.128 142.271 256.608 140.101C257.088 137.931 257.148 136.111 257.318 136.111Z" fill="#455A64"/>
<path d="M260.138 133.439C260.333 134.774 260.258 136.134 259.918 137.439C259.769 138.77 259.35 140.056 258.688 141.219C258.786 139.906 259.003 138.604 259.337 137.329C259.481 136.01 259.749 134.708 260.138 133.439Z" fill="#455A64"/>
<path d="M268.199 124.48C268.259 124.56 267.599 125.04 266.759 126.02C265.688 127.319 264.84 128.785 264.249 130.36C263.675 131.954 263.211 133.584 262.859 135.24C262.76 135.931 262.565 136.604 262.279 137.24C262.237 136.526 262.294 135.809 262.449 135.11C262.686 133.404 263.105 131.728 263.699 130.11C264.308 128.47 265.247 126.972 266.459 125.71C266.933 125.168 267.53 124.747 268.199 124.48Z" fill="#455A64"/>
<path d="M271.461 118.391C271.531 118.391 271.771 118.911 271.921 119.851C272.089 121.089 272.018 122.349 271.711 123.561C271.418 124.775 270.884 125.917 270.141 126.921C269.571 127.691 269.141 128.061 269.051 128.011C268.961 127.961 270.481 126.141 271.141 123.421C271.801 120.701 271.281 118.411 271.461 118.391Z" fill="#455A64"/>
<path d="M243.665 131.94C243.585 132.09 242.875 131.84 242.075 131.39C241.275 130.94 240.685 130.47 240.765 130.32C240.845 130.17 241.555 130.43 242.355 130.88C243.155 131.33 243.745 131.8 243.665 131.94Z" fill="#455A64"/>
<path d="M254.92 126.15C255.011 126.992 254.775 127.837 254.26 128.51C253.54 129.7 252.57 130.32 252.47 130.2C252.37 130.08 253.1 129.3 253.75 128.2C254.4 127.1 254.75 126.11 254.92 126.15Z" fill="#455A64"/>
<path d="M258.376 124.291C258.364 125.316 258.012 126.308 257.376 127.111C256.446 128.531 255.276 129.291 255.186 129.111C255.096 128.931 256.016 128.111 256.886 126.741C257.335 125.896 257.832 125.078 258.376 124.291Z" fill="#455A64"/>
<path d="M275.578 101.55C275.578 101.55 275.138 101.22 274.298 100.74C273.095 100.103 271.759 99.7599 270.398 99.7402C268.38 99.6867 266.39 100.218 264.668 101.27C262.599 102.629 260.92 104.504 259.798 106.71C258.938 108.325 258.267 110.033 257.798 111.8L257.698 112.14L257.388 111.97C255.784 111.131 254.007 110.676 252.198 110.64C250.761 110.608 249.33 110.824 247.968 111.28C246.755 111.73 245.595 112.31 244.508 113.01C244.732 112.743 244.995 112.51 245.288 112.32C246.074 111.748 246.935 111.287 247.848 110.95C249.237 110.421 250.712 110.154 252.198 110.16C254.096 110.156 255.968 110.605 257.658 111.47L257.248 111.65C257.71 109.839 258.381 108.087 259.248 106.43C260.418 104.134 262.183 102.193 264.358 100.81C266.167 99.7324 268.255 99.2139 270.358 99.3203C271.774 99.381 273.152 99.8045 274.358 100.55C274.679 100.754 274.978 100.992 275.248 101.26C275.498 101.44 275.588 101.54 275.578 101.55Z" fill="#455A64"/>
<path d="M287.831 104.511C287.781 104.511 288.471 104.331 289.161 105.111C289.36 105.344 289.511 105.615 289.603 105.907C289.696 106.199 289.729 106.506 289.701 106.811C289.64 107.218 289.486 107.605 289.25 107.942C289.014 108.279 288.703 108.556 288.341 108.751C287.482 109.239 286.469 109.378 285.511 109.141C284.457 108.864 283.468 108.381 282.601 107.721C281.691 106.995 280.735 106.327 279.741 105.721C278.665 105.14 277.504 104.731 276.301 104.511C273.964 104.091 271.559 104.255 269.301 104.991C267.447 105.602 265.697 106.493 264.111 107.631C261.391 109.581 260.051 111.221 259.961 111.131C260.23 110.717 260.542 110.331 260.891 109.981C261.807 108.995 262.811 108.094 263.891 107.291C265.485 106.075 267.265 105.123 269.161 104.471C271.509 103.675 274.021 103.489 276.461 103.931C277.725 104.164 278.943 104.596 280.071 105.211C281.077 105.815 282.042 106.483 282.961 107.211C283.765 107.844 284.686 108.313 285.671 108.591C286.515 108.823 287.415 108.727 288.191 108.321C288.505 108.161 288.778 107.932 288.991 107.652C289.204 107.372 289.351 107.047 289.421 106.701C289.493 106.166 289.353 105.625 289.031 105.191C288.724 104.83 288.299 104.589 287.831 104.511Z" fill="#455A64"/>
<path d="M396.329 146.161C395.449 145.381 383.589 150.351 383.589 150.351C383.589 150.351 374.739 157.351 371.099 161.401L368.849 163.271L335.189 189.441L293.789 172.221L284.789 195.311C284.789 195.311 331.269 213.821 338.349 210.651C346.039 207.211 374.689 177.221 374.759 177.121L378.899 173.121C378.899 173.121 381.089 173.121 382.749 172.981C384.409 172.841 389.269 169.651 389.269 169.651C389.73 168.764 390.048 167.808 390.209 166.821C390.311 166.428 390.277 166.012 390.114 165.64C389.951 165.269 389.667 164.962 389.309 164.771C389.478 164.003 389.505 163.21 389.389 162.431C389.199 161.111 387.389 159.581 387.389 159.581C387.953 159.006 388.339 158.28 388.499 157.491C388.899 155.961 386.929 154.491 386.929 154.491C386.929 154.491 393.819 149.811 395.489 148.981C397.159 148.151 397.209 146.941 396.329 146.161Z" fill="#B78876"/>
<path d="M299.875 382.69C300.015 381.17 300.085 380 300.085 379.27L304.765 304.64C304.765 304.64 300.835 282.84 298.975 277.06L282.265 270.59L259.995 279.26C259.855 277.47 259.765 276.36 259.765 276.36L226.995 287.7C226.995 287.7 226.145 310.07 226.995 316.88C227.275 319.07 228.125 324.72 229.165 331.38C229.165 331.38 230.225 345.85 230.445 346.66C231.235 349.61 231.445 356.84 231.445 364.08C231.445 373.28 231.945 384.23 232.525 389.43C233.105 394.63 233.375 451.87 233.375 451.87H257.575L260.685 360.71C261.205 350.94 261.985 336 262.485 325.19L268.165 358.85C268.165 360.08 271.625 379.33 271.625 379.33C270.826 385.388 270.332 391.482 270.145 397.59C269.745 414.59 267.755 451.87 267.755 451.87H291.435C291.435 451.87 298.555 397.99 299.935 382.69H299.875Z" fill="#263238"/>
<path d="M303.999 300.17C303.222 299.876 302.485 299.483 301.809 299C300.129 297.922 298.561 296.68 297.129 295.29C295.697 293.903 294.404 292.379 293.269 290.74C292.758 290.086 292.344 289.362 292.039 288.59C292.588 289.199 293.095 289.844 293.559 290.52C294.765 292.08 296.078 293.553 297.489 294.93C298.901 296.292 300.408 297.552 301.999 298.7C302.7 299.141 303.368 299.633 303.999 300.17Z" fill="#455A64"/>
<path d="M261.715 313.731C261.525 313.509 261.37 313.26 261.255 312.991C260.883 312.29 260.549 311.569 260.255 310.831C259.242 308.404 258.501 305.872 258.045 303.281C257.6 300.69 257.439 298.057 257.565 295.431C257.625 294.431 257.705 293.621 257.795 293.061C257.812 292.766 257.877 292.476 257.985 292.201C258.065 292.201 257.985 293.451 257.935 295.441C257.905 298.038 258.112 300.632 258.555 303.191C258.997 305.749 259.666 308.262 260.555 310.701C261.265 312.571 261.785 313.691 261.715 313.731Z" fill="#455A64"/>
<path d="M265.234 341.83C265.086 341.408 264.982 340.973 264.924 340.53C264.75 339.583 264.53 338.393 264.264 336.96C263.744 333.83 263.044 329.71 262.264 325.15C260.924 316.78 260.014 311.08 259.594 308.43C260.137 309.997 260.519 311.615 260.734 313.26C261.314 316.26 262.034 320.45 262.794 325.06C263.554 329.67 264.184 333.87 264.624 336.9C264.814 338.34 264.984 339.54 265.114 340.5C265.203 340.937 265.243 341.383 265.234 341.83Z" fill="#455A64"/>
<path d="M208.129 217.35C208.129 217.35 204.939 239.84 204.339 247.72C203.979 252.47 208.799 258.72 212.479 259.23C216.159 259.74 228.559 260.43 228.559 260.43L229.559 246.32L229.239 243.51L225.389 242.79L226.549 220.41L208.129 217.35Z" fill="#B78876"/>
<path d="M226.067 221.17C226.166 221.569 226.216 221.979 226.217 222.39C226.277 223.18 226.317 224.32 226.347 225.74C226.417 228.56 226.347 232.47 226.107 236.74C225.867 241.01 225.517 244.94 225.247 247.74C225.097 249.14 224.977 250.28 224.877 251.06C224.854 251.47 224.784 251.876 224.667 252.27C224.621 251.861 224.621 251.449 224.667 251.04C224.717 250.14 224.787 249.04 224.867 247.7C225.057 244.77 225.297 240.94 225.567 236.7C225.837 232.46 225.937 228.52 225.967 225.7C225.967 224.38 225.967 223.26 225.967 222.36C225.959 221.961 225.992 221.562 226.067 221.17Z" fill="#AA6550"/>
<g opacity="0.3">
<path d="M227.284 288.11C233.584 290.45 240.484 290.64 247.174 290.06C253.864 289.48 260.484 288.13 267.174 287.5C277.313 286.552 287.538 287.228 297.464 289.5C298.156 289.71 298.884 289.778 299.604 289.7C299.961 289.655 300.296 289.502 300.566 289.263C300.835 289.024 301.026 288.709 301.114 288.36C301.294 287.24 300.064 286.46 299.024 286.03C287.578 281.297 275.273 278.995 262.891 279.27C250.508 279.546 238.318 282.392 227.094 287.63" fill="black"/>
</g>
<path d="M323.747 182.44L288.228 164.76C282.626 164.103 276.985 163.856 271.348 164.02H247.837C247.837 164.02 219.357 172.42 214.647 180.17L202.438 216.77L226.577 220.41L229.577 246.71C229.577 246.71 226.577 277.16 226.577 281.58C226.512 283.627 226.636 285.676 226.947 287.7C226.947 287.7 275.248 280.36 287.138 284.23C299.028 288.1 302.237 287.7 302.237 287.7C302.237 287.7 301.237 275.06 300.367 267.7L297.628 231L295.628 203L317.978 209.84L323.747 182.44Z" fill="#395987"/>
<path d="M226.359 220.701C226.269 220.701 226.029 219.191 225.499 216.751C224.793 213.577 223.858 210.459 222.699 207.421C221.517 204.36 220.134 201.38 218.559 198.501L217.099 195.881C216.893 195.571 216.728 195.234 216.609 194.881C216.87 195.15 217.099 195.448 217.289 195.771C217.699 196.361 218.289 197.231 218.899 198.331C220.588 201.174 222.033 204.155 223.219 207.241C224.389 210.301 225.28 213.46 225.879 216.681C226.099 217.911 226.239 218.911 226.309 219.611C226.371 219.971 226.388 220.337 226.359 220.701Z" fill="#263238"/>
<path d="M271.904 231.09C271.886 231.259 271.842 231.424 271.774 231.58L271.324 232.93C271.124 233.52 270.874 234.23 270.544 235.05C270.214 235.87 269.864 236.81 269.404 237.81C268.534 239.81 267.404 242.23 265.984 244.81C264.564 247.39 262.884 250.13 260.984 252.91C259.084 255.69 256.984 258.2 255.094 260.42C253.204 262.64 251.314 264.51 249.694 266.03C248.904 266.81 248.134 267.46 247.484 268.03C246.834 268.6 246.244 269.11 245.764 269.5L244.644 270.38C244.518 270.491 244.381 270.588 244.234 270.67C244.234 270.67 244.344 270.53 244.584 270.3L245.634 269.3C246.094 268.9 246.634 268.39 247.294 267.78C247.954 267.17 248.674 266.51 249.444 265.72C251.024 264.18 252.824 262.26 254.734 260.06C256.644 257.86 258.624 255.32 260.564 252.57C262.504 249.82 264.164 247.07 265.564 244.57C266.964 242.07 268.154 239.67 269.064 237.66C269.544 236.66 269.914 235.73 270.264 234.93C270.614 234.13 270.904 233.43 271.134 232.85C271.364 232.27 271.524 231.85 271.674 231.53C271.732 231.374 271.81 231.226 271.904 231.09Z" fill="#263238"/>
<path d="M288.319 167.18C287.384 168.516 286.746 170.037 286.449 171.64C286.149 173.377 286.149 175.153 286.449 176.89C286.836 179.028 287.337 181.144 287.949 183.23C289.179 187.71 290.469 191.7 291.459 194.58C291.929 195.94 292.319 197.08 292.639 197.99C292.804 198.4 292.931 198.826 293.019 199.26C292.785 198.88 292.591 198.478 292.439 198.06C292.109 197.28 291.639 196.14 291.099 194.71C290.019 191.86 288.659 187.86 287.429 183.37C286.831 181.275 286.353 179.149 285.999 177C285.705 175.213 285.732 173.387 286.079 171.61C286.324 170.41 286.792 169.267 287.459 168.24C287.678 167.837 287.97 167.478 288.319 167.18Z" fill="#263238"/>
<path d="M221.298 205.711C220.771 206.28 220.121 206.721 219.398 207.001C217.699 207.781 215.808 208.046 213.96 207.763C212.112 207.481 210.387 206.663 208.998 205.411C208.393 204.932 207.907 204.319 207.578 203.621C207.648 203.561 208.168 204.271 209.238 205.131C210.63 206.256 212.296 206.991 214.066 207.26C215.835 207.529 217.645 207.322 219.308 206.661C220.538 206.161 221.248 205.641 221.298 205.711Z" fill="white"/>
<path d="M289.369 189.201C289.299 189.467 289.202 189.725 289.079 189.971C288.859 190.471 288.519 191.191 288.029 192.091C286.621 194.644 284.842 196.972 282.749 199.001C279.62 202.038 275.719 204.158 271.469 205.131C268.963 205.705 266.374 205.817 263.829 205.461C261.105 205.028 258.484 204.096 256.099 202.711C251.189 199.971 247.039 196.501 242.499 194.841C238.483 193.357 234.113 193.116 229.959 194.151C227.155 194.824 224.509 196.037 222.169 197.721C220.529 198.931 219.759 199.781 219.719 199.721C220.419 198.92 221.2 198.193 222.049 197.551C224.952 195.351 228.357 193.909 231.957 193.356C235.558 192.802 239.239 193.155 242.669 194.381C247.319 196.061 251.499 199.541 256.349 202.241C258.677 203.613 261.235 204.548 263.899 205.001C266.387 205.351 268.917 205.25 271.369 204.701C275.543 203.766 279.386 201.716 282.489 198.771C284.589 196.793 286.394 194.523 287.849 192.031C288.359 191.151 288.739 190.441 288.979 189.961C289.089 189.698 289.219 189.444 289.369 189.201Z" fill="white"/>
<path d="M311.61 176.371C311.808 176.739 311.963 177.128 312.07 177.531C312.4 178.613 312.595 179.731 312.65 180.861C312.844 184.649 311.646 188.376 309.28 191.341C307.906 192.862 306.415 194.273 304.82 195.561C303.569 196.611 302.548 197.908 301.82 199.371C301.329 200.356 301.098 201.451 301.15 202.551C301.21 203.331 301.38 203.751 301.33 203.761C301.28 203.771 301.26 203.671 301.18 203.471C301.067 203.182 300.99 202.879 300.95 202.571C300.813 201.427 300.997 200.267 301.48 199.221C302.183 197.689 303.206 196.325 304.48 195.221C306.032 193.927 307.493 192.527 308.85 191.031C311.134 188.152 312.34 184.565 312.26 180.891C312.184 179.368 311.966 177.854 311.61 176.371Z" fill="white"/>
<path d="M253.834 260.68C253.519 260.849 253.183 260.973 252.834 261.05C251.87 261.326 250.888 261.534 249.894 261.671C248.397 261.919 246.863 261.83 245.404 261.41C244.539 261.136 243.739 260.686 243.054 260.09C242.366 259.437 241.724 258.735 241.134 257.99C240.556 257.282 239.883 256.656 239.134 256.13C238.422 255.666 237.652 255.296 236.844 255.03C235.46 254.588 233.997 254.448 232.554 254.62C231.576 254.728 230.623 254.999 229.734 255.42C229.414 255.6 229.079 255.754 228.734 255.88C228.996 255.618 229.3 255.402 229.634 255.24C230.519 254.729 231.493 254.39 232.504 254.24C234.002 254 235.534 254.106 236.984 254.55C237.844 254.814 238.662 255.198 239.414 255.69C240.213 256.228 240.928 256.882 241.534 257.63C242.108 258.354 242.73 259.039 243.394 259.68C244.029 260.238 244.766 260.666 245.564 260.94C246.958 261.353 248.422 261.472 249.864 261.291C252.294 261.001 253.814 260.59 253.834 260.68Z" fill="white"/>
<path d="M299.828 258.55C299.733 258.653 299.625 258.744 299.508 258.82C299.188 259.06 298.854 259.28 298.508 259.48C297.265 260.238 295.917 260.808 294.508 261.17C292.389 261.715 290.185 261.844 288.018 261.55C285.344 261.188 282.806 260.156 280.638 258.55C278.578 256.886 276.608 255.114 274.738 253.24C273.207 251.752 271.435 250.535 269.498 249.64C268.197 249.037 266.781 248.723 265.348 248.72C264.348 248.72 263.768 248.89 263.758 248.83C263.885 248.77 264.02 248.727 264.158 248.7C264.543 248.596 264.939 248.532 265.338 248.51C266.816 248.443 268.29 248.713 269.648 249.3C271.648 250.169 273.48 251.384 275.058 252.89C276.888 254.51 278.708 256.48 280.948 258.13C283.047 259.673 285.497 260.67 288.078 261.03C290.189 261.336 292.338 261.251 294.418 260.78C295.81 260.449 297.154 259.941 298.418 259.27C298.873 259.001 299.343 258.761 299.828 258.55Z" fill="white"/>
<path d="M384.826 116.06C377.563 112.586 371.224 107.445 366.323 101.056C361.423 94.668 358.102 87.2125 356.629 79.2971C355.155 71.3817 355.573 63.2303 357.847 55.5068C360.121 47.7833 364.187 40.7061 369.714 34.8516C375.241 28.9971 382.072 24.5308 389.652 21.8166C397.232 19.1024 405.346 18.217 413.333 19.2325C421.32 20.2479 428.954 23.1356 435.614 27.6602C442.274 32.1848 447.77 38.2185 451.656 45.2698C456.89 54.7524 458.976 65.6525 457.613 76.3975C456.25 87.1424 451.509 97.1767 444.074 105.052C436.639 112.928 426.894 118.238 416.245 120.217C405.596 122.195 394.594 120.74 384.826 116.06ZM427.446 26.9198C417.188 22.0231 405.518 20.9523 394.54 23.9005C383.562 26.8487 373.998 33.622 367.574 42.9991C361.149 52.3761 358.285 63.7401 359.499 75.042C360.714 86.344 365.926 96.8404 374.196 104.639C382.466 112.437 393.25 117.024 404.604 117.573C415.958 118.122 427.134 114.597 436.118 107.633C445.102 100.669 451.302 90.7244 453.601 79.5924C455.9 68.4603 454.147 56.8731 448.656 46.9198C443.848 38.2019 436.432 31.2081 427.446 26.9198Z" fill="#263238"/>
<path d="M471.109 171.999C469.674 172.882 467.947 173.16 466.307 172.772C464.667 172.384 463.247 171.361 462.359 169.929L428.929 115.739C428.777 115.494 428.729 115.198 428.794 114.917C428.86 114.636 429.034 114.392 429.279 114.239L436.409 109.839C436.652 109.691 436.943 109.642 437.221 109.704C437.499 109.765 437.742 109.932 437.899 110.169L473.059 162.999C473.543 163.712 473.877 164.515 474.04 165.36C474.204 166.206 474.195 167.075 474.012 167.917C473.83 168.758 473.479 169.554 472.98 170.256C472.481 170.958 471.844 171.551 471.109 171.999Z" fill="#263238"/>
<path d="M386.056 113.479C378.788 110.007 372.444 104.867 367.54 98.4775C362.635 92.0882 359.31 84.6307 357.834 76.7126C356.359 68.7944 356.774 60.6397 359.048 52.9127C361.321 45.1857 365.388 38.1052 370.917 32.248C376.446 26.3907 383.28 21.9225 390.863 19.2074C398.446 16.4923 406.563 15.6071 414.553 16.6239C422.544 17.6407 430.18 20.5308 436.842 25.0586C443.503 29.5865 449 35.624 452.886 42.6793C458.116 52.1625 460.199 63.0617 458.836 73.8053C457.472 84.549 452.731 94.5819 445.297 102.457C437.863 110.333 428.12 115.644 417.473 117.625C406.826 119.606 395.825 118.154 386.056 113.479ZM428.676 24.3393C418.418 19.4426 406.748 18.3718 395.77 21.32C384.792 24.2682 375.228 31.0415 368.803 40.4186C362.378 49.7956 359.515 61.1596 360.729 72.4616C361.943 83.7635 367.155 94.2599 375.425 102.058C383.695 109.857 394.479 114.444 405.833 114.993C417.187 115.542 428.363 112.016 437.347 105.052C446.331 98.0884 452.532 88.1439 454.831 77.0119C457.13 65.8798 455.376 54.2926 449.886 44.3393C445.078 35.6214 437.661 28.6276 428.676 24.3393Z" fill="#455A64"/>
<path d="M429.584 112.163L438.546 106.635L474.095 164.262C474.791 165.39 475.011 166.749 474.705 168.04C474.399 169.33 473.593 170.446 472.465 171.142L471.946 171.462C470.817 172.159 469.458 172.378 468.168 172.072C466.877 171.767 465.761 170.961 465.065 169.832L429.516 112.205L429.584 112.163Z" fill="#455A64"/>
<path d="M369.938 55.2193C369.985 54.6855 370.078 54.1568 370.217 53.6393C370.336 53.0234 370.493 52.4155 370.688 51.8193C370.914 51.0162 371.181 50.2252 371.487 49.4493L371.997 48.0993C372.187 47.6293 372.438 47.1693 372.668 46.6693C373.118 45.6693 373.727 44.6693 374.337 43.6193C375.756 41.3672 377.398 39.2633 379.237 37.3393C381.111 35.4532 383.168 33.7581 385.378 32.2793C386.348 31.6461 387.349 31.062 388.378 30.5293C388.858 30.2793 389.317 30.0193 389.777 29.8093L391.117 29.2393C391.882 28.9109 392.663 28.6238 393.457 28.3793C394.049 28.1664 394.653 27.9927 395.267 27.8593C395.783 27.7132 396.307 27.6029 396.837 27.5293C396.344 27.7375 395.836 27.908 395.318 28.0393C394.716 28.2049 394.125 28.4053 393.547 28.6393C392.768 28.9053 392.004 29.2124 391.258 29.5593L389.948 30.1493C389.488 30.3593 389.038 30.6293 388.568 30.8793C387.568 31.3693 386.647 32.0093 385.617 32.6493C383.461 34.119 381.452 35.7934 379.617 37.6493C377.802 39.5465 376.171 41.6125 374.747 43.8193C374.137 44.8193 373.517 45.8193 373.057 46.8193C372.827 47.2993 372.567 47.7493 372.367 48.2093L371.807 49.5393C371.427 50.3693 371.198 51.1693 370.948 51.8593C370.733 52.4449 370.552 53.0426 370.408 53.6493C370.293 54.1843 370.136 54.7094 369.938 55.2193Z" fill="#E0E0E0"/>
</svg>
