<svg width="614" height="968" viewBox="0 0 614 968" fill="none" xmlns="http://www.w3.org/2000/svg">
<g opacity="0.6" clip-path="url(#clip0_6136_45464)">
<path d="M-393.953 356.268C-332.577 285.78 -211.371 376.969 -35.7493 337.061C116.359 302.478 125.11 210.621 246.642 215.177C335.432 218.487 432.184 269.755 485.357 359.072C543.997 457.551 522.68 557.809 516.696 582.139C489.984 691.263 410.698 748.826 382.728 768.487C267.488 849.439 138.174 835.253 76.136 828.479C-156.9 802.956 -406.386 636.583 -417.494 455.701C-418.971 432.02 -421.658 388.098 -393.953 356.268Z" fill="url(#paint0_linear_6136_45464)"/>
</g>
<defs>
<linearGradient id="paint0_linear_6136_45464" x1="190.824" y1="69.8263" x2="-43.4168" y2="775.635" gradientUnits="userSpaceOnUse">
<stop stop-color="#F3F7FF"/>
<stop offset="1" stop-color="#DEEEFE"/>
</linearGradient>
<clipPath id="clip0_6136_45464">
<rect width="937.962" height="671.376" fill="white" transform="translate(-259.422) rotate(21.4558)"/>
</clipPath>
</defs>
</svg>
