<svg width="83" height="115" viewBox="0 0 83 115" fill="none" xmlns="http://www.w3.org/2000/svg">
<g opacity="0.3">
<mask id="mask0_6136_45467" style="mask-type:alpha" maskUnits="userSpaceOnUse" x="11" y="0" width="12" height="11">
<path d="M16.7909 10.425C19.6784 10.425 22.0193 8.09121 22.0193 5.21245C22.0193 2.33368 19.6784 0 16.7909 0C13.9033 0 11.5625 2.33368 11.5625 5.21245C11.5625 8.09121 13.9033 10.425 16.7909 10.425Z" fill="url(#paint0_linear_6136_45467)"/>
</mask>
<g mask="url(#mask0_6136_45467)">
<path d="M16.7909 10.425C19.6784 10.425 22.0193 8.09121 22.0193 5.21245C22.0193 2.33368 19.6784 0 16.7909 0C13.9033 0 11.5625 2.33368 11.5625 5.21245C11.5625 8.09121 13.9033 10.425 16.7909 10.425Z" fill="url(#paint1_linear_6136_45467)"/>
</g>
<mask id="mask1_6136_45467" style="mask-type:alpha" maskUnits="userSpaceOnUse" x="41" y="0" width="12" height="11">
<path d="M47.0721 10.425C49.9597 10.425 52.3005 8.09121 52.3005 5.21245C52.3005 2.33368 49.9597 0 47.0721 0C44.1846 0 41.8438 2.33368 41.8438 5.21245C41.8438 8.09121 44.1846 10.425 47.0721 10.425Z" fill="url(#paint2_linear_6136_45467)"/>
</mask>
<g mask="url(#mask1_6136_45467)">
<path d="M47.0721 10.425C49.9597 10.425 52.3005 8.09121 52.3005 5.21245C52.3005 2.33368 49.9597 0 47.0721 0C44.1846 0 41.8438 2.33368 41.8438 5.21245C41.8438 8.09121 44.1846 10.425 47.0721 10.425Z" fill="url(#paint3_linear_6136_45467)"/>
</g>
<mask id="mask2_6136_45467" style="mask-type:alpha" maskUnits="userSpaceOnUse" x="72" y="0" width="11" height="11">
<path d="M77.3534 10.425C80.2409 10.425 82.5818 8.09121 82.5818 5.21245C82.5818 2.33368 80.2409 0 77.3534 0C74.4658 0 72.125 2.33368 72.125 5.21245C72.125 8.09121 74.4658 10.425 77.3534 10.425Z" fill="url(#paint4_linear_6136_45467)"/>
</mask>
<g mask="url(#mask2_6136_45467)">
<path d="M77.3534 10.425C80.2409 10.425 82.5818 8.09121 82.5818 5.21245C82.5818 2.33368 80.2409 0 77.3534 0C74.4658 0 72.125 2.33368 72.125 5.21245C72.125 8.09121 74.4658 10.425 77.3534 10.425Z" fill="url(#paint5_linear_6136_45467)"/>
</g>
<mask id="mask3_6136_45467" style="mask-type:alpha" maskUnits="userSpaceOnUse" x="11" y="26" width="12" height="11">
<path d="M16.7909 36.5967C19.6784 36.5967 22.0193 34.2631 22.0193 31.3843C22.0193 28.5056 19.6784 26.1719 16.7909 26.1719C13.9033 26.1719 11.5625 28.5056 11.5625 31.3843C11.5625 34.2631 13.9033 36.5967 16.7909 36.5967Z" fill="url(#paint6_linear_6136_45467)"/>
</mask>
<g mask="url(#mask3_6136_45467)">
<path d="M16.7909 36.5967C19.6784 36.5967 22.0193 34.2631 22.0193 31.3843C22.0193 28.5056 19.6784 26.1719 16.7909 26.1719C13.9033 26.1719 11.5625 28.5056 11.5625 31.3843C11.5625 34.2631 13.9033 36.5967 16.7909 36.5967Z" fill="url(#paint7_linear_6136_45467)"/>
</g>
<mask id="mask4_6136_45467" style="mask-type:alpha" maskUnits="userSpaceOnUse" x="41" y="26" width="12" height="11">
<path d="M47.0721 36.5967C49.9597 36.5967 52.3005 34.2631 52.3005 31.3843C52.3005 28.5056 49.9597 26.1719 47.0721 26.1719C44.1846 26.1719 41.8438 28.5056 41.8438 31.3843C41.8438 34.2631 44.1846 36.5967 47.0721 36.5967Z" fill="url(#paint8_linear_6136_45467)"/>
</mask>
<g mask="url(#mask4_6136_45467)">
<path d="M47.0721 36.5967C49.9597 36.5967 52.3005 34.2631 52.3005 31.3843C52.3005 28.5056 49.9597 26.1719 47.0721 26.1719C44.1846 26.1719 41.8438 28.5056 41.8438 31.3843C41.8438 34.2631 44.1846 36.5967 47.0721 36.5967Z" fill="url(#paint9_linear_6136_45467)"/>
</g>
<mask id="mask5_6136_45467" style="mask-type:alpha" maskUnits="userSpaceOnUse" x="72" y="26" width="11" height="11">
<path d="M77.3534 36.5967C80.2409 36.5967 82.5818 34.2631 82.5818 31.3843C82.5818 28.5056 80.2409 26.1719 77.3534 26.1719C74.4658 26.1719 72.125 28.5056 72.125 31.3843C72.125 34.2631 74.4658 36.5967 77.3534 36.5967Z" fill="url(#paint10_linear_6136_45467)"/>
</mask>
<g mask="url(#mask5_6136_45467)">
<path d="M77.3534 36.5967C80.2409 36.5967 82.5818 34.2631 82.5818 31.3843C82.5818 28.5056 80.2409 26.1719 77.3534 26.1719C74.4658 26.1719 72.125 28.5056 72.125 31.3843C72.125 34.2631 74.4658 36.5967 77.3534 36.5967Z" fill="url(#paint11_linear_6136_45467)"/>
</g>
<mask id="mask6_6136_45467" style="mask-type:alpha" maskUnits="userSpaceOnUse" x="11" y="52" width="12" height="11">
<path d="M16.7909 62.714C19.6784 62.714 22.0193 60.3803 22.0193 57.5015C22.0193 54.6228 19.6784 52.2891 16.7909 52.2891C13.9033 52.2891 11.5625 54.6228 11.5625 57.5015C11.5625 60.3803 13.9033 62.714 16.7909 62.714Z" fill="url(#paint12_linear_6136_45467)"/>
</mask>
<g mask="url(#mask6_6136_45467)">
<path d="M16.7909 62.714C19.6784 62.714 22.0193 60.3803 22.0193 57.5015C22.0193 54.6228 19.6784 52.2891 16.7909 52.2891C13.9033 52.2891 11.5625 54.6228 11.5625 57.5015C11.5625 60.3803 13.9033 62.714 16.7909 62.714Z" fill="url(#paint13_linear_6136_45467)"/>
</g>
<mask id="mask7_6136_45467" style="mask-type:alpha" maskUnits="userSpaceOnUse" x="41" y="52" width="12" height="11">
<path d="M47.0721 62.714C49.9597 62.714 52.3005 60.3803 52.3005 57.5015C52.3005 54.6228 49.9597 52.2891 47.0721 52.2891C44.1846 52.2891 41.8438 54.6228 41.8438 57.5015C41.8438 60.3803 44.1846 62.714 47.0721 62.714Z" fill="url(#paint14_linear_6136_45467)"/>
</mask>
<g mask="url(#mask7_6136_45467)">
<path d="M47.0721 62.714C49.9597 62.714 52.3005 60.3803 52.3005 57.5015C52.3005 54.6228 49.9597 52.2891 47.0721 52.2891C44.1846 52.2891 41.8438 54.6228 41.8438 57.5015C41.8438 60.3803 44.1846 62.714 47.0721 62.714Z" fill="url(#paint15_linear_6136_45467)"/>
</g>
<mask id="mask8_6136_45467" style="mask-type:alpha" maskUnits="userSpaceOnUse" x="72" y="52" width="11" height="11">
<path d="M77.3534 62.714C80.2409 62.714 82.5818 60.3803 82.5818 57.5015C82.5818 54.6228 80.2409 52.2891 77.3534 52.2891C74.4658 52.2891 72.125 54.6228 72.125 57.5015C72.125 60.3803 74.4658 62.714 77.3534 62.714Z" fill="url(#paint16_linear_6136_45467)"/>
</mask>
<g mask="url(#mask8_6136_45467)">
<path d="M77.3534 62.714C80.2409 62.714 82.5818 60.3803 82.5818 57.5015C82.5818 54.6228 80.2409 52.2891 77.3534 52.2891C74.4658 52.2891 72.125 54.6228 72.125 57.5015C72.125 60.3803 74.4658 62.714 77.3534 62.714Z" fill="url(#paint17_linear_6136_45467)"/>
</g>
<mask id="mask9_6136_45467" style="mask-type:alpha" maskUnits="userSpaceOnUse" x="11" y="78" width="12" height="11">
<path d="M16.7909 88.882C19.6784 88.882 22.0193 86.5482 22.0193 83.6695C22.0193 80.7907 19.6784 78.457 16.7909 78.457C13.9033 78.457 11.5625 80.7907 11.5625 83.6695C11.5625 86.5482 13.9033 88.882 16.7909 88.882Z" fill="url(#paint18_linear_6136_45467)"/>
</mask>
<g mask="url(#mask9_6136_45467)">
<path d="M16.7909 88.882C19.6784 88.882 22.0193 86.5482 22.0193 83.6695C22.0193 80.7907 19.6784 78.457 16.7909 78.457C13.9033 78.457 11.5625 80.7907 11.5625 83.6695C11.5625 86.5482 13.9033 88.882 16.7909 88.882Z" fill="url(#paint19_linear_6136_45467)"/>
</g>
<mask id="mask10_6136_45467" style="mask-type:alpha" maskUnits="userSpaceOnUse" x="41" y="78" width="12" height="11">
<path d="M47.0721 88.882C49.9597 88.882 52.3005 86.5482 52.3005 83.6695C52.3005 80.7907 49.9597 78.457 47.0721 78.457C44.1846 78.457 41.8438 80.7907 41.8438 83.6695C41.8438 86.5482 44.1846 88.882 47.0721 88.882Z" fill="url(#paint20_linear_6136_45467)"/>
</mask>
<g mask="url(#mask10_6136_45467)">
<path d="M47.0721 88.882C49.9597 88.882 52.3005 86.5482 52.3005 83.6695C52.3005 80.7907 49.9597 78.457 47.0721 78.457C44.1846 78.457 41.8438 80.7907 41.8438 83.6695C41.8438 86.5482 44.1846 88.882 47.0721 88.882Z" fill="url(#paint21_linear_6136_45467)"/>
</g>
<mask id="mask11_6136_45467" style="mask-type:alpha" maskUnits="userSpaceOnUse" x="72" y="78" width="11" height="11">
<path d="M77.3534 88.882C80.2409 88.882 82.5818 86.5482 82.5818 83.6695C82.5818 80.7907 80.2409 78.457 77.3534 78.457C74.4658 78.457 72.125 80.7907 72.125 83.6695C72.125 86.5482 74.4658 88.882 77.3534 88.882Z" fill="url(#paint22_linear_6136_45467)"/>
</mask>
<g mask="url(#mask11_6136_45467)">
<path d="M77.3534 88.882C80.2409 88.882 82.5818 86.5482 82.5818 83.6695C82.5818 80.7907 80.2409 78.457 77.3534 78.457C74.4658 78.457 72.125 80.7907 72.125 83.6695C72.125 86.5482 74.4658 88.882 77.3534 88.882Z" fill="url(#paint23_linear_6136_45467)"/>
</g>
<mask id="mask12_6136_45467" style="mask-type:alpha" maskUnits="userSpaceOnUse" x="11" y="104" width="12" height="11">
<path d="M16.7909 114.999C19.6784 114.999 22.0193 112.665 22.0193 109.787C22.0193 106.908 19.6784 104.574 16.7909 104.574C13.9033 104.574 11.5625 106.908 11.5625 109.787C11.5625 112.665 13.9033 114.999 16.7909 114.999Z" fill="url(#paint24_linear_6136_45467)"/>
</mask>
<g mask="url(#mask12_6136_45467)">
<path d="M16.7909 114.999C19.6784 114.999 22.0193 112.665 22.0193 109.787C22.0193 106.908 19.6784 104.574 16.7909 104.574C13.9033 104.574 11.5625 106.908 11.5625 109.787C11.5625 112.665 13.9033 114.999 16.7909 114.999Z" fill="url(#paint25_linear_6136_45467)"/>
</g>
<mask id="mask13_6136_45467" style="mask-type:alpha" maskUnits="userSpaceOnUse" x="41" y="104" width="12" height="11">
<path d="M47.0721 114.999C49.9597 114.999 52.3005 112.665 52.3005 109.787C52.3005 106.908 49.9597 104.574 47.0721 104.574C44.1846 104.574 41.8438 106.908 41.8438 109.787C41.8438 112.665 44.1846 114.999 47.0721 114.999Z" fill="url(#paint26_linear_6136_45467)"/>
</mask>
<g mask="url(#mask13_6136_45467)">
<path d="M47.0721 114.999C49.9597 114.999 52.3005 112.665 52.3005 109.787C52.3005 106.908 49.9597 104.574 47.0721 104.574C44.1846 104.574 41.8438 106.908 41.8438 109.787C41.8438 112.665 44.1846 114.999 47.0721 114.999Z" fill="url(#paint27_linear_6136_45467)"/>
</g>
<mask id="mask14_6136_45467" style="mask-type:alpha" maskUnits="userSpaceOnUse" x="72" y="104" width="11" height="11">
<path d="M77.3534 114.999C80.2409 114.999 82.5818 112.665 82.5818 109.787C82.5818 106.908 80.2409 104.574 77.3534 104.574C74.4658 104.574 72.125 106.908 72.125 109.787C72.125 112.665 74.4658 114.999 77.3534 114.999Z" fill="url(#paint28_linear_6136_45467)"/>
</mask>
<g mask="url(#mask14_6136_45467)">
<path d="M77.3534 114.999C80.2409 114.999 82.5818 112.665 82.5818 109.787C82.5818 106.908 80.2409 104.574 77.3534 104.574C74.4658 104.574 72.125 106.908 72.125 109.787C72.125 112.665 74.4658 114.999 77.3534 114.999Z" fill="url(#paint29_linear_6136_45467)"/>
</g>
</g>
<defs>
<linearGradient id="paint0_linear_6136_45467" x1="58.4053" y1="110.551" x2="-12.9963" y2="-71.2526" gradientUnits="userSpaceOnUse">
<stop/>
<stop offset="1" stop-color="white"/>
</linearGradient>
<linearGradient id="paint1_linear_6136_45467" x1="58.4053" y1="110.551" x2="-12.9963" y2="-71.2526" gradientUnits="userSpaceOnUse">
<stop stop-color="#97C3F9"/>
<stop offset="1" stop-color="#93C1F9"/>
</linearGradient>
<linearGradient id="paint2_linear_6136_45467" x1="84.6097" y1="100.259" x2="13.2081" y2="-81.5444" gradientUnits="userSpaceOnUse">
<stop/>
<stop offset="1" stop-color="white"/>
</linearGradient>
<linearGradient id="paint3_linear_6136_45467" x1="84.6097" y1="100.259" x2="13.2081" y2="-81.5444" gradientUnits="userSpaceOnUse">
<stop stop-color="#97C3F9"/>
<stop offset="1" stop-color="#93C1F9"/>
</linearGradient>
<linearGradient id="paint4_linear_6136_45467" x1="110.814" y1="89.9679" x2="39.4126" y2="-91.8359" gradientUnits="userSpaceOnUse">
<stop/>
<stop offset="1" stop-color="white"/>
</linearGradient>
<linearGradient id="paint5_linear_6136_45467" x1="110.814" y1="89.9679" x2="39.4126" y2="-91.8359" gradientUnits="userSpaceOnUse">
<stop stop-color="#97C3F9"/>
<stop offset="1" stop-color="#93C1F9"/>
</linearGradient>
<linearGradient id="paint6_linear_6136_45467" x1="49.4628" y1="114.063" x2="-21.9376" y2="-67.7394" gradientUnits="userSpaceOnUse">
<stop/>
<stop offset="1" stop-color="white"/>
</linearGradient>
<linearGradient id="paint7_linear_6136_45467" x1="49.4628" y1="114.063" x2="-21.9376" y2="-67.7394" gradientUnits="userSpaceOnUse">
<stop stop-color="#97C3F9"/>
<stop offset="1" stop-color="#93C1F9"/>
</linearGradient>
<linearGradient id="paint8_linear_6136_45467" x1="75.6673" y1="103.772" x2="4.26689" y2="-78.0309" gradientUnits="userSpaceOnUse">
<stop/>
<stop offset="1" stop-color="white"/>
</linearGradient>
<linearGradient id="paint9_linear_6136_45467" x1="75.6673" y1="103.772" x2="4.26689" y2="-78.0309" gradientUnits="userSpaceOnUse">
<stop stop-color="#97C3F9"/>
<stop offset="1" stop-color="#93C1F9"/>
</linearGradient>
<linearGradient id="paint10_linear_6136_45467" x1="101.872" y1="93.4803" x2="30.4715" y2="-88.3222" gradientUnits="userSpaceOnUse">
<stop/>
<stop offset="1" stop-color="white"/>
</linearGradient>
<linearGradient id="paint11_linear_6136_45467" x1="101.872" y1="93.4803" x2="30.4715" y2="-88.3222" gradientUnits="userSpaceOnUse">
<stop stop-color="#97C3F9"/>
<stop offset="1" stop-color="#93C1F9"/>
</linearGradient>
<linearGradient id="paint12_linear_6136_45467" x1="40.5204" y1="117.577" x2="-30.8811" y2="-64.2272" gradientUnits="userSpaceOnUse">
<stop/>
<stop offset="1" stop-color="white"/>
</linearGradient>
<linearGradient id="paint13_linear_6136_45467" x1="40.5204" y1="117.577" x2="-30.8811" y2="-64.2272" gradientUnits="userSpaceOnUse">
<stop stop-color="#97C3F9"/>
<stop offset="1" stop-color="#93C1F9"/>
</linearGradient>
<linearGradient id="paint14_linear_6136_45467" x1="66.7249" y1="107.285" x2="-4.67673" y2="-74.5189" gradientUnits="userSpaceOnUse">
<stop/>
<stop offset="1" stop-color="white"/>
</linearGradient>
<linearGradient id="paint15_linear_6136_45467" x1="66.7249" y1="107.285" x2="-4.67673" y2="-74.5189" gradientUnits="userSpaceOnUse">
<stop stop-color="#97C3F9"/>
<stop offset="1" stop-color="#93C1F9"/>
</linearGradient>
<linearGradient id="paint16_linear_6136_45467" x1="92.9295" y1="96.9935" x2="21.5278" y2="-84.8104" gradientUnits="userSpaceOnUse">
<stop/>
<stop offset="1" stop-color="white"/>
</linearGradient>
<linearGradient id="paint17_linear_6136_45467" x1="92.9295" y1="96.9935" x2="21.5278" y2="-84.8104" gradientUnits="userSpaceOnUse">
<stop stop-color="#97C3F9"/>
<stop offset="1" stop-color="#93C1F9"/>
</linearGradient>
<linearGradient id="paint18_linear_6136_45467" x1="31.578" y1="121.085" x2="-39.8235" y2="-60.7182" gradientUnits="userSpaceOnUse">
<stop/>
<stop offset="1" stop-color="white"/>
</linearGradient>
<linearGradient id="paint19_linear_6136_45467" x1="31.578" y1="121.085" x2="-39.8235" y2="-60.7182" gradientUnits="userSpaceOnUse">
<stop stop-color="#97C3F9"/>
<stop offset="1" stop-color="#93C1F9"/>
</linearGradient>
<linearGradient id="paint20_linear_6136_45467" x1="57.7825" y1="110.794" x2="-13.6191" y2="-71.0098" gradientUnits="userSpaceOnUse">
<stop/>
<stop offset="1" stop-color="white"/>
</linearGradient>
<linearGradient id="paint21_linear_6136_45467" x1="57.7825" y1="110.794" x2="-13.6191" y2="-71.0098" gradientUnits="userSpaceOnUse">
<stop stop-color="#97C3F9"/>
<stop offset="1" stop-color="#93C1F9"/>
</linearGradient>
<linearGradient id="paint22_linear_6136_45467" x1="83.9871" y1="100.503" x2="12.5854" y2="-81.3014" gradientUnits="userSpaceOnUse">
<stop/>
<stop offset="1" stop-color="white"/>
</linearGradient>
<linearGradient id="paint23_linear_6136_45467" x1="83.9871" y1="100.503" x2="12.5854" y2="-81.3014" gradientUnits="userSpaceOnUse">
<stop stop-color="#97C3F9"/>
<stop offset="1" stop-color="#93C1F9"/>
</linearGradient>
<linearGradient id="paint24_linear_6136_45467" x1="22.6357" y1="124.598" x2="-48.7659" y2="-57.2055" gradientUnits="userSpaceOnUse">
<stop/>
<stop offset="1" stop-color="white"/>
</linearGradient>
<linearGradient id="paint25_linear_6136_45467" x1="22.6357" y1="124.598" x2="-48.7659" y2="-57.2055" gradientUnits="userSpaceOnUse">
<stop stop-color="#97C3F9"/>
<stop offset="1" stop-color="#93C1F9"/>
</linearGradient>
<linearGradient id="paint26_linear_6136_45467" x1="48.8402" y1="114.307" x2="-22.5614" y2="-67.4972" gradientUnits="userSpaceOnUse">
<stop/>
<stop offset="1" stop-color="white"/>
</linearGradient>
<linearGradient id="paint27_linear_6136_45467" x1="48.8402" y1="114.307" x2="-22.5614" y2="-67.4972" gradientUnits="userSpaceOnUse">
<stop stop-color="#97C3F9"/>
<stop offset="1" stop-color="#93C1F9"/>
</linearGradient>
<linearGradient id="paint28_linear_6136_45467" x1="75.0447" y1="104.015" x2="3.6431" y2="-77.7887" gradientUnits="userSpaceOnUse">
<stop/>
<stop offset="1" stop-color="white"/>
</linearGradient>
<linearGradient id="paint29_linear_6136_45467" x1="75.0447" y1="104.015" x2="3.6431" y2="-77.7887" gradientUnits="userSpaceOnUse">
<stop stop-color="#97C3F9"/>
<stop offset="1" stop-color="#93C1F9"/>
</linearGradient>
</defs>
</svg>
